<?xml version="1.0" encoding="UTF-8"?>
<svg width="16px" height="16px" viewBox="0 0 16 16" version="1.1" xmlns="http://www.w3.org/2000/svg" xmlns:xlink="http://www.w3.org/1999/xlink">
    <title>add_tag_well_16x16</title>
    <defs>
        <linearGradient x1="100%" y1="39.9854225%" x2="21.8383163%" y2="59.4236533%" id="linearGradient-1">
            <stop stop-color="#1AAAFF" offset="0%"></stop>
            <stop stop-color="#0077BE" offset="100%"></stop>
        </linearGradient>
        <linearGradient x1="153.114982%" y1="50%" x2="-23.4579246%" y2="24.9121515%" id="linearGradient-2">
            <stop stop-color="#1AAAFF" offset="0%"></stop>
            <stop stop-color="#0077BE" offset="100%"></stop>
        </linearGradient>
    </defs>
    <g id="add_tag_well_16x16" stroke="none" stroke-width="1" fill="none" fill-rule="evenodd">
        <g id="Group" transform="translate(-3.000000, -1.000000)">
            <path d="M15.683933,5.40148034 L16.183933,12.4734133 L5.3117388,12.9734133 L1.67221895,9.5410002 L4.95818541,5.54792695 L15.683933,5.40148034 Z" id="Rectangle" stroke="url(#linearGradient-1)" transform="translate(8.869659, 9.187447) rotate(-44.724704) translate(-8.869659, -9.187447) "></path>
            <circle id="Oval" fill="url(#linearGradient-2)" transform="translate(6.500000, 11.500000) rotate(-90.000000) translate(-6.500000, -11.500000) " cx="6.5" cy="11.5" r="1.5"></circle>
        </g>
        <g id="Group-2" transform="translate(8.000000, 8.000000)">
            <circle id="Oval-2" stroke="#FFFFFF" fill="#F16464" transform="translate(4.000000, 4.000000) rotate(-90.000000) translate(-4.000000, -4.000000) " cx="4" cy="4" r="4.5"></circle>
            <rect id="Rectangle" fill="#FFFFFF" x="3.5" y="1.5" width="1" height="5" rx="0.5"></rect>
            <rect id="Rectangle" fill="#FFFFFF" transform="translate(4.000000, 4.000000) rotate(-270.000000) translate(-4.000000, -4.000000) " x="3.5" y="1.5" width="1" height="5" rx="0.5"></rect>
        </g>
    </g>
</svg>