<?xml version="1.0" encoding="UTF-8"?>
<svg width="32px" height="32px" viewBox="0 0 32 32" version="1.1" xmlns="http://www.w3.org/2000/svg" xmlns:xlink="http://www.w3.org/1999/xlink">
    <title>anhydrite_flag_32x32</title>
    <defs>
        <linearGradient x1="50%" y1="3.49530347%" x2="50%" y2="100%" id="linearGradient-1">
            <stop stop-color="#0093EB" offset="0%"></stop>
            <stop stop-color="#0077BE" offset="100%"></stop>
        </linearGradient>
        <linearGradient x1="50%" y1="3.49530347%" x2="50%" y2="100%" id="linearGradient-2">
            <stop stop-color="#0093EB" offset="0%"></stop>
            <stop stop-color="#0077BE" offset="100%"></stop>
        </linearGradient>
        <linearGradient x1="50%" y1="3.49530347%" x2="50%" y2="100%" id="linearGradient-3">
            <stop stop-color="#0093EB" offset="0%"></stop>
            <stop stop-color="#0077BE" offset="100%"></stop>
        </linearGradient>
        <linearGradient x1="50%" y1="3.49530347%" x2="50%" y2="100%" id="linearGradient-4">
            <stop stop-color="#0093EB" offset="0%"></stop>
            <stop stop-color="#0077BE" offset="100%"></stop>
        </linearGradient>
        <linearGradient x1="50%" y1="3.49530347%" x2="50%" y2="100%" id="linearGradient-5">
            <stop stop-color="#0093EB" offset="0%"></stop>
            <stop stop-color="#0077BE" offset="100%"></stop>
        </linearGradient>
        <linearGradient x1="50%" y1="3.49530347%" x2="50%" y2="100%" id="linearGradient-6">
            <stop stop-color="#0093EB" offset="0%"></stop>
            <stop stop-color="#0077BE" offset="100%"></stop>
        </linearGradient>
        <linearGradient x1="50%" y1="3.49530347%" x2="50%" y2="100%" id="linearGradient-7">
            <stop stop-color="#0093EB" offset="0%"></stop>
            <stop stop-color="#0077BE" offset="100%"></stop>
        </linearGradient>
        <linearGradient x1="50%" y1="3.49530347%" x2="50%" y2="100%" id="linearGradient-8">
            <stop stop-color="#0093EB" offset="0%"></stop>
            <stop stop-color="#0077BE" offset="100%"></stop>
        </linearGradient>
        <linearGradient x1="50%" y1="3.49530347%" x2="50%" y2="100%" id="linearGradient-9">
            <stop stop-color="#0093EB" offset="0%"></stop>
            <stop stop-color="#0077BE" offset="100%"></stop>
        </linearGradient>
        <linearGradient x1="50%" y1="3.49530347%" x2="50%" y2="100%" id="linearGradient-10">
            <stop stop-color="#0093EB" offset="0%"></stop>
            <stop stop-color="#0077BE" offset="100%"></stop>
        </linearGradient>
        <linearGradient x1="50%" y1="3.49530347%" x2="50%" y2="100%" id="linearGradient-11">
            <stop stop-color="#0093EB" offset="0%"></stop>
            <stop stop-color="#0077BE" offset="100%"></stop>
        </linearGradient>
        <linearGradient x1="100%" y1="50%" x2="0%" y2="50%" id="linearGradient-12">
            <stop stop-color="#FF8D8D" offset="0%"></stop>
            <stop stop-color="#FFBFBF" offset="42.1374594%"></stop>
            <stop stop-color="#F16464" offset="71.6801214%"></stop>
            <stop stop-color="#FFD3D3" offset="100%"></stop>
        </linearGradient>
    </defs>
    <g id="anhydrite_flag_32x32" stroke="none" stroke-width="1" fill="none" fill-rule="evenodd">
        <rect id="Rectangle-Copy-8" fill="#0077BE" transform="translate(18.500000, 30.500000) scale(-1, 1) translate(-18.500000, -30.500000) " x="11" y="30" width="15" height="1" rx="0.5"></rect>
        <polygon id="Rectangle" fill="url(#linearGradient-1)" transform="translate(25.603501, 25.230294) scale(-1, 1) rotate(-1.000000) translate(-25.603501, -25.230294) " points="22.768915 20.2302938 26.3535487 21.2302938 28.4380867 30.2302938 26.768915 30.2302938"></polygon>
        <polygon id="Rectangle" fill="url(#linearGradient-2)" transform="translate(26.826925, 19.250735) scale(-1, 1) rotate(-1.000000) translate(-26.826925, -19.250735) " points="25.1112187 19.9106431 28.5426307 20.8902649 27.5426307 17.6112047"></polygon>
        <polygon id="Rectangle" fill="url(#linearGradient-3)" transform="translate(24.186928, 19.160534) scale(-1, 1) rotate(-1.000000) translate(-24.186928, -19.160534) " points="25.7143188 18.7474679 23.6580368 20.7715887 22.659538 17.5494796"></polygon>
        <polygon id="Rectangle" fill="url(#linearGradient-4)" opacity="0.64734468" transform="translate(22.955077, 24.684489) scale(-1, 1) rotate(-1.000000) translate(-22.955077, -24.684489) " points="23.4629458 19.1849893 21.4496978 21.0951481 23.4629458 30.1839893 24.460457 30.1839893"></polygon>
        <polygon id="Rectangle" fill="url(#linearGradient-5)" transform="translate(18.425560, 10.323626) scale(-1, 1) translate(-18.425560, -10.323626) " points="22.8447266 11.0470594 18.4567933 12.143253 14.0063925 9.74630737 18.8511191 8.504"></polygon>
        <polygon id="Rectangle" fill="url(#linearGradient-6)" transform="translate(20.797808, 20.255467) scale(-1, 1) translate(-20.797808, -20.255467) " points="18.5956166 10.5109332 23 13 21.5956166 30 20.5931278 30"></polygon>
        <polygon id="Rectangle" fill="url(#linearGradient-7)" opacity="0.584495908" transform="translate(16.804913, 21.000000) scale(-1, 1) translate(-16.804913, -21.000000) " points="19.609825 12 15.4200467 13 14 30 15.609825 30"></polygon>
        <polygon id="Rectangle" fill="url(#linearGradient-8)" transform="translate(16.027903, 26.669570) scale(-1, 1) rotate(35.000000) translate(-16.027903, -26.669570) " points="13.3681334 22.1691445 16.9582951 23.1854449 18.6876725 30.0556855 17.03564 31.1699955"></polygon>
        <polygon id="Rectangle" fill="url(#linearGradient-9)" transform="translate(13.559986, 21.710109) scale(-1, 1) rotate(35.000000) translate(-13.559986, -21.710109) " points="11.9055068 22.3452895 15.2144653 23.2727731 14.245757 20.1474457"></polygon>
        <polygon id="Rectangle" fill="url(#linearGradient-10)" transform="translate(11.340037, 23.154044) scale(-1, 1) rotate(35.000000) translate(-11.340037, -23.154044) " points="12.9473414 22.5871022 10.7261298 24.7209861 9.73273273 21.5871022"></polygon>
        <polygon id="Rectangle" fill="url(#linearGradient-11)" opacity="0.788341704" transform="translate(12.979325, 27.262882) scale(-1, 1) rotate(35.000000) translate(-12.979325, -27.262882) " points="13.7291372 22.8423768 11.4687493 24.9361949 13.1398426 31.6833867 14.4899011 30.7727607"></polygon>
        <g id="Group-2" transform="translate(3.000000, 2.000000)">
            <g id="Group-4" transform="translate(0.000000, 0.500000)" fill="url(#linearGradient-12)">
                <path d="M0.5,8.5 C1.23958707,7.45297783 2.31022384,6.78631117 3.71191032,6.5 C5.25170615,6.18547835 5.25170615,7.19641193 7.30952381,6.85544846 C8.7396831,6.61848282 10.1365085,5.5 11.5,3.5 C10.7734995,3.91071734 9.83931026,4.11607601 8.69743238,4.11607601 C6.33422961,4.11607601 6.12615738,2.52056858 4.16666667,1.5 C3.28560507,1.04111353 2.06338285,0.707780196 0.5,0.5 L0.5,8.5 Z" id="Fill-2-Copy"></path>
            </g>
            <rect id="Rectangle" fill="#0077BE" x="0" y="0" width="1" height="15" rx="0.5"></rect>
        </g>
        <circle id="Oval" fill="#0077BE" cx="3.5" cy="17.5" r="1.5"></circle>
    </g>
</svg>