<?xml version="1.0" encoding="UTF-8"?>
<svg width="16px" height="16px" viewBox="0 0 16 16" version="1.1" xmlns="http://www.w3.org/2000/svg" xmlns:xlink="http://www.w3.org/1999/xlink">
    <title>array_curve_16x16</title>
    <defs>
        <linearGradient x1="72.6375729%" y1="15.6593998%" x2="28.1991534%" y2="90.579711%" id="linearGradient-1">
            <stop stop-color="#1AAAFF" offset="0%"></stop>
            <stop stop-color="#0077BE" offset="100%"></stop>
        </linearGradient>
    </defs>
    <g id="array_curve_16x16" stroke="none" stroke-width="1" fill="none" fill-rule="evenodd">
        <path d="M9.20605469,14.0219727 C9.20605469,14.4731468 9.32031136,14.7946768 9.54882812,14.9865723 C9.77734489,15.1784678 10.0278307,15.2905272 10.300293,15.3227539 L10.300293,15.8369141 C9.77880599,15.7841794 9.34741382,15.6311048 9.00610352,15.3776855 C8.66479322,15.1242663 8.49414062,14.7075224 8.49414062,14.1274414 L8.49414062,13.222168 C8.49414062,12.9028304 8.44433644,12.6508798 8.34472656,12.4663086 C8.16308503,12.1293928 7.8144557,11.9331057 7.29882812,11.8774414 L7.29882812,11.3764648 C7.81738541,11.3149411 8.16601473,11.1230485 8.34472656,10.8007812 C8.44433644,10.6220694 8.49414062,10.3657243 8.49414062,10.0317383 L8.49414062,9.31542969 C8.49414062,8.76464568 8.6135242,8.32812661 8.85229492,8.00585938 C9.09106565,7.68359214 9.57372684,7.49169953 10.300293,7.43017578 L10.300293,7.93115234 C9.82861092,7.97216817 9.50927818,8.18017391 9.34228516,8.55517578 C9.25146439,8.76025493 9.20605469,9.04443178 9.20605469,9.40771484 L9.20605469,9.89990234 C9.20605469,10.3393577 9.15185601,10.6762684 9.04345703,10.9106445 C8.84716699,11.3354513 8.46631142,11.5742185 7.90087891,11.6269531 C8.46338172,11.6767581 8.84423729,11.9228494 9.04345703,12.3652344 C9.15185601,12.6083997 9.20605469,12.939451 9.20605469,13.3583984 L9.20605469,14.0219727 Z M15.5737305,11.6269531 C15.0112277,11.5742185 14.6318369,11.3369162 14.4355469,10.9150391 C14.3271479,10.6806629 14.2729492,10.3422874 14.2729492,9.89990234 L14.2729492,9.40771484 C14.2729492,9.02099416 14.2275395,8.72802834 14.1367188,8.52880859 C13.9726554,8.17138493 13.6533227,7.97216817 13.1787109,7.93115234 L13.1787109,7.43017578 C13.9345741,7.49169953 14.4472643,7.72607218 14.7167969,8.13330078 C14.892579,8.39404427 14.9804688,8.7880833 14.9804688,9.31542969 L14.9804688,10.0317383 C14.9804688,10.3598649 15.0302729,10.6147452 15.1298828,10.7963867 C15.3115243,11.1274431 15.6616185,11.3208005 16.1801758,11.3764648 L16.1801758,11.8774414 C15.6645482,11.9301758 15.314454,12.127928 15.1298828,12.4707031 C15.0302729,12.6582041 14.9804688,12.9086898 14.9804688,13.222168 L14.9804688,14.1274414 C14.9804688,14.7192412 14.8098162,15.1381824 14.4685059,15.3842773 C14.1271956,15.6303723 13.6972682,15.7812497 13.1787109,15.8369141 L13.1787109,15.3227539 C13.4921891,15.2817381 13.7529286,15.1564952 13.9609375,14.9470215 C14.1689464,14.7375478 14.2729492,14.4292013 14.2729492,14.0219727 L14.2729492,13.3583984 C14.2729492,12.9365213 14.3271479,12.60547 14.4355469,12.3652344 C14.6347666,11.9228494 15.0141574,11.6767581 15.5737305,11.6269531 Z" id="{}" fill="#F16464" fill-rule="nonzero"></path>
        <g id="Group" transform="translate(1.000000, 0.000000)">
            <path d="M2.49740253,0.931026802 C3.07684452,0.927631318 3.48198,0.929356684 3.71280898,0.936202899 C3.91959731,0.942336086 4.18935649,0.958595689 4.52208652,0.984981707 C4.77478796,1.00496214 4.97251658,1.21091257 4.98225004,1.46421573 L4.98280936,1.47877138 C4.99212258,1.72113818 4.80319533,1.92516515 4.56082853,1.93447837 C4.5552101,1.93469426 4.54958804,1.93480224 4.54396545,1.93480224 L2.50033287,1.93480224 C2.22419049,1.93480224 2.00033287,1.71094461 2.00033287,1.43480224 L2.00033287,1.4310913 C2.00025979,1.15605224 2.2223682,0.932638481 2.49740253,0.931026802 Z" id="Rectangle" fill="#0077BE" transform="translate(3.491700, 1.432070) rotate(6.000000) translate(-3.491700, -1.432070) "></path>
            <path d="M2.75274153,12.1722039 C3.33218351,12.1688084 3.737319,12.1705338 3.96814798,12.17738 C4.17493631,12.1835132 4.44469549,12.1997728 4.77742552,12.2261588 C5.03012696,12.2461393 5.22785558,12.4520897 5.23758904,12.7053929 L5.23814836,12.7199485 C5.24746158,12.9623153 5.05853433,13.1663423 4.81616753,13.1756555 C4.8105491,13.1758714 4.80492703,13.1759794 4.79930445,13.1759794 L2.75567187,13.1759794 C2.47952949,13.1759794 2.25567187,12.9521217 2.25567187,12.6759794 L2.25567187,12.6722684 C2.25559879,12.3972294 2.4777072,12.1738156 2.75274153,12.1722039 Z" id="Rectangle" fill="#0077BE" transform="translate(3.747039, 12.673247) rotate(-162.000000) translate(-3.747039, -12.673247) "></path>
            <path d="M4,1 C7.33333333,1.44000187 9,2.53091097 9,4.27272727 C9,7.93195164 0,6.99431245 0,10.2613469 C0,11.5416611 1,12.4545455 3,13 L4,1 Z" id="Rectangle" fill="url(#linearGradient-1)"></path>
            <rect id="Rectangle-7-Copy-8" fill="#0077BE" x="3" y="0" width="1" height="14" rx="0.5"></rect>
        </g>
    </g>
</svg>