<?xml version="1.0" encoding="UTF-8"?>
<svg width="16px" height="16px" viewBox="0 0 16 16" version="1.1" xmlns="http://www.w3.org/2000/svg" xmlns:xlink="http://www.w3.org/1999/xlink">
    <title>bad_hole_from_caliper_16x16</title>
    <defs>
        <linearGradient x1="85.2277123%" y1="0%" x2="26.4009665%" y2="63.7398364%" id="linearGradient-1">
            <stop stop-color="#00ACFF" stop-opacity="0" offset="0%"></stop>
            <stop stop-color="#6EC5F9" stop-opacity="0.673601676" offset="49.9796785%"></stop>
            <stop stop-color="#0077BE" offset="100%"></stop>
        </linearGradient>
        <linearGradient x1="85.0289284%" y1="38.6607775%" x2="66.7000249%" y2="66.2709612%" id="linearGradient-2">
            <stop stop-color="#1AAAFF" offset="0%"></stop>
            <stop stop-color="#0077BE" offset="100%"></stop>
        </linearGradient>
        <linearGradient x1="50%" y1="3.49530347%" x2="50%" y2="100%" id="linearGradient-3">
            <stop stop-color="#0077BE" offset="0%"></stop>
            <stop stop-color="#014268" offset="100%"></stop>
        </linearGradient>
    </defs>
    <g id="bad_hole_from_caliper_16x16" stroke="none" stroke-width="1" fill="none" fill-rule="evenodd">
        <g id="Group-2" transform="translate(0.000000, 0.500000)">
            <g id="Group" transform="translate(0.000000, 2.000000)">
                <path d="M0.181818182,1.88461538 C1.04230431,2.96441026 2.31503158,3.50358974 4,3.50215385 C5.68496842,3.50071795 6.95769569,2.96153846 7.81818182,1.88461538 L7.81818182,11.5769231 C7.08142252,12.525641 5.80869525,13 4,13 C2.19130475,13 0.91857748,12.525641 0.181818182,11.5769231 L0.181818182,1.88461538 Z" id="Rectangle" fill="url(#linearGradient-1)"></path>
                <ellipse id="Oval" stroke="#0077BE" fill="url(#linearGradient-2)" cx="4.0624403" cy="1.88461538" rx="3.39210515" ry="1.61538462"></ellipse>
                <polygon id="Rectangle" fill="url(#linearGradient-3)" points="0.181818182 6.19230769 1.60571946 8.07082412 2.72727273 7.17982499 3.86438924 8.38391019 5.12640836 7.44465198 5.60826523 9.1528517 7.81818182 9.32316841 5.44855992 9.42307692 4.98470188 8.08196818 3.78846527 8.90310569 2.72727273 7.91567399 1.55291073 8.99823512 0.181818182 8.42863677"></polygon>
            </g>
            <circle id="Oval" stroke="#FFFFFF" fill="#F16464" cx="11.5" cy="4.5" r="5"></circle>
            <path d="M11.6757812,1.5 C12.4023474,1.5 12.9661438,1.69140434 13.3671875,2.07421875 C13.7682312,2.45703316 13.9908852,2.89192465 14.0351562,3.37890625 L13.2773438,3.37890625 C13.1914058,3.00911273 13.0201836,2.71614691 12.7636719,2.5 C12.5071602,2.28385309 12.1471377,2.17578125 11.6835938,2.17578125 C11.1184868,2.17578125 10.6621111,2.37434697 10.3144531,2.77148438 C9.96679514,3.16862178 9.79296875,3.77733965 9.79296875,4.59765625 C9.79296875,5.26953461 9.94986822,5.81445104 10.2636719,6.23242188 C10.5774755,6.65039271 11.0455698,6.859375 11.6679688,6.859375 C12.2408883,6.859375 12.6770818,6.63932512 12.9765625,6.19921875 C13.1354175,5.96744676 13.2539059,5.6627623 13.3320312,5.28515625 L14.0898438,5.28515625 C14.0221351,5.88932594 13.798179,6.39583129 13.4179688,6.8046875 C12.9622373,7.29687746 12.3476601,7.54296875 11.5742188,7.54296875 C10.9075488,7.54296875 10.3476585,7.34114785 9.89453125,6.9375 C9.2981741,6.40364316 9,5.57943266 9,4.46484375 C9,3.61848535 9.22395609,2.92448187 9.671875,2.3828125 C10.1562524,1.79426789 10.8242145,1.5 11.6757812,1.5 Z" id="C" fill="#FFFFFF" fill-rule="nonzero"></path>
        </g>
    </g>
</svg>