<?xml version="1.0" encoding="UTF-8"?>
<svg width="16px" height="16px" viewBox="0 0 16 16" version="1.1" xmlns="http://www.w3.org/2000/svg" xmlns:xlink="http://www.w3.org/1999/xlink">
    <title>bad_hole_from_drho_16x16</title>
    <defs>
        <linearGradient x1="85.2277123%" y1="0%" x2="26.4009665%" y2="63.7398364%" id="linearGradient-1">
            <stop stop-color="#00ACFF" stop-opacity="0" offset="0%"></stop>
            <stop stop-color="#6EC5F9" stop-opacity="0.673601676" offset="49.9796785%"></stop>
            <stop stop-color="#0077BE" offset="100%"></stop>
        </linearGradient>
        <linearGradient x1="85.0289284%" y1="38.6607775%" x2="66.7000249%" y2="66.2709612%" id="linearGradient-2">
            <stop stop-color="#1AAAFF" offset="0%"></stop>
            <stop stop-color="#0077BE" offset="100%"></stop>
        </linearGradient>
        <linearGradient x1="50%" y1="3.49530347%" x2="50%" y2="100%" id="linearGradient-3">
            <stop stop-color="#0077BE" offset="0%"></stop>
            <stop stop-color="#014268" offset="100%"></stop>
        </linearGradient>
    </defs>
    <g id="bad_hole_from_drho_16x16" stroke="none" stroke-width="1" fill="none" fill-rule="evenodd">
        <g id="Group-2" transform="translate(0.000000, 0.500000)">
            <g id="Group" transform="translate(0.000000, 2.000000)">
                <path d="M0.181818182,1.88461538 C1.04230431,2.96441026 2.31503158,3.50358974 4,3.50215385 C5.68496842,3.50071795 6.95769569,2.96153846 7.81818182,1.88461538 L7.81818182,11.5769231 C7.08142252,12.525641 5.80869525,13 4,13 C2.19130475,13 0.91857748,12.525641 0.181818182,11.5769231 L0.181818182,1.88461538 Z" id="Rectangle" fill="url(#linearGradient-1)"></path>
                <ellipse id="Oval" stroke="#0077BE" fill="url(#linearGradient-2)" cx="4.0624403" cy="1.88461538" rx="3.39210515" ry="1.61538462"></ellipse>
                <polygon id="Rectangle" fill="url(#linearGradient-3)" points="0.181818182 6.19230769 1.60571946 8.61661591 2.72727273 7.46674227 3.86438924 9.02066728 5.12640836 7.80851317 5.60826523 10.0130202 7.81818182 10.2328214 5.44855992 10.3617577 4.98470188 8.6309978 3.78846527 9.69071194 2.72727273 8.41638783 1.55291073 9.81348066 0.181818182 9.0783889"></polygon>
            </g>
            <circle id="Oval" stroke="#FFFFFF" fill="#F16464" cx="11.5" cy="4.5" r="5"></circle>
            <path d="M11.5351562,6.69906342 C11.7981784,6.69906342 12.0143221,6.67171994 12.1835938,6.61703217 C12.4856786,6.51546916 12.733072,6.32015861 12.9257812,6.03109467 C13.0794279,5.79932267 13.1901038,5.50245064 13.2578125,5.14046967 C13.2968752,4.92432275 13.3164062,4.72380392 13.3164062,4.53890717 C13.3164062,3.82796611 13.1751316,3.2758883 12.8925781,2.88265717 C12.6100246,2.48942603 12.1549511,2.29281342 11.5273438,2.29281342 L10.1484375,2.29281342 L10.1484375,6.69906342 L11.5351562,6.69906342 Z M9.3671875,1.62484467 L11.6914062,1.62484467 C12.4804727,1.62484467 13.0924457,1.90478978 13.5273438,2.46468842 C13.9153665,2.96989928 14.109375,3.61702822 14.109375,4.40609467 C14.109375,5.01547271 13.9947928,5.56624846 13.765625,6.05843842 C13.3619771,6.92823443 12.6679737,7.36312592 11.6835938,7.36312592 L9.3671875,7.36312592 L9.3671875,1.62484467 Z" id="D" fill="#FFFFFF" fill-rule="nonzero"></path>
        </g>
    </g>
</svg>