<?xml version="1.0" encoding="UTF-8"?>
<svg width="32px" height="32px" viewBox="0 0 32 32" version="1.1" xmlns="http://www.w3.org/2000/svg" xmlns:xlink="http://www.w3.org/1999/xlink">
    <title>badhole_coal_salt_32x32</title>
    <defs>
        <linearGradient x1="116.115358%" y1="0%" x2="5.70934256%" y2="63.7398364%" id="linearGradient-1">
            <stop stop-color="#00ACFF" stop-opacity="0" offset="0%"></stop>
            <stop stop-color="#6EC5F9" stop-opacity="0.673601676" offset="49.9796785%"></stop>
            <stop stop-color="#0077BE" offset="100%"></stop>
        </linearGradient>
        <linearGradient x1="85.0289284%" y1="40.8163265%" x2="-41.2658424%" y2="70.8548071%" id="linearGradient-2">
            <stop stop-color="#1AAAFF" offset="0%"></stop>
            <stop stop-color="#0077BE" offset="100%"></stop>
        </linearGradient>
        <linearGradient x1="50%" y1="3.49530347%" x2="50%" y2="100%" id="linearGradient-3">
            <stop stop-color="#0077BE" offset="0%"></stop>
            <stop stop-color="#014268" offset="100%"></stop>
        </linearGradient>
        <linearGradient x1="100%" y1="50%" x2="0%" y2="50%" id="linearGradient-4">
            <stop stop-color="#FF8D8D" offset="0%"></stop>
            <stop stop-color="#FFBFBF" offset="42.1374594%"></stop>
            <stop stop-color="#F16464" offset="71.6801214%"></stop>
            <stop stop-color="#FFD3D3" offset="100%"></stop>
        </linearGradient>
    </defs>
    <g id="badhole_coal_salt_32x32" stroke="none" stroke-width="1" fill="none" fill-rule="evenodd">
        <g id="Group" transform="translate(10.500000, 10.000000)">
            <path d="M0.5,3 C2.30292331,4.54957576 4.96958997,5.32333333 8.5,5.32127273 C12.03041,5.31921212 14.6970767,4.54545455 16.5,3 L16.5,15.7322051 C16.499995,16.6363357 16.092234,17.4922463 15.3901209,18.061886 C13.7975642,19.353962 11.5008572,20 8.5,20 C5.49913535,20 3.20242442,19.3539588 1.60986722,18.0618763 C0.907759083,17.4922336 0.5,16.6363245 0.5,15.7321959 L0.5,3 L0.5,3 Z" id="Rectangle" fill="url(#linearGradient-1)"></path>
            <ellipse id="Oval" stroke="#0077BE" fill="url(#linearGradient-2)" cx="8.5" cy="3" rx="7.5" ry="3.5"></ellipse>
            <polygon id="Rectangle" fill="url(#linearGradient-3)" points="0.5 8 3.24051927 11.808443 5.39912281 10.0020604 7.58768024 12.4431835 10.0166321 10.538962 10.9440405 14.0021104 15.1973684 14.3474049 10.6366629 14.5499562 9.74389599 11.8310361 7.44155275 13.4957835 5.39912281 11.4938966 3.13888066 13.6886458 0.5 12.5338607"></polygon>
        </g>
        <g id="Group-2" transform="translate(3.000000, 2.000000)">
            <g id="Group-4" transform="translate(0.000000, 0.500000)" fill="url(#linearGradient-4)">
                <path d="M0.5,8.5 C1.23958707,7.45297783 2.31022384,6.78631117 3.71191032,6.5 C5.25170615,6.18547835 5.25170615,7.19641193 7.30952381,6.85544846 C8.7396831,6.61848282 10.1365085,5.5 11.5,3.5 C10.7734995,3.91071734 9.83931026,4.11607601 8.69743238,4.11607601 C6.33422961,4.11607601 6.12615738,2.52056858 4.16666667,1.5 C3.28560507,1.04111353 2.06338285,0.707780196 0.5,0.5 L0.5,8.5 Z" id="Fill-2-Copy"></path>
            </g>
            <rect id="Rectangle" fill="#0077BE" x="0" y="0" width="1" height="15" rx="0.5"></rect>
        </g>
        <circle id="Oval" fill="#0077BE" cx="3.5" cy="17.5" r="1.5"></circle>
    </g>
</svg>