<?xml version="1.0" encoding="UTF-8"?>
<svg width="32px" height="32px" viewBox="0 0 32 32" version="1.1" xmlns="http://www.w3.org/2000/svg" xmlns:xlink="http://www.w3.org/1999/xlink">
    <title>basement_32x32</title>
    <g id="basement_32x32" stroke="none" stroke-width="1" fill="none" fill-rule="evenodd">
        <rect id="Rectangle-Copy" stroke="#0077BE" x="2.5" y="5.5" width="27" height="22" rx="2"></rect>
        <path d="M8.09375,11.2555 C8.42187664,11.2555 8.67708242,11.2099275 8.859375,11.1187812 C9.14583477,10.9755514 9.2890625,10.7177414 9.2890625,10.3453437 C9.2890625,9.97034187 9.13672027,9.71774023 8.83203125,9.58753125 C8.66015539,9.51461422 8.40494961,9.47815625 8.06640625,9.47815625 L6.6796875,9.47815625 L6.6796875,11.2555 L8.09375,11.2555 Z M8.35546875,13.9039375 C8.83203363,13.9039375 9.17187398,13.765918 9.375,13.489875 C9.5026048,13.315395 9.56640625,13.1044596 9.56640625,12.8570625 C9.56640625,12.4403937 9.3802102,12.1565424 9.0078125,12.0055 C8.80989484,11.9247704 8.54817871,11.8844062 8.22265625,11.8844062 L6.6796875,11.8844062 L6.6796875,13.9039375 L8.35546875,13.9039375 Z M5.91796875,8.82971875 L8.3828125,8.82971875 C9.05469086,8.82971875 9.53255066,9.03023758 9.81640625,9.43128125 C9.98307375,9.6682616 10.0664062,9.94169637 10.0664062,10.2515937 C10.0664062,10.6135747 9.9635427,10.9104468 9.7578125,11.1422187 C9.65104113,11.2646152 9.49739684,11.3765932 9.296875,11.4781562 C9.5911473,11.590136 9.81119719,11.7164368 9.95703125,11.8570625 C10.214845,12.1070637 10.34375,12.4521124 10.34375,12.8922187 C10.34375,13.2620123 10.2278657,13.5966443 9.99609375,13.896125 C9.64973785,14.3440439 9.09896211,14.568 8.34375,14.568 L5.91796875,14.568 L5.91796875,8.82971875 Z M14.21875,12.2164375 L13.3476562,9.68128125 L12.421875,12.2164375 L14.21875,12.2164375 Z M12.9414062,8.82971875 L13.8203125,8.82971875 L15.9023438,14.568 L15.0507812,14.568 L14.46875,12.84925 L12.1992188,12.84925 L11.578125,14.568 L10.78125,14.568 L12.9414062,8.82971875 Z M17.1171875,12.7164375 C17.1354168,13.04196 17.2122389,13.3062802 17.3476562,13.5094062 C17.60547,13.8896165 18.0598926,14.0797187 18.7109375,14.0797187 C19.0026056,14.0797187 19.268228,14.0380525 19.5078125,13.9547187 C19.9713565,13.7932596 20.203125,13.5042 20.203125,13.0875312 C20.203125,12.7750297 20.1054697,12.5523757 19.9101562,12.4195625 C19.7122386,12.2893535 19.4023459,12.1760734 18.9804687,12.0797187 L18.203125,11.9039375 C17.69531,11.7893536 17.3359386,11.6630528 17.125,11.5250312 C16.7604148,11.2854467 16.578125,10.9273774 16.578125,10.4508125 C16.578125,9.93518492 16.7565086,9.51201207 17.1132812,9.18128125 C17.4700539,8.85055043 17.9752571,8.6851875 18.6289062,8.6851875 C19.2304718,8.6851875 19.7415344,8.83036834 20.1621094,9.12073437 C20.5826844,9.41110041 20.7929687,9.87528848 20.7929687,10.5133125 L20.0625,10.5133125 C20.0234373,10.2060193 19.9401048,9.97034457 19.8125,9.80628125 C19.5755196,9.50680059 19.1731799,9.3570625 18.6054687,9.3570625 C18.1471331,9.3570625 17.8177093,9.4534157 17.6171875,9.646125 C17.4166657,9.8388343 17.3164062,10.0627904 17.3164062,10.318 C17.3164062,10.5992514 17.4335926,10.8049785 17.6679687,10.9351875 C17.8216154,11.0185212 18.1692681,11.1226869 18.7109375,11.2476875 L19.515625,11.4312812 C19.9036478,11.5198234 20.2031239,11.6409159 20.4140625,11.7945625 C20.7786477,12.062793 20.9609375,12.452112 20.9609375,12.9625312 C20.9609375,13.5979511 20.72982,14.0523736 20.2675781,14.3258125 C19.8053362,14.5992514 19.2682322,14.7359687 18.65625,14.7359687 C17.9427048,14.7359687 17.3841166,14.5536789 16.9804687,14.1890937 C16.5768209,13.8271128 16.3789062,13.3362323 16.3867187,12.7164375 L17.1171875,12.7164375 Z M22.0195312,8.82971875 L26.203125,8.82971875 L26.203125,9.53284375 L22.7773438,9.53284375 L22.7773438,11.2750312 L25.9453125,11.2750312 L25.9453125,11.9390937 L22.7773438,11.9390937 L22.7773438,13.8844062 L26.2617188,13.8844062 L26.2617188,14.568 L22.0195312,14.568 L22.0195312,8.82971875 Z M5.2578125,18.8297187 L6.37109375,18.8297187 L8.01953125,23.6812812 L9.65625,18.8297187 L10.7578125,18.8297187 L10.7578125,24.568 L10.0195312,24.568 L10.0195312,21.1812812 C10.0195312,21.0640932 10.0221354,20.8700847 10.0273438,20.59925 C10.0325521,20.3284153 10.0351562,20.0380536 10.0351562,19.7281562 L8.3984375,24.568 L7.62890625,24.568 L5.98046875,19.7281562 L5.98046875,19.9039375 C5.98046875,20.0445632 5.98372393,20.2587538 5.99023438,20.5465156 C5.99674482,20.8342775 6,21.0458639 6,21.1812812 L6,24.568 L5.2578125,24.568 L5.2578125,18.8297187 Z M12.015625,18.8297187 L16.1992188,18.8297187 L16.1992188,19.5328437 L12.7734375,19.5328437 L12.7734375,21.2750312 L15.9414062,21.2750312 L15.9414062,21.9390937 L12.7734375,21.9390937 L12.7734375,23.8844062 L16.2578125,23.8844062 L16.2578125,24.568 L12.015625,24.568 L12.015625,18.8297187 Z M17.2773438,18.8297187 L18.1953125,18.8297187 L21.09375,23.4781562 L21.09375,18.8297187 L21.8320312,18.8297187 L21.8320312,24.568 L20.9609375,24.568 L18.0195312,19.9234687 L18.0195312,24.568 L17.2773438,24.568 L17.2773438,18.8297187 Z M27.2304688,18.8297187 L27.2304688,19.5133125 L25.296875,19.5133125 L25.296875,24.568 L24.5078125,24.568 L24.5078125,19.5133125 L22.5742188,19.5133125 L22.5742188,18.8297187 L27.2304688,18.8297187 Z" id="BASEMENT" fill="#F16464" fill-rule="nonzero"></path>
    </g>
</svg>