<?xml version="1.0" encoding="UTF-8"?>
<svg width="16px" height="16px" viewBox="0 0 16 16" version="1.1" xmlns="http://www.w3.org/2000/svg" xmlns:xlink="http://www.w3.org/1999/xlink">
    <title>basic_operations_16x16</title>
    <defs>
        <linearGradient x1="100%" y1="0%" x2="50%" y2="100%" id="linearGradient-1">
            <stop stop-color="#F99D9D" offset="0%"></stop>
            <stop stop-color="#F16464" offset="100%"></stop>
        </linearGradient>
        <polygon id="path-2" points="2.0390625 10.9360783 2.0390625 9.95170329 4.59375 9.95170329 4.59375 7.37943766 5.59570312 7.37943766 5.59570312 9.95170329 8.15039062 9.95170329 8.15039062 10.9360783 5.59570312 10.9360783 5.59570312 13.5024845 4.59375 13.5024845 4.59375 10.9360783"></polygon>
        <polygon id="path-3" points="7.25195312 13.1152344 10.1933594 13.1152344 10.1933594 14.1992188 7.25195312 14.1992188"></polygon>
    </defs>
    <g id="basic_operations_16x16" stroke="none" stroke-width="1" fill="none" fill-rule="evenodd">
        <rect id="Rectangle-Copy" stroke="#0077BE" x="0.5" y="3.5" width="12" height="12" rx="2"></rect>
        <circle id="Oval-Copy" stroke="#FFFFFF" fill="url(#linearGradient-1)" cx="11.5" cy="4.5" r="5"></circle>
        <path d="M14.6425781,2.91858538 L14.6425781,3.90296038 L8.53125,3.90296038 L8.53125,2.91858538 L14.6425781,2.91858538 Z M14.6425781,5.43225726 L14.6425781,6.43421038 L8.53125,6.43421038 L8.53125,5.43225726 L14.6425781,5.43225726 Z" id="=" fill="#FFFFFF" fill-rule="nonzero"></path>
        <g id="+" fill-rule="nonzero" fill="#0077BE">
            <use xlink:href="#path-2"></use>
            <use xlink:href="#path-2"></use>
        </g>
        <g id="-" fill-rule="nonzero" fill="#0077BE">
            <use xlink:href="#path-3"></use>
            <use xlink:href="#path-3"></use>
        </g>
    </g>
</svg>