<?xml version="1.0" encoding="UTF-8"?>
<svg width="16px" height="16px" viewBox="0 0 16 16" version="1.1" xmlns="http://www.w3.org/2000/svg" xmlns:xlink="http://www.w3.org/1999/xlink">
    <title>bell_filter_16x16</title>
    <defs>
        <linearGradient x1="25.5187587%" y1="88.6494662%" x2="147.996329%" y2="-32.3167174%" id="linearGradient-1">
            <stop stop-color="#F16464" offset="0%"></stop>
            <stop stop-color="#F79494" offset="54.49984%"></stop>
            <stop stop-color="#FFD3D3" offset="100%"></stop>
        </linearGradient>
    </defs>
    <g id="bell_filter_16x16" stroke="none" stroke-width="1" fill="none" fill-rule="evenodd">
        <rect id="Rectangle" fill="#0077BE" x="0.5" y="7.5" width="8" height="1"></rect>
        <polygon id="Rectangle" fill="#0077BE" points="0.5 9.5 8.5 9.5 5.64285714 12.86 5.64285714 15.5 3.35714286 15.5 3.35714286 12.86"></polygon>
        <g id="Group-Copy" transform="translate(5.000000, 0.000000)">
            <rect id="Rectangle-Copy-7" stroke="#FFFFFF" fill="url(#linearGradient-1)" x="0" y="-0.5" width="11.5" height="11" rx="2"></rect>
            <path d="M5.7156808,4.685875 C6.1258391,4.685875 6.44484633,4.62890942 6.67271205,4.51497656 C7.03078676,4.33593921 7.20982143,4.01367681 7.20982143,3.54817969 C7.20982143,3.07942734 7.01939365,2.76367529 6.63853237,2.60091406 C6.42368754,2.50976777 6.10468032,2.46419531 5.68150112,2.46419531 L3.94810268,2.46419531 L3.94810268,4.685875 L5.7156808,4.685875 Z M6.04282924,7.99642187 C6.63853534,7.99642187 7.06333578,7.82389756 7.3172433,7.47884375 C7.47674931,7.2607437 7.55650112,6.99707446 7.55650112,6.68782812 C7.55650112,6.16699219 7.32375605,5.81217803 6.85825893,5.623375 C6.61086186,5.52246304 6.28371669,5.47200781 5.87681362,5.47200781 L3.94810268,5.47200781 L3.94810268,7.99642187 L6.04282924,7.99642187 Z M2.99595424,1.65364844 L6.07700893,1.65364844 C6.91685688,1.65364844 7.51418163,1.90429697 7.86900112,2.40560156 C8.07733549,2.701827 8.18150112,3.04362046 8.18150112,3.43099219 C8.18150112,3.88346841 8.05292167,4.25455845 7.79575893,4.54427344 C7.66229472,4.69726899 7.47023935,4.83724155 7.21958705,4.96419531 C7.58742743,5.10416997 7.86248979,5.262046 8.04478237,5.43782812 C8.3670496,5.75032969 8.5281808,6.18164048 8.5281808,6.73177344 C8.5281808,7.19401533 8.38332548,7.61230542 8.09361049,7.98665625 C7.66066562,8.54655488 6.97219594,8.8265 6.0281808,8.8265 L2.99595424,8.8265 L2.99595424,1.65364844 Z" id="B" fill="#FFFFFF" fill-rule="nonzero"></path>
        </g>
    </g>
</svg>