<?xml version="1.0" encoding="UTF-8"?>
<svg width="16px" height="16px" viewBox="0 0 16 16" version="1.1" xmlns="http://www.w3.org/2000/svg" xmlns:xlink="http://www.w3.org/1999/xlink">
    <title>block_value_16x16</title>
    <defs>
        <linearGradient x1="50%" y1="0%" x2="50%" y2="190.349849%" id="linearGradient-1">
            <stop stop-color="#00ACFF" stop-opacity="0" offset="0%"></stop>
            <stop stop-color="#6EC5F9" stop-opacity="0.673601676" offset="49.9796785%"></stop>
            <stop stop-color="#0077BE" offset="100%"></stop>
        </linearGradient>
    </defs>
    <g id="block_value_16x16" stroke="none" stroke-width="1" fill="none" fill-rule="evenodd">
        <g id="Group-2" transform="translate(0.000000, -0.500000)">
            <g id="Group" transform="translate(4.000000, 0.289465)">
                <polygon id="Rectangle" fill="url(#linearGradient-1)" points="0.204803929 2.91073803 3.96696297 0.829291655 7.79841054 2.95983983 3.96696297 5.09038801"></polygon>
                <path d="M3.27767651,1.48022789 C3.72751072,1.23306623 4.27248928,1.23306623 4.72232349,1.48022789 L4.72232349,1.48022789 L6.72232349,2.57912899 C6.96213965,2.7108961 7.15655878,2.90273739 7.29102386,3.13004485 C7.42548895,3.35735231 7.5,3.62012594 7.5,3.89375774 L7.5,3.89375774 L7.5,5.99639828 C7.5,6.27003008 7.42548895,6.53280371 7.29102386,6.76011117 C7.15655878,6.98741863 6.96213965,7.17925992 6.72232349,7.31102704 L6.72232349,7.31102704 L4.72232349,8.40992814 C4.27248928,8.65708979 3.72751072,8.65708979 3.27767651,8.40992814 L3.27767651,8.40992814 L1.27767651,7.31102704 C1.03786035,7.17925992 0.843441222,6.98741863 0.708976135,6.76011117 C0.574511048,6.53280371 0.5,6.27003008 0.5,5.99639828 L0.5,5.99639828 L0.5,3.89375774 C0.5,3.62012594 0.574511048,3.35735231 0.708976135,3.13004485 C0.843441222,2.90273739 1.03786035,2.7108961 1.27767651,2.57912899 L1.27767651,2.57912899 Z" id="Path" stroke="#0077BE"></path>
                <path d="M1,3.19820033 L2.85718457,4.49130759 C3.54401747,4.96953071 4.45598253,4.96953071 5.14281543,4.49130759 L7,3.19820033 L7,3.19820033" id="Line-2" stroke="#0077BE" stroke-linecap="round"></path>
                <line x1="3.99919638" y1="4.94507801" x2="4.00160724" y2="8.21053485" id="Line-3" stroke="#0077BE" stroke-linecap="round"></line>
            </g>
            <g id="Group" transform="translate(0.503867, 6.138272)">
                <polygon id="Rectangle" fill="url(#linearGradient-1)" points="0.204803929 2.91073803 3.96696297 0.829291655 7.79841054 2.95983983 3.96696297 5.09038801"></polygon>
                <path d="M3.27767651,1.48022789 C3.72751072,1.23306623 4.27248928,1.23306623 4.72232349,1.48022789 L4.72232349,1.48022789 L6.72232349,2.57912899 C6.96213965,2.7108961 7.15655878,2.90273739 7.29102386,3.13004485 C7.42548895,3.35735231 7.5,3.62012594 7.5,3.89375774 L7.5,3.89375774 L7.5,5.99639828 C7.5,6.27003008 7.42548895,6.53280371 7.29102386,6.76011117 C7.15655878,6.98741863 6.96213965,7.17925992 6.72232349,7.31102704 L6.72232349,7.31102704 L4.72232349,8.40992814 C4.27248928,8.65708979 3.72751072,8.65708979 3.27767651,8.40992814 L3.27767651,8.40992814 L1.27767651,7.31102704 C1.03786035,7.17925992 0.843441222,6.98741863 0.708976135,6.76011117 C0.574511048,6.53280371 0.5,6.27003008 0.5,5.99639828 L0.5,5.99639828 L0.5,3.89375774 C0.5,3.62012594 0.574511048,3.35735231 0.708976135,3.13004485 C0.843441222,2.90273739 1.03786035,2.7108961 1.27767651,2.57912899 L1.27767651,2.57912899 Z" id="Path" stroke="#0077BE"></path>
                <path d="M1,3.19820033 L2.85718457,4.49130759 C3.54401747,4.96953071 4.45598253,4.96953071 5.14281543,4.49130759 L7,3.19820033 L7,3.19820033" id="Line-2" stroke="#0077BE" stroke-linecap="round"></path>
                <line x1="3.99919638" y1="4.94507801" x2="4.00160724" y2="8.21053485" id="Line-3" stroke="#0077BE" stroke-linecap="round"></line>
            </g>
            <g id="Group-Copy" transform="translate(7.498805, 6.117169)">
                <path d="M1.75010971,2.05578451 L3.96696297,0.829291655 L3.96696297,0.829291655 L7.79841054,2.95983983 L3.96696297,5.09038801 L1.73291137,3.7960646 C1.25503546,3.51920171 1.09208221,2.90736503 1.3689451,2.42948912 C1.45979152,2.27268472 1.59154054,2.14351425 1.75010971,2.05578451 Z" id="Rectangle" fill="url(#linearGradient-1)"></path>
                <path d="M3.27767651,1.48022789 C3.72751072,1.23306623 4.27248928,1.23306623 4.72232349,1.48022789 L4.72232349,1.48022789 L6.72232349,2.57912899 C6.96213965,2.7108961 7.15655878,2.90273739 7.29102386,3.13004485 C7.42548895,3.35735231 7.5,3.62012594 7.5,3.89375774 L7.5,3.89375774 L7.5,5.99639828 C7.5,6.27003008 7.42548895,6.53280371 7.29102386,6.76011117 C7.15655878,6.98741863 6.96213965,7.17925992 6.72232349,7.31102704 L6.72232349,7.31102704 L4.72232349,8.40992814 C4.27248928,8.65708979 3.72751072,8.65708979 3.27767651,8.40992814 L3.27767651,8.40992814 L1.27767651,7.31102704 C1.03786035,7.17925992 0.843441222,6.98741863 0.708976135,6.76011117 C0.574511048,6.53280371 0.5,6.27003008 0.5,5.99639828 L0.5,5.99639828 L0.5,3.89375774 C0.5,3.62012594 0.574511048,3.35735231 0.708976135,3.13004485 C0.843441222,2.90273739 1.03786035,2.7108961 1.27767651,2.57912899 L1.27767651,2.57912899 Z" id="Path" stroke="#0077BE"></path>
                <path d="M1,3.19820033 L2.85718457,4.49130759 C3.54401747,4.96953071 4.45598253,4.96953071 5.14281543,4.49130759 L7,3.19820033 L7,3.19820033" id="Line-2" stroke="#0077BE" stroke-linecap="round"></path>
                <line x1="3.99919638" y1="4.94507801" x2="4.00160724" y2="8.21053485" id="Line-3" stroke="#0077BE" stroke-linecap="round"></line>
            </g>
        </g>
    </g>
</svg>