<?xml version="1.0" encoding="UTF-8"?>
<svg width="16px" height="16px" viewBox="0 0 16 16" version="1.1" xmlns="http://www.w3.org/2000/svg" xmlns:xlink="http://www.w3.org/1999/xlink">
    <title>browse_project_16x16_2</title>
    <defs>
        <linearGradient x1="50%" y1="3.49530347%" x2="50%" y2="70.3087224%" id="linearGradient-1">
            <stop stop-color="#1AAAFF" offset="0%"></stop>
            <stop stop-color="#0077BE" offset="100%"></stop>
        </linearGradient>
    </defs>
    <g id="browse_project_16x16_2" stroke="none" stroke-width="1" fill="none" fill-rule="evenodd">
        <circle id="Oval-6" stroke="#F16464" cx="7.53772832" cy="8.53772832" r="3.03772832"></circle>
        <line x1="12" y1="13" x2="9.84908672" y2="10.8490867" id="Line" stroke="#F16464" stroke-linecap="square"></line>
        <g id="Group-2">
            <rect id="Rectangle-7-Copy" fill="url(#linearGradient-1)" x="0" y="0" width="13" height="3" rx="1"></rect>
            <path d="M14,2.5 C14.4142136,2.5 14.7892136,2.66789322 15.0606602,2.93933983 C15.3321068,3.21078644 15.5,3.58578644 15.5,4 L15.5,4 L15.5,13 C15.5,13.6903559 15.220178,14.3153559 14.767767,14.767767 C14.3153559,15.220178 13.6903559,15.5 13,15.5 L13,15.5 L2,15.5 C1.58578644,15.5 1.21078644,15.3321068 0.939339828,15.0606602 C0.667893219,14.7892136 0.5,14.4142136 0.5,14 L0.5,14 L0.5,2.5 Z" id="Rectangle-7-Copy-10" stroke="#0077BE"></path>
        </g>
    </g>
</svg>