<?xml version="1.0" encoding="UTF-8"?>
<svg width="32px" height="32px" viewBox="0 0 32 32" version="1.1" xmlns="http://www.w3.org/2000/svg" xmlns:xlink="http://www.w3.org/1999/xlink">
    <title>build_pc_model_32x32</title>
    <defs>
        <linearGradient x1="50%" y1="3.49530347%" x2="50%" y2="100%" id="linearGradient-1">
            <stop stop-color="#1AAAFF" offset="0%"></stop>
            <stop stop-color="#0077BE" offset="100%"></stop>
        </linearGradient>
        <linearGradient x1="25.5187587%" y1="86.7411488%" x2="0%" y2="-17.2565478%" id="linearGradient-2">
            <stop stop-color="#F16464" offset="0%"></stop>
            <stop stop-color="#F79494" offset="54.49984%"></stop>
            <stop stop-color="#FFD3D3" offset="100%"></stop>
        </linearGradient>
        <linearGradient x1="50%" y1="3.49530347%" x2="50%" y2="100%" id="linearGradient-3">
            <stop stop-color="#1AAAFF" offset="0%"></stop>
            <stop stop-color="#0077BE" offset="100%"></stop>
        </linearGradient>
    </defs>
    <g id="build_pc_model_32x32" stroke="none" stroke-width="1" fill="none" fill-rule="evenodd">
        <g id="Group-5" transform="translate(1.000000, 3.000000)">
            <g id="Group-3">
                <polygon id="Fill-1" fill="#0477BD" points="2 26 3 26 3 0.5 2 0.5"></polygon>
                <polygon id="Fill-1-Copy" fill="#0477BD" points="2 26 30 26 30 25 2 25"></polygon>
                <path d="M2,27 L3,27 C3.55228475,27 4,26.5522847 4,26 L4,25 C4,24.4477153 3.55228475,24 3,24 L2,24 C1.44771525,24 1,24.4477153 1,25 L1,26 C1,26.5522847 1.44771525,27 2,27 Z" id="Fill-1-Copy-2" fill="#0477BD"></path>
                <line x1="2.5" y1="0.5" x2="1.5" y2="1.5" id="Line" stroke="#0077BE" stroke-linecap="round"></line>
                <line x1="3.5" y1="0.5" x2="2.5" y2="1.5" id="Line" stroke="#0077BE" stroke-linecap="round" transform="translate(3.000000, 1.000000) rotate(-270.000000) translate(-3.000000, -1.000000) "></line>
                <line x1="1.76870651" y1="5.76870651" x2="1.76870651" y2="7.76870651" id="Line-Copy" stroke="#0077BE" stroke-linecap="round" transform="translate(2.268707, 7.000000) rotate(-270.000000) translate(-2.268707, -7.000000) "></line>
                <line x1="1.76870651" y1="10.2687065" x2="1.76870651" y2="12.2687065" id="Line-Copy" stroke="#0077BE" stroke-linecap="round" transform="translate(2.268707, 11.500000) rotate(-270.000000) translate(-2.268707, -11.500000) "></line>
                <line x1="1.76870651" y1="14.7687065" x2="1.76870651" y2="16.7687065" id="Line-Copy" stroke="#0077BE" stroke-linecap="round" transform="translate(2.268707, 16.000000) rotate(-270.000000) translate(-2.268707, -16.000000) "></line>
                <line x1="1.76870651" y1="19.7687065" x2="1.76870651" y2="21.7687065" id="Line-Copy" stroke="#0077BE" stroke-linecap="round" transform="translate(2.268707, 21.000000) rotate(-270.000000) translate(-2.268707, -21.000000) "></line>
                <line x1="7.5" y1="24.5" x2="7.5" y2="26.5" id="Line-2" stroke="#0077BE" stroke-linecap="round"></line>
            </g>
            <g id="Group-4" transform="translate(28.000000, 24.000000)" stroke="#0077BE" stroke-linecap="round">
                <line x1="2" y1="0.5" x2="1" y2="1.5" id="Line" transform="translate(1.500000, 1.000000) rotate(-270.000000) translate(-1.500000, -1.000000) "></line>
                <line x1="2" y1="1.5" x2="1" y2="2.5" id="Line" transform="translate(1.500000, 2.000000) rotate(-180.000000) translate(-1.500000, -2.000000) "></line>
            </g>
        </g>
        <path d="M9.5,3.5 L9.5,14.5 C9.5,18.918278 13.081722,22.5 17.5,22.5 L29.5,22.5 L29.5,22.5" id="Line-3" stroke="url(#linearGradient-1)" stroke-linecap="round"></path>
        <path d="M15.5,3.5 L15.5,11.5 C15.5,14.2614237 17.7385763,16.5 20.5,16.5 L29.5,16.5 L29.5,16.5" id="Line-3" stroke="url(#linearGradient-2)" stroke-linecap="round"></path>
        <path d="M21.5,3.5 L21.5,8.5 C21.5,10.1568542 22.8431458,11.5 24.5,11.5 L29.5,11.5 L29.5,11.5" id="Line-3" stroke="url(#linearGradient-3)" stroke-linecap="round"></path>
        <rect id="Rectangle-Copy-2" fill="#0077BE" x="26" y="27" width="1" height="3" rx="0.5"></rect>
        <rect id="Rectangle-Copy-3" fill="#0077BE" x="14" y="27" width="1" height="3" rx="0.5"></rect>
        <rect id="Rectangle-Copy-2" fill="#0077BE" x="20" y="27" width="1" height="3" rx="0.5"></rect>
    </g>
</svg>