<?xml version="1.0" encoding="UTF-8"?>
<svg width="16px" height="16px" viewBox="0 0 16 16" version="1.1" xmlns="http://www.w3.org/2000/svg" xmlns:xlink="http://www.w3.org/1999/xlink">
    <title>caculation-multilinerregression-16x16</title>
    <defs>
        <linearGradient x1="50%" y1="3.49530347%" x2="50%" y2="100%" id="linearGradient-1">
            <stop stop-color="#1AAAFF" offset="0%"></stop>
            <stop stop-color="#0077BE" offset="100%"></stop>
        </linearGradient>
    </defs>
    <g id="caculation-multilinerregression-16x16" stroke="none" stroke-width="1" fill="none" fill-rule="evenodd">
        <path d="M14,0.5 C14.4142136,0.5 14.7892136,0.667893219 15.0606602,0.939339828 C15.3321068,1.21078644 15.5,1.58578644 15.5,2 L15.5,2 L15.5,14 C15.5,14.4142136 15.3321068,14.7892136 15.0606602,15.0606602 C14.7892136,15.3321068 14.4142136,15.5 14,15.5 L14,15.5 L2,15.5 C1.58578644,15.5 1.21078644,15.3321068 0.939339828,15.0606602 C0.667893219,14.7892136 0.5,14.4142136 0.5,14 L0.5,14 L0.5,2 C0.5,1.58578644 0.667893219,1.21078644 0.939339828,0.939339828 C1.21078644,0.667893219 1.58578644,0.5 2,0.5 L2,0.5 Z" id="Fill-65-Copy-7" stroke="#0077BE"></path>
        <path d="M14,0.5 C14.4142136,0.5 14.7892136,0.667893219 15.0606602,0.939339828 C15.3321068,1.21078644 15.5,1.58578644 15.5,2 L15.5,2 L15.5,14 C15.5,14.4142136 15.3321068,14.7892136 15.0606602,15.0606602 C14.7892136,15.3321068 14.4142136,15.5 14,15.5 L14,15.5 L2,15.5 C1.58578644,15.5 1.21078644,15.3321068 0.939339828,15.0606602 C0.667893219,14.7892136 0.5,14.4142136 0.5,14 L0.5,14 L0.5,2 C0.5,1.58578644 0.667893219,1.21078644 0.939339828,0.939339828 C1.21078644,0.667893219 1.58578644,0.5 2,0.5 L2,0.5 Z" id="Fill-65-Copy-7" stroke="#0077BE"></path>
        <path d="M0,4 L16,4 L16,2 C16,0.8954305 15.1045695,-2.02906125e-16 14,0 L2,0 C0.8954305,2.02906125e-16 -1.3527075e-16,0.8954305 0,2 L0,4 L0,4 Z" id="Fill-65-Copy-7" fill="url(#linearGradient-1)"></path>
        <path d="M5,6.5 C5.13807119,6.5 5.26307119,6.55596441 5.35355339,6.64644661 C5.44403559,6.73692881 5.5,6.86192881 5.5,7 L5.5,7 L5.5,8 C5.5,8.13807119 5.44403559,8.26307119 5.35355339,8.35355339 C5.26307119,8.44403559 5.13807119,8.5 5,8.5 L5,8.5 L4,8.5 C3.86192881,8.5 3.73692881,8.44403559 3.64644661,8.35355339 C3.55596441,8.26307119 3.5,8.13807119 3.5,8 L3.5,8 L3.5,7 C3.5,6.86192881 3.55596441,6.73692881 3.64644661,6.64644661 L3.64644661,6.64644661 Z" id="Fill-65-Copy-7" stroke="#0077BE" fill="#0477BD"></path>
        <path d="M12,10.5 C12.1380712,10.5 12.2630712,10.5559644 12.3535534,10.6464466 C12.4440356,10.7369288 12.5,10.8619288 12.5,11 L12.5,11 L12.5,12 C12.5,12.1380712 12.4440356,12.2630712 12.3535534,12.3535534 C12.2630712,12.4440356 12.1380712,12.5 12,12.5 L12,12.5 L10,12.5 C9.86192881,12.5 9.73692881,12.4440356 9.64644661,12.3535534 C9.55596441,12.2630712 9.5,12.1380712 9.5,12 L9.5,12 L9.5,11 C9.5,10.8619288 9.55596441,10.7369288 9.64644661,10.6464466 L9.64644661,10.6464466 Z" id="Fill-65-Copy-9" stroke="#0077BE" fill="#0477BD"></path>
        <path d="M12,6.5 C12.1380712,6.5 12.2630712,6.55596441 12.3535534,6.64644661 C12.4440356,6.73692881 12.5,6.86192881 12.5,7 L12.5,7 L12.5,8 C12.5,8.13807119 12.4440356,8.26307119 12.3535534,8.35355339 C12.2630712,8.44403559 12.1380712,8.5 12,8.5 L12,8.5 L10,8.5 C9.86192881,8.5 9.73692881,8.44403559 9.64644661,8.35355339 C9.55596441,8.26307119 9.5,8.13807119 9.5,8 L9.5,8 L9.5,7 C9.5,6.86192881 9.55596441,6.73692881 9.64644661,6.64644661 L9.64644661,6.64644661 Z" id="Fill-65-Copy-7" stroke="#0077BE"></path>
        <path d="M6,10.5 C6.13807119,10.5 6.26307119,10.5559644 6.35355339,10.6464466 C6.44403559,10.7369288 6.5,10.8619288 6.5,11 L6.5,11 L6.5,12 C6.5,12.1380712 6.44403559,12.2630712 6.35355339,12.3535534 C6.26307119,12.4440356 6.13807119,12.5 6,12.5 L6,12.5 L4,12.5 C3.86192881,12.5 3.73692881,12.4440356 3.64644661,12.3535534 C3.55596441,12.2630712 3.5,12.1380712 3.5,12 L3.5,12 L3.5,11 C3.5,10.8619288 3.55596441,10.7369288 3.64644661,10.6464466 L3.64644661,10.6464466 Z" id="Fill-65-Copy-8" stroke="#0077BE"></path>
    </g>
</svg>