<?xml version="1.0" encoding="UTF-8"?>
<svg width="32px" height="32px" viewBox="0 0 32 32" version="1.1" xmlns="http://www.w3.org/2000/svg" xmlns:xlink="http://www.w3.org/1999/xlink">
    <title>caculation_multilinerregression_32x32</title>
    <defs>
        <linearGradient x1="50%" y1="3.49530347%" x2="50%" y2="100%" id="linearGradient-1">
            <stop stop-color="#1AAAFF" offset="0%"></stop>
            <stop stop-color="#0077BE" offset="100%"></stop>
        </linearGradient>
        <linearGradient x1="25.5187587%" y1="92.6110365%" x2="76.7029485%" y2="8.20085208%" id="linearGradient-2">
            <stop stop-color="#F16464" offset="0%"></stop>
            <stop stop-color="#F79494" offset="54.49984%"></stop>
            <stop stop-color="#FFD3D3" offset="100%"></stop>
        </linearGradient>
    </defs>
    <g id="caculation_multilinerregression_32x32" stroke="none" stroke-width="1" fill="none" fill-rule="evenodd">
        <g id="Group-5" transform="translate(0.000000, 4.000000)">
            <g id="Group-3">
                <g id="Group-2">
                    <polygon id="Fill-1" fill="#0477BD" points="2 26 3 26 3 0.5 2 0.5"></polygon>
                    <polygon id="Fill-1" fill="#F16464" transform="translate(15.002196, 12.731543) rotate(-315.186171) translate(-15.002196, -12.731543) " points="14.5021962 29.7544024 15.5021962 29.7544024 15.5021962 -4.29131567 14.5021962 -4.29131567"></polygon>
                    <polygon id="Fill-1-Copy" fill="#0477BD" points="2 26 30 26 30 25 2 25"></polygon>
                    <path d="M2,27 L3,27 C3.55228475,27 4,26.5522847 4,26 L4,25 C4,24.4477153 3.55228475,24 3,24 L2,24 C1.44771525,24 1,24.4477153 1,25 L1,26 C1,26.5522847 1.44771525,27 2,27 Z" id="Fill-1-Copy-2" fill="#0477BD"></path>
                    <line x1="2.5" y1="0.5" x2="1.5" y2="1.5" id="Line" stroke="#0077BE" stroke-linecap="round"></line>
                    <line x1="3.5" y1="0.5" x2="2.5" y2="1.5" id="Line" stroke="#0077BE" stroke-linecap="round" transform="translate(3.000000, 1.000000) rotate(-270.000000) translate(-3.000000, -1.000000) "></line>
                    <line x1="1.76870651" y1="5.76870651" x2="1.76870651" y2="7.76870651" id="Line-Copy" stroke="#0077BE" stroke-linecap="round" transform="translate(2.268707, 7.000000) rotate(-270.000000) translate(-2.268707, -7.000000) "></line>
                    <line x1="1.76870651" y1="10.2687065" x2="1.76870651" y2="12.2687065" id="Line-Copy" stroke="#0077BE" stroke-linecap="round" transform="translate(2.268707, 11.500000) rotate(-270.000000) translate(-2.268707, -11.500000) "></line>
                    <line x1="1.76870651" y1="14.7687065" x2="1.76870651" y2="16.7687065" id="Line-Copy" stroke="#0077BE" stroke-linecap="round" transform="translate(2.268707, 16.000000) rotate(-270.000000) translate(-2.268707, -16.000000) "></line>
                    <line x1="1.76870651" y1="19.7687065" x2="1.76870651" y2="21.7687065" id="Line-Copy" stroke="#0077BE" stroke-linecap="round" transform="translate(2.268707, 21.000000) rotate(-270.000000) translate(-2.268707, -21.000000) "></line>
                </g>
                <line x1="7.5" y1="24.5" x2="7.5" y2="26.5" id="Line-2" stroke="#0077BE" stroke-linecap="round"></line>
                <line x1="13" y1="24.5" x2="13" y2="26.5" id="Line-2" stroke="#0077BE" stroke-linecap="round"></line>
                <line x1="18.5" y1="24.5" x2="18.5" y2="26.5" id="Line-2" stroke="#0077BE" stroke-linecap="round"></line>
                <line x1="24" y1="24.5" x2="24" y2="26.5" id="Line-2" stroke="#0077BE" stroke-linecap="round"></line>
            </g>
            <g id="Group-4" transform="translate(28.000000, 24.000000)" stroke="#0077BE" stroke-linecap="round">
                <line x1="2" y1="0.5" x2="1" y2="1.5" id="Line" transform="translate(1.500000, 1.000000) rotate(-270.000000) translate(-1.500000, -1.000000) "></line>
                <line x1="2" y1="1.5" x2="1" y2="2.5" id="Line" transform="translate(1.500000, 2.000000) rotate(-180.000000) translate(-1.500000, -2.000000) "></line>
            </g>
        </g>
        <g id="Group-2" transform="translate(6.000000, 2.000000)">
            <circle id="Oval-Copy-18" fill="url(#linearGradient-1)" cx="2" cy="11.403213" r="2"></circle>
            <circle id="Oval-Copy-25" fill="url(#linearGradient-1)" cx="11" cy="21" r="2"></circle>
            <circle id="Oval-Copy-19" fill="url(#linearGradient-2)" cx="8" cy="8.27855522" r="2"></circle>
            <circle id="Oval-Copy-20" fill="url(#linearGradient-2)" cx="20.5516738" cy="20" r="2"></circle>
            <circle id="Oval-Copy-24" fill="url(#linearGradient-2)" cx="17" cy="6.63713971" r="2"></circle>
            <circle id="Oval-Copy-21" fill="url(#linearGradient-1)" cx="13" cy="2.29729146" r="2"></circle>
            <circle id="Oval-Copy-26" fill="url(#linearGradient-1)" cx="18.5516738" cy="13" r="2"></circle>
            <circle id="Oval-Copy-22" fill="url(#linearGradient-1)" cx="9.53977781" cy="14" r="2"></circle>
            <circle id="Oval-Copy-23" fill="url(#linearGradient-2)" cx="2" cy="20" r="2"></circle>
        </g>
    </g>
</svg>