<?xml version="1.0" encoding="UTF-8"?>
<svg width="32px" height="32px" viewBox="0 0 32 32" version="1.1" xmlns="http://www.w3.org/2000/svg" xmlns:xlink="http://www.w3.org/1999/xlink">
    <title>calculate_open_porosity_32x32</title>
    <defs>
        <linearGradient x1="50%" y1="3.49530347%" x2="50%" y2="100%" id="linearGradient-1">
            <stop stop-color="#1AAAFF" offset="0%"></stop>
            <stop stop-color="#0077BE" offset="100%"></stop>
        </linearGradient>
        <linearGradient x1="50%" y1="100%" x2="50%" y2="0%" id="linearGradient-2">
            <stop stop-color="#FFD5D5" offset="0%"></stop>
            <stop stop-color="#E53B3B" offset="100%"></stop>
        </linearGradient>
    </defs>
    <g id="calculate_open_porosity_32x32" stroke="none" stroke-width="1" fill="none" fill-rule="evenodd">
        <path d="M8,21 C8,22.4197414 8.50219575,23.5942186 9.50658724,24.5234316 C10.5109787,25.4526447 11.6754497,25.9448341 13,26" id="Line-6" stroke="#FFFFFF" stroke-linecap="round"></path>
        <g id="Group-2" transform="translate(4.000000, 1.000000)">
            <path d="M0.585882574,6.08605174 C-0.195294191,6.8672041 -0.195294191,8.1327959 0.585882574,8.91394826 C1.36730931,9.69535058 2.63269069,9.69535058 3.41411743,8.91394826 C4.19529419,8.1327959 4.19529419,6.8672041 3.41411743,6.08605174 C2.63269069,5.30464942 1.36730931,5.30464942 0.585882574,6.08605174" id="Path-Copy-7" fill="url(#linearGradient-1)"></path>
            <path d="M0.754607085,11.0161274 C0.0666359244,11.704077 0.0666359244,12.8186655 0.754607085,13.5066152 C1.4427984,14.194785 2.5572016,14.194785 3.24539291,13.5066152 C3.93336408,12.8186655 3.93336408,11.704077 3.24539291,11.0161274 C2.5572016,10.3279575 1.4427984,10.3279575 0.754607085,11.0161274" id="Path-Copy-7" fill="url(#linearGradient-1)"></path>
            <path d="M0.93941193,15.4395388 C0.353529357,16.0254031 0.353529357,16.9745969 0.93941193,17.5604612 C1.52548199,18.1465129 2.47451801,18.1465129 3.06058807,17.5604612 C3.64647064,16.9745969 3.64647064,16.0254031 3.06058807,15.4395388 C2.47451801,14.8534871 1.52548199,14.8534871 0.93941193,15.4395388" id="Path-Copy-7" fill="url(#linearGradient-1)"></path>
            <path d="M1.11617661,19.3662823 C0.627941131,19.8545026 0.627941131,20.6454974 1.11617661,21.1337177 C1.60456832,21.6220941 2.39543168,21.6220941 2.88382339,21.1337177 C3.37205887,20.6454974 3.37205887,19.8545026 2.88382339,19.3662823 C2.39543168,18.8779059 1.60456832,18.8779059 1.11617661,19.3662823" id="Path-Copy-7" fill="url(#linearGradient-1)" opacity="0.876441592"></path>
            <path d="M1.29294129,22.7930259 C0.902352904,23.183602 0.902352904,23.816398 1.29294129,24.2069741 C1.68365466,24.5976753 2.31634534,24.5976753 2.70705871,24.2069741 C3.0976471,23.816398 3.0976471,23.183602 2.70705871,22.7930259 C2.31634534,22.4023247 1.68365466,22.4023247 1.29294129,22.7930259" id="Path-Copy-7" fill="url(#linearGradient-1)" opacity="0.753557478"></path>
            <path d="M1.46970597,25.7197694 C1.17676468,26.0127015 1.17676468,26.4872985 1.46970597,26.7802306 C1.76274099,27.0732565 2.23725901,27.0732565 2.53029403,26.7802306 C2.82323532,26.4872985 2.82323532,26.0127015 2.53029403,25.7197694 C2.23725901,25.4267435 1.76274099,25.4267435 1.46970597,25.7197694" id="Path-Copy-7" fill="url(#linearGradient-1)" opacity="0.585030692"></path>
            <path d="M1.64647064,28.1465129 C1.45117645,28.341801 1.45117645,28.658199 1.64647064,28.8534871 C1.84182733,29.0488376 2.15817267,29.0488376 2.35352936,28.8534871 C2.54882355,28.658199 2.54882355,28.341801 2.35352936,28.1465129 C2.15817267,27.9511624 1.84182733,27.9511624 1.64647064,28.1465129" id="Path-Copy-7" fill="url(#linearGradient-1)" opacity="0.257626488"></path>
            <path d="M5.75460709,11.0161274 C5.06663592,11.704077 5.06663592,12.8186655 5.75460709,13.5066152 C6.4427984,14.194785 7.5572016,14.194785 8.24539291,13.5066152 C8.93336408,12.8186655 8.93336408,11.704077 8.24539291,11.0161274 C7.5572016,10.3279575 6.4427984,10.3279575 5.75460709,11.0161274" id="Path-Copy-7" fill="url(#linearGradient-1)"></path>
            <path d="M5.93941193,15.4395388 C5.35352936,16.0254031 5.35352936,16.9745969 5.93941193,17.5604612 C6.52548199,18.1465129 7.47451801,18.1465129 8.06058807,17.5604612 C8.64647064,16.9745969 8.64647064,16.0254031 8.06058807,15.4395388 C7.47451801,14.8534871 6.52548199,14.8534871 5.93941193,15.4395388" id="Path-Copy-7" fill="url(#linearGradient-1)"></path>
            <path d="M6.11617661,19.3662823 C5.62794113,19.8545026 5.62794113,20.6454974 6.11617661,21.1337177 C6.60456832,21.6220941 7.39543168,21.6220941 7.88382339,21.1337177 C8.37205887,20.6454974 8.37205887,19.8545026 7.88382339,19.3662823 C7.39543168,18.8779059 6.60456832,18.8779059 6.11617661,19.3662823" id="Path-Copy-7" fill="url(#linearGradient-1)" opacity="0.876441592"></path>
            <path d="M6.29294129,22.7930259 C5.9023529,23.183602 5.9023529,23.816398 6.29294129,24.2069741 C6.68365466,24.5976753 7.31634534,24.5976753 7.70705871,24.2069741 C8.0976471,23.816398 8.0976471,23.183602 7.70705871,22.7930259 C7.31634534,22.4023247 6.68365466,22.4023247 6.29294129,22.7930259" id="Path-Copy-7" fill="url(#linearGradient-1)" opacity="0.753557478"></path>
            <path d="M6.46970597,25.7197694 C6.17676468,26.0127015 6.17676468,26.4872985 6.46970597,26.7802306 C6.76274099,27.0732565 7.23725901,27.0732565 7.53029403,26.7802306 C7.82323532,26.4872985 7.82323532,26.0127015 7.53029403,25.7197694 C7.23725901,25.4267435 6.76274099,25.4267435 6.46970597,25.7197694" id="Path-Copy-7" fill="url(#linearGradient-1)" opacity="0.585030692"></path>
            <path d="M6.64647064,28.1465129 C6.45117645,28.341801 6.45117645,28.658199 6.64647064,28.8534871 C6.84182733,29.0488376 7.15817267,29.0488376 7.35352936,28.8534871 C7.54882355,28.658199 7.54882355,28.341801 7.35352936,28.1465129 C7.15817267,27.9511624 6.84182733,27.9511624 6.64647064,28.1465129" id="Path-Copy-7" fill="url(#linearGradient-1)" opacity="0.257626488"></path>
            <path d="M10.9394119,15.4395388 C10.3535294,16.0254031 10.3535294,16.9745969 10.9394119,17.5604612 C11.525482,18.1465129 12.474518,18.1465129 13.0605881,17.5604612 C13.6464706,16.9745969 13.6464706,16.0254031 13.0605881,15.4395388 C12.474518,14.8534871 11.525482,14.8534871 10.9394119,15.4395388" id="Path-Copy-7" fill="url(#linearGradient-1)"></path>
            <path d="M11.1161766,19.3662823 C10.6279411,19.8545026 10.6279411,20.6454974 11.1161766,21.1337177 C11.6045683,21.6220941 12.3954317,21.6220941 12.8838234,21.1337177 C13.3720589,20.6454974 13.3720589,19.8545026 12.8838234,19.3662823 C12.3954317,18.8779059 11.6045683,18.8779059 11.1161766,19.3662823" id="Path-Copy-7" fill="url(#linearGradient-1)" opacity="0.876441592"></path>
            <path d="M11.2929413,22.7930259 C10.9023529,23.183602 10.9023529,23.816398 11.2929413,24.2069741 C11.6836547,24.5976753 12.3163453,24.5976753 12.7070587,24.2069741 C13.0976471,23.816398 13.0976471,23.183602 12.7070587,22.7930259 C12.3163453,22.4023247 11.6836547,22.4023247 11.2929413,22.7930259" id="Path-Copy-7" fill="url(#linearGradient-1)" opacity="0.753557478"></path>
            <path d="M11.469706,25.7197694 C11.1767647,26.0127015 11.1767647,26.4872985 11.469706,26.7802306 C11.762741,27.0732565 12.237259,27.0732565 12.530294,26.7802306 C12.8232353,26.4872985 12.8232353,26.0127015 12.530294,25.7197694 C12.237259,25.4267435 11.762741,25.4267435 11.469706,25.7197694" id="Path-Copy-7" fill="url(#linearGradient-1)" opacity="0.585030692"></path>
            <path d="M11.6464706,28.1465129 C11.4511765,28.341801 11.4511765,28.658199 11.6464706,28.8534871 C11.8418273,29.0488376 12.1581727,29.0488376 12.3535294,28.8534871 C12.5488235,28.658199 12.5488235,28.341801 12.3535294,28.1465129 C12.1581727,27.9511624 11.8418273,27.9511624 11.6464706,28.1465129" id="Path-Copy-7" fill="url(#linearGradient-1)" opacity="0.257626488"></path>
            <path d="M15.7546071,11.0161274 C15.0666359,11.704077 15.0666359,12.8186655 15.7546071,13.5066152 C16.4427984,14.194785 17.5572016,14.194785 18.2453929,13.5066152 C18.9333641,12.8186655 18.9333641,11.704077 18.2453929,11.0161274 C17.5572016,10.3279575 16.4427984,10.3279575 15.7546071,11.0161274" id="Path-Copy-7" fill="url(#linearGradient-1)"></path>
            <path d="M15.9394119,15.4395388 C15.3535294,16.0254031 15.3535294,16.9745969 15.9394119,17.5604612 C16.525482,18.1465129 17.474518,18.1465129 18.0605881,17.5604612 C18.6464706,16.9745969 18.6464706,16.0254031 18.0605881,15.4395388 C17.474518,14.8534871 16.525482,14.8534871 15.9394119,15.4395388" id="Path-Copy-7" fill="url(#linearGradient-1)"></path>
            <path d="M16.1161766,19.3662823 C15.6279411,19.8545026 15.6279411,20.6454974 16.1161766,21.1337177 C16.6045683,21.6220941 17.3954317,21.6220941 17.8838234,21.1337177 C18.3720589,20.6454974 18.3720589,19.8545026 17.8838234,19.3662823 C17.3954317,18.8779059 16.6045683,18.8779059 16.1161766,19.3662823" id="Path-Copy-7" fill="url(#linearGradient-1)" opacity="0.876441592"></path>
            <path d="M16.2929413,22.7930259 C15.9023529,23.183602 15.9023529,23.816398 16.2929413,24.2069741 C16.6836547,24.5976753 17.3163453,24.5976753 17.7070587,24.2069741 C18.0976471,23.816398 18.0976471,23.183602 17.7070587,22.7930259 C17.3163453,22.4023247 16.6836547,22.4023247 16.2929413,22.7930259" id="Path-Copy-7" fill="url(#linearGradient-1)" opacity="0.753557478"></path>
            <path d="M16.469706,25.7197694 C16.1767647,26.0127015 16.1767647,26.4872985 16.469706,26.7802306 C16.762741,27.0732565 17.237259,27.0732565 17.530294,26.7802306 C17.8232353,26.4872985 17.8232353,26.0127015 17.530294,25.7197694 C17.237259,25.4267435 16.762741,25.4267435 16.469706,25.7197694" id="Path-Copy-7" fill="url(#linearGradient-1)" opacity="0.585030692"></path>
            <path d="M16.6464706,28.1465129 C16.4511765,28.341801 16.4511765,28.658199 16.6464706,28.8534871 C16.8418273,29.0488376 17.1581727,29.0488376 17.3535294,28.8534871 C17.5488235,28.658199 17.5488235,28.341801 17.3535294,28.1465129 C17.1581727,27.9511624 16.8418273,27.9511624 16.6464706,28.1465129" id="Path-Copy-7" fill="url(#linearGradient-1)" opacity="0.257626488"></path>
            <path d="M20.5858826,6.08605174 C19.8047058,6.8672041 19.8047058,8.1327959 20.5858826,8.91394826 C21.3673093,9.69535058 22.6326907,9.69535058 23.4141174,8.91394826 C24.1952942,8.1327959 24.1952942,6.8672041 23.4141174,6.08605174 C22.6326907,5.30464942 21.3673093,5.30464942 20.5858826,6.08605174" id="Path-Copy-7" fill="url(#linearGradient-1)"></path>
            <path d="M20.7546071,11.0161274 C20.0666359,11.704077 20.0666359,12.8186655 20.7546071,13.5066152 C21.4427984,14.194785 22.5572016,14.194785 23.2453929,13.5066152 C23.9333641,12.8186655 23.9333641,11.704077 23.2453929,11.0161274 C22.5572016,10.3279575 21.4427984,10.3279575 20.7546071,11.0161274" id="Path-Copy-7" fill="url(#linearGradient-1)"></path>
            <path d="M20.9394119,15.4395388 C20.3535294,16.0254031 20.3535294,16.9745969 20.9394119,17.5604612 C21.525482,18.1465129 22.474518,18.1465129 23.0605881,17.5604612 C23.6464706,16.9745969 23.6464706,16.0254031 23.0605881,15.4395388 C22.474518,14.8534871 21.525482,14.8534871 20.9394119,15.4395388" id="Path-Copy-7" fill="url(#linearGradient-1)"></path>
            <path d="M21.1161766,19.3662823 C20.6279411,19.8545026 20.6279411,20.6454974 21.1161766,21.1337177 C21.6045683,21.6220941 22.3954317,21.6220941 22.8838234,21.1337177 C23.3720589,20.6454974 23.3720589,19.8545026 22.8838234,19.3662823 C22.3954317,18.8779059 21.6045683,18.8779059 21.1161766,19.3662823" id="Path-Copy-7" fill="url(#linearGradient-1)" opacity="0.876441592"></path>
            <path d="M21.2929413,22.7930259 C20.9023529,23.183602 20.9023529,23.816398 21.2929413,24.2069741 C21.6836547,24.5976753 22.3163453,24.5976753 22.7070587,24.2069741 C23.0976471,23.816398 23.0976471,23.183602 22.7070587,22.7930259 C22.3163453,22.4023247 21.6836547,22.4023247 21.2929413,22.7930259" id="Path-Copy-7" fill="url(#linearGradient-1)" opacity="0.753557478"></path>
            <path d="M21.469706,25.7197694 C21.1767647,26.0127015 21.1767647,26.4872985 21.469706,26.7802306 C21.762741,27.0732565 22.237259,27.0732565 22.530294,26.7802306 C22.8232353,26.4872985 22.8232353,26.0127015 22.530294,25.7197694 C22.237259,25.4267435 21.762741,25.4267435 21.469706,25.7197694" id="Path-Copy-7" fill="url(#linearGradient-1)" opacity="0.585030692"></path>
            <path d="M21.6464706,28.1465129 C21.4511765,28.341801 21.4511765,28.658199 21.6464706,28.8534871 C21.8418273,29.0488376 22.1581727,29.0488376 22.3535294,28.8534871 C22.5488235,28.658199 22.5488235,28.341801 22.3535294,28.1465129 C22.1581727,27.9511624 21.8418273,27.9511624 21.6464706,28.1465129" id="Path-Copy-7" fill="url(#linearGradient-1)" opacity="0.257626488"></path>
            <g id="Group" transform="translate(5.376648, 0.000000)" fill="url(#linearGradient-2)" stroke="#FFFFFF">
                <path d="M6.61600607,-0.263301557 L12.8321746,6.01271695 C13.0670784,6.83710668 12.8107815,7.22093922 12.6424662,7.37227414 L12.6424662,7.37227414 L9.84166451,7.58424893 L9.84166451,12.2913309 L3.95998824,12.8876194 L3.45537405,7.62066078 L1.089799,7.62066078 C0.318321269,7.19616923 0.241886143,6.73055964 0.258463304,6.51117533 L0.258463304,6.51117533 L6.61600607,-0.263301557 Z" id="Fill-22" transform="translate(6.625712, 6.398238) rotate(-180.000000) translate(-6.625712, -6.398238) "></path>
            </g>
        </g>
    </g>
</svg>