<?xml version="1.0" encoding="UTF-8"?>
<svg width="32px" height="32px" viewBox="0 0 32 32" version="1.1" xmlns="http://www.w3.org/2000/svg" xmlns:xlink="http://www.w3.org/1999/xlink">
    <title>classification_toolkit_32x32</title>
    <defs>
        <linearGradient x1="50%" y1="3.49530347%" x2="50%" y2="100%" id="linearGradient-1">
            <stop stop-color="#1AAAFF" offset="0%"></stop>
            <stop stop-color="#0077BE" offset="100%"></stop>
        </linearGradient>
        <linearGradient x1="25.5187587%" y1="92.6110365%" x2="93.2424503%" y2="9.07195215%" id="linearGradient-2">
            <stop stop-color="#F16464" offset="0%"></stop>
            <stop stop-color="#F79494" offset="54.49984%"></stop>
            <stop stop-color="#FFD3D3" offset="100%"></stop>
        </linearGradient>
    </defs>
    <g id="classification_toolkit_32x32" stroke="none" stroke-width="1" fill="none" fill-rule="evenodd">
        <polygon id="Fill-1" fill="#0477BD" points="2 28 3 28 3 2.5 2 2.5"></polygon>
        <polygon id="Fill-1-Copy" fill="#0477BD" points="2 28 19 28 19 27 2 27"></polygon>
        <path d="M2,29 L3,29 C3.55228475,29 4,28.5522847 4,28 L4,27 C4,26.4477153 3.55228475,26 3,26 L2,26 C1.44771525,26 1,26.4477153 1,27 L1,28 C1,28.5522847 1.44771525,29 2,29 Z" id="Fill-1-Copy-2" fill="#0477BD"></path>
        <line x1="2.5" y1="2.5" x2="1.5" y2="3.5" id="Line" stroke="#0077BE" stroke-linecap="round"></line>
        <line x1="3.5" y1="2.5" x2="2.5" y2="3.5" id="Line" stroke="#0077BE" stroke-linecap="round" transform="translate(3.000000, 3.000000) rotate(-270.000000) translate(-3.000000, -3.000000) "></line>
        <line x1="1.76870651" y1="7.76870651" x2="1.76870651" y2="9.76870651" id="Line-Copy" stroke="#0077BE" stroke-linecap="round" transform="translate(2.268707, 9.000000) rotate(-270.000000) translate(-2.268707, -9.000000) "></line>
        <line x1="1.76870651" y1="12.2687065" x2="1.76870651" y2="14.2687065" id="Line-Copy" stroke="#0077BE" stroke-linecap="round" transform="translate(2.268707, 13.500000) rotate(-270.000000) translate(-2.268707, -13.500000) "></line>
        <line x1="1.76870651" y1="16.7687065" x2="1.76870651" y2="18.7687065" id="Line-Copy" stroke="#0077BE" stroke-linecap="round" transform="translate(2.268707, 18.000000) rotate(-270.000000) translate(-2.268707, -18.000000) "></line>
        <line x1="1.76870651" y1="21.7687065" x2="1.76870651" y2="23.7687065" id="Line-Copy" stroke="#0077BE" stroke-linecap="round" transform="translate(2.268707, 23.000000) rotate(-270.000000) translate(-2.268707, -23.000000) "></line>
        <line x1="7.5" y1="26.5" x2="7.5" y2="28.5" id="Line-2" stroke="#0077BE" stroke-linecap="round"></line>
        <path d="M5,24.5 C5.98778283,19.8434547 8.32111616,16.6767881 12,15 C16.3880129,13 19.2232876,14.8804946 24.5085899,11.2785552 C27.2266635,9.42618507 28.8904669,6.83333333 29.5,3.5" id="Line-3" stroke="#F16464" stroke-linecap="round"></path>
        <path d="M7.79294129,5.29302587 C7.4023529,5.68360205 7.4023529,6.31639795 7.79294129,6.70697413 C8.18365466,7.09767529 8.81634534,7.09767529 9.20705871,6.70697413 C9.5976471,6.31639795 9.5976471,5.68360205 9.20705871,5.29302587 C8.81634534,4.90232471 8.18365466,4.90232471 7.79294129,5.29302587" id="Path-Copy-12" fill="#DB4D4D" opacity="0.387393043"></path>
        <path d="M5.79553198,2.29302587 C5.4049436,2.68360205 5.4049436,3.31639795 5.79553198,3.70697413 C6.18624535,4.09767529 6.81893604,4.09767529 7.20964941,3.70697413 C7.60023779,3.31639795 7.60023779,2.68360205 7.20964941,2.29302587 C6.81893604,1.90232471 6.18624535,1.90232471 5.79553198,2.29302587" id="Path-Copy-22" fill="#DB4D4D" opacity="0.205147879"></path>
        <path d="M9.79294129,8.29302587 C9.4023529,8.68360205 9.4023529,9.31639795 9.79294129,9.70697413 C10.1836547,10.0976753 10.8163453,10.0976753 11.2070587,9.70697413 C11.5976471,9.31639795 11.5976471,8.68360205 11.2070587,8.29302587 C10.8163453,7.90232471 10.1836547,7.90232471 9.79294129,8.29302587" id="Path-Copy-16" fill="#DB4D4D" opacity="0.830403646"></path>
        <path d="M13.7929413,8.29302587 C13.4023529,8.68360205 13.4023529,9.31639795 13.7929413,9.70697413 C14.1836547,10.0976753 14.8163453,10.0976753 15.2070587,9.70697413 C15.5976471,9.31639795 15.5976471,8.68360205 15.2070587,8.29302587 C14.8163453,7.90232471 14.1836547,7.90232471 13.7929413,8.29302587" id="Path-Copy-17" fill="#DB4D4D" opacity="0.830403646"></path>
        <path d="M7.79553198,11.2930259 C7.4049436,11.683602 7.4049436,12.316398 7.79553198,12.7069741 C8.18624535,13.0976753 8.81893604,13.0976753 9.20964941,12.7069741 C9.60023779,12.316398 9.60023779,11.683602 9.20964941,11.2930259 C8.81893604,10.9023247 8.18624535,10.9023247 7.79553198,11.2930259" id="Path-Copy-28" fill="#DB4D4D"></path>
        <path d="M5.79294129,14.2930259 C5.4023529,14.683602 5.4023529,15.316398 5.79294129,15.7069741 C6.18365466,16.0976753 6.81634534,16.0976753 7.20705871,15.7069741 C7.5976471,15.316398 7.5976471,14.683602 7.20705871,14.2930259 C6.81634534,13.9023247 6.18365466,13.9023247 5.79294129,14.2930259" id="Path-Copy-30" fill="#DB4D4D" opacity="0.442917597"></path>
        <path d="M17.7929413,8.29302587 C17.4023529,8.68360205 17.4023529,9.31639795 17.7929413,9.70697413 C18.1836547,10.0976753 18.8163453,10.0976753 19.2070587,9.70697413 C19.5976471,9.31639795 19.5976471,8.68360205 19.2070587,8.29302587 C18.8163453,7.90232471 18.1836547,7.90232471 17.7929413,8.29302587" id="Path-Copy-19" fill="#DB4D4D" opacity="0.830403646"></path>
        <path d="M11.795532,11.2930259 C11.4049436,11.683602 11.4049436,12.316398 11.795532,12.7069741 C12.1862454,13.0976753 12.818936,13.0976753 13.2096494,12.7069741 C13.6002378,12.316398 13.6002378,11.683602 13.2096494,11.2930259 C12.818936,10.9023247 12.1862454,10.9023247 11.795532,11.2930259" id="Path-Copy-29" fill="#DB4D4D" opacity="0.442917597"></path>
        <path d="M15.795532,11.2930259 C15.4049436,11.683602 15.4049436,12.316398 15.795532,12.7069741 C16.1862454,13.0976753 16.818936,13.0976753 17.2096494,12.7069741 C17.6002378,12.316398 17.6002378,11.683602 17.2096494,11.2930259 C16.818936,10.9023247 16.1862454,10.9023247 15.795532,11.2930259" id="Path-Copy-31" fill="#DB4D4D" opacity="0.442917597"></path>
        <path d="M21.7903506,8.29302587 C21.3997622,8.68360205 21.3997622,9.31639795 21.7903506,9.70697413 C22.181064,10.0976753 22.8137546,10.0976753 23.204468,9.70697413 C23.5950564,9.31639795 23.5950564,8.68360205 23.204468,8.29302587 C22.8137546,7.90232471 22.181064,7.90232471 21.7903506,8.29302587" id="Path-Copy-20" fill="#DB4D4D" opacity="0.442917597"></path>
        <path d="M11.7920777,5.29302587 C11.4014893,5.68360205 11.4014893,6.31639795 11.7920777,6.70697413 C12.1827911,7.09767529 12.8154818,7.09767529 13.2061951,6.70697413 C13.5967835,6.31639795 13.5967835,5.68360205 13.2061951,5.29302587 C12.8154818,4.90232471 12.1827911,4.90232471 11.7920777,5.29302587" id="Path-Copy-13" fill="#DB4D4D" opacity="0.387393043"></path>
        <path d="M9.79466842,2.29302587 C9.40408003,2.68360205 9.40408003,3.31639795 9.79466842,3.70697413 C10.1853818,4.09767529 10.8180725,4.09767529 11.2087858,3.70697413 C11.5993742,3.31639795 11.5993742,2.68360205 11.2087858,2.29302587 C10.8180725,1.90232471 10.1853818,1.90232471 9.79466842,2.29302587" id="Path-Copy-23" fill="#DB4D4D" opacity="0.205147879"></path>
        <path d="M15.7912142,5.29302587 C15.4006258,5.68360205 15.4006258,6.31639795 15.7912142,6.70697413 C16.1819275,7.09767529 16.8146182,7.09767529 17.2053316,6.70697413 C17.59592,6.31639795 17.59592,5.68360205 17.2053316,5.29302587 C16.8146182,4.90232471 16.1819275,4.90232471 15.7912142,5.29302587" id="Path-Copy-14" fill="#DB4D4D" opacity="0.387393043"></path>
        <path d="M13.7938049,2.29302587 C13.4032165,2.68360205 13.4032165,3.31639795 13.7938049,3.70697413 C14.1845182,4.09767529 14.8172089,4.09767529 15.2079223,3.70697413 C15.5985107,3.31639795 15.5985107,2.68360205 15.2079223,2.29302587 C14.8172089,1.90232471 14.1845182,1.90232471 13.7938049,2.29302587" id="Path-Copy-24" fill="#DB4D4D" opacity="0.205147879"></path>
        <path d="M19.7903506,5.29302587 C19.3997622,5.68360205 19.3997622,6.31639795 19.7903506,6.70697413 C20.181064,7.09767529 20.8137546,7.09767529 21.204468,6.70697413 C21.5950564,6.31639795 21.5950564,5.68360205 21.204468,5.29302587 C20.8137546,4.90232471 20.181064,4.90232471 19.7903506,5.29302587" id="Path-Copy-18" fill="#DB4D4D" opacity="0.387393043"></path>
        <path d="M17.7929413,2.29302587 C17.4023529,2.68360205 17.4023529,3.31639795 17.7929413,3.70697413 C18.1836547,4.09767529 18.8163453,4.09767529 19.2070587,3.70697413 C19.5976471,3.31639795 19.5976471,2.68360205 19.2070587,2.29302587 C18.8163453,1.90232471 18.1836547,1.90232471 17.7929413,2.29302587" id="Path-Copy-25" fill="#DB4D4D" opacity="0.205147879"></path>
        <path d="M23.7877599,5.29302587 C23.3971715,5.68360205 23.3971715,6.31639795 23.7877599,6.70697413 C24.1784733,7.09767529 24.811164,7.09767529 25.2018773,6.70697413 C25.5924657,6.31639795 25.5924657,5.68360205 25.2018773,5.29302587 C24.811164,4.90232471 24.1784733,4.90232471 23.7877599,5.29302587" id="Path-Copy-21" fill="#DB4D4D" opacity="0.387393043"></path>
        <path d="M21.7903506,2.29302587 C21.3997622,2.68360205 21.3997622,3.31639795 21.7903506,3.70697413 C22.181064,4.09767529 22.8137546,4.09767529 23.204468,3.70697413 C23.5950564,3.31639795 23.5950564,2.68360205 23.204468,2.29302587 C22.8137546,1.90232471 22.181064,1.90232471 21.7903506,2.29302587" id="Path-Copy-26" fill="#DB4D4D" opacity="0.205147879"></path>
        <path d="M25.7877599,2.29302587 C25.3971715,2.68360205 25.3971715,3.31639795 25.7877599,3.70697413 C26.1784733,4.09767529 26.811164,4.09767529 27.2018773,3.70697413 C27.5924657,3.31639795 27.5924657,2.68360205 27.2018773,2.29302587 C26.811164,1.90232471 26.1784733,1.90232471 25.7877599,2.29302587" id="Path-Copy-27" fill="#DB4D4D" opacity="0.205147879"></path>
        <path d="M5.79294129,8.29302587 C5.4023529,8.68360205 5.4023529,9.31639795 5.79294129,9.70697413 C6.18365466,10.0976753 6.81634534,10.0976753 7.20705871,9.70697413 C7.5976471,9.31639795 7.5976471,8.68360205 7.20705871,8.29302587 C6.81634534,7.90232471 6.18365466,7.90232471 5.79294129,8.29302587" id="Path-Copy-15" fill="#DB4D4D" opacity="0.830403646"></path>
        <circle id="Oval-Copy-21" fill="url(#linearGradient-1)" cx="9.25129535" cy="23.2512953" r="1.74870465"></circle>
        <circle id="Oval-Copy-24" fill="url(#linearGradient-1)" cx="18.5" cy="18.2487047" r="1.74870465"></circle>
        <circle id="Oval-Copy-25" fill="url(#linearGradient-1)" cx="28.7512953" cy="18.7487047" r="1.74870465"></circle>
        <circle id="Oval-Copy-27" fill="url(#linearGradient-1)" cx="28.6744709" cy="12.2512953" r="1.74870465"></circle>
        <circle id="Oval-Copy-26" fill="url(#linearGradient-1)" cx="24.1744709" cy="15.2512953" r="1.74870465"></circle>
        <circle id="Oval-Copy-22" fill="url(#linearGradient-1)" cx="15.7487047" cy="23.2512953" r="1.74870465"></circle>
        <circle id="Oval-Copy-23" fill="url(#linearGradient-1)" cx="12.4991364" cy="18.7487047" r="1.74870465"></circle>
        <g id="Group" transform="translate(17.502591, 18.002591)">
            <g id="Group-4" fill="url(#linearGradient-2)" stroke="#FFFFFF">
                <circle id="Oval-2" cx="6.50547047" cy="6.50547047" r="7.00547047"></circle>
            </g>
            <rect id="Rectangle" fill="#FFFFFF" x="5.89558262" y="2.84614333" width="1.21977571" height="7.31865428" rx="0.609887857"></rect>
            <rect id="Rectangle" fill="#FFFFFF" x="2.84614333" y="5.89558262" width="7.31865428" height="1.21977571" rx="0.609887857"></rect>
        </g>
        <rect id="Rectangle-Copy-2" fill="#0077BE" x="13" y="26" width="1" height="3" rx="0.5"></rect>
    </g>
</svg>