<?xml version="1.0" encoding="UTF-8"?>
<svg width="16px" height="16px" viewBox="0 0 16 16" version="1.1" xmlns="http://www.w3.org/2000/svg" xmlns:xlink="http://www.w3.org/1999/xlink">
    <title>classification_toolkit_16x16</title>
    <g id="classification_toolkit_16x16" stroke="none" stroke-width="1" fill="none" fill-rule="evenodd">
        <path d="M3,13 C3.46173479,10.4818554 4.59355332,8.74370085 6.39545561,7.78553624 C8.54468642,6.64267909 9.96650822,7.50313975 12.5552277,5.4448887 C13.8865291,4.38639147 14.7014532,2.9047619 15,1" id="Line-3" stroke="#F16464" stroke-linecap="round"></path>
        <path d="M1,15.5 C1.27614237,15.5 1.5,15.2761424 1.5,15 L1.5,1 C1.5,0.723857625 1.27614237,0.5 1,0.5 C0.723857625,0.5 0.5,0.723857625 0.5,1 L0.5,15 C0.5,15.2761424 0.723857625,15.5 1,15.5 Z" id="Fill-7" fill="#0477BD"></path>
        <path d="M1,15.5 L15,15.5 C15.2761424,15.5 15.5,15.2761424 15.5,15 C15.5,14.7238576 15.2761424,14.5 15,14.5 L1,14.5 C0.723857625,14.5 0.5,14.7238576 0.5,15 C0.5,15.2761424 0.723857625,15.5 1,15.5 Z" id="Fill-2" fill="#0477BD"></path>
        <path d="M2.64647064,1.14651294 C2.45117645,1.34180102 2.45117645,1.65819898 2.64647064,1.85348706 C2.84182733,2.04883765 3.15817267,2.04883765 3.35352936,1.85348706 C3.54882355,1.65819898 3.54882355,1.34180102 3.35352936,1.14651294 C3.15817267,0.951162355 2.84182733,0.951162355 2.64647064,1.14651294" id="Path-Copy-28" fill="#DB4D4D" opacity="0.221307664"></path>
        <path d="M6.64647064,1.14651294 C6.45117645,1.34180102 6.45117645,1.65819898 6.64647064,1.85348706 C6.84182733,2.04883765 7.15817267,2.04883765 7.35352936,1.85348706 C7.54882355,1.65819898 7.54882355,1.34180102 7.35352936,1.14651294 C7.15817267,0.951162355 6.84182733,0.951162355 6.64647064,1.14651294" id="Path-Copy-30" fill="#DB4D4D" opacity="0.221307664"></path>
        <path d="M10.6464706,1.14651294 C10.4511765,1.34180102 10.4511765,1.65819898 10.6464706,1.85348706 C10.8418273,2.04883765 11.1581727,2.04883765 11.3535294,1.85348706 C11.5488235,1.65819898 11.5488235,1.34180102 11.3535294,1.14651294 C11.1581727,0.951162355 10.8418273,0.951162355 10.6464706,1.14651294" id="Path-Copy-32" fill="#DB4D4D" opacity="0.221307664"></path>
        <path d="M4.64647064,1.14651294 C4.45117645,1.34180102 4.45117645,1.65819898 4.64647064,1.85348706 C4.84182733,2.04883765 5.15817267,2.04883765 5.35352936,1.85348706 C5.54882355,1.65819898 5.54882355,1.34180102 5.35352936,1.14651294 C5.15817267,0.951162355 4.84182733,0.951162355 4.64647064,1.14651294" id="Path-Copy-29" fill="#DB4D4D" opacity="0.221307664"></path>
        <path d="M8.64647064,1.14651294 C8.45117645,1.34180102 8.45117645,1.65819898 8.64647064,1.85348706 C8.84182733,2.04883765 9.15817267,2.04883765 9.35352936,1.85348706 C9.54882355,1.65819898 9.54882355,1.34180102 9.35352936,1.14651294 C9.15817267,0.951162355 8.84182733,0.951162355 8.64647064,1.14651294" id="Path-Copy-31" fill="#DB4D4D" opacity="0.221307664"></path>
        <path d="M12.6464706,1.14651294 C12.4511765,1.34180102 12.4511765,1.65819898 12.6464706,1.85348706 C12.8418273,2.04883765 13.1581727,2.04883765 13.3535294,1.85348706 C13.5488235,1.65819898 13.5488235,1.34180102 13.3535294,1.14651294 C13.1581727,0.951162355 12.8418273,0.951162355 12.6464706,1.14651294" id="Path-Copy-33" fill="#DB4D4D" opacity="0.221307664"></path>
        <path d="M2.64647064,3.14651294 C2.45117645,3.34180102 2.45117645,3.65819898 2.64647064,3.85348706 C2.84182733,4.04883765 3.15817267,4.04883765 3.35352936,3.85348706 C3.54882355,3.65819898 3.54882355,3.34180102 3.35352936,3.14651294 C3.15817267,2.95116235 2.84182733,2.95116235 2.64647064,3.14651294" id="Path-Copy-28" fill="#DB4D4D" opacity="0.520879836"></path>
        <path d="M6.64647064,3.14651294 C6.45117645,3.34180102 6.45117645,3.65819898 6.64647064,3.85348706 C6.84182733,4.04883765 7.15817267,4.04883765 7.35352936,3.85348706 C7.54882355,3.65819898 7.54882355,3.34180102 7.35352936,3.14651294 C7.15817267,2.95116235 6.84182733,2.95116235 6.64647064,3.14651294" id="Path-Copy-30" fill="#DB4D4D" opacity="0.520879836"></path>
        <path d="M10.6464706,3.14651294 C10.4511765,3.34180102 10.4511765,3.65819898 10.6464706,3.85348706 C10.8418273,4.04883765 11.1581727,4.04883765 11.3535294,3.85348706 C11.5488235,3.65819898 11.5488235,3.34180102 11.3535294,3.14651294 C11.1581727,2.95116235 10.8418273,2.95116235 10.6464706,3.14651294" id="Path-Copy-32" fill="#DB4D4D" opacity="0.520879836"></path>
        <path d="M4.64647064,3.14651294 C4.45117645,3.34180102 4.45117645,3.65819898 4.64647064,3.85348706 C4.84182733,4.04883765 5.15817267,4.04883765 5.35352936,3.85348706 C5.54882355,3.65819898 5.54882355,3.34180102 5.35352936,3.14651294 C5.15817267,2.95116235 4.84182733,2.95116235 4.64647064,3.14651294" id="Path-Copy-29" fill="#DB4D4D" opacity="0.520879836"></path>
        <path d="M8.64647064,3.14651294 C8.45117645,3.34180102 8.45117645,3.65819898 8.64647064,3.85348706 C8.84182733,4.04883765 9.15817267,4.04883765 9.35352936,3.85348706 C9.54882355,3.65819898 9.54882355,3.34180102 9.35352936,3.14651294 C9.15817267,2.95116235 8.84182733,2.95116235 8.64647064,3.14651294" id="Path-Copy-31" fill="#DB4D4D" opacity="0.520879836"></path>
        <path d="M12.6464706,3.14651294 C12.4511765,3.34180102 12.4511765,3.65819898 12.6464706,3.85348706 C12.8418273,4.04883765 13.1581727,4.04883765 13.3535294,3.85348706 C13.5488235,3.65819898 13.5488235,3.34180102 13.3535294,3.14651294 C13.1581727,2.95116235 12.8418273,2.95116235 12.6464706,3.14651294" id="Path-Copy-33" fill="#DB4D4D" opacity="0.520879836"></path>
        <path d="M2.64647064,5.14651294 C2.45117645,5.34180102 2.45117645,5.65819898 2.64647064,5.85348706 C2.84182733,6.04883765 3.15817267,6.04883765 3.35352936,5.85348706 C3.54882355,5.65819898 3.54882355,5.34180102 3.35352936,5.14651294 C3.15817267,4.95116235 2.84182733,4.95116235 2.64647064,5.14651294" id="Path-Copy-28" fill="#DB4D4D" opacity="0.964053199"></path>
        <path d="M6.64647064,5.14651294 C6.45117645,5.34180102 6.45117645,5.65819898 6.64647064,5.85348706 C6.84182733,6.04883765 7.15817267,6.04883765 7.35352936,5.85348706 C7.54882355,5.65819898 7.54882355,5.34180102 7.35352936,5.14651294 C7.15817267,4.95116235 6.84182733,4.95116235 6.64647064,5.14651294" id="Path-Copy-30" fill="#DB4D4D" opacity="0.964053199"></path>
        <path d="M10.6464706,5.14651294 C10.4511765,5.34180102 10.4511765,5.65819898 10.6464706,5.85348706 C10.8418273,6.04883765 11.1581727,6.04883765 11.3535294,5.85348706 C11.5488235,5.65819898 11.5488235,5.34180102 11.3535294,5.14651294 C11.1581727,4.95116235 10.8418273,4.95116235 10.6464706,5.14651294" id="Path-Copy-32" fill="#DB4D4D" opacity="0.964053199"></path>
        <path d="M4.64647064,5.14651294 C4.45117645,5.34180102 4.45117645,5.65819898 4.64647064,5.85348706 C4.84182733,6.04883765 5.15817267,6.04883765 5.35352936,5.85348706 C5.54882355,5.65819898 5.54882355,5.34180102 5.35352936,5.14651294 C5.15817267,4.95116235 4.84182733,4.95116235 4.64647064,5.14651294" id="Path-Copy-29" fill="#DB4D4D" opacity="0.964053199"></path>
        <path d="M8.64647064,5.14651294 C8.45117645,5.34180102 8.45117645,5.65819898 8.64647064,5.85348706 C8.84182733,6.04883765 9.15817267,6.04883765 9.35352936,5.85348706 C9.54882355,5.65819898 9.54882355,5.34180102 9.35352936,5.14651294 C9.15817267,4.95116235 8.84182733,4.95116235 8.64647064,5.14651294" id="Path-Copy-31" fill="#DB4D4D" opacity="0.964053199"></path>
        <path d="M5.21970597,12.2197694 C4.92676468,12.5127015 4.92676468,12.9872985 5.21970597,13.2802306 C5.51274099,13.5732565 5.98725901,13.5732565 6.28029403,13.2802306 C6.57323532,12.9872985 6.57323532,12.5127015 6.28029403,12.2197694 C5.98725901,11.9267435 5.51274099,11.9267435 5.21970597,12.2197694" id="Path-Copy-28" fill="#0077BE" opacity="0.964053199"></path>
        <path d="M8.21970597,12.2197694 C7.92676468,12.5127015 7.92676468,12.9872985 8.21970597,13.2802306 C8.51274099,13.5732565 8.98725901,13.5732565 9.28029403,13.2802306 C9.57323532,12.9872985 9.57323532,12.5127015 9.28029403,12.2197694 C8.98725901,11.9267435 8.51274099,11.9267435 8.21970597,12.2197694" id="Path-Copy-28" fill="#0077BE" opacity="0.964053199"></path>
        <path d="M11.219706,12.2197694 C10.9267647,12.5127015 10.9267647,12.9872985 11.219706,13.2802306 C11.512741,13.5732565 11.987259,13.5732565 12.280294,13.2802306 C12.5732353,12.9872985 12.5732353,12.5127015 12.280294,12.2197694 C11.987259,11.9267435 11.512741,11.9267435 11.219706,12.2197694" id="Path-Copy-28" fill="#0077BE" opacity="0.964053199"></path>
        <path d="M14.219706,12.2197694 C13.9267647,12.5127015 13.9267647,12.9872985 14.219706,13.2802306 C14.512741,13.5732565 14.987259,13.5732565 15.280294,13.2802306 C15.5732353,12.9872985 15.5732353,12.5127015 15.280294,12.2197694 C14.987259,11.9267435 14.512741,11.9267435 14.219706,12.2197694" id="Path-Copy-28" fill="#0077BE" opacity="0.964053199"></path>
        <path d="M8.21970597,9.7197694 C7.92676468,10.0127015 7.92676468,10.4872985 8.21970597,10.7802306 C8.51274099,11.0732565 8.98725901,11.0732565 9.28029403,10.7802306 C9.57323532,10.4872985 9.57323532,10.0127015 9.28029403,9.7197694 C8.98725901,9.42674353 8.51274099,9.42674353 8.21970597,9.7197694" id="Path-Copy-28" fill="#0077BE" opacity="0.964053199"></path>
        <path d="M8.21970597,7.2197694 C7.92676468,7.51270154 7.92676468,7.98729846 8.21970597,8.2802306 C8.51274099,8.57325647 8.98725901,8.57325647 9.28029403,8.2802306 C9.57323532,7.98729846 9.57323532,7.51270154 9.28029403,7.2197694 C8.98725901,6.92674353 8.51274099,6.92674353 8.21970597,7.2197694" id="Path-Copy-28" fill="#0077BE" opacity="0.964053199"></path>
        <path d="M5.21970597,9.7197694 C4.92676468,10.0127015 4.92676468,10.4872985 5.21970597,10.7802306 C5.51274099,11.0732565 5.98725901,11.0732565 6.28029403,10.7802306 C6.57323532,10.4872985 6.57323532,10.0127015 6.28029403,9.7197694 C5.98725901,9.42674353 5.51274099,9.42674353 5.21970597,9.7197694" id="Path-Copy-28" fill="#0077BE" opacity="0.964053199"></path>
        <path d="M11.219706,9.7197694 C10.9267647,10.0127015 10.9267647,10.4872985 11.219706,10.7802306 C11.512741,11.0732565 11.987259,11.0732565 12.280294,10.7802306 C12.5732353,10.4872985 12.5732353,10.0127015 12.280294,9.7197694 C11.987259,9.42674353 11.512741,9.42674353 11.219706,9.7197694" id="Path-Copy-28" fill="#0077BE" opacity="0.964053199"></path>
        <path d="M14.219706,9.7197694 C13.9267647,10.0127015 13.9267647,10.4872985 14.219706,10.7802306 C14.512741,11.0732565 14.987259,11.0732565 15.280294,10.7802306 C15.5732353,10.4872985 15.5732353,10.0127015 15.280294,9.7197694 C14.987259,9.42674353 14.512741,9.42674353 14.219706,9.7197694" id="Path-Copy-28" fill="#0077BE" opacity="0.964053199"></path>
        <path d="M11.219706,7.2197694 C10.9267647,7.51270154 10.9267647,7.98729846 11.219706,8.2802306 C11.512741,8.57325647 11.987259,8.57325647 12.280294,8.2802306 C12.5732353,7.98729846 12.5732353,7.51270154 12.280294,7.2197694 C11.987259,6.92674353 11.512741,6.92674353 11.219706,7.2197694" id="Path-Copy-28" fill="#0077BE" opacity="0.964053199"></path>
        <path d="M14.219706,7.2197694 C13.9267647,7.51270154 13.9267647,7.98729846 14.219706,8.2802306 C14.512741,8.57325647 14.987259,8.57325647 15.280294,8.2802306 C15.5732353,7.98729846 15.5732353,7.51270154 15.280294,7.2197694 C14.987259,6.92674353 14.512741,6.92674353 14.219706,7.2197694" id="Path-Copy-28" fill="#0077BE" opacity="0.964053199"></path>
        <path d="M14.219706,4.7197694 C13.9267647,5.01270154 13.9267647,5.48729846 14.219706,5.7802306 C14.512741,6.07325647 14.987259,6.07325647 15.280294,5.7802306 C15.5732353,5.48729846 15.5732353,5.01270154 15.280294,4.7197694 C14.987259,4.42674353 14.512741,4.42674353 14.219706,4.7197694" id="Path-Copy-28" fill="#0077BE" opacity="0.964053199"></path>
        <path d="M2.64647064,9.14651294 C2.45117645,9.34180102 2.45117645,9.65819898 2.64647064,9.85348706 C2.84182733,10.0488376 3.15817267,10.0488376 3.35352936,9.85348706 C3.54882355,9.65819898 3.54882355,9.34180102 3.35352936,9.14651294 C3.15817267,8.95116235 2.84182733,8.95116235 2.64647064,9.14651294" id="Path-Copy-33" fill="#DB4D4D" opacity="0.964053199"></path>
        <path d="M2.64647064,7.14651294 C2.45117645,7.34180102 2.45117645,7.65819898 2.64647064,7.85348706 C2.84182733,8.04883765 3.15817267,8.04883765 3.35352936,7.85348706 C3.54882355,7.65819898 3.54882355,7.34180102 3.35352936,7.14651294 C3.15817267,6.95116235 2.84182733,6.95116235 2.64647064,7.14651294" id="Path-Copy-28" fill="#DB4D4D"></path>
        <path d="M4.64647064,7.14651294 C4.45117645,7.34180102 4.45117645,7.65819898 4.64647064,7.85348706 C4.84182733,8.04883765 5.15817267,8.04883765 5.35352936,7.85348706 C5.54882355,7.65819898 5.54882355,7.34180102 5.35352936,7.14651294 C5.15817267,6.95116235 4.84182733,6.95116235 4.64647064,7.14651294" id="Path-Copy-29" fill="#DB4D4D"></path>
    </g>
</svg>