<svg width="18" height="18" viewBox="0 0 18 18" fill="none" xmlns="http://www.w3.org/2000/svg">
<path d="M8 3H14.2745" stroke="#F36565" stroke-width="0.8"/>
<path d="M8 5H14.2745" stroke="#F36565" stroke-width="0.8"/>
<path d="M1 6.66828H17" stroke="#1962A7" stroke-width="0.7"/>
<path d="M3.5 3H5.5915" stroke="#F36565" stroke-width="0.8"/>
<path d="M3.5 5H5.5915" stroke="#F36565" stroke-width="0.8"/>
<path d="M3.90157 8V8.97312C3.90157 9.3626 4.16254 9.73171 4.61315 9.97932L4.69845 10.0261C5.7106 10.5824 5.57776 11.6424 4.44103 12.0787C3.21394 12.5496 3.18022 13.7232 4.37933 14.2253L4.56038 14.3011C5.68262 14.771 5.82574 15.825 4.84832 16.4219L3.90157 17" stroke="#F36565" stroke-width="0.7"/>
<path d="M8.40157 8V8.97312C8.40157 9.3626 8.66254 9.73171 9.11315 9.97932L9.19845 10.0261C10.2106 10.5824 10.0778 11.6424 8.94103 12.0787C7.71394 12.5496 7.68022 13.7232 8.87933 14.2253L9.06038 14.3011C10.1826 14.771 10.3257 15.825 9.34832 16.4219L8.40157 17" stroke="#F36565" stroke-width="0.7"/>
<path d="M12.9016 8V8.97312C12.9016 9.3626 13.1625 9.73171 13.6132 9.97932L13.6984 10.0261C14.7106 10.5824 14.5778 11.6424 13.441 12.0787C12.2139 12.5496 12.1802 13.7232 13.3793 14.2253L13.5604 14.3011C14.6826 14.771 14.8257 15.825 13.8483 16.4219L12.9016 17" stroke="#F36565" stroke-width="0.7"/>
<path d="M15.2745 1H2.72549C1.77253 1 1 1.77001 1 2.71987V15.228C1 16.1779 1.77253 16.9479 2.72549 16.9479H15.2745C16.2275 16.9479 17 16.1779 17 15.228V2.71987C17 1.77001 16.2275 1 15.2745 1Z" stroke="#1962A7" stroke-width="0.8"/>
</svg>
