<svg width="32" height="32" viewBox="0 0 32 32" fill="none" xmlns="http://www.w3.org/2000/svg">
<path d="M14.125 4.41344H25.8897" stroke="#F36565"/>
<path d="M14.125 8.16344H25.8897" stroke="#F36565"/>
<path d="M1 11.2915H31" stroke="#1962A7" stroke-width="0.7"/>
<path d="M5.6875 4.41344H9.60907" stroke="#F36565"/>
<path d="M5.6875 8.16344H9.60907" stroke="#F36565"/>
<path d="M6.44045 13.7884V15.613C6.44045 16.3433 6.92975 17.0354 7.77466 17.4997L7.93459 17.5874C9.83238 18.6305 9.58331 20.618 7.45193 21.436C5.15113 22.319 5.08791 24.5195 7.33624 25.4609L7.67571 25.603C9.7799 26.4841 10.0483 28.4604 8.2156 29.5794L6.44045 30.6634" stroke="#F36565" stroke-width="0.8"/>
<path d="M14.878 13.7884V15.613C14.878 16.3433 15.3673 17.0354 16.2122 17.4997L16.3721 17.5874C18.2699 18.6305 18.0208 20.618 15.8894 21.436C13.5886 22.319 13.5254 24.5195 15.7737 25.4609L16.1132 25.603C18.2174 26.4841 18.4858 28.4604 16.6531 29.5794L14.878 30.6634" stroke="#F36565" stroke-width="0.8"/>
<path d="M23.3155 13.7884V15.613C23.3155 16.3433 23.8048 17.0354 24.6497 17.4997L24.8096 17.5874C26.7074 18.6305 26.4583 20.618 24.3269 21.436C22.0261 22.319 21.9629 24.5195 24.2112 25.4609L24.5507 25.603C26.6549 26.4841 26.9233 28.4604 25.0906 29.5794L23.3155 30.6634" stroke="#F36565" stroke-width="0.8"/>
<path d="M27.7647 0.663445H4.23529C2.44849 0.663445 1 2.10722 1 3.88821V27.341C1 29.122 2.44849 30.5657 4.23529 30.5657H27.7647C29.5515 30.5657 31 29.122 31 27.341V3.88821C31 2.10722 29.5515 0.663445 27.7647 0.663445Z" stroke="#1962A7" stroke-width="0.8"/>
</svg>
