<svg width="16" height="16" viewBox="0 0 16 16" fill="none" xmlns="http://www.w3.org/2000/svg">
<path d="M7.125 2.75H12.6152" stroke="#F36565" stroke-width="0.8"/>
<path d="M7.125 4.5H12.6152" stroke="#F36565" stroke-width="0.8"/>
<path d="M1 5.95974H15" stroke="#1962A7" stroke-width="0.7"/>
<path d="M3.1875 2.75H5.01757" stroke="#F36565" stroke-width="0.8"/>
<path d="M3.1875 4.5H5.01757" stroke="#F36565" stroke-width="0.8"/>
<path d="M3.53888 7.125V7.97648C3.53888 8.31727 3.76722 8.64025 4.16151 8.85691L4.23614 8.89786C5.12178 9.38463 5.00554 10.3121 4.0109 10.6939C2.93719 11.1059 2.90769 12.1328 3.95691 12.5721L4.11533 12.6385C5.09729 13.0497 5.22253 13.9719 4.36728 14.4941L3.53888 15" stroke="#F36565" stroke-width="0.7"/>
<path d="M7.47638 7.125V7.97648C7.47638 8.31727 7.70472 8.64025 8.09901 8.85691L8.17364 8.89786C9.05928 9.38463 8.94304 10.3121 7.9484 10.6939C6.87469 11.1059 6.84519 12.1328 7.89441 12.5721L8.05283 12.6385C9.03479 13.0497 9.16003 13.9719 8.30478 14.4941L7.47638 15" stroke="#F36565" stroke-width="0.7"/>
<path d="M11.4139 7.125V7.97648C11.4139 8.31727 11.6422 8.64025 12.0365 8.85691L12.1111 8.89786C12.9968 9.38463 12.8805 10.3121 11.8859 10.6939C10.8122 11.1059 10.7827 12.1328 11.8319 12.5721L11.9903 12.6385C12.9723 13.0497 13.0975 13.9719 12.2423 14.4941L11.4139 15" stroke="#F36565" stroke-width="0.7"/>
<path d="M13.4902 1H2.5098C1.67596 1 1 1.67376 1 2.50489V13.4495C1 14.2806 1.67596 14.9544 2.5098 14.9544H13.4902C14.324 14.9544 15 14.2806 15 13.4495V2.50489C15 1.67376 14.324 1 13.4902 1Z" stroke="#1962A7" stroke-width="0.8"/>
</svg>
