<?xml version="1.0" encoding="UTF-8"?>
<svg width="32px" height="32px" viewBox="0 0 32 32" version="1.1" xmlns="http://www.w3.org/2000/svg" xmlns:xlink="http://www.w3.org/1999/xlink">
    <title>connection_error_wi_python_32x32</title>
    <defs>
        <linearGradient x1="50.001951%" y1="122.038898%" x2="50.001951%" y2="-4.73356747%" id="linearGradient-1">
            <stop stop-color="#FFFFFF" offset="0%"></stop>
            <stop stop-color="#E8EFEE" offset="100%"></stop>
        </linearGradient>
        <linearGradient x1="50.0020062%" y1="5.2457086%" x2="50.0020062%" y2="99.7066476%" id="linearGradient-2">
            <stop stop-color="#FFFFFF" offset="0%"></stop>
            <stop stop-color="#E8EFEE" offset="100%"></stop>
        </linearGradient>
        <radialGradient cx="43.8847152%" cy="41.7281132%" fx="43.8847152%" fy="41.7281132%" r="61.7142513%" id="radialGradient-3">
            <stop stop-color="#FFFFFF" stop-opacity="0" offset="0.01%"></stop>
            <stop stop-color="#FDFDFD" stop-opacity="0.482" offset="48.2%"></stop>
            <stop stop-color="#F6F7F7" stop-opacity="0.655" offset="65.6%"></stop>
            <stop stop-color="#EBEDEC" stop-opacity="0.779" offset="77.9%"></stop>
            <stop stop-color="#DADDDD" stop-opacity="0.879" offset="87.9%"></stop>
            <stop stop-color="#C4CAC9" stop-opacity="0.964" offset="96.4%"></stop>
            <stop stop-color="#B8BFBE" offset="100%"></stop>
        </radialGradient>
        <radialGradient cx="66.6350153%" cy="134.960996%" fx="66.6350153%" fy="134.960996%" r="397.337263%" gradientTransform="translate(0.666350,1.349610),scale(0.770699,1.000000),translate(-0.666350,-1.349610)" id="radialGradient-4">
            <stop stop-color="#00A6F9" offset="0%"></stop>
            <stop stop-color="#00A0F7" offset="25.3%"></stop>
            <stop stop-color="#0091F0" offset="57.5%"></stop>
            <stop stop-color="#0077E4" offset="93.2%"></stop>
            <stop stop-color="#0071E2" offset="100%"></stop>
        </radialGradient>
        <radialGradient cx="-133.632325%" cy="134.965283%" fx="-133.632325%" fy="134.965283%" r="397.370254%" gradientTransform="translate(-1.336323,1.349653),scale(0.770701,1.000000),translate(1.336323,-1.349653)" id="radialGradient-5">
            <stop stop-color="#00A6F9" offset="0%"></stop>
            <stop stop-color="#00A0F7" offset="25.3%"></stop>
            <stop stop-color="#0091F0" offset="57.5%"></stop>
            <stop stop-color="#0077E4" offset="93.2%"></stop>
            <stop stop-color="#0071E2" offset="100%"></stop>
        </radialGradient>
        <radialGradient cx="1.44263331%" cy="-122.602408%" fx="1.44263331%" fy="-122.602408%" r="327.060263%" gradientTransform="translate(0.014426,-1.226024),scale(0.544551,1.000000),translate(-0.014426,1.226024)" id="radialGradient-6">
            <stop stop-color="#00A6F9" offset="0%"></stop>
            <stop stop-color="#00A0F7" offset="25.3%"></stop>
            <stop stop-color="#0091F0" offset="57.5%"></stop>
            <stop stop-color="#0077E4" offset="93.2%"></stop>
            <stop stop-color="#0071E2" offset="100%"></stop>
        </radialGradient>
        <radialGradient cx="1.4414018%" cy="1.09831783%" fx="1.4414018%" fy="1.09831783%" r="327.060263%" gradientTransform="translate(0.014414,0.010983),scale(0.544554,1.000000),translate(-0.014414,-0.010983)" id="radialGradient-7">
            <stop stop-color="#00A6F9" offset="0%"></stop>
            <stop stop-color="#00A0F7" offset="25.3%"></stop>
            <stop stop-color="#0091F0" offset="57.5%"></stop>
            <stop stop-color="#0077E4" offset="93.2%"></stop>
            <stop stop-color="#0071E2" offset="100%"></stop>
        </radialGradient>
        <radialGradient cx="-11.0686532%" cy="-248.354836%" fx="-11.0686532%" fy="-248.354836%" r="339.182906%" gradientTransform="translate(-0.110687,-2.483548),scale(0.660382,1.000000),translate(0.110687,2.483548)" id="radialGradient-8">
            <stop stop-color="#00A6F9" offset="0%"></stop>
            <stop stop-color="#00A0F7" offset="25.3%"></stop>
            <stop stop-color="#0091F0" offset="57.5%"></stop>
            <stop stop-color="#0077E4" offset="93.2%"></stop>
            <stop stop-color="#0071E2" offset="100%"></stop>
        </radialGradient>
        <radialGradient cx="-11.0686532%" cy="118.640593%" fx="-11.0686532%" fy="118.640593%" r="339.182906%" gradientTransform="translate(-0.110687,1.186406),scale(0.660382,1.000000),translate(0.110687,-1.186406)" id="radialGradient-9">
            <stop stop-color="#00A6F9" offset="0%"></stop>
            <stop stop-color="#00A0F7" offset="25.3%"></stop>
            <stop stop-color="#0091F0" offset="57.5%"></stop>
            <stop stop-color="#0077E4" offset="93.2%"></stop>
            <stop stop-color="#0071E2" offset="100%"></stop>
        </radialGradient>
        <radialGradient cx="110.710994%" cy="25.2696224%" fx="110.710994%" fy="25.2696224%" r="261.052955%" gradientTransform="translate(1.107110,0.252696),scale(1.000000,0.946603),translate(-1.107110,-0.252696)" id="radialGradient-10">
            <stop stop-color="#00A6F9" offset="0%"></stop>
            <stop stop-color="#00A0F7" offset="25.3%"></stop>
            <stop stop-color="#0091F0" offset="57.5%"></stop>
            <stop stop-color="#0077E4" offset="93.2%"></stop>
            <stop stop-color="#0071E2" offset="100%"></stop>
        </radialGradient>
        <radialGradient cx="-133.61346%" cy="-304.060728%" fx="-133.61346%" fy="-304.060728%" r="397.337263%" gradientTransform="translate(-1.336135,-3.040607),scale(0.770699,1.000000),translate(1.336135,3.040607)" id="radialGradient-11">
            <stop stop-color="#00A6F9" offset="0%"></stop>
            <stop stop-color="#00A0F7" offset="25.3%"></stop>
            <stop stop-color="#0091F0" offset="57.5%"></stop>
            <stop stop-color="#0077E4" offset="93.2%"></stop>
            <stop stop-color="#0071E2" offset="100%"></stop>
        </radialGradient>
        <radialGradient cx="-153.049048%" cy="25.2681372%" fx="-153.049048%" fy="25.2681372%" r="261.045836%" gradientTransform="translate(-1.530490,0.252681),scale(1.000000,0.946702),translate(1.530490,-0.252681)" id="radialGradient-12">
            <stop stop-color="#00A6F9" offset="0%"></stop>
            <stop stop-color="#00A0F7" offset="25.3%"></stop>
            <stop stop-color="#0091F0" offset="57.5%"></stop>
            <stop stop-color="#0077E4" offset="93.2%"></stop>
            <stop stop-color="#0071E2" offset="100%"></stop>
        </radialGradient>
        <radialGradient cx="-153.049957%" cy="-92.6397535%" fx="-153.049957%" fy="-92.6397535%" r="261.045836%" gradientTransform="translate(-1.530500,-0.926398),scale(1.000000,0.946694),translate(1.530500,0.926398)" id="radialGradient-13">
            <stop stop-color="#00A6F9" offset="0%"></stop>
            <stop stop-color="#00A0F7" offset="25.3%"></stop>
            <stop stop-color="#0091F0" offset="57.5%"></stop>
            <stop stop-color="#0077E4" offset="93.2%"></stop>
            <stop stop-color="#0071E2" offset="100%"></stop>
        </radialGradient>
        <radialGradient cx="110.710897%" cy="-92.6290729%" fx="110.710897%" fy="-92.6290729%" r="261.050582%" gradientTransform="translate(1.107109,-0.926291),scale(1.000000,0.946611),translate(-1.107109,0.926291)" id="radialGradient-14">
            <stop stop-color="#00A6F9" offset="0%"></stop>
            <stop stop-color="#00A0F7" offset="25.3%"></stop>
            <stop stop-color="#0091F0" offset="57.5%"></stop>
            <stop stop-color="#0077E4" offset="93.2%"></stop>
            <stop stop-color="#0071E2" offset="100%"></stop>
        </radialGradient>
        <radialGradient cx="66.6382145%" cy="-304.05652%" fx="66.6382145%" fy="-304.05652%" r="397.331765%" gradientTransform="translate(0.666382,-3.040565),scale(0.770710,1.000000),translate(-0.666382,3.040565)" id="radialGradient-15">
            <stop stop-color="#00A6F9" offset="0%"></stop>
            <stop stop-color="#00A0F7" offset="25.3%"></stop>
            <stop stop-color="#0091F0" offset="57.5%"></stop>
            <stop stop-color="#0077E4" offset="93.2%"></stop>
            <stop stop-color="#0071E2" offset="100%"></stop>
        </radialGradient>
        <linearGradient x1="127.508077%" y1="97.7952246%" x2="-55.4765622%" y2="-74.7514467%" id="linearGradient-16">
            <stop stop-color="#008BF2" stop-opacity="0" offset="0.01%"></stop>
            <stop stop-color="#0046E2" offset="100%"></stop>
        </linearGradient>
        <linearGradient x1="96.0802949%" y1="62.7236388%" x2="-4.1390206%" y2="-28.5112158%" id="linearGradient-17">
            <stop stop-color="#008BF2" stop-opacity="0" offset="0.01%"></stop>
            <stop stop-color="#0046E2" offset="100%"></stop>
        </linearGradient>
        <linearGradient x1="89.1175494%" y1="112.280047%" x2="-4.08822736%" y2="8.08696852%" id="linearGradient-18">
            <stop stop-color="#008BF2" stop-opacity="0" offset="0.01%"></stop>
            <stop stop-color="#0046E2" offset="100%"></stop>
        </linearGradient>
        <linearGradient x1="122.328978%" y1="86.4282249%" x2="-6.44654315%" y2="1.38719867%" id="linearGradient-19">
            <stop stop-color="#008BF2" stop-opacity="0" offset="0.01%"></stop>
            <stop stop-color="#0046E2" offset="100%"></stop>
        </linearGradient>
        <linearGradient x1="80.0061488%" y1="81.3353282%" x2="-96.0311439%" y2="-54.3311935%" id="linearGradient-20">
            <stop stop-color="#008BF2" stop-opacity="0" offset="0.01%"></stop>
            <stop stop-color="#0046E2" offset="100%"></stop>
        </linearGradient>
        <linearGradient x1="189.366174%" y1="151.36861%" x2="13.3288808%" y2="15.7021761%" id="linearGradient-21">
            <stop stop-color="#008BF2" stop-opacity="0" offset="0.01%"></stop>
            <stop stop-color="#0046E2" offset="100%"></stop>
        </linearGradient>
        <linearGradient x1="112.625145%" y1="141.969277%" x2="-47.439395%" y2="-43.1383553%" id="linearGradient-22">
            <stop stop-color="#008BF2" stop-opacity="0" offset="0.01%"></stop>
            <stop stop-color="#0046E2" offset="100%"></stop>
        </linearGradient>
        <linearGradient x1="50%" y1="0%" x2="50%" y2="138.913237%" id="linearGradient-23">
            <stop stop-color="#FAD961" offset="0%"></stop>
            <stop stop-color="#F76B1C" offset="100%"></stop>
        </linearGradient>
        <linearGradient x1="50%" y1="-18.1216749%" x2="50%" y2="113.56615%" id="linearGradient-24">
            <stop stop-color="#FAD961" offset="0%"></stop>
            <stop stop-color="#F76B1C" offset="100%"></stop>
        </linearGradient>
    </defs>
    <g id="connection_error_wi_python_32x32" stroke="none" stroke-width="1" fill="none" fill-rule="evenodd">
        <g id="browser" transform="translate(1.000000, 2.000000)">
            <circle id="Oval" fill="url(#linearGradient-1)" cx="13.6824949" cy="13.0412625" r="13.0222512"></circle>
            <circle id="Oval" fill="url(#linearGradient-2)" cx="13.6824949" cy="13.0412625" r="12.6636455"></circle>
            <path d="M18.1332169,1.1824078 C18.6531286,2.56704211 18.9382396,4.06661341 18.9382396,5.63289801 C18.9382396,12.627014 13.2684203,18.2968333 6.2743043,18.2968333 C4.70801969,18.2968333 3.20844839,18.0117223 1.82381408,17.4918107 C3.62542102,22.2900679 8.25489532,25.7051978 13.6826688,25.7051978 C20.6767848,25.7051978 26.346604,20.0353785 26.346604,13.0412625 C26.346604,7.613547 22.9315321,2.9840727 18.1332169,1.1824078 Z" id="Path" fill="url(#radialGradient-3)"></path>
            <g id="Group" transform="translate(2.057282, 1.564951)">
                <path d="M6.72245202,4.37577827 C6.90416028,3.7860234 7.10957465,3.22727775 7.33788369,2.70609095 C7.79305273,1.66684723 8.32084711,0.821599536 8.90103839,0.186924762 C6.81275552,0.689042348 4.94431935,1.75523801 3.46590388,3.21574348 C4.42863885,3.70174786 5.52833607,4.0920004 6.72245202,4.37577827 Z" id="Path" fill="url(#radialGradient-4)"></path>
                <path d="M19.7847544,3.21568552 C19.2604957,3.48033621 18.6956641,3.71716553 18.0966934,3.92234806 C17.5964885,4.09518826 17.0721718,4.24658283 16.5282642,4.37572031 C16.346556,3.78619728 16.1413734,3.22710387 15.9127746,2.70603298 C15.4574896,1.66696315 14.930043,0.821657497 14.3500836,0.187214568 C14.3551262,0.188489714 14.3602268,0.189764859 14.3652694,0.190982044 C16.4471766,0.694316814 18.3100484,1.75871568 19.7847544,3.21568552 Z" id="Path" fill="url(#radialGradient-5)"></path>
                <path d="M16.2979845,12.0793969 L6.9527897,12.0793969 C6.99231921,13.8899299 7.20973155,15.6216357 7.58537787,17.1683294 C8.87014509,16.9401942 10.2308994,16.821084 11.6253291,16.821084 C13.0198168,16.821084 14.3805132,16.9401942 15.6652804,17.1683294 C16.0410427,15.6215777 16.258455,13.8899299 16.2979845,12.0793969 Z" id="Path" fill="url(#radialGradient-6)"></path>
                <path d="M15.6653963,5.78435054 C14.3806291,6.01248569 13.0198748,6.13159589 11.6254451,6.13159589 C10.2309574,6.13159589 8.87026101,6.01248569 7.58549379,5.78435054 C7.20984747,7.33110223 6.99237717,9.06275004 6.95290562,10.873283 L16.2980425,10.873283 C16.258455,9.06275004 16.0410427,7.33110223 15.6653963,5.78435054 Z" id="Path" fill="url(#radialGradient-7)"></path>
                <path d="M7.91007633,18.3347399 C8.06935361,18.8380167 8.24688866,19.3157906 8.44262352,19.7627292 C9.32537209,21.7782128 10.4854648,22.9341903 11.6253871,22.9341903 C12.7653094,22.9341903 13.9254021,21.7782708 14.8081507,19.7627292 C15.0038855,19.3157906 15.1814786,18.8380167 15.3406979,18.3347399 C14.1602608,18.1324554 12.9094588,18.02714 11.6253871,18.02714 C10.3413154,18.02714 9.09045548,18.1324554 7.91007633,18.3347399 Z" id="Path" fill="url(#radialGradient-8)"></path>
                <path d="M15.3406979,4.61794002 C15.1814206,4.11466322 15.0038855,3.63688932 14.8081507,3.18995076 C13.9254021,1.17446712 12.7653094,0.0184896121 11.6253871,0.0184896121 C10.4854648,0.0184896121 9.32537209,1.17440916 8.44262352,3.18995076 C8.24688866,3.63688932 8.06929565,4.11466322 7.91007633,4.61794002 C9.09051344,4.8202245 10.3413154,4.92553994 11.6253871,4.92553994 C12.9094588,4.92553994 14.1602608,4.8202245 15.3406979,4.61794002 Z" id="Path" fill="url(#radialGradient-9)"></path>
                <path d="M6.40470891,5.538885 C6.22810123,6.27591919 6.08366201,7.05091795 5.97666569,7.85385399 C5.84619511,8.8258048 5.7682953,9.83827045 5.74615413,10.8735728 L0.0290385445,10.8735728 C0.155046121,8.41677284 1.04399653,6.16260511 2.46433492,4.34152322 C2.51748531,4.27312904 2.57196881,4.20537244 2.6264523,4.13825341 C2.691079,4.17308807 2.7543726,4.20792273 2.82085405,4.24211982 C3.87887719,4.78788217 5.09148276,5.22351829 6.40470891,5.538885 Z" id="Path" fill="url(#radialGradient-10)"></path>
                <path d="M16.5282642,18.5769017 C16.346556,19.1666565 16.1411416,19.7254022 15.9128326,20.246589 C15.4576635,21.2858327 14.9298691,22.1310804 14.3496779,22.7657552 C16.4379607,22.2636376 18.3063969,21.1974419 19.7848124,19.7369364 C18.8221354,19.2509321 17.7224381,18.8606795 16.5282642,18.5769017 Z" id="Path" fill="url(#radialGradient-11)"></path>
                <path d="M20.43021,4.2420039 C19.3718391,4.78805605 18.1595813,5.22375014 16.8457755,5.53876908 C17.2381726,7.16968038 17.4645109,8.9841547 17.5042723,10.873283 L23.2216197,10.873283 C23.0912071,8.32455663 22.1386153,5.99324259 20.6243799,4.13848525 C20.5601009,4.17314603 20.4961698,4.20798069 20.43021,4.2420039 Z" id="Path" fill="url(#radialGradient-12)"></path>
                <path d="M17.5043303,12.0793969 C17.4646269,13.9684673 17.2382885,15.7830575 16.8458335,17.4139108 C18.1596392,17.7289877 19.371897,18.1646818 20.4302679,18.710676 C20.4961698,18.7446992 20.5601009,18.7795339 20.6244378,18.8142526 C22.1386733,16.9594373 23.0912651,14.6281233 23.2216777,12.0793969 L17.5043303,12.0793969 L17.5043303,12.0793969 Z" id="Path" fill="url(#radialGradient-13)"></path>
                <path d="M6.40470891,17.4137949 C5.8430652,17.5486126 5.3003748,17.7050498 4.77994149,17.8829906 C4.08278457,18.1216747 3.42683805,18.3977437 2.82079609,18.7105601 C2.75431464,18.7447572 2.69102104,18.7795339 2.62639434,18.8144265 C1.34736528,17.2479101 0.469137682,15.342031 0.148670392,13.2518354 C0.0891442742,12.8668573 0.0492669916,12.4755615 0.0289805833,12.0791071 L5.74609617,12.0791071 C5.78608938,13.9685832 6.01271754,15.7833473 6.40470891,17.4137949 Z" id="Path" fill="url(#radialGradient-14)"></path>
                <path d="M7.33782573,20.246589 C7.10957465,19.7254022 6.90410232,19.1667145 6.72239406,18.5769017 C5.52827811,18.8606795 4.42858089,19.2508741 3.46572999,19.7369944 C4.94420343,21.1974999 6.81258164,22.2635796 8.90086451,22.7658131 C8.32078915,22.1311384 7.79299477,21.2858327 7.33782573,20.246589 Z" id="Path" fill="url(#radialGradient-15)"></path>
            </g>
            <path d="M8.46199057,7.1038365 C8.28538289,7.84087069 8.14094367,8.61586945 8.03394735,9.41880549 L4.52161658,5.90647472 C4.57476697,5.83808054 4.62925047,5.77032394 4.68373396,5.70320491 C4.74836066,5.73803957 4.81165426,5.77287423 4.87813572,5.80707132 C5.93615885,6.35283366 7.14876442,6.78846979 8.46199057,7.1038365 Z" id="Path" fill="url(#linearGradient-16)"></path>
            <path d="M8.46199057,18.9787464 C7.90034686,19.1135641 7.35765646,19.2700013 6.83722315,19.4479421 L2.20601001,14.8167289 C2.1464839,14.4317509 2.10660661,14.040455 2.0863202,13.6440007 L7.80343579,13.6440007 C7.84337104,15.5335347 8.0699992,17.3482988 8.46199057,18.9787464 Z" id="Path" fill="url(#linearGradient-17)"></path>
            <path d="M20.1539171,5.48729956 C19.6537122,5.66013976 19.1293955,5.81153433 18.5854879,5.94067181 C18.4037797,5.35114878 18.1985971,4.79205537 17.9699983,4.27098448 C17.5147133,3.23191465 16.9872667,2.38660899 16.4073073,1.75216607 C16.4123499,1.75344121 16.4174505,1.75471636 16.4224931,1.75593354 L20.1539171,5.48729956 Z" id="Path" fill="url(#linearGradient-18)"></path>
            <path d="M17.3978057,19.8999812 C16.2173685,19.697233 14.9665666,19.5923813 13.6826688,19.5923813 C12.398771,19.5923813 11.147969,19.697233 9.96753187,19.8999812 C10.1266353,20.4025625 10.3039964,20.8805103 10.4996733,21.3274488 C11.3823639,23.3433961 12.5430363,24.4991998 13.6826688,24.4991998 C14.8223012,24.4991998 15.9829736,23.3434541 16.8656642,21.3274488 C17.0613411,20.8805682 17.2387023,20.4025625 17.3978057,19.8999812 Z" id="Path" fill="url(#linearGradient-19)"></path>
            <path d="M17.9700563,21.8117723 C17.5153509,22.8507262 16.9873826,23.6960898 16.4067277,24.3310544 C18.4951844,23.8284732 20.3640263,22.7627991 21.842152,21.3021777 C20.8792431,20.8158256 19.7797778,20.4258049 18.5852561,20.142143 C18.4036637,20.7313182 18.1981334,21.2901798 17.9700563,21.8117723 Z" id="Path" fill="url(#linearGradient-20)"></path>
            <path d="M8.78008145,20.142143 C7.58555977,20.4258049 6.4860944,20.8157676 5.52318554,21.3021777 C7.00136917,22.7627412 8.8701531,23.8284152 10.9586099,24.3310544 C10.3778969,23.6961478 9.84998662,22.8507842 9.39528127,21.8117723 C9.16714612,21.2901798 8.96167378,20.7313182 8.78008145,20.142143 Z" id="Path" fill="url(#linearGradient-21)"></path>
            <path d="M3.54555053,18.7052277 C3.88473928,18.5963766 4.1064987,18.5114635 4.1064987,18.5114635 L2.86804246,17.2730073 C3.06180664,17.7678797 3.28837684,18.2461752 3.54555053,18.7052277 Z" id="Path" fill="url(#linearGradient-22)"></path>
        </g>
        <g id="Group" transform="translate(14.000000, 15.000000)">
            <path d="M7.47376519,0.636739362 C7.96757437,0.502064129 8.51276043,0.55577075 8.99227788,0.82978072 C9.30234043,1.00695932 9.55930768,1.26392657 9.73648628,1.57398913 L9.73648628,1.57398913 L16.0133066,12.5584247 C16.2873166,13.0379421 16.3410232,13.5831282 16.206348,14.0769374 C16.0716727,14.5707466 15.7486156,15.0131789 15.2690982,15.2871889 C14.9669028,15.4598719 14.6248742,15.5507026 14.2768203,15.5507026 L14.2768203,15.5507026 L1.72317968,15.5507026 C1.17089493,15.5507026 0.670894928,15.3268449 0.308966116,14.9649161 C-0.0529626966,14.6029873 -0.276820322,14.1029873 -0.276820322,13.5507026 C-0.276820322,13.2026487 -0.185989687,12.8606201 -0.0133066059,12.5584247 L-0.0133066059,12.5584247 L6.26351372,1.57398913 C6.53752369,1.09447168 6.979956,0.771414594 7.47376519,0.636739362 Z" id="Triangle" stroke="#FFFFFF" stroke-width="2" fill="url(#linearGradient-23)"></path>
            <path d="M8.86824314,2.07012807 L15.1450635,13.0545636 C15.4190734,13.5340811 15.2524767,14.1449357 14.7729593,14.4189457 C14.6218616,14.5052872 14.4508473,14.5507026 14.2768203,14.5507026 L1.72317968,14.5507026 C1.17089493,14.5507026 0.723179678,14.1029873 0.723179678,13.5507026 C0.723179678,13.3766756 0.768594996,13.2056613 0.854936536,13.0545636 L7.13175686,2.07012807 C7.40576683,1.59061062 8.01662149,1.42401389 8.49613894,1.69802386 C8.65117022,1.78661316 8.77965384,1.91509679 8.86824314,2.07012807 Z" id="Triangle" stroke="url(#linearGradient-24)" fill="url(#linearGradient-23)"></path>
            <path d="M8,5 C8.49981083,5 8.90498756,5.40517673 8.90498756,5.90498756 C8.90498756,5.93506008 8.90348861,5.96511391 8.90049628,5.99503719 L8.54975186,9.5024814 C8.52150828,9.78491722 8.28384448,10 8,10 C7.71615552,10 7.47849172,9.78491722 7.45024814,9.5024814 L7.09950372,5.99503719 C7.04977068,5.49770683 7.41262001,5.05422432 7.90995037,5.00449128 C7.93987365,5.00149895 7.96992748,5 8,5 Z" id="Rectangle" fill="#FFFFFF"></path>
            <rect id="Rectangle-Copy" fill="#FFFFFF" x="7" y="11" width="2" height="2" rx="1"></rect>
        </g>
    </g>
</svg>