<?xml version="1.0" encoding="UTF-8"?>
<svg width="16px" height="16px" viewBox="0 0 16 16" version="1.1" xmlns="http://www.w3.org/2000/svg" xmlns:xlink="http://www.w3.org/1999/xlink">
    <title>crossplot_new_16x16</title>
    <g id="crossplot_new_16x16" stroke="none" stroke-width="1" fill="none" fill-rule="evenodd">
        <path d="M1,15.5 C1.27614237,15.5 1.5,15.2761424 1.5,15 L1.5,1 C1.5,0.723857625 1.27614237,0.5 1,0.5 C0.723857625,0.5 0.5,0.723857625 0.5,1 L0.5,15 C0.5,15.2761424 0.723857625,15.5 1,15.5 Z" id="Fill-7" fill="#0477BD"></path>
        <path d="M1,15.5 L15,15.5 C15.2761424,15.5 15.5,15.2761424 15.5,15 C15.5,14.7238576 15.2761424,14.5 15,14.5 L1,14.5 C0.723857625,14.5 0.5,14.7238576 0.5,15 C0.5,15.2761424 0.723857625,15.5 1,15.5 Z" id="Fill-2" fill="#0477BD"></path>
        <circle id="Oval" fill="#F16464" cx="4" cy="12" r="1"></circle>
        <circle id="Oval-Copy" fill="#0077BE" cx="6" cy="9" r="1"></circle>
        <circle id="Oval-Copy-2" fill="#0077BE" opacity="0.419317336" cx="8" cy="12" r="1"></circle>
        <circle id="Oval-Copy-3" fill="#0077BE" cx="10" cy="9" r="1"></circle>
        <circle id="Oval-Copy-4" fill="#0077BE" cx="4" cy="6" r="1"></circle>
        <circle id="Oval-Copy-5" fill="#F16464" cx="8" cy="5" r="1"></circle>
        <circle id="Oval-Copy-6" fill="#0077BE" cx="12" cy="6" r="1"></circle>
        <circle id="Oval-Copy-7" fill="#0077BE" opacity="0.419317336" cx="14" cy="9" r="1"></circle>
        <circle id="Oval-Copy-8" fill="#0077BE" cx="11" cy="2" r="1"></circle>
        <circle id="Oval-Copy-9" fill="#F16464" cx="14" cy="3" r="1"></circle>
        <g id="Group-3" transform="translate(8.000000, 8.000000)">
            <circle id="Oval-2" stroke="#FFFFFF" fill="#F16464" transform="translate(4.000000, 4.000000) rotate(-90.000000) translate(-4.000000, -4.000000) " cx="4" cy="4" r="4.5"></circle>
            <g id="Group-2" transform="translate(1.000000, 1.000000)" fill="#FFFFFF">
                <rect id="Rectangle" transform="translate(3.000000, 3.000000) rotate(-360.000000) translate(-3.000000, -3.000000) " x="2.5" y="0.545454545" width="1" height="4.90909091" rx="0.5"></rect>
                <path d="M3,0.545454545 C3.27614237,0.545454545 3.5,0.769312171 3.5,1.04545455 L3.5,4.95454545 C3.5,5.23068783 3.27614237,5.45454545 3,5.45454545 C2.72385763,5.45454545 2.5,5.23068783 2.5,4.95454545 L2.5,1.04545455 C2.5,0.769312171 2.72385763,0.545454545 3,0.545454545 Z" id="Rectangle" transform="translate(3.000000, 3.000000) rotate(-630.000000) translate(-3.000000, -3.000000) "></path>
            </g>
        </g>
    </g>
</svg>