<?xml version="1.0" encoding="UTF-8"?>
<svg width="32px" height="32px" viewBox="0 0 32 32" version="1.1" xmlns="http://www.w3.org/2000/svg" xmlns:xlink="http://www.w3.org/1999/xlink">
    <title>crossplot_open_32x32</title>
    <defs>
        <linearGradient x1="50%" y1="3.49530347%" x2="50%" y2="100%" id="linearGradient-1">
            <stop stop-color="#1AAAFF" offset="0%"></stop>
            <stop stop-color="#0077BE" offset="100%"></stop>
        </linearGradient>
        <linearGradient x1="25.5187587%" y1="92.6110365%" x2="76.7029485%" y2="8.20085208%" id="linearGradient-2">
            <stop stop-color="#F16464" offset="0%"></stop>
            <stop stop-color="#F79494" offset="54.49984%"></stop>
            <stop stop-color="#FFD3D3" offset="100%"></stop>
        </linearGradient>
        <linearGradient x1="50%" y1="67.8595342%" x2="50%" y2="4.63017311%" id="linearGradient-3">
            <stop stop-color="#F99D9D" offset="0%"></stop>
            <stop stop-color="#F16464" offset="100%"></stop>
        </linearGradient>
    </defs>
    <g id="crossplot_open_32x32" stroke="none" stroke-width="1" fill="none" fill-rule="evenodd">
        <polygon id="Fill-1" fill="#0477BD" points="2 28 3 28 3 2.5 2 2.5"></polygon>
        <polygon id="Fill-1-Copy" fill="#0477BD" points="2 28 13 28 13 27 2 27"></polygon>
        <path d="M2,29 L3,29 C3.55228475,29 4,28.5522847 4,28 L4,27 C4,26.4477153 3.55228475,26 3,26 L2,26 C1.44771525,26 1,26.4477153 1,27 L1,28 C1,28.5522847 1.44771525,29 2,29 Z" id="Fill-1-Copy-2" fill="#0477BD"></path>
        <line x1="2.5" y1="2.5" x2="1.5" y2="3.5" id="Line" stroke="#0077BE" stroke-linecap="round"></line>
        <line x1="3.5" y1="2.5" x2="2.5" y2="3.5" id="Line" stroke="#0077BE" stroke-linecap="round" transform="translate(3.000000, 3.000000) rotate(-270.000000) translate(-3.000000, -3.000000) "></line>
        <line x1="1.76870651" y1="7.76870651" x2="1.76870651" y2="9.76870651" id="Line-Copy" stroke="#0077BE" stroke-linecap="round" transform="translate(2.268707, 9.000000) rotate(-270.000000) translate(-2.268707, -9.000000) "></line>
        <line x1="1.76870651" y1="12.2687065" x2="1.76870651" y2="14.2687065" id="Line-Copy" stroke="#0077BE" stroke-linecap="round" transform="translate(2.268707, 13.500000) rotate(-270.000000) translate(-2.268707, -13.500000) "></line>
        <line x1="1.76870651" y1="16.7687065" x2="1.76870651" y2="18.7687065" id="Line-Copy" stroke="#0077BE" stroke-linecap="round" transform="translate(2.268707, 18.000000) rotate(-270.000000) translate(-2.268707, -18.000000) "></line>
        <line x1="1.76870651" y1="21.7687065" x2="1.76870651" y2="23.7687065" id="Line-Copy" stroke="#0077BE" stroke-linecap="round" transform="translate(2.268707, 23.000000) rotate(-270.000000) translate(-2.268707, -23.000000) "></line>
        <line x1="7.5" y1="26.5" x2="7.5" y2="28.5" id="Line-2" stroke="#0077BE" stroke-linecap="round"></line>
        <g id="Group-2" transform="translate(6.000000, 3.000000)">
            <circle id="Oval-Copy-18" fill="url(#linearGradient-1)" cx="2" cy="9" r="2"></circle>
            <circle id="Oval-Copy-19" fill="url(#linearGradient-2)" cx="8" cy="7.27855522" r="2"></circle>
            <circle id="Oval-Copy-20" fill="url(#linearGradient-1)" cx="14" cy="8" r="2"></circle>
            <circle id="Oval-Copy-24" fill="url(#linearGradient-2)" cx="21" cy="4" r="2"></circle>
            <circle id="Oval-Copy-21" fill="url(#linearGradient-1)" cx="12.7655097" cy="2" r="2"></circle>
            <circle id="Oval-Copy-22" fill="url(#linearGradient-1)" cx="7" cy="14" r="2"></circle>
            <circle id="Oval-Copy-23" fill="url(#linearGradient-2)" cx="2" cy="19" r="2"></circle>
        </g>
        <path d="M20.9768482,12.2697414 L30.183955,21.4768482 L24.1985582,21.4768482 C24.2245272,24.4050801 24.4814772,26.7361677 24.9776894,28.4686521 C25.4858179,30.2427411 26.2221817,31.6489366 27.2005464,32.6787734 L27.2005464,32.6787734 L29.2735117,34.8607982 L26.6063743,33.466239 C23.8501456,32.0250969 21.6321784,30.2541622 19.948277,28.1583854 C18.3385914,26.1549772 17.4847042,23.9273854 17.3830269,21.4768482 L17.3830269,21.4768482 L11.7697414,21.4768482 L20.9768482,12.2697414 Z" id="Fill-22" stroke="#FFFFFF" fill="url(#linearGradient-3)" transform="translate(20.976848, 23.000000) rotate(-270.000000) translate(-20.976848, -23.000000) "></path>
    </g>
</svg>