<?xml version="1.0" encoding="UTF-8"?>
<svg width="16px" height="16px" viewBox="0 0 16 16" version="1.1" xmlns="http://www.w3.org/2000/svg" xmlns:xlink="http://www.w3.org/1999/xlink">
    <title>csv_transformer_16x16</title>
    <defs>
        <linearGradient x1="8.63266964%" y1="40.7107749%" x2="71.6826759%" y2="62.5%" id="linearGradient-1">
            <stop stop-color="#1AAAFF" offset="0%"></stop>
            <stop stop-color="#0077BE" offset="100%"></stop>
        </linearGradient>
        <linearGradient x1="25.5187587%" y1="51.1836399%" x2="93.2424503%" y2="48.8631098%" id="linearGradient-2">
            <stop stop-color="#D53B3B" offset="0%"></stop>
            <stop stop-color="#FF7C7D" offset="100%"></stop>
        </linearGradient>
        <linearGradient x1="25.5187587%" y1="52.6164961%" x2="93.2424503%" y2="47.4868464%" id="linearGradient-3">
            <stop stop-color="#D53B3B" offset="0%"></stop>
            <stop stop-color="#FF7C7D" offset="100%"></stop>
        </linearGradient>
        <linearGradient x1="96.32333%" y1="51.3888889%" x2="4.98693793%" y2="48.6111111%" id="linearGradient-4">
            <stop stop-color="#1AAAFF" offset="0%"></stop>
            <stop stop-color="#0077BE" offset="100%"></stop>
        </linearGradient>
        <linearGradient x1="96.32333%" y1="53.0702094%" x2="4.98693793%" y2="46.9297906%" id="linearGradient-5">
            <stop stop-color="#1AAAFF" offset="0%"></stop>
            <stop stop-color="#0077BE" offset="100%"></stop>
        </linearGradient>
    </defs>
    <g id="csv_transformer_16x16" stroke="none" stroke-width="1" fill="none" fill-rule="evenodd">
        <g id="Group-Copy">
            <rect id="Rectangle-Copy-7" fill="url(#linearGradient-1)" x="0" y="0" width="16" height="8" rx="2"></rect>
            <path d="M3.25585938,1.34228516 C3.89160474,1.34228516 4.38492663,1.50976395 4.73583984,1.84472656 C5.08675306,2.17968917 5.28157533,2.56021922 5.3203125,2.98632812 L4.65722656,2.98632812 C4.58203087,2.6627588 4.43221141,2.40641371 4.20776367,2.21728516 C3.98331594,2.02815661 3.6682963,1.93359375 3.26269531,1.93359375 C2.76822669,1.93359375 2.36889801,2.10733876 2.06469727,2.45483398 C1.76049653,2.80232921 1.60839844,3.33495735 1.60839844,4.05273438 C1.60839844,4.64062794 1.74568548,5.11742981 2.02026367,5.4831543 C2.29484187,5.84887878 2.70442436,6.03173828 3.24902344,6.03173828 C3.75032803,6.03173828 4.13199739,5.83919463 4.39404297,5.45410156 C4.53304106,5.25130107 4.63671841,4.98470217 4.70507812,4.65429688 L5.36816406,4.65429688 C5.30891897,5.18294535 5.11295739,5.62613753 4.78027344,5.98388672 C4.38150842,6.41455293 3.84375338,6.62988281 3.16699219,6.62988281 C2.58365594,6.62988281 2.09375198,6.45328953 1.69726562,6.10009766 C1.17545312,5.63297292 0.914550781,4.91178873 0.914550781,3.93652344 C0.914550781,3.19595984 1.11051236,2.5887068 1.50244141,2.11474609 C1.92627165,1.59976956 2.51073846,1.34228516 3.25585938,1.34228516 Z M6.63964844,4.87988281 C6.65559904,5.16471497 6.72281842,5.39599521 6.84130859,5.57373047 C7.06689566,5.90641442 7.46451538,6.07275391 8.03417969,6.07275391 C8.2893893,6.07275391 8.52180885,6.03629594 8.73144531,5.96337891 C9.1370463,5.82210216 9.33984375,5.569175 9.33984375,5.20458984 C9.33984375,4.93115098 9.25439539,4.73632871 9.08349609,4.62011719 C8.91031814,4.50618433 8.639162,4.40706422 8.27001953,4.32275391 L7.58984375,4.16894531 C7.14550559,4.06868439 6.83105561,3.95817118 6.64648437,3.83740234 C6.32747236,3.62776588 6.16796875,3.31445521 6.16796875,2.89746094 C6.16796875,2.44628681 6.32405443,2.07601056 6.63623047,1.78662109 C6.94840651,1.49723163 7.39045938,1.35253906 7.96240234,1.35253906 C8.48877216,1.35253906 8.93595194,1.4795723 9.30395508,1.73364258 C9.67195822,1.98771286 9.85595703,2.39387742 9.85595703,2.95214844 L9.21679688,2.95214844 C9.18261702,2.68326688 9.10970108,2.4770515 8.99804688,2.33349609 C8.79068907,2.07145051 8.43864181,1.94042969 7.94189453,1.94042969 C7.54085086,1.94042969 7.25260504,2.02473874 7.07714844,2.19335938 C6.90169183,2.36198001 6.81396484,2.55794159 6.81396484,2.78125 C6.81396484,3.02734498 6.91650288,3.2073562 7.12158203,3.32128906 C7.25602281,3.39420609 7.56021898,3.48535102 8.03417969,3.59472656 L8.73828125,3.75537109 C9.07780118,3.83284544 9.33984283,3.93880141 9.52441406,4.07324219 C9.84342607,4.30794388 10.0029297,4.64859803 10.0029297,5.09521484 C10.0029297,5.65120721 9.80070189,6.04882693 9.39624023,6.28808594 C8.99177858,6.52734495 8.52181257,6.64697266 7.98632812,6.64697266 C7.36197604,6.64697266 6.8732114,6.48746904 6.52001953,6.16845703 C6.16682766,5.85172368 5.99365231,5.42220323 6.00048828,4.87988281 L6.63964844,4.87988281 Z M11.2607422,1.47900391 L12.703125,5.75488281 L14.128418,1.47900391 L14.890625,1.47900391 L13.0585938,6.5 L12.3374023,6.5 L10.5087891,1.47900391 L11.2607422,1.47900391 Z" id="CSV" fill="#FFFFFF" fill-rule="nonzero"></path>
        </g>
        <g id="Group-2" transform="translate(9.000000, 8.500000)">
            <rect id="Rectangle" fill="url(#linearGradient-2)" x="0" y="3" width="6" height="1" rx="0.5"></rect>
            <rect id="Rectangle" fill="url(#linearGradient-3)" transform="translate(4.426777, 4.573223) rotate(-45.000000) translate(-4.426777, -4.573223) " x="2.40900974" y="4.0732233" width="4.03553391" height="1" rx="0.5"></rect>
            <rect id="Rectangle" fill="url(#linearGradient-3)" transform="translate(4.426777, 2.426777) rotate(-315.000000) translate(-4.426777, -2.426777) " x="2.40900974" y="1.9267767" width="4.03553391" height="1" rx="0.5"></rect>
        </g>
        <g id="Group-2" transform="translate(3.500000, 12.000000) rotate(-180.000000) translate(-3.500000, -12.000000) translate(0.000000, 8.500000)">
            <rect id="Rectangle" fill="url(#linearGradient-4)" x="0" y="3" width="6" height="1" rx="0.5"></rect>
            <rect id="Rectangle" fill="url(#linearGradient-5)" transform="translate(4.426777, 4.573223) rotate(-45.000000) translate(-4.426777, -4.573223) " x="2.40900974" y="4.0732233" width="4.03553391" height="1" rx="0.5"></rect>
            <rect id="Rectangle" fill="url(#linearGradient-5)" transform="translate(4.426777, 2.426777) rotate(-315.000000) translate(-4.426777, -2.426777) " x="2.40900974" y="1.9267767" width="4.03553391" height="1" rx="0.5"></rect>
        </g>
    </g>
</svg>