<?xml version="1.0" encoding="UTF-8"?>
<svg width="32px" height="32px" viewBox="0 0 32 32" version="1.1" xmlns="http://www.w3.org/2000/svg" xmlns:xlink="http://www.w3.org/1999/xlink">
    <title>csv_transformer_32x32</title>
    <defs>
        <linearGradient x1="20.7438983%" y1="37.5%" x2="61.5561413%" y2="62.5%" id="linearGradient-1">
            <stop stop-color="#1AAAFF" offset="0%"></stop>
            <stop stop-color="#0077BE" offset="100%"></stop>
        </linearGradient>
        <linearGradient x1="25.5187587%" y1="50.869613%" x2="93.2424503%" y2="49.1647337%" id="linearGradient-2">
            <stop stop-color="#D53B3B" offset="0%"></stop>
            <stop stop-color="#FF7C7D" offset="100%"></stop>
        </linearGradient>
        <linearGradient x1="25.5187587%" y1="52.6164961%" x2="93.2424503%" y2="47.4868464%" id="linearGradient-3">
            <stop stop-color="#D53B3B" offset="0%"></stop>
            <stop stop-color="#FF7C7D" offset="100%"></stop>
        </linearGradient>
        <linearGradient x1="96.32333%" y1="51.0204082%" x2="4.98693793%" y2="48.9795918%" id="linearGradient-4">
            <stop stop-color="#1AAAFF" offset="0%"></stop>
            <stop stop-color="#0077BE" offset="100%"></stop>
        </linearGradient>
        <linearGradient x1="96.32333%" y1="53.0702094%" x2="4.98693793%" y2="46.9297906%" id="linearGradient-5">
            <stop stop-color="#1AAAFF" offset="0%"></stop>
            <stop stop-color="#0077BE" offset="100%"></stop>
        </linearGradient>
    </defs>
    <g id="csv_transformer_32x32" stroke="none" stroke-width="1" fill="none" fill-rule="evenodd">
        <rect id="Rectangle-Copy-7" stroke="#0077BE" fill="#FFFFFF" x="5.5" y="2.5" width="23" height="27" rx="2"></rect>
        <g id="Group" transform="translate(1.000000, 6.005505)">
            <rect id="Rectangle-Copy-7" stroke="#FFFFFF" fill="url(#linearGradient-1)" x="-0.5" y="-0.5" width="25" height="13" rx="2"></rect>
            <path d="M4.54492188,2.13593784 C5.54395031,2.13593784 6.31917042,2.3991188 6.87060547,2.92548862 C7.42204052,3.45185844 7.7281898,4.04983423 7.7890625,4.71943393 L6.74707031,4.71943393 C6.62890566,4.21096785 6.39347507,3.80813984 6.04077148,3.51093784 C5.6880679,3.21373583 5.19303704,3.06513706 4.55566406,3.06513706 C3.77864195,3.06513706 3.15112544,3.33816493 2.6730957,3.88422885 C2.19506597,4.43029278 1.95605469,5.26727985 1.95605469,6.39521518 C1.95605469,7.31904793 2.17179146,8.06830801 2.60327148,8.64301792 C3.03475151,9.21772782 3.67838114,9.50507846 4.53417969,9.50507846 C5.32194404,9.50507846 5.92171018,9.20250987 6.33349609,8.59736362 C6.55192167,8.27867713 6.71484321,7.85973601 6.82226562,7.34052768 L7.86425781,7.34052768 C7.77115839,8.171261 7.46321876,8.86770586 6.94042969,9.42988315 C6.31379895,10.1066443 5.46875532,10.4450199 4.40527344,10.4450199 C3.48860219,10.4450199 2.71875312,10.1675161 2.09570312,9.61250034 C1.27571205,8.87844719 0.865722656,7.74515774 0.865722656,6.21259799 C0.865722656,5.0488552 1.17366229,4.09460042 1.78955078,3.34980503 C2.45556974,2.54055619 3.37401758,2.13593784 4.54492188,2.13593784 Z M9.86230469,7.69501987 C9.88736992,8.14261325 9.99300037,8.50605363 10.1791992,8.7853519 C10.5336932,9.30814097 11.1585242,9.56953159 12.0537109,9.56953159 C12.4547546,9.56953159 12.8199853,9.51224049 13.1494141,9.39765659 C13.786787,9.17565027 14.1054688,8.77819331 14.1054688,8.20527378 C14.1054688,7.77558413 13.9711927,7.46943484 13.7026367,7.28681674 C13.4304999,7.10777939 13.0043974,6.95201923 12.4243164,6.81953159 L11.3554688,6.57783237 C10.6572231,6.4202795 10.1630874,6.24661587 9.87304688,6.05683628 C9.37174229,5.72740754 9.12109375,5.23506221 9.12109375,4.57978549 C9.12109375,3.87079757 9.36637125,3.2889349 9.85693359,2.83418003 C10.3474959,2.37942515 11.0421505,2.15205112 11.940918,2.15205112 C12.7680705,2.15205112 13.4707816,2.35167477 14.0490723,2.75092807 C14.6273629,3.15018137 14.9165039,3.78843996 14.9165039,4.66572299 L13.9121094,4.66572299 C13.8583982,4.24319484 13.743816,3.91914209 13.5683594,3.69355503 C13.2425114,3.28176911 12.6892943,3.07587924 11.9086914,3.07587924 C11.2784799,3.07587924 10.8255222,3.2083649 10.5498047,3.47334018 C10.2740872,3.73831546 10.1362305,4.04625509 10.1362305,4.39716831 C10.1362305,4.78388899 10.2973617,5.06676377 10.6196289,5.24580112 C10.830893,5.36038503 11.3089155,5.50361276 12.0537109,5.67548862 L13.1601562,5.92793003 C13.6936876,6.04967543 14.1054673,6.21617767 14.3955078,6.42744174 C14.8968124,6.79625869 15.1474609,7.33157235 15.1474609,8.03339878 C15.1474609,8.90710106 14.8296744,9.53193205 14.1940918,9.90791049 C13.5585092,10.2838889 12.8199912,10.4718753 11.9785156,10.4718753 C10.9973909,10.4718753 10.2293322,10.2212268 9.67431641,9.71992221 C9.11930061,9.22219837 8.84716792,8.54723767 8.85791016,7.69501987 L9.86230469,7.69501987 Z M17.1240234,2.35078159 L19.390625,9.07001987 L21.6303711,2.35078159 L22.828125,2.35078159 L19.9492188,10.2409183 L18.815918,10.2409183 L15.9423828,2.35078159 L17.1240234,2.35078159 Z" id="CSV" fill="#FFFFFF" fill-rule="nonzero"></path>
        </g>
        <g id="Group-2" transform="translate(18.000000, 20.000000)">
            <rect id="Rectangle" fill="url(#linearGradient-2)" x="0" y="3" width="7" height="1" rx="0.5"></rect>
            <rect id="Rectangle" fill="url(#linearGradient-3)" transform="translate(5.426777, 4.573223) rotate(-45.000000) translate(-5.426777, -4.573223) " x="3.40900974" y="4.0732233" width="4.03553391" height="1" rx="0.5"></rect>
            <rect id="Rectangle" fill="url(#linearGradient-3)" transform="translate(5.426777, 2.426777) rotate(-315.000000) translate(-5.426777, -2.426777) " x="3.40900974" y="1.9267767" width="4.03553391" height="1" rx="0.5"></rect>
        </g>
        <g id="Group-2" transform="translate(12.000000, 23.500000) rotate(-180.000000) translate(-12.000000, -23.500000) translate(8.000000, 20.000000)">
            <rect id="Rectangle" fill="url(#linearGradient-4)" x="0" y="3" width="7" height="1" rx="0.5"></rect>
            <rect id="Rectangle" fill="url(#linearGradient-5)" transform="translate(5.426777, 4.573223) rotate(-45.000000) translate(-5.426777, -4.573223) " x="3.40900974" y="4.0732233" width="4.03553391" height="1" rx="0.5"></rect>
            <rect id="Rectangle" fill="url(#linearGradient-5)" transform="translate(5.426777, 2.426777) rotate(-315.000000) translate(-5.426777, -2.426777) " x="3.40900974" y="1.9267767" width="4.03553391" height="1" rx="0.5"></rect>
        </g>
    </g>
</svg>