<?xml version="1.0" encoding="UTF-8"?>
<svg width="16px" height="16px" viewBox="0 0 16 16" version="1.1" xmlns="http://www.w3.org/2000/svg" xmlns:xlink="http://www.w3.org/1999/xlink">
    <title>curve_filter_16x16</title>
    <defs>
        <linearGradient x1="50%" y1="0%" x2="50%" y2="100%" id="linearGradient-1">
            <stop stop-color="#F99D9D" offset="0%"></stop>
            <stop stop-color="#F16464" offset="100%"></stop>
        </linearGradient>
        <linearGradient x1="50%" y1="0%" x2="50%" y2="100%" id="linearGradient-2">
            <stop stop-color="#F99D9D" offset="0%"></stop>
            <stop stop-color="#F16464" offset="100%"></stop>
        </linearGradient>
        <linearGradient x1="60.0611435%" y1="15.6593998%" x2="40.3107348%" y2="90.579711%" id="linearGradient-3">
            <stop stop-color="#1AAAFF" offset="0%"></stop>
            <stop stop-color="#0077BE" offset="100%"></stop>
        </linearGradient>
    </defs>
    <g id="curve_filter_16x16" stroke="none" stroke-width="1" fill="none" fill-rule="evenodd">
        <g id="Group-2" transform="translate(7.000000, 7.500000)">
            <path d="M1.3,0 L7.7,0 C8.25228475,-1.01453063e-16 8.7,0.44771525 8.7,1 L8.7,1.2 L8.7,1.2 L0.3,1.2 L0.3,1 C0.3,0.44771525 0.74771525,1.01453063e-16 1.3,0 Z" id="Rectangle" fill="url(#linearGradient-1)"></path>
            <polygon id="Rectangle" fill="url(#linearGradient-2)" points="0.3 1.2 8.7 1.2 5.7 4.56 5.7 6.6 3.3 8.4 3.3 4.56"></polygon>
        </g>
        <g id="Group" transform="translate(1.000000, 0.000000)">
            <path d="M2.72727273,0.5 C5.90909091,1.05000234 7.5,2.41363871 7.5,4.59090909 C7.5,9.16493955 3.10862447e-15,7.99289056 3.10862447e-15,12.0766836 C3.10862447e-15,13.6770764 0.909090909,14.8181818 2.72727273,15.5 L2.72727273,0.5 Z" id="Rectangle" fill="url(#linearGradient-3)"></path>
            <rect id="Rectangle-7-Copy-8" fill="#0077BE" x="2.5" y="0" width="1" height="16" rx="0.5"></rect>
        </g>
    </g>
</svg>