<?xml version="1.0" encoding="UTF-8"?>
<svg width="32px" height="32px" viewBox="0 0 32 32" version="1.1" xmlns="http://www.w3.org/2000/svg" xmlns:xlink="http://www.w3.org/1999/xlink">
    <title>curve_compare_32x32</title>
    <defs>
        <linearGradient x1="86.6387387%" y1="100%" x2="86.6387387%" y2="15.7327756%" id="linearGradient-1">
            <stop stop-color="#F99D9D" stop-opacity="0" offset="0%"></stop>
            <stop stop-color="#F16464" offset="100%"></stop>
        </linearGradient>
        <linearGradient x1="61.0009387%" y1="15.6593998%" x2="39.4056762%" y2="90.579711%" id="linearGradient-2">
            <stop stop-color="#1AAAFF" offset="0%"></stop>
            <stop stop-color="#0077BE" offset="100%"></stop>
        </linearGradient>
    </defs>
    <g id="curve_compare_32x32" stroke="none" stroke-width="1" fill="none" fill-rule="evenodd">
        <rect id="Rectangle" fill="#FFFFFF" x="18.5" y="7.5" width="1" height="17"></rect>
        <rect id="Rectangle-Copy-2" fill="#FFFFFF" x="12.5" y="9.5" width="1" height="18"></rect>
        <g id="Group-2-Copy" transform="translate(11.008650, 23.508802) rotate(-269.729720) translate(-11.008650, -23.508802) translate(6.508650, 18.008802)">
            <polygon id="Fill-22" fill="#F16464" transform="translate(4.503021, 8.006327) rotate(-180.000000) translate(-4.503021, -8.006327) " points="4.50302069 6.00632728 0.502976179 10.0063273 8.50306519 10.0063273"></polygon>
            <polygon id="Fill-21" fill="url(#linearGradient-1)" transform="translate(4.484165, 3.509888) rotate(-180.000000) translate(-4.484165, -3.509888) " points="2.98179287 7.0110891 5.98653789 7.0110891 5.98653789 0.00868591441 2.98179287 0.00868591441"></polygon>
        </g>
        <g id="Group" transform="translate(0.487484, 5.000000)">
            <path d="M4.36363636,1.32446987 C9.45454545,2.16604583 12,4.25258891 12,7.5840991 C12,14.5829676 2.84217094e-14,12.7895784 2.84217094e-14,19.0383192 C2.84217094e-14,21.4871307 1.45454545,23.2331722 4.36363636,24.2764437 L4.36363636,1.32446987 Z" id="Rectangle" fill="url(#linearGradient-2)"></path>
            <rect id="Rectangle-7-Copy-8" fill="#0077BE" x="4" y="0.295700281" width="1" height="25" rx="0.5"></rect>
        </g>
        <g id="Group" transform="translate(19.500000, 1.000000)">
            <path d="M4.36363636,1.32446987 C9.45454545,2.16604583 12,4.25258891 12,7.5840991 C12,14.5829676 2.84217094e-14,12.7895784 2.84217094e-14,19.0383192 C2.84217094e-14,21.4871307 1.45454545,23.2331722 4.36363636,24.2764437 L4.36363636,1.32446987 Z" id="Rectangle" fill="url(#linearGradient-2)"></path>
            <rect id="Rectangle-7-Copy-8" fill="#0077BE" x="4" y="0.295700281" width="1" height="25" rx="0.5"></rect>
        </g>
        <g id="Group-2-Copy" transform="translate(18.000000, 8.500000) rotate(-90.000000) translate(-18.000000, -8.500000) translate(13.500000, 3.000000)">
            <polygon id="Fill-22" fill="#F16464" transform="translate(4.503021, 8.006327) rotate(-180.000000) translate(-4.503021, -8.006327) " points="4.50302069 6.00632728 0.502976179 10.0063273 8.50306519 10.0063273"></polygon>
            <polygon id="Fill-21" fill="url(#linearGradient-1)" transform="translate(4.484165, 3.509888) rotate(-180.000000) translate(-4.484165, -3.509888) " points="2.98179287 7.0110891 5.98653789 7.0110891 5.98653789 0.00868591441 2.98179287 0.00868591441"></polygon>
        </g>
    </g>
</svg>