<?xml version="1.0" encoding="UTF-8"?>
<svg width="16px" height="16px" viewBox="0 0 16 16" version="1.1" xmlns="http://www.w3.org/2000/svg" xmlns:xlink="http://www.w3.org/1999/xlink">
    <title>curve_splitting_16x16</title>
    <defs>
        <linearGradient x1="60.0611435%" y1="15.6593998%" x2="40.3107348%" y2="90.579711%" id="linearGradient-1">
            <stop stop-color="#1AAAFF" offset="0%"></stop>
            <stop stop-color="#0077BE" offset="100%"></stop>
        </linearGradient>
    </defs>
    <g id="curve_splitting_16x16" stroke="none" stroke-width="1" fill="none" fill-rule="evenodd">
        <g id="Group" transform="translate(1.000000, 0.000000)">
            <path d="M2.72727273,0.5 C5.90909091,1.05000234 7.5,2.41363871 7.5,4.59090909 C7.5,9.16493955 3.10862447e-15,7.99289056 3.10862447e-15,12.0766836 C3.10862447e-15,13.6770764 0.909090909,14.8181818 2.72727273,15.5 L2.72727273,0.5 Z" id="Rectangle" fill="url(#linearGradient-1)"></path>
            <rect id="Rectangle-7-Copy-8" fill="#0077BE" x="2.5" y="0" width="1" height="16" rx="0.5"></rect>
        </g>
        <g id="cut-with-scissors" transform="translate(10.000000, 12.000000) scale(-1, 1) translate(-10.000000, -12.000000) translate(4.500000, 8.000000)">
            <path d="M9.38651154,1.78961538 C9.38651154,1.78961538 8.80814423,1.26542308 8.32061154,1.55776923 C7.94521538,1.78496154 5.56060577,3.04446154 4.49671538,3.60546154 L2.99030769,2.69880769 C3.15389038,2.39376923 3.18122115,2.04092308 3.0932,1.70076923 C2.98186731,1.27092308 2.68725769,0.8635 2.25237692,0.601615385 C1.47063654,0.129884615 0.530940385,0.309269231 0.155946154,1.00226923 C-0.0112538462,1.30815385 -0.0385846154,1.66353846 0.0490346154,2.00623077 C0.160367308,2.43607692 0.454976923,2.84392308 0.889857692,3.10707692 C1.08197692,3.22130769 1.28213462,3.29703846 1.48108654,3.33596154 L1.48108654,3.33638462 C1.48269423,3.33680769 1.48430192,3.33680769 1.48590962,3.33765385 C1.50158462,3.34019231 1.51967115,3.344 1.53695385,3.34611538 C2.77728846,3.54030769 3.41152308,3.90880769 3.71939615,4.16857692 C3.41152308,4.42919231 2.77728846,4.79684615 1.53695385,4.99146154 C1.51967115,4.99357692 1.50158462,4.99696154 1.48590962,4.9995 C1.48430192,5.00034615 1.48269423,5.00034615 1.48108654,5.00119231 L1.48108654,5.00119231 C1.28253654,5.04011538 1.08237885,5.11584615 0.889857692,5.2305 C0.454976923,5.49365385 0.160769231,5.90107692 0.0490346154,6.33134615 C-0.0389865385,6.67319231 -0.0112538462,7.02857692 0.155946154,7.33615385 C0.531342308,8.02788462 1.47063654,8.20811538 2.25277885,7.73638462 C2.68765962,7.47365385 2.98186731,7.06623077 3.09360192,6.63553846 C3.18162308,6.29580769 3.15389038,5.94380769 2.99070962,5.63834615 L4.49711731,4.73211538 C5.56060577,5.29269231 7.94561731,6.55346154 8.32101346,6.77938462 C8.80854615,7.07173077 9.38691346,6.54796154 9.38691346,6.54796154 L5.43279423,4.16857692 L9.38651154,1.78961538 Z M2.34843654,2.32142308 C2.17721731,2.63534615 1.677225,2.68653846 1.25641154,2.43311538 C1.00922885,2.28503846 0.823138462,2.04896154 0.759634615,1.80357692 C0.731901923,1.694 0.713815385,1.53365385 0.795003846,1.38684615 C0.965419231,1.07334615 1.46541154,1.02215385 1.886225,1.27515385 C2.13742692,1.42534615 2.31789038,1.65507692 2.38219808,1.90469231 C2.41113654,2.013 2.42761538,2.17419231 2.34843654,2.32142308 Z M2.38219808,6.43203846 C2.31789038,6.68207692 2.13742692,6.91138462 1.886225,7.062 C1.46541154,7.31584615 0.965419231,7.26423077 0.795003846,6.94988462 C0.714217308,6.80265385 0.732303846,6.64273077 0.759634615,6.53442308 C0.823138462,6.28819231 1.00922885,6.05211538 1.25641154,5.90319231 C1.677225,5.65019231 2.17721731,5.70138462 2.34843654,6.01573077 C2.42761538,6.16380769 2.41113654,6.32373077 2.38219808,6.43203846 Z" id="Shape" fill="#0077BE" fill-rule="nonzero"></path>
            <rect id="Rectangle" fill="#F16464" x="6.37610769" y="3.96296154" width="1" height="1" rx="0.304923"></rect>
            <rect id="Rectangle" fill="#F16464" x="7.82865769" y="3.96296154" width="1" height="1" rx="0.304923"></rect>
            <rect id="Rectangle" fill="#F16464" x="9.36561154" y="3.95873077" width="1" height="1" rx="0.304923"></rect>
        </g>
    </g>
</svg>