<?xml version="1.0" encoding="UTF-8"?>
<svg width="16px" height="16px" viewBox="0 0 16 16" version="1.1" xmlns="http://www.w3.org/2000/svg" xmlns:xlink="http://www.w3.org/1999/xlink">
    <title>curve_fill_data_gaps_16x16</title>
    <g id="curve_fill_data_gaps_16x16" stroke="none" stroke-width="1" fill="none" fill-rule="evenodd">
        <g id="ic_format_color_fill_48px" fill="#F16464" fill-rule="nonzero">
            <path d="M7.96181131,5.24915878 L2.71265253,0 L1.8818293,0.83082323 L3.27925635,2.22825029 L0.25834786,5.24915878 C-0.0851373628,5.59264401 -0.0851373628,6.15044052 0.25834786,6.49392574 L3.4876961,9.72327399 C3.65797083,9.89648448 3.88402521,9.98162185 4.11007958,9.98162185 C4.33613396,9.98162185 4.56218834,9.89648448 4.73246306,9.72327399 L7.96181131,6.49392574 C8.30529653,6.15044052 8.30529653,5.59264401 7.96181131,5.24915878 L7.96181131,5.24915878 Z M1.29467507,5.87154226 L4.11007958,3.05907352 L6.9254841,5.87154226 L1.29467507,5.87154226 Z M9.39446762,6.7522736 C9.39446762,6.7522736 8.22015917,8.0234625 8.22015917,8.8073134 C8.22015917,9.45611882 8.7456622,9.98162185 9.39446762,9.98162185 C10.043273,9.98162185 10.5687761,9.45611882 10.5687761,8.8073134 C10.5687761,8.0234625 9.39446762,6.7522736 9.39446762,6.7522736 Z" id="Shape"></path>
        </g>
        <g id="Group-2-Copy-4" transform="translate(11.000000, -4.000000)">
            <path d="M3.76344401,5.42086398 C4.16344401,5.82086398 4.46344401,6.32086398 4.46344401,6.92086398 L4.46344401,7.02086398 L3.46344401,7.02086398 C3.46344401,7.02086398 3.46344401,6.92086398 3.46344401,6.92086398 C3.46344401,6.42086398 2.96344401,5.92086398 2.46344401,5.92086398 C1.96344401,5.92086398 1.46344401,5.72086398 1.16344401,5.42086398 C0.763444011,5.02086398 0.463444011,4.52086398 0.463444011,3.92086398 C0.463444011,3.32086398 0.763444011,2.82086398 1.16344401,2.42086398 C1.46344401,2.12086398 1.96344401,1.92086398 2.46344401,1.92086398 C2.96344401,1.92086398 3.43581353,1.67451534 3.46344401,1.02086398 C3.49107449,0.367212622 4.46344401,0.409389909 4.46344401,1.02086398 C4.46344401,1.63233805 4.16344401,2.12086398 3.76344401,2.42086398 C3.46344401,2.72086398 2.96344401,2.92086398 2.46344401,2.92086398 C1.96344401,2.92086398 1.46344401,3.42086398 1.46344401,3.92086398 C1.46344401,4.42086398 1.96344401,4.92086398 2.46344401,4.92086398 C2.96344401,4.92086398 3.46344401,5.12086398 3.76344401,5.42086398 Z" id="Path" fill="#0077BE"></path>
            <path d="M3.76344401,17.420864 C4.16344401,17.820864 4.46344401,18.320864 4.46344401,18.920864 L4.46344401,19.020864 L3.46344401,19.020864 C3.46344401,19.020864 3.46344401,18.920864 3.46344401,18.920864 C3.46344401,18.420864 2.96344401,17.920864 2.46344401,17.920864 C1.96344401,17.920864 1.46344401,17.720864 1.16344401,17.420864 C0.763444011,17.020864 0.463444011,16.520864 0.463444011,15.920864 C0.463444011,15.320864 0.763444011,14.820864 1.16344401,14.420864 C1.46344401,14.120864 1.96344401,13.920864 2.46344401,13.920864 C2.96344401,13.920864 3.46344401,13.420864 3.46344401,13.020864 L4.46344401,13.020864 C4.46344401,13.620864 4.16344401,14.120864 3.76344401,14.420864 C3.46344401,14.720864 2.96344401,14.920864 2.46344401,14.920864 C1.96344401,14.920864 1.46344401,15.420864 1.46344401,15.920864 C1.46344401,16.420864 1.96344401,16.920864 2.46344401,16.920864 C2.96344401,16.920864 3.46344401,17.120864 3.76344401,17.420864 Z" id="Path" fill="#F16464"></path>
            <path d="M0.463444011,21.920864 C0.463444011,21.320864 0.763444011,20.820864 1.16344401,20.420864 C1.46344401,20.120864 1.96344401,19.920864 2.46344401,19.920864 C2.96344401,19.920864 3.46344401,19.420864 3.46344401,19.020864 L4.46344401,19.020864 C4.46344401,19.620864 4.16344401,20.120864 3.76344401,20.420864 C3.46344401,20.720864 2.96344401,20.920864 2.46344401,20.920864 C1.96344401,20.920864 1.46344401,21.420864 1.46344401,21.920864 C1.46344401,22.420864 0.463444011,22.520864 0.463444011,21.920864 Z" id="Path" fill="#F16464"></path>
            <path d="M3.76344401,11.420864 C4.16344401,11.820864 4.46344401,12.320864 4.46344401,12.920864 L4.46344401,13.020864 L3.46344401,13.020864 C3.46344401,13.020864 3.46344401,12.920864 3.46344401,12.920864 C3.46344401,12.420864 2.96344401,11.920864 2.46344401,11.920864 C1.96344401,11.920864 1.46344401,11.720864 1.16344401,11.420864 C0.763444011,11.020864 0.463444011,10.520864 0.463444011,9.92086398 C0.463444011,9.32086398 0.763444011,8.82086398 1.16344401,8.42086398 C1.46344401,8.12086398 1.96344401,7.92086398 2.46344401,7.92086398 C2.96344401,7.92086398 3.46344401,7.42086398 3.46344401,7.02086398 L4.46344401,7.02086398 C4.46344401,7.62086398 4.16344401,8.12086398 3.76344401,8.42086398 C3.46344401,8.72086398 2.96344401,8.92086398 2.46344401,8.92086398 C1.96344401,8.92086398 1.46344401,9.42086398 1.46344401,9.92086398 C1.46344401,10.420864 1.96344401,10.920864 2.46344401,10.920864 C2.96344401,10.920864 3.46344401,11.120864 3.76344401,11.420864 Z" id="Path" fill="#F16464"></path>
        </g>
    </g>
</svg>