<?xml version="1.0" encoding="UTF-8"?>
<svg width="16px" height="16px" viewBox="0 0 16 16" version="1.1" xmlns="http://www.w3.org/2000/svg" xmlns:xlink="http://www.w3.org/1999/xlink">
    <title>curve_data_16x16</title>
    <g id="curve_data_16x16" stroke="none" stroke-width="1" fill="none" fill-rule="evenodd">
        <g id="Group">
            <g id="Group-2" stroke="#0077BE">
                <rect id="Rectangle-7-Copy" x="0.5" y="0.5" width="12" height="4" rx="1"></rect>
                <rect id="Rectangle-7-Copy" x="0.5" y="2.5" width="12" height="2" rx="1"></rect>
                <path d="M14,4.5 C14.4142136,4.5 14.7892136,4.66789322 15.0606602,4.93933983 C15.3321068,5.21078644 15.5,5.58578644 15.5,6 L15.5,6 L15.5,14 C15.5,14.4142136 15.3321068,14.7892136 15.0606602,15.0606602 C14.7892136,15.3321068 14.4142136,15.5 14,15.5 L14,15.5 L2,15.5 C1.58578644,15.5 1.21078644,15.3321068 0.939339828,15.0606602 C0.667893219,14.7892136 0.5,14.4142136 0.5,14 L0.5,14 L0.5,4.5 Z" id="Rectangle-7-Copy-10"></path>
            </g>
            <g id="Group-3" transform="translate(3.000000, 4.500000)" fill="#0077BE">
                <path d="M3.40805127,1.99433615 C3.83175092,2.36838664 4.02472799,2.82002278 4.02472799,3.4028604 L4.02472799,3.5 L3.02472799,3.5 C3.02472799,3.5 3.02472799,3.4028604 3.02472799,3.4028604 C3.02472799,2.91716238 2.52472799,2.43146436 2.02472799,2.43146436 C1.52472799,2.43146436 1.06007269,2.21446285 0.724727994,1.94576634 C0.320613437,1.62196767 0.087280104,1.13626965 0.0247279944,0.488672291 L1.02472799,0.488672291 C1.12021427,1.08606542 1.45354761,1.4098641 2.02472799,1.46006833 C2.88149858,1.53537466 3.10805127,1.72949017 3.40805127,1.99433615 Z" id="Path"></path>
                <path d="M3.40805127,5.00566385 C3.83175092,5.37971435 4.02472799,5.83135048 4.02472799,6.41418811 L4.02472799,6.51132771 L3.02472799,6.51132771 C3.02472799,6.51132771 3.02472799,6.41418811 3.02472799,6.41418811 C3.02472799,5.92849009 2.52472799,5.44279207 2.02472799,5.44279207 C1.52472799,5.44279207 1.06007269,5.22579056 0.724727994,4.95709405 C0.320613437,4.63329537 0.087280104,4.14759736 0.0247279944,3.5 L1.02472799,3.5 C1.12021427,4.09739313 1.45354761,4.42119181 2.02472799,4.47139604 C2.88149858,4.54670237 3.10805127,4.74081788 3.40805127,5.00566385 Z" id="Path" transform="translate(2.024728, 5.005664) scale(-1, 1) translate(-2.024728, -5.005664) "></path>
                <path d="M3.40805127,11.0056639 C3.83175092,11.3797143 4.02472799,11.8313505 4.02472799,12.4141881 L4.02472799,12.5113277 L3.02472799,12.5113277 C3.02472799,12.5113277 3.02472799,12.4141881 3.02472799,12.4141881 C3.02472799,11.9284901 2.52472799,11.4427921 2.02472799,11.4427921 C1.52472799,11.4427921 1.06007269,11.2257906 0.724727994,10.9570941 C0.320613437,10.6332954 0.087280104,10.1475974 0.0247279944,9.5 L1.02472799,9.5 C1.12021427,10.0973931 1.45354761,10.4211918 2.02472799,10.471396 C2.88149858,10.5467024 3.10805127,10.7408179 3.40805127,11.0056639 Z" id="Path" transform="translate(2.024728, 11.005664) scale(-1, 1) translate(-2.024728, -11.005664) "></path>
                <path d="M3.40805127,8.01578612 C3.83175092,8.38983661 4.02472799,8.84147275 4.02472799,9.42431037 L4.02472799,9.52144997 L3.02472799,9.52144997 C3.02472799,9.52144997 3.02472799,9.42431037 3.02472799,9.42431037 C3.02472799,8.93861235 2.52472799,8.45291433 2.02472799,8.45291433 C1.52472799,8.45291433 1.06007269,8.23591283 0.724727994,7.96721632 C0.320613437,7.64341764 0.087280104,7.15771962 0.0247279944,6.51012226 L1.02472799,6.51012226 C1.12021427,7.1075154 1.45354761,7.43131407 2.02472799,7.4815183 C2.88149858,7.55682464 3.10805127,7.75094014 3.40805127,8.01578612 Z" id="Path"></path>
            </g>
            <g id="Group-3" transform="translate(8.500000, 4.500000)" fill="#0077BE">
                <path d="M3.40805127,1.99433615 C3.83175092,2.36838664 4.02472799,2.82002278 4.02472799,3.4028604 L4.02472799,3.5 L3.02472799,3.5 C3.02472799,3.5 3.02472799,3.4028604 3.02472799,3.4028604 C3.02472799,2.91716238 2.52472799,2.43146436 2.02472799,2.43146436 C1.52472799,2.43146436 1.06007269,2.21446285 0.724727994,1.94576634 C0.320613437,1.62196767 0.087280104,1.13626965 0.0247279944,0.488672291 L1.02472799,0.488672291 C1.12021427,1.08606542 1.45354761,1.4098641 2.02472799,1.46006833 C2.88149858,1.53537466 3.10805127,1.72949017 3.40805127,1.99433615 Z" id="Path"></path>
                <path d="M3.40805127,5.00566385 C3.83175092,5.37971435 4.02472799,5.83135048 4.02472799,6.41418811 L4.02472799,6.51132771 L3.02472799,6.51132771 C3.02472799,6.51132771 3.02472799,6.41418811 3.02472799,6.41418811 C3.02472799,5.92849009 2.52472799,5.44279207 2.02472799,5.44279207 C1.52472799,5.44279207 1.06007269,5.22579056 0.724727994,4.95709405 C0.320613437,4.63329537 0.087280104,4.14759736 0.0247279944,3.5 L1.02472799,3.5 C1.12021427,4.09739313 1.45354761,4.42119181 2.02472799,4.47139604 C2.88149858,4.54670237 3.10805127,4.74081788 3.40805127,5.00566385 Z" id="Path" transform="translate(2.024728, 5.005664) scale(-1, 1) translate(-2.024728, -5.005664) "></path>
                <path d="M3.40805127,11.0056639 C3.83175092,11.3797143 4.02472799,11.8313505 4.02472799,12.4141881 L4.02472799,12.5113277 L3.02472799,12.5113277 C3.02472799,12.5113277 3.02472799,12.4141881 3.02472799,12.4141881 C3.02472799,11.9284901 2.52472799,11.4427921 2.02472799,11.4427921 C1.52472799,11.4427921 1.06007269,11.2257906 0.724727994,10.9570941 C0.320613437,10.6332954 0.087280104,10.1475974 0.0247279944,9.5 L1.02472799,9.5 C1.12021427,10.0973931 1.45354761,10.4211918 2.02472799,10.471396 C2.88149858,10.5467024 3.10805127,10.7408179 3.40805127,11.0056639 Z" id="Path" transform="translate(2.024728, 11.005664) scale(-1, 1) translate(-2.024728, -11.005664) "></path>
                <path d="M3.40805127,8.01578612 C3.83175092,8.38983661 4.02472799,8.84147275 4.02472799,9.42431037 L4.02472799,9.52144997 L3.02472799,9.52144997 C3.02472799,9.52144997 3.02472799,9.42431037 3.02472799,9.42431037 C3.02472799,8.93861235 2.52472799,8.45291433 2.02472799,8.45291433 C1.52472799,8.45291433 1.06007269,8.23591283 0.724727994,7.96721632 C0.320613437,7.64341764 0.087280104,7.15771962 0.0247279944,6.51012226 L1.02472799,6.51012226 C1.12021427,7.1075154 1.45354761,7.43131407 2.02472799,7.4815183 C2.88149858,7.55682464 3.10805127,7.75094014 3.40805127,8.01578612 Z" id="Path"></path>
            </g>
        </g>
    </g>
</svg>