<?xml version="1.0" encoding="UTF-8"?>
<svg width="16px" height="16px" viewBox="0 0 16 16" version="1.1" xmlns="http://www.w3.org/2000/svg" xmlns:xlink="http://www.w3.org/1999/xlink">
    <title>curve_16x16</title>
    <defs>
        <linearGradient x1="72.6375729%" y1="15.6593998%" x2="28.1991534%" y2="90.579711%" id="linearGradient-1">
            <stop stop-color="#1AAAFF" offset="0%"></stop>
            <stop stop-color="#0077BE" offset="100%"></stop>
        </linearGradient>
    </defs>
    <g id="curve_16x16" stroke="none" stroke-width="1" fill="none" fill-rule="evenodd">
        <g id="Group" transform="translate(3.000000, 1.000000)">
            <path d="M2.49740253,0.931026802 C3.07684452,0.927631318 3.48198,0.929356684 3.71280898,0.936202899 C3.91959731,0.942336086 4.18935649,0.958595689 4.52208652,0.984981707 C4.77478796,1.00496214 4.97251658,1.21091257 4.98225004,1.46421573 L4.98280936,1.47877138 C4.99212258,1.72113818 4.80319533,1.92516515 4.56082853,1.93447837 C4.5552101,1.93469426 4.54958804,1.93480224 4.54396545,1.93480224 L2.50033287,1.93480224 C2.22419049,1.93480224 2.00033287,1.71094461 2.00033287,1.43480224 L2.00033287,1.4310913 C2.00025979,1.15605224 2.2223682,0.932638481 2.49740253,0.931026802 Z" id="Rectangle" fill="#0077BE" transform="translate(3.491700, 1.432070) rotate(6.000000) translate(-3.491700, -1.432070) "></path>
            <path d="M2.75274153,12.1722039 C3.33218351,12.1688084 3.737319,12.1705338 3.96814798,12.17738 C4.17493631,12.1835132 4.44469549,12.1997728 4.77742552,12.2261588 C5.03012696,12.2461393 5.22785558,12.4520897 5.23758904,12.7053929 L5.23814836,12.7199485 C5.24746158,12.9623153 5.05853433,13.1663423 4.81616753,13.1756555 C4.8105491,13.1758714 4.80492703,13.1759794 4.79930445,13.1759794 L2.75567187,13.1759794 C2.47952949,13.1759794 2.25567187,12.9521217 2.25567187,12.6759794 L2.25567187,12.6722684 C2.25559879,12.3972294 2.4777072,12.1738156 2.75274153,12.1722039 Z" id="Rectangle" fill="#0077BE" transform="translate(3.747039, 12.673247) rotate(-162.000000) translate(-3.747039, -12.673247) "></path>
            <path d="M4,1 C7.33333333,1.44000187 9,2.53091097 9,4.27272727 C9,7.93195164 0,6.99431245 0,10.2613469 C0,11.5416611 1,12.4545455 3,13 L4,1 Z" id="Rectangle" fill="url(#linearGradient-1)"></path>
            <rect id="Rectangle-7-Copy-8" fill="#0077BE" x="3" y="0" width="1" height="14" rx="0.5"></rect>
        </g>
    </g>
</svg>