<?xml version="1.0" encoding="UTF-8"?>
<svg width="16px" height="16px" viewBox="0 0 16 16" version="1.1" xmlns="http://www.w3.org/2000/svg" xmlns:xlink="http://www.w3.org/1999/xlink">
    <title>curve_derivation_16x16</title>
    <g id="curve_derivation_16x16" stroke="none" stroke-width="1" fill="none" fill-rule="evenodd">
        <g id="Group" stroke="#0077BE">
            <rect id="Rectangle-Copy-7" x="0.5" y="0.5" width="15" height="15" rx="2"></rect>
        </g>
        <path d="M4.07568359,8.70166016 C4.07568359,9.20556893 4.18261612,9.62743971 4.39648438,9.96728516 C4.61035263,10.3071306 4.95312264,10.4770508 5.42480469,10.4770508 C5.79101746,10.4770508 6.09203984,10.3195817 6.32788086,10.0046387 C6.56372188,9.68969569 6.68164062,9.23779591 6.68164062,8.64892578 C6.68164062,8.05419625 6.56005981,7.6140151 6.31689453,7.32836914 C6.07372925,7.04272318 5.77343929,6.89990234 5.41601562,6.89990234 C5.01757613,6.89990234 4.69458132,7.05224457 4.44702148,7.35693359 C4.19946165,7.66162262 4.07568359,8.10986032 4.07568359,8.70166016 Z M5.26660156,6.20996094 C5.62695493,6.20996094 5.92870972,6.28613205 6.171875,6.43847656 C6.3125007,6.52636763 6.47216708,6.68017468 6.65087891,6.89990234 L6.65087891,4.52246094 L7.41113281,4.52246094 L7.41113281,11 L6.69921875,11 L6.69921875,10.3452148 C6.51464751,10.6352554 6.29638798,10.8447259 6.04443359,10.9736328 C5.79247921,11.1025397 5.50390788,11.1669922 5.17871094,11.1669922 C4.65429425,11.1669922 4.20019723,10.9465354 3.81640625,10.5056152 C3.43261527,10.0646951 3.24072266,9.47803101 3.24072266,8.74560547 C3.24072266,8.06005517 3.41576973,7.46606697 3.76586914,6.96362305 C4.11596855,6.46117913 4.61620769,6.20996094 5.26660156,6.20996094 Z M8.13183594,6.29345703 L9.15576172,6.29345703 L10.2368164,7.95019531 L11.3310547,6.29345703 L12.293457,6.31542969 L10.7070312,8.58740234 L12.3637695,11 L11.3530273,11 L10.184082,9.23339844 L9.05029297,11 L8.04833984,11 L9.70507812,8.58740234 L8.13183594,6.29345703 Z" id="dx" fill="#F16464" fill-rule="nonzero"></path>
    </g>
</svg>