<?xml version="1.0" encoding="UTF-8"?>
<svg width="16px" height="16px" viewBox="0 0 16 16" version="1.1" xmlns="http://www.w3.org/2000/svg" xmlns:xlink="http://www.w3.org/1999/xlink">
    <title>curve_rescale_16x16</title>
    <defs>
        <linearGradient x1="7.14365927%" y1="47.8667285%" x2="100%" y2="47.8667285%" id="linearGradient-1">
            <stop stop-color="#F16464" offset="0%"></stop>
            <stop stop-color="#F79494" offset="54.49984%"></stop>
            <stop stop-color="#FFD3D3" offset="100%"></stop>
        </linearGradient>
    </defs>
    <g id="curve_rescale_16x16" stroke="none" stroke-width="1" fill="none" fill-rule="evenodd">
        <g id="Group" stroke="#0077BE">
            <rect id="Rectangle-Copy-7" x="0.5" y="0.5" width="15" height="15" rx="2"></rect>
        </g>
        <path d="M9.17973154,5.47630851 L11.972639,8.30486219 C12.166659,8.50135856 12.4832352,8.503366 12.6797315,8.30934593 C12.7748744,8.21540204 12.8284271,8.08726502 12.8284271,7.95355777 L12.8284271,2.36780013 C12.8284271,2.09165776 12.6045695,1.86780013 12.3284271,1.86780013 C12.1969313,1.86780013 12.0707285,1.91960085 11.9771517,2.01198337 L9.18424389,4.76924493 C8.98770311,4.96322001 8.98566988,5.27979597 9.17967395,5.47630814 C9.17968348,5.47631781 9.17969302,5.47632747 9.17973154,5.47630851 Z" id="Fill-12-Copy" fill="url(#linearGradient-1)" transform="translate(10.828427, 5.171573) rotate(-225.000000) translate(-10.828427, -5.171573) "></path>
        <path d="M3.52287729,11.1331628 L6.31578472,13.9617164 C6.50980479,14.1582128 6.82638091,14.1602202 7.02287729,13.9662002 C7.11802019,13.8722563 7.17157288,13.7441193 7.17157288,13.610412 L7.17157288,8.02465438 C7.17157288,7.74851201 6.94771525,7.52465438 6.67157288,7.52465438 C6.54007704,7.52465438 6.41387429,7.5764551 6.32029744,7.66883762 L3.52738964,10.4260992 C3.33084886,10.6200743 3.32881563,10.9366502 3.5228197,11.1331624 C3.52282923,11.1331721 3.52283877,11.1331817 3.52287729,11.1331628 Z" id="Fill-12-Copy" fill="url(#linearGradient-1)" transform="translate(5.171573, 10.828427) rotate(-45.000000) translate(-5.171573, -10.828427) "></path>
    </g>
</svg>