<?xml version="1.0" encoding="UTF-8"?>
<svg width="32px" height="32px" viewBox="0 0 32 32" version="1.1" xmlns="http://www.w3.org/2000/svg" xmlns:xlink="http://www.w3.org/1999/xlink">
    <title>custom_flag_32x32</title>
    <defs>
        <linearGradient x1="100%" y1="50%" x2="0%" y2="50%" id="linearGradient-1">
            <stop stop-color="#FF8D8D" offset="0%"></stop>
            <stop stop-color="#FFBFBF" offset="42.1374594%"></stop>
            <stop stop-color="#F16464" offset="71.6801214%"></stop>
            <stop stop-color="#FFD3D3" offset="100%"></stop>
        </linearGradient>
    </defs>
    <g id="custom_flag_32x32" stroke="none" stroke-width="1" fill="none" fill-rule="evenodd">
        <g id="Group" transform="translate(2.000000, 1.500000)">
            <g id="Group-2" transform="translate(1.000000, 0.500000)">
                <g id="Group-4" transform="translate(0.000000, 0.500000)" fill="url(#linearGradient-1)">
                    <path d="M0.5,8.5 C1.23958707,7.45297783 2.31022384,6.78631117 3.71191032,6.5 C5.25170615,6.18547835 5.25170615,7.19641193 7.30952381,6.85544846 C8.7396831,6.61848282 10.1365085,5.5 11.5,3.5 C10.7734995,3.91071734 9.83931026,4.11607601 8.69743238,4.11607601 C6.33422961,4.11607601 6.12615738,2.52056858 4.16666667,1.5 C3.28560507,1.04111353 2.06338285,0.707780196 0.5,0.5 L0.5,8.5 Z" id="Fill-2-Copy"></path>
                </g>
                <rect id="Rectangle" fill="#0077BE" x="0" y="0" width="1" height="13.5" rx="0.5"></rect>
            </g>
            <circle id="Oval" fill="#0077BE" cx="1.5" cy="14.5" r="1.5"></circle>
        </g>
        <polygon id="Fill-10" fill="#FFFFFF" points="23.5783255 28.5 25.5783255 28.5 25.5783255 18.5 23.5783255 18.5"></polygon>
        <polygon id="Fill-11" fill="#FFFFFF" points="19.5783255 24.5 29.5783255 24.5 29.5783255 22.5 19.5783255 22.5"></polygon>
        <rect id="Rectangle-Copy" stroke="#0077BE" fill-opacity="0.152060688" fill="#0077BE" x="6.5" y="17.5" width="18.5783255" height="13" rx="2"></rect>
        <path d="M29.5,12.5 L29.5,24 C29.5,24.4142136 29.3321068,24.7892136 29.0606602,25.0606602 C28.7892136,25.3321068 28.4142136,25.5 28,25.5 L28,25.5 L12,25.5 C11.5857864,25.5 11.2107864,25.3321068 10.9393398,25.0606602 C10.6678932,24.7892136 10.5,24.4142136 10.5,24 L10.5,24 L10.5,14 C10.5,13.5857864 10.6678932,13.2107864 10.9393398,12.9393398 C11.2107864,12.6678932 11.5857864,12.5 12,12.5 L12,12.5 L29.5,12.5 Z" id="Rectangle" stroke="#0077BE" fill="#FFFFFF"></path>
        <path d="M28,9.5 C28.4142136,9.5 28.7892136,9.66789322 29.0606602,9.93933983 C29.3321068,10.2107864 29.5,10.5857864 29.5,11 L29.5,11 L29.5,12.5 L18.5,12.5 L18.5,11 C18.5,10.5857864 18.6678932,10.2107864 18.9393398,9.93933983 C19.2107864,9.66789322 19.5857864,9.5 20,9.5 L20,9.5 Z" id="Rectangle" stroke="#0077BE" fill="#FFFFFF"></path>
        <rect id="Rectangle-Copy-9" fill="#0077BE" x="16" y="16.0177971" width="3" height="1" rx="0.5"></rect>
        <rect id="Rectangle-Copy-10" fill="#0077BE" x="24" y="16" width="3" height="1" rx="0.5"></rect>
        <path d="M13.2929413,15.7930259 C12.9023529,16.183602 12.9023529,16.816398 13.2929413,17.2069741 C13.6836547,17.5976753 14.3163453,17.5976753 14.7070587,17.2069741 C15.0976471,16.816398 15.0976471,16.183602 14.7070587,15.7930259 C14.3163453,15.4023247 13.6836547,15.4023247 13.2929413,15.7930259" id="Path-Copy-7" fill="#DB4D4D"></path>
        <path d="M21.2929413,15.7930259 C20.9023529,16.183602 20.9023529,16.816398 21.2929413,17.2069741 C21.6836547,17.5976753 22.3163453,17.5976753 22.7070587,17.2069741 C23.0976471,16.816398 23.0976471,16.183602 22.7070587,15.7930259 C22.3163453,15.4023247 21.6836547,15.4023247 21.2929413,15.7930259" id="Path-Copy-8" fill="#DB4D4D"></path>
        <rect id="Rectangle-Copy-9" fill="#0077BE" x="16" y="21.0177971" width="3" height="1" rx="0.5"></rect>
        <rect id="Rectangle-Copy-10" fill="#0077BE" x="24" y="21" width="3" height="1" rx="0.5"></rect>
        <path d="M13.2929413,20.7930259 C12.9023529,21.183602 12.9023529,21.816398 13.2929413,22.2069741 C13.6836547,22.5976753 14.3163453,22.5976753 14.7070587,22.2069741 C15.0976471,21.816398 15.0976471,21.183602 14.7070587,20.7930259 C14.3163453,20.4023247 13.6836547,20.4023247 13.2929413,20.7930259" id="Path-Copy-7" fill="#DB4D4D"></path>
        <path d="M21.2929413,20.7930259 C20.9023529,21.183602 20.9023529,21.816398 21.2929413,22.2069741 C21.6836547,22.5976753 22.3163453,22.5976753 22.7070587,22.2069741 C23.0976471,21.816398 23.0976471,21.183602 22.7070587,20.7930259 C22.3163453,20.4023247 21.6836547,20.4023247 21.2929413,20.7930259" id="Path-Copy-8" fill="#DB4D4D"></path>
    </g>
</svg>