<?xml version="1.0" encoding="UTF-8"?>
<svg width="16px" height="16px" viewBox="0 0 16 16" version="1.1" xmlns="http://www.w3.org/2000/svg" xmlns:xlink="http://www.w3.org/1999/xlink">
    <title>dataset_new_16x16</title>
    <g id="dataset_new_16x16" stroke="none" stroke-width="1" fill="none" fill-rule="evenodd">
        <g id="Group">
            <g id="Group-2" stroke="#0077BE">
                <rect id="Rectangle-7-Copy" x="0.5" y="0.5" width="12" height="4" rx="1"></rect>
                <rect id="Rectangle-7-Copy" x="0.5" y="2.5" width="12" height="2" rx="1"></rect>
                <path d="M14,4.5 C14.4142136,4.5 14.7892136,4.66789322 15.0606602,4.93933983 C15.3321068,5.21078644 15.5,5.58578644 15.5,6 L15.5,6 L15.5,14 C15.5,14.4142136 15.3321068,14.7892136 15.0606602,15.0606602 C14.7892136,15.3321068 14.4142136,15.5 14,15.5 L14,15.5 L2,15.5 C1.58578644,15.5 1.21078644,15.3321068 0.939339828,15.0606602 C0.667893219,14.7892136 0.5,14.4142136 0.5,14 L0.5,14 L0.5,4.5 Z" id="Rectangle-7-Copy-10"></path>
            </g>
            <path d="M6.40805127,6.49433615 C6.83175092,6.86838664 7.02472799,7.32002278 7.02472799,7.9028604 L7.02472799,8 L6.02472799,8 C6.02472799,8 6.02472799,7.9028604 6.02472799,7.9028604 C6.02472799,7.41716238 5.52472799,6.93146436 5.02472799,6.93146436 C4.52472799,6.93146436 4.06007269,6.71446285 3.72472799,6.44576634 C3.32061344,6.12196767 3.0872801,5.63626965 3.02472799,4.98867229 L4.02472799,4.98867229 C4.12021427,5.58606542 4.45354761,5.9098641 5.02472799,5.96006833 C5.88149858,6.03537466 6.10805127,6.22949017 6.40805127,6.49433615 Z" id="Path" fill="#F16464"></path>
            <path d="M12.4312984,6.49433615 C12.8549981,6.86838664 13.0479751,7.32002278 13.0479751,7.9028604 L13.0479751,8 L12.0479751,8 C12.0479751,8 12.0479751,7.9028604 12.0479751,7.9028604 C12.0479751,7.41716238 11.5479751,6.93146436 11.0479751,6.93146436 C10.5479751,6.93146436 10.0833198,6.71446285 9.74797514,6.44576634 C9.34386058,6.12196767 9.11052725,5.63626965 9.04797514,4.98867229 L10.0479751,4.98867229 C10.1434614,5.58606542 10.4767947,5.9098641 11.0479751,5.96006833 C11.9047457,6.03537466 12.1312984,6.22949017 12.4312984,6.49433615 Z" id="Path" fill="#0077BE"></path>
            <path d="M6.40805127,9.99433615 C6.83175092,10.3683866 7.02472799,10.8200228 7.02472799,11.4028604 L7.02472799,11.5 L6.02472799,11.5 C6.02472799,11.5 6.02472799,11.4028604 6.02472799,11.4028604 C6.02472799,10.9171624 5.52472799,10.4314644 5.02472799,10.4314644 C4.52472799,10.4314644 4.06007269,10.2144629 3.72472799,9.94576634 C3.32061344,9.62196767 3.0872801,9.13626965 3.02472799,8.48867229 L4.02472799,8.48867229 C4.12021427,9.08606542 4.45354761,9.4098641 5.02472799,9.46006833 C5.88149858,9.53537466 6.10805127,9.72949017 6.40805127,9.99433615 Z" id="Path" fill="#0077BE"></path>
            <path d="M12.4312984,9.99433615 C12.8549981,10.3683866 13.0479751,10.8200228 13.0479751,11.4028604 L13.0479751,11.5 L12.0479751,11.5 C12.0479751,11.5 12.0479751,11.4028604 12.0479751,11.4028604 C12.0479751,10.9171624 11.5479751,10.4314644 11.0479751,10.4314644 C10.5479751,10.4314644 10.0833198,10.2144629 9.74797514,9.94576634 C9.34386058,9.62196767 9.11052725,9.13626965 9.04797514,8.48867229 L10.0479751,8.48867229 C10.1434614,9.08606542 10.4767947,9.4098641 11.0479751,9.46006833 C11.9047457,9.53537466 12.1312984,9.72949017 12.4312984,9.99433615 Z" id="Path" fill="#F16464"></path>
            <path d="M6.40805127,13.4943361 C6.83175092,13.8683866 7.02472799,14.3200228 7.02472799,14.9028604 L7.02472799,15 L6.02472799,15 C6.02472799,15 6.02472799,14.9028604 6.02472799,14.9028604 C6.02472799,14.4171624 5.52472799,13.9314644 5.02472799,13.9314644 C4.52472799,13.9314644 4.06007269,13.7144629 3.72472799,13.4457663 C3.32061344,13.1219677 3.0872801,12.6362696 3.02472799,11.9886723 L4.02472799,11.9886723 C4.12021427,12.5860654 4.45354761,12.9098641 5.02472799,12.9600683 C5.88149858,13.0353747 6.10805127,13.2294902 6.40805127,13.4943361 Z" id="Path" fill="#F16464"></path>
            <path d="M12.4312984,13.4943361 C12.8549981,13.8683866 13.0479751,14.3200228 13.0479751,14.9028604 L13.0479751,15 L12.0479751,15 C12.0479751,15 12.0479751,14.9028604 12.0479751,14.9028604 C12.0479751,14.4171624 11.5479751,13.9314644 11.0479751,13.9314644 C10.5479751,13.9314644 10.0833198,13.7144629 9.74797514,13.4457663 C9.34386058,13.1219677 9.11052725,12.6362696 9.04797514,11.9886723 L10.0479751,11.9886723 C10.1434614,12.5860654 10.4767947,12.9098641 11.0479751,12.9600683 C11.9047457,13.0353747 12.1312984,13.2294902 12.4312984,13.4943361 Z" id="Path" fill="#0077BE"></path>
        </g>
    </g>
</svg>