<?xml version="1.0" encoding="UTF-8"?>
<svg width="16px" height="16px" viewBox="0 0 16 16" version="1.1" xmlns="http://www.w3.org/2000/svg" xmlns:xlink="http://www.w3.org/1999/xlink">
    <title>datacorection_16x16</title>
    <defs>
        <linearGradient x1="25.5187587%" y1="92.6110365%" x2="76.7029485%" y2="8.20085208%" id="linearGradient-1">
            <stop stop-color="#F16464" offset="0%"></stop>
            <stop stop-color="#F79494" offset="54.49984%"></stop>
            <stop stop-color="#FFD3D3" offset="100%"></stop>
        </linearGradient>
        <linearGradient x1="50%" y1="3.49530347%" x2="50%" y2="100%" id="linearGradient-2">
            <stop stop-color="#B3CFE0" offset="0%"></stop>
            <stop stop-color="#5B7E93" offset="100%"></stop>
        </linearGradient>
        <linearGradient x1="50%" y1="3.49530347%" x2="50%" y2="100%" id="linearGradient-3">
            <stop stop-color="#1AAAFF" offset="0%"></stop>
            <stop stop-color="#0077BE" offset="100%"></stop>
        </linearGradient>
    </defs>
    <g id="datacorection_16x16" stroke="none" stroke-width="1" fill="none" fill-rule="evenodd">
        <polyline id="Line-4" stroke="#F16464" stroke-width="0.5" stroke-linecap="square" points="3.5 10.5130087 6.5 13 11 13"></polyline>
        <polyline id="Line-4" stroke="#748E9E" stroke-width="0.5" stroke-linecap="square" points="3 6 6 7.99999103 9.45725589 8.46441025 12.5 10"></polyline>
        <circle id="Oval-Copy-8" fill="url(#linearGradient-1)" cx="3.5" cy="10.5" r="1"></circle>
        <circle id="Oval-Copy-9" fill="url(#linearGradient-1)" cx="6.5" cy="13" r="1"></circle>
        <circle id="Oval-Copy-10" fill="url(#linearGradient-1)" cx="11" cy="13" r="1"></circle>
        <circle id="Oval-Copy-8" fill="url(#linearGradient-2)" cx="3" cy="6" r="1"></circle>
        <circle id="Oval-Copy-9" fill="url(#linearGradient-2)" cx="6" cy="8" r="1"></circle>
        <circle id="Oval-Copy-10" fill="url(#linearGradient-2)" cx="9.5" cy="8.5" r="1"></circle>
        <circle id="Oval-Copy-10" fill="url(#linearGradient-2)" cx="12.5" cy="10" r="1"></circle>
        <polyline id="Line-4" stroke="#0077BE" stroke-width="0.5" stroke-linecap="square" points="3 2 6.5 3.99755005 10 3.54856867 13 5.57776513 14.599579 8"></polyline>
        <circle id="Oval-Copy-8" fill="url(#linearGradient-3)" cx="3" cy="2" r="1"></circle>
        <circle id="Oval-Copy-9" fill="url(#linearGradient-3)" cx="6.5" cy="4" r="1"></circle>
        <circle id="Oval-Copy-10" fill="url(#linearGradient-3)" cx="10" cy="3.5" r="1"></circle>
        <circle id="Oval-Copy-10" fill="url(#linearGradient-3)" cx="13" cy="5.5" r="1"></circle>
        <circle id="Oval-Copy-10" fill="url(#linearGradient-3)" cx="14.5" cy="8" r="1"></circle>
        <path d="M0.5,16 C0.776142375,16 1,15.7761424 1,15.5 L1,1.5 C1,1.22385763 0.776142375,1 0.5,1 C0.223857625,1 -3.38176876e-17,1.22385763 0,1.5 L0,15.5 C3.38176876e-17,15.7761424 0.223857625,16 0.5,16 Z" id="Fill-7" fill="#0477BD"></path>
        <path d="M0.5,16 L14.5,16 C14.7761424,16 15,15.7761424 15,15.5 C15,15.2238576 14.7761424,15 14.5,15 L0.5,15 C0.223857625,15 -3.38176876e-17,15.2238576 0,15.5 C3.38176876e-17,15.7761424 0.223857625,16 0.5,16 Z" id="Fill-2" fill="#0477BD"></path>
    </g>
</svg>