<?xml version="1.0" encoding="UTF-8"?>
<svg width="16px" height="16px" viewBox="0 0 16 16" version="1.1" xmlns="http://www.w3.org/2000/svg" xmlns:xlink="http://www.w3.org/1999/xlink">
    <title>density_neutron_16x16</title>
    <defs>
        <linearGradient x1="50%" y1="3.49530347%" x2="50%" y2="100%" id="linearGradient-1">
            <stop stop-color="#1AAAFF" offset="0%"></stop>
            <stop stop-color="#0077BE" offset="100%"></stop>
        </linearGradient>
        <linearGradient x1="25.5187587%" y1="92.6110365%" x2="105.751016%" y2="-25.1764339%" id="linearGradient-2">
            <stop stop-color="#F16464" offset="0%"></stop>
            <stop stop-color="#F79494" offset="54.49984%"></stop>
            <stop stop-color="#FFD3D3" offset="100%"></stop>
        </linearGradient>
    </defs>
    <g id="density_neutron_16x16" stroke="none" stroke-width="1" fill="none" fill-rule="evenodd">
        <g id="Group-2" transform="translate(0.000000, 1.000000)">
            <path d="M7.5,2.5 L7.5,13 C7.5,13.4142136 7.33210678,13.7892136 7.06066017,14.0606602 C6.78921356,14.3321068 6.41421356,14.5 6,14.5 L6,14.5 L2,14.5 C1.58578644,14.5 1.21078644,14.3321068 0.939339828,14.0606602 C0.667893219,13.7892136 0.5,13.4142136 0.5,13 L0.5,13 L0.5,2.5 L7.5,2.5 Z" id="Rectangle-7-Copy-8" stroke="#0077BE"></path>
            <g id="Group" transform="translate(2.000000, 2.000000)" fill="#0377BE">
                <g id="Untitled-1" transform="translate(0.500000, 0.000000)">
                    <path d="M1,3.5 C1,3.8 1.2,4 1.5,4 C1.9,4 2.3,4.2 2.6,4.5 C2.3,4.8 1.9,5 1.5,5 C1.1,5 0.7,4.8 0.4,4.5 C0.2,4.2 0,3.9 0,3.5 C0,3.1 0.2,2.8 0.4,2.5 C0.7,2.2 1.1,2 1.5,2 C1.8,2 2,1.8 2,1.5 C2,1.2 1.8,1 1.5,1 C1.1,1 0.7,0.8 0.4,0.5 C0.7,0.2 1.1,0 1.5,0 C1.9,0 2.3,0.2 2.6,0.5 C2.8,0.8 3,1.1 3,1.5 C3,1.9 2.8,2.2 2.6,2.5 C2.3,2.8 1.9,3 1.5,3 C1.2,3 1,3.2 1,3.5 Z" id="Path"></path>
                </g>
                <g id="Untitled-1-Copy" transform="translate(0.500000, 4.000000)">
                    <path d="M1,3.5 C1,3.8 1.2,4 1.5,4 C1.9,4 2.3,4.2 2.6,4.5 C2.3,4.8 1.9,5 1.5,5 C1.1,5 0.7,4.8 0.4,4.5 C0.2,4.2 0,3.9 0,3.5 C0,3.1 0.2,2.8 0.4,2.5 C0.7,2.2 1.1,2 1.5,2 C1.8,2 2,1.8 2,1.5 C2,1.2 1.8,1 1.5,1 C1.1,1 0.7,0.8 0.4,0.5 C0.7,0.2 1.1,0 1.5,0 C1.9,0 2.3,0.2 2.6,0.5 C2.8,0.8 3,1.1 3,1.5 C3,1.9 2.8,2.2 2.6,2.5 C2.3,2.8 1.9,3 1.5,3 C1.2,3 1,3.2 1,3.5 Z" id="Path"></path>
                </g>
                <g id="Untitled-1-Copy-2" transform="translate(0.500000, 8.000000)">
                    <path d="M1,3.5 C1,3.8 1.2,4 1.5,4 C1.9,4 2.3,4.2 2.6,4.5 C2.3,4.8 1.9,5 1.5,5 C1.1,5 0.7,4.8 0.4,4.5 C0.2,4.2 0,3.9 0,3.5 C0,3.1 0.2,2.8 0.4,2.5 C0.7,2.2 1.1,2 1.5,2 C1.8,2 2,1.8 2,1.5 C2,1.2 1.8,1 1.5,1 C1.1,1 0.7,0.8 0.4,0.5 C0.7,0.2 1.1,0 1.5,0 C1.9,0 2.3,0.2 2.6,0.5 C2.8,0.8 3,1.1 3,1.5 C3,1.9 2.8,2.2 2.6,2.5 C2.3,2.8 1.9,3 1.5,3 C1.2,3 1,3.2 1,3.5 Z" id="Path"></path>
                </g>
            </g>
            <path d="M2,0 L6,0 C7.1045695,-2.02906125e-16 8,0.8954305 8,2 L8,3 L8,3 L0,3 L0,2 C-1.3527075e-16,0.8954305 0.8954305,2.02906125e-16 2,0 Z" id="Rectangle" fill="url(#linearGradient-1)"></path>
        </g>
        <rect id="Rectangle-Copy-7" fill="url(#linearGradient-2)" x="6" y="0" width="10" height="10" rx="2"></rect>
        <path d="M11.2232769,7.99642187 C11.5520546,7.99642187 11.8222342,7.96224253 12.0338238,7.89388281 C12.4114299,7.76692905 12.7206716,7.52279087 12.9615582,7.16146094 C13.1536165,6.87174595 13.2919614,6.50065591 13.3765973,6.04817969 C13.4254256,5.77799604 13.4498394,5.52734751 13.4498394,5.29622656 C13.4498394,4.40755024 13.2732462,3.71745298 12.9200543,3.22591406 C12.5668624,2.73437515 11.9980205,2.48860937 11.2135113,2.48860937 L9.48987851,2.48860937 L9.48987851,7.99642187 L11.2232769,7.99642187 Z M8.51331601,1.65364844 L11.4185894,1.65364844 C12.4049225,1.65364844 13.1698888,2.00357983 13.7135113,2.70345312 C14.1985398,3.3349667 14.4410504,4.14387788 14.4410504,5.13021094 C14.4410504,5.8919335 14.2978227,6.58040317 14.0113629,7.19564062 C13.5068031,8.28288564 12.6392987,8.8265 11.4088238,8.8265 L8.51331601,8.8265 L8.51331601,1.65364844 Z" id="D" fill="#FFFFFF" fill-rule="nonzero"></path>
    </g>
</svg>