<?xml version="1.0" encoding="UTF-8"?>
<svg width="16px" height="16px" viewBox="0 0 16 16" version="1.1" xmlns="http://www.w3.org/2000/svg" xmlns:xlink="http://www.w3.org/1999/xlink">
    <title>display_his_16x16</title>
    <g id="display_his_16x16" stroke="none" stroke-width="1" fill="none" fill-rule="evenodd">
        <rect id="Rectangle-20-Copy-32" fill="#0077BE" x="0" y="0" width="1" height="16"></rect>
        <rect id="Rectangle-20-Copy-43" fill="#0077BE" x="7" y="15" width="2" height="1"></rect>
        <rect id="Rectangle-20-Copy-32" fill="#0077BE" x="0" y="15" width="16" height="1"></rect>
        <rect id="Rectangle-20-Copy-57" fill="#0077BE" x="2" y="15" width="5" height="1"></rect>
        <rect id="Rectangle-20-Copy-33" fill="#F16464" x="1" y="9" width="1" height="2"></rect>
        <rect id="Rectangle-20-Copy-34" fill="#F16464" x="2" y="7" width="1" height="3"></rect>
        <rect id="Rectangle-20-Copy-35" fill="#F16464" x="3" y="5" width="1" height="3"></rect>
        <rect id="Rectangle-20-Copy-36" fill="#F16464" x="4" y="3" width="1" height="3"></rect>
        <rect id="Rectangle-20-Copy-37" fill="#F16464" x="5" y="2" width="1" height="2"></rect>
        <rect id="Rectangle-20-Copy-38" fill="#F16464" x="6" y="1" width="1" height="2"></rect>
        <rect id="Rectangle-20-Copy-39" fill="#F16464" x="7" y="0" width="1" height="2"></rect>
        <rect id="Rectangle-20-Copy-42" fill="#F16464" x="9" y="0" width="1" height="2"></rect>
        <rect id="Rectangle-20-Copy-44" fill="#F16464" x="10" y="1" width="1" height="2"></rect>
        <rect id="Rectangle-20-Copy-45" fill="#F16464" x="11" y="2" width="1" height="2"></rect>
        <rect id="Rectangle-20-Copy-46" fill="#F16464" x="12" y="3" width="1" height="3"></rect>
        <rect id="Rectangle-20-Copy-47" fill="#F16464" x="13" y="5" width="1" height="3"></rect>
        <rect id="Rectangle-20-Copy-48" fill="#F16464" x="14" y="7" width="1" height="3"></rect>
        <rect id="Rectangle-20-Copy-49" fill="#F16464" x="15" y="8" width="1" height="3"></rect>
        <rect id="Rectangle-20-Copy-50" fill="#0077BE" x="2" y="12" width="2" height="3"></rect>
        <rect id="Rectangle-20-Copy-51" fill="#0077BE" x="5" y="8" width="2" height="7"></rect>
        <rect id="Rectangle-20-Copy-53" fill="#0077BE" x="11" y="9" width="2" height="6"></rect>
        <rect id="Rectangle-20-Copy-54" fill="#0077BE" x="14" y="12" width="2" height="3"></rect>
        <rect id="Rectangle-20-Copy-52" fill="#0077BE" x="8" y="4" width="2" height="11"></rect>
        <rect id="Rectangle-20-Copy-40" fill="#F16464" x="8" y="0" width="1" height="1"></rect>
        <rect id="Rectangle-20-Copy-41" fill="#F16464" x="9" y="0" width="1" height="1"></rect>
    </g>
</svg>