<?xml version="1.0" encoding="UTF-8"?>
<svg width="16px" height="16px" viewBox="0 0 16 16" version="1.1" xmlns="http://www.w3.org/2000/svg" xmlns:xlink="http://www.w3.org/1999/xlink">
    <title>eraser_tool_16x16</title>
    <defs>
        <linearGradient x1="90.0222621%" y1="70.3244665%" x2="0%" y2="50%" id="linearGradient-1">
            <stop stop-color="#1AAAFF" offset="0%"></stop>
            <stop stop-color="#0077BE" offset="100%"></stop>
        </linearGradient>
    </defs>
    <g id="eraser_tool_16x16" stroke="none" stroke-width="1" fill="none" fill-rule="evenodd">
        <path d="M3,14.3989163 L6.96481684,14.3989163 C7.51710159,14.3989163 7.96481684,13.9512011 7.96481684,13.3989163 L7.96481684,9.20732954 C7.96481684,8.65504479 7.51710159,8.20732954 6.96481684,8.20732954 L3,8.20732954 C2.44771525,8.20732954 2,8.65504479 2,9.20732954 L2,13.3989163 C2,13.9512011 2.44771525,14.3989163 3,14.3989163 Z" id="Fill-11-Copy-18" fill="#003975" opacity="0.829706101" transform="translate(4.982408, 11.303123) rotate(-225.000000) translate(-4.982408, -11.303123) "></path>
        <path d="M3.9353869,12.332239 L12.5733311,12.332239 C13.1256158,12.332239 13.5733311,11.8845237 13.5733311,11.332239 L13.5733311,4.6010837 C13.5733311,4.04879895 13.1256158,3.6010837 12.5733311,3.6010837 L3.9353869,3.6010837 C3.38310215,3.6010837 2.9353869,4.04879895 2.9353869,4.6010837 L2.9353869,11.332239 C2.9353869,11.8845237 3.38310215,12.332239 3.9353869,12.332239 Z" id="Fill-11-Copy-19" fill="url(#linearGradient-1)" transform="translate(8.254359, 7.966661) rotate(-225.000000) translate(-8.254359, -7.966661) "></path>
    </g>
</svg>