<?xml version="1.0" encoding="UTF-8"?>
<svg width="32px" height="32px" viewBox="0 0 32 32" version="1.1" xmlns="http://www.w3.org/2000/svg" xmlns:xlink="http://www.w3.org/1999/xlink">
    <title>exit_32x32</title>
    <defs>
        <linearGradient x1="50%" y1="3.49530347%" x2="50%" y2="100%" id="linearGradient-1">
            <stop stop-color="#1AAAFF" offset="0%"></stop>
            <stop stop-color="#0077BE" offset="100%"></stop>
        </linearGradient>
        <linearGradient x1="25.5187587%" y1="92.6110365%" x2="85.9877115%" y2="7.78124569%" id="linearGradient-2">
            <stop stop-color="#F16464" offset="0%"></stop>
            <stop stop-color="#F79494" offset="54.49984%"></stop>
            <stop stop-color="#FFD3D3" offset="100%"></stop>
        </linearGradient>
        <linearGradient x1="2.01543549%" y1="219.933931%" x2="107.107743%" y2="0%" id="linearGradient-3">
            <stop stop-color="#F16464" offset="0%"></stop>
            <stop stop-color="#F79494" offset="54.49984%"></stop>
            <stop stop-color="#FFD3D3" offset="100%"></stop>
        </linearGradient>
    </defs>
    <g id="exit_32x32" stroke="none" stroke-width="1" fill="none" fill-rule="evenodd">
        <g id="Group" transform="translate(1.000000, 1.000000)">
            <path d="M2,0 L17,0 C18.1045695,-2.02906125e-16 19,0.8954305 19,2 L19,4 L19,4 L0,4 L0,2 C-1.3527075e-16,0.8954305 0.8954305,2.02906125e-16 2,0 Z" id="Rectangle-7-Copy" fill="url(#linearGradient-1)"></path>
            <rect id="Rectangle-7-Copy-6" fill="#0077BE" x="5" y="9" width="13" height="1" rx="0.5"></rect>
            <rect id="Rectangle-7-Copy-8" fill="#0077BE" x="5" y="14" width="8" height="1" rx="0.5"></rect>
            <rect id="Rectangle-7-Copy-9" fill="#0077BE" x="5" y="18" width="8" height="1" rx="0.5"></rect>
            <path d="M24,4.5 C24.4142136,4.5 24.7892136,4.66789322 25.0606602,4.93933983 C25.3321068,5.21078644 25.5,5.58578644 25.5,6 L25.5,6 L25.5,22 C25.5,22.4142136 25.3321068,22.7892136 25.0606602,23.0606602 C24.7892136,23.3321068 24.4142136,23.5 24,23.5 L24,23.5 L2,23.5 C1.58578644,23.5 1.21078644,23.3321068 0.939339828,23.0606602 C0.667893219,22.7892136 0.5,22.4142136 0.5,22 L0.5,22 L0.5,4.5 Z" id="Rectangle-7-Copy-10" stroke="#0077BE"></path>
        </g>
        <g id="Group-Copy" transform="translate(15.000000, 15.000000)" fill="url(#linearGradient-2)" stroke="#FFFFFF">
            <circle id="Oval-2" cx="8" cy="8" r="8.5"></circle>
        </g>
        <g id="Group-4" transform="translate(18.000000, 17.000000)"></g>
        <circle id="Oval" stroke="#FFFFFF" cx="23" cy="23" r="4.5"></circle>
        <rect id="Rectangle" fill="url(#linearGradient-3)" x="21" y="16" width="4" height="6"></rect>
        <rect id="Rectangle" fill="#FFFFFF" x="22.5" y="17" width="1" height="5" rx="0.5"></rect>
    </g>
</svg>