<?xml version="1.0" encoding="UTF-8"?>
<svg width="32px" height="32px" viewBox="0 0 32 32" version="1.1" xmlns="http://www.w3.org/2000/svg" xmlns:xlink="http://www.w3.org/1999/xlink">
    <title>expert_rules_32x32</title>
    <defs>
        <linearGradient x1="37.215881%" y1="17.4039109%" x2="96.0487023%" y2="97.6340751%" id="linearGradient-1">
            <stop stop-color="#1AAAFF" offset="0%"></stop>
            <stop stop-color="#0077BE" offset="100%"></stop>
        </linearGradient>
        <linearGradient x1="50%" y1="3.49530347%" x2="50%" y2="100%" id="linearGradient-2">
            <stop stop-color="#1AAAFF" offset="0%"></stop>
            <stop stop-color="#0077BE" offset="100%"></stop>
        </linearGradient>
    </defs>
    <g id="expert_rules_32x32" stroke="none" stroke-width="1" fill="none" fill-rule="evenodd">
        <path d="M30,5.7 L30,26.8 C29.7,26.6 29.4,26.4 29,26.2 C28.8,26.1 28.6,26.1 28.4,26 L28.4,25.8 C28.4,25.8 28.4,25.7 28.4,25.6 C28.4,25.4 28.4,25.1 28.4,24.8 C28.4,24.2 28.4,23.6 28.1,23 C27.9,22.6 27.6,22.2 27.2,21.9 C26.8,21.6 26.4,21.4 26.1,21.2 C25.8,21 25.7,20.6 25.7,20.3 C25.7,20.3 25.7,20.3 25.7,20.3 C25.7,20.1 25.8,20 25.9,19.8 C26,19.6 26.1,19.5 26.2,19.3 C26.7,18.6 27.1,17.7 27.2,16.8 C27.2,16.3 27.2,15.9 27.1,15.4 C27,15 26.9,14.6 27,14.2 C27,14.2 27,14.2 27,14.2 C27,14 27.1,13.8 27.2,13.6 C27.4,13.1 27.8,12.6 28.3,12.3 C28.7,12 29,11.7 29.3,11.3 C29.5,10.9 29.7,10.4 29.7,10 C29.8,9 29.2,8.2 29,7.5 C28.9,7.1 28.9,6.7 29.2,6.4 C29.5,5.9 29.8,5.8 30,5.7 Z" id="Path-3" fill="#0656AB"></path>
        <path d="M27.8,30 L5,30 C3.34314575,30 2,28.6568542 2,27 L2,25.6 L2,25.6 C2.8,25.3 3.5,24.8 4.4,24.9 C4.8,24.9 5.2,25 5.6,25.2 C6,25.4 6.2,25.7 6.5,26 C6.8,26.3 7.1,26.7 7.5,26.9 C7.9,27.2 8.3,27.3 8.8,27.4 C9.3,27.4 9.8,27.3 10.2,27.2 C10.6,27.1 11,27.1 11.4,27.1 C12.2,27.2 13,27.4 13.7,27.9 C14.1,28.1 14.4,28.4 15,28.5 C15.5,28.6 16.1,28.3 16.4,27.9 C16.7,27.5 16.9,27.1 17.1,26.8 C17.3,26.5 17.7,26.2 18,26.1 C18.7,25.8 19.5,25.9 20.4,25.9 C21.5,25.9 22.7,25.9 23.8,25.7 C24,25.7 24.2,25.7 24.4,25.6 L24.5,25.7 C25.1,26.3 26,26.7 26.7,26.7 C27.1,26.7 27.5,26.7 27.8,26.8 C27.7,27.8 27.8,28.9 27.8,30 Z" id="Path" fill="#0656AB"></path>
        <path d="M29.8,27.7885319 L29.8,28.3885319 C29.8,29.1617305 29.1731986,29.7885319 28.4,29.7885319 L28.4,29.7885319 L28.4,29.7885319 C28.3,28.7885319 28.2,27.6885319 28.2,26.6885319 C28.3,26.6885319 28.4,26.7885319 28.5,26.7885319 C28.9,26.9885319 29.3,27.2885319 29.6,27.5885319 C29.7,27.6885319 29.8,27.6885319 29.8,27.7885319 Z" id="Path-2" fill="#0656AB"></path>
        <path d="M27.8,24.4 C27.8,24.6 27.8,24.8 27.8,24.9 C27.8,25 27.8,25.1 27.8,25.2 C27.8,25.3 27.8,25.5 27.8,25.6 C27.8,25.7 27.8,25.7 27.8,25.8 C27.4,25.8 27.1,25.8 26.7,25.8 C26,25.8 25.4,25.6 24.9,25.1 C24.4,24.6 24.1,24 23.9,23.3 C23.8,23.1 23.8,23 23.8,22.8 C23.7,22.3 23.6,21.8 23.6,21.3 C23.6,21 23.7,20.6 23.8,20.3 C23.9,20 24,19.6 24,19.1 C23.9,18.6 23.6,18.2 23.2,18 C22.8,17.8 22.4,17.8 22,17.7 C21.2,17.7 20.5,17.7 19.9,17.4 C19.3,17.1 19,16.4 18.9,15.7 C18.8,15 19,14.2 18.8,13.5 C18.7,12.7 17.8,12.1 17,12.1 C16.2,12.1 15.5,12.3 14.8,12.4 C14.1,12.5 13.3,12.3 12.8,11.9 C12.2,11.5 11.8,10.9 11.5,10.2 C10.9,8.9 11.0417175,9.2578125 10.9548035,9.13908386 C11.0472717,9.42318726 10.8,8.9 11.4,10.2 C11.7,10.9 12.1,11.5 12.7,12 C13.3,12.5 14.1,12.6 14.9,12.6 C15.7,12.6 16.4,12.4 17.1,12.4 C17.8,12.4 18.4,12.9 18.5,13.6 C18.6,14.3 18.5,15 18.5,15.8 C18.5,16.6 18.9,17.4 19.6,17.8 C20.3,18.2 21.1,18.2 21.9,18.3 C22.3,18.3 22.6,18.4 22.9,18.5 C23.1,18.6 23.3,18.9 23.4,19.2 C23.4,19.7 23,20.6 23,21.3 C23,21.9 23,22.4 23.1,23 C22.2,23.1 21.4,22.8 20.7,22.2 C20.3,21.9 19.8,21.6 19.3,21.5 C18.8,21.4 18.2,21.4 17.7,21.5 C16.7,21.8 16,22.7 15.2,23.2 C14.8,23.4 14.3,23.5 13.9,23.4 C13.5,23.2 13.1,22.9 12.9,22.5 C12.4,21.7 12.1,20.7 11.7,19.8 C11.3,18.9 10.8,18 10.2,17.2 C9.5,16.4 8.6,15.9 7.6,15.7 C6.50511072,15.5631388 5.8,15.7210999 5.056427,15.8553009 C5.00391148,15.864779 5.18302917,15.8843384 5.056427,15.9291534 C5.15444946,15.9291534 6,15.6 7.6,15.8 C8.6,16 9.4,16.5 10.1,17.3 C10.8,18.1 11.2,19 11.6,19.9 C12,20.8 12.3,21.8 12.8,22.7 C13.1,23.1 13.4,23.6 13.9,23.8 C14.4,24 15,23.9 15.5,23.6 C16.4,23.1 17,22.3 18,22.1 C18.5,22 18.9,22 19.4,22.1 C19.9,22.2 20.2,22.5 20.6,22.8 C21,23.1 21.5,23.4 22,23.6 C22.5,23.7 22.9,23.8 23.4,23.7 C23.4,23.7 23.4,23.8 23.4,23.8 C23.5,24.3 23.7,24.7 23.9,25.1 C23.7,25.1 23.6,25.1 23.4,25.2 C22.4,25.3 21.4,25.4 20.4,25.4 C19.6,25.4 18.6,25.3 17.7,25.8 C17.3,26 16.9,26.3 16.6,26.7 C16.3,27.1 16.1,27.5 15.9,27.8 C15.7,27.8 15.3,28 15,28 C14.7,28 14.3,27.7 13.9,27.5 C13.1,27 12.2,26.7 11.3,26.7 C10.8,26.7 10.4,26.7 9.9,26.8 C9.5,26.9 9.2,27 8.8,27 C8,26.9 7.3,26.5 6.8,25.8 C6.5,25.5 6.2,25.1 5.8,24.9 C5.4,24.7 4.9,24.6 4.5,24.6 C3.6,24.6 2.9,25.1 2.1,25.3 C3.68744892,22.5791193 4.6354534,20.691058 4.94401345,19.6358163 C5.36048881,18.211516 4.40271535,16.6343536 4.75912401,16 C5.4527996,14.7653621 7.93284809,14.5721738 8.48824873,14.1 C10.1,12.7297697 9.71574941,10.4070566 9.9,10 C10.8853223,7.82317154 12.8864872,9.53808065 14.9870772,8.5 C16.3612693,7.8208945 18.404573,4.9348085 18.9,4.42908793 C20.3,3 22.751902,2.7514753 22.5530823,3 C22.0530823,3.7 21.1,4.8 20.7,5.6 C20.4,6 20.2,6.5 20.3,7 C20.3,7.5 20.7,7.9 21.1,8.1 C21.9,8.5 22.8,8.7 23.4,9.3 C23.7,9.6 23.9,9.9 24,10.3 C24.1,10.7 24.1,11.1 24,11.5 C24,11.9 23.9,12.4 24,12.9 C24.1,13.4 24.3,13.8 24.6,14.1 C24.9,14.5 25.4,14.7 25.7,14.9 C26,15.1 26.3,15.4 26.6,15.6 C26.7,15.7 26.7,15.8 26.8,15.8 C26.8,16 26.8,16.2 26.8,16.4 C26.7,17.2 26.4,18 25.9,18.7 C25.7,18.9 25.6,19.2 25.4,19.5 C25.3,19.6 25.3,19.8 25.2,20 C25.1,20.5 25.3,21.1 25.7,21.4 C26.1,21.7 26.5,21.9 26.8,22.2 C27.1,22.4 27.3,22.8 27.5,23.1 C27.8,23.6 27.8,24 27.8,24.4 Z" id="Path" fill="url(#linearGradient-1)"></path>
        <path d="M29.2,6 C28.9,6.4 28.8,6.9 28.9,7.3 C29.1,8.2 29.6,8.9 29.5,9.8 C29.5,10.2 29.4,10.6 29.1,11 C28.9,11.3 28.6,11.6 28.2,11.9 C27.9,12.1 27.5,12.4 27.2,12.8 C27.1,12.9 27,13 27,13.2 C26.9,13.4 26.9,13.5 26.8,13.7 C26.8,13.9 26.7,14 26.7,14.2 C26.6,14.6 26.7,15 26.8,15.3 C26.6,15.1 26.3,14.9 26,14.7 C25.6,14.5 25.2,14.3 25,14 C24.5,13.4 24.3,12.6 24.4,11.7 C24.4,11.3 24.4,10.8 24.3,10.3 C24.1,9.9 23.9,9.4 23.6,9.1 C22.9,8.4 22,8.3 21.2,7.9 C20.9,7.7 20.6,7.4 20.5,7 C20.4,6.6 20.6,6.2 20.7,5.8 C21.1,5 21.7,4.4 22.2,3.7 C22.6,3.2 22.9,2.7 23.2,2.1 L28,2.1 C29.1045695,2.1 30,2.9954305 30,4.1 L30,5.5 L30,5.5 C29.7,5.5 29.4,5.7 29.2,6 Z" id="Path" fill="url(#linearGradient-2)"></path>
        <rect id="Rectangle" stroke="#0077BE" transform="translate(16.000000, 16.000000) rotate(-180.000000) translate(-16.000000, -16.000000) " x="2.5" y="2.5" width="27" height="27" rx="2"></rect>
    </g>
</svg>