<?xml version="1.0" encoding="UTF-8"?>
<svg width="16px" height="16px" viewBox="0 0 16 16" version="1.1" xmlns="http://www.w3.org/2000/svg" xmlns:xlink="http://www.w3.org/1999/xlink">
    <title>expert_rules_16x16</title>
    <defs>
        <linearGradient x1="50%" y1="3.49530347%" x2="50%" y2="100%" id="linearGradient-1">
            <stop stop-color="#1AAAFF" offset="0%"></stop>
            <stop stop-color="#0077BE" offset="100%"></stop>
        </linearGradient>
        <linearGradient x1="50%" y1="3.49530347%" x2="50%" y2="100%" id="linearGradient-2">
            <stop stop-color="#1AAAFF" offset="0%"></stop>
            <stop stop-color="#0077BE" offset="100%"></stop>
        </linearGradient>
    </defs>
    <g id="expert_rules_16x16" stroke="none" stroke-width="1" fill="none" fill-rule="evenodd">
        <path d="M14.0009066,15 L2.00006974,15 C1.44774647,15 1,14.5522847 1,14 L1,2 C1,1.44771525 1.44774647,1 2.00006974,1 L14.0009066,1 C14.5532298,1 15.0009763,1.44771525 15.0009763,2 L15.0009763,14 C15.0009763,14.5522847 14.5532298,15 14.0009066,15 Z" id="Rectangle" fill="#FFFFFF"></path>
        <path d="M13.9008996,15 L3.2,15 C1.98497355,15 1,14.0150264 1,12.8 L1,12.8 L1,12.8 C1.40002789,12.65 1.7500523,12.4 2.20008368,12.45 C2.40009763,12.45 2.60011158,12.5 2.80012553,12.6 C3.00013947,12.7 3.10014645,12.85 3.25015691,13 C3.40016737,13.15 3.55017783,13.35 3.75019177,13.45 C3.95020572,13.6 4.15021967,13.65 4.4002371,13.7 C4.65025454,13.7 4.90027197,13.65 5.10028592,13.6 C5.30029987,13.55 5.50031381,13.55 5.70032776,13.55 C6.10035566,13.6 6.50038355,13.7 6.85040796,13.95 C7.0504219,14.05 7.20043237,14.2 7.50045329,14.25 C7.75047072,14.3 8.05049164,14.15 8.2005021,13.95 C8.35051256,13.75 8.45051954,13.55 8.55052651,13.4 C8.65053348,13.25 8.85054743,13.1 9.00055789,13.05 C9.3505823,12.9 9.75061019,12.95 10.2006416,12.95 C10.7506799,12.95 11.3507218,12.95 11.9007601,12.85 C12.0007671,12.85 12.1007741,12.85 12.200781,12.8 L12.2507845,12.85 C12.5508055,13.15 13.0008368,13.35 13.3508612,13.35 C13.5508752,13.35 13.7508891,13.35 13.9008996,13.4 C13.8508961,13.9 13.9008996,14.45 13.9008996,15 Z" id="Path" fill="#0656AB"></path>
        <path d="M13.9008996,12.2 C13.9008996,12.3 13.9008996,12.4 13.9008996,12.45 C13.9008996,12.5 13.9008996,12.55 13.9008996,12.6 C13.9008996,12.65 13.9008996,12.75 13.9008996,12.8 C13.9008996,12.85 13.9008996,12.85 13.9008996,12.9 C13.7008857,12.9 13.5508752,12.9 13.3508612,12.9 C13.0008368,12.9 12.7008159,12.8 12.4507985,12.55 C12.200781,12.3 12.0507706,12 11.9507636,11.65 C11.9007601,11.55 11.9007601,11.5 11.9007601,11.4 C11.8507566,11.15 11.8007532,10.9 11.8007532,10.65 C11.8007532,10.5 11.8507566,10.3 11.9007601,10.15 C11.9507636,10 12.0007671,9.8 12.0007671,9.55 C11.9507636,9.3 11.8007532,9.1 11.6007392,9 C11.4007253,8.9 11.2007113,8.9 11.0006974,8.85 C10.6006695,8.85 10.2506451,8.85 9.95062414,8.7 C9.65060322,8.55 9.50059276,8.2 9.45058927,7.85 C9.40058579,7.5 9.50059276,7.1 9.40058579,6.75 C9.3505823,6.35 8.90055092,6.05 8.50052302,6.05 C8.10049513,6.05 7.75047072,6.15 7.40044631,6.2 C7.0504219,6.25 6.65039401,6.15 6.40037658,5.95 C6.10035566,5.75 5.90034171,5.45 5.75033125,5.1 C5.45031033,4.45 5.52117403,4.62890625 5.47771397,4.56954193 C5.52395133,4.71159363 5.40030684,4.45 5.70032776,5.1 C5.85033822,5.45 6.05035217,5.75 6.35037309,6 C6.65039401,6.25 7.0504219,6.3 7.4504498,6.3 C7.85047769,6.3 8.2005021,6.2 8.55052651,6.2 C8.90055092,6.2 9.20057184,6.45 9.25057532,6.8 C9.30057881,7.15 9.25057532,7.5 9.25057532,7.9 C9.25057532,8.3 9.45058927,8.7 9.80061368,8.9 C10.1506381,9.1 10.550666,9.1 10.9506939,9.15 C11.1507078,9.15 11.3007183,9.2 11.4507287,9.25 C11.5507357,9.3 11.6507427,9.45 11.7007462,9.6 C11.7007462,9.85 11.5007322,10.3 11.5007322,10.65 C11.5007322,10.95 11.5007322,11.2 11.5507357,11.5 C11.1007043,11.55 10.7006764,11.4 10.350652,11.1 C10.1506381,10.95 9.90062065,10.8 9.65060322,10.75 C9.40058579,10.7 9.10056486,10.7 8.85054743,10.75 C8.35051256,10.9 8.00048815,11.35 7.60046026,11.6 C7.40044631,11.7 7.15042888,11.75 6.95041493,11.7 C6.75040098,11.6 6.55038704,11.45 6.45038006,11.25 C6.20036263,10.85 6.05035217,10.35 5.85033822,9.9 C5.65032427,9.45 5.40030684,9 5.10028592,8.6 C4.75026151,8.2 4.30023013,7.95 3.80019526,7.85 C3.25271245,7.78156942 2.9001325,7.86054993 2.52832007,7.92765045 C2.50206048,7.93238949 2.59162557,7.94216919 2.52832007,7.96457672 C2.57733472,7.96457672 3.00013947,7.8 3.80019526,7.9 C4.30023013,8 4.70025802,8.25 5.05028243,8.65 C5.40030684,9.05 5.60032079,9.5 5.80033473,9.95 C6.00034868,10.4 6.15035914,10.9 6.40037658,11.35 C6.55038704,11.55 6.7003975,11.8 6.95041493,11.9 C7.20043237,12 7.50045329,11.95 7.75047072,11.8 C8.2005021,11.55 8.50052302,11.15 9.00055789,11.05 C9.25057532,11 9.45058927,11 9.70060671,11.05 C9.95062414,11.1 10.1006346,11.25 10.3006485,11.4 C10.5006625,11.55 10.7506799,11.7 11.0006974,11.8 C11.2507148,11.85 11.4507287,11.9 11.7007462,11.85 C11.7007462,11.85 11.7007462,11.9 11.7007462,11.9 C11.7507497,12.15 11.8507566,12.35 11.9507636,12.55 C11.8507566,12.55 11.8007532,12.55 11.7007462,12.6 C11.2007113,12.65 10.7006764,12.7 10.2006416,12.7 C9.80061368,12.7 9.30057881,12.65 8.85054743,12.9 C8.65053348,13 8.45051954,13.15 8.30050908,13.35 C8.15049861,13.55 8.05049164,13.75 7.95048467,13.9 C7.85047769,13.9 7.65046375,14 7.50045329,14 C7.35044283,14 7.15042888,13.85 6.95041493,13.75 C6.55038704,13.5 6.10035566,13.35 5.65032427,13.35 C5.40030684,13.35 5.20029289,13.35 4.95027546,13.4 C4.75026151,13.45 4.60025105,13.5 4.4002371,13.5 C4.00020921,13.45 3.6501848,13.25 3.40016737,12.9 C3.25015691,12.75 3.10014645,12.55 2.9001325,12.45 C2.70011855,12.35 2.45010112,12.3 2.25008717,12.3 C1.80005579,12.3 1.45003138,12.55 1.05000349,12.65 C1.8437833,11.2895596 2.31781859,10.345529 2.47210938,9.81790816 C2.68036158,9.10575799 2.20144145,8.3171768 2.37965821,8 C2.7265202,7.38268107 3.96663091,7.28608692 4.2443506,7.05 C5.05028243,6.36488487 4.85814374,5.20352829 4.95027546,5 C5.44297097,3.91158577 6.44362321,4.76904033 7.49399145,4.25 C8.18113541,3.91044725 9.20285848,2.46740425 9.45058927,2.21454397 C10.1506381,1.5 11.3766746,1.37573765 11.2772578,1.5 C11.0272403,1.85 10.550666,2.4 10.350652,2.8 C10.2006416,3 10.1006346,3.25 10.1506381,3.5 C10.1506381,3.75 10.350652,3.95 10.550666,4.05 C10.9506939,4.25 11.4007253,4.35 11.7007462,4.65 C11.8507566,4.8 11.9507636,4.95 12.0007671,5.15 C12.0507706,5.35 12.0507706,5.55 12.0007671,5.75 C12.0007671,5.95 11.9507636,6.2 12.0007671,6.45 C12.0507706,6.7 12.1507776,6.9 12.300788,7.05 C12.4507985,7.25 12.7008159,7.35 12.8508264,7.45 C13.0008368,7.55 13.1508473,7.7 13.3008578,7.8 C13.3508612,7.85 13.3508612,7.9 13.4008647,7.9 C13.4008647,8 13.4008647,8.1 13.4008647,8.2 C13.3508612,8.6 13.2008508,9 12.9508333,9.35 C12.8508264,9.45 12.8008229,9.6 12.7008159,9.75 C12.6508124,9.8 12.6508124,9.9 12.6008089,10 C12.5508055,10.25 12.6508124,10.55 12.8508264,10.7 C13.0508403,10.85 13.2508543,10.95 13.4008647,11.1 C13.5508752,11.2 13.6508822,11.4 13.7508891,11.55 C13.9008996,11.8 13.9008996,12 13.9008996,12.2 Z" id="Path" fill="url(#linearGradient-1)"></path>
        <path d="M14.6009484,3 C14.450938,3.2 14.4009345,3.45 14.450938,3.65 C14.5509449,4.1 14.8009624,4.45 14.7509589,4.9 C14.7509589,5.1 14.7009554,5.3 14.5509449,5.5 C14.450938,5.65 14.3009275,5.8 14.1009135,5.95 C13.9509031,6.05 13.7508891,6.2 13.6008787,6.4 C13.5508752,6.45 13.5008717,6.5 13.5008717,6.6 C13.4508682,6.7 13.4508682,6.75 13.4008647,6.85 C13.4008647,6.95 13.3508612,7 13.3508612,7.1 C13.3008578,7.3 13.3508612,7.5 13.4008647,7.65 C13.3008578,7.55 13.1508473,7.45 13.0008368,7.35 C12.8008229,7.25 12.6008089,7.15 12.500802,7 C12.2507845,6.7 12.1507776,6.3 12.200781,5.85 C12.200781,5.65 12.200781,5.4 12.1507776,5.15 C12.0507706,4.95 11.9507636,4.7 11.8007532,4.55 C11.4507287,4.2 11.0006974,4.15 10.6006695,3.95 C10.450659,3.85 10.3006485,3.7 10.2506451,3.5 C10.2006416,3.3 10.3006485,3.1 10.350652,2.9 C10.550666,2.5 10.8506869,2.2 11.1007043,1.85 C11.3007183,1.6 11.4507287,1.35 11.6007392,1.05 L13.3009763,1.05 C14.2398604,1.05 15.0009763,1.81111593 15.0009763,2.75 L15.0009763,2.75 L15.0009763,2.75 C14.8509658,2.75 14.7009554,2.85 14.6009484,3 Z" id="Path" fill="url(#linearGradient-2)"></path>
        <path d="M15.0009763,2.85 L15.0009763,13.4 C14.8509658,13.3 14.7009554,13.2 14.5009414,13.1 C14.4009345,13.05 14.3009275,13.05 14.2009205,13 L14.2009205,12.9 C14.2009205,12.9 14.2009205,12.85 14.2009205,12.8 C14.2009205,12.7 14.2009205,12.55 14.2009205,12.4 C14.2009205,12.1 14.2009205,11.8 14.0509101,11.5 C13.9509031,11.3 13.8008926,11.1 13.6008787,10.95 C13.4008647,10.8 13.2008508,10.7 13.0508403,10.6 C12.9008299,10.5 12.8508264,10.3 12.8508264,10.15 C12.8508264,10.15 12.8508264,10.15 12.8508264,10.15 C12.8508264,10.05 12.9008299,10 12.9508333,9.9 C13.0008368,9.8 13.0508403,9.75 13.1008438,9.65 C13.3508612,9.3 13.5508752,8.85 13.6008787,8.4 C13.6008787,8.15 13.6008787,7.95 13.5508752,7.7 C13.5008717,7.5 13.4508682,7.3 13.5008717,7.1 C13.5008717,7.1 13.5008717,7.1 13.5008717,7.1 C13.5008717,7 13.5508752,6.9 13.6008787,6.8 C13.7008857,6.55 13.9008996,6.3 14.150917,6.15 C14.350931,6 14.5009414,5.85 14.6509519,5.65 C14.7509589,5.45 14.8509658,5.2 14.8509658,5 C14.9009693,4.5 14.6009484,4.1 14.5009414,3.75 C14.450938,3.55 14.450938,3.35 14.6009484,3.2 C14.7509589,2.95 14.9009693,2.9 15.0009763,2.85 Z" id="Path-3" fill="#0656AB"></path>
        <path d="M14.9009693,13.8942659 L14.9009693,14.1942171 C14.9009693,14.5808434 14.5875468,14.8942659 14.2009205,14.8942659 L14.2009205,14.8942659 L14.2009205,14.8942659 C14.150917,14.3942659 14.1009135,13.8442659 14.1009135,13.3442659 C14.150917,13.3442659 14.2009205,13.3942659 14.250924,13.3942659 C14.450938,13.4942659 14.6509519,13.6442659 14.8009624,13.7942659 C14.8509658,13.8442659 14.9009693,13.8442659 14.9009693,13.8942659 Z" id="Path-2" fill="#0656AB"></path>
        <path d="M14.0009066,1.5 L14.5009763,14 L2.00006974,14.5 L1.5,2 L14.0009066,1.5 Z" id="Rectangle" stroke="#0077BE"></path>
    </g>
</svg>