<?xml version="1.0" encoding="UTF-8"?>
<svg width="16px" height="16px" viewBox="0 0 16 16" version="1.1" xmlns="http://www.w3.org/2000/svg" xmlns:xlink="http://www.w3.org/1999/xlink">
    <title>explorer_database_16x16</title>
    <g id="explorer_database_16x16" stroke="none" stroke-width="1" fill="none" fill-rule="evenodd">
        <path d="M3.22405784,5.4986448 C4.06340287,4.6260265 4.99820529,4.30141705 6.48156236,4.58218611 C7.45765375,4.76694018 8.15234978,5.26034604 8.54991599,6.08202507 C8.63814541,6.26437522 8.70461575,6.44816636 8.7496538,6.63329632 C8.89936822,6.51578129 9.06668202,6.40373842 9.25111615,6.29662003 C9.64233429,6.06940256 10.014627,5.92007349 10.3702692,5.85519427 C10.8541397,5.76692256 11.5287632,5.87291659 12.0976744,6.50317522 C12.3586861,6.79233252 12.4618088,7.23186386 12.4618088,7.7959717 C12.4618088,8.00014403 12.4482998,8.1879969 12.4187986,8.35828242 C12.5954457,8.32622889 12.7849759,8.30553571 12.9870187,8.29533575 C13.6521323,8.26175806 14.1937893,8.35497237 14.6019559,8.60708701 C15.2241067,8.99137449 15.5,9.63657873 15.5,10.3451604 C15.5,11.0349301 15.2909517,11.5429316 14.9666659,11.8895538 C14.5622741,12.3217997 13.9953527,12.5 13.5162395,12.5 L13.5162395,12.5 L2.50005067,12.5 C1.99363569,12.5 1.45161219,12.2889471 1.05832334,11.8956663 C0.72243839,11.5597881 0.5,11.0878924 0.5,10.5 C0.5,10.0875262 0.628313417,9.72338079 0.88654587,9.40814144 C1.17610923,9.05465462 1.61588908,8.76391284 2.19330951,8.52039329 C2.38822904,6.97095922 2.61742874,6.12932186 3.22405784,5.4986448 Z" id="Rectangle" stroke="#0077BE"></path>
    </g>
</svg>