<?xml version="1.0" encoding="UTF-8"?>
<svg width="16px" height="16px" viewBox="0 0 16 16" version="1.1" xmlns="http://www.w3.org/2000/svg" xmlns:xlink="http://www.w3.org/1999/xlink">
    <title>explorer_search_16x16</title>
    <g id="explorer_search_16x16" stroke="none" stroke-width="1" fill="none" fill-rule="evenodd">
        <path d="M3,9.74548988 C3.27614237,9.74548988 3.5,9.96934751 3.5,10.2454899 L3.5,15.7545101 C3.5,16.0306525 3.27614237,16.2545101 3,16.2545101 C2.72385763,16.2545101 2.5,16.0306525 2.5,15.7545101 L2.5,10.2454899 C2.5,9.96934751 2.72385763,9.74548988 3,9.74548988 Z" id="Rectangle-21" fill="#0077BE" transform="translate(3.000000, 13.000000) rotate(-315.000000) translate(-3.000000, -13.000000) "></path>
        <path d="M8.99166012,1.50001605 C10.6726357,1.56022538 12.0032998,2.18985462 12.9618361,3.18503896 C13.9143159,4.17393521 14.5,5.51857438 14.5,7 C14.5,8.51878306 13.8843915,9.89378306 12.8890873,10.8890873 C11.8956663,11.8825083 10.5239849,12.4976691 9.00833988,12.499984 C7.32736433,12.4397746 5.99670018,11.8101454 5.03816386,10.814961 C4.08568408,9.82606479 3.5,8.48142562 3.5,7 C3.5,5.48121694 4.11560847,4.10621694 5.1109127,3.1109127 C6.10433373,2.11749167 7.47601505,1.50233093 8.99166012,1.50001605 Z" id="Oval-6" stroke="#0077BE"></path>
    </g>
</svg>