<svg x="0" y="0" width="1431" height="345" version="1.1" xmlns="http://www.w3.org/2000/svg" xmlns:xlink="http://www.w3.org/1999/xlink"><g fill="none" stroke="none" stroke-width="1" stroke-linecap="butt" stroke-linejoin="miter" stroke-miterlimit="10" stroke-dasharray="" stroke-dashoffset="0" font-family="sans-serif" font-weight="normal" font-size="12" text-anchor="start" mix-blend-mode="normal"/><g id="1 cm. Tick Group" fill="none" stroke="none" stroke-width="none" stroke-linecap="butt" stroke-linejoin="miter" stroke-miterlimit="10" stroke-dasharray="" stroke-dashoffset="0" font-family="none" font-weight="none" font-size="none" text-anchor="none" mix-blend-mode="normal"><line x1="0" y1="0" x2="0" y2="28.34646" id="1 cm. Tick no. 0" stroke="#000000" stroke-width="1" font-family="sans-serif" font-weight="normal" font-size="12" text-anchor="start"/><text x="4" y="29.34646" id="1 cm. label no. 0" fill="#000000" stroke-width="1" font-family="monospace" font-weight="bold" font-size="7" text-anchor="start">0</text><line x1="28.34646" y1="0" x2="28.34646" y2="28.34646" id="1 cm. Tick no. 1" stroke="#000000" stroke-width="1" font-family="sans-serif" font-weight="normal" font-size="12" text-anchor="start"/><text x="32.34646" y="29.34646" id="1 cm. label no. 1" fill="#000000" stroke-width="1" font-family="monospace" font-weight="bold" font-size="7" text-anchor="start">1</text><line x1="56.69291" y1="0" x2="56.69291" y2="28.34646" id="1 cm. Tick no. 2" stroke="#000000" stroke-width="1" font-family="sans-serif" font-weight="normal" font-size="12" text-anchor="start"/><text x="60.69291" y="29.34646" id="1 cm. label no. 2" fill="#000000" stroke-width="1" font-family="monospace" font-weight="bold" font-size="7" text-anchor="start">2</text><line x1="85.03937" y1="0" x2="85.03937" y2="28.34646" id="1 cm. Tick no. 3" stroke="#000000" stroke-width="1" font-family="sans-serif" font-weight="normal" font-size="12" text-anchor="start"/><text x="89.03937" y="29.34646" id="1 cm. label no. 3" fill="#000000" stroke-width="1" font-family="monospace" font-weight="bold" font-size="7" text-anchor="start">3</text><line x1="113.38583" y1="0" x2="113.38583" y2="28.34646" id="1 cm. Tick no. 4" stroke="#000000" stroke-width="1" font-family="sans-serif" font-weight="normal" font-size="12" text-anchor="start"/><text x="117.38583" y="29.34646" id="1 cm. label no. 4" fill="#000000" stroke-width="1" font-family="monospace" font-weight="bold" font-size="7" text-anchor="start">4</text><line x1="141.73228" y1="0" x2="141.73228" y2="28.34646" id="1 cm. Tick no. 5" stroke="#000000" stroke-width="1" font-family="sans-serif" font-weight="normal" font-size="12" text-anchor="start"/><text x="137.73228" y="29.34646" id="1 cm. label no. 5" fill="#000000" stroke-width="1" font-family="monospace" font-weight="bold" font-size="7" text-anchor="end">5</text></g><g id="1/10th cm. Tick Group" fill="none" stroke="#000000" stroke-width="1" stroke-linecap="butt" stroke-linejoin="miter" stroke-miterlimit="10" stroke-dasharray="" stroke-dashoffset="0" font-family="sans-serif" font-weight="normal" font-size="12" text-anchor="start" mix-blend-mode="normal"><line x1="2.83465" y1="0" x2="2.83465" y2="14.17323" id="1/10th cm. Tick no. 1"/><line x1="5.66929" y1="0" x2="5.66929" y2="14.17323" id="1/10th cm. Tick no. 2"/><line x1="8.50394" y1="0" x2="8.50394" y2="14.17323" id="1/10th cm. Tick no. 3"/><line x1="11.33858" y1="0" x2="11.33858" y2="14.17323" id="1/10th cm. Tick no. 4"/><line x1="14.17323" y1="0" x2="14.17323" y2="14.17323" id="1/10th cm. Tick no. 5"/><line x1="17.00787" y1="0" x2="17.00787" y2="14.17323" id="1/10th cm. Tick no. 6"/><line x1="19.84252" y1="0" x2="19.84252" y2="14.17323" id="1/10th cm. Tick no. 7"/><line x1="22.67717" y1="0" x2="22.67717" y2="14.17323" id="1/10th cm. Tick no. 8"/><line x1="25.51181" y1="0" x2="25.51181" y2="14.17323" id="1/10th cm. Tick no. 9"/><line x1="31.1811" y1="0" x2="31.1811" y2="14.17323" id="1/10th cm. Tick no. 11"/><line x1="34.01575" y1="0" x2="34.01575" y2="14.17323" id="1/10th cm. Tick no. 12"/><line x1="36.85039" y1="0" x2="36.85039" y2="14.17323" id="1/10th cm. Tick no. 13"/><line x1="39.68504" y1="0" x2="39.68504" y2="14.17323" id="1/10th cm. Tick no. 14"/><line x1="42.51969" y1="0" x2="42.51969" y2="14.17323" id="1/10th cm. Tick no. 15"/><line x1="45.35433" y1="0" x2="45.35433" y2="14.17323" id="1/10th cm. Tick no. 16"/><line x1="48.18898" y1="0" x2="48.18898" y2="14.17323" id="1/10th cm. Tick no. 17"/><line x1="51.02362" y1="0" x2="51.02362" y2="14.17323" id="1/10th cm. Tick no. 18"/><line x1="53.85827" y1="0" x2="53.85827" y2="14.17323" id="1/10th cm. Tick no. 19"/><line x1="59.52756" y1="0" x2="59.52756" y2="14.17323" id="1/10th cm. Tick no. 21"/><line x1="62.3622" y1="0" x2="62.3622" y2="14.17323" id="1/10th cm. Tick no. 22"/><line x1="65.19685" y1="0" x2="65.19685" y2="14.17323" id="1/10th cm. Tick no. 23"/><line x1="68.0315" y1="0" x2="68.0315" y2="14.17323" id="1/10th cm. Tick no. 24"/><line x1="70.86614" y1="0" x2="70.86614" y2="14.17323" id="1/10th cm. Tick no. 25"/><line x1="73.70079" y1="0" x2="73.70079" y2="14.17323" id="1/10th cm. Tick no. 26"/><line x1="76.53543" y1="0" x2="76.53543" y2="14.17323" id="1/10th cm. Tick no. 27"/><line x1="79.37008" y1="0" x2="79.37008" y2="14.17323" id="1/10th cm. Tick no. 28"/><line x1="82.20472" y1="0" x2="82.20472" y2="14.17323" id="1/10th cm. Tick no. 29"/><line x1="87.87402" y1="0" x2="87.87402" y2="14.17323" id="1/10th cm. Tick no. 31"/><line x1="90.70866" y1="0" x2="90.70866" y2="14.17323" id="1/10th cm. Tick no. 32"/><line x1="93.54331" y1="0" x2="93.54331" y2="14.17323" id="1/10th cm. Tick no. 33"/><line x1="96.37795" y1="0" x2="96.37795" y2="14.17323" id="1/10th cm. Tick no. 34"/><line x1="99.2126" y1="0" x2="99.2126" y2="14.17323" id="1/10th cm. Tick no. 35"/><line x1="102.04724" y1="0" x2="102.04724" y2="14.17323" id="1/10th cm. Tick no. 36"/><line x1="104.88189" y1="0" x2="104.88189" y2="14.17323" id="1/10th cm. Tick no. 37"/><line x1="107.71654" y1="0" x2="107.71654" y2="14.17323" id="1/10th cm. Tick no. 38"/><line x1="110.55118" y1="0" x2="110.55118" y2="14.17323" id="1/10th cm. Tick no. 39"/><line x1="116.22047" y1="0" x2="116.22047" y2="14.17323" id="1/10th cm. Tick no. 41"/><line x1="119.05512" y1="0" x2="119.05512" y2="14.17323" id="1/10th cm. Tick no. 42"/><line x1="121.88976" y1="0" x2="121.88976" y2="14.17323" id="1/10th cm. Tick no. 43"/><line x1="124.72441" y1="0" x2="124.72441" y2="14.17323" id="1/10th cm. Tick no. 44"/><line x1="127.55906" y1="0" x2="127.55906" y2="14.17323" id="1/10th cm. Tick no. 45"/><line x1="130.3937" y1="0" x2="130.3937" y2="14.17323" id="1/10th cm. Tick no. 46"/><line x1="133.22835" y1="0" x2="133.22835" y2="14.17323" id="1/10th cm. Tick no. 47"/><line x1="136.06299" y1="0" x2="136.06299" y2="14.17323" id="1/10th cm. Tick no. 48"/><line x1="138.89764" y1="0" x2="138.89764" y2="14.17323" id="1/10th cm. Tick no. 49"/></g></svg>