<?xml version="1.0" encoding="UTF-8"?>
<svg width="16px" height="16px" viewBox="0 0 16 16" version="1.1" xmlns="http://www.w3.org/2000/svg" xmlns:xlink="http://www.w3.org/1999/xlink">
    <title>export_from_inventory_16x16</title>
    <defs>
        <linearGradient x1="23.7819474%" y1="0%" x2="23.7819474%" y2="92.2996132%" id="linearGradient-1">
            <stop stop-color="#F16464" offset="0%"></stop>
            <stop stop-color="#F79494" offset="54.49984%"></stop>
            <stop stop-color="#FFD3D3" stop-opacity="0" offset="100%"></stop>
        </linearGradient>
    </defs>
    <g id="export_from_inventory_16x16" stroke="none" stroke-width="1" fill="none" fill-rule="evenodd">
        <g id="Group-2" stroke="#0077BE">
            <rect id="Rectangle-7-Copy" x="0.5" y="0.5" width="12" height="4" rx="1"></rect>
            <rect id="Rectangle-7-Copy" x="0.5" y="2.5" width="12" height="2" rx="1"></rect>
            <path d="M14,4.5 C14.4142136,4.5 14.7892136,4.66789322 15.0606602,4.93933983 C15.3321068,5.21078644 15.5,5.58578644 15.5,6 L15.5,6 L15.5,14 C15.5,14.4142136 15.3321068,14.7892136 15.0606602,15.0606602 C14.7892136,15.3321068 14.4142136,15.5 14,15.5 L14,15.5 L2,15.5 C1.58578644,15.5 1.21078644,15.3321068 0.939339828,15.0606602 C0.667893219,14.7892136 0.5,14.4142136 0.5,14 L0.5,14 L0.5,4.5 Z" id="Rectangle-7-Copy-10"></path>
        </g>
        <g id="Group-2" transform="translate(7.255222, 9.500000) rotate(-90.000000) translate(-7.255222, -9.500000) translate(3.755222, 3.500000)">
            <polygon id="Fill-21" fill="url(#linearGradient-1)" transform="translate(3.500000, 4.372389) rotate(-180.000000) translate(-3.500000, -4.372389) " points="2 8 5 8 5 0.74477789 2 0.74477789"></polygon>
            <polygon id="Fill-22" fill="#F16464" transform="translate(3.500000, 10.000000) rotate(-180.000000) translate(-3.500000, -10.000000) " points="3.5 8 4.26325641e-14 12 7 12"></polygon>
        </g>
    </g>
</svg>