<?xml version="1.0" encoding="UTF-8"?>
<svg width="16px" height="16px" viewBox="0 0 16 16" version="1.1" xmlns="http://www.w3.org/2000/svg" xmlns:xlink="http://www.w3.org/1999/xlink">
    <title>family_group_16x16</title>
    <defs>
        <linearGradient x1="100%" y1="68.9349112%" x2="-33.1445979%" y2="50%" id="linearGradient-1">
            <stop stop-color="#1AAAFF" offset="0%"></stop>
            <stop stop-color="#0077BE" offset="100%"></stop>
        </linearGradient>
        <linearGradient x1="100%" y1="74.9875887%" x2="-69.1084876%" y2="5.72507684%" id="linearGradient-2">
            <stop stop-color="#1AAAFF" offset="0%"></stop>
            <stop stop-color="#0077BE" offset="100%"></stop>
        </linearGradient>
        <linearGradient x1="100%" y1="65.1415902%" x2="-4.34385004%" y2="38.5699158%" id="linearGradient-3">
            <stop stop-color="#1AAAFF" offset="0%"></stop>
            <stop stop-color="#0077BE" offset="100%"></stop>
        </linearGradient>
    </defs>
    <g id="family_group_16x16" stroke="none" stroke-width="1" fill="none" fill-rule="evenodd">
        <g id="Group-2" transform="translate(7.000000, 3.000000)" fill="url(#linearGradient-1)" stroke="url(#linearGradient-2)">
            <path d="M-1,3 L-1,4.5 C-1,5.46649831 -0.608249156,6.34149831 0.0251262658,6.97487373 C0.658501688,7.60824916 1.53350169,8 2.5,8 L2.5,8 L10,8 L10,8.5 C10,8.91421356 9.83210678,9.28921356 9.56066017,9.56066017 C9.28921356,9.83210678 8.91421356,10 8.5,10 L8.5,10 L-0.5,10 C-0.914213562,10 -1.28921356,9.83210678 -1.56066017,9.56066017 C-1.83210678,9.28921356 -2,8.91421356 -2,8.5 L-2,8.5 L-2,3 L-1,3 Z" id="Rectangle-7-Copy-10" transform="translate(4.000000, 6.500000) rotate(-90.000000) translate(-4.000000, -6.500000) "></path>
        </g>
        <g id="Group-2" transform="translate(2.000000, 0.000000)" fill="url(#linearGradient-3)" stroke="#0077BE">
            <path d="M10.5,2.5 L10.5,9 C10.5,9.41421356 10.3321068,9.78921356 10.0606602,10.0606602 C9.78921356,10.3321068 9.41421356,10.5 9,10.5 L9,10.5 L-1.55448987e-11,10.5 C-0.414213562,10.5 -0.789213562,10.3321068 -1.06066017,10.0606602 C-1.33210678,9.78921356 -1.5,9.41421356 -1.5,9 L-1.5,9 L-1.5,2.5 L10.5,2.5 Z" id="Rectangle-7-Copy-10" transform="translate(4.500000, 6.500000) rotate(-90.000000) translate(-4.500000, -6.500000) "></path>
        </g>
        <g id="Group-2" transform="translate(2.000000, 0.000000)" fill="url(#linearGradient-3)" stroke="#0077BE">
            <path d="M10.5,2.5 L10.5,9 C10.5,9.41421356 10.3321068,9.78921356 10.0606602,10.0606602 C9.78921356,10.3321068 9.41421356,10.5 9,10.5 L9,10.5 L-1.55448987e-11,10.5 C-0.414213562,10.5 -0.789213562,10.3321068 -1.06066017,10.0606602 C-1.33210678,9.78921356 -1.5,9.41421356 -1.5,9 L-1.5,9 L-1.5,2.5 L10.5,2.5 Z" id="Rectangle-7-Copy-10" transform="translate(4.500000, 6.500000) rotate(-90.000000) translate(-4.500000, -6.500000) "></path>
        </g>
        <rect id="Rectangle-Copy-7" fill="#0077BE" x="0" y="1.5" width="2.99176229" height="1" rx="0.5"></rect>
        <rect id="Rectangle-Copy-11" fill="#FFFFFF" x="4.00823771" y="3" width="3.99176229" height="1" rx="0.5"></rect>
        <rect id="Rectangle-Copy-9" fill="#0077BE" x="0" y="7.5" width="2.99176229" height="1" rx="0.5"></rect>
        <rect id="Rectangle-Copy-12" fill="#FFFFFF" x="4.00823771" y="9" width="2.99176229" height="1" rx="0.5"></rect>
        <rect id="Rectangle-Copy-8" fill="#0077BE" x="0" y="4.5" width="2.99176229" height="1" rx="0.5"></rect>
        <rect id="Rectangle-Copy-13" fill="#FFFFFF" x="4.00823771" y="6" width="3.99176229" height="1" rx="0.5"></rect>
        <rect id="Rectangle-Copy-10" fill="#0077BE" x="0" y="10.5" width="2.99176229" height="1" rx="0.5"></rect>
    </g>
</svg>