<?xml version="1.0" encoding="UTF-8"?>
<svg width="16px" height="16px" viewBox="0 0 16 16" version="1.1" xmlns="http://www.w3.org/2000/svg" xmlns:xlink="http://www.w3.org/1999/xlink">
    <title>family_16x16</title>
    <defs>
        <linearGradient x1="100%" y1="66.1182209%" x2="-4.34385004%" y2="37.8326768%" id="linearGradient-1">
            <stop stop-color="#1AAAFF" offset="0%"></stop>
            <stop stop-color="#0077BE" offset="100%"></stop>
        </linearGradient>
    </defs>
    <g id="family_16x16" stroke="none" stroke-width="1" fill="none" fill-rule="evenodd">
        <g id="Group-2" transform="translate(3.000000, 1.000000)" fill="url(#linearGradient-1)" stroke="#0077BE">
            <path d="M11.5,2.5 L11.5,10 C11.5,10.4142136 11.3321068,10.7892136 11.0606602,11.0606602 C10.7892136,11.3321068 10.4142136,11.5 10,11.5 L10,11.5 L-1.5869972e-11,11.5 C-0.414213562,11.5 -0.789213562,11.3321068 -1.06066017,11.0606602 C-1.33210678,10.7892136 -1.5,10.4142136 -1.5,10 L-1.5,10 L-1.5,2.5 L11.5,2.5 Z" id="Rectangle-7-Copy-10" transform="translate(5.000000, 7.000000) rotate(-90.000000) translate(-5.000000, -7.000000) "></path>
        </g>
        <rect id="Rectangle-Copy-7" fill="#0077BE" x="1" y="3" width="2.99176229" height="1" rx="0.5"></rect>
        <rect id="Rectangle-Copy-11" fill="#FFFFFF" x="5.50823771" y="4.5" width="4.99176229" height="1" rx="0.5"></rect>
        <rect id="Rectangle-Copy-9" fill="#0077BE" x="1" y="9" width="2.99176229" height="1" rx="0.5"></rect>
        <rect id="Rectangle-Copy-12" fill="#FFFFFF" x="5.50823771" y="10.5" width="2.99176229" height="1" rx="0.5"></rect>
        <rect id="Rectangle-Copy-8" fill="#0077BE" x="1" y="6" width="2.99176229" height="1" rx="0.5"></rect>
        <rect id="Rectangle-Copy-13" fill="#FFFFFF" x="5.50823771" y="7.5" width="3.99176229" height="1" rx="0.5"></rect>
        <rect id="Rectangle-Copy-10" fill="#0077BE" x="1" y="12" width="2.99176229" height="1" rx="0.5"></rect>
    </g>
</svg>