<?xml version="1.0" encoding="UTF-8"?>
<svg width="16px" height="16px" viewBox="0 0 16 16" version="1.1" xmlns="http://www.w3.org/2000/svg" xmlns:xlink="http://www.w3.org/1999/xlink">
    <title>fft_filter_16x16</title>
    <defs>
        <linearGradient x1="25.5187587%" y1="66.3155228%" x2="130.484727%" y2="16.9083876%" id="linearGradient-1">
            <stop stop-color="#F16464" offset="0%"></stop>
            <stop stop-color="#F79494" offset="54.49984%"></stop>
            <stop stop-color="#FFD3D3" offset="100%"></stop>
        </linearGradient>
    </defs>
    <g id="fft_filter_16x16" stroke="none" stroke-width="1" fill="none" fill-rule="evenodd">
        <rect id="Rectangle" fill="#0077BE" x="0.5" y="7.5" width="8" height="1"></rect>
        <polygon id="Rectangle" fill="#0077BE" points="0.5 9.5 8.5 9.5 5.64285714 12.86 5.64285714 15.5 3.35714286 15.5 3.35714286 12.86"></polygon>
        <g id="Group-Copy" transform="translate(3.000000, 0.500000)">
            <rect id="Rectangle-Copy-7" stroke="#FFFFFF" fill="url(#linearGradient-1)" x="-0.428571429" y="-0.5" width="13.9285714" height="9" rx="2"></rect>
            <path d="M2.03013393,1.64889312 L5.51304408,1.64889312 L5.51304408,2.26412749 L2.71030971,2.26412749 L2.71030971,3.78854155 L5.17466518,3.78854155 L5.17466518,4.38668608 L2.71030971,4.38668608 L2.71030971,6.66988921 L2.03013393,6.66988921 L2.03013393,1.64889312 Z M6.30601283,1.64889312 L9.78892299,1.64889312 L9.78892299,2.26412749 L6.98618862,2.26412749 L6.98618862,3.78854155 L9.45054408,3.78854155 L9.45054408,4.38668608 L6.98618862,4.38668608 L6.98618862,6.66988921 L6.30601283,6.66988921 L6.30601283,1.64889312 Z M10.557966,1.98727202 L11.1800363,1.98727202 L11.1800363,3.00924468 L11.7645089,3.00924468 L11.7645089,3.51168608 L11.1800363,3.51168608 L11.1800363,5.90084624 C11.1800363,6.02845105 11.2233301,6.11389941 11.3099191,6.1571939 C11.3577709,6.18225913 11.4375227,6.19479155 11.5491769,6.19479155 C11.5787994,6.19479155 11.6107002,6.1942219 11.64488,6.19308257 C11.6790599,6.19194324 11.7189358,6.18909496 11.7645089,6.18453765 L11.7645089,6.66988921 C11.6938706,6.69039712 11.620385,6.70520817 11.5440499,6.7143228 C11.4677149,6.72343743 11.3851148,6.72799468 11.2962472,6.72799468 C11.0091364,6.72799468 10.8143141,6.65450908 10.7117746,6.50753569 C10.609235,6.3605623 10.557966,6.16972762 10.557966,5.93502593 L10.557966,3.51168608 L10.0623605,3.51168608 L10.0623605,3.00924468 L10.557966,3.00924468 L10.557966,1.98727202 Z" id="FFt" fill="#FFFFFF" fill-rule="nonzero"></path>
        </g>
    </g>
</svg>