<?xml version="1.0" encoding="UTF-8"?>
<svg width="32px" height="32px" viewBox="0 0 32 32" version="1.1" xmlns="http://www.w3.org/2000/svg" xmlns:xlink="http://www.w3.org/1999/xlink">
    <title>file_transform_tool_32x32</title>
    <defs>
        <linearGradient x1="20.2036034%" y1="3.49530347%" x2="100%" y2="3.49530347%" id="linearGradient-1">
            <stop stop-color="#52B6F2" stop-opacity="0.359459918" offset="0%"></stop>
            <stop stop-color="#4EA0D1" stop-opacity="0.516049592" offset="100%"></stop>
        </linearGradient>
        <linearGradient x1="20.2036034%" y1="3.49530347%" x2="100%" y2="3.49530347%" id="linearGradient-2">
            <stop stop-color="#52B6F2" stop-opacity="0.359459918" offset="0%"></stop>
            <stop stop-color="#1995DF" stop-opacity="0.516049592" offset="100%"></stop>
        </linearGradient>
        <linearGradient x1="20.2036034%" y1="3.49530347%" x2="100%" y2="3.49530347%" id="linearGradient-3">
            <stop stop-color="#52B6F2" stop-opacity="0.359459918" offset="0%"></stop>
            <stop stop-color="#1995DF" stop-opacity="0.516049592" offset="100%"></stop>
        </linearGradient>
        <linearGradient x1="73.6229573%" y1="7.56640245%" x2="26.6874672%" y2="87.7842593%" id="linearGradient-4">
            <stop stop-color="#1AAAFF" offset="0%"></stop>
            <stop stop-color="#0077BE" offset="100%"></stop>
        </linearGradient>
        <linearGradient x1="69.516499%" y1="50%" x2="21.1485889%" y2="92.2415488%" id="linearGradient-5">
            <stop stop-color="#1AAAFF" offset="0%"></stop>
            <stop stop-color="#0077BE" offset="100%"></stop>
        </linearGradient>
        <linearGradient x1="46.6064998%" y1="96.8085102%" x2="46.6064998%" y2="0%" id="linearGradient-6">
            <stop stop-color="#F99D9D" offset="0%"></stop>
            <stop stop-color="#F16464" offset="100%"></stop>
        </linearGradient>
    </defs>
    <g id="file_transform_tool_32x32" stroke="none" stroke-width="1" fill="none" fill-rule="evenodd">
        <rect id="Rectangle-Copy-13" fill="url(#linearGradient-1)" x="17" y="26" width="10" height="1" rx="0.5"></rect>
        <rect id="Rectangle-Copy-14" fill="url(#linearGradient-1)" x="17" y="20" width="10" height="1" rx="0.5"></rect>
        <rect id="Rectangle-Copy-22" fill="url(#linearGradient-1)" x="17" y="23" width="10" height="1" rx="0.5"></rect>
        <rect id="Rectangle-Copy-17" fill="url(#linearGradient-1)" x="17" y="14" width="10" height="1" rx="0.5"></rect>
        <rect id="Rectangle-Copy-15" fill="url(#linearGradient-1)" x="17" y="17" width="10" height="1" rx="0.5"></rect>
        <rect id="Rectangle-Copy-19" fill="url(#linearGradient-1)" x="17" y="11" width="10" height="1" rx="0.5"></rect>
        <rect id="Rectangle-Copy-23" fill="url(#linearGradient-2)" x="17" y="8" width="10" height="1" rx="0.5"></rect>
        <rect id="Rectangle-Copy-24" fill="url(#linearGradient-3)" x="17" y="5" width="8" height="1" rx="0.5"></rect>
        <path d="M22.7928932,2.5 L29.5,9.20710678 L29.5,27.2 C29.5,27.8337518 29.235763,28.4069196 28.8103348,28.8220345 C28.3804109,29.241536 27.7862024,29.5 27.1304348,29.5 L27.1304348,29.5 L10.8695652,29.5 C10.2137976,29.5 9.61958912,29.241536 9.18966522,28.8220345 C8.76423699,28.4069196 8.5,27.8337518 8.5,27.2 L8.5,27.2 L8.5,4.8 C8.5,4.1662482 8.76423699,3.59308036 9.18966522,3.17796554 C9.61958912,2.75846404 10.2137976,2.5 10.8695652,2.5 L10.8695652,2.5 L22.7928932,2.5 Z" id="Rectangle-2" stroke="url(#linearGradient-4)"></path>
        <path d="M23,2 L30,9 L26,9 C24.3431458,9 23,7.65685425 23,6 L23,2 Z" id="Rectangle" fill="url(#linearGradient-5)"></path>
        <rect id="Rectangle" fill="#FFFFFF" x="8" y="9" width="1" height="18"></rect>
        <g id="Group-2" transform="translate(2.500000, 7.000000)" fill="url(#linearGradient-6)">
            <polygon id="Fill-22" transform="translate(7.493089, 5.500000) rotate(-270.000000) translate(-7.493089, -5.500000) " points="7.49308852 -1.00691148 1.99308852 4.49308852 4.99308852 4.49308852 4.99308852 12.0069115 9.99308852 12.0069115 9.99308852 4.49308852 12.9930885 4.49308852"></polygon>
        </g>
        <g id="Group-2" transform="translate(7.500000, 23.500000) rotate(-180.000000) translate(-7.500000, -23.500000) translate(0.000000, 18.000000)" fill="url(#linearGradient-6)">
            <polygon id="Fill-22" transform="translate(7.493089, 5.500000) rotate(-270.000000) translate(-7.493089, -5.500000) " points="7.49308852 -1.00691148 1.99308852 4.49308852 4.99308852 4.49308852 4.99308852 12.0069115 9.99308852 12.0069115 9.99308852 4.49308852 12.9930885 4.49308852"></polygon>
        </g>
    </g>
</svg>