<?xml version="1.0" encoding="UTF-8"?>
<svg width="16px" height="16px" viewBox="0 0 16 16" version="1.1" xmlns="http://www.w3.org/2000/svg" xmlns:xlink="http://www.w3.org/1999/xlink">
    <title>file_wi_python_16x16</title>
    <g id="file_wi_python_16x16" stroke="none" stroke-width="1" fill="none" fill-rule="evenodd">
        <g id="Group" transform="translate(3.000000, 1.000000)">
            <path d="M6.58578644,0.5 L9.35355339,3.06066017 L9.5,13 L1,13.5 L0.5,1 L6.58578644,0.5 Z" id="Rectangle" stroke="#0077BE"></path>
            <path d="M3.54360971,11 L6.49295287,11 C6.76909524,11 6.99295287,10.7761424 6.99295287,10.5 C6.99295287,10.2238576 6.76909524,10 6.49295287,10 L3.54360971,10 C3.26746733,10 3.04360971,10.2238576 3.04360971,10.5 C3.04360971,10.7761424 3.26746733,11 3.54360971,11 Z" id="Fill-2-Copy" fill="#0477BD"></path>
            <path d="M3.52532842,8 L6.47467158,8 C6.75081396,8 6.97467158,7.77614237 6.97467158,7.5 C6.97467158,7.22385763 6.75081396,7 6.47467158,7 L3.52532842,7 C3.24918604,7 3.02532842,7.22385763 3.02532842,7.5 C3.02532842,7.77614237 3.24918604,8 3.52532842,8 Z" id="Fill-2-Copy-3" fill="#0477BD"></path>
            <path d="M3.54360971,5 L6.49295287,5 C6.76909524,5 6.99295287,4.77614237 6.99295287,4.5 C6.99295287,4.22385763 6.76909524,4 6.49295287,4 L3.54360971,4 C3.26746733,4 3.04360971,4.22385763 3.04360971,4.5 C3.04360971,4.77614237 3.26746733,5 3.54360971,5 Z" id="Fill-2-Copy-4" fill="#0477BD"></path>
        </g>
    </g>
</svg>