<?xml version="1.0" encoding="UTF-8"?>
<svg width="16px" height="16px" viewBox="0 0 16 16" version="1.1" xmlns="http://www.w3.org/2000/svg" xmlns:xlink="http://www.w3.org/1999/xlink">
    <title>folder_wi_python_16x16</title>
    <defs>
        <linearGradient x1="50%" y1="3.49530347%" x2="50%" y2="100%" id="linearGradient-1">
            <stop stop-color="#1AAAFF" offset="0%"></stop>
            <stop stop-color="#0077BE" offset="100%"></stop>
        </linearGradient>
        <linearGradient x1="50%" y1="3.49530347%" x2="50%" y2="100%" id="linearGradient-2">
            <stop stop-color="#1AAAFF" offset="0%"></stop>
            <stop stop-color="#0077BE" offset="100%"></stop>
        </linearGradient>
    </defs>
    <g id="folder_wi_python_16x16" stroke="none" stroke-width="1" fill="none" fill-rule="evenodd">
        <g id="Group" transform="translate(0.000000, 1.000000)">
            <path d="M6,0.5 C6.39388106,0.5 6.75232378,0.651789347 7.01995353,0.900126734 C7.38861958,1.24221711 7.58542603,1.76731663 7.46426799,2.33132534 L7.46426799,2.33132534 L11.9913429,2.50002444 C12.4089869,2.49766722 12.7873237,2.66600336 13.0606602,2.93933983 C13.3321068,3.21078644 13.5,3.58578644 13.5,4 L13.5,4 L13.5,13.500082 L1.99997951,13.500082 C1.58576595,13.500082 1.21076595,13.3321888 0.939319337,13.0607422 C0.667872727,12.7892956 0.499979509,12.4142956 0.499979509,12.000082 L0.499979509,12.000082 L0.499979509,2 C0.499979509,1.58578644 0.667872727,1.21078644 0.939319337,0.939339828 C1.21076595,0.667893219 1.58576595,0.5 1.99997951,0.5 L1.99997951,0.5 Z" id="Rectangle" stroke="url(#linearGradient-1)"></path>
            <path d="M14,5.5 C14.4142136,5.5 14.7892136,5.66789322 15.0606602,5.93933983 C15.3321068,6.21078644 15.5,6.58578644 15.5,7 L15.5,7 L15.5,12 C15.5,12.4142136 15.3321068,12.7892136 15.0606602,13.0606602 C14.7892136,13.3321068 14.4142136,13.5 14,13.5 L14,13.5 L2.5,13.5 C2.71310336,13.3393259 2.90410453,13.2172158 3.06066017,13.0606602 C3.33210678,12.7892136 3.5,12.4142136 3.5,12 L3.5,12 L3.5,7 C3.5,6.58578644 3.66789322,6.21078644 3.93933983,5.93933983 C4.21078644,5.66789322 4.58578644,5.5 5,5.5 L5,5.5 Z" id="Rectangle" stroke="url(#linearGradient-2)" fill="url(#linearGradient-2)"></path>
        </g>
    </g>
</svg>