<?xml version="1.0" encoding="UTF-8"?>
<svg width="16px" height="16px" viewBox="0 0 16 16" version="1.1" xmlns="http://www.w3.org/2000/svg" xmlns:xlink="http://www.w3.org/1999/xlink">
    <title>fracture_porosity_16x16</title>
    <defs>
        <linearGradient x1="95.2365784%" y1="81.7832355%" x2="36.2045225%" y2="33.9305807%" id="linearGradient-1">
            <stop stop-color="#1AAAFF" offset="0%"></stop>
            <stop stop-color="#1AA9FE" offset="27.7487701%"></stop>
            <stop stop-color="#0077BE" offset="100%"></stop>
        </linearGradient>
        <linearGradient x1="50%" y1="80.4564676%" x2="60.6690834%" y2="-19.491977%" id="linearGradient-2">
            <stop stop-color="#1AAAFF" offset="0%"></stop>
            <stop stop-color="#0077BE" offset="100%"></stop>
        </linearGradient>
        <linearGradient x1="50%" y1="3.49530347%" x2="50%" y2="100%" id="linearGradient-3">
            <stop stop-color="#0077BE" offset="0%"></stop>
            <stop stop-color="#014268" offset="100%"></stop>
        </linearGradient>
        <linearGradient x1="50%" y1="100%" x2="50%" y2="0%" id="linearGradient-4">
            <stop stop-color="#FFD5D5" offset="0%"></stop>
            <stop stop-color="#E53B3B" offset="100%"></stop>
        </linearGradient>
    </defs>
    <g id="fracture_porosity_16x16" stroke="none" stroke-width="1" fill="none" fill-rule="evenodd">
        <polygon id="Path" fill="#77767E" points="7.82610065 1 1.02396289 4.82463797 1.02396289 11.8543927 7.87292911 15.67883 14.6775877 11.854192 14.6775877 4.82443728"></polygon>
        <g id="Group" transform="translate(-1.000000, 1.000000)">
            <polygon id="Path" fill="#43B9FF" points="15.6775877 3.82443728 8.87292911 7.64907525 3.11160502 4.43191722 2.02396289 3.82463797 8.82610065 -5.32907052e-15 13.385514 1.61756693"></polygon>
            <polygon id="Path" fill="url(#linearGradient-1)" points="15.6775877 3.82443728 15.6775877 10.854192 8.87292911 14.67883 8.87292911 7.64907525 10.8920098 6.5142182 13.4749597 3.9177568"></polygon>
            <polygon id="Path" fill="url(#linearGradient-2)" points="8.87292911 7.64907525 8.87292911 14.67883 2.02396289 10.8543927 2.02396289 3.82463797 4.69840473 3.60081448"></polygon>
            <polygon id="Rectangle" fill="url(#linearGradient-3)" transform="translate(5.440390, 8.354468) rotate(14.000000) translate(-5.440390, -8.354468) " points="1.38239977 6.19758116 3.21460333 8.14239031 4.72632606 7.62451235 6.22725084 9.30237444 7.39160048 8.47859066 7.95073569 10.0923141 9.49838111 10.511354 7.75764428 10.2678098 7.2501807 9.16324841 6.1270358 10.0258602 4.71102178 9.01985769 3.17623951 10.1584206 2.27772408 9.59361621"></polygon>
        </g>
        <g id="Group" transform="translate(8.000000, 0.000000)" fill="url(#linearGradient-4)" stroke="#FFFFFF">
            <path d="M4.24922735,-0.431859225 L8.110123,3.42903643 C8.33990798,4.22934616 8.10692784,4.61494245 7.93979437,4.7757312 L7.93979437,4.7757312 L6.51381251,4.9752203 L6.51381251,7.79141669 L2.59801325,8.44473456 L2.08647224,5.04029927 L1.08805286,5.04029927 C0.321789608,4.61589931 0.242204451,4.1538961 0.257776644,3.9331298 L0.257776644,3.9331298 L4.24922735,-0.431859225 Z" id="Fill-22" transform="translate(4.265384, 4.079665) rotate(-180.000000) translate(-4.265384, -4.079665) "></path>
        </g>
    </g>
</svg>