<?xml version="1.0" encoding="UTF-8"?>
<svg width="16px" height="16px" viewBox="0 0 16 16" version="1.1" xmlns="http://www.w3.org/2000/svg" xmlns:xlink="http://www.w3.org/1999/xlink">
    <title>fre_plot_type_his_16x16</title>
    <defs>
        <polygon id="path-1" points="0 0 5.0038 0 5.0038 9 0 9"></polygon>
    </defs>
    <g id="fre_plot_type_his_16x16" stroke="none" stroke-width="1" fill="none" fill-rule="evenodd">
        <rect id="Rectangle-20-Copy-32" fill="#0077BE" x="0" y="0" width="1" height="16"></rect>
        <rect id="Rectangle-20-Copy-43" fill="#0077BE" x="7" y="15" width="2" height="1"></rect>
        <rect id="Rectangle-20-Copy-32" fill="#0077BE" x="0" y="15" width="16" height="1"></rect>
        <rect id="Rectangle-20-Copy-57" fill="#0077BE" x="2" y="15" width="5" height="1"></rect>
        <rect id="Rectangle-20-Copy-40" fill="#F16464" x="1" y="3" width="3" height="1"></rect>
        <rect id="Rectangle-20-Copy-45" fill="#F16464" x="1" y="0" width="3" height="1"></rect>
        <rect id="Rectangle-20-Copy-41" fill="#F16464" x="1" y="6" width="3" height="1"></rect>
        <rect id="Rectangle-20-Copy-42" fill="#F16464" x="1" y="9" width="3" height="1"></rect>
        <rect id="Rectangle-20-Copy-44" fill="#F16464" x="1" y="12" width="2" height="1"></rect>
        <rect id="Rectangle-20-Copy-46" fill="#F16464" x="5" y="12" width="1" height="3"></rect>
        <rect id="Rectangle-20-Copy-47" fill="#F16464" x="8" y="12" width="1" height="3"></rect>
        <rect id="Rectangle-20-Copy-48" fill="#F16464" x="11" y="12" width="1" height="3"></rect>
        <rect id="Rectangle-20-Copy-49" fill="#F16464" x="14" y="12" width="1" height="3"></rect>
        <g id="Group-3" transform="translate(8.000000, 1.000000)">
            <mask id="mask-2" fill="white">
                <use xlink:href="#path-1"></use>
            </mask>
            <g id="Clip-2"></g>
            <path d="M1.0078,9 L1.0078,3 L-0.0002,3 L-0.0002,2.004 L1.0078,2.004 L1.0078,1.908 C1.0078,1.388 1.1948,0.94 1.5718,0.564 C1.9478,0.188 2.3958,0 2.9158,0 L5.0038,0 L5.0038,0.996 L3.9118,0.996 C3.6638,0.996 3.4498,1.086 3.2698,1.266 C3.0898,1.446 2.9998,1.66 2.9998,1.908 L2.9998,2.004 L4.0078,2.004 L4.0078,3 L2.9998,3 L2.9998,9 L1.0078,9 Z" id="Fill-1" fill="#F16464" mask="url(#mask-2)"></path>
        </g>
    </g>
</svg>