<?xml version="1.0" encoding="UTF-8"?>
<svg width="16px" height="16px" viewBox="0 0 16 16" version="1.1" xmlns="http://www.w3.org/2000/svg" xmlns:xlink="http://www.w3.org/1999/xlink">
    <title>frequency_info_16x16</title>
    <g id="frequency_info_16x16" stroke="none" stroke-width="1" fill="none" fill-rule="evenodd">
        <rect id="Rectangle-20-Copy-62" fill="#0077BE" x="1" y="13" width="2" height="2"></rect>
        <rect id="Rectangle-20-Copy-67" fill="#0077BE" x="1" y="10" width="2" height="2"></rect>
        <rect id="Rectangle-20-Copy-79" fill="#0077BE" x="1" y="1" width="2" height="2"></rect>
        <rect id="Rectangle-20-Copy-70" fill="#0077BE" x="1" y="4" width="2" height="2"></rect>
        <rect id="Rectangle-20-Copy-71" fill="#F16464" x="1" y="7" width="2" height="2"></rect>
        <rect id="Rectangle-20-Copy-64" fill="#0077BE" x="7" y="13" width="2" height="2"></rect>
        <rect id="Rectangle-20-Copy-68" fill="#0077BE" x="7" y="10" width="2" height="2"></rect>
        <rect id="Rectangle-20-Copy-80" fill="#0077BE" x="7" y="1" width="2" height="2"></rect>
        <rect id="Rectangle-20-Copy-75" fill="#0077BE" x="7" y="4" width="2" height="2"></rect>
        <rect id="Rectangle-20-Copy-77" fill="#0077BE" x="10" y="4" width="2" height="2"></rect>
        <rect id="Rectangle-20-Copy-78" fill="#0077BE" x="13" y="4" width="2" height="2"></rect>
        <rect id="Rectangle-20-Copy-72" fill="#F16464" x="7" y="7" width="2" height="2"></rect>
        <rect id="Rectangle-20-Copy-63" fill="#0077BE" x="4" y="13" width="2" height="2"></rect>
        <rect id="Rectangle-20-Copy-69" fill="#0077BE" x="4" y="10" width="2" height="2"></rect>
        <rect id="Rectangle-20-Copy-81" fill="#0077BE" x="4" y="1" width="2" height="2"></rect>
        <rect id="Rectangle-20-Copy-76" fill="#0077BE" x="4" y="4" width="2" height="2"></rect>
        <rect id="Rectangle-20-Copy-73" fill="#F16464" x="4" y="7" width="2" height="2"></rect>
        <rect id="Rectangle-20-Copy-65" fill="#0077BE" x="10" y="13" width="2" height="2"></rect>
        <rect id="Rectangle-20-Copy-74" fill="#F16464" x="10" y="7" width="2" height="2"></rect>
        <rect id="Rectangle-20-Copy-66" fill="#0077BE" x="13" y="13" width="2" height="2"></rect>
    </g>
</svg>