<?xml version="1.0" encoding="UTF-8"?>
<svg width="16px" height="16px" viewBox="0 0 16 16" version="1.1" xmlns="http://www.w3.org/2000/svg" xmlns:xlink="http://www.w3.org/1999/xlink">
    <title>func_cross_16x16</title>
    <defs>
        <polygon id="path-1" points="0 0 5.0038 0 5.0038 9 0 9"></polygon>
    </defs>
    <g id="func_cross_16x16" stroke="none" stroke-width="1" fill="none" fill-rule="evenodd">
        <path d="M15.5,1.5 L15.5,14.5 L0.5,14.5 L0.5,1.5 L15.5,1.5 Z" id="Fill-3" stroke="#0077BE"></path>
        <g id="Group-6" transform="translate(2.000000, 4.000000)">
            <g id="Group-3">
                <mask id="mask-2" fill="white">
                    <use xlink:href="#path-1"></use>
                </mask>
                <g id="Clip-2"></g>
                <path d="M1.0078,9 L1.0078,3 L-0.0002,3 L-0.0002,2.004 L1.0078,2.004 L1.0078,1.908 C1.0078,1.388 1.1948,0.94 1.5718,0.564 C1.9478,0.188 2.3958,0 2.9158,0 L5.0038,0 L5.0038,0.996 L3.9118,0.996 C3.6638,0.996 3.4498,1.086 3.2698,1.266 C3.0898,1.446 2.9998,1.66 2.9998,1.908 L2.9998,2.004 L4.0078,2.004 L4.0078,3 L2.9998,3 L2.9998,9 L1.0078,9 Z" id="Fill-1" fill="#F16464" mask="url(#mask-2)"></path>
            </g>
            <path d="M6,9 L6,7.5 C6,6.908 6.168,6.446 6.504,6.114 C6.84,5.782 7.34,5.576 8.004,5.496 C7.34,5.424 6.84,5.22 6.504,4.884 C6.168,4.548 6,4.088 6,3.504 L6,2.004 L8.004,2.004 L8.004,3.996 C8.004,4.276 8.102,4.514 8.298,4.71 C8.494,4.906 8.728,5.004 9,5.004 C9.28,5.004 9.518,4.906 9.714,4.71 C9.91,4.514 10.008,4.276 10.008,3.996 L10.008,2.004 L12,2.004 L12,3.504 C12,4.088 11.834,4.548 11.502,4.884 C11.17,5.22 10.672,5.424 10.008,5.496 C10.672,5.576 11.17,5.784 11.502,6.12 C11.834,6.456 12,6.916 12,7.5 L12,9 L10.008,9 L10.008,6.996 C10.008,6.725 9.91,6.49 9.714,6.294 C9.518,6.098 9.28,6 9,6 C8.728,6 8.494,6.098 8.298,6.294 C8.102,6.49 8.004,6.725 8.004,6.996 L8.004,9 L6,9 Z" id="Fill-4" fill="#F16464"></path>
        </g>
    </g>
</svg>