<?xml version="1.0" encoding="UTF-8"?>
<svg width="16px" height="16px" viewBox="0 0 16 16" version="1.1" xmlns="http://www.w3.org/2000/svg" xmlns:xlink="http://www.w3.org/1999/xlink">
    <title>functional_transformations_16x16</title>
    <g id="functional_transformations_16x16" stroke="none" stroke-width="1" fill="none" fill-rule="evenodd">
        <g id="Group" stroke="#0077BE">
            <rect id="Rectangle-Copy-7" x="0.5" y="0.5" width="15" height="15" rx="2"></rect>
        </g>
        <path d="M2.78320312,6.07714844 C2.79492193,5.7490218 2.85205027,5.50878982 2.95458984,5.35644531 C3.13916108,5.08691271 3.49511455,4.95214844 4.02246094,4.95214844 C4.07226587,4.95214844 4.12353489,4.95361327 4.17626953,4.95654297 C4.22900417,4.95947267 4.28906216,4.96386716 4.35644531,4.96972656 L4.35644531,5.69042969 C4.27441365,5.68457028 4.21508807,5.68090821 4.1784668,5.67944336 C4.14184552,5.67797851 4.10742204,5.67724609 4.07519531,5.67724609 C3.83495974,5.67724609 3.69140648,5.73950133 3.64453125,5.86401367 C3.59765602,5.98852601 3.57421875,6.30566151 3.57421875,6.81542969 L4.35644531,6.81542969 L4.35644531,7.43945312 L3.56542969,7.43945312 L3.56542969,11.5 L2.78320312,11.5 L2.78320312,7.43945312 L2.12841797,7.43945312 L2.12841797,6.81542969 L2.78320312,6.81542969 L2.78320312,6.07714844 Z M7.16894531,4.93896484 C6.70898208,5.832524 6.41015694,6.49023227 6.27246094,6.91210938 C6.06445208,7.55371415 5.96044922,8.29491767 5.96044922,9.13574219 C5.96044922,9.98535581 6.07910038,10.7617152 6.31640625,11.4648438 C6.46289136,11.8984397 6.75146269,12.5224569 7.18212891,13.3369141 L6.65039062,13.3369141 C6.22265411,12.668942 5.95752004,12.2426767 5.85498047,12.0581055 C5.75244089,11.8735342 5.64111388,11.6230485 5.52099609,11.3066406 C5.35693277,10.8730447 5.2426761,10.4101587 5.17822266,9.91796875 C5.14599593,9.66308466 5.12988281,9.41992303 5.12988281,9.18847656 C5.12988281,8.32128473 5.26611192,7.54931979 5.53857422,6.87255859 C5.71142665,6.44189238 6.0717746,5.79736757 6.61962891,4.93896484 L7.16894531,4.93896484 Z M7.62011719,7.31640625 L8.53027344,7.31640625 L9.49121094,8.7890625 L10.4638672,7.31640625 L11.3193359,7.3359375 L9.90917969,9.35546875 L11.3818359,11.5 L10.4833984,11.5 L9.44433594,9.9296875 L8.43652344,11.5 L7.54589844,11.5 L9.01855469,9.35546875 L7.62011719,7.31640625 Z M11.8149414,13.3369141 C12.280764,12.4287064 12.581054,11.7666036 12.7158203,11.3505859 C12.9208995,10.7207 13.0234375,9.98242611 13.0234375,9.13574219 C13.0234375,8.28905827 12.9047863,7.51416367 12.6674805,6.81103516 C12.5209954,6.37743924 12.232424,5.75342204 11.8017578,4.93896484 L12.3334961,4.93896484 C12.7846702,5.65967157 13.0578609,6.1042472 13.1530762,6.27270508 C13.2482915,6.44116295 13.3515619,6.67333836 13.4628906,6.96923828 C13.6035163,7.33545105 13.7038571,7.69726384 13.763916,8.0546875 C13.8239749,8.41211116 13.8540039,8.756346 13.8540039,9.08740234 C13.8540039,9.95459418 13.71631,10.7280239 13.440918,11.4077148 C13.2680655,11.8442405 12.9091824,12.4873004 12.3642578,13.3369141 L11.8149414,13.3369141 Z" id="f(x)" fill="#F16464" fill-rule="nonzero"></path>
    </g>
</svg>