<?xml version="1.0" encoding="UTF-8"?>
<svg width="32px" height="32px" viewBox="0 0 32 32" version="1.1" xmlns="http://www.w3.org/2000/svg" xmlns:xlink="http://www.w3.org/1999/xlink">
    <title>geomachenic_density_32x32</title>
    <defs>
        <linearGradient x1="110.401041%" y1="-5.39340842%" x2="50%" y2="100%" id="linearGradient-1">
            <stop stop-color="#F99D9D" offset="0%"></stop>
            <stop stop-color="#F16464" offset="100%"></stop>
        </linearGradient>
        <linearGradient x1="91.9289279%" y1="-42.8994201%" x2="29.8379705%" y2="158.975172%" id="linearGradient-2">
            <stop stop-color="#F99D9D" offset="0%"></stop>
            <stop stop-color="#F16464" offset="100%"></stop>
        </linearGradient>
    </defs>
    <g id="geomachenic_density_32x32" stroke="none" stroke-width="1" fill="none" fill-rule="evenodd">
        <g id="rock" transform="translate(2.500000, 7.500000)">
            <polygon id="Path" fill="#6EC9FF" points="20.5858491 5.8526024 10.3443008 11.7055119 1.6730533 6.78223944 0.0360660334 5.85290952 10.2738203 0 17.1360973 2.4753906"></polygon>
            <polygon id="Path" fill="#0077BE" points="20.5858491 5.8526024 20.5858491 16.6103575 10.3443008 22.463267 10.3443008 11.7055119 13.3831766 9.96882059 17.27072 5.99541087"></polygon>
            <g id="Group" transform="translate(0.000000, 5.484196)">
                <polygon id="Path" fill="#329BD9" points="10.3443008 6.22131587 10.3443008 16.979071 0.0360660334 11.1264686 0.0360660334 0.368713469 4.0613121 0.0261925203"></polygon>
                <path d="M18.8903884,3.68836315 C19.5799281,3.29705479 20.1401122,3.29639669 20.141319,3.68836315 C20.1424333,4.07949601 19.5840347,4.71360069 18.894495,5.10490905 C18.2049553,5.4962174 17.6447712,5.49687551 17.6435644,5.10578652 C17.6424501,4.71382006 18.2008487,4.07971538 18.8903884,3.68836315" id="Path" fill="#005181"></path>
            </g>
            <path d="M15.7913877,12.8025266 C16.2618084,12.535556 16.6447869,12.5444623 16.6455916,12.8231033 C16.6463938,13.1017444 16.2647098,13.5445603 15.7942891,13.8114871 C15.3230649,14.0788965 14.94089,14.0695514 14.9400852,13.7909104 C14.9392831,13.5122693 15.3201636,13.0698921 15.7913877,12.8025266" id="Path" fill="#004F7E"></path>
            <path d="M6.42725282,13.2947003 C6.89767352,13.561671 7.27859868,14.0040482 7.27775201,14.2826892 C7.27694714,14.5613302 6.89472753,14.5697978 6.42430683,14.3028272 C5.95312732,14.0354178 5.57220216,13.593918 5.57300434,13.3153209 C5.5738537,13.036636 5.95607331,13.0272909 6.42725282,13.2947003" id="Path" fill="#006EAF"></path>
            <path d="M1.41639526,14.6921173 C1.82155787,14.959088 2.14967843,15.4014652 2.14896541,15.6801062 C2.14825007,15.9587473 1.81905824,15.9672149 1.41389564,15.7002442 C1.00801885,15.4328348 0.679942929,14.9913351 0.680655944,14.7127379 C0.681415923,14.434053 1.01060775,14.4247079 1.41639526,14.6921173" id="Path" fill="#006EAF"></path>
            <g id="Group" transform="translate(1.428358, 9.213449)">
                <path d="M6.73434974,9.30422377 C6.78273536,9.33168863 6.83210297,9.36358471 6.88209549,9.3999559 C7.31399517,9.71527523 7.62635916,10.2452679 7.57931263,10.5843667 C7.53771171,10.8850323 7.2292757,10.9358379 6.85973277,10.7261661 C6.81139179,10.6987451 6.76197953,10.6668052 6.71203165,10.630434 C6.28013197,10.3151147 5.96776798,9.78512195 6.01481452,9.44514567 C6.0563708,9.14526983 6.36485144,9.09450812 6.73434974,9.30422377" id="Path" fill="#015C92"></path>
                <path d="M0.338163699,0.0579131103 C0.359946155,0.070241583 0.382174973,0.0846321134 0.404671607,0.100996954 C0.599106807,0.242927948 0.73975541,0.481556286 0.718553225,0.634192431 C0.699850665,0.769542389 0.560942873,0.792444392 0.394583831,0.698028473 C0.372846011,0.6857 0.350572557,0.67130947 0.328075923,0.654944629 C0.133640723,0.513013635 -0.00700788025,0.274385297 0.0141943052,0.121310417 C0.0329415008,-0.0136446798 0.17176002,-0.0364589353 0.338163699,0.0579131103" id="Path" fill="#0066A3"></path>
            </g>
            <path d="M2.97692075,13.0527376 C3.19452213,13.1761978 3.37083504,13.5025294 3.37007866,13.7811704 C3.36927277,14.058934 3.19162077,14.1843685 2.97406403,14.0608644 C2.75646266,13.9374042 2.58090856,13.6115552 2.58170926,13.3337917 C2.58247083,13.0551068 2.75936401,12.9292774 2.97692075,13.0527376" id="Path" fill-opacity="0.511690444" fill="#005F98"></path>
            <path d="M12.8107622,18.0098366 C13.2290925,17.7724367 13.5691309,17.8039379 13.5699358,18.0799904 C13.5707378,18.3568765 13.2319938,18.7736315 12.8136635,19.0110314 C12.3953333,19.2484752 12.056009,19.2164475 12.0552486,18.9395614 C12.0544021,18.6635089 12.3924319,18.2472365 12.8107622,18.0098366" id="Path" fill="#004975"></path>
            <path d="M18.3811343,14.2739584 C18.7994645,14.0365585 19.1387441,14.0641988 19.1395044,14.3359078 C19.1403064,14.6076168 18.8022766,15.0204671 18.3839463,15.257867 C17.9656161,15.4952669 17.6255776,15.4671878 17.6247729,15.1954788 C17.6240154,14.9237698 17.962804,14.5113582 18.3811343,14.2739584" id="Path" fill="#004067"></path>
            <path d="M12.0910484,13.1681689 C12.3140061,13.0416376 12.4945595,13.1133709 12.495186,13.3288339 C12.4958093,13.5434196 12.3162826,13.8195598 12.0933249,13.9460912 C11.871126,14.0721838 11.6905726,14.0004067 11.6899905,13.785821 C11.6893228,13.5703579 11.8688942,13.2942177 12.0910484,13.1681689" id="Path" fill="#004066"></path>
        </g>
        <g id="Group" transform="translate(18.000000, 2.000000)" fill="url(#linearGradient-1)" stroke="#FFFFFF">
            <rect id="Rectangle-Copy-7" x="-0.5" y="-0.5" width="13" height="14" rx="2"></rect>
        </g>
        <path d="M21.8308449,7.96678537 C21.8830944,7.41681661 21.9378882,7.00035562 21.9952263,6.71740241 C22.3723986,4.8561258 23.4863087,4.09138125 24.6964755,3.89970966 C26.1647624,3.66715586 27.8506344,4.86235484 27.4986235,6.79363081 C27.1615808,8.642785 25.8455632,9.72043776 23.5505707,10.0265891 L23.4599462,13.2058219 L21.1645466,13.5428585 C21.4090244,13.0234872 21.5540133,12.4945696 21.5995131,11.9561055 C21.6450129,11.4176415 21.7221235,10.0878681 21.8308449,7.96678537 Z" id="Rectangle" fill="#FFFFFF" transform="translate(24.355171, 8.706887) rotate(9.000000) translate(-24.355171, -8.706887) "></path>
        <path d="M24.7285673,9.05352791 C25.4324022,8.92315723 25.9569736,8.08740205 25.9569736,6.98283255 C25.9569736,5.87826305 25.8084299,4.98283255 24.9569736,4.98283255 C24.1055174,4.98283255 23.9569736,5.87826305 23.9569736,6.98283255 C23.9569736,7.45066866 23.9295765,8.18597588 23.8747821,9.18875419 C24.145461,9.15389628 24.4300561,9.10882085 24.7285673,9.05352791 Z" id="Oval" fill="url(#linearGradient-2)" transform="translate(24.915878, 7.085793) rotate(9.000000) translate(-24.915878, -7.085793) "></path>
    </g>
</svg>