<?xml version="1.0" encoding="UTF-8"?>
<svg width="32px" height="32px" viewBox="0 0 32 32" version="1.1" xmlns="http://www.w3.org/2000/svg" xmlns:xlink="http://www.w3.org/1999/xlink">
    <title>gr_histogram_32x32</title>
    <defs>
        <linearGradient x1="35.6825797%" y1="65.2808202%" x2="108.22521%" y2="30.0554017%" id="linearGradient-1">
            <stop stop-color="#F16464" offset="0%"></stop>
            <stop stop-color="#F79494" offset="54.49984%"></stop>
            <stop stop-color="#FFD3D3" offset="100%"></stop>
        </linearGradient>
        <linearGradient x1="50%" y1="26.082764%" x2="50%" y2="100%" id="linearGradient-2">
            <stop stop-color="#1AAAFF" offset="0%"></stop>
            <stop stop-color="#0077BE" offset="100%"></stop>
        </linearGradient>
        <linearGradient x1="50%" y1="26.082764%" x2="50%" y2="100%" id="linearGradient-3">
            <stop stop-color="#1AAAFF" offset="0%"></stop>
            <stop stop-color="#0077BE" offset="100%"></stop>
        </linearGradient>
        <linearGradient x1="50%" y1="26.082764%" x2="50%" y2="100%" id="linearGradient-4">
            <stop stop-color="#1AAAFF" offset="0%"></stop>
            <stop stop-color="#0077BE" offset="100%"></stop>
        </linearGradient>
        <linearGradient x1="50%" y1="26.082764%" x2="50%" y2="100%" id="linearGradient-5">
            <stop stop-color="#1AAAFF" offset="0%"></stop>
            <stop stop-color="#0077BE" offset="100%"></stop>
        </linearGradient>
    </defs>
    <g id="gr_histogram_32x32" stroke="none" stroke-width="1" fill="none" fill-rule="evenodd">
        <g id="Group" transform="translate(13.000000, -0.038475)">
            <rect id="Rectangle-Copy-7" fill="url(#linearGradient-1)" x="0" y="0" width="19" height="12" rx="2"></rect>
            <path d="M5.36230469,2.46810156 C6.03613618,2.46810156 6.61881265,2.59830859 7.11035156,2.85872656 C7.82324575,3.23307739 8.25943931,3.88899531 8.41894531,4.8265 L7.45703125,4.8265 C7.33984316,4.30240884 7.09733257,3.92073948 6.72949219,3.68148047 C6.36165181,3.44222146 5.89778926,3.32259375 5.33789062,3.32259375 C4.6738248,3.32259375 4.11474836,3.5716147 3.66064453,4.06966406 C3.2065407,4.56771343 2.97949219,5.30989351 2.97949219,6.29622656 C2.97949219,7.14909541 3.16666479,7.84326165 3.54101562,8.37874609 C3.91536646,8.91423054 4.52571191,9.18196875 5.37207031,9.18196875 C6.01986001,9.18196875 6.55615022,8.99398235 6.98095703,8.61800391 C7.40576384,8.24202546 7.62304683,7.63412139 7.6328125,6.79427344 L5.38671875,6.79427344 L5.38671875,5.98860937 L8.53613281,5.98860937 L8.53613281,9.8265 L7.91113281,9.8265 L7.67675781,8.90364844 C7.34798013,9.26497837 7.05664189,9.5156269 6.80273438,9.65560156 C6.37629995,9.89648818 5.83431318,10.0169297 5.17675781,10.0169297 C4.32714419,10.0169297 3.59635723,9.74186733 2.984375,9.19173437 C2.31705396,8.50162676 1.98339844,7.55437061 1.98339844,6.3499375 C1.98339844,5.14875962 2.30891602,4.19336553 2.95996094,3.48372656 C3.57845361,2.80663984 4.37922686,2.46810156 5.36230469,2.46810156 Z M13.375,5.93978125 C13.8307314,5.93978125 14.1912422,5.84863633 14.456543,5.66634375 C14.7218438,5.48405117 14.8544922,5.15527842 14.8544922,4.68001562 C14.8544922,4.16894536 14.6689472,3.82064155 14.2978516,3.63509375 C14.0992829,3.53743701 13.833986,3.48860937 13.5019531,3.48860937 L11.1289062,3.48860937 L11.1289062,5.93978125 L13.375,5.93978125 Z M10.1572266,2.65364844 L13.4775391,2.65364844 C14.0244168,2.65364844 14.4752586,2.73340024 14.8300781,2.89290625 C15.5039096,3.19889736 15.8408203,3.76367036 15.8408203,4.58724219 C15.8408203,5.01693184 15.7521168,5.36849082 15.574707,5.64192969 C15.3972973,5.91536855 15.1490901,6.13509292 14.8300781,6.30110937 C15.1100274,6.41504224 15.3208001,6.56478032 15.4624023,6.75032812 C15.6040046,6.93587593 15.6829426,7.23697969 15.6992188,7.65364844 L15.7333984,8.6155625 C15.7431641,8.88900137 15.7659503,9.09244985 15.8017578,9.22591406 C15.8603519,9.45377979 15.9645175,9.6002627 16.1142578,9.66536719 L16.1142578,9.8265 L14.9228516,9.8265 C14.8902993,9.76465073 14.8642579,9.68489893 14.8447266,9.58724219 C14.8251952,9.48958545 14.8089193,9.30078525 14.7958984,9.02083594 L14.7373047,7.82454687 C14.7145181,7.35579453 14.5403662,7.04167007 14.2148438,6.88216406 C14.0292959,6.794273 13.7379577,6.75032812 13.3408203,6.75032812 L11.1289062,6.75032812 L11.1289062,9.8265 L10.1572266,9.8265 L10.1572266,2.65364844 Z" id="GR" fill="#FFFFFF" fill-rule="nonzero"></path>
        </g>
        <g id="Group-4" transform="translate(0.000000, 4.000000)">
            <g id="Group-3">
                <g id="Group-2">
                    <polygon id="Fill-1" fill="#0477BD" points="2 26 3 26 3 0.5 2 0.5"></polygon>
                    <polygon id="Fill-1-Copy" fill="#0477BD" points="2 26 30 26 30 25 2 25"></polygon>
                    <path d="M2,27 L3,27 C3.55228475,27 4,26.5522847 4,26 L4,25 C4,24.4477153 3.55228475,24 3,24 L2,24 C1.44771525,24 1,24.4477153 1,25 L1,26 C1,26.5522847 1.44771525,27 2,27 Z" id="Fill-1-Copy-2" fill="#0477BD"></path>
                    <line x1="2.5" y1="0.5" x2="1.5" y2="1.5" id="Line" stroke="#0077BE" stroke-linecap="round"></line>
                    <line x1="3.5" y1="0.5" x2="2.5" y2="1.5" id="Line" stroke="#0077BE" stroke-linecap="round" transform="translate(3.000000, 1.000000) rotate(-270.000000) translate(-3.000000, -1.000000) "></line>
                    <line x1="1.76870651" y1="5.76870651" x2="1.76870651" y2="7.76870651" id="Line-Copy" stroke="#0077BE" stroke-linecap="round" transform="translate(2.268707, 7.000000) rotate(-270.000000) translate(-2.268707, -7.000000) "></line>
                    <line x1="1.76870651" y1="10.2687065" x2="1.76870651" y2="12.2687065" id="Line-Copy" stroke="#0077BE" stroke-linecap="round" transform="translate(2.268707, 11.500000) rotate(-270.000000) translate(-2.268707, -11.500000) "></line>
                    <line x1="1.76870651" y1="14.7687065" x2="1.76870651" y2="16.7687065" id="Line-Copy" stroke="#0077BE" stroke-linecap="round" transform="translate(2.268707, 16.000000) rotate(-270.000000) translate(-2.268707, -16.000000) "></line>
                    <line x1="1.76870651" y1="19.7687065" x2="1.76870651" y2="21.7687065" id="Line-Copy" stroke="#0077BE" stroke-linecap="round" transform="translate(2.268707, 21.000000) rotate(-270.000000) translate(-2.268707, -21.000000) "></line>
                </g>
                <line x1="7.5" y1="24.5" x2="7.5" y2="26.5" id="Line-2" stroke="#0077BE" stroke-linecap="round"></line>
                <line x1="13" y1="24.5" x2="13" y2="26.5" id="Line-2" stroke="#0077BE" stroke-linecap="round"></line>
                <line x1="18.5" y1="24.5" x2="18.5" y2="26.5" id="Line-2" stroke="#0077BE" stroke-linecap="round"></line>
                <line x1="24" y1="24.5" x2="24" y2="26.5" id="Line-2" stroke="#0077BE" stroke-linecap="round"></line>
            </g>
            <line x1="30" y1="24.5" x2="29" y2="25.5" id="Line" stroke="#0077BE" stroke-linecap="round" transform="translate(29.500000, 25.000000) rotate(-270.000000) translate(-29.500000, -25.000000) "></line>
            <line x1="30" y1="25.5" x2="29" y2="26.5" id="Line" stroke="#0077BE" stroke-linecap="round" transform="translate(29.500000, 26.000000) rotate(-180.000000) translate(-29.500000, -26.000000) "></line>
        </g>
        <polygon id="Fill-1" fill="url(#linearGradient-2)" points="10 27 14 27 14 14 10 14"></polygon>
        <polygon id="Fill-2" fill="url(#linearGradient-3)" points="5 27 9 27 9 18 5 18"></polygon>
        <polygon id="Fill-3" fill="url(#linearGradient-4)" points="15 27 19 27 19 17 15 17"></polygon>
        <polygon id="Fill-4" fill="url(#linearGradient-5)" points="20 27 24 27 24 21 20 21"></polygon>
        <polygon id="Fill-5" fill="url(#linearGradient-5)" points="25 27 29 27 29 21 25 21"></polygon>
    </g>
</svg>