<?xml version="1.0" encoding="UTF-8"?>
<svg width="16px" height="16px" viewBox="0 0 16 16" version="1.1" xmlns="http://www.w3.org/2000/svg" xmlns:xlink="http://www.w3.org/1999/xlink">
    <title>gr_histogram_16x16</title>
    <defs>
        <linearGradient x1="25.5187587%" y1="75.2136311%" x2="124.084763%" y2="14.0493224%" id="linearGradient-1">
            <stop stop-color="#F16464" offset="0%"></stop>
            <stop stop-color="#F79494" offset="54.49984%"></stop>
            <stop stop-color="#FFD3D3" offset="100%"></stop>
        </linearGradient>
        <linearGradient x1="50%" y1="14.3554567%" x2="50%" y2="100%" id="linearGradient-2">
            <stop stop-color="#1AAAFF" offset="0%"></stop>
            <stop stop-color="#0077BE" offset="100%"></stop>
        </linearGradient>
        <linearGradient x1="50%" y1="14.3554567%" x2="50%" y2="100%" id="linearGradient-3">
            <stop stop-color="#1AAAFF" offset="0%"></stop>
            <stop stop-color="#0077BE" offset="100%"></stop>
        </linearGradient>
        <linearGradient x1="50%" y1="-69.4271417%" x2="50%" y2="100%" id="linearGradient-4">
            <stop stop-color="#1AAAFF" offset="0%"></stop>
            <stop stop-color="#0077BE" offset="100%"></stop>
        </linearGradient>
        <linearGradient x1="50%" y1="14.3554567%" x2="50%" y2="100%" id="linearGradient-5">
            <stop stop-color="#1AAAFF" offset="0%"></stop>
            <stop stop-color="#0077BE" offset="100%"></stop>
        </linearGradient>
    </defs>
    <g id="gr_histogram_16x16" stroke="none" stroke-width="1" fill="none" fill-rule="evenodd">
        <g id="Group-Copy" transform="translate(3.000000, 0.000000)">
            <rect id="Rectangle-Copy-7" fill="url(#linearGradient-1)" x="-1.95399252e-14" y="0" width="13" height="10" rx="2"></rect>
            <path d="M3.70361328,2.42086331 C4.17529533,2.42086331 4.58316885,2.51200823 4.92724609,2.69430081 C5.42627203,2.95634639 5.73160751,3.41548893 5.84326172,4.07174222 L5.16992188,4.07174222 C5.08789021,3.7048784 4.9181328,3.43770985 4.66064453,3.27022854 C4.40315626,3.10274724 4.07845248,3.01900784 3.68652344,3.01900784 C3.22167736,3.01900784 2.83032385,3.1933225 2.51245117,3.54195706 C2.19457849,3.89059161 2.03564453,4.41011767 2.03564453,5.10055081 C2.03564453,5.697559 2.16666536,6.18347537 2.42871094,6.55831448 C2.69075652,6.93315359 3.11799834,7.12057034 3.71044922,7.12057034 C4.16390201,7.12057034 4.53930515,6.98897986 4.83666992,6.72579495 C5.13403469,6.46261004 5.28613278,6.03707719 5.29296875,5.44918362 L3.72070312,5.44918362 L3.72070312,4.88521878 L5.92529297,4.88521878 L5.92529297,7.57174222 L5.48779297,7.57174222 L5.32373047,6.92574612 C5.09358609,7.17867707 4.88964933,7.35413105 4.71191406,7.45211331 C4.41340997,7.62073394 4.03401923,7.705043 3.57373047,7.705043 C2.97900093,7.705043 2.46745006,7.51249935 2.0390625,7.12740628 C1.57193777,6.64433095 1.33837891,5.98125164 1.33837891,5.13814847 C1.33837891,4.29732395 1.56624121,3.62854808 2.02197266,3.13180081 C2.45491753,2.65784011 3.0154588,2.42086331 3.70361328,2.42086331 Z M9.3125,4.85103909 C9.63151201,4.85103909 9.88386951,4.78723764 10.0695801,4.65963284 C10.2552906,4.53202804 10.3481445,4.30188711 10.3481445,3.96920315 C10.3481445,3.61145397 10.218263,3.3676413 9.95849609,3.23775784 C9.819498,3.16939812 9.63379022,3.13521878 9.40136719,3.13521878 L7.74023438,3.13521878 L7.74023438,4.85103909 L9.3125,4.85103909 Z M7.06005859,2.55074612 L9.38427734,2.55074612 C9.76709176,2.55074612 10.082681,2.60657239 10.3310547,2.71822659 C10.8027367,2.93242037 11.0385742,3.32776147 11.0385742,3.90426175 C11.0385742,4.2050445 10.9764817,4.45113579 10.8522949,4.642543 C10.7281081,4.8339502 10.5543631,4.98775726 10.3310547,5.10396878 C10.5270192,5.18372178 10.6745601,5.28853844 10.7736816,5.4184219 C10.8728032,5.54830536 10.9280598,5.759078 10.9394531,6.05074612 L10.9633789,6.72408597 C10.9702149,6.91549317 10.9861652,7.05790711 11.0112305,7.15133206 C11.0522463,7.31083806 11.1251622,7.4133761 11.2299805,7.45894925 L11.2299805,7.57174222 L10.3959961,7.57174222 C10.3732095,7.52844773 10.3549805,7.47262146 10.3413086,7.40426175 C10.3276367,7.33590203 10.3162435,7.20374189 10.3071289,7.00777737 L10.2661133,6.17037503 C10.2501627,5.84224839 10.1282563,5.62236126 9.90039062,5.51070706 C9.77050716,5.44918331 9.5665704,5.4184219 9.28857422,5.4184219 L7.74023438,5.4184219 L7.74023438,7.57174222 L7.06005859,7.57174222 L7.06005859,2.55074612 Z" id="GR" fill="#FFFFFF" fill-rule="nonzero"></path>
        </g>
        <polygon id="Fill-1" fill="url(#linearGradient-2)" points="5 16 9 16 9 11 5 11"></polygon>
        <polygon id="Fill-2" fill="url(#linearGradient-3)" points="0 16 2 16 2 6 0 6"></polygon>
        <polygon id="Fill-2" fill="url(#linearGradient-4)" points="0 16 4 16 4 11 0 11"></polygon>
        <polygon id="Fill-2-Copy" fill="url(#linearGradient-5)" points="10 16 14 16 14 13 10 13"></polygon>
    </g>
</svg>