<?xml version="1.0" encoding="UTF-8"?>
<svg width="32px" height="32px" viewBox="0 0 32 32" version="1.1" xmlns="http://www.w3.org/2000/svg" xmlns:xlink="http://www.w3.org/1999/xlink">
    <title>help_32x32</title>
    <defs>
        <linearGradient x1="0%" y1="18.576792%" x2="92.1236045%" y2="63.4055917%" id="linearGradient-1">
            <stop stop-color="#1AAAFF" offset="0%"></stop>
            <stop stop-color="#0077BE" offset="100%"></stop>
        </linearGradient>
        <linearGradient x1="19.1423477%" y1="73.9153887%" x2="104.905083%" y2="-5.6907757%" id="linearGradient-2">
            <stop stop-color="#F16464" offset="0%"></stop>
            <stop stop-color="#F79494" offset="54.49984%"></stop>
            <stop stop-color="#FFD3D3" offset="100%"></stop>
        </linearGradient>
    </defs>
    <g id="help_32x32" stroke="none" stroke-width="1" fill="none" fill-rule="evenodd">
        <g id="Group" transform="translate(20.000000, 19.500000) scale(-1, 1) translate(-20.000000, -19.500000) translate(9.000000, 10.000000)" fill="url(#linearGradient-1)">
            <path d="M2,-6.57252031e-14 L20,-6.57252031e-14 C21.1045695,-6.59281092e-14 22,0.8954305 22,2 L22,12 C22,13.1045695 21.1045695,14 20,14 L6.72409987,14 C6.25622686,14 5.80316107,14.1640324 5.44373107,14.4635574 L0,19 L0,19 L0,14.0740741 L0,2 C-1.3527075e-16,0.8954305 0.8954305,-6.55222969e-14 2,-6.57252031e-14 Z" id="Rectangle-7-Copy-10"></path>
        </g>
        <path d="M22,3.5 C22.4142136,3.5 22.7892136,3.66789322 23.0606602,3.93933983 C23.3321068,4.21078644 23.5,4.58578644 23.5,5 L23.5,5 L23.5,18.037037 C23.5,18.4512506 23.3321068,18.8262506 23.0606602,19.0976972 C22.7892136,19.3691438 22.4142136,19.537037 22,19.537037 L22,19.537037 L7.99871766,19.537037 C7.35200468,19.537037 6.73045388,19.7876494 6.26461345,20.2362365 L6.26461345,20.2362365 L1.5,24.8243828 L1.5,5 C1.5,4.58578644 1.66789322,4.21078644 1.93933983,3.93933983 C2.21078644,3.66789322 2.58578644,3.5 3,3.5 L3,3.5 Z" id="Rectangle-7-Copy-10" stroke="#FFFFFF" fill="url(#linearGradient-2)"></path>
        <rect id="Rectangle-7-Copy-6" fill="#FFFFFF" x="6" y="7" width="13" height="1" rx="0.5"></rect>
        <rect id="Rectangle-7-Copy-7" fill="#FFFFFF" x="6" y="11" width="8" height="1" rx="0.5"></rect>
        <rect id="Rectangle-7-Copy-8" fill="#FFFFFF" x="6" y="15" width="11" height="1" rx="0.5"></rect>
    </g>
</svg>