<?xml version="1.0" encoding="UTF-8"?>
<svg width="16px" height="16px" viewBox="0 0 16 16" version="1.1" xmlns="http://www.w3.org/2000/svg" xmlns:xlink="http://www.w3.org/1999/xlink">
    <title>histogram_blank_16x16</title>
    <defs>
        <linearGradient x1="50%" y1="3.49530347%" x2="50%" y2="100%" id="linearGradient-1">
            <stop stop-color="#1AAAFF" offset="0%"></stop>
            <stop stop-color="#0077BE" offset="100%"></stop>
        </linearGradient>
        <linearGradient x1="50.0058173%" y1="94.1913173%" x2="50%" y2="0%" id="linearGradient-2">
            <stop stop-color="#F16464" offset="0%"></stop>
            <stop stop-color="#F79494" offset="54.49984%"></stop>
            <stop stop-color="#FFD3D3" offset="100%"></stop>
        </linearGradient>
        <linearGradient x1="50%" y1="3.49530347%" x2="50%" y2="100%" id="linearGradient-3">
            <stop stop-color="#1AAAFF" offset="0%"></stop>
            <stop stop-color="#0077BE" offset="100%"></stop>
        </linearGradient>
    </defs>
    <g id="histogram_blank_16x16" stroke="none" stroke-width="1" fill="none" fill-rule="evenodd">
        <g id="Group" transform="translate(0.000000, 1.000000)">
            <path d="M1.4898722,13 L3.4898722,13 C4.04215695,13 4.4898722,12.5522847 4.4898722,12 L4.4898722,4 C4.4898722,3.44771525 4.04215695,3 3.4898722,3 L1.4898722,3 C0.937587446,3 0.489872196,3.44771525 0.489872196,4 L0.489872196,12 C0.489872196,12.5522847 0.937587446,13 1.4898722,13 Z" id="Fill-2" fill="url(#linearGradient-1)"></path>
            <path d="M7,13 L9,13 C9.55228475,13 10,12.5522847 10,12 L10,1 C10,0.44771525 9.55228475,-1.01453063e-16 9,0 L7,0 C6.44771525,1.01453063e-16 6,0.44771525 6,1 L6,12 C6,12.5522847 6.44771525,13 7,13 Z" id="Fill-3" fill="url(#linearGradient-2)"></path>
            <path d="M12.5101278,13 L14.5101278,13 C15.0624126,13 15.5101278,12.5522847 15.5101278,12 L15.5101278,8 C15.5101278,7.44771525 15.0624126,7 14.5101278,7 L12.5101278,7 C11.9578431,7 11.5101278,7.44771525 11.5101278,8 L11.5101278,12 C11.5101278,12.5522847 11.9578431,13 12.5101278,13 Z" id="Fill-4" fill="url(#linearGradient-3)"></path>
            <path d="M1,14.5 L15,14.5 C15.2761424,14.5 15.5,14.2761424 15.5,14 C15.5,13.7238576 15.2761424,13.5 15,13.5 L1,13.5 C0.723857625,13.5 0.5,13.7238576 0.5,14 C0.5,14.2761424 0.723857625,14.5 1,14.5 Z" id="Fill-2" fill="#0477BD"></path>
        </g>
    </g>
</svg>