<?xml version="1.0" encoding="UTF-8"?>
<svg width="16px" height="16px" viewBox="0 0 16 16" version="1.1" xmlns="http://www.w3.org/2000/svg" xmlns:xlink="http://www.w3.org/1999/xlink">
    <title>image_set_manager_16x16</title>
    <defs>
        <linearGradient x1="50%" y1="3.49530347%" x2="50%" y2="100%" id="linearGradient-1">
            <stop stop-color="#1AAAFF" offset="0%"></stop>
            <stop stop-color="#0077BE" offset="100%"></stop>
        </linearGradient>
        <linearGradient x1="50%" y1="38.3295738%" x2="50%" y2="100%" id="linearGradient-2">
            <stop stop-color="#1AAAFF" offset="0%"></stop>
            <stop stop-color="#0077BE" offset="100%"></stop>
        </linearGradient>
        <linearGradient x1="21.3703835%" y1="77.9018231%" x2="104.397575%" y2="0%" id="linearGradient-3">
            <stop stop-color="#F16464" offset="0%"></stop>
            <stop stop-color="#F79494" offset="54.49984%"></stop>
            <stop stop-color="#FFD3D3" offset="100%"></stop>
        </linearGradient>
    </defs>
    <g id="image_set_manager_16x16" stroke="none" stroke-width="1" fill="none" fill-rule="evenodd">
        <rect id="Rectangle-20-Copy-37" fill="#FFFFFF" x="14" y="13" width="1" height="1"></rect>
        <rect id="Rectangle-20-Copy-38" fill="#FFFFFF" x="1" y="13" width="1" height="1"></rect>
        <g id="image-2-copy" transform="translate(0.000000, -0.613673)">
            <g id="image" transform="translate(0.000000, 0.595436)">
                <ellipse id="Oval" fill="url(#linearGradient-1)" cx="5.4349958" cy="3.6914371" rx="1.08699916" ry="1.05469631"></ellipse>
                <path d="M11.9569908,0 L0.54349958,0 C0.243216062,0 0,0.2359883 0,0.527348157 L0,10.5469631 C0,10.838323 0.243216062,11.0743113 0.54349958,11.0743113 L11.9569908,11.0743113 C12.2572743,11.0743113 12.5004903,10.838323 12.5004903,10.5469631 L12.5004903,0.527348157 C12.5004903,0.2359883 12.2572743,0 11.9569908,0 Z M11.9569908,6.85552604 L9.15987017,4.55971584 C9.03459352,4.43895311 8.85387991,4.46980298 8.76148498,4.57474526 L6.04262833,7.6523491 L7.06549454,9.16267423 L3.15909131,6.12224843 C3.05120664,6.03866374 2.89495051,6.04683764 2.79712059,6.14176031 L0.54349958,7.91022235 L0.54349958,0.791022235 C0.54349958,0.64521047 0.665243486,0.527348157 0.81524937,0.527348157 L11.685241,0.527348157 C11.8352469,0.527348157 11.9569908,0.64521047 11.9569908,0.791022235 L11.9569908,6.85552604 Z" id="Shape" fill="url(#linearGradient-2)" fill-rule="nonzero"></path>
            </g>
        </g>
        <g id="settings-cogwheel-button" transform="translate(8.000000, 8.000000)" fill="url(#linearGradient-3)" fill-rule="nonzero" stroke="#FFFFFF" stroke-width="0.5">
            <path d="M4.61987153,-0.143241984 C4.72699043,-0.143241984 4.86649426,-0.0862892755 4.95004797,0.0183838571 C4.99701022,0.0772165164 5.02944416,0.148057631 5.03508095,0.228776954 L5.03133096,0.312710114 L5.16170411,1.16200989 C5.27238005,1.21837876 5.38164273,1.27622566 5.48606139,1.33888653 L5.63862753,1.43690534 L6.49702172,1.09278823 C6.59844314,1.05746062 6.68487032,1.05549142 6.75610305,1.0673898 C6.85508034,1.08392251 6.92950732,1.12858295 6.98074338,1.17483479 L7.02429948,1.22063427 L7.82554868,2.6259217 C7.86588314,2.70408412 7.88418179,2.7827831 7.88083828,2.86033267 C7.87737762,2.94059939 7.85287542,3.0237774 7.78856088,3.10614076 L7.73256688,3.16770232 L7.01756522,3.74779339 C7.02874759,3.83625728 7.03046593,3.93152804 7.03046593,4.04380016 C7.03046593,4.14243589 7.0180305,4.22793729 7.00578632,4.30726 L7.00508794,4.311764 L7.00438756,4.31624833 L7.77676962,4.85475519 C7.87316908,4.91061588 7.93455913,5.00426535 7.95373727,5.11954352 C7.96611992,5.19397453 7.95805171,5.27733679 7.93360887,5.35185162 L7.90385881,5.42275883 L7.11795457,6.80113319 C7.06935138,6.89287832 6.98020665,6.96706214 6.87441312,7.00240926 C6.79607287,7.02858386 6.71230226,7.03223179 6.63599175,7.01448345 L6.56264536,6.98964488 L5.71717919,6.65071042 C5.61846224,6.71901927 5.51318588,6.78084616 5.40478089,6.83952704 L5.24025577,6.92560586 L5.10436494,7.81084989 C5.09607718,7.9049219 5.04457707,8.0061995 4.94958508,8.08236118 C4.88420165,8.13478361 4.80316375,8.16995585 4.72949681,8.18426556 L4.65913966,8.19148732 L3.08779827,8.19148732 C2.96670382,8.19148732 2.86655996,8.1496328 2.79375963,8.09126372 C2.72277347,8.03434919 2.67686314,7.96143646 2.6554558,7.88522613 L2.64219491,7.80838698 L2.50668216,6.92560586 C2.39600622,6.86923699 2.28674354,6.8113901 2.18232487,6.74872922 L2.02975873,6.65071042 L1.17136454,6.99482753 C1.06994313,7.03015513 0.983515941,7.03212433 0.912283218,7.02022595 C0.81330592,7.00369325 0.738878946,6.9590328 0.687642886,6.91278096 L0.644086783,6.86698149 L-0.157175239,5.46167156 C-0.206215742,5.36657352 -0.222852605,5.27121437 -0.20725427,5.17741123 C-0.196732957,5.11413959 -0.171713206,5.04890199 -0.122195698,4.98424109 L-0.0641419246,4.91986661 L0.650821042,4.33980693 C0.639638674,4.25134304 0.637920334,4.15607228 0.637920334,4.04380016 C0.637920334,3.94516442 0.65035576,3.85966302 0.662599944,3.78034031 L0.663837122,3.7723843 L0.66507628,3.76448819 L-0.0608238483,3.21019816 C-0.135971135,3.14003562 -0.191261304,3.04794338 -0.218450995,2.96619389 C-0.237038157,2.91030908 -0.243429877,2.85745881 -0.241323579,2.81312872 C-0.239123901,2.7668333 -0.228560253,2.72637095 -0.212251486,2.69143122 L-0.183806853,2.64312478 L0.607352103,1.25553433 C0.690806648,1.16487925 0.777030362,1.10647794 0.871913439,1.07931005 C0.93730379,1.06058682 1.00844045,1.05482686 1.08917299,1.07041927 L1.17324674,1.09343986 L1.99837495,1.4380037 C2.0073134,1.43182914 2.01620922,1.4256756 2.02506769,1.41954839 C2.12539732,1.35015263 2.22188561,1.28451922 2.31985265,1.22755328 L2.46857727,1.14921812 L2.60322075,0.238364484 L4.61987153,-0.143241984 Z M3.83420083,2.91583541 C3.52892533,2.91583541 3.24843314,3.04581479 3.04381566,3.25088484 C2.83899619,3.45615733 2.70927712,3.73757715 2.70927712,4.04380016 C2.70927712,4.35002317 2.83899619,4.63144298 3.04381566,4.83671548 C3.24843314,5.04178553 3.52892533,5.17176491 3.83420083,5.17176491 C4.13947634,5.17176491 4.41996853,5.04178553 4.62458601,4.83671548 C4.82940548,4.63144298 4.95912455,4.35002317 4.95912455,4.04380016 C4.95912455,3.73757715 4.82940548,3.45615733 4.62458601,3.25088484 C4.41996853,3.04581479 4.13947634,2.91583541 3.83420083,2.91583541 Z" id="Shape"></path>
        </g>
    </g>
</svg>