<?xml version="1.0" encoding="UTF-8"?>
<svg width="16px" height="16px" viewBox="0 0 16 16" version="1.1" xmlns="http://www.w3.org/2000/svg" xmlns:xlink="http://www.w3.org/1999/xlink">
    <title>import_well_header_16x16</title>
    <g id="import_well_header_16x16" stroke="none" stroke-width="1" fill="none" fill-rule="evenodd">
        <g id="Group" transform="translate(1.000000, 0.500000)">
            <polyline id="Line" stroke="#0077BE" stroke-linecap="round" points="1.14679327 14.020864 2.99739666 1 5 1 7 14.020864"></polyline>
            <rect id="Rectangle-7-Copy-7" fill="#0077BE" x="1.50837665" y="8.28571429" width="5.08972693" height="1" rx="0.5"></rect>
            <rect id="Rectangle-7-Copy-8" fill="#0077BE" x="1.97107909" y="5.71428571" width="4.16432203" height="1" rx="0.5"></rect>
            <rect id="Rectangle-7-Copy-9" fill="#0077BE" x="2.43378154" y="3.14285714" width="3.23891714" height="1" rx="0.5"></rect>
            <rect id="Rectangle-7-Copy-6" fill="#0077BE" x="1.0456742" y="10.8571429" width="6.01513183" height="1" rx="0.5"></rect>
            <line x1="4" y1="1" x2="4" y2="14.020864" id="Line-2" stroke="#0077BE" stroke-width="0.5" stroke-linecap="round"></line>
            <rect id="Rectangle-7-Copy-10" fill="#0077BE" x="1.91783898" y="-8.8817842e-16" width="4.16432203" height="1" rx="0.5"></rect>
            <g id="Rectangle-7-Copy-11" transform="translate(0.000000, 14.000000)" fill="#0077BE">
                <rect id="Rectangle-7-Copy-10" x="0" y="-9.99200722e-16" width="2" height="1" rx="0.5"></rect>
            </g>
            <g id="Rectangle-7-Copy-12" transform="translate(3.000000, 14.000000)" fill="#0077BE">
                <rect id="Rectangle-7-Copy-10" x="0" y="-9.99200722e-16" width="2" height="1" rx="0.5"></rect>
            </g>
            <g id="Rectangle-7-Copy-13" transform="translate(6.000000, 14.000000)" fill="#0077BE">
                <rect id="Rectangle-7-Copy-10" x="0" y="-9.99200722e-16" width="2" height="1" rx="0.5"></rect>
            </g>
        </g>
        <path d="M10.2294922,8.02441406 C10.2294922,8.52571865 10.356444,8.88297419 10.6103516,9.09619141 C10.8642591,9.30940862 11.1425766,9.43391909 11.4453125,9.46972656 L11.4453125,10.0410156 C10.8658825,9.98242158 10.3865579,9.81233865 10.0073242,9.53076172 C9.62809055,9.24918479 9.43847656,8.78613604 9.43847656,8.14160156 L9.43847656,7.13574219 C9.43847656,6.78092271 9.38313857,6.50097759 9.27246094,6.29589844 C9.07063701,5.92154761 8.68327109,5.70345083 8.11035156,5.64160156 L8.11035156,5.08496094 C8.68652632,5.01660122 9.07389224,4.80338721 9.27246094,4.4453125 C9.38313857,4.2467438 9.43847656,3.96191592 9.43847656,3.59082031 L9.43847656,2.79492188 C9.43847656,2.18293965 9.57112498,1.69791846 9.83642578,1.33984375 C10.1017266,0.981769043 10.6380168,0.768555029 11.4453125,0.700195312 L11.4453125,1.25683594 C10.9212213,1.30240908 10.5664072,1.53352656 10.3808594,1.95019531 C10.2799474,2.17806104 10.2294922,2.49381309 10.2294922,2.89746094 L10.2294922,3.44433594 C10.2294922,3.93261963 10.1692714,4.30696484 10.0488281,4.56738281 C9.83072808,5.03939038 9.40755522,5.30468721 8.77929688,5.36328125 C9.4043,5.41862007 9.82747285,5.69205483 10.0488281,6.18359375 C10.1692714,6.45377739 10.2294922,6.82161226 10.2294922,7.28710938 L10.2294922,8.02441406 Z M14.5263672,5.36328125 C13.9013641,5.30468721 13.4798188,5.04101797 13.2617188,4.57226562 C13.1412754,4.31184766 13.0810547,3.93587485 13.0810547,3.44433594 L13.0810547,2.89746094 C13.0810547,2.46777129 13.0305995,2.14225371 12.9296875,1.92089844 C12.7473949,1.52376104 12.3925808,1.30240908 11.8652344,1.25683594 L11.8652344,0.700195312 C12.7050823,0.768555029 13.2747381,1.02896909 13.5742188,1.48144531 C13.7695322,1.7711603 13.8671875,2.20898145 13.8671875,2.79492188 L13.8671875,3.59082031 C13.8671875,3.95540547 13.9225255,4.23860576 14.0332031,4.44042969 C14.2350271,4.80827007 14.6240206,5.02311167 15.2001953,5.08496094 L15.2001953,5.64160156 C14.6272758,5.70019531 14.2382823,5.91991997 14.0332031,6.30078125 C13.9225255,6.50911562 13.8671875,6.78743315 13.8671875,7.13574219 L13.8671875,8.14160156 C13.8671875,8.79915693 13.6775735,9.26464707 13.2983398,9.53808594 C12.9191062,9.8115248 12.4414091,9.97916636 11.8652344,10.0410156 L11.8652344,9.46972656 C12.2135434,9.42415342 12.5032541,9.28499465 12.734375,9.05224609 C12.9654959,8.81949753 13.0810547,8.47689028 13.0810547,8.02441406 L13.0810547,7.28710938 C13.0810547,6.81835703 13.1412754,6.45052217 13.2617188,6.18359375 C13.483074,5.69205483 13.9046193,5.41862007 14.5263672,5.36328125 Z" id="{}" fill="#F16464" fill-rule="nonzero"></path>
    </g>
</svg>