<?xml version="1.0" encoding="UTF-8"?>
<svg width="16px" height="16px" viewBox="0 0 16 16" version="1.1" xmlns="http://www.w3.org/2000/svg" xmlns:xlink="http://www.w3.org/1999/xlink">
    <title>import_from_pdb_16x16</title>
    <g id="import_from_pdb_16x16" stroke="none" stroke-width="1" fill="none" fill-rule="evenodd" transform="translate(0.000000, -0.000000)">
        <path d="M3.22368842,2.51574167 C4.06318049,1.64482918 4.9981663,1.32098066 6.48175357,1.60119527 C7.45775691,1.78553926 8.15253983,2.27768473 8.55009829,3.09759789 C8.63827745,3.27945607 8.70474056,3.46280906 8.74979299,3.64755665 C8.89942546,3.53043424 9.06655757,3.41877913 9.25071594,3.31204868 C9.6420077,3.08527243 10.0143775,2.93624405 10.3700842,2.87149125 C10.854059,2.78338853 11.5289256,2.88898804 12.0980299,3.51811791 C12.3625883,3.81058027 12.4800763,4.25764774 12.5003068,4.83487583 C12.5072512,5.03301613 12.5016903,5.21665972 12.4816216,5.38493632 C12.6525038,5.35089776 12.8355766,5.32833606 13.0304795,5.31643284 C13.6699046,5.27738151 14.1969068,5.36769223 14.6023613,5.61759832 C15.2240974,6.00081181 15.5,6.64415499 15.5,7.35081425 C15.5,8.03860982 15.2910805,8.54516932 14.9670295,8.89080297 C14.5625363,9.32223649 13.9954507,9.5 13.5162395,9.5 L13.5162395,9.5 L2.50005067,9.5 C1.99352727,9.5 1.45133798,9.28943445 1.05794627,8.89688848 C0.722333751,8.56199748 0.5,8.09150783 0.5,7.50532406 C0.5,7.09412458 0.628237718,6.73112616 0.886214458,6.41686965 C1.17577345,6.06414095 1.61554951,5.77405831 2.19295805,5.53106236 C2.38827648,3.98414243 2.6173831,3.14473974 3.22368842,2.51574167 Z" id="Rectangle" stroke="#0077BE"></path>
        <rect id="Rectangle" fill="#FFFFFF" x="4" y="9" width="9" height="1"></rect>
        <rect id="Rectangle" fill="#0077BE" transform="translate(8.500000, 11.000000) rotate(-270.000000) translate(-8.500000, -11.000000) " x="4.5" y="10.5" width="8" height="1" rx="0.5"></rect>
        <rect id="Rectangle" fill="#0077BE" transform="translate(7.085786, 13.414214) rotate(-315.000000) translate(-7.085786, -13.414214) " x="4.58578644" y="12.9142136" width="5" height="1" rx="0.5"></rect>
        <rect id="Rectangle" fill="#0077BE" transform="translate(9.914214, 13.414214) rotate(-315.000000) translate(-9.914214, -13.414214) " x="9.41421356" y="10.9142136" width="1" height="5" rx="0.5"></rect>
    </g>
</svg>