<?xml version="1.0" encoding="UTF-8"?>
<svg width="32px" height="32px" viewBox="0 0 32 32" version="1.1" xmlns="http://www.w3.org/2000/svg" xmlns:xlink="http://www.w3.org/1999/xlink">
    <title>info_frp_32x32</title>
    <defs>
        <linearGradient x1="86.542663%" y1="12.8846115%" x2="25.6171412%" y2="88.3106589%" id="linearGradient-1">
            <stop stop-color="#1AAAFF" offset="0%"></stop>
            <stop stop-color="#0077BE" offset="100%"></stop>
        </linearGradient>
    </defs>
    <g id="info_frp_32x32" stroke="none" stroke-width="1" fill="none" fill-rule="evenodd">
        <rect id="Rectangle-3-Copy-2" fill="#FFFFFF" x="14" y="9" width="11" height="3"></rect>
        <rect id="Rectangle-3-Copy-3" fill="#FFFFFF" x="8" y="9" width="3" height="3"></rect>
        <rect id="Rectangle-3-Copy-3" fill="#FFFFFF" x="8" y="15" width="3" height="3"></rect>
        <rect id="Rectangle-3-Copy-3" fill="#FFFFFF" x="8" y="21" width="3" height="3"></rect>
        <rect id="Rectangle-3-Copy-4" fill="#FFFFFF" x="14" y="21" width="11" height="3"></rect>
        <rect id="Rectangle-3-Copy-6" fill="#FFFFFF" x="14" y="15" width="7" height="3"></rect>
        <circle id="Oval" fill="url(#linearGradient-1)" cx="16" cy="16" r="15"></circle>
        <rect id="Rectangle-3-Copy-2" fill="#FFFFFF" x="14" y="9" width="11" height="3" rx="1.5"></rect>
        <rect id="Rectangle-3-Copy-3" fill="#FFFFFF" x="8" y="9" width="3" height="3" rx="1.5"></rect>
        <rect id="Rectangle-3-Copy-3" fill="#FFFFFF" x="8" y="15" width="3" height="3" rx="1.5"></rect>
        <rect id="Rectangle-3-Copy-3" fill="#FFFFFF" x="8" y="21" width="3" height="3" rx="1.5"></rect>
        <rect id="Rectangle-3-Copy-4" fill="#FFFFFF" x="14" y="21" width="11" height="3" rx="1.5"></rect>
        <rect id="Rectangle-3-Copy-6" fill="#FFFFFF" x="14" y="15" width="7" height="3" rx="1.5"></rect>
    </g>
</svg>