<?xml version="1.0" encoding="UTF-8"?>
<svg width="16px" height="16px" viewBox="0 0 16 16" version="1.1" xmlns="http://www.w3.org/2000/svg" xmlns:xlink="http://www.w3.org/1999/xlink">
    <title>inpefa_curve_16x16</title>
    <g id="inpefa_curve_16x16" stroke="none" stroke-width="1" fill="none" fill-rule="evenodd">
        <path d="M10.5,15.3617109 C11.5,14.7551787 12,13.9679418 12,13 C12,11.7162121 10.5,10.9899212 10.5,9.56614179 C10.5,7.59932398 12,7.6 12,6 C12,4.4 10.5,4.12384391 10.5,3 C10.5,2.18281769 11,1.39558072 12,0.638289112" id="Line-7" stroke="#E02020" opacity="0.796758743" stroke-linecap="round"></path>
        <rect id="Rectangle-7-Copy-7" stroke="#0077BE" x="0.5" y="0.5" width="15" height="15"></rect>
        <g id="Group" transform="translate(2.500000, 0.000000)" fill="#0377BE">
            <g id="Untitled-1" transform="translate(0.370755, 0.400000)">
                <path d="M2.64,3.52 C2.96,3.84 3.2,4.24 3.2,4.72 L3.2,4.8 L2.4,4.8 C2.4,4.8 2.4,4.72 2.4,4.72 C2.4,4.32 2,3.92 1.6,3.92 C1.2,3.92 0.8,3.76 0.56,3.52 C0.24,3.2 0,2.8 0,2.32 C0,1.84 0.24,1.44 0.56,1.12 C0.8,0.88 1.2,0.72 1.6,0.72 C2,0.72 2.4,0.32 2.4,0 L3.2,0 C3.2,0.48 2.96,0.88 2.64,1.12 C2.4,1.36 2,1.52 1.6,1.52 C1.2,1.52 0.8,1.92 0.8,2.32 C0.8,2.72 1.2,3.12 1.6,3.12 C2,3.12 2.4,3.28 2.64,3.52 Z" id="Path"></path>
            </g>
            <g id="Untitled-1-Copy-2" transform="translate(0.370755, 10.000000)">
                <path d="M2.64,3.52 C2.96,3.84 3.2,4.24 3.2,4.72 L3.2,4.8 L2.4,4.8 C2.4,4.8 2.4,4.72 2.4,4.72 C2.4,4.32 2,3.92 1.6,3.92 C1.2,3.92 0.8,3.76 0.56,3.52 C0.24,3.2 0,2.8 0,2.32 C0,1.84 0.24,1.44 0.56,1.12 C0.8,0.88 1.2,0.72 1.6,0.72 C2,0.72 2.4,0.32 2.4,0 L3.2,0 C3.2,0.48 2.96,0.88 2.64,1.12 C2.4,1.36 2,1.52 1.6,1.52 C1.2,1.52 0.8,1.92 0.8,2.32 C0.8,2.72 1.2,3.12 1.6,3.12 C2,3.12 2.4,3.28 2.64,3.52 Z" id="Path"></path>
            </g>
            <path d="M0.370755209,17.12 C0.370755209,16.64 0.610755209,16.24 0.930755209,15.92 C1.17075521,15.68 1.57075521,15.52 1.97075521,15.52 C2.37075521,15.52 2.77075521,15.12 2.77075521,14.8 L3.57075521,14.8 C3.57075521,15.28 3.33075521,15.68 3.01075521,15.92 C2.77075521,16.16 2.37075521,16.32 1.97075521,16.32 C1.57075521,16.32 1.17075521,16.72 1.17075521,17.12 C1.17075521,17.52 0.370755209,17.6 0.370755209,17.12 Z" id="Path"></path>
            <g id="Untitled-1-Copy" transform="translate(0.370755, 5.200000)">
                <path d="M2.64,3.52 C2.96,3.84 3.2,4.24 3.2,4.72 L3.2,4.8 L2.4,4.8 C2.4,4.8 2.4,4.72 2.4,4.72 C2.4,4.32 2,3.92 1.6,3.92 C1.2,3.92 0.8,3.76 0.56,3.52 C0.24,3.2 0,2.8 0,2.32 C0,1.84 0.24,1.44 0.56,1.12 C0.8,0.88 1.2,0.72 1.6,0.72 C2,0.72 2.4,0.32 2.4,0 L3.2,0 C3.2,0.48 2.96,0.88 2.64,1.12 C2.4,1.36 2,1.52 1.6,1.52 C1.2,1.52 0.8,1.92 0.8,2.32 C0.8,2.72 1.2,3.12 1.6,3.12 C2,3.12 2.4,3.28 2.64,3.52 Z" id="Path"></path>
            </g>
        </g>
    </g>
</svg>