<?xml version="1.0" encoding="UTF-8"?>
<svg width="16px" height="16px" viewBox="0 0 16 16" version="1.1" xmlns="http://www.w3.org/2000/svg" xmlns:xlink="http://www.w3.org/1999/xlink">
    <title>inventory_explorer_16x16</title>
    <g id="inventory_explorer_16x16" stroke="none" stroke-width="1" fill="none" fill-rule="evenodd">
        <g id="Group-2" stroke="#0077BE">
            <rect id="Rectangle-7-Copy" x="0.5" y="0.5" width="12" height="4" rx="1"></rect>
            <rect id="Rectangle-7-Copy" x="0.5" y="2.5" width="12" height="2" rx="1"></rect>
            <path d="M14,4.5 C14.4142136,4.5 14.7892136,4.66789322 15.0606602,4.93933983 C15.3321068,5.21078644 15.5,5.58578644 15.5,6 L15.5,6 L15.5,14 C15.5,14.4142136 15.3321068,14.7892136 15.0606602,15.0606602 C14.7892136,15.3321068 14.4142136,15.5 14,15.5 L14,15.5 L2,15.5 C1.58578644,15.5 1.21078644,15.3321068 0.939339828,15.0606602 C0.667893219,14.7892136 0.5,14.4142136 0.5,14 L0.5,14 L0.5,4.5 Z" id="Rectangle-7-Copy-10"></path>
        </g>
        <g id="Group" transform="translate(4.000000, 6.000000)" stroke="#F16464">
            <circle id="Oval-6" cx="3.53772832" cy="3.53772832" r="3.03772832"></circle>
            <line x1="8" y1="8" x2="5.84908672" y2="5.84908672" id="Line" stroke-linecap="square"></line>
        </g>
    </g>
</svg>