<?xml version="1.0" encoding="UTF-8"?>
<svg width="16px" height="16px" viewBox="0 0 16 16" version="1.1" xmlns="http://www.w3.org/2000/svg" xmlns:xlink="http://www.w3.org/1999/xlink">
    <title>limit_16x16</title>
    <defs>
        <linearGradient x1="100%" y1="31.7541954%" x2="22.1346254%" y2="66.6856183%" id="linearGradient-1">
            <stop stop-color="#F99D9D" offset="0%"></stop>
            <stop stop-color="#F16464" offset="100%"></stop>
        </linearGradient>
        <path d="M2.60595703,3.04443359 L3.39697266,3.04443359 L3.39697266,9.5 L2.60595703,9.5 L2.60595703,3.04443359 Z M4.58349609,4.81542969 L5.38769531,4.81542969 L5.38769531,9.5 L4.58349609,9.5 L4.58349609,4.81542969 Z M4.58349609,3.04443359 L5.38769531,3.04443359 L5.38769531,3.94091797 L4.58349609,3.94091797 L4.58349609,3.04443359 Z M6.58300781,4.79345703 L7.36523438,4.79345703 L7.36523438,5.46142578 C7.55273531,5.22997931 7.72265549,5.06152396 7.875,4.95605469 C8.13574349,4.77734286 8.43163897,4.68798828 8.76269531,4.68798828 C9.13769719,4.68798828 9.43945198,4.78027251 9.66796875,4.96484375 C9.79687564,5.07031303 9.91406197,5.22558491 10.0195312,5.43066406 C10.1953134,5.17870968 10.4018543,4.99194397 10.6391602,4.87036133 C10.876466,4.74877869 11.1430649,4.68798828 11.4389648,4.68798828 C12.0717805,4.68798828 12.5024403,4.91650162 12.730957,5.37353516 C12.8540045,5.61963014 12.9155273,5.95068151 12.9155273,6.36669922 L12.9155273,9.5 L12.09375,9.5 L12.09375,6.23046875 C12.09375,5.91699062 12.0153816,5.70166074 11.8586426,5.58447266 C11.7019035,5.46728457 11.5107433,5.40869141 11.2851562,5.40869141 C10.9746078,5.40869141 10.7072765,5.51269427 10.4831543,5.72070312 C10.2590321,5.92871198 10.1469727,6.27587647 10.1469727,6.76220703 L10.1469727,9.5 L9.34277344,9.5 L9.34277344,6.42822266 C9.34277344,6.10888512 9.30468788,5.87597729 9.22851562,5.72949219 C9.10839784,5.50976453 8.88427898,5.39990234 8.55615234,5.39990234 C8.25732272,5.39990234 7.98559693,5.51562384 7.7409668,5.74707031 C7.49633667,5.97851678 7.37402344,6.39745791 7.37402344,7.00390625 L7.37402344,9.5 L6.58300781,9.5 L6.58300781,4.79345703 Z" id="path-2"></path>
    </defs>
    <g id="limit_16x16" stroke="none" stroke-width="1" fill="none" fill-rule="evenodd">
        <rect id="Rectangle-Copy" stroke="#0077BE" x="2" y="12.7824286" width="1.5" height="1.5" rx="0.75"></rect>
        <rect id="Rectangle-Copy-2" stroke="#0077BE" x="12.5" y="12.7824286" width="1.5" height="1.5" rx="0.75"></rect>
        <polygon id="Fill-22" fill="#0077BE" points="10.9539269 13.5324286 9.44716632 15.0648571 9.44716632 12"></polygon>
        <polygon id="Fill-21" fill="#0077BE" points="5.44449467 13.0324286 9.95392693 13.0324286 9.95392693 14.0324286 5.44449467 14.0324286"></polygon>
        <rect id="Rectangle-Copy" fill="url(#linearGradient-1)" x="0" y="1" width="16" height="10" rx="2"></rect>
        <g id="lim" fill-rule="nonzero" fill="#FFFFFF">
            <use xlink:href="#path-2"></use>
            <use xlink:href="#path-2"></use>
        </g>
    </g>
</svg>