<?xml version="1.0" encoding="UTF-8"?>
<svg width="16px" height="16px" viewBox="0 0 16 16" version="1.1" xmlns="http://www.w3.org/2000/svg" xmlns:xlink="http://www.w3.org/1999/xlink">
    <title>logo_wi_python_16x16</title>
    <g id="logo_wi_python_16x16" stroke="none" stroke-width="1" fill="none" fill-rule="evenodd">
        <g id="Group" transform="translate(1.000000, 1.000000)">
            <path d="M4.03560099,4 L4.03560099,2.5 C4.03560099,1.3954305 4.93103149,0.5 6.03560099,0.5 L8.03560099,0.5 C9.14017049,0.5 10.035601,1.3954305 10.035601,2.5 L10.035601,5 C10.035601,6.1045695 9.14017049,7 8.03560099,7 L6.03560099,7 C4.93103149,7 4.03560099,7.8954305 4.03560099,9 L4.03560099,11.5 C4.03560099,12.6045695 4.93103149,13.5 6.03560099,13.5 L8.03560099,13.5 C9.14017049,13.5 10.035601,12.6045695 10.035601,11.5 L10.035601,10.0043441 L10.035601,10.0043441" id="Line-7" stroke="#FFFFFF" stroke-linecap="square"></path>
            <path d="M10.5259795,3.99999999 L11.5356011,3.99999999 C12.6401706,3.99999999 13.5356011,4.89543049 13.5356011,5.99999999 L13.5356011,8.00434415 C13.5356011,9.10891365 12.6401706,10.0043441 11.5356011,10.0043441 L8.04750907,10.0043441 L8.04750907,10.0043441" id="Line-8" stroke="#FFFFFF" stroke-linecap="square"></path>
            <path d="M3.02597946,3.99999999 L4.03560106,3.99999999 C5.14017056,3.99999999 6.03560106,4.89543049 6.03560106,5.99999999 L6.03560106,8.00434415 C6.03560106,9.10891365 5.14017056,10.0043441 4.03560106,10.0043441 L0.547509065,10.0043441 L0.547509065,10.0043441" id="Line-8" stroke="#FFFFFF" stroke-linecap="square" transform="translate(3.291555, 7.002172) scale(-1, -1) translate(-3.291555, -7.002172) "></path>
            <circle id="Oval" fill="#FFFFFF" cx="6.53560099" cy="2.5" r="1"></circle>
            <circle id="Oval" fill="#FFFFFF" cx="7.53560099" cy="11.5" r="1"></circle>
        </g>
    </g>
</svg>