<?xml version="1.0" encoding="UTF-8"?>
<svg width="16px" height="16px" viewBox="0 0 16 16" version="1.1" xmlns="http://www.w3.org/2000/svg" xmlns:xlink="http://www.w3.org/1999/xlink">
    <title>logplot_multi_16x16</title>
    <g id="logplot_multi_16x16" stroke="none" stroke-width="1" fill="none" fill-rule="evenodd">
        <g id="Group" transform="translate(0.500000, 0.000000)" fill="#0377BE">
            <g id="Untitled-1" transform="translate(0.337050, 0.363636)">
                <path d="M2.4,3.2 C2.69090909,3.49090909 2.90909091,3.85454545 2.90909091,4.29090909 L2.90909091,4.36363636 L2.18181818,4.36363636 C2.18181818,4.36363636 2.18181818,4.29090909 2.18181818,4.29090909 C2.18181818,3.92727273 1.81818182,3.56363636 1.45454545,3.56363636 C1.09090909,3.56363636 0.727272727,3.41818182 0.509090909,3.2 C0.218181818,2.90909091 0,2.54545455 0,2.10909091 C0,1.67272727 0.218181818,1.30909091 0.509090909,1.01818182 C0.727272727,0.8 1.09090909,0.654545455 1.45454545,0.654545455 C1.81818182,0.654545455 2.18181818,0.290909091 2.18181818,0 L2.90909091,0 C2.90909091,0.436363636 2.69090909,0.8 2.4,1.01818182 C2.18181818,1.23636364 1.81818182,1.38181818 1.45454545,1.38181818 C1.09090909,1.38181818 0.727272727,1.74545455 0.727272727,2.10909091 C0.727272727,2.47272727 1.09090909,2.83636364 1.45454545,2.83636364 C1.81818182,2.83636364 2.18181818,2.98181818 2.4,3.2 Z" id="Path"></path>
            </g>
            <g id="Untitled-1-Copy-2" transform="translate(0.337050, 9.090909)">
                <path d="M2.4,3.2 C2.69090909,3.49090909 2.90909091,3.85454545 2.90909091,4.29090909 L2.90909091,4.36363636 L2.18181818,4.36363636 C2.18181818,4.36363636 2.18181818,4.29090909 2.18181818,4.29090909 C2.18181818,3.92727273 1.81818182,3.56363636 1.45454545,3.56363636 C1.09090909,3.56363636 0.727272727,3.41818182 0.509090909,3.2 C0.218181818,2.90909091 0,2.54545455 0,2.10909091 C0,1.67272727 0.218181818,1.30909091 0.509090909,1.01818182 C0.727272727,0.8 1.09090909,0.654545455 1.45454545,0.654545455 C1.81818182,0.654545455 2.18181818,0.290909091 2.18181818,0 L2.90909091,0 C2.90909091,0.436363636 2.69090909,0.8 2.4,1.01818182 C2.18181818,1.23636364 1.81818182,1.38181818 1.45454545,1.38181818 C1.09090909,1.38181818 0.727272727,1.74545455 0.727272727,2.10909091 C0.727272727,2.47272727 1.09090909,2.83636364 1.45454545,2.83636364 C1.81818182,2.83636364 2.18181818,2.98181818 2.4,3.2 Z" id="Path"></path>
            </g>
            <path d="M0.33705019,15.5636364 C0.33705019,15.1272727 0.555232008,14.7636364 0.846141099,14.4727273 C1.06432292,14.2545455 1.42795928,14.1090909 1.79159564,14.1090909 C2.15523201,14.1090909 2.51886837,13.7454545 2.51886837,13.4545455 L3.2461411,13.4545455 C3.2461411,13.8909091 3.02795928,14.2545455 2.73705019,14.4727273 C2.51886837,14.6909091 2.15523201,14.8363636 1.79159564,14.8363636 C1.42795928,14.8363636 1.06432292,15.2 1.06432292,15.5636364 C1.06432292,15.9272727 0.33705019,16 0.33705019,15.5636364 Z" id="Path"></path>
            <g id="Untitled-1-Copy" transform="translate(0.337050, 4.727273)">
                <path d="M2.4,3.2 C2.69090909,3.49090909 2.90909091,3.85454545 2.90909091,4.29090909 L2.90909091,4.36363636 L2.18181818,4.36363636 C2.18181818,4.36363636 2.18181818,4.29090909 2.18181818,4.29090909 C2.18181818,3.92727273 1.81818182,3.56363636 1.45454545,3.56363636 C1.09090909,3.56363636 0.727272727,3.41818182 0.509090909,3.2 C0.218181818,2.90909091 0,2.54545455 0,2.10909091 C0,1.67272727 0.218181818,1.30909091 0.509090909,1.01818182 C0.727272727,0.8 1.09090909,0.654545455 1.45454545,0.654545455 C1.81818182,0.654545455 2.18181818,0.290909091 2.18181818,0 L2.90909091,0 C2.90909091,0.436363636 2.69090909,0.8 2.4,1.01818182 C2.18181818,1.23636364 1.81818182,1.38181818 1.45454545,1.38181818 C1.09090909,1.38181818 0.727272727,1.74545455 0.727272727,2.10909091 C0.727272727,2.47272727 1.09090909,2.83636364 1.45454545,2.83636364 C1.81818182,2.83636364 2.18181818,2.98181818 2.4,3.2 Z" id="Path"></path>
            </g>
        </g>
        <polygon id="Fill-22" fill="#F16464" transform="translate(6.571429, 4.500000) rotate(-270.000000) translate(-6.571429, -4.500000) " points="6.57142857 3.07142857 4.07142857 5.92857143 9.07142857 5.92857143"></polygon>
        <g id="Group" transform="translate(7.500000, 0.500000)">
            <polyline id="Line" stroke="#0077BE" stroke-linecap="round" points="1.14679327 14.020864 2.99739666 1 5 1 7 14.020864"></polyline>
            <rect id="Rectangle-7-Copy-7" fill="#0077BE" x="1.50837665" y="8.28571429" width="5.08972693" height="1" rx="0.5"></rect>
            <rect id="Rectangle-7-Copy-8" fill="#0077BE" x="1.97107909" y="5.71428571" width="4.16432203" height="1" rx="0.5"></rect>
            <rect id="Rectangle-7-Copy-9" fill="#0077BE" x="2.43378154" y="3.14285714" width="3.23891714" height="1" rx="0.5"></rect>
            <rect id="Rectangle-7-Copy-6" fill="#0077BE" x="1.0456742" y="10.8571429" width="6.01513183" height="1" rx="0.5"></rect>
            <line x1="4" y1="1" x2="4" y2="14.020864" id="Line-2" stroke="#0077BE" stroke-width="0.5" stroke-linecap="round"></line>
            <rect id="Rectangle-7-Copy-10" fill="#0077BE" x="1.91783898" y="-8.8817842e-16" width="4.16432203" height="1" rx="0.5"></rect>
            <g id="Rectangle-7-Copy-11" transform="translate(0.000000, 14.000000)" fill="#0077BE">
                <rect id="Rectangle-7-Copy-10" x="0" y="-9.99200722e-16" width="2" height="1" rx="0.5"></rect>
            </g>
            <g id="Rectangle-7-Copy-12" transform="translate(3.000000, 14.000000)" fill="#0077BE">
                <rect id="Rectangle-7-Copy-10" x="0" y="-9.99200722e-16" width="2" height="1" rx="0.5"></rect>
            </g>
            <g id="Rectangle-7-Copy-13" transform="translate(6.000000, 14.000000)" fill="#0077BE">
                <rect id="Rectangle-7-Copy-10" x="0" y="-9.99200722e-16" width="2" height="1" rx="0.5"></rect>
            </g>
        </g>
    </g>
</svg>