<?xml version="1.0" encoding="UTF-8"?>
<svg width="32px" height="32px" viewBox="0 0 32 32" version="1.1" xmlns="http://www.w3.org/2000/svg" xmlns:xlink="http://www.w3.org/1999/xlink">
    <title>logplot_blank_null_32x32</title>
    <defs>
        <linearGradient x1="50%" y1="3.49530347%" x2="50%" y2="100%" id="linearGradient-1">
            <stop stop-color="#1AAAFF" offset="0%"></stop>
            <stop stop-color="#0077BE" offset="100%"></stop>
        </linearGradient>
        <linearGradient x1="25.5187587%" y1="92.6110365%" x2="93.2424503%" y2="9.07195215%" id="linearGradient-2">
            <stop stop-color="#F16464" offset="0%"></stop>
            <stop stop-color="#F79494" offset="54.49984%"></stop>
            <stop stop-color="#FFD3D3" offset="100%"></stop>
        </linearGradient>
        <linearGradient x1="50%" y1="3.49530347%" x2="50%" y2="100%" id="linearGradient-3">
            <stop stop-color="#1AAAFF" offset="0%"></stop>
            <stop stop-color="#0077BE" offset="100%"></stop>
        </linearGradient>
    </defs>
    <g id="logplot_blank_null_32x32" stroke="none" stroke-width="1" fill="none" fill-rule="evenodd">
        <path d="M26.5,4.5 L26.5,24 C26.5,24.4142136 26.3321068,24.7892136 26.0606602,25.0606602 C25.7892136,25.3321068 25.4142136,25.5 25,25.5 L25,25.5 L3,25.5 C2.58578644,25.5 2.21078644,25.3321068 1.93933983,25.0606602 C1.66789322,24.7892136 1.5,24.4142136 1.5,24 L1.5,24 L1.5,4.5 L26.5,4.5 Z" id="Rectangle-7-Copy-7" stroke="#0077BE"></path>
        <rect id="Rectangle-7-Copy-7" stroke="#0077BE" x="9.5" y="4.5" width="9" height="21"></rect>
        <rect id="Rectangle-7-Copy-8" fill="url(#linearGradient-1)" x="1" y="2" width="26" height="3" rx="1"></rect>
        <g id="Group" transform="translate(15.000000, 15.000000)">
            <g id="Group-4" fill="url(#linearGradient-2)" stroke="#FFFFFF">
                <circle id="Oval-2" cx="8" cy="8" r="8.5"></circle>
            </g>
            <rect id="Rectangle" fill="#FFFFFF" x="7.25" y="3.5" width="1.5" height="9" rx="0.75"></rect>
            <rect id="Rectangle" fill="#FFFFFF" x="3.5" y="7.25" width="9" height="1.5" rx="0.75"></rect>
        </g>
        <path d="M3,1 L25,1 C26.1045695,1 27,1.8954305 27,3 L27,5 L27,5 L1,5 L1,3 C1,1.8954305 1.8954305,1 3,1 Z" id="Rectangle-7" fill="url(#linearGradient-3)"></path>
    </g>
</svg>