<?xml version="1.0" encoding="UTF-8"?>
<svg width="32px" height="32px" viewBox="0 0 32 32" version="1.1" xmlns="http://www.w3.org/2000/svg" xmlns:xlink="http://www.w3.org/1999/xlink">
    <title>logplot_template_32x32</title>
    <defs>
        <linearGradient x1="50%" y1="3.49530347%" x2="50%" y2="100%" id="linearGradient-1">
            <stop stop-color="#1AAAFF" offset="0%"></stop>
            <stop stop-color="#0077BE" offset="100%"></stop>
        </linearGradient>
    </defs>
    <g id="logplot_template_32x32" stroke="none" stroke-width="1" fill="none" fill-rule="evenodd">
        <g id="Group-2" transform="translate(3.000000, 5.000000)">
            <path d="M25.5,0.5 L25.5,21 C25.5,21.4142136 25.3321068,21.7892136 25.0606602,22.0606602 C24.7892136,22.3321068 24.4142136,22.5 24,22.5 L24,22.5 L2,22.5 C1.58578644,22.5 1.21078644,22.3321068 0.939339828,22.0606602 C0.667893219,21.7892136 0.5,21.4142136 0.5,21 L0.5,21 L0.5,0.5 L25.5,0.5 Z" id="Rectangle-7-Copy-7" stroke="#0077BE"></path>
            <rect id="Rectangle-7-Copy-7" stroke="#0077BE" x="8.5" y="0.5" width="9" height="22"></rect>
            <rect id="Rectangle-20-Copy-48" fill="#F16464" x="19" y="2.5" width="1" height="1"></rect>
            <rect id="Rectangle-20-Copy-60" fill="#0077BE" x="19.0108879" y="10.5043086" width="1" height="1"></rect>
            <rect id="Rectangle-20-Copy-54" fill="#F16464" x="18.9947855" y="6.50215428" width="1" height="1"></rect>
            <rect id="Rectangle-20-Copy-72" fill="#F16464" x="19.0004903" y="18.5086171" width="1" height="1"></rect>
            <rect id="Rectangle-20-Copy-61" fill="#0077BE" x="19.0056733" y="14.5064629" width="1" height="1"></rect>
            <rect id="Rectangle-20-Copy-51" fill="#F16464" x="19" y="4.50143506" width="1" height="1"></rect>
            <rect id="Rectangle-20-Copy-62" fill="#0077BE" x="19.0108879" y="12.5057436" width="1" height="1"></rect>
            <rect id="Rectangle-20-Copy-55" fill="#F16464" x="18.9947855" y="8.50358935" width="1" height="1"></rect>
            <rect id="Rectangle-20-Copy-73" fill="#F16464" x="19.0004903" y="20.5100522" width="1" height="1"></rect>
            <rect id="Rectangle-20-Copy-63" fill="#0077BE" x="19.0056733" y="16.5078979" width="1" height="1"></rect>
            <rect id="Rectangle-20-Copy-49" fill="#F16464" x="21" y="2.5" width="1" height="1"></rect>
            <rect id="Rectangle-20-Copy-64" fill="#0077BE" x="21.0108879" y="10.5043086" width="1" height="1"></rect>
            <rect id="Rectangle-20-Copy-56" fill="#F16464" x="20.9947855" y="6.50215428" width="1" height="1"></rect>
            <rect id="Rectangle-20-Copy-74" fill="#F16464" x="21.0004903" y="18.5086171" width="1" height="1"></rect>
            <rect id="Rectangle-20-Copy-65" fill="#0077BE" x="21.0056733" y="14.5064629" width="1" height="1"></rect>
            <rect id="Rectangle-20-Copy-52" fill="#F16464" x="21" y="4.50143506" width="1" height="1"></rect>
            <rect id="Rectangle-20-Copy-66" fill="#0077BE" x="21.0108879" y="12.5057436" width="1" height="1"></rect>
            <rect id="Rectangle-20-Copy-57" fill="#F16464" x="20.9947855" y="8.50358935" width="1" height="1"></rect>
            <rect id="Rectangle-20-Copy-75" fill="#F16464" x="21.0004903" y="20.5100522" width="1" height="1"></rect>
            <rect id="Rectangle-20-Copy-67" fill="#0077BE" x="21.0056733" y="16.5078979" width="1" height="1"></rect>
            <rect id="Rectangle-20-Copy-50" fill="#F16464" x="23" y="2.5" width="1" height="1"></rect>
            <rect id="Rectangle-20-Copy-68" fill="#0077BE" x="23.0108879" y="10.5043086" width="1" height="1"></rect>
            <rect id="Rectangle-20-Copy-58" fill="#F16464" x="22.9947855" y="6.50215428" width="1" height="1"></rect>
            <rect id="Rectangle-20-Copy-76" fill="#F16464" x="23.0004903" y="18.5086171" width="1" height="1"></rect>
            <rect id="Rectangle-20-Copy-69" fill="#0077BE" x="23.0056733" y="14.5064629" width="1" height="1"></rect>
            <rect id="Rectangle-20-Copy-53" fill="#F16464" x="23" y="4.50143506" width="1" height="1"></rect>
            <rect id="Rectangle-20-Copy-70" fill="#0077BE" x="23.0108879" y="12.5057436" width="1" height="1"></rect>
            <rect id="Rectangle-20-Copy-59" fill="#F16464" x="22.9947855" y="8.50358935" width="1" height="1"></rect>
            <rect id="Rectangle-20-Copy-77" fill="#F16464" x="23.0004903" y="20.5100522" width="1" height="1"></rect>
            <rect id="Rectangle-20-Copy-71" fill="#0077BE" x="23.0056733" y="16.5078979" width="1" height="1"></rect>
            <g id="Group" transform="translate(2.000000, 1.000000)" fill="#0377BE">
                <g id="Untitled-1" transform="translate(0.463444, 0.500000)">
                    <path d="M3.3,4.4 C3.7,4.8 4,5.3 4,5.9 L4,6 L3,6 C3,6 3,5.9 3,5.9 C3,5.4 2.5,4.9 2,4.9 C1.5,4.9 1,4.7 0.7,4.4 C0.3,4 0,3.5 0,2.9 C0,2.3 0.3,1.8 0.7,1.4 C1,1.1 1.5,0.9 2,0.9 C2.5,0.9 3,0.4 3,0 L4,0 C4,0.6 3.7,1.1 3.3,1.4 C3,1.7 2.5,1.9 2,1.9 C1.5,1.9 1,2.4 1,2.9 C1,3.4 1.5,3.9 2,3.9 C2.5,3.9 3,4.1 3.3,4.4 Z" id="Path"></path>
                </g>
                <g id="Untitled-1-Copy-2" transform="translate(0.463444, 12.500000)">
                    <path d="M3.3,4.4 C3.7,4.8 4,5.3 4,5.9 L4,6 L3,6 C3,6 3,5.9 3,5.9 C3,5.4 2.5,4.9 2,4.9 C1.5,4.9 1,4.7 0.7,4.4 C0.3,4 0,3.5 0,2.9 C0,2.3 0.3,1.8 0.7,1.4 C1,1.1 1.5,0.9 2,0.9 C2.5,0.9 3,0.4 3,0 L4,0 C4,0.6 3.7,1.1 3.3,1.4 C3,1.7 2.5,1.9 2,1.9 C1.5,1.9 1,2.4 1,2.9 C1,3.4 1.5,3.9 2,3.9 C2.5,3.9 3,4.1 3.3,4.4 Z" id="Path"></path>
                </g>
                <path d="M0.463444011,21.4 C0.463444011,20.8 0.763444011,20.3 1.16344401,19.9 C1.46344401,19.6 1.96344401,19.4 2.46344401,19.4 C2.96344401,19.4 3.46344401,18.9 3.46344401,18.5 L4.46344401,18.5 C4.46344401,19.1 4.16344401,19.6 3.76344401,19.9 C3.46344401,20.2 2.96344401,20.4 2.46344401,20.4 C1.96344401,20.4 1.46344401,20.9 1.46344401,21.4 C1.46344401,21.9 0.463444011,22 0.463444011,21.4 Z" id="Path"></path>
                <g id="Untitled-1-Copy" transform="translate(0.463444, 6.500000)">
                    <path d="M3.3,4.4 C3.7,4.8 4,5.3 4,5.9 L4,6 L3,6 C3,6 3,5.9 3,5.9 C3,5.4 2.5,4.9 2,4.9 C1.5,4.9 1,4.7 0.7,4.4 C0.3,4 0,3.5 0,2.9 C0,2.3 0.3,1.8 0.7,1.4 C1,1.1 1.5,0.9 2,0.9 C2.5,0.9 3,0.4 3,0 L4,0 C4,0.6 3.7,1.1 3.3,1.4 C3,1.7 2.5,1.9 2,1.9 C1.5,1.9 1,2.4 1,2.9 C1,3.4 1.5,3.9 2,3.9 C2.5,3.9 3,4.1 3.3,4.4 Z" id="Path"></path>
                </g>
            </g>
            <g id="Group-Copy" transform="translate(10.500000, 1.000000)" fill="#0377BE">
                <g id="Untitled-1" transform="translate(0.463444, 0.500000)">
                    <path d="M3.3,4.4 C3.7,4.8 4,5.3 4,5.9 L4,6 L3,6 C3,6 3,5.9 3,5.9 C3,5.4 2.5,4.9 2,4.9 C1.5,4.9 1,4.7 0.7,4.4 C0.3,4 0,3.5 0,2.9 C0,2.3 0.3,1.8 0.7,1.4 C1,1.1 1.5,0.9 2,0.9 C2.5,0.9 3,0.4 3,0 L4,0 C4,0.6 3.7,1.1 3.3,1.4 C3,1.7 2.5,1.9 2,1.9 C1.5,1.9 1,2.4 1,2.9 C1,3.4 1.5,3.9 2,3.9 C2.5,3.9 3,4.1 3.3,4.4 Z" id="Path"></path>
                </g>
                <g id="Untitled-1-Copy-2" transform="translate(0.463444, 12.500000)">
                    <path d="M3.3,4.4 C3.7,4.8 4,5.3 4,5.9 L4,6 L3,6 C3,6 3,5.9 3,5.9 C3,5.4 2.5,4.9 2,4.9 C1.5,4.9 1,4.7 0.7,4.4 C0.3,4 0,3.5 0,2.9 C0,2.3 0.3,1.8 0.7,1.4 C1,1.1 1.5,0.9 2,0.9 C2.5,0.9 3,0.4 3,0 L4,0 C4,0.6 3.7,1.1 3.3,1.4 C3,1.7 2.5,1.9 2,1.9 C1.5,1.9 1,2.4 1,2.9 C1,3.4 1.5,3.9 2,3.9 C2.5,3.9 3,4.1 3.3,4.4 Z" id="Path"></path>
                </g>
                <path d="M0.463444011,21.4 C0.463444011,20.8 0.763444011,20.3 1.16344401,19.9 C1.46344401,19.6 1.96344401,19.4 2.46344401,19.4 C2.96344401,19.4 3.46344401,18.9 3.46344401,18.5 L4.46344401,18.5 C4.46344401,19.1 4.16344401,19.6 3.76344401,19.9 C3.46344401,20.2 2.96344401,20.4 2.46344401,20.4 C1.96344401,20.4 1.46344401,20.9 1.46344401,21.4 C1.46344401,21.9 0.463444011,22 0.463444011,21.4 Z" id="Path"></path>
                <g id="Untitled-1-Copy" transform="translate(0.463444, 6.500000)">
                    <path d="M3.3,4.4 C3.7,4.8 4,5.3 4,5.9 L4,6 L3,6 C3,6 3,5.9 3,5.9 C3,5.4 2.5,4.9 2,4.9 C1.5,4.9 1,4.7 0.7,4.4 C0.3,4 0,3.5 0,2.9 C0,2.3 0.3,1.8 0.7,1.4 C1,1.1 1.5,0.9 2,0.9 C2.5,0.9 3,0.4 3,0 L4,0 C4,0.6 3.7,1.1 3.3,1.4 C3,1.7 2.5,1.9 2,1.9 C1.5,1.9 1,2.4 1,2.9 C1,3.4 1.5,3.9 2,3.9 C2.5,3.9 3,4.1 3.3,4.4 Z" id="Path"></path>
                </g>
            </g>
            <g id="Untitled-1-Copy-3" transform="translate(2.463444, 19.500000)"></g>
        </g>
        <path d="M5,3 L27,3 C28.1045695,3 29,3.8954305 29,5 L29,7 L29,7 L3,7 L3,5 C3,3.8954305 3.8954305,3 5,3 Z" id="Rectangle-7" fill="url(#linearGradient-1)"></path>
    </g>
</svg>