<?xml version="1.0" encoding="UTF-8"?>
<svg width="16px" height="16px" viewBox="0 0 16 16" version="1.1" xmlns="http://www.w3.org/2000/svg" xmlns:xlink="http://www.w3.org/1999/xlink">
    <title>logplot_designer_16x16</title>
    <defs>
        <linearGradient x1="14.7710428%" y1="74.5341647%" x2="74.8490203%" y2="64.4604911%" id="linearGradient-1">
            <stop stop-color="#F99D9D" offset="0%"></stop>
            <stop stop-color="#F16464" offset="100%"></stop>
        </linearGradient>
    </defs>
    <g id="logplot_designer_16x16" stroke="none" stroke-width="1" fill="none" fill-rule="evenodd">
        <path d="M2.37075521,11.12 C2.37075521,10.64 2.61075521,10.24 2.93075521,9.92 C3.17075521,9.68 3.57075521,9.52 3.97075521,9.52 C4.37075521,9.52 4.77075521,9.12 4.77075521,8.8 L5.57075521,8.8 C5.57075521,9.28 5.33075521,9.68 5.01075521,9.92 C4.77075521,10.16 4.37075521,10.32 3.97075521,10.32 C3.57075521,10.32 3.17075521,10.72 3.17075521,11.12 C3.17075521,11.52 2.37075521,11.6 2.37075521,11.12 Z" id="Path" fill="#F16464"></path>
        <path d="M5.01075521,2.72 C5.33075521,3.04 5.57075521,3.44 5.57075521,3.92 L5.57075521,4 L4.77075521,4 C4.77075521,4 4.77075521,3.92 4.77075521,3.92 C4.77075521,3.52 4.37075521,3.12 3.97075521,3.12 C3.57075521,3.12 3.17075521,2.96 2.93075521,2.72 C2.61075521,2.4 2.37075521,2 2.37075521,1.52 C2.37075521,1.04 2.61075521,0.64 2.93075521,0.32 C3.17075521,0.08 3.57075521,-0.08 3.97075521,-0.08 C4.37075521,-0.08 4.77075521,-0.48 4.77075521,-0.8 L5.57075521,-0.8 C5.57075521,-0.32 5.33075521,0.08 5.01075521,0.32 C4.77075521,0.56 4.37075521,0.72 3.97075521,0.72 C3.57075521,0.72 3.17075521,1.12 3.17075521,1.52 C3.17075521,1.92 3.57075521,2.32 3.97075521,2.32 C4.37075521,2.32 4.77075521,2.48 5.01075521,2.72 Z" id="Path" fill="#F16464"></path>
        <rect id="Rectangle-7-Copy-7" stroke="#0077BE" x="0.5" y="0.5" width="11" height="11"></rect>
        <path d="M5.01075521,7.52 C5.33075521,7.84 5.57075521,8.24 5.57075521,8.72 L5.57075521,8.8 L4.77075521,8.8 C4.77075521,8.8 4.77075521,8.72 4.77075521,8.72 C4.77075521,8.32 4.37075521,7.92 3.97075521,7.92 C3.57075521,7.92 3.17075521,7.76 2.93075521,7.52 C2.61075521,7.2 2.37075521,6.8 2.37075521,6.32 C2.37075521,5.84 2.61075521,5.44 2.93075521,5.12 C3.17075521,4.88 3.57075521,4.72 3.97075521,4.72 C4.37075521,4.72 4.77075521,4.32 4.77075521,4 L5.57075521,4 C5.57075521,4.48 5.33075521,4.88 5.01075521,5.12 C4.77075521,5.36 4.37075521,5.52 3.97075521,5.52 C3.57075521,5.52 3.17075521,5.92 3.17075521,6.32 C3.17075521,6.72 3.57075521,7.12 3.97075521,7.12 C4.37075521,7.12 4.77075521,7.28 5.01075521,7.52 Z" id="Path" fill="#F16464"></path>
        <g id="Group" transform="translate(6.000000, -6.000000)" fill="#0377BE">
            <g id="Untitled-1-Copy-2" transform="translate(0.370755, 10.000000)">
                <path d="M2.64,3.52 C2.96,3.84 3.2,4.24 3.2,4.72 L3.2,4.8 L2.4,4.8 C2.4,4.8 2.4,4.72 2.4,4.72 C2.4,4.32 2,3.92 1.6,3.92 C1.2,3.92 0.8,3.76 0.56,3.52 C0.24,3.2 0,2.8 0,2.32 C0,1.84 0.24,1.44 0.56,1.12 C0.8,0.88 1.2,0.72 1.6,0.72 C2,0.72 2.4,0.32 2.4,0 L3.2,0 C3.2,0.48 2.96,0.88 2.64,1.12 C2.4,1.36 2,1.52 1.6,1.52 C1.2,1.52 0.8,1.92 0.8,2.32 C0.8,2.72 1.2,3.12 1.6,3.12 C2,3.12 2.4,3.28 2.64,3.52 Z" id="Path"></path>
            </g>
            <path d="M0.370755209,17.12 C0.370755209,16.64 0.610755209,16.24 0.930755209,15.92 C1.17075521,15.68 1.57075521,15.52 1.97075521,15.52 C2.37075521,15.52 2.77075521,15.12 2.77075521,14.8 L3.57075521,14.8 C3.57075521,15.28 3.33075521,15.68 3.01075521,15.92 C2.77075521,16.16 2.37075521,16.32 1.97075521,16.32 C1.57075521,16.32 1.17075521,16.72 1.17075521,17.12 C1.17075521,17.52 0.370755209,17.6 0.370755209,17.12 Z" id="Path"></path>
            <g id="Untitled-1-Copy" transform="translate(0.370755, 5.200000)">
                <path d="M2.64,3.52 C2.96,3.84 3.2,4.24 3.2,4.72 L3.2,4.8 L2.4,4.8 C2.4,4.8 2.4,4.72 2.4,4.72 C2.4,4.32 2,3.92 1.6,3.92 C1.2,3.92 0.8,3.76 0.56,3.52 C0.24,3.2 0,2.8 0,2.32 C0,1.84 0.24,1.44 0.56,1.12 C0.8,0.88 1.2,0.72 1.6,0.72 C2,0.72 2.4,0.32 2.4,0 L3.2,0 C3.2,0.48 2.96,0.88 2.64,1.12 C2.4,1.36 2,1.52 1.6,1.52 C1.2,1.52 0.8,1.92 0.8,2.32 C0.8,2.72 1.2,3.12 1.6,3.12 C2,3.12 2.4,3.28 2.64,3.52 Z" id="Path"></path>
            </g>
        </g>
        <g id="ic_brush_48px" transform="translate(4.447727, 4.000000)" fill="url(#linearGradient-1)" fill-rule="nonzero" stroke="#FFFFFF">
            <path d="M3.48763734,5.90050448 C4.20275799,5.90050448 4.8509898,6.19094418 5.32038492,6.6603393 C5.78978004,7.12973442 6.08021974,7.77796623 6.08021974,8.49308688 C6.08021974,9.40197973 5.71208801,10.2244772 5.11679409,10.8197711 C4.52150016,11.415065 3.69900272,11.7831967 2.79010987,11.7831967 C1.59032286,11.7831967 0.334331036,11.1619315 -0.399213292,10.1891879 L-0.399213292,10.1891879 L-1.00328083,9.38814181 L0,9.38814181 C0.211993786,9.38814181 0.463946912,9.28719356 0.648577645,9.10256283 C0.794998674,8.9561418 0.895054936,8.75139603 0.895054936,8.49308688 C0.895054936,7.77796623 1.18549464,7.12973442 1.65488976,6.6603393 C2.12428488,6.19094418 2.77251669,5.90050448 3.48763734,5.90050448 Z M9.68168472,0.086925855 L12.0922265,1.25713431 L6.41453324,7.83197283 L4.17558549,5.59302508 L9.68168472,0.086925855 Z" id="Shape"></path>
        </g>
    </g>
</svg>