<?xml version="1.0" encoding="UTF-8"?>
<svg width="16px" height="16px" viewBox="0 0 16 16" version="1.1" xmlns="http://www.w3.org/2000/svg" xmlns:xlink="http://www.w3.org/1999/xlink">
    <title>logplot_blank_16x16</title>
    <g id="logplot_blank_16x16" stroke="none" stroke-width="1" fill="none" fill-rule="evenodd">
        <g id="Group-2" transform="translate(-0.500000, -0.500000)">
            <g id="Group-3" transform="translate(3.000000, 1.000000)" fill="#F16464">
                <path d="M2.7836487,3.87560384 C3.1036487,4.19560384 3.3436487,4.59560384 3.3436487,5.07560384 L3.3436487,5.15560384 L2.5436487,5.15560384 C2.5436487,5.15560384 2.5436487,5.07560384 2.5436487,5.07560384 C2.5436487,4.67560384 2.1436487,4.27560384 1.7436487,4.27560384 C1.3436487,4.27560384 0.943648704,4.11560384 0.703648704,3.87560384 C0.383648704,3.55560384 0.143648704,3.15560384 0.143648704,2.67560384 C0.143648704,2.19560384 0.383648704,1.79560384 0.703648704,1.47560384 C0.943648704,1.23560384 1.3436487,1.07560384 1.7436487,1.07560384 C2.1436487,1.07560384 2.5436487,0.675603837 2.5436487,0.355603837 L3.3436487,0.355603837 C3.3436487,0.835603837 3.1036487,1.23560384 2.7836487,1.47560384 C2.5436487,1.71560384 2.1436487,1.87560384 1.7436487,1.87560384 C1.3436487,1.87560384 0.943648704,2.27560384 0.943648704,2.67560384 C0.943648704,3.07560384 1.3436487,3.47560384 1.7436487,3.47560384 C2.1436487,3.47560384 2.5436487,3.63560384 2.7836487,3.87560384 Z" id="Path"></path>
                <path d="M2.7836487,13.4756038 C3.1036487,13.7956038 3.3436487,14.1956038 3.3436487,14.6756038 L3.3436487,14.7556038 L2.5436487,14.7556038 C2.5436487,14.7556038 2.5436487,14.6756038 2.5436487,14.6756038 C2.5436487,14.2756038 2.1436487,13.8756038 1.7436487,13.8756038 C1.3436487,13.8756038 0.943648704,13.7156038 0.703648704,13.4756038 C0.383648704,13.1556038 0.143648704,12.7556038 0.143648704,12.2756038 C0.143648704,11.7956038 0.383648704,11.3956038 0.703648704,11.0756038 C0.943648704,10.8356038 1.3436487,10.6756038 1.7436487,10.6756038 C2.1436487,10.6756038 2.5436487,10.2756038 2.5436487,9.95560384 L3.3436487,9.95560384 C3.3436487,10.4356038 3.1036487,10.8356038 2.7836487,11.0756038 C2.5436487,11.3156038 2.1436487,11.4756038 1.7436487,11.4756038 C1.3436487,11.4756038 0.943648704,11.8756038 0.943648704,12.2756038 C0.943648704,12.6756038 1.3436487,13.0756038 1.7436487,13.0756038 C2.1436487,13.0756038 2.5436487,13.2356038 2.7836487,13.4756038 Z" id="Path"></path>
                <path d="M2.7836487,8.67560384 C3.1036487,8.99560384 3.3436487,9.39560384 3.3436487,9.87560384 L3.3436487,9.95560384 L2.5436487,9.95560384 C2.5436487,9.95560384 2.5436487,9.87560384 2.5436487,9.87560384 C2.5436487,9.47560384 2.1436487,9.07560384 1.7436487,9.07560384 C1.3436487,9.07560384 0.943648704,8.91560384 0.703648704,8.67560384 C0.383648704,8.35560384 0.143648704,7.95560384 0.143648704,7.47560384 C0.143648704,6.99560384 0.383648704,6.59560384 0.703648704,6.27560384 C0.943648704,6.03560384 1.3436487,5.87560384 1.7436487,5.87560384 C2.1436487,5.87560384 2.5436487,5.47560384 2.5436487,5.15560384 L3.3436487,5.15560384 C3.3436487,5.63560384 3.1036487,6.03560384 2.7836487,6.27560384 C2.5436487,6.51560384 2.1436487,6.67560384 1.7436487,6.67560384 C1.3436487,6.67560384 0.943648704,7.07560384 0.943648704,7.47560384 C0.943648704,7.87560384 1.3436487,8.27560384 1.7436487,8.27560384 C2.1436487,8.27560384 2.5436487,8.43560384 2.7836487,8.67560384 Z" id="Path"></path>
            </g>
            <rect id="Rectangle-7-Copy-7" stroke="#0077BE" x="1" y="1" width="15" height="15"></rect>
            <rect id="Rectangle-7-Copy-8" fill="#0077BE" x="8" y="0.5" width="1" height="16" rx="0.5"></rect>
            <path d="M3.1436487,18.0756038 C3.1436487,17.5956038 3.3836487,17.1956038 3.7036487,16.8756038 C3.9436487,16.6356038 4.3436487,16.4756038 4.7436487,16.4756038 C5.1436487,16.4756038 5.5436487,16.0756038 5.5436487,15.7556038 L6.3436487,15.7556038 C6.3436487,16.2356038 6.1036487,16.6356038 5.7836487,16.8756038 C5.5436487,17.1156038 5.1436487,17.2756038 4.7436487,17.2756038 C4.3436487,17.2756038 3.9436487,17.6756038 3.9436487,18.0756038 C3.9436487,18.4756038 3.1436487,18.5556038 3.1436487,18.0756038 Z" id="Path" fill="#0377BE"></path>
        </g>
        <g id="Group" transform="translate(9.500000, 0.500000)" fill="#0377BE">
            <g id="Untitled-1" transform="translate(0.370755, 0.400000)">
                <path d="M2.64,3.52 C2.96,3.84 3.2,4.24 3.2,4.72 L3.2,4.8 L2.4,4.8 C2.4,4.8 2.4,4.72 2.4,4.72 C2.4,4.32 2,3.92 1.6,3.92 C1.2,3.92 0.8,3.76 0.56,3.52 C0.24,3.2 0,2.8 0,2.32 C0,1.84 0.24,1.44 0.56,1.12 C0.8,0.88 1.2,0.72 1.6,0.72 C2,0.72 2.4,0.32 2.4,0 L3.2,0 C3.2,0.48 2.96,0.88 2.64,1.12 C2.4,1.36 2,1.52 1.6,1.52 C1.2,1.52 0.8,1.92 0.8,2.32 C0.8,2.72 1.2,3.12 1.6,3.12 C2,3.12 2.4,3.28 2.64,3.52 Z" id="Path"></path>
            </g>
            <g id="Untitled-1-Copy-2" transform="translate(0.370755, 10.000000)">
                <path d="M2.64,3.52 C2.96,3.84 3.2,4.24 3.2,4.72 L3.2,4.8 L2.4,4.8 C2.4,4.8 2.4,4.72 2.4,4.72 C2.4,4.32 2,3.92 1.6,3.92 C1.2,3.92 0.8,3.76 0.56,3.52 C0.24,3.2 0,2.8 0,2.32 C0,1.84 0.24,1.44 0.56,1.12 C0.8,0.88 1.2,0.72 1.6,0.72 C2,0.72 2.4,0.32 2.4,0 L3.2,0 C3.2,0.48 2.96,0.88 2.64,1.12 C2.4,1.36 2,1.52 1.6,1.52 C1.2,1.52 0.8,1.92 0.8,2.32 C0.8,2.72 1.2,3.12 1.6,3.12 C2,3.12 2.4,3.28 2.64,3.52 Z" id="Path"></path>
            </g>
            <path d="M0.370755209,17.12 C0.370755209,16.64 0.610755209,16.24 0.930755209,15.92 C1.17075521,15.68 1.57075521,15.52 1.97075521,15.52 C2.37075521,15.52 2.77075521,15.12 2.77075521,14.8 L3.57075521,14.8 C3.57075521,15.28 3.33075521,15.68 3.01075521,15.92 C2.77075521,16.16 2.37075521,16.32 1.97075521,16.32 C1.57075521,16.32 1.17075521,16.72 1.17075521,17.12 C1.17075521,17.52 0.370755209,17.6 0.370755209,17.12 Z" id="Path"></path>
            <g id="Untitled-1-Copy" transform="translate(0.370755, 5.200000)">
                <path d="M2.64,3.52 C2.96,3.84 3.2,4.24 3.2,4.72 L3.2,4.8 L2.4,4.8 C2.4,4.8 2.4,4.72 2.4,4.72 C2.4,4.32 2,3.92 1.6,3.92 C1.2,3.92 0.8,3.76 0.56,3.52 C0.24,3.2 0,2.8 0,2.32 C0,1.84 0.24,1.44 0.56,1.12 C0.8,0.88 1.2,0.72 1.6,0.72 C2,0.72 2.4,0.32 2.4,0 L3.2,0 C3.2,0.48 2.96,0.88 2.64,1.12 C2.4,1.36 2,1.52 1.6,1.52 C1.2,1.52 0.8,1.92 0.8,2.32 C0.8,2.72 1.2,3.12 1.6,3.12 C2,3.12 2.4,3.28 2.64,3.52 Z" id="Path"></path>
            </g>
        </g>
    </g>
</svg>