<?xml version="1.0" encoding="UTF-8"?>
<svg width="32px" height="32px" viewBox="0 0 32 32" version="1.1" xmlns="http://www.w3.org/2000/svg" xmlns:xlink="http://www.w3.org/1999/xlink">
    <title>logplot_designer_32x32</title>
    <defs>
        <linearGradient x1="50%" y1="3.49530347%" x2="50%" y2="100%" id="linearGradient-1">
            <stop stop-color="#1AAAFF" offset="0%"></stop>
            <stop stop-color="#0077BE" offset="100%"></stop>
        </linearGradient>
        <linearGradient x1="14.7710428%" y1="74.5341647%" x2="74.8490203%" y2="64.4604911%" id="linearGradient-2">
            <stop stop-color="#F99D9D" offset="0%"></stop>
            <stop stop-color="#F16464" offset="100%"></stop>
        </linearGradient>
        <linearGradient x1="50%" y1="3.49530347%" x2="50%" y2="100%" id="linearGradient-3">
            <stop stop-color="#1AAAFF" offset="0%"></stop>
            <stop stop-color="#0077BE" offset="100%"></stop>
        </linearGradient>
    </defs>
    <g id="logplot_designer_32x32" stroke="none" stroke-width="1" fill="none" fill-rule="evenodd">
        <g id="Untitled-1-Copy-3" transform="translate(5.463444, 24.500000)"></g>
        <path d="M26.5,4.5 L26.5,21 C26.5,22.2426407 25.9963203,23.3676407 25.1819805,24.1819805 C24.3676407,24.9963203 23.2426407,25.5 22,25.5 L22,25.5 L3,25.5 C2.58578644,25.5 2.21078644,25.3321068 1.93933983,25.0606602 C1.66789322,24.7892136 1.5,24.4142136 1.5,24 L1.5,24 L1.5,4.5 L26.5,4.5 Z" id="Rectangle-7-Copy-7" stroke="#0077BE"></path>
        <rect id="Rectangle-7-Copy-7" stroke="#0077BE" x="9.5" y="4.5" width="9" height="21"></rect>
        <rect id="Rectangle-7-Copy-8" fill="url(#linearGradient-1)" x="1" y="2" width="26" height="3" rx="1"></rect>
        <g id="Group" transform="translate(3.250000, 4.000000)" fill="#0377BE">
            <g id="Untitled-1" transform="translate(0.463444, 0.500000)">
                <path d="M3.3,4.4 C3.7,4.8 4,5.3 4,5.9 L4,6 L3,6 C3,6 3,5.9 3,5.9 C3,5.4 2.5,4.9 2,4.9 C1.5,4.9 1,4.7 0.7,4.4 C0.3,4 0,3.5 0,2.9 C0,2.3 0.3,1.8 0.7,1.4 C1,1.1 1.5,0.9 2,0.9 C2.5,0.9 3,0.4 3,0 L4,0 C4,0.6 3.7,1.1 3.3,1.4 C3,1.7 2.5,1.9 2,1.9 C1.5,1.9 1,2.4 1,2.9 C1,3.4 1.5,3.9 2,3.9 C2.5,3.9 3,4.1 3.3,4.4 Z" id="Path"></path>
            </g>
            <g id="Untitled-1-Copy-2" transform="translate(0.463444, 12.500000)">
                <path d="M3.3,4.4 C3.7,4.8 4,5.3 4,5.9 L4,6 L3,6 C3,6 3,5.9 3,5.9 C3,5.4 2.5,4.9 2,4.9 C1.5,4.9 1,4.7 0.7,4.4 C0.3,4 0,3.5 0,2.9 C0,2.3 0.3,1.8 0.7,1.4 C1,1.1 1.5,0.9 2,0.9 C2.5,0.9 3,0.4 3,0 L4,0 C4,0.6 3.7,1.1 3.3,1.4 C3,1.7 2.5,1.9 2,1.9 C1.5,1.9 1,2.4 1,2.9 C1,3.4 1.5,3.9 2,3.9 C2.5,3.9 3,4.1 3.3,4.4 Z" id="Path"></path>
            </g>
            <path d="M0.463444011,21.4 C0.463444011,20.8 0.763444011,20.3 1.16344401,19.9 C1.46344401,19.6 1.96344401,19.4 2.46344401,19.4 C2.96344401,19.4 3.46344401,18.9 3.46344401,18.5 L4.46344401,18.5 C4.46344401,19.1 4.16344401,19.6 3.76344401,19.9 C3.46344401,20.2 2.96344401,20.4 2.46344401,20.4 C1.96344401,20.4 1.46344401,20.9 1.46344401,21.4 C1.46344401,21.9 0.463444011,22 0.463444011,21.4 Z" id="Path"></path>
            <g id="Untitled-1-Copy" transform="translate(0.463444, 6.500000)">
                <path d="M3.3,4.4 C3.7,4.8 4,5.3 4,5.9 L4,6 L3,6 C3,6 3,5.9 3,5.9 C3,5.4 2.5,4.9 2,4.9 C1.5,4.9 1,4.7 0.7,4.4 C0.3,4 0,3.5 0,2.9 C0,2.3 0.3,1.8 0.7,1.4 C1,1.1 1.5,0.9 2,0.9 C2.5,0.9 3,0.4 3,0 L4,0 C4,0.6 3.7,1.1 3.3,1.4 C3,1.7 2.5,1.9 2,1.9 C1.5,1.9 1,2.4 1,2.9 C1,3.4 1.5,3.9 2,3.9 C2.5,3.9 3,4.1 3.3,4.4 Z" id="Path"></path>
            </g>
        </g>
        <g id="Group-Copy" transform="translate(11.750000, 4.000000)" fill="#0377BE">
            <g id="Untitled-1" transform="translate(0.463444, 0.500000)">
                <path d="M3.3,4.4 C3.7,4.8 4,5.3 4,5.9 L4,6 L3,6 C3,6 3,5.9 3,5.9 C3,5.4 2.5,4.9 2,4.9 C1.5,4.9 1,4.7 0.7,4.4 C0.3,4 0,3.5 0,2.9 C0,2.3 0.3,1.8 0.7,1.4 C1,1.1 1.5,0.9 2,0.9 C2.5,0.9 3,0.4 3,0 L4,0 C4,0.6 3.7,1.1 3.3,1.4 C3,1.7 2.5,1.9 2,1.9 C1.5,1.9 1,2.4 1,2.9 C1,3.4 1.5,3.9 2,3.9 C2.5,3.9 3,4.1 3.3,4.4 Z" id="Path"></path>
            </g>
            <g id="Untitled-1-Copy-2" transform="translate(0.463444, 12.500000)">
                <path d="M3.3,4.4 C3.7,4.8 4,5.3 4,5.9 L4,6 L3,6 C3,6 3,5.9 3,5.9 C3,5.4 2.5,4.9 2,4.9 C1.5,4.9 1,4.7 0.7,4.4 C0.3,4 0,3.5 0,2.9 C0,2.3 0.3,1.8 0.7,1.4 C1,1.1 1.5,0.9 2,0.9 C2.5,0.9 3,0.4 3,0 L4,0 C4,0.6 3.7,1.1 3.3,1.4 C3,1.7 2.5,1.9 2,1.9 C1.5,1.9 1,2.4 1,2.9 C1,3.4 1.5,3.9 2,3.9 C2.5,3.9 3,4.1 3.3,4.4 Z" id="Path"></path>
            </g>
            <path d="M0.463444011,21.4 C0.463444011,20.8 0.763444011,20.3 1.16344401,19.9 C1.46344401,19.6 1.96344401,19.4 2.46344401,19.4 C2.96344401,19.4 3.46344401,18.9 3.46344401,18.5 L4.46344401,18.5 C4.46344401,19.1 4.16344401,19.6 3.76344401,19.9 C3.46344401,20.2 2.96344401,20.4 2.46344401,20.4 C1.96344401,20.4 1.46344401,20.9 1.46344401,21.4 C1.46344401,21.9 0.463444011,22 0.463444011,21.4 Z" id="Path"></path>
            <g id="Untitled-1-Copy" transform="translate(0.463444, 6.500000)">
                <path d="M3.3,4.4 C3.7,4.8 4,5.3 4,5.9 L4,6 L3,6 C3,6 3,5.9 3,5.9 C3,5.4 2.5,4.9 2,4.9 C1.5,4.9 1,4.7 0.7,4.4 C0.3,4 0,3.5 0,2.9 C0,2.3 0.3,1.8 0.7,1.4 C1,1.1 1.5,0.9 2,0.9 C2.5,0.9 3,0.4 3,0 L4,0 C4,0.6 3.7,1.1 3.3,1.4 C3,1.7 2.5,1.9 2,1.9 C1.5,1.9 1,2.4 1,2.9 C1,3.4 1.5,3.9 2,3.9 C2.5,3.9 3,4.1 3.3,4.4 Z" id="Path"></path>
            </g>
        </g>
        <g id="Group-Copy-2" transform="translate(20.000000, 4.000000)" fill="#0377BE">
            <g id="Untitled-1" transform="translate(0.463444, 0.500000)">
                <path d="M3.3,4.4 C3.7,4.8 4,5.3 4,5.9 L4,6 L3,6 C3,6 3,5.9 3,5.9 C3,5.4 2.5,4.9 2,4.9 C1.5,4.9 1,4.7 0.7,4.4 C0.3,4 0,3.5 0,2.9 C0,2.3 0.3,1.8 0.7,1.4 C1,1.1 1.5,0.9 2,0.9 C2.5,0.9 3,0.4 3,0 L4,0 C4,0.6 3.7,1.1 3.3,1.4 C3,1.7 2.5,1.9 2,1.9 C1.5,1.9 1,2.4 1,2.9 C1,3.4 1.5,3.9 2,3.9 C2.5,3.9 3,4.1 3.3,4.4 Z" id="Path"></path>
            </g>
            <g id="Untitled-1-Copy-2" transform="translate(0.463444, 12.500000)">
                <path d="M3.3,4.4 C3.7,4.8 4,5.3 4,5.9 L4,6 L3,6 C3,6 3,5.9 3,5.9 C3,5.4 2.5,4.9 2,4.9 C1.5,4.9 1,4.7 0.7,4.4 C0.3,4 0,3.5 0,2.9 C0,2.3 0.3,1.8 0.7,1.4 C1,1.1 1.5,0.9 2,0.9 C2.5,0.9 3,0.4 3,0 L4,0 C4,0.6 3.7,1.1 3.3,1.4 C3,1.7 2.5,1.9 2,1.9 C1.5,1.9 1,2.4 1,2.9 C1,3.4 1.5,3.9 2,3.9 C2.5,3.9 3,4.1 3.3,4.4 Z" id="Path"></path>
            </g>
            <path d="M0.463444011,21.4 C0.463444011,20.8 0.763444011,20.3 1.16344401,19.9 C1.46344401,19.6 1.96344401,19.4 2.46344401,19.4 C2.96344401,19.4 3.46344401,18.9 3.46344401,18.5 L4.46344401,18.5 C4.46344401,19.1 4.16344401,19.6 3.76344401,19.9 C3.46344401,20.2 2.96344401,20.4 2.46344401,20.4 C1.96344401,20.4 1.46344401,20.9 1.46344401,21.4 C1.46344401,21.9 0.463444011,22 0.463444011,21.4 Z" id="Path"></path>
            <g id="Untitled-1-Copy" transform="translate(0.463444, 6.500000)">
                <path d="M3.3,4.4 C3.7,4.8 4,5.3 4,5.9 L4,6 L3,6 C3,6 3,5.9 3,5.9 C3,5.4 2.5,4.9 2,4.9 C1.5,4.9 1,4.7 0.7,4.4 C0.3,4 0,3.5 0,2.9 C0,2.3 0.3,1.8 0.7,1.4 C1,1.1 1.5,0.9 2,0.9 C2.5,0.9 3,0.4 3,0 L4,0 C4,0.6 3.7,1.1 3.3,1.4 C3,1.7 2.5,1.9 2,1.9 C1.5,1.9 1,2.4 1,2.9 C1,3.4 1.5,3.9 2,3.9 C2.5,3.9 3,4.1 3.3,4.4 Z" id="Path"></path>
            </g>
        </g>
        <g id="ic_brush_48px" transform="translate(13.500000, 14.000000)" fill="url(#linearGradient-2)" fill-rule="nonzero" stroke="#FFFFFF">
            <path d="M5.48242353,9.56133176 C6.52768129,9.56133176 7.47513103,9.98592084 8.1612098,10.6719996 C8.84728857,11.3580784 9.27187764,12.3055281 9.27187764,13.3507859 C9.27187764,14.7005265 8.72521255,15.9219811 7.84117332,16.8060204 C6.95713409,17.6900596 5.73567942,18.2367247 4.38593882,18.2367247 C2.58572117,18.2367247 0.701371694,17.3042728 -0.399213292,15.8448014 C-0.680270883,15.4720946 -0.91422959,15.0596958 -1.09838139,14.6234231 C-0.766697371,14.8985477 -0.352847917,15.0437553 0,15.0437553 C0.398144647,15.0437553 0.873958242,14.8588727 1.22175569,14.5110753 C1.50050462,14.2323264 1.69296941,13.8431401 1.69296941,13.3507859 C1.69296941,12.3055281 2.11755849,11.3580784 2.80363726,10.6719996 C3.48971603,9.98592084 4.43716577,9.56133176 5.48242353,9.56133176 Z M15.9879867,0.336435507 C16.3365621,0.336435507 16.6849951,0.469315001 16.9501983,0.734518201 L16.9501983,0.734518201 L18.0964321,1.88076639 C18.3659259,2.14684885 18.5,2.49497605 18.5,2.84360966 C18.5,3.19061997 18.3670336,3.53909196 18.0986912,3.80743433 L18.0986912,3.80743433 L10.0412023,11.8649232 L6.96828616,8.79200712 L15.0257751,0.734518201 C15.2909783,0.469315001 15.6394113,0.336435507 15.9879867,0.336435507 Z" id="Shape"></path>
        </g>
        <path d="M3,1 L25,1 C26.1045695,1 27,1.8954305 27,3 L27,5 L27,5 L1,5 L1,3 C1,1.8954305 1.8954305,1 3,1 Z" id="Rectangle-7" fill="url(#linearGradient-3)"></path>
    </g>
</svg>