<?xml version="1.0" encoding="UTF-8"?>
<svg width="32px" height="32px" viewBox="0 0 32 32" version="1.1" xmlns="http://www.w3.org/2000/svg" xmlns:xlink="http://www.w3.org/1999/xlink">
    <title>machine_learning_application_32x32</title>
    <defs>
        <linearGradient x1="7.9987738%" y1="4.79620846%" x2="67.6233436%" y2="75.1244661%" id="linearGradient-1">
            <stop stop-color="#1AAAFF" offset="0%"></stop>
            <stop stop-color="#0077BE" offset="100%"></stop>
        </linearGradient>
    </defs>
    <g id="machine_learning_application_32x32" stroke="none" stroke-width="1" fill="none" fill-rule="evenodd">
        <g id="Group" transform="translate(2.000000, 2.000000)" fill="#008FE4">
            <path d="M4.5,3 C4.77614237,3 5,2.77614237 5,2.5 L5,0.5 C5,0.223857625 4.77614237,-5.07265313e-17 4.5,0 C4.22385763,5.07265313e-17 4,0.223857625 4,0.5 L4,2.5 C4,2.77614237 4.22385763,3 4.5,3 Z" id="Fill-2-Copy"></path>
            <path d="M4.5,28 C4.77614237,28 5,27.7761424 5,27.5 L5,25.5 C5,25.2238576 4.77614237,25 4.5,25 C4.22385763,25 4,25.2238576 4,25.5 L4,27.5 C4,27.7761424 4.22385763,28 4.5,28 Z" id="Fill-2-Copy-6"></path>
            <path d="M13.5,3 C13.7761424,3 14,2.77614237 14,2.5 L14,0.5 C14,0.223857625 13.7761424,-5.07265313e-17 13.5,0 C13.2238576,5.07265313e-17 13,0.223857625 13,0.5 L13,2.5 C13,2.77614237 13.2238576,3 13.5,3 Z" id="Fill-2-Copy-3"></path>
            <path d="M13.5,28 C13.7761424,28 14,27.7761424 14,27.5 L14,25.5 C14,25.2238576 13.7761424,25 13.5,25 C13.2238576,25 13,25.2238576 13,25.5 L13,27.5 C13,27.7761424 13.2238576,28 13.5,28 Z" id="Fill-2-Copy-7"></path>
            <path d="M23.5,3 C23.7761424,3 24,2.77614237 24,2.5 L24,0.5 C24,0.223857625 23.7761424,-5.07265313e-17 23.5,0 C23.2238576,5.07265313e-17 23,0.223857625 23,0.5 L23,2.5 C23,2.77614237 23.2238576,3 23.5,3 Z" id="Fill-2-Copy-5"></path>
            <path d="M23.5,28 C23.7761424,28 24,27.7761424 24,27.5 L24,25.5 C24,25.2238576 23.7761424,25 23.5,25 C23.2238576,25 23,25.2238576 23,25.5 L23,27.5 C23,27.7761424 23.2238576,28 23.5,28 Z" id="Fill-2-Copy-8"></path>
            <path d="M9.5,3 C9.77614237,3 10,2.77614237 10,2.5 L10,0.5 C10,0.223857625 9.77614237,-5.07265313e-17 9.5,0 C9.22385763,5.07265313e-17 9,0.223857625 9,0.5 L9,2.5 C9,2.77614237 9.22385763,3 9.5,3 Z" id="Fill-2-Copy-2"></path>
            <path d="M9.5,28 C9.77614237,28 10,27.7761424 10,27.5 L10,25.5 C10,25.2238576 9.77614237,25 9.5,25 C9.22385763,25 9,25.2238576 9,25.5 L9,27.5 C9,27.7761424 9.22385763,28 9.5,28 Z" id="Fill-2-Copy-9"></path>
            <path d="M18.5,3 C18.7761424,3 19,2.77614237 19,2.5 L19,0.5 C19,0.223857625 18.7761424,-5.07265313e-17 18.5,0 C18.2238576,5.07265313e-17 18,0.223857625 18,0.5 L18,2.5 C18,2.77614237 18.2238576,3 18.5,3 Z" id="Fill-2-Copy-4"></path>
            <path d="M18.5,28 C18.7761424,28 19,27.7761424 19,27.5 L19,25.5 C19,25.2238576 18.7761424,25 18.5,25 C18.2238576,25 18,25.2238576 18,25.5 L18,27.5 C18,27.7761424 18.2238576,28 18.5,28 Z" id="Fill-2-Copy-10"></path>
            <path d="M26.5,6 C26.7761424,6 27,5.77614237 27,5.5 L27,3.5 C27,3.22385763 26.7761424,3 26.5,3 C26.2238576,3 26,3.22385763 26,3.5 L26,5.5 C26,5.77614237 26.2238576,6 26.5,6 Z" id="Fill-2-Copy" transform="translate(26.500000, 4.500000) rotate(90.000000) translate(-26.500000, -4.500000) "></path>
            <path d="M1.5,6 C1.77614237,6 2,5.77614237 2,5.5 L2,3.5 C2,3.22385763 1.77614237,3 1.5,3 C1.22385763,3 1,3.22385763 1,3.5 L1,5.5 C1,5.77614237 1.22385763,6 1.5,6 Z" id="Fill-2-Copy-6" transform="translate(1.500000, 4.500000) rotate(90.000000) translate(-1.500000, -4.500000) "></path>
            <path d="M26.5,15 C26.7761424,15 27,14.7761424 27,14.5 L27,12.5 C27,12.2238576 26.7761424,12 26.5,12 C26.2238576,12 26,12.2238576 26,12.5 L26,14.5 C26,14.7761424 26.2238576,15 26.5,15 Z" id="Fill-2-Copy-3" transform="translate(26.500000, 13.500000) rotate(90.000000) translate(-26.500000, -13.500000) "></path>
            <path d="M1.5,15 C1.77614237,15 2,14.7761424 2,14.5 L2,12.5 C2,12.2238576 1.77614237,12 1.5,12 C1.22385763,12 1,12.2238576 1,12.5 L1,14.5 C1,14.7761424 1.22385763,15 1.5,15 Z" id="Fill-2-Copy-7" transform="translate(1.500000, 13.500000) rotate(90.000000) translate(-1.500000, -13.500000) "></path>
            <path d="M26.5,25 C26.7761424,25 27,24.7761424 27,24.5 L27,22.5 C27,22.2238576 26.7761424,22 26.5,22 C26.2238576,22 26,22.2238576 26,22.5 L26,24.5 C26,24.7761424 26.2238576,25 26.5,25 Z" id="Fill-2-Copy-5" transform="translate(26.500000, 23.500000) rotate(90.000000) translate(-26.500000, -23.500000) "></path>
            <path d="M1.5,25 C1.77614237,25 2,24.7761424 2,24.5 L2,22.5 C2,22.2238576 1.77614237,22 1.5,22 C1.22385763,22 1,22.2238576 1,22.5 L1,24.5 C1,24.7761424 1.22385763,25 1.5,25 Z" id="Fill-2-Copy-8" transform="translate(1.500000, 23.500000) rotate(90.000000) translate(-1.500000, -23.500000) "></path>
            <path d="M26.5,11 C26.7761424,11 27,10.7761424 27,10.5 L27,8.5 C27,8.22385763 26.7761424,8 26.5,8 C26.2238576,8 26,8.22385763 26,8.5 L26,10.5 C26,10.7761424 26.2238576,11 26.5,11 Z" id="Fill-2-Copy-2" transform="translate(26.500000, 9.500000) rotate(90.000000) translate(-26.500000, -9.500000) "></path>
            <path d="M1.5,11 C1.77614237,11 2,10.7761424 2,10.5 L2,8.5 C2,8.22385763 1.77614237,8 1.5,8 C1.22385763,8 1,8.22385763 1,8.5 L1,10.5 C1,10.7761424 1.22385763,11 1.5,11 Z" id="Fill-2-Copy-9" transform="translate(1.500000, 9.500000) rotate(90.000000) translate(-1.500000, -9.500000) "></path>
            <path d="M26.5,20 C26.7761424,20 27,19.7761424 27,19.5 L27,17.5 C27,17.2238576 26.7761424,17 26.5,17 C26.2238576,17 26,17.2238576 26,17.5 L26,19.5 C26,19.7761424 26.2238576,20 26.5,20 Z" id="Fill-2-Copy-4" transform="translate(26.500000, 18.500000) rotate(90.000000) translate(-26.500000, -18.500000) "></path>
            <path d="M1.5,20 C1.77614237,20 2,19.7761424 2,19.5 L2,17.5 C2,17.2238576 1.77614237,17 1.5,17 C1.22385763,17 1,17.2238576 1,17.5 L1,19.5 C1,19.7761424 1.22385763,20 1.5,20 Z" id="Fill-2-Copy-10" transform="translate(1.500000, 18.500000) rotate(90.000000) translate(-1.500000, -18.500000) "></path>
        </g>
        <rect id="Rectangle" stroke="#0077BE" fill-opacity="0.223175262" fill="#0077BE" x="4.5" y="4.5" width="23" height="23" rx="3"></rect>
        <path d="M8,25 L24,25 C24.5522847,25 25,24.5522847 25,24 L25,8 C25,7.44771525 24.5522847,7 24,7 L8,7 C7.44771525,7 7,7.44771525 7,8 L7,24 C7,24.5522847 7.44771525,25 8,25 Z" id="Fill-2-Copy" fill="url(#linearGradient-1)" opacity="0.923153832"></path>
        <path d="M15.4941406,16.9726562 L14.1875,13.1699219 L12.7988281,16.9726562 L15.4941406,16.9726562 Z M13.578125,11.8925781 L14.8964844,11.8925781 L18.0195312,20.5 L16.7421875,20.5 L15.8691406,17.921875 L12.4648438,17.921875 L11.5332031,20.5 L10.3378906,20.5 L13.578125,11.8925781 Z M19.34375,11.8925781 L20.5214844,11.8925781 L20.5214844,20.5 L19.34375,20.5 L19.34375,11.8925781 Z" id="AI" fill="#FFFFFF" fill-rule="nonzero"></path>
    </g>
</svg>