<?xml version="1.0" encoding="UTF-8"?>
<svg width="32px" height="32px" viewBox="0 0 32 32" version="1.1" xmlns="http://www.w3.org/2000/svg" xmlns:xlink="http://www.w3.org/1999/xlink">
    <title>manager_dashboard_32x32</title>
    <defs>
        <linearGradient x1="50%" y1="3.49530347%" x2="50%" y2="100%" id="linearGradient-1">
            <stop stop-color="#1AAAFF" offset="0%"></stop>
            <stop stop-color="#0077BE" offset="100%"></stop>
        </linearGradient>
    </defs>
    <g id="manager_dashboard_32x32" stroke="none" stroke-width="1" fill="none" fill-rule="evenodd">
        <path d="M7,17 L15,17 C15.5522847,17 16,16.5522847 16,16 L16,12 C16,11.4477153 15.5522847,11 15,11 L7,11 C6.44771525,11 6,11.4477153 6,12 L6,16 C6,16.5522847 6.44771525,17 7,17 Z" id="Fill-2" fill="#0089DA" opacity="0.211425781"></path>
        <path d="M19,17 L25,17 C25.5522847,17 26,16.5522847 26,16 L26,12 C26,11.4477153 25.5522847,11 25,11 L19,11 C18.4477153,11 18,11.4477153 18,12 L18,16 C18,16.5522847 18.4477153,17 19,17 Z" id="Fill-2-Copy" fill="#008FE4" opacity="0.923153832"></path>
        <path d="M16,25 L25,25 C25.5522847,25 26,24.5522847 26,24 L26,20 C26,19.4477153 25.5522847,19 25,19 L16,19 C15.4477153,19 15,19.4477153 15,20 L15,24 C15,24.5522847 15.4477153,25 16,25 Z" id="Fill-2-Copy-3" fill="#008ADD" opacity="0.554780506"></path>
        <path d="M7,25 L12,25 C12.5522847,25 13,24.5522847 13,24 L13,20 C13,19.4477153 12.5522847,19 12,19 L7,19 C6.44771525,19 6,19.4477153 6,20 L6,24 C6,24.5522847 6.44771525,25 7,25 Z" id="Fill-2-Copy-2" fill="#0085D4"></path>
        <g id="Group" transform="translate(3.000000, 4.000000)">
            <path d="M2,0 L17,0 C18.1045695,-2.02906125e-16 19,0.8954305 19,2 L19,4 L19,4 L0,4 L0,2 C-1.3527075e-16,0.8954305 0.8954305,2.02906125e-16 2,0 Z" id="Rectangle-7-Copy" fill="url(#linearGradient-1)"></path>
            <path d="M24,4.5 C24.4142136,4.5 24.7892136,4.66789322 25.0606602,4.93933983 C25.3321068,5.21078644 25.5,5.58578644 25.5,6 L25.5,6 L25.5,22 C25.5,22.4142136 25.3321068,22.7892136 25.0606602,23.0606602 C24.7892136,23.3321068 24.4142136,23.5 24,23.5 L24,23.5 L2,23.5 C1.58578644,23.5 1.21078644,23.3321068 0.939339828,23.0606602 C0.667893219,22.7892136 0.5,22.4142136 0.5,22 L0.5,22 L0.5,4.5 Z" id="Rectangle-7-Copy-10" stroke="#0077BE"></path>
        </g>
    </g>
</svg>