<?xml version="1.0" encoding="UTF-8"?>
<svg width="16px" height="16px" viewBox="0 0 16 16" version="1.1" xmlns="http://www.w3.org/2000/svg" xmlns:xlink="http://www.w3.org/1999/xlink">
    <title>manager_dashboard_16x16</title>
    <g id="manager_dashboard_16x16" stroke="none" stroke-width="1" fill="none" fill-rule="evenodd">
        <path d="M2,8 L9,8 C9.55228475,8 10,7.55228475 10,7 L10,2 C10,1.44771525 9.55228475,1 9,1 L2,1 C1.44771525,1 1,1.44771525 1,2 L1,7 C1,7.55228475 1.44771525,8 2,8 Z" id="Fill-2" fill="#0089DA" opacity="0.352260045"></path>
        <path d="M12,8 L14,8 C14.5522847,8 15,7.55228475 15,7 L15,2 C15,1.44771525 14.5522847,1 14,1 L12,1 C11.4477153,1 11,1.44771525 11,2 L11,7 C11,7.55228475 11.4477153,8 12,8 Z" id="Fill-2-Copy" fill="#008FE4" opacity="0.689569382"></path>
        <path d="M8,15 L14,15 C14.5522847,15 15,14.5522847 15,14 L15,10 C15,9.44771525 14.5522847,9 14,9 L8,9 C7.44771525,9 7,9.44771525 7,10 L7,14 C7,14.5522847 7.44771525,15 8,15 Z" id="Fill-2-Copy-3" fill="#008ADD" opacity="0.47484189"></path>
        <path d="M2,15 L5,15 C5.55228475,15 6,14.5522847 6,14 L6,10 C6,9.44771525 5.55228475,9 5,9 L2,9 C1.44771525,9 1,9.44771525 1,10 L1,14 C1,14.5522847 1.44771525,15 2,15 Z" id="Fill-2-Copy-2" fill="#0085D4"></path>
    </g>
</svg>