<?xml version="1.0" encoding="UTF-8"?>
<svg width="16px" height="16px" viewBox="0 0 16 16" version="1.1" xmlns="http://www.w3.org/2000/svg" xmlns:xlink="http://www.w3.org/1999/xlink">
    <title>marker_management_16x16</title>
    <g id="marker_management_16x16" stroke="none" stroke-width="1" fill="none" fill-rule="evenodd">
        <rect id="Rectangle-7-Copy-12" stroke="#0077BE" x="0.5" y="0.5" width="10" height="15" rx="2"></rect>
        <g id="settings-cogwheel-button" transform="translate(7.653196, 7.517873)" fill="#F16464" fill-rule="nonzero" stroke="#FFFFFF">
            <path d="M4.61193216,-0.393241984 C4.76030059,-0.393241984 4.93951586,-0.331403126 5.07209908,-0.214369713 L5.14543333,-0.137579474 L5.38956775,0.998728698 L6.40902129,0.85872579 C6.96883228,0.858024029 7.13526043,0.966246009 7.21354157,1.0574615 L7.23293484,1.08182219 L8.04511876,2.50628772 C8.11595705,2.97611391 8.07858454,3.15798361 7.94560647,3.30685922 L7.8977568,3.35561216 L7.27691795,3.8593076 L7.91145337,4.64389367 C8.03592067,4.71853415 8.1259794,4.83076831 8.17314688,4.96958843 L8.20034785,5.07851638 L7.33663505,6.92232742 L5.74489421,6.93116141 L5.3523021,7.84336466 L3.08779827,8.44148732 C2.53300927,8.18679169 2.42299554,8.02618915 2.39828445,7.8748118 L2.39367579,7.83711054 L2.27881852,7.08888706 L1.25936497,7.22888996 C0.699553988,7.22959173 0.533125832,7.12136975 0.454844694,7.03015426 L0.435451428,7.00579357 L-0.376789616,5.58122786 L0.391468318,4.22829271 L-0.220991638,3.40244588 L0.403412958,1.10848571 L2.21982818,1.25955793 L2.35514168,0.20699169 C2.37315913,0.0352795647 2.47221785,-0.152745628 2.67012926,-0.27796045 L2.77740515,-0.334967351 L4.61193216,-0.393241984 Z M3.83420083,3.16583541 C3.5968434,3.16583541 3.37958996,3.26831248 3.22078753,3.42746614 C3.06158111,3.5870247 2.95927712,3.80537314 2.95927712,4.04380016 C2.95927712,4.28222717 3.06158111,4.50057562 3.22078753,4.66013417 C3.37958996,4.81928784 3.5968434,4.92176491 3.83420083,4.92176491 C4.07155827,4.92176491 4.28881171,4.81928784 4.44761414,4.66013417 C4.60682056,4.50057562 4.70912455,4.28222717 4.70912455,4.04380016 C4.70912455,3.80537314 4.60682056,3.5870247 4.44761414,3.42746614 C4.28881171,3.26831248 4.07155827,3.16583541 3.83420083,3.16583541 Z" id="Shape"></path>
        </g>
        <rect id="Rectangle-2-Copy-14" fill="#F16464" x="3" y="6.29184411" width="5" height="2" rx="1"></rect>
        <rect id="Rectangle-2-Copy-13" fill="#0077BE" x="2.99549492" y="2.70815589" width="5" height="2" rx="1"></rect>
    </g>
</svg>