<?xml version="1.0" encoding="UTF-8"?>
<svg width="32px" height="32px" viewBox="0 0 32 32" version="1.1" xmlns="http://www.w3.org/2000/svg" xmlns:xlink="http://www.w3.org/1999/xlink">
    <title>marker_properties_32x32</title>
    <defs>
        <linearGradient x1="50%" y1="3.49530347%" x2="50%" y2="90.4427976%" id="linearGradient-1">
            <stop stop-color="#1AAAFF" offset="0%"></stop>
            <stop stop-color="#0077BE" offset="100%"></stop>
        </linearGradient>
        <linearGradient x1="31.644796%" y1="79.6577403%" x2="96.2496424%" y2="3.59140714%" id="linearGradient-2">
            <stop stop-color="#F16464" offset="0%"></stop>
            <stop stop-color="#F79494" offset="54.49984%"></stop>
            <stop stop-color="#FFD3D3" offset="100%"></stop>
        </linearGradient>
    </defs>
    <g id="marker_properties_32x32" stroke="none" stroke-width="1" fill="none" fill-rule="evenodd">
        <path d="M5,1 L17,1 C18.1045695,1 19,1.8954305 19,3 L19,5.5 L19,5.5 L3,5.5 L3,3 C3,1.8954305 3.8954305,1 5,1 Z" id="Rectangle-7-Copy" fill="url(#linearGradient-1)"></path>
        <path d="M18.5,5 L18.5,28.5 C18.5,28.9142136 18.3321068,29.2892136 18.0606602,29.5606602 C17.7892136,29.8321068 17.4142136,30 17,30 L17,30 L5,30 C4.58578644,30 4.21078644,29.8321068 3.93933983,29.5606602 C3.66789322,29.2892136 3.5,28.9142136 3.5,28.5 L3.5,28.5 L3.5,5 L18.5,5 Z" id="Rectangle-7-Copy-10" stroke="#0077BE"></path>
        <g id="settings-cogwheel-button" transform="translate(15.246191, 14.998988)" fill="url(#linearGradient-2)" fill-rule="nonzero" stroke="#FFFFFF">
            <path d="M9.22843231,-0.286376875 C9.44407197,-0.290485108 9.73003163,-0.17628285 9.90009593,0.0367677141 C10.0044565,0.167506957 10.0729447,0.327896707 10.0719011,0.512092663 L10.0626619,0.625420227 L10.3234082,2.32401978 C10.5447601,2.43675752 10.7632855,2.55245131 10.9721228,2.67777307 L11.2772551,2.87381067 L12.9940434,2.18557645 C13.1968863,2.11492125 13.3697406,2.11098285 13.5122061,2.13477961 C13.7321556,2.17151894 13.8914871,2.2777095 13.99393,2.38054922 L14.048599,2.44126853 L15.6510974,5.2518434 C15.7445309,5.86554142 15.689795,6.09294343 15.5155859,6.28395109 L15.4651338,6.33540463 L14.0351304,7.49558678 C14.0574952,7.67251456 14.0609319,7.86305608 14.0609319,8.08760032 C14.0609319,8.21911463 14.0498781,8.33895398 14.0352532,8.45124023 L14.0115726,8.61452001 L15.5535392,9.70951037 C15.7463382,9.82123176 15.8691183,10.0085307 15.9074745,10.239087 C15.9338909,10.3978732 15.9137701,10.5769829 15.8570064,10.7332627 L15.8077176,10.8455177 L14.2359091,13.6022664 C14.1387028,13.7857566 13.9604133,13.9341243 13.7488262,14.0048185 C13.5817004,14.0606577 13.4022174,14.0652361 13.2416659,14.0212977 L13.1252907,13.9792898 L11.4343584,13.3014208 C11.2369245,13.4380385 11.0263718,13.5616923 10.8095618,13.6790541 L10.4805115,13.8512117 L10.2087299,15.6216998 C10.1921544,15.8098438 10.0891541,16.012399 9.89917017,16.1647224 C9.75968551,16.2765569 9.58457824,16.3491376 9.42973705,16.3736965 L9.31827931,16.3829746 L6.17559654,16.3829746 C5.93340765,16.3829746 5.73311992,16.2992656 5.58751926,16.1825274 C5.42977224,16.0560507 5.33394084,15.8900723 5.29845351,15.7194359 L5.28438983,15.616774 L5.01336432,13.8512117 C4.79201243,13.738474 4.57348707,13.6227802 4.36464975,13.4974584 L4.05951747,13.3014208 L2.34272909,13.9896551 C2.13988625,14.0603103 1.96703188,14.0642487 1.82456644,14.0404519 C1.60461689,14.0037126 1.44528542,13.897522 1.34284252,13.7946823 L1.28817357,13.733963 L-0.314350478,10.9233431 C-0.412431483,10.733147 -0.44570521,10.5424287 -0.41450854,10.3548225 C-0.392063072,10.219843 -0.336625604,10.0803898 -0.223925193,9.94263472 L-0.128283849,9.83973321 L1.30164208,8.67961385 C1.27927735,8.50268607 1.27584067,8.31214455 1.27584067,8.08760032 C1.27584067,7.956086 1.28689438,7.83624665 1.30151933,7.7239604 L1.32519989,7.56068062 L-0.121647697,6.42039632 C-0.241883356,6.30813625 -0.336701904,6.16780617 -0.39766214,6.03245307 L-0.436901989,5.93238779 L1.21470421,2.51106865 C1.3816133,2.32975849 1.55406072,2.21295588 1.74382688,2.15862011 C1.88332629,2.11867721 2.03590175,2.10823295 2.21089717,2.14764988 L2.34649348,2.18687971 L3.9967499,2.8760074 C4.2802494,2.67992907 4.51851913,2.51830912 4.75727867,2.3892014 L4.93715454,2.29843625 L5.20644149,0.476728968 C5.22402731,0.269770127 5.34627553,0.0451337986 5.57389737,-0.111082673 L5.6779031,-0.173592607 L9.22843231,-0.286376875 Z M7.66840167,5.83167082 C7.05785065,5.83167082 6.49686629,6.09162957 6.08763133,6.50176968 C5.67799237,6.91231466 5.41855425,7.4751543 5.41855425,8.08760032 C5.41855425,8.70004634 5.67799237,9.26288597 6.08763133,9.67343096 C6.49686629,10.0835711 7.05785065,10.3435298 7.66840167,10.3435298 C8.27895269,10.3435298 8.83993705,10.0835711 9.24917201,9.67343096 C9.65881097,9.26288597 9.91824909,8.70004634 9.91824909,8.08760032 C9.91824909,7.4751543 9.65881097,6.91231466 9.24917201,6.50176968 C8.83993705,6.09162957 8.27895269,5.83167082 7.66840167,5.83167082 Z" id="Shape"></path>
        </g>
        <rect id="Rectangle-7-Copy-6" fill="#F16464" x="6" y="10" width="10" height="1" rx="0.5"></rect>
        <rect id="Rectangle-7-Copy-8" fill="#0077BE" x="6" y="15" width="10" height="1" rx="0.5"></rect>
        <rect id="Rectangle-7-Copy-9" fill="#0077BE" x="6" y="20" width="8" height="1" rx="0.5"></rect>
    </g>
</svg>