<?xml version="1.0" encoding="UTF-8"?>
<svg width="32px" height="32px" viewBox="0 0 32 32" version="1.1" xmlns="http://www.w3.org/2000/svg" xmlns:xlink="http://www.w3.org/1999/xlink">
    <title>maximum_horizontal_stress_32x32</title>
    <defs>
        <linearGradient x1="104.767449%" y1="32.5895205%" x2="50%" y2="63.4748627%" id="linearGradient-1">
            <stop stop-color="#F99D9D" offset="0%"></stop>
            <stop stop-color="#F16464" offset="100%"></stop>
        </linearGradient>
    </defs>
    <g id="maximum_horizontal_stress_32x32" stroke="none" stroke-width="1" fill="none" fill-rule="evenodd">
        <g id="rock" transform="translate(7.000000, 11.000000)">
            <polygon id="Path" fill="#6EC9FF" points="17.9739776 5.21008844 9.03184657 10.4204503 1.46078125 6.0376675 0.031490082 5.21036184 8.9703084 0 14.9619201 2.20363576"></polygon>
            <polygon id="Path" fill="#0077BE" points="17.9739776 5.21008844 17.9739776 14.7868291 9.03184657 19.997191 9.03184657 10.4204503 11.6851588 8.87441746 15.0794622 5.33721902"></polygon>
            <g id="Group" transform="translate(0.000000, 4.882127)">
                <polygon id="Path" fill="#329BD9" points="9.03184657 5.53832358 9.03184657 15.1150643 0.031490082 9.90497582 0.031490082 0.328235142 3.54602486 0.0233170371"></polygon>
                <path d="M16.4936319,3.28344502 C17.0956849,2.93509551 17.5847945,2.93450966 17.5858482,3.28344502 C17.5868211,3.63163829 17.0992704,4.19612931 16.4972174,4.54447882 C15.8951645,4.89282832 15.4060549,4.89341418 15.4050012,4.54525996 C15.4040283,4.1963246 15.891579,3.63183358 16.4936319,3.28344502" id="Path" fill="#005181"></path>
            </g>
            <path d="M13.7878233,11.3970318 C14.1985584,11.1593699 14.5329456,11.1672985 14.5336483,11.4153496 C14.5343487,11.6634007 14.2010916,12.0576031 13.7903565,12.295226 C13.3789199,12.5332785 13.0452341,12.5249593 13.0445315,12.2769083 C13.0438311,12.0288572 13.3763866,11.6350453 13.7878233,11.3970318" id="Path" fill="#004F7E"></path>
            <path d="M5.61178203,11.8351734 C6.02251715,12.0728354 6.35511165,12.4666472 6.3543724,12.7146983 C6.35366966,12.9627494 6.01994494,12.9702874 5.60920982,12.7326255 C5.19781217,12.494573 4.86521766,12.1015423 4.86591807,11.8535302 C4.86665966,11.6054401 5.20038438,11.5971209 5.61178203,11.8351734" id="Path" fill="#006EAF"></path>
            <path d="M1.23668723,13.0791784 C1.590444,13.3168403 1.8769336,13.7106522 1.87631105,13.9587033 C1.87568647,14.2067544 1.58826152,14.2142924 1.23450475,13.9766304 C0.880124407,13.7385779 0.593673785,13.3455472 0.594296335,13.0975352 C0.59495989,12.849445 0.882384834,12.8411259 1.23668723,13.0791784" id="Path" fill="#006EAF"></path>
            <g id="Group" transform="translate(1.247132, 8.201973)">
                <path d="M5.8799154,8.28278181 C5.922162,8.3072315 5.965266,8.33562595 6.00891562,8.36800422 C6.38601714,8.64870697 6.65874931,9.1205157 6.6176719,9.42238736 C6.58134919,9.69004507 6.31204663,9.73527309 5.98939021,9.54861962 C5.94718258,9.52420899 5.90403961,9.49577549 5.86042897,9.46339722 C5.48332744,9.18269446 5.21059527,8.71088574 5.25167268,8.40823294 C5.28795643,8.14127825 5.55729796,8.09608929 5.8799154,8.28278181" id="Path" fill="#015C92"></path>
                <path d="M0.295258491,0.0515552579 C0.314277254,0.0625302788 0.333685745,0.0753409792 0.353328073,0.0899092453 C0.523093911,0.216258684 0.645897436,0.428689781 0.627385321,0.564569131 C0.611055687,0.685060018 0.489772104,0.705447779 0.344520204,0.621397086 C0.325540414,0.610422065 0.30609295,0.597611365 0.286450622,0.583043099 C0.116684784,0.45669366 -0.00611874117,0.244262563 0.0123933738,0.107992643 C0.0287619808,-0.0121467312 0.149967618,-0.0324563783 0.295258491,0.0515552579" id="Path" fill="#0066A3"></path>
            </g>
            <path d="M2.59921787,11.619774 C2.78921063,11.7296804 2.94315348,12.0201865 2.94249307,12.2682376 C2.94178943,12.5155075 2.78667739,12.6271715 2.5967236,12.5172261 C2.40673084,12.4073196 2.25345053,12.1172432 2.25414964,11.8699732 C2.25481458,11.6218831 2.40926408,11.5098676 2.59921787,11.619774" id="Path" fill-opacity="0.511690444" fill="#005F98"></path>
            <path d="M11.1853707,16.0326697 C11.5506244,15.8213322 11.8475198,15.8493752 11.8482225,16.0951219 C11.8489228,16.3416107 11.5531577,16.7126133 11.1879039,16.9239508 C10.8226501,17.1353273 10.5263783,17.1068157 10.5257144,16.8603269 C10.5249753,16.6145802 10.8201169,16.2440072 11.1853707,16.0326697" id="Path" fill="#004975"></path>
            <path d="M16.0489904,12.706926 C16.4142442,12.4955885 16.710477,12.5201944 16.7111408,12.7620745 C16.7118411,13.0039546 16.4166995,13.3714811 16.0514457,13.5828186 C15.6861919,13.7941561 15.3892966,13.7691596 15.388594,13.5272795 C15.3879325,13.2853994 15.6837367,12.9182635 16.0489904,12.706926" id="Path" fill="#004067"></path>
            <path d="M10.556972,11.722533 C10.7516415,11.6098926 10.9092868,11.6737508 10.9098339,11.8655598 C10.9103781,12.0565876 10.7536292,12.3024125 10.5589597,12.4150529 C10.3649527,12.5273028 10.2073074,12.4634055 10.2067991,12.2723776 C10.2062162,12.0805686 10.363004,11.8347438 10.556972,11.722533" id="Path" fill="#004066"></path>
        </g>
        <g id="Group" transform="translate(10.000000, 2.000000)" fill="url(#linearGradient-1)" stroke="#FFFFFF">
            <rect id="Rectangle-Copy-7" x="-0.5" y="-0.5" width="21" height="11.382625" rx="2"></rect>
        </g>
        <path d="M12.1611328,4.11243359 L13.4135742,4.11243359 L15.2680664,9.57044141 L17.109375,4.11243359 L18.3486328,4.11243359 L18.3486328,10.568 L17.5180664,10.568 L17.5180664,6.75794141 C17.5180664,6.62610481 17.5209961,6.40784527 17.5268555,6.10315625 C17.5327149,5.79846723 17.5356445,5.47181034 17.5356445,5.12317578 L15.6943359,10.568 L14.8286133,10.568 L12.9741211,5.12317578 L12.9741211,5.32092969 C12.9741211,5.4791336 12.9777832,5.72009799 12.9851074,6.04383008 C12.9924317,6.36756217 12.9960938,6.60559689 12.9960938,6.75794141 L12.9960938,10.568 L12.1611328,10.568 L12.1611328,4.11243359 Z M20.1811523,9.31555859 C20.1811523,9.54407536 20.2646476,9.72424934 20.4316406,9.85608594 C20.5986336,9.98792253 20.7963856,10.0538398 21.0249023,10.0538398 C21.303224,10.0538398 21.5727526,9.98938736 21.8334961,9.86048047 C22.2729514,9.64661221 22.4926758,9.29651806 22.4926758,8.8101875 L22.4926758,8.17298047 C22.3959956,8.23450421 22.2714851,8.28577323 22.1191406,8.32678906 C21.9667961,8.36780489 21.8173835,8.39710147 21.6708984,8.41467969 L21.1918945,8.47620312 C20.9047837,8.51428925 20.6894538,8.57434725 20.5458984,8.65637891 C20.3027332,8.79407491 20.1811523,9.01379927 20.1811523,9.31555859 Z M22.097168,7.71594922 C22.2788095,7.6925116 22.4003903,7.61634049 22.4619141,7.48743359 C22.4970705,7.41712074 22.5146484,7.31604753 22.5146484,7.18421094 C22.5146484,6.91467834 22.4187021,6.71912365 22.2268066,6.59754102 C22.0349111,6.47595838 21.7602557,6.41516797 21.402832,6.41516797 C20.989744,6.41516797 20.6967782,6.52649498 20.5239258,6.74915234 C20.4272456,6.87219983 20.364258,7.05530347 20.3349609,7.29846875 L19.5966797,7.29846875 C19.6113282,6.71838772 19.7995587,6.31482731 20.161377,6.08777539 C20.5231952,5.86072347 20.9428687,5.74719922 21.4204102,5.74719922 C21.9741239,5.74719922 22.4238264,5.85266691 22.7695312,6.06360547 C23.1123064,6.27454402 23.2836914,6.60266574 23.2836914,7.04798047 L23.2836914,9.75940625 C23.2836914,9.84143791 23.3005369,9.90735522 23.3342285,9.95716016 C23.3679201,10.0069651 23.4389643,10.0318672 23.5473633,10.0318672 C23.5825197,10.0318672 23.6220701,10.0296699 23.6660156,10.0252754 C23.7099612,10.0208808 23.7568357,10.0142891 23.8066406,10.0055 L23.8066406,10.5899727 C23.6835931,10.6251291 23.5898441,10.6471015 23.5253906,10.6558906 C23.4609372,10.6646797 23.3730474,10.6690742 23.2617188,10.6690742 C22.9892565,10.6690742 22.7915045,10.5723955 22.668457,10.3790352 C22.6040036,10.2764956 22.5585939,10.1314775 22.5322266,9.94397656 C22.3710929,10.1549151 22.1396499,10.3380188 21.8378906,10.493293 C21.5361313,10.6485672 21.2036151,10.7262031 20.840332,10.7262031 C20.4038064,10.7262031 20.0471205,10.5936361 19.7702637,10.328498 C19.4934068,10.06336 19.3549805,9.73157621 19.3549805,9.33313672 C19.3549805,8.8966111 19.4912096,8.55823558 19.7636719,8.318 C20.0361342,8.07776442 20.3935525,7.92981668 20.8359375,7.87415234 L22.097168,7.71594922 Z M24.1318359,5.86145703 L25.1557617,5.86145703 L26.2368164,7.51819531 L27.3310547,5.86145703 L28.293457,5.88342969 L26.7070312,8.15540234 L28.3637695,10.568 L27.3530273,10.568 L26.184082,8.80139844 L25.050293,10.568 L24.0483398,10.568 L25.7050781,8.15540234 L24.1318359,5.86145703 Z" id="Max" fill="#FFFFFF" fill-rule="nonzero"></path>
        <g id="Group-6" transform="translate(2.000000, 12.500000)" fill="#F16464">
            <g id="Group-2-Copy" transform="translate(2.000000, 3.171875) rotate(-90.000000) translate(-2.000000, -3.171875) translate(-0.500000, 1.171875)">
                <polygon id="Fill-22" transform="translate(2.148438, 2.792969) rotate(-180.000000) translate(-2.148438, -2.792969) " points="2.1484375 1.71875 1.42108547e-14 3.8671875 4.296875 3.8671875"></polygon>
                <polygon id="Fill-21" transform="translate(2.148438, 1.503906) rotate(-180.000000) translate(-2.148438, -1.503906) " points="1.6484375 2.79296875 2.6484375 2.79296875 2.6484375 0.21484375 1.6484375 0.21484375"></polygon>
            </g>
            <g id="Group-2-Copy-2" transform="translate(2.000000, 8.409991) rotate(-90.000000) translate(-2.000000, -8.409991) translate(-0.500000, 6.409991)">
                <polygon id="Fill-22" transform="translate(2.148438, 2.792969) rotate(-180.000000) translate(-2.148438, -2.792969) " points="2.1484375 1.71875 1.42108547e-14 3.8671875 4.296875 3.8671875"></polygon>
                <polygon id="Fill-21" transform="translate(2.148438, 1.503906) rotate(-180.000000) translate(-2.148438, -1.503906) " points="1.6484375 2.79296875 2.6484375 2.79296875 2.6484375 0.21484375 1.6484375 0.21484375"></polygon>
            </g>
            <g id="Group-2-Copy-3" transform="translate(2.000000, 13.648108) rotate(-90.000000) translate(-2.000000, -13.648108) translate(-0.500000, 11.648108)">
                <polygon id="Fill-22" transform="translate(2.148438, 2.792969) rotate(-180.000000) translate(-2.148438, -2.792969) " points="2.1484375 1.71875 1.42108547e-14 3.8671875 4.296875 3.8671875"></polygon>
                <polygon id="Fill-21" transform="translate(2.148438, 1.503906) rotate(-180.000000) translate(-2.148438, -1.503906) " points="1.6484375 2.79296875 2.6484375 2.79296875 2.6484375 0.21484375 1.6484375 0.21484375"></polygon>
            </g>
        </g>
        <g id="Group-6" transform="translate(28.000000, 21.500000) rotate(-180.000000) translate(-28.000000, -21.500000) translate(26.000000, 13.000000)" fill="#F16464">
            <g id="Group-2-Copy" transform="translate(2.000000, 3.171875) rotate(-90.000000) translate(-2.000000, -3.171875) translate(-0.500000, 1.171875)">
                <polygon id="Fill-22" transform="translate(2.148438, 2.792969) rotate(-180.000000) translate(-2.148438, -2.792969) " points="2.1484375 1.71875 1.42108547e-14 3.8671875 4.296875 3.8671875"></polygon>
                <polygon id="Fill-21" transform="translate(2.171875, 1.503906) rotate(-180.000000) translate(-2.171875, -1.503906) " points="1.671875 2.79296875 2.671875 2.79296875 2.671875 0.21484375 1.671875 0.21484375"></polygon>
            </g>
            <g id="Group-2-Copy-2" transform="translate(2.000000, 8.409991) rotate(-90.000000) translate(-2.000000, -8.409991) translate(-0.500000, 6.409991)">
                <polygon id="Fill-22" transform="translate(2.148438, 2.792969) rotate(-180.000000) translate(-2.148438, -2.792969) " points="2.1484375 1.71875 1.42108547e-14 3.8671875 4.296875 3.8671875"></polygon>
                <polygon id="Fill-21" transform="translate(2.148438, 1.503906) rotate(-180.000000) translate(-2.148438, -1.503906) " points="1.6484375 2.79296875 2.6484375 2.79296875 2.6484375 0.21484375 1.6484375 0.21484375"></polygon>
            </g>
            <g id="Group-2-Copy-3" transform="translate(2.000000, 13.648108) rotate(-90.000000) translate(-2.000000, -13.648108) translate(-0.500000, 11.648108)">
                <polygon id="Fill-22" transform="translate(2.148438, 2.792969) rotate(-180.000000) translate(-2.148438, -2.792969) " points="2.1484375 1.71875 1.42108547e-14 3.8671875 4.296875 3.8671875"></polygon>
                <polygon id="Fill-21" transform="translate(2.148438, 1.503906) rotate(-180.000000) translate(-2.148438, -1.503906) " points="1.64860234 2.79296875 2.64827266 2.79296875 2.64827266 0.21484375 1.64860234 0.21484375"></polygon>
            </g>
        </g>
    </g>
</svg>