<?xml version="1.0" encoding="UTF-8"?>
<svg width="16px" height="16px" viewBox="0 0 16 16" version="1.1" xmlns="http://www.w3.org/2000/svg" xmlns:xlink="http://www.w3.org/1999/xlink">
    <title>mechanical_stratigraphy_flag_form_gr_16x16</title>
    <defs>
        <linearGradient x1="100%" y1="50%" x2="0%" y2="50%" id="linearGradient-1">
            <stop stop-color="#FF8D8D" offset="0%"></stop>
            <stop stop-color="#FFBFBF" offset="42.1374594%"></stop>
            <stop stop-color="#F16464" offset="71.6801214%"></stop>
            <stop stop-color="#FFD3D3" offset="100%"></stop>
        </linearGradient>
        <linearGradient x1="50%" y1="0%" x2="50%" y2="190.349849%" id="linearGradient-2">
            <stop stop-color="#00ACFF" stop-opacity="0" offset="0%"></stop>
            <stop stop-color="#6EC5F9" stop-opacity="0.673601676" offset="49.9796785%"></stop>
            <stop stop-color="#0077BE" offset="100%"></stop>
        </linearGradient>
    </defs>
    <g id="mechanical_stratigraphy_flag_form_gr_16x16" stroke="none" stroke-width="1" fill="none" fill-rule="evenodd">
        <g id="Group-2" transform="translate(2.000000, 0.500000)">
            <g id="Group-4" transform="translate(0.000000, 0.500000)" fill="url(#linearGradient-1)">
                <path d="M0.416666667,7.08333333 C1.03298922,6.21081486 1.92518653,5.6552593 3.0932586,5.41666667 C4.37642179,5.15456529 4.37642179,5.99700995 6.09126984,5.71287372 C7.28306925,5.51540235 8.44709041,4.58333333 9.58333333,2.91666667 C8.97791622,3.25893112 8.19942521,3.43006334 7.24786031,3.43006334 C5.27852467,3.43006334 5.10513115,2.10047381 3.47222222,1.25 C2.73800423,0.867594608 1.71948571,0.58981683 0.416666667,0.416666667 L0.416666667,7.08333333 Z" id="Fill-2-Copy"></path>
            </g>
            <rect id="Rectangle" fill="#0077BE" x="0" y="0" width="1" height="15" rx="0.5"></rect>
        </g>
        <g id="Group-6" transform="translate(5.500000, 6.511990)">
            <g id="Group" transform="translate(0.000000, 0.198806)">
                <polygon id="Rectangle" fill="url(#linearGradient-2)" points="0.225804038 2.45288057 4.37372594 0.290695993 8.59804107 2.503887 4.37372594 4.71707801"></polygon>
                <path d="M3.81040302,0.920017917 C4.24287712,0.696134035 4.75712288,0.696134035 5.18959698,0.920017917 L5.18959698,0.920017917 L7.68959698,2.21422192 C7.93850917,2.34307918 8.14110992,2.53595685 8.28148263,2.76669226 C8.42185534,2.99742767 8.5,3.26602081 8.5,3.54630901 L8.5,3.54630901 L8.5,5.84961203 C8.5,6.12990023 8.42185534,6.39849337 8.28148263,6.62922878 C8.14110992,6.85996419 7.93850917,7.05284186 7.68959698,7.18169912 L7.68959698,7.18169912 L5.18959698,8.47590312 C4.75712288,8.699787 4.24287712,8.699787 3.81040302,8.47590312 L3.81040302,8.47590312 L1.31040302,7.18169912 C1.06149083,7.05284186 0.858890078,6.85996419 0.71851737,6.62922878 C0.578144661,6.39849337 0.5,6.12990023 0.5,5.84961203 L0.5,5.84961203 L0.5,3.54630901 C0.5,3.26602081 0.578144661,2.99742767 0.71851737,2.76669226 C0.858890078,2.53595685 1.06149083,2.34307918 1.31040302,2.21422192 L1.31040302,2.21422192 Z" id="Path" stroke="#0077BE"></path>
                <path d="M1,2.83702989 L3.50484809,4.24999197 C4.12157097,4.59787976 4.87627195,4.59374207 5.48914325,4.23911298 L8,2.78624213 L8,2.78624213" id="Line-2" stroke="#0077BE" stroke-linecap="round"></path>
                <line x1="4.5" y1="4.60967126" x2="4.5" y2="8.28920386" id="Line-3" stroke="#0077BE" stroke-linecap="round"></line>
            </g>
        </g>
    </g>
</svg>