<?xml version="1.0" encoding="UTF-8"?>
<svg width="32px" height="32px" viewBox="0 0 32 32" version="1.1" xmlns="http://www.w3.org/2000/svg" xmlns:xlink="http://www.w3.org/1999/xlink">
    <title>mechanical_stratigraphy_flag_form_gr_32x32</title>
    <defs>
        <linearGradient x1="100%" y1="50%" x2="0%" y2="50%" id="linearGradient-1">
            <stop stop-color="#FF8D8D" offset="0%"></stop>
            <stop stop-color="#FFBFBF" offset="42.1374594%"></stop>
            <stop stop-color="#F16464" offset="71.6801214%"></stop>
            <stop stop-color="#FFD3D3" offset="100%"></stop>
        </linearGradient>
        <linearGradient x1="50%" y1="0%" x2="50%" y2="190.349849%" id="linearGradient-2">
            <stop stop-color="#00ACFF" stop-opacity="0" offset="0%"></stop>
            <stop stop-color="#6EC5F9" stop-opacity="0.673601676" offset="49.9796785%"></stop>
            <stop stop-color="#0077BE" offset="100%"></stop>
        </linearGradient>
    </defs>
    <g id="mechanical_stratigraphy_flag_form_gr_32x32" stroke="none" stroke-width="1" fill="none" fill-rule="evenodd">
        <g id="Group-2" transform="translate(3.500000, 1.000000)">
            <g id="Group-4" transform="translate(0.000000, 0.500000)" fill="url(#linearGradient-1)">
                <path d="M0.5,8.5 C1.23958707,7.45297783 2.31022384,6.78631117 3.71191032,6.5 C5.25170615,6.18547835 5.25170615,7.19641193 7.30952381,6.85544846 C8.7396831,6.61848282 10.1365085,5.5 11.5,3.5 C10.7734995,3.91071734 9.83931026,4.11607601 8.69743238,4.11607601 C6.33422961,4.11607601 6.12615738,2.52056858 4.16666667,1.5 C3.28560507,1.04111353 2.06338285,0.707780196 0.5,0.5 L0.5,8.5 Z" id="Fill-2-Copy"></path>
            </g>
            <rect id="Rectangle" fill="#D54D4D" x="0" y="0" width="1" height="15" rx="0.5"></rect>
        </g>
        <g id="Group-6" transform="translate(6.500000, 7.000000)">
            <g id="Group" transform="translate(0.000000, 0.500000)">
                <polygon id="Rectangle" fill="url(#linearGradient-2)" points="0.567901247 6.16903907 11 0.73110569 21.6242291 6.29732118 11 11.8635367"></polygon>
                <path d="M10.310403,0.920017917 C10.7428771,0.696134035 11.2571229,0.696134035 11.689597,0.920017917 L11.689597,0.920017917 L20.689597,5.57915232 C20.9385092,5.70800958 21.1411099,5.90088725 21.2814826,6.13162266 C21.4218553,6.36235807 21.5,6.63095121 21.5,6.91123941 L21.5,6.91123941 L21.5,16.0565676 C21.5,16.3368558 21.4218553,16.6054489 21.2814826,16.8361843 C21.1411099,17.0669197 20.9385092,17.2597974 20.689597,17.3886547 L20.689597,17.3886547 L11.689597,22.0477891 C11.2571229,22.271673 10.7428771,22.271673 10.310403,22.0477891 L10.310403,22.0477891 L1.31040302,17.3886547 C1.06149083,17.2597974 0.858890078,17.0669197 0.71851737,16.8361843 C0.578144661,16.6054489 0.5,16.3368558 0.5,16.0565676 L0.5,16.0565676 L0.5,6.91123941 C0.5,6.63095121 0.578144661,6.36235807 0.71851737,6.13162266 C0.858890078,5.90088725 1.06149083,5.70800958 1.31040302,5.57915232 L1.31040302,5.57915232 Z" id="Path" stroke="#0077BE"></path>
                <path d="M0.523809524,6.64358053 L10.0760186,11.6194597 C10.6550789,11.9211003 11.3449211,11.9211003 11.9239814,11.6194597 L21.4761905,6.64358053 L21.4761905,6.64358053" id="Line-2" stroke="#0077BE" stroke-linecap="round"></path>
                <line x1="11" y1="11.8635367" x2="11" y2="21.9907837" id="Line-3" stroke="#0077BE" stroke-linecap="round"></line>
            </g>
        </g>
        <circle id="Oval" fill="#D53B3B" cx="4" cy="16" r="1.5"></circle>
    </g>
</svg>