<?xml version="1.0" encoding="UTF-8"?>
<svg width="32px" height="32px" viewBox="0 0 32 32" version="1.1" xmlns="http://www.w3.org/2000/svg" xmlns:xlink="http://www.w3.org/1999/xlink">
    <title>merge_curve_32x32</title>
    <g id="merge_curve_32x32" stroke="none" stroke-width="1" fill="none" fill-rule="evenodd">
        <circle id="Oval" fill="#F16464" cx="15" cy="7" r="1"></circle>
        <circle id="Oval-Copy-9" fill="#F16464" cx="9" cy="25" r="1"></circle>
        <circle id="Oval-Copy" fill="#F16464" cx="19" cy="7" r="1"></circle>
        <circle id="Oval-Copy-10" fill="#F16464" cx="13" cy="25" r="1"></circle>
        <circle id="Oval-Copy-11" fill="#F16464" cx="17" cy="25" r="1"></circle>
        <circle id="Oval-Copy-12" fill="#F16464" cx="25" cy="25" r="1"></circle>
        <circle id="Oval-Copy-13" fill="#F16464" cx="29" cy="25" r="1"></circle>
        <circle id="Oval-Copy-2" fill="#F16464" cx="23" cy="7" r="1"></circle>
        <circle id="Oval-Copy-4" fill="#F16464" cx="30.9202297" cy="7" r="1"></circle>
        <circle id="Oval-Copy-5" fill="#F16464" cx="7" cy="7" r="1"></circle>
        <circle id="Oval-Copy-7" fill="#F16464" cx="5" cy="25" r="1"></circle>
        <circle id="Oval-Copy-6" fill="#F16464" cx="3.07977026" cy="7" r="1"></circle>
        <circle id="Oval-Copy-8" fill="#F16464" cx="1" cy="25" r="1"></circle>
        <circle id="Oval-Copy-3" fill="#F16464" cx="27" cy="7" r="1"></circle>
        <rect id="Rectangle" fill="#F16464" opacity="0.090750558" x="0" y="0" width="32" height="32"></rect>
        <g id="Group-2-Copy-2" transform="translate(4.000000, -18.000000)">
            <path d="M6.6,33.8 C7.4,34.6 8,35.6 8,36.8 L8,37 L6,37 C6,37 6,36.8 6,36.8 C6,35.8 5,34.8 4,34.8 C3,34.8 2,34.4 1.4,33.8 C0.6,33 0,32 0,30.8 C0,29.6 0.6,28.6 1.4,27.8 C2,27.2 3,26.8 4,26.8 C5,26.8 6,25.8 6,25 L8,25 C8,26.2 7.4,27.2 6.6,27.8 C6,28.4 5,28.8 4,28.8 C3,28.8 2,29.8 2,30.8 C2,31.8 3,32.8 4,32.8 C5,32.8 6,33.2 6.6,33.8 Z" id="Path" fill="#F16464"></path>
            <path d="M0,43.0019794 C0,41.553294 0.6,40.3460562 1.4,39.3802659 C2,38.6559232 3,38.1730281 4,38.1730281 C5,38.1730281 6,36.9657903 6,36 L8,36 C8,37.4486854 7.4,38.6559232 6.6,39.3802659 C6,40.1046086 5,40.5875038 4,40.5875038 C3,40.5875038 2,41.7947416 2,43.0019794 C2,44.2092173 0,44.4506648 0,43.0019794 Z" id="Path" fill="#F16464"></path>
            <path d="M6.6,21.8 C7.4,22.6 8,23.6 8,24.8 L8,25 L6,25 C6,25 6,24.8 6,24.8 C6,23.8 5,22.8 4,22.8 C3,22.8 2,22.4 1.4,21.8 C0.6,21 0,20 0,18.8 C0,17.6 0.6,16.6 1.4,15.8 C2,15.2 3,14.8 4,14.8 C5,14.8 6,13.8 6,13 L8,13 C8,14.2 7.4,15.2 6.6,15.8 C6,16.4 5,16.8 4,16.8 C3,16.8 2,17.8 2,18.8 C2,19.8 3,20.8 4,20.8 C5,20.8 6,21.2 6.6,21.8 Z" id="Path" fill="#0077BE"></path>
        </g>
        <g id="Group-2-Copy-3" transform="translate(24.000000, 28.500000) rotate(-180.000000) translate(-24.000000, -28.500000) translate(20.000000, 6.000000)">
            <path d="M6.6,34.5333333 C7.4,35.4 8,36.4833333 8,37.7833333 L8,38 L6,38 C6,38 6,37.7833333 6,37.7833333 C6,36.7 5,35.6166667 4,35.6166667 C3,35.6166667 2,35.1833333 1.4,34.5333333 C0.6,33.6666667 0,32.5833333 0,31.2833333 C0,29.9833333 0.6,28.9 1.4,28.0333333 C2,27.3833333 3,26.95 4,26.95 C5,26.95 6,25.8666667 6,25 L8,25 C8,26.3 7.4,27.3833333 6.6,28.0333333 C6,28.6833333 5,29.1166667 4,29.1166667 C3,29.1166667 2,30.2 2,31.2833333 C2,32.3666667 3,33.45 4,33.45 C5,33.45 6,33.8833333 6.6,34.5333333 Z" id="Path" fill="#F16464"></path>
            <path d="M0,44.126732 C0,42.8591323 0.6,41.8027992 1.4,40.9577327 C2,40.3239328 3,39.9013996 4,39.9013996 C5,39.9013996 6,38.8450665 6,38 L8,38 C8,39.2675997 7.4,40.3239328 6.6,40.9577327 C6,41.5915325 5,42.0140658 4,42.0140658 C3,42.0140658 2,43.0703989 2,44.126732 C2,45.1830651 0,45.3943317 0,44.126732 Z" id="Path" fill="#F16464"></path>
            <path d="M6.6,22.5333333 C7.4,23.4 8,24.4833333 8,25.7833333 L8,26 L6,26 C6,26 6,25.7833333 6,25.7833333 C6,24.7 5,23.6166667 4,23.6166667 C3,23.6166667 2,23.1833333 1.4,22.5333333 C0.6,21.6666667 0,20.5833333 0,19.2833333 C0,17.9833333 0.6,16.9 1.4,16.0333333 C2,15.3833333 3,14.95 4,14.95 C5,14.95 6,13.8666667 6,13 L8,13 C8,14.3 7.4,15.3833333 6.6,16.0333333 C6,16.6833333 5,17.1166667 4,17.1166667 C3,17.1166667 2,18.2 2,19.2833333 C2,20.3666667 3,21.45 4,21.45 C5,21.45 6,21.8833333 6.6,22.5333333 Z" id="Path" fill="#0077BE"></path>
        </g>
    </g>
</svg>