<?xml version="1.0" encoding="UTF-8"?>
<svg width="16px" height="16px" viewBox="0 0 16 16" version="1.1" xmlns="http://www.w3.org/2000/svg" xmlns:xlink="http://www.w3.org/1999/xlink">
    <title>merge_curve_16x16</title>
    <g id="merge_curve_16x16" stroke="none" stroke-width="1" fill="none" fill-rule="evenodd">
        <g id="Group-2-Copy-2" transform="translate(1.534087, -9.646459)">
            <path d="M3.76344401,17.420864 C4.16344401,17.820864 4.46344401,18.320864 4.46344401,18.920864 L4.46344401,19.020864 L3.46344401,19.020864 C3.46344401,19.020864 3.46344401,18.920864 3.46344401,18.920864 C3.46344401,18.420864 2.96344401,17.920864 2.46344401,17.920864 C1.96344401,17.920864 1.46344401,17.720864 1.16344401,17.420864 C0.763444011,17.020864 0.463444011,16.520864 0.463444011,15.920864 C0.463444011,15.320864 0.763444011,14.820864 1.16344401,14.420864 C1.46344401,14.120864 1.96344401,13.920864 2.46344401,13.920864 C2.96344401,13.920864 3.46344401,13.420864 3.46344401,13.020864 L4.46344401,13.020864 C4.46344401,13.620864 4.16344401,14.120864 3.76344401,14.420864 C3.46344401,14.720864 2.96344401,14.920864 2.46344401,14.920864 C1.96344401,14.920864 1.46344401,15.420864 1.46344401,15.920864 C1.46344401,16.420864 1.96344401,16.920864 2.46344401,16.920864 C2.96344401,16.920864 3.46344401,17.120864 3.76344401,17.420864 Z" id="Path" fill="#F16464"></path>
            <path d="M0.463444011,21.920864 C0.463444011,21.320864 0.763444011,20.820864 1.16344401,20.420864 C1.46344401,20.120864 1.96344401,19.920864 2.46344401,19.920864 C2.96344401,19.920864 3.46344401,19.420864 3.46344401,19.020864 L4.46344401,19.020864 C4.46344401,19.620864 4.16344401,20.120864 3.76344401,20.420864 C3.46344401,20.720864 2.96344401,20.920864 2.46344401,20.920864 C1.96344401,20.920864 1.46344401,21.420864 1.46344401,21.920864 C1.46344401,22.420864 0.463444011,22.520864 0.463444011,21.920864 Z" id="Path" fill="#F16464"></path>
            <path d="M3.76344401,11.420864 C4.16344401,11.820864 4.46344401,12.320864 4.46344401,12.920864 L4.46344401,13.020864 L3.46344401,13.020864 C3.46344401,13.020864 3.46344401,12.920864 3.46344401,12.920864 C3.46344401,12.420864 2.96344401,11.920864 2.46344401,11.920864 C1.96344401,11.920864 1.46344401,11.720864 1.16344401,11.420864 C0.763444011,11.020864 0.463444011,10.520864 0.463444011,9.92086398 C0.463444011,9.32086398 0.763444011,8.82086398 1.16344401,8.42086398 C1.46344401,8.12086398 1.96344401,7.92086398 2.46344401,7.92086398 C2.96344401,7.92086398 3.46344401,7.42086398 3.46344401,7.02086398 L4.46344401,7.02086398 C4.46344401,7.62086398 4.16344401,8.12086398 3.76344401,8.42086398 C3.46344401,8.72086398 2.96344401,8.92086398 2.46344401,8.92086398 C1.96344401,8.92086398 1.46344401,9.42086398 1.46344401,9.92086398 C1.46344401,10.420864 1.96344401,10.920864 2.46344401,10.920864 C2.96344401,10.920864 3.46344401,11.120864 3.76344401,11.420864 Z" id="Path" fill="#0077BE"></path>
        </g>
        <g id="Group-2-Copy-3" transform="translate(11.960115, 14.108152) rotate(-180.000000) translate(-11.960115, -14.108152) translate(9.460115, 2.608152)">
            <path d="M3.76344401,17.420864 C4.16344401,17.820864 4.46344401,18.320864 4.46344401,18.920864 L4.46344401,19.020864 L3.46344401,19.020864 C3.46344401,19.020864 3.46344401,18.920864 3.46344401,18.920864 C3.46344401,18.420864 2.96344401,17.920864 2.46344401,17.920864 C1.96344401,17.920864 1.46344401,17.720864 1.16344401,17.420864 C0.763444011,17.020864 0.463444011,16.520864 0.463444011,15.920864 C0.463444011,15.320864 0.763444011,14.820864 1.16344401,14.420864 C1.46344401,14.120864 1.96344401,13.920864 2.46344401,13.920864 C2.96344401,13.920864 3.46344401,13.420864 3.46344401,13.020864 L4.46344401,13.020864 C4.46344401,13.620864 4.16344401,14.120864 3.76344401,14.420864 C3.46344401,14.720864 2.96344401,14.920864 2.46344401,14.920864 C1.96344401,14.920864 1.46344401,15.420864 1.46344401,15.920864 C1.46344401,16.420864 1.96344401,16.920864 2.46344401,16.920864 C2.96344401,16.920864 3.46344401,17.120864 3.76344401,17.420864 Z" id="Path" fill="#F16464"></path>
            <path d="M0.463444011,21.920864 C0.463444011,21.320864 0.763444011,20.820864 1.16344401,20.420864 C1.46344401,20.120864 1.96344401,19.920864 2.46344401,19.920864 C2.96344401,19.920864 3.46344401,19.420864 3.46344401,19.020864 L4.46344401,19.020864 C4.46344401,19.620864 4.16344401,20.120864 3.76344401,20.420864 C3.46344401,20.720864 2.96344401,20.920864 2.46344401,20.920864 C1.96344401,20.920864 1.46344401,21.420864 1.46344401,21.920864 C1.46344401,22.420864 0.463444011,22.520864 0.463444011,21.920864 Z" id="Path" fill="#F16464"></path>
            <path d="M3.76344401,11.420864 C4.16344401,11.820864 4.46344401,12.320864 4.46344401,12.920864 L4.46344401,13.020864 L3.46344401,13.020864 C3.46344401,13.020864 3.46344401,12.920864 3.46344401,12.920864 C3.46344401,12.420864 2.96344401,11.920864 2.46344401,11.920864 C1.96344401,11.920864 1.46344401,11.720864 1.16344401,11.420864 C0.763444011,11.020864 0.463444011,10.520864 0.463444011,9.92086398 C0.463444011,9.32086398 0.763444011,8.82086398 1.16344401,8.42086398 C1.46344401,8.12086398 1.96344401,7.92086398 2.46344401,7.92086398 C2.96344401,7.92086398 3.46344401,7.42086398 3.46344401,7.02086398 L4.46344401,7.02086398 C4.46344401,7.62086398 4.16344401,8.12086398 3.76344401,8.42086398 C3.46344401,8.72086398 2.96344401,8.92086398 2.46344401,8.92086398 C1.96344401,8.92086398 1.46344401,9.42086398 1.46344401,9.92086398 C1.46344401,10.420864 1.96344401,10.920864 2.46344401,10.920864 C2.96344401,10.920864 3.46344401,11.120864 3.76344401,11.420864 Z" id="Path" fill="#0077BE"></path>
        </g>
        <circle id="Oval" fill="#F16464" cx="7.5" cy="3.5" r="1"></circle>
        <circle id="Oval-Copy-9" fill="#F16464" cx="4.5" cy="12.5" r="1"></circle>
        <circle id="Oval-Copy" fill="#F16464" cx="9.5" cy="3.5" r="1"></circle>
        <circle id="Oval-Copy-10" fill="#F16464" cx="6.5" cy="12.5" r="1"></circle>
        <circle id="Oval-Copy-11" fill="#F16464" cx="8.5" cy="12.5" r="1"></circle>
        <circle id="Oval-Copy-12" fill="#F16464" cx="12.5" cy="12.5" r="1"></circle>
        <circle id="Oval-Copy-13" fill="#F16464" cx="14.5" cy="12.5" r="1"></circle>
        <circle id="Oval-Copy-2" fill="#F16464" cx="11.5" cy="3.5" r="1"></circle>
        <circle id="Oval-Copy-4" fill="#F16464" cx="15.4601149" cy="3.5" r="1"></circle>
        <circle id="Oval-Copy-5" fill="#F16464" cx="3.5" cy="3.5" r="1"></circle>
        <circle id="Oval-Copy-7" fill="#F16464" cx="2.5" cy="12.5" r="1"></circle>
        <circle id="Oval-Copy-6" fill="#F16464" cx="1.53988513" cy="3.5" r="1"></circle>
        <circle id="Oval-Copy-8" fill="#F16464" cx="0.5" cy="12.5" r="1"></circle>
        <circle id="Oval-Copy-3" fill="#F16464" cx="13.5" cy="3.5" r="1"></circle>
        <rect id="Rectangle" fill="#F16464" opacity="0.090750558" x="0" y="3" width="16" height="10"></rect>
    </g>
</svg>