<?xml version="1.0" encoding="UTF-8"?>
<svg width="16px" height="16px" viewBox="0 0 16 16" version="1.1" xmlns="http://www.w3.org/2000/svg" xmlns:xlink="http://www.w3.org/1999/xlink">
    <title>microres_precompu_16x16</title>
    <defs>
        <linearGradient x1="90.7121631%" y1="16.9921875%" x2="4.9629183%" y2="81.2714094%" id="linearGradient-1">
            <stop stop-color="#1AAAFF" offset="0%"></stop>
            <stop stop-color="#0077BE" offset="100%"></stop>
        </linearGradient>
    </defs>
    <g id="microres_precompu_16x16" stroke="none" stroke-width="1" fill="none" fill-rule="evenodd">
        <rect id="Rectangle-7-Copy-8" fill="url(#linearGradient-1)" x="0" y="1" width="16" height="13" rx="2"></rect>
        <path d="M5.20507812,7.61328125 C5.66080957,7.61328125 6.02132029,7.52213633 6.28662109,7.33984375 C6.5519219,7.15755117 6.68457031,6.82877842 6.68457031,6.35351562 C6.68457031,5.84244536 6.49902529,5.49414155 6.12792969,5.30859375 C5.92936099,5.21093701 5.66406416,5.16210938 5.33203125,5.16210938 L2.95898438,5.16210938 L2.95898438,7.61328125 L5.20507812,7.61328125 Z M1.98730469,4.32714844 L5.30761719,4.32714844 C5.85449492,4.32714844 6.30533677,4.40690024 6.66015625,4.56640625 C7.33398774,4.87239736 7.67089844,5.43717036 7.67089844,6.26074219 C7.67089844,6.69043184 7.5821949,7.04199082 7.40478516,7.31542969 C7.22737542,7.58886855 6.97916826,7.80859292 6.66015625,7.97460938 C6.94010557,8.08854224 7.1508782,8.23828032 7.29248047,8.42382812 C7.43408274,8.60937593 7.51302075,8.91047969 7.52929688,9.32714844 L7.56347656,10.2890625 C7.57324224,10.5625014 7.59602847,10.7659499 7.63183594,10.8994141 C7.69042998,11.1272798 7.79459561,11.2737627 7.94433594,11.3388672 L7.94433594,11.5 L6.75292969,11.5 C6.72037744,11.4381507 6.69433604,11.3583989 6.67480469,11.2607422 C6.65527334,11.1630854 6.63899746,10.9742853 6.62597656,10.6943359 L6.56738281,9.49804688 C6.54459624,9.02929453 6.37044434,8.71517007 6.04492188,8.55566406 C5.85937407,8.467773 5.56803584,8.42382812 5.17089844,8.42382812 L2.95898438,8.42382812 L2.95898438,11.5 L1.98730469,11.5 L1.98730469,4.32714844 Z M9.18457031,4.32714844 L12.4121094,4.32714844 C13.0501334,4.32714844 13.5644512,4.5069969 13.9550781,4.86669922 C14.3457051,5.22640154 14.5410156,5.73176758 14.5410156,6.3828125 C14.5410156,6.94271113 14.3668637,7.43017371 14.0185547,7.84521484 C13.6702457,8.26025598 13.1347692,8.46777344 12.4121094,8.46777344 L10.15625,8.46777344 L10.15625,11.5 L9.18457031,11.5 L9.18457031,4.32714844 Z M13.5595703,6.38769531 C13.5595703,5.86034893 13.3642598,5.50227959 12.9736328,5.31347656 C12.758788,5.2125646 12.4641946,5.16210938 12.0898438,5.16210938 L10.15625,5.16210938 L10.15625,7.64746094 L12.0898438,7.64746094 C12.5260438,7.64746094 12.8800442,7.55468843 13.1518555,7.36914062 C13.4236667,7.18359282 13.5595703,6.85644766 13.5595703,6.38769531 Z" id="RP" fill="#FFFFFF" fill-rule="nonzero"></path>
    </g>
</svg>