<?xml version="1.0" encoding="UTF-8"?>
<svg width="32px" height="32px" viewBox="0 0 32 32" version="1.1" xmlns="http://www.w3.org/2000/svg" xmlns:xlink="http://www.w3.org/1999/xlink">
    <title>minimum_horizontal_stress_32x32</title>
    <defs>
        <linearGradient x1="119.458328%" y1="27.5892189%" x2="50%" y2="66.635633%" id="linearGradient-1">
            <stop stop-color="#F99D9D" offset="0%"></stop>
            <stop stop-color="#F16464" offset="100%"></stop>
        </linearGradient>
    </defs>
    <g id="minimum_horizontal_stress_32x32" stroke="none" stroke-width="1" fill="none" fill-rule="evenodd">
        <g id="rock" transform="translate(7.000000, 11.000000)">
            <polygon id="Path" fill="#6EC9FF" points="17.9739776 5.21008844 9.03184657 10.4204503 1.46078125 6.0376675 0.031490082 5.21036184 8.9703084 0 14.9619201 2.20363576"></polygon>
            <polygon id="Path" fill="#0077BE" points="17.9739776 5.21008844 17.9739776 14.7868291 9.03184657 19.997191 9.03184657 10.4204503 11.6851588 8.87441746 15.0794622 5.33721902"></polygon>
            <g id="Group" transform="translate(0.000000, 4.882127)">
                <polygon id="Path" fill="#329BD9" points="9.03184657 5.53832358 9.03184657 15.1150643 0.031490082 9.90497582 0.031490082 0.328235142 3.54602486 0.0233170371"></polygon>
                <path d="M16.4936319,3.28344502 C17.0956849,2.93509551 17.5847945,2.93450966 17.5858482,3.28344502 C17.5868211,3.63163829 17.0992704,4.19612931 16.4972174,4.54447882 C15.8951645,4.89282832 15.4060549,4.89341418 15.4050012,4.54525996 C15.4040283,4.1963246 15.891579,3.63183358 16.4936319,3.28344502" id="Path" fill="#005181"></path>
            </g>
            <path d="M13.7878233,11.3970318 C14.1985584,11.1593699 14.5329456,11.1672985 14.5336483,11.4153496 C14.5343487,11.6634007 14.2010916,12.0576031 13.7903565,12.295226 C13.3789199,12.5332785 13.0452341,12.5249593 13.0445315,12.2769083 C13.0438311,12.0288572 13.3763866,11.6350453 13.7878233,11.3970318" id="Path" fill="#004F7E"></path>
            <path d="M5.61178203,11.8351734 C6.02251715,12.0728354 6.35511165,12.4666472 6.3543724,12.7146983 C6.35366966,12.9627494 6.01994494,12.9702874 5.60920982,12.7326255 C5.19781217,12.494573 4.86521766,12.1015423 4.86591807,11.8535302 C4.86665966,11.6054401 5.20038438,11.5971209 5.61178203,11.8351734" id="Path" fill="#006EAF"></path>
            <path d="M1.23668723,13.0791784 C1.590444,13.3168403 1.8769336,13.7106522 1.87631105,13.9587033 C1.87568647,14.2067544 1.58826152,14.2142924 1.23450475,13.9766304 C0.880124407,13.7385779 0.593673785,13.3455472 0.594296335,13.0975352 C0.59495989,12.849445 0.882384834,12.8411259 1.23668723,13.0791784" id="Path" fill="#006EAF"></path>
            <g id="Group" transform="translate(1.247132, 8.201973)">
                <path d="M5.8799154,8.28278181 C5.922162,8.3072315 5.965266,8.33562595 6.00891562,8.36800422 C6.38601714,8.64870697 6.65874931,9.1205157 6.6176719,9.42238736 C6.58134919,9.69004507 6.31204663,9.73527309 5.98939021,9.54861962 C5.94718258,9.52420899 5.90403961,9.49577549 5.86042897,9.46339722 C5.48332744,9.18269446 5.21059527,8.71088574 5.25167268,8.40823294 C5.28795643,8.14127825 5.55729796,8.09608929 5.8799154,8.28278181" id="Path" fill="#015C92"></path>
                <path d="M0.295258491,0.0515552579 C0.314277254,0.0625302788 0.333685745,0.0753409792 0.353328073,0.0899092453 C0.523093911,0.216258684 0.645897436,0.428689781 0.627385321,0.564569131 C0.611055687,0.685060018 0.489772104,0.705447779 0.344520204,0.621397086 C0.325540414,0.610422065 0.30609295,0.597611365 0.286450622,0.583043099 C0.116684784,0.45669366 -0.00611874117,0.244262563 0.0123933738,0.107992643 C0.0287619808,-0.0121467312 0.149967618,-0.0324563783 0.295258491,0.0515552579" id="Path" fill="#0066A3"></path>
            </g>
            <path d="M2.59921787,11.619774 C2.78921063,11.7296804 2.94315348,12.0201865 2.94249307,12.2682376 C2.94178943,12.5155075 2.78667739,12.6271715 2.5967236,12.5172261 C2.40673084,12.4073196 2.25345053,12.1172432 2.25414964,11.8699732 C2.25481458,11.6218831 2.40926408,11.5098676 2.59921787,11.619774" id="Path" fill-opacity="0.511690444" fill="#005F98"></path>
            <path d="M11.1853707,16.0326697 C11.5506244,15.8213322 11.8475198,15.8493752 11.8482225,16.0951219 C11.8489228,16.3416107 11.5531577,16.7126133 11.1879039,16.9239508 C10.8226501,17.1353273 10.5263783,17.1068157 10.5257144,16.8603269 C10.5249753,16.6145802 10.8201169,16.2440072 11.1853707,16.0326697" id="Path" fill="#004975"></path>
            <path d="M16.0489904,12.706926 C16.4142442,12.4955885 16.710477,12.5201944 16.7111408,12.7620745 C16.7118411,13.0039546 16.4166995,13.3714811 16.0514457,13.5828186 C15.6861919,13.7941561 15.3892966,13.7691596 15.388594,13.5272795 C15.3879325,13.2853994 15.6837367,12.9182635 16.0489904,12.706926" id="Path" fill="#004067"></path>
            <path d="M10.556972,11.722533 C10.7516415,11.6098926 10.9092868,11.6737508 10.9098339,11.8655598 C10.9103781,12.0565876 10.7536292,12.3024125 10.5589597,12.4150529 C10.3649527,12.5273028 10.2073074,12.4634055 10.2067991,12.2723776 C10.2062162,12.0805686 10.363004,11.8347438 10.556972,11.722533" id="Path" fill="#004066"></path>
        </g>
        <g id="Group" transform="translate(12.000000, 2.000000)" fill="url(#linearGradient-1)" stroke="#FFFFFF">
            <rect id="Rectangle-Copy-7" x="-0.5" y="-0.5" width="19" height="11.382625" rx="2"></rect>
        </g>
        <path d="M14.6616211,4.11243359 L15.9140625,4.11243359 L17.7685547,9.57044141 L19.6098633,4.11243359 L20.8491211,4.11243359 L20.8491211,10.568 L20.0185547,10.568 L20.0185547,6.75794141 C20.0185547,6.62610481 20.0214843,6.40784527 20.0273438,6.10315625 C20.0332032,5.79846723 20.0361328,5.47181034 20.0361328,5.12317578 L18.1948242,10.568 L17.3291016,10.568 L15.4746094,5.12317578 L15.4746094,5.32092969 C15.4746094,5.4791336 15.4782714,5.72009799 15.4855957,6.04383008 C15.49292,6.36756217 15.496582,6.60559689 15.496582,6.75794141 L15.496582,10.568 L14.6616211,10.568 L14.6616211,4.11243359 Z M22.0751953,5.88342969 L22.8793945,5.88342969 L22.8793945,10.568 L22.0751953,10.568 L22.0751953,5.88342969 Z M22.0751953,4.11243359 L22.8793945,4.11243359 L22.8793945,5.00891797 L22.0751953,5.00891797 L22.0751953,4.11243359 Z M24.074707,5.86145703 L24.8261719,5.86145703 L24.8261719,6.52942578 C25.0488292,6.25403378 25.2846667,6.05628185 25.5336914,5.93616406 C25.7827161,5.81604627 26.0595688,5.75598828 26.3642578,5.75598828 C27.0322299,5.75598828 27.4833973,5.98889611 27.7177734,6.45471875 C27.8466803,6.70960284 27.9111328,7.07434528 27.9111328,7.54895703 L27.9111328,10.568 L27.1069336,10.568 L27.1069336,7.60169141 C27.1069336,7.3145806 27.0644535,7.0831376 26.9794922,6.90735547 C26.8388665,6.61438525 26.5839862,6.46790234 26.2148438,6.46790234 C26.0273428,6.46790234 25.8735358,6.48694512 25.753418,6.52503125 C25.53662,6.5894847 25.3461922,6.71838966 25.1821289,6.91175 C25.0502923,7.06702421 24.9645998,7.227423 24.9250488,7.39295117 C24.8854978,7.55847934 24.8657227,7.79504924 24.8657227,8.10266797 L24.8657227,10.568 L24.074707,10.568 L24.074707,5.86145703 Z" id="Min" fill="#FFFFFF" fill-rule="nonzero"></path>
        <g id="Group-6" transform="translate(2.000000, 12.500000)" fill="#F16464">
            <g id="Group-2-Copy" transform="translate(2.000000, 3.171875) rotate(-90.000000) translate(-2.000000, -3.171875) translate(-0.500000, 1.171875)">
                <polygon id="Fill-22" transform="translate(2.148438, 2.792969) rotate(-180.000000) translate(-2.148438, -2.792969) " points="2.1484375 1.71875 1.42108547e-14 3.8671875 4.296875 3.8671875"></polygon>
                <polygon id="Fill-21" transform="translate(2.148438, 1.503906) rotate(-180.000000) translate(-2.148438, -1.503906) " points="1.6484375 2.79296875 2.6484375 2.79296875 2.6484375 0.21484375 1.6484375 0.21484375"></polygon>
            </g>
            <g id="Group-2-Copy-2" transform="translate(2.000000, 8.409991) rotate(-90.000000) translate(-2.000000, -8.409991) translate(-0.500000, 6.409991)">
                <polygon id="Fill-22" transform="translate(2.148438, 2.792969) rotate(-180.000000) translate(-2.148438, -2.792969) " points="2.1484375 1.71875 1.42108547e-14 3.8671875 4.296875 3.8671875"></polygon>
                <polygon id="Fill-21" transform="translate(2.148438, 1.503906) rotate(-180.000000) translate(-2.148438, -1.503906) " points="1.6484375 2.79296875 2.6484375 2.79296875 2.6484375 0.21484375 1.6484375 0.21484375"></polygon>
            </g>
            <g id="Group-2-Copy-3" transform="translate(2.000000, 13.648108) rotate(-90.000000) translate(-2.000000, -13.648108) translate(-0.500000, 11.648108)">
                <polygon id="Fill-22" transform="translate(2.148438, 2.792969) rotate(-180.000000) translate(-2.148438, -2.792969) " points="2.1484375 1.71875 1.42108547e-14 3.8671875 4.296875 3.8671875"></polygon>
                <polygon id="Fill-21" transform="translate(2.148438, 1.503906) rotate(-180.000000) translate(-2.148438, -1.503906) " points="1.6484375 2.79296875 2.6484375 2.79296875 2.6484375 0.21484375 1.6484375 0.21484375"></polygon>
            </g>
        </g>
        <g id="Group-6" transform="translate(28.000000, 21.500000) rotate(-180.000000) translate(-28.000000, -21.500000) translate(26.000000, 13.000000)" fill="#F16464">
            <g id="Group-2-Copy" transform="translate(2.000000, 3.171875) rotate(-90.000000) translate(-2.000000, -3.171875) translate(-0.500000, 1.171875)">
                <polygon id="Fill-22" transform="translate(2.148438, 2.792969) rotate(-180.000000) translate(-2.148438, -2.792969) " points="2.1484375 1.71875 1.42108547e-14 3.8671875 4.296875 3.8671875"></polygon>
                <polygon id="Fill-21" transform="translate(2.171875, 1.503906) rotate(-180.000000) translate(-2.171875, -1.503906) " points="1.671875 2.79296875 2.671875 2.79296875 2.671875 0.21484375 1.671875 0.21484375"></polygon>
            </g>
            <g id="Group-2-Copy-2" transform="translate(2.000000, 8.409991) rotate(-90.000000) translate(-2.000000, -8.409991) translate(-0.500000, 6.409991)">
                <polygon id="Fill-22" transform="translate(2.148438, 2.792969) rotate(-180.000000) translate(-2.148438, -2.792969) " points="2.1484375 1.71875 1.42108547e-14 3.8671875 4.296875 3.8671875"></polygon>
                <polygon id="Fill-21" transform="translate(2.148438, 1.503906) rotate(-180.000000) translate(-2.148438, -1.503906) " points="1.6484375 2.79296875 2.6484375 2.79296875 2.6484375 0.21484375 1.6484375 0.21484375"></polygon>
            </g>
            <g id="Group-2-Copy-3" transform="translate(2.000000, 13.648108) rotate(-90.000000) translate(-2.000000, -13.648108) translate(-0.500000, 11.648108)">
                <polygon id="Fill-22" transform="translate(2.148438, 2.792969) rotate(-180.000000) translate(-2.148438, -2.792969) " points="2.1484375 1.71875 1.42108547e-14 3.8671875 4.296875 3.8671875"></polygon>
                <polygon id="Fill-21" transform="translate(2.148438, 1.503906) rotate(-180.000000) translate(-2.148438, -1.503906) " points="1.64860234 2.79296875 2.64827266 2.79296875 2.64827266 0.21484375 1.64860234 0.21484375"></polygon>
            </g>
        </g>
    </g>
</svg>