<?xml version="1.0" encoding="UTF-8"?>
<svg width="16px" height="16px" viewBox="0 0 16 16" version="1.1" xmlns="http://www.w3.org/2000/svg" xmlns:xlink="http://www.w3.org/1999/xlink">
    <title>ml_family_group_16x16</title>
    <g id="ml_family_group_16x16" stroke="none" stroke-width="1" fill="none" fill-rule="evenodd">
        <path d="M2.5,7 L2.5,6.25 C2.5,5.83578644 2.83578644,5.5 3.25,5.5 L8.5,5.5 C9.05228475,5.5 9.5,5.94771525 9.5,6.5 L9.5,13.5 C9.5,14.0522847 9.05228475,14.5 8.5,14.5 L3.25,14.5 C2.83578644,14.5 2.5,14.1642136 2.5,13.75 L2.5,13 L2.5,7 Z" id="Line-12" stroke="#0077BE" stroke-linecap="square"></path>
        <rect id="Rectangle" fill="#0077BE" x="4" y="8" width="4" height="1" rx="0.5"></rect>
        <rect id="Rectangle" fill="#0077BE" x="4" y="11" width="4" height="1" rx="0.5"></rect>
        <rect id="Rectangle" fill="#0077BE" x="1" y="7" width="2" height="1" rx="0.5"></rect>
        <rect id="Rectangle" fill="#0077BE" x="1" y="9.5" width="2" height="1" rx="0.5"></rect>
        <rect id="Rectangle" fill="#0077BE" x="1" y="12" width="2" height="1" rx="0.5"></rect>
        <path d="M5.5,3 L5.5,2.5 C5.5,1.94771525 5.94771525,1.5 6.5,1.5 L12.5,1.5 C13.0522847,1.5 13.5,1.94771525 13.5,2.5 L13.5,10 C13.5,10.5522847 13.0522847,11 12.5,11 L12,11 L12,11" id="Line-15" stroke="#0077BE" stroke-linecap="square"></path>
    </g>
</svg>