<?xml version="1.0" encoding="UTF-8"?>
<svg width="32px" height="32px" viewBox="0 0 32 32" version="1.1" xmlns="http://www.w3.org/2000/svg" xmlns:xlink="http://www.w3.org/1999/xlink">
    <title>mud_salinity_and_resistivity_32x32</title>
    <defs>
        <linearGradient x1="50%" y1="-12.7844993%" x2="50%" y2="100%" id="linearGradient-1">
            <stop stop-color="#00ACFF" stop-opacity="0" offset="0%"></stop>
            <stop stop-color="#6EC5F9" stop-opacity="0.673601676" offset="49.9796785%"></stop>
            <stop stop-color="#0077BE" offset="100%"></stop>
        </linearGradient>
        <linearGradient x1="25.5187587%" y1="72.2261271%" x2="117.376099%" y2="15.0073235%" id="linearGradient-2">
            <stop stop-color="#F16464" offset="0%"></stop>
            <stop stop-color="#F79494" offset="54.49984%"></stop>
            <stop stop-color="#FFD3D3" offset="100%"></stop>
        </linearGradient>
    </defs>
    <g id="mud_salinity_and_resistivity_32x32" stroke="none" stroke-width="1" fill="none" fill-rule="evenodd">
        <path d="M18.9899509,20.5008289 C19.2935487,21.9151176 19.3600288,22.9406798 19.1893914,23.5775154 C18.4509188,26.3335683 16.9838558,27.9707231 16.3682031,28.5026889 C13.3806195,31.0841645 10.0366333,30.6638261 8.19188322,29.6842253 C4.82199034,27.8947418 3.24093813,25.1230826 3.44872661,21.3692479 C4.77442013,19.9647204 6.29151126,19.2624566 8,19.2624566 C11.7149412,19.2624566 11.7149412,22.007867 14.9862215,22.0003 C16.0070654,21.9979386 17.3416419,21.4981149 18.9899509,20.5008289 Z" id="Rectangle-7" fill="url(#linearGradient-1)"></path>
        <path d="M3.35386133,22.6924149 C3.35386133,20.3646454 4.36650684,18.2604469 5.98410942,16.8269617 C6.37864663,16.458727 6.82578881,16.129946 7.29923347,15.8669212 L7.29923347,2.5 C7.29923347,1.94771525 7.74694872,1.5 8.29923347,1.5 L14.1899777,1.5 C14.7422625,1.5 15.1899777,1.94771525 15.1899777,2.5 L15.1899777,15.8669212 L15.1899777,15.8669212 C15.6634224,16.129946 16.1105646,16.458727 16.5051018,16.8269617 C18.1227044,18.2604469 19.1353499,20.3646454 19.1353499,22.6924149 C19.1353499,27.0454755 15.5976662,30.5831592 11.2446056,30.5831592 C6.89154501,30.5831592 3.35386133,27.0454755 3.35386133,22.6924149 Z" id="Path" stroke="#0077BE"></path>
        <g id="Group-2" transform="translate(11.500000, 4.000000)">
            <g id="Group" fill="url(#linearGradient-2)" stroke="#FFFFFF">
                <rect id="Rectangle-Copy-7" x="-0.5" y="-0.5" width="19" height="14" rx="2"></rect>
            </g>
            <path d="M5.91153342,6.5 C6.4008325,6.5 6.78789722,6.38844733 7.07273919,6.16533865 C7.35758115,5.94222996 7.5,5.53984355 7.5,4.95816733 C7.5,4.3326662 7.30078836,3.90637564 6.90235911,3.67928287 C6.68916451,3.55976036 6.40432682,3.5 6.04783748,3.5 L3.5,3.5 L3.5,6.5 L5.91153342,6.5 Z M2.5,2.5 L5.8442623,2.5 C6.39508472,2.5 6.84917854,2.58894851 7.20655738,2.7668482 C7.8852493,3.10812515 8.22459016,3.73802581 8.22459016,4.65656909 C8.22459016,5.13580907 8.1352468,5.52790862 7.95655738,5.83287951 C7.77786796,6.1378504 7.52787046,6.38291262 7.20655738,6.56807352 C7.488526,6.69514472 7.70081896,6.86215009 7.84344262,7.06909462 C7.98606629,7.27603916 8.06557369,7.61186516 8.08196721,8.07658271 L8.11639344,9.14942138 C8.12622956,9.45439227 8.14918015,9.68130173 8.1852459,9.83015657 C8.24426259,10.084299 8.34917957,10.2476738 8.5,10.3202859 L8.5,10.5 L7.3,10.5 C7.26721295,10.4310185 7.2409837,10.34207 7.22131148,10.2331518 C7.20163925,10.1242336 7.18524597,9.91366165 7.17213115,9.60142954 L7.11311475,8.26718856 C7.09016382,7.74438132 6.91475574,7.39403311 6.58688525,7.21613342 C6.39999907,7.11810707 6.10655938,7.06909462 5.70655738,7.06909462 L3.47868852,7.06909462 L3.47868852,10.5 L2.5,10.5 L2.5,2.5 Z M10.4584007,7.82989025 C10.4823108,8.2602776 10.5830735,8.60974688 10.7606917,8.87830859 C11.0988494,9.38100101 11.6948862,9.63234345 12.5488199,9.63234345 C12.9313822,9.63234345 13.2797819,9.57725469 13.5940295,9.46707553 C14.2020303,9.25360341 14.5060261,8.87142518 14.5060261,8.32052937 C14.5060261,7.90735752 14.377938,7.61297699 14.1217579,7.43737895 C13.8621621,7.26522402 13.4556957,7.11545147 12.9023467,6.98805681 L11.882755,6.75564881 C11.2166867,6.60415246 10.7453223,6.43716467 10.4686478,6.25468044 C9.99044495,5.93791535 9.75134711,5.46449637 9.75134711,4.8344093 C9.75134711,4.15267574 9.98532143,3.59318058 10.4532771,3.15590704 C10.9212328,2.71863349 11.5838754,2.5 12.4412248,2.5 C13.2302595,2.5 13.9005874,2.69194988 14.4522286,3.07585539 C15.0038698,3.4597609 15.2796862,4.07348405 15.2796862,4.91704325 L14.3215774,4.91704325 C14.2703414,4.5107576 14.1610395,4.19916183 13.9936685,3.98224661 C13.6828366,3.58629025 13.1551135,3.38831504 12.4104833,3.38831504 C11.809314,3.38831504 11.37723,3.51570779 11.1142185,3.77049709 C10.8512069,4.0252864 10.7197031,4.32138846 10.7197031,4.65881214 C10.7197031,5.0306668 10.8734088,5.30266753 11.180825,5.47482247 C11.3823533,5.58500163 11.8383471,5.72272351 12.5488199,5.88799225 L13.6042767,6.1307295 C14.1132212,6.24779486 14.5060248,6.40789655 14.7826993,6.61103938 C15.2609022,6.96567855 15.5,7.4804141 15.5,8.15526146 C15.5,8.99537756 15.1968581,9.59618928 14.5905652,9.95771465 C13.9842722,10.31924 13.2797875,10.5 12.4770898,10.5 C11.5411785,10.5 10.8085144,10.2589867 10.2790755,9.77695287 C9.7496366,9.29836214 9.49004465,8.64934776 9.50029185,7.82989025 L10.4584007,7.82989025 Z" id="RS" fill="#FFFFFF" fill-rule="nonzero"></path>
        </g>
    </g>
</svg>