<?xml version="1.0" encoding="UTF-8"?>
<svg width="32px" height="32px" viewBox="0 0 32 32" version="1.1" xmlns="http://www.w3.org/2000/svg" xmlns:xlink="http://www.w3.org/1999/xlink">
    <title>multilinerregression_32x32</title>
    <defs>
        <linearGradient x1="50%" y1="3.49530347%" x2="50%" y2="100%" id="linearGradient-1">
            <stop stop-color="#1AAAFF" offset="0%"></stop>
            <stop stop-color="#0077BE" offset="100%"></stop>
        </linearGradient>
        <linearGradient x1="25.5187587%" y1="92.6110365%" x2="76.7029485%" y2="8.20085208%" id="linearGradient-2">
            <stop stop-color="#F16464" offset="0%"></stop>
            <stop stop-color="#F79494" offset="54.49984%"></stop>
            <stop stop-color="#FFD3D3" offset="100%"></stop>
        </linearGradient>
        <linearGradient x1="25.5187587%" y1="92.6110365%" x2="93.2424503%" y2="9.07195215%" id="linearGradient-3">
            <stop stop-color="#F16464" offset="0%"></stop>
            <stop stop-color="#F79494" offset="54.49984%"></stop>
            <stop stop-color="#FFD3D3" offset="100%"></stop>
        </linearGradient>
    </defs>
    <g id="multilinerregression_32x32" stroke="none" stroke-width="1" fill="none" fill-rule="evenodd">
        <polygon id="Fill-1" fill="#0477BD" points="2 28 3 28 3 2.5 2 2.5"></polygon>
        <path d="M14.5,31.9772492 L15.5,31.9772492 L15.5,-1.47724919 C15.5,-1.75339156 15.2761424,-1.97724919 15,-1.97724919 C14.7238576,-1.97724919 14.5,-1.75339156 14.5,-1.47724919 L14.5,31.9772492 L14.5,31.9772492 Z" id="Fill-1" fill="#F16464" transform="translate(15.000000, 15.000000) rotate(-315.000000) translate(-15.000000, -15.000000) "></path>
        <polygon id="Fill-1-Copy" fill="#0477BD" points="2 28 19 28 19 27 2 27"></polygon>
        <path d="M2,29 L3,29 C3.55228475,29 4,28.5522847 4,28 L4,27 C4,26.4477153 3.55228475,26 3,26 L2,26 C1.44771525,26 1,26.4477153 1,27 L1,28 C1,28.5522847 1.44771525,29 2,29 Z" id="Fill-1-Copy-2" fill="#0477BD"></path>
        <line x1="2.5" y1="2.5" x2="1.5" y2="3.5" id="Line" stroke="#0077BE" stroke-linecap="round"></line>
        <line x1="3.5" y1="2.5" x2="2.5" y2="3.5" id="Line" stroke="#0077BE" stroke-linecap="round" transform="translate(3.000000, 3.000000) rotate(-270.000000) translate(-3.000000, -3.000000) "></line>
        <line x1="1.76870651" y1="7.76870651" x2="1.76870651" y2="9.76870651" id="Line-Copy" stroke="#0077BE" stroke-linecap="round" transform="translate(2.268707, 9.000000) rotate(-270.000000) translate(-2.268707, -9.000000) "></line>
        <line x1="1.76870651" y1="12.2687065" x2="1.76870651" y2="14.2687065" id="Line-Copy" stroke="#0077BE" stroke-linecap="round" transform="translate(2.268707, 13.500000) rotate(-270.000000) translate(-2.268707, -13.500000) "></line>
        <line x1="1.76870651" y1="16.7687065" x2="1.76870651" y2="18.7687065" id="Line-Copy" stroke="#0077BE" stroke-linecap="round" transform="translate(2.268707, 18.000000) rotate(-270.000000) translate(-2.268707, -18.000000) "></line>
        <line x1="1.76870651" y1="21.7687065" x2="1.76870651" y2="23.7687065" id="Line-Copy" stroke="#0077BE" stroke-linecap="round" transform="translate(2.268707, 23.000000) rotate(-270.000000) translate(-2.268707, -23.000000) "></line>
        <line x1="7.5" y1="26.5" x2="7.5" y2="28.5" id="Line-2" stroke="#0077BE" stroke-linecap="round"></line>
        <g id="Group-2" transform="translate(5.500000, 2.000000)">
            <circle id="Oval-Copy-18" fill="url(#linearGradient-1)" cx="2" cy="10.403213" r="2"></circle>
            <circle id="Oval-Copy-25" fill="url(#linearGradient-1)" cx="11" cy="20" r="2"></circle>
            <circle id="Oval-Copy-19" fill="url(#linearGradient-2)" cx="8" cy="7.27855522" r="2"></circle>
            <circle id="Oval-Copy-20" fill="url(#linearGradient-2)" cx="20.5516738" cy="19" r="2"></circle>
            <circle id="Oval-Copy-24" fill="url(#linearGradient-2)" cx="17" cy="5.63713971" r="2"></circle>
            <circle id="Oval-Copy-21" fill="url(#linearGradient-1)" cx="3.5" cy="3" r="2"></circle>
            <circle id="Oval-Copy-27" fill="url(#linearGradient-1)" cx="12.5" cy="2" r="2"></circle>
            <circle id="Oval-Copy-26" fill="url(#linearGradient-1)" cx="18.5516738" cy="12" r="2"></circle>
            <circle id="Oval-Copy-22" fill="url(#linearGradient-1)" cx="9.53977781" cy="13" r="2"></circle>
            <circle id="Oval-Copy-23" fill="url(#linearGradient-2)" cx="3.5" cy="19" r="2"></circle>
        </g>
        <g id="Group" transform="translate(18.000000, 18.000000)">
            <g id="Group-4" fill="url(#linearGradient-3)" stroke="#FFFFFF">
                <circle id="Oval-2" cx="6.5" cy="6.5" r="7"></circle>
            </g>
            <rect id="Rectangle" fill="#FFFFFF" x="5.890625" y="2.84375" width="1.21875" height="7.3125" rx="0.609375"></rect>
            <rect id="Rectangle" fill="#FFFFFF" x="2.84375" y="5.890625" width="7.3125" height="1.21875" rx="0.609375"></rect>
        </g>
        <rect id="Rectangle-Copy-2" fill="#0077BE" x="13" y="26" width="1" height="3" rx="0.5"></rect>
    </g>
</svg>