<?xml version="1.0" encoding="UTF-8"?>
<svg width="16px" height="16px" viewBox="0 0 16 16" version="1.1" xmlns="http://www.w3.org/2000/svg" xmlns:xlink="http://www.w3.org/1999/xlink">
    <title>multilinerregression_16x16</title>
    <g id="multilinerregression_16x16" stroke="none" stroke-width="1" fill="none" fill-rule="evenodd">
        <path d="M7.35076338,17.8443655 L8.35076338,17.8443655 L8.35076338,-1.04589231 C8.35076338,-1.32203469 8.12690576,-1.54589231 7.85076338,-1.54589231 C7.57462101,-1.54589231 7.35076338,-1.32203469 7.35076338,-1.04589231 L7.35076338,17.8443655 L7.35076338,17.8443655 Z" id="Fill-1" fill="#F16464" transform="translate(7.850763, 8.149237) rotate(-315.000000) translate(-7.850763, -8.149237) "></path>
        <path d="M1,15.5 C1.27614237,15.5 1.5,15.2761424 1.5,15 L1.5,1 C1.5,0.723857625 1.27614237,0.5 1,0.5 C0.723857625,0.5 0.5,0.723857625 0.5,1 L0.5,15 C0.5,15.2761424 0.723857625,15.5 1,15.5 Z" id="Fill-7" fill="#0477BD"></path>
        <path d="M1,15.5 L15,15.5 C15.2761424,15.5 15.5,15.2761424 15.5,15 C15.5,14.7238576 15.2761424,14.5 15,14.5 L1,14.5 C0.723857625,14.5 0.5,14.7238576 0.5,15 C0.5,15.2761424 0.723857625,15.5 1,15.5 Z" id="Fill-2" fill="#0477BD"></path>
        <circle id="Oval" fill="#0077BE" cx="4" cy="12" r="1"></circle>
        <circle id="Oval-Copy" fill="#0077BE" cx="6" cy="9" r="1"></circle>
        <circle id="Oval-Copy-2" fill="#F16464" cx="8" cy="12" r="1"></circle>
        <circle id="Oval-Copy-3" fill="#0077BE" cx="10" cy="9" r="1"></circle>
        <circle id="Oval-Copy-4" fill="#0077BE" cx="4" cy="6" r="1"></circle>
        <circle id="Oval-Copy-5" fill="#F16464" cx="8" cy="5" r="1"></circle>
        <circle id="Oval-Copy-6" fill="#0077BE" cx="12" cy="6" r="1"></circle>
        <circle id="Oval-Copy-7" fill="#F16464" cx="14" cy="9" r="1"></circle>
        <circle id="Oval-Copy-8" fill="#0077BE" cx="11" cy="2" r="1"></circle>
        <circle id="Oval-Copy-9" fill="#0077BE" cx="14" cy="3" r="1"></circle>
    </g>
</svg>