<?xml version="1.0" encoding="UTF-8"?>
<svg width="16px" height="16px" viewBox="0 0 16 16" version="1.1" xmlns="http://www.w3.org/2000/svg" xmlns:xlink="http://www.w3.org/1999/xlink">
    <title>multi_histogram_16x16</title>
    <defs>
        <linearGradient x1="50%" y1="3.49530347%" x2="50%" y2="100%" id="linearGradient-1">
            <stop stop-color="#1AAAFF" offset="0%"></stop>
            <stop stop-color="#0077BE" offset="100%"></stop>
        </linearGradient>
        <linearGradient x1="50%" y1="3.49530347%" x2="50%" y2="70.3087224%" id="linearGradient-2">
            <stop stop-color="#1AAAFF" offset="0%"></stop>
            <stop stop-color="#0077BE" offset="100%"></stop>
        </linearGradient>
        <linearGradient x1="50%" y1="3.49530347%" x2="50%" y2="100%" id="linearGradient-3">
            <stop stop-color="#1AAAFF" offset="0%"></stop>
            <stop stop-color="#0077BE" offset="100%"></stop>
        </linearGradient>
        <linearGradient x1="50.0086407%" y1="94.1913173%" x2="50%" y2="0%" id="linearGradient-4">
            <stop stop-color="#F16464" offset="0%"></stop>
            <stop stop-color="#F79494" offset="54.49984%"></stop>
            <stop stop-color="#FFD3D3" offset="100%"></stop>
        </linearGradient>
        <linearGradient x1="50%" y1="3.49530347%" x2="50%" y2="100%" id="linearGradient-5">
            <stop stop-color="#1AAAFF" offset="0%"></stop>
            <stop stop-color="#0077BE" offset="100%"></stop>
        </linearGradient>
    </defs>
    <g id="multi_histogram_16x16" stroke="none" stroke-width="1" fill="none" fill-rule="evenodd">
        <g id="Group-2">
            <rect id="Rectangle-7-Copy" stroke="url(#linearGradient-1)" x="5.5" y="0.5" width="5" height="3" rx="1"></rect>
            <rect id="Rectangle-7-Copy-2" stroke="url(#linearGradient-1)" x="10.5" y="0.5" width="5" height="3" rx="1"></rect>
            <path d="M15.5,3.5 L15.5,15 L1,15.5 L0.5,3.5 L15.5,3.5 Z" id="Rectangle-7-Copy-10" stroke="#0077BE"></path>
            <rect id="Rectangle-7-Copy" fill="url(#linearGradient-2)" x="0" y="0" width="6" height="4" rx="1"></rect>
        </g>
        <path d="M3.5,14 L4.5,14 C5.05228475,14 5.5,13.5522847 5.5,13 L5.5,9 C5.5,8.44771525 5.05228475,8 4.5,8 L3.5,8 C2.94771525,8 2.5,8.44771525 2.5,9 L2.5,13 C2.5,13.5522847 2.94771525,14 3.5,14 Z" id="Fill-2" fill="url(#linearGradient-3)"></path>
        <path d="M7.5,14 L8.5,14 C9.05228475,14 9.5,13.5522847 9.5,13 L9.5,7 C9.5,6.44771525 9.05228475,6 8.5,6 L7.5,6 C6.94771525,6 6.5,6.44771525 6.5,7 L6.5,13 C6.5,13.5522847 6.94771525,14 7.5,14 Z" id="Fill-3" fill="url(#linearGradient-4)"></path>
        <path d="M11.5,14 L12.5,14 C13.0522847,14 13.5,13.5522847 13.5,13 L13.5,11 C13.5,10.4477153 13.0522847,10 12.5,10 L11.5,10 C10.9477153,10 10.5,10.4477153 10.5,11 L10.5,13 C10.5,13.5522847 10.9477153,14 11.5,14 Z" id="Fill-4" fill="url(#linearGradient-5)"></path>
    </g>
</svg>