<?xml version="1.0" encoding="UTF-8"?>
<svg width="16px" height="16px" viewBox="0 0 16 16" version="1.1" xmlns="http://www.w3.org/2000/svg" xmlns:xlink="http://www.w3.org/1999/xlink">
    <title>neutron_gramma_16x16</title>
    <defs>
        <linearGradient x1="50%" y1="3.49530347%" x2="50%" y2="100%" id="linearGradient-1">
            <stop stop-color="#1AAAFF" offset="0%"></stop>
            <stop stop-color="#0077BE" offset="100%"></stop>
        </linearGradient>
        <linearGradient x1="25.5187587%" y1="92.6110365%" x2="76.7029485%" y2="8.20085208%" id="linearGradient-2">
            <stop stop-color="#F16464" offset="0%"></stop>
            <stop stop-color="#F79494" offset="54.49984%"></stop>
            <stop stop-color="#FFD3D3" offset="100%"></stop>
        </linearGradient>
        <linearGradient x1="25.5187587%" y1="63.9138078%" x2="103.462337%" y2="26.9648261%" id="linearGradient-3">
            <stop stop-color="#F16464" offset="0%"></stop>
            <stop stop-color="#F79494" offset="54.49984%"></stop>
            <stop stop-color="#FFD3D3" offset="100%"></stop>
        </linearGradient>
    </defs>
    <g id="neutron_gramma_16x16" stroke="none" stroke-width="1" fill="none" fill-rule="evenodd">
        <g id="Group" transform="translate(0.000000, -0.084609)">
            <circle id="Oval-Copy-21" fill="url(#linearGradient-1)" cx="3" cy="13" r="1"></circle>
            <circle id="Oval-Copy-22" fill="url(#linearGradient-1)" cx="8" cy="12" r="1"></circle>
            <circle id="Oval-Copy-23" fill="url(#linearGradient-2)" cx="5" cy="10" r="1"></circle>
            <circle id="Oval-Copy-26" fill="url(#linearGradient-1)" cx="12.0641416" cy="9.97894941" r="1"></circle>
            <circle id="Oval-Copy-24" fill="url(#linearGradient-2)" cx="12" cy="13" r="1"></circle>
            <circle id="Oval-Copy-25" fill="#0077BE" cx="3" cy="5" r="1"></circle>
            <polygon id="Fill-1" fill="#0477BD" points="0 16 1 16 1 0 0 0"></polygon>
            <polygon id="Fill-2" fill="#0477BD" points="1 16 16 16 16 15 1 15"></polygon>
        </g>
        <rect id="Rectangle-Copy-7" fill="url(#linearGradient-3)" x="2" y="-0.0846086241" width="14" height="8" rx="2"></rect>
        <path d="M4.29882118,1.47900391 L5.10204384,1.47900391 L7.63817665,5.54638672 L7.63817665,1.47900391 L8.28417274,1.47900391 L8.28417274,6.5 L7.52196571,6.5 L4.94823524,2.43603516 L4.94823524,6.5 L4.29882118,6.5 L4.29882118,1.47900391 Z M11.5244071,1.34912109 C11.9960892,1.34912109 12.4039627,1.44026602 12.7480399,1.62255859 C13.2470659,1.88460417 13.5524014,2.34374672 13.6640556,3 L12.9907157,3 C12.9086841,2.63313619 12.7389266,2.36596763 12.4814384,2.19848633 C12.2239501,2.03100502 11.8992463,1.94726562 11.5073173,1.94726562 C11.0424712,1.94726562 10.6511177,2.12158029 10.333245,2.47021484 C10.0153723,2.8188494 9.85643837,3.33837545 9.85643837,4.02880859 C9.85643837,4.62581679 9.98745919,5.11173315 10.2495048,5.48657227 C10.5115504,5.86141138 10.9387922,6.04882812 11.5312431,6.04882812 C11.9846958,6.04882812 12.360099,5.91723764 12.6574638,5.65405273 C12.9548285,5.39086782 13.1069266,4.96533497 13.1137626,4.37744141 L11.541497,4.37744141 L11.541497,3.81347656 L13.7460868,3.81347656 L13.7460868,6.5 L13.3085868,6.5 L13.1445243,5.85400391 C12.9143799,6.10693486 12.7104432,6.28238883 12.5327079,6.38037109 C12.2342038,6.54899173 11.8548131,6.63330078 11.3945243,6.63330078 C10.7997948,6.63330078 10.2882439,6.44075713 9.85985634,6.05566406 C9.39273161,5.57258873 9.15917274,4.90950942 9.15917274,4.06640625 C9.15917274,3.22558173 9.38703505,2.55680587 9.84276649,2.06005859 C10.2757114,1.58609789 10.8362526,1.34912109 11.5244071,1.34912109 Z" id="NG" fill="#FFFFFF" fill-rule="nonzero"></path>
    </g>
</svg>