<?xml version="1.0" encoding="UTF-8"?>
<svg width="16px" height="16px" viewBox="0 0 16 16" version="1.1" xmlns="http://www.w3.org/2000/svg" xmlns:xlink="http://www.w3.org/1999/xlink">
    <title>neutron_sonic_16x16</title>
    <defs>
        <linearGradient x1="50%" y1="3.49530347%" x2="50%" y2="100%" id="linearGradient-1">
            <stop stop-color="#1AAAFF" offset="0%"></stop>
            <stop stop-color="#0077BE" offset="100%"></stop>
        </linearGradient>
        <linearGradient x1="25.5187587%" y1="92.6110365%" x2="76.7029485%" y2="8.20085208%" id="linearGradient-2">
            <stop stop-color="#F16464" offset="0%"></stop>
            <stop stop-color="#F79494" offset="54.49984%"></stop>
            <stop stop-color="#FFD3D3" offset="100%"></stop>
        </linearGradient>
        <linearGradient x1="25.5187587%" y1="63.9138078%" x2="103.462337%" y2="26.9648261%" id="linearGradient-3">
            <stop stop-color="#F16464" offset="0%"></stop>
            <stop stop-color="#F79494" offset="54.49984%"></stop>
            <stop stop-color="#FFD3D3" offset="100%"></stop>
        </linearGradient>
    </defs>
    <g id="neutron_sonic_16x16" stroke="none" stroke-width="1" fill="none" fill-rule="evenodd">
        <g id="Group">
            <circle id="Oval-Copy-21" fill="url(#linearGradient-1)" cx="3" cy="13" r="1"></circle>
            <circle id="Oval-Copy-22" fill="url(#linearGradient-1)" cx="8" cy="12" r="1"></circle>
            <circle id="Oval-Copy-23" fill="url(#linearGradient-2)" cx="5" cy="10" r="1"></circle>
            <circle id="Oval-Copy-26" fill="url(#linearGradient-1)" cx="12.0641416" cy="9.97894941" r="1"></circle>
            <circle id="Oval-Copy-24" fill="url(#linearGradient-2)" cx="12" cy="13" r="1"></circle>
            <circle id="Oval-Copy-25" fill="#0077BE" cx="3" cy="5" r="1"></circle>
            <polygon id="Fill-1" fill="#0477BD" points="0 16 1 16 1 0 0 0"></polygon>
            <polygon id="Fill-2" fill="#0477BD" points="1 16 16 16 16 15 1 15"></polygon>
        </g>
        <rect id="Rectangle-Copy-7" fill="url(#linearGradient-3)" x="2" y="0" width="14" height="8" rx="2"></rect>
        <path d="M4.57470009,1.47900391 L5.37792274,1.47900391 L7.91405556,5.54638672 L7.91405556,1.47900391 L8.56005165,1.47900391 L8.56005165,6.5 L7.79784462,6.5 L5.22411415,2.43603516 L5.22411415,6.5 L4.57470009,6.5 L4.57470009,1.47900391 Z M10.0742118,4.87988281 C10.0901624,5.16471497 10.1573818,5.39599521 10.275872,5.57373047 C10.501459,5.90641442 10.8990787,6.07275391 11.4687431,6.07275391 C11.7239527,6.07275391 11.9563722,6.03629594 12.1660087,5.96337891 C12.5716097,5.82210216 12.7744071,5.569175 12.7744071,5.20458984 C12.7744071,4.93115098 12.6889588,4.73632871 12.5180595,4.62011719 C12.3448815,4.50618433 12.0737254,4.40706422 11.7045829,4.32275391 L11.0244071,4.16894531 C10.580069,4.06868439 10.265619,3.95817118 10.0810477,3.83740234 C9.76203573,3.62776588 9.60253212,3.31445521 9.60253212,2.89746094 C9.60253212,2.44628681 9.7586178,2.07601056 10.0707938,1.78662109 C10.3829699,1.49723163 10.8250227,1.35253906 11.3969657,1.35253906 C11.9233355,1.35253906 12.3705153,1.4795723 12.7385184,1.73364258 C13.1065216,1.98771286 13.2905204,2.39387742 13.2905204,2.95214844 L12.6513602,2.95214844 C12.6171804,2.68326688 12.5442644,2.4770515 12.4326102,2.33349609 C12.2252524,2.07145051 11.8732052,1.94042969 11.3764579,1.94042969 C10.9754142,1.94042969 10.6871684,2.02473874 10.5117118,2.19335938 C10.3362552,2.36198001 10.2485282,2.55794159 10.2485282,2.78125 C10.2485282,3.02734498 10.3510662,3.2073562 10.5561454,3.32128906 C10.6905862,3.39420609 10.9947824,3.48535102 11.4687431,3.59472656 L12.1728446,3.75537109 C12.5123645,3.83284544 12.7744062,3.93880141 12.9589774,4.07324219 C13.2779894,4.30794388 13.4374931,4.64859803 13.4374931,5.09521484 C13.4374931,5.65120721 13.2352653,6.04882693 12.8308036,6.28808594 C12.4263419,6.52734495 11.9563759,6.64697266 11.4208915,6.64697266 C10.7965394,6.64697266 10.3077748,6.48746904 9.9545829,6.16845703 C9.60139103,5.85172368 9.42821568,5.42220323 9.43505165,4.87988281 L10.0742118,4.87988281 Z" id="NS" fill="#FFFFFF" fill-rule="nonzero"></path>
    </g>
</svg>