<?xml version="1.0" encoding="UTF-8"?>
<svg width="32px" height="32px" viewBox="0 0 32 32" version="1.1" xmlns="http://www.w3.org/2000/svg" xmlns:xlink="http://www.w3.org/1999/xlink">
    <title>new_project_wi_python_32x32</title>
    <defs>
        <linearGradient x1="50%" y1="3.49530347%" x2="50%" y2="582.132346%" id="linearGradient-1">
            <stop stop-color="#1AAAFF" offset="0%"></stop>
            <stop stop-color="#0077BE" offset="100%"></stop>
        </linearGradient>
        <linearGradient x1="50%" y1="-19.7877253%" x2="50%" y2="100%" id="linearGradient-2">
            <stop stop-color="#1AAAFF" offset="0%"></stop>
            <stop stop-color="#0077BE" offset="100%"></stop>
        </linearGradient>
        <linearGradient x1="74.7960273%" y1="-13.8786952%" x2="50%" y2="100%" id="linearGradient-3">
            <stop stop-color="#1AFF68" offset="0%"></stop>
            <stop stop-color="#15BE00" offset="100%"></stop>
        </linearGradient>
        <linearGradient x1="50%" y1="3.49530347%" x2="50%" y2="100%" id="linearGradient-4">
            <stop stop-color="#1AAAFF" offset="0%"></stop>
            <stop stop-color="#0077BE" offset="100%"></stop>
        </linearGradient>
        <linearGradient x1="50%" y1="3.49530347%" x2="50%" y2="100%" id="linearGradient-5">
            <stop stop-color="#1AAAFF" offset="0%"></stop>
            <stop stop-color="#0077BE" offset="100%"></stop>
        </linearGradient>
        <linearGradient x1="50%" y1="3.49530347%" x2="50%" y2="100%" id="linearGradient-6">
            <stop stop-color="#1AAAFF" offset="0%"></stop>
            <stop stop-color="#0077BE" offset="100%"></stop>
        </linearGradient>
    </defs>
    <g id="new_project_wi_python_32x32" stroke="none" stroke-width="1" fill="none" fill-rule="evenodd">
        <g id="Group-2" transform="translate(1.000000, 4.000000)">
            <path d="M2,0 L17,0 C18.1045695,-2.02906125e-16 19,0.8954305 19,2 L19,4 L19,4 L0,4 L0,2 C-1.3527075e-16,0.8954305 0.8954305,2.02906125e-16 2,0 Z" id="Rectangle-7" fill="url(#linearGradient-1)"></path>
            <path d="M24,4.5 C24.4142136,4.5 24.7892136,4.66789322 25.0606602,4.93933983 C25.3321068,5.21078644 25.5,5.58578644 25.5,6 L25.5,6 L25.5,22 C25.5,22.4142136 25.3321068,22.7892136 25.0606602,23.0606602 C24.7892136,23.3321068 24.4142136,23.5 24,23.5 L24,23.5 L2,23.5 C1.58578644,23.5 1.21078644,23.3321068 0.939339828,23.0606602 C0.667893219,22.7892136 0.5,22.4142136 0.5,22 L0.5,22 L0.5,4.5 Z" id="Rectangle-7-Copy-7" stroke="url(#linearGradient-2)"></path>
        </g>
        <g id="Group" transform="translate(19.500000, 12.500000)">
            <circle id="Oval-Copy" stroke="#FFFFFF" fill="url(#linearGradient-3)" cx="6" cy="6" r="6"></circle>
            <rect id="Rectangle-Copy-4" fill="#FFFFFF" x="3.25" y="5.5" width="5.5" height="1" rx="0.5"></rect>
            <rect id="Rectangle-Copy-4" fill="#FFFFFF" transform="translate(6.000000, 6.000000) rotate(-270.000000) translate(-6.000000, -6.000000) " x="3.25" y="5.5" width="5.5" height="1" rx="0.5"></rect>
        </g>
        <path d="" id="Path-5" stroke="#979797"></path>
        <rect id="Rectangle" fill="url(#linearGradient-4)" x="6" y="13" width="11" height="1" rx="0.5"></rect>
        <rect id="Rectangle-Copy" fill="url(#linearGradient-5)" x="6" y="18" width="7" height="1" rx="0.5"></rect>
        <rect id="Rectangle-Copy-2" fill="url(#linearGradient-6)" x="6" y="23" width="4" height="1" rx="0.5"></rect>
    </g>
</svg>