<?xml version="1.0" encoding="UTF-8"?>
<svg width="16px" height="16px" viewBox="0 0 16 16" version="1.1" xmlns="http://www.w3.org/2000/svg" xmlns:xlink="http://www.w3.org/1999/xlink">
    <title>normalized_qv_16x16</title>
    <g id="normalized_qv_16x16" stroke="none" stroke-width="1" fill="none" fill-rule="evenodd">
        <rect id="Rectangle-7-Copy-7" stroke="#0077BE" x="0.5" y="3.5" width="15" height="9" rx="2"></rect>
        <path d="M6.54296875,11 L5.37109375,11 L3.08984375,7.2578125 L3.08984375,11 L1.91796875,11 L1.91796875,5.3125 L3.08984375,5.3125 L5.375,9.0625 L5.375,5.3125 L6.54296875,5.3125 L6.54296875,11 Z M7.31640625,8.84765625 C7.31640625,8.42838332 7.39713461,8.05468914 7.55859375,7.7265625 C7.72005289,7.39843586 7.95247244,7.14453215 8.25585938,6.96484375 C8.55924631,6.78515535 8.91145633,6.6953125 9.3125,6.6953125 C9.88281535,6.6953125 10.3483055,6.86978992 10.7089844,7.21875 C11.0696633,7.56771008 11.2708331,8.04166367 11.3125,8.640625 L11.3203125,8.9296875 C11.3203125,9.57812824 11.1393247,10.0983053 10.7773438,10.4902344 C10.4153628,10.8821634 9.92969055,11.078125 9.3203125,11.078125 C8.71093445,11.078125 8.22461119,10.8828145 7.86132812,10.4921875 C7.49804506,10.1015605 7.31640625,9.57031586 7.31640625,8.8984375 L7.31640625,8.84765625 Z M8.4453125,8.9296875 C8.4453125,9.33073117 8.52083258,9.63736873 8.671875,9.84960938 C8.82291742,10.06185 9.03906109,10.1679688 9.3203125,10.1679688 C9.59375137,10.1679688 9.8072909,10.0631521 9.9609375,9.85351562 C10.1145841,9.64387916 10.1914062,9.30859605 10.1914062,8.84765625 C10.1914062,8.45442512 10.1145841,8.14974066 9.9609375,7.93359375 C9.8072909,7.71744684 9.59114723,7.609375 9.3125,7.609375 C9.03645695,7.609375 8.82291742,7.7167958 8.671875,7.93164062 C8.52083258,8.14648545 8.4453125,8.47916441 8.4453125,8.9296875 Z M14.390625,7.83203125 C14.2369784,7.81119781 14.1015631,7.80078125 13.984375,7.80078125 C13.5572895,7.80078125 13.2773444,7.94531105 13.1445312,8.234375 L13.1445312,11 L12.015625,11 L12.015625,6.7734375 L13.0820312,6.7734375 L13.1132812,7.27734375 C13.3398449,6.88932098 13.6536438,6.6953125 14.0546875,6.6953125 C14.1796881,6.6953125 14.2968745,6.71223941 14.40625,6.74609375 L14.390625,7.83203125 Z" id="Nor" fill="#0077BE" fill-rule="nonzero"></path>
    </g>
</svg>