<?xml version="1.0" encoding="UTF-8"?>
<svg width="32px" height="32px" viewBox="0 0 32 32" version="1.1" xmlns="http://www.w3.org/2000/svg" xmlns:xlink="http://www.w3.org/1999/xlink">
    <title>open_logplot_template_32x32</title>
    <defs>
        <linearGradient x1="25.5187587%" y1="92.6110365%" x2="76.7029485%" y2="8.20085208%" id="linearGradient-1">
            <stop stop-color="#F16464" offset="0%"></stop>
            <stop stop-color="#F79494" offset="54.49984%"></stop>
            <stop stop-color="#FFD3D3" offset="100%"></stop>
        </linearGradient>
        <linearGradient x1="90.7203909%" y1="12.7386583%" x2="29.753638%" y2="84.4775244%" id="linearGradient-2">
            <stop stop-color="#1AAAFF" offset="0%"></stop>
            <stop stop-color="#0077BE" offset="100%"></stop>
        </linearGradient>
        <linearGradient x1="50%" y1="3.49530347%" x2="50%" y2="100%" id="linearGradient-3">
            <stop stop-color="#1AAAFF" offset="0%"></stop>
            <stop stop-color="#0077BE" offset="100%"></stop>
        </linearGradient>
    </defs>
    <g id="open_logplot_template_32x32" stroke="none" stroke-width="1" fill="none" fill-rule="evenodd">
        <circle id="Oval" fill="url(#linearGradient-1)" cx="5.5" cy="6.5" r="2.5"></circle>
        <circle id="Oval-Copy" fill="url(#linearGradient-2)" cx="5.5" cy="15.5" r="2.5"></circle>
        <circle id="Oval-Copy-2" fill="url(#linearGradient-2)" cx="5.5" cy="24.5" r="2.5"></circle>
        <g id="Group-2" transform="translate(9.500000, 5.000000)">
            <path d="M19,1 L19,21 C19,21.4142136 18.8321068,21.7892136 18.5606602,22.0606602 C18.2892136,22.3321068 17.9142136,22.5 17.5,22.5 L17.5,22.5 L2.5,22.5 C2.08578644,22.5 1.71078644,22.3321068 1.43933983,22.0606602 C1.16789322,21.7892136 1,21.4142136 1,21 L1,21 L1,1 L19,1 Z" id="Rectangle-7-Copy-7" stroke="#0077BE"></path>
            <g id="Group" transform="translate(3.041315, 1.000000)" fill="#0377BE">
                <g id="Untitled-1" transform="translate(0.463444, 0.500000)">
                    <path d="M3.3,4.4 C3.7,4.8 4,5.3 4,5.9 L4,6 L3,6 C3,6 3,5.9 3,5.9 C3,5.4 2.5,4.9 2,4.9 C1.5,4.9 1,4.7 0.7,4.4 C0.3,4 0,3.5 0,2.9 C0,2.3 0.3,1.8 0.7,1.4 C1,1.1 1.5,0.9 2,0.9 C2.5,0.9 3,0.4 3,0 L4,0 C4,0.6 3.7,1.1 3.3,1.4 C3,1.7 2.5,1.9 2,1.9 C1.5,1.9 1,2.4 1,2.9 C1,3.4 1.5,3.9 2,3.9 C2.5,3.9 3,4.1 3.3,4.4 Z" id="Path"></path>
                </g>
                <g id="Untitled-1-Copy-2" transform="translate(0.463444, 12.500000)">
                    <path d="M3.3,4.4 C3.7,4.8 4,5.3 4,5.9 L4,6 L3,6 C3,6 3,5.9 3,5.9 C3,5.4 2.5,4.9 2,4.9 C1.5,4.9 1,4.7 0.7,4.4 C0.3,4 0,3.5 0,2.9 C0,2.3 0.3,1.8 0.7,1.4 C1,1.1 1.5,0.9 2,0.9 C2.5,0.9 3,0.4 3,0 L4,0 C4,0.6 3.7,1.1 3.3,1.4 C3,1.7 2.5,1.9 2,1.9 C1.5,1.9 1,2.4 1,2.9 C1,3.4 1.5,3.9 2,3.9 C2.5,3.9 3,4.1 3.3,4.4 Z" id="Path"></path>
                </g>
                <path d="M0.463444011,21.4 C0.463444011,20.8 0.763444011,20.3 1.16344401,19.9 C1.46344401,19.6 1.96344401,19.4 2.46344401,19.4 C2.96344401,19.4 3.46344401,18.9 3.46344401,18.5 L4.46344401,18.5 C4.46344401,19.1 4.16344401,19.6 3.76344401,19.9 C3.46344401,20.2 2.96344401,20.4 2.46344401,20.4 C1.96344401,20.4 1.46344401,20.9 1.46344401,21.4 C1.46344401,21.9 0.463444011,22 0.463444011,21.4 Z" id="Path"></path>
                <g id="Untitled-1-Copy" transform="translate(0.463444, 6.500000)">
                    <path d="M3.3,4.4 C3.7,4.8 4,5.3 4,5.9 L4,6 L3,6 C3,6 3,5.9 3,5.9 C3,5.4 2.5,4.9 2,4.9 C1.5,4.9 1,4.7 0.7,4.4 C0.3,4 0,3.5 0,2.9 C0,2.3 0.3,1.8 0.7,1.4 C1,1.1 1.5,0.9 2,0.9 C2.5,0.9 3,0.4 3,0 L4,0 C4,0.6 3.7,1.1 3.3,1.4 C3,1.7 2.5,1.9 2,1.9 C1.5,1.9 1,2.4 1,2.9 C1,3.4 1.5,3.9 2,3.9 C2.5,3.9 3,4.1 3.3,4.4 Z" id="Path"></path>
                </g>
            </g>
            <g id="Group-Copy" transform="translate(12.039425, 1.000000)" fill="#0377BE">
                <g id="Untitled-1" transform="translate(0.463444, 0.500000)">
                    <path d="M3.3,4.4 C3.7,4.8 4,5.3 4,5.9 L4,6 L3,6 C3,6 3,5.9 3,5.9 C3,5.4 2.5,4.9 2,4.9 C1.5,4.9 1,4.7 0.7,4.4 C0.3,4 0,3.5 0,2.9 C0,2.3 0.3,1.8 0.7,1.4 C1,1.1 1.5,0.9 2,0.9 C2.5,0.9 3,0.4 3,0 L4,0 C4,0.6 3.7,1.1 3.3,1.4 C3,1.7 2.5,1.9 2,1.9 C1.5,1.9 1,2.4 1,2.9 C1,3.4 1.5,3.9 2,3.9 C2.5,3.9 3,4.1 3.3,4.4 Z" id="Path"></path>
                </g>
                <g id="Untitled-1-Copy-2" transform="translate(0.463444, 12.500000)">
                    <path d="M3.3,4.4 C3.7,4.8 4,5.3 4,5.9 L4,6 L3,6 C3,6 3,5.9 3,5.9 C3,5.4 2.5,4.9 2,4.9 C1.5,4.9 1,4.7 0.7,4.4 C0.3,4 0,3.5 0,2.9 C0,2.3 0.3,1.8 0.7,1.4 C1,1.1 1.5,0.9 2,0.9 C2.5,0.9 3,0.4 3,0 L4,0 C4,0.6 3.7,1.1 3.3,1.4 C3,1.7 2.5,1.9 2,1.9 C1.5,1.9 1,2.4 1,2.9 C1,3.4 1.5,3.9 2,3.9 C2.5,3.9 3,4.1 3.3,4.4 Z" id="Path"></path>
                </g>
                <path d="M0.463444011,21.4 C0.463444011,20.8 0.763444011,20.3 1.16344401,19.9 C1.46344401,19.6 1.96344401,19.4 2.46344401,19.4 C2.96344401,19.4 3.46344401,18.9 3.46344401,18.5 L4.46344401,18.5 C4.46344401,19.1 4.16344401,19.6 3.76344401,19.9 C3.46344401,20.2 2.96344401,20.4 2.46344401,20.4 C1.96344401,20.4 1.46344401,20.9 1.46344401,21.4 C1.46344401,21.9 0.463444011,22 0.463444011,21.4 Z" id="Path"></path>
                <g id="Untitled-1-Copy" transform="translate(0.463444, 6.500000)">
                    <path d="M3.3,4.4 C3.7,4.8 4,5.3 4,5.9 L4,6 L3,6 C3,6 3,5.9 3,5.9 C3,5.4 2.5,4.9 2,4.9 C1.5,4.9 1,4.7 0.7,4.4 C0.3,4 0,3.5 0,2.9 C0,2.3 0.3,1.8 0.7,1.4 C1,1.1 1.5,0.9 2,0.9 C2.5,0.9 3,0.4 3,0 L4,0 C4,0.6 3.7,1.1 3.3,1.4 C3,1.7 2.5,1.9 2,1.9 C1.5,1.9 1,2.4 1,2.9 C1,3.4 1.5,3.9 2,3.9 C2.5,3.9 3,4.1 3.3,4.4 Z" id="Path"></path>
                </g>
            </g>
        </g>
        <path d="M28.5,6 L28.5,26 C28.5,26.4142136 28.3321068,26.7892136 28.0606602,27.0606602 C27.7892136,27.3321068 27.4142136,27.5 27,27.5 L27,27.5 L19.5,27.5 L19.5,6 L28.5,6 Z" id="Rectangle-7-Copy-7" stroke="#0077BE"></path>
        <path d="M12,3 L27,3 C28.1045695,3 29,3.8954305 29,5 L29,7 L29,7 L10,7 L10,5 C10,3.8954305 10.8954305,3 12,3 Z" id="Rectangle-7" fill="url(#linearGradient-3)"></path>
    </g>
</svg>