<?xml version="1.0" encoding="UTF-8"?>
<svg width="32px" height="32px" viewBox="0 0 32 32" version="1.1" xmlns="http://www.w3.org/2000/svg" xmlns:xlink="http://www.w3.org/1999/xlink">
    <title>open_model_32x32</title>
    <defs>
        <linearGradient x1="50%" y1="3.49530347%" x2="50%" y2="100%" id="linearGradient-1">
            <stop stop-color="#1AAAFF" offset="0%"></stop>
            <stop stop-color="#0077BE" offset="100%"></stop>
        </linearGradient>
        <linearGradient x1="50%" y1="67.8595342%" x2="50%" y2="4.63017311%" id="linearGradient-2">
            <stop stop-color="#F99D9D" offset="0%"></stop>
            <stop stop-color="#F16464" offset="100%"></stop>
        </linearGradient>
    </defs>
    <g id="open_model_32x32" stroke="none" stroke-width="1" fill="none" fill-rule="evenodd">
        <g id="Group" transform="translate(1.000000, 2.000000)">
            <path d="M2,0.75 L24,0.75 C25.1045695,0.75 26,1.6454305 26,2.75 L26,4 L26,4 L0,4 L0,2.75 C-1.3527075e-16,1.6454305 0.8954305,0.75 2,0.75 Z" id="Rectangle-7-Copy" fill="url(#linearGradient-1)"></path>
            <rect id="Rectangle-7-Copy-6" fill="#0077BE" x="8" y="8" width="13" height="1" rx="0.5"></rect>
            <rect id="Rectangle-7-Copy-8" fill="#0077BE" x="8" y="13" width="11" height="1" rx="0.5"></rect>
            <rect id="Rectangle-7-Copy-9" fill="#0077BE" x="8" y="18" width="6" height="1" rx="0.5"></rect>
            <path d="M25.5,4.5 L25.5,22.5 L2,22.5 C1.58578644,22.5 1.21078644,22.3321068 0.939339828,22.0606602 C0.667893219,21.7892136 0.5,21.4142136 0.5,21 L0.5,21 L0.5,4.5 L25.5,4.5 Z" id="Rectangle-7-Copy-10" stroke="#0077BE"></path>
        </g>
        <circle id="Oval" fill="#F16464" cx="6" cy="10.5771724" r="1"></circle>
        <circle id="Oval-Copy" fill="#F16464" cx="6" cy="15.5443249" r="1"></circle>
        <circle id="Oval-Copy-2" fill="#F16464" cx="6" cy="20.5114775" r="1"></circle>
        <path d="M20.9768482,12.2697414 L30.183955,21.4768482 L24.1985582,21.4768482 C24.2245272,24.4050801 24.4814772,26.7361677 24.9776894,28.4686521 C25.4858179,30.2427411 26.2221817,31.6489366 27.2005464,32.6787734 L27.2005464,32.6787734 L29.2735117,34.8607982 L26.6063743,33.466239 C23.8501456,32.0250969 21.6321784,30.2541622 19.948277,28.1583854 C18.3385914,26.1549772 17.4847042,23.9273854 17.3830269,21.4768482 L17.3830269,21.4768482 L11.7697414,21.4768482 L20.9768482,12.2697414 Z" id="Fill-22" stroke="#FFFFFF" fill="url(#linearGradient-2)" transform="translate(20.976848, 23.000000) rotate(-270.000000) translate(-20.976848, -23.000000) "></path>
    </g>
</svg>