<?xml version="1.0" encoding="UTF-8"?>
<svg width="16px" height="16px" viewBox="0 0 16 16" version="1.1" xmlns="http://www.w3.org/2000/svg" xmlns:xlink="http://www.w3.org/1999/xlink">
    <title>open_logplot_blank_16x16</title>
    <defs>
        <linearGradient x1="50%" y1="0%" x2="68.8321802%" y2="95.953495%" id="linearGradient-1">
            <stop stop-color="#F16464" offset="0%"></stop>
            <stop stop-color="#F79494" offset="54.49984%"></stop>
            <stop stop-color="#FFD3D3" offset="100%"></stop>
        </linearGradient>
        <linearGradient x1="50%" y1="3.49530347%" x2="50%" y2="70.3087224%" id="linearGradient-2">
            <stop stop-color="#1AAAFF" offset="0%"></stop>
            <stop stop-color="#0077BE" offset="100%"></stop>
        </linearGradient>
    </defs>
    <g id="open_logplot_blank_16x16" stroke="none" stroke-width="1" fill="none" fill-rule="evenodd">
        <path d="M8,4.00923932 L4.00923932,8 L6.45151982,8 C6.45151982,9.26374827 6.86145945,10.4058316 7.68133871,11.42625 C8.50121797,12.4466684 9.58204899,13.3076649 10.9238318,14.0092393 C10.4115566,13.4700131 10.0222856,12.7355756 9.75601875,11.8059268 C9.48975195,10.876278 9.35661855,9.60763575 9.35661855,8 L11.9907607,8 L8,4.00923932 Z" id="Fill-22" fill="url(#linearGradient-1)" transform="translate(8.000000, 9.009239) rotate(-270.000000) translate(-8.000000, -9.009239) "></path>
        <g id="Group-2">
            <rect id="Rectangle-7-Copy" fill="url(#linearGradient-2)" x="0" y="0" width="16" height="3" rx="1"></rect>
            <path d="M15.5,2.5 L15.5,14 C15.5,14.4142136 15.3321068,14.7892136 15.0606602,15.0606602 C14.7892136,15.3321068 14.4142136,15.5 14,15.5 L14,15.5 L2,15.5 C1.58578644,15.5 1.21078644,15.3321068 0.939339828,15.0606602 C0.667893219,14.7892136 0.5,14.4142136 0.5,14 L0.5,14 L0.5,2.5 L15.5,2.5 Z" id="Rectangle-7-Copy-10" stroke="#0077BE"></path>
        </g>
    </g>
</svg>