<svg width="16" height="16" viewBox="0 0 16 16" fill="none" xmlns="http://www.w3.org/2000/svg">
<path fill-rule="evenodd" clip-rule="evenodd" d="M15.9998 6.632L8.02588 9.93258L1.27454 7.15625L0 6.63218L5.84842 4.6416L13.3139 4.72752L15.9998 6.632Z" fill="#6EC9FF"/>
<path fill-rule="evenodd" clip-rule="evenodd" d="M16.0001 6.63232V12.6988L8.02612 15.9994V9.9329L10.3922 8.95355L13.419 6.71286L16.0001 6.63232Z" fill="#0077BE"/>
<path fill-rule="evenodd" clip-rule="evenodd" d="M8.02588 9.9335V16L0 12.6996V6.6331L3.13401 6.43994L8.02588 9.9335Z" fill="#329BD9"/>
<path fill-rule="evenodd" clip-rule="evenodd" d="M14.6799 8.50451C15.2167 8.28384 15.6529 8.28347 15.6538 8.50451C15.6547 8.72507 15.2199 9.08266 14.6831 9.30333C14.1462 9.52399 13.71 9.52436 13.7091 9.30382C13.7082 9.08278 14.143 8.7252 14.6799 8.50451Z" fill="#005181"/>
<path fill-rule="evenodd" clip-rule="evenodd" d="M12.2667 10.5516C12.633 10.401 12.9311 10.406 12.9318 10.5632C12.9324 10.7203 12.6352 10.97 12.269 11.1205C11.9021 11.2713 11.6045 11.2661 11.6039 11.1089C11.6033 10.9518 11.8998 10.7023 12.2667 10.5516Z" fill="#004F7E"/>
<path fill-rule="evenodd" clip-rule="evenodd" d="M4.97639 10.8295C5.34265 10.98 5.63924 11.2295 5.63858 11.3866C5.63795 11.5438 5.34036 11.5485 4.9741 11.398C4.60724 11.2472 4.31066 10.9982 4.31128 10.8411C4.31194 10.684 4.60953 10.6787 4.97639 10.8295Z" fill="#006EAF"/>
<path fill-rule="evenodd" clip-rule="evenodd" d="M1.07479 11.6171C1.39025 11.7676 1.64572 12.0171 1.64516 12.1742C1.64461 12.3314 1.3883 12.3361 1.07285 12.1856C0.756835 12.0348 0.501399 11.7858 0.501954 11.6287C0.502546 11.4716 0.758851 11.4663 1.07479 11.6171Z" fill="#006EAF"/>
<path fill-rule="evenodd" clip-rule="evenodd" d="M6.32718 13.7745C6.36485 13.79 6.40329 13.8079 6.44221 13.8285C6.77848 14.0063 7.02169 14.3051 6.98506 14.4964C6.95267 14.6659 6.71252 14.6946 6.4248 14.5763C6.38716 14.5609 6.34869 14.5429 6.3098 14.5224C5.97353 14.3445 5.73033 14.0457 5.76696 13.8539C5.79931 13.6848 6.03949 13.6562 6.32718 13.7745Z" fill="#015C92"/>
<path fill-rule="evenodd" clip-rule="evenodd" d="M1.34715 8.56065C1.36411 8.5676 1.38141 8.57572 1.39893 8.58495C1.55031 8.66499 1.65982 8.79955 1.64331 8.88563C1.62875 8.96195 1.5206 8.97487 1.39108 8.92163C1.37415 8.91467 1.35681 8.90656 1.33929 8.89733C1.18791 8.81729 1.0784 8.68273 1.09491 8.5964C1.1095 8.5203 1.21759 8.50743 1.34715 8.56065Z" fill="#0066A3"/>
<path fill-rule="evenodd" clip-rule="evenodd" d="M2.28977 10.6928C2.45919 10.7624 2.59646 10.9464 2.59587 11.1035C2.59525 11.2602 2.45693 11.3309 2.28754 11.2613C2.11812 11.1916 1.98143 11.0079 1.98206 10.8513C1.98265 10.6941 2.12038 10.6231 2.28977 10.6928Z" fill="#005F98" fill-opacity="0.51169"/>
<path fill-rule="evenodd" clip-rule="evenodd" d="M9.94615 13.4888C10.2719 13.3549 10.5366 13.3727 10.5372 13.5283C10.5379 13.6845 10.2741 13.9195 9.9484 14.0534C9.6227 14.1873 9.3585 14.1692 9.35791 14.0131C9.35725 13.8574 9.62044 13.6227 9.94615 13.4888Z" fill="#004975"/>
<path fill-rule="evenodd" clip-rule="evenodd" d="M14.2831 11.3811C14.6088 11.2472 14.873 11.2628 14.8736 11.416C14.8742 11.5692 14.611 11.802 14.2853 11.9359C13.9596 12.0698 13.6948 12.054 13.6942 11.9007C13.6936 11.7475 13.9574 11.5149 14.2831 11.3811Z" fill="#004067"/>
<path fill-rule="evenodd" clip-rule="evenodd" d="M9.38562 10.7579C9.55922 10.6865 9.69979 10.727 9.70028 10.8485C9.70077 10.9695 9.56099 11.1252 9.3874 11.1966C9.2144 11.2677 9.07382 11.2272 9.07337 11.1062C9.07285 10.9847 9.21266 10.829 9.38562 10.7579Z" fill="#004066"/>
<path fill-rule="evenodd" clip-rule="evenodd" d="M12.8809 3.88086L14.7968 2.5199L10.9651 2.5199L12.8809 3.88086Z" fill="#F16464"/>
<path fill-rule="evenodd" clip-rule="evenodd" d="M13.3265 0V3.20091H12.4348V0H13.3265Z" fill="#F16464"/>
<path fill-rule="evenodd" clip-rule="evenodd" d="M8.21015 3.88086L10.126 2.5199L6.29433 2.5199L8.21015 3.88086Z" fill="#F16464"/>
<path fill-rule="evenodd" clip-rule="evenodd" d="M8.65577 0V3.20091H7.76404V0H8.65577Z" fill="#F16464"/>
<path fill-rule="evenodd" clip-rule="evenodd" d="M3.53889 3.88086L5.45471 2.5199L1.62306 2.5199L3.53889 3.88086Z" fill="#F16464"/>
<path fill-rule="evenodd" clip-rule="evenodd" d="M3.98499 0V3.20091H3.09326V0H3.98499Z" fill="#F16464"/>
</svg>
