<?xml version="1.0" encoding="UTF-8"?>
<svg width="16px" height="16px" viewBox="0 0 16 16" version="1.1" xmlns="http://www.w3.org/2000/svg" xmlns:xlink="http://www.w3.org/1999/xlink">
    <title>percent_plot_type_his_16x16</title>
    <g id="percent_plot_type_his_16x16" stroke="none" stroke-width="1" fill="none" fill-rule="evenodd">
        <rect id="Rectangle-20-Copy-32" fill="#0077BE" x="0" y="0" width="1" height="16"></rect>
        <rect id="Rectangle-20-Copy-43" fill="#0077BE" x="7" y="15" width="2" height="1"></rect>
        <rect id="Rectangle-20-Copy-32" fill="#0077BE" x="0" y="15" width="16" height="1"></rect>
        <rect id="Rectangle-20-Copy-57" fill="#0077BE" x="2" y="15" width="5" height="1"></rect>
        <rect id="Rectangle-20-Copy-40" fill="#F16464" x="1" y="3" width="2" height="1"></rect>
        <rect id="Rectangle-20-Copy-45" fill="#F16464" x="1" y="0" width="2" height="1"></rect>
        <rect id="Rectangle-20-Copy-50" fill="#F16464" x="6" y="0" width="3" height="1"></rect>
        <rect id="Rectangle-20-Copy-54" fill="#F16464" x="12" y="6" width="3" height="1"></rect>
        <rect id="Rectangle-20-Copy-51" fill="#F16464" x="6" y="4" width="3" height="1"></rect>
        <rect id="Rectangle-20-Copy-55" fill="#F16464" x="12" y="10" width="3" height="1"></rect>
        <rect id="Rectangle-20-Copy-52" fill="#F16464" x="5" y="1" width="2" height="3"></rect>
        <rect id="Rectangle-20-Copy-56" fill="#F16464" x="11" y="7" width="2" height="3"></rect>
        <rect id="Rectangle-20-Copy-53" fill="#F16464" x="8" y="1" width="2" height="3"></rect>
        <rect id="Rectangle-20-Copy-58" fill="#F16464" x="14" y="7" width="2" height="3"></rect>
        <rect id="Rectangle-20-Copy-41" fill="#F16464" x="1" y="6" width="2" height="1"></rect>
        <rect id="Rectangle-20-Copy-42" fill="#F16464" x="1" y="9" width="2" height="1"></rect>
        <rect id="Rectangle-20-Copy-44" fill="#F16464" x="1" y="12" width="2" height="1"></rect>
        <polygon id="Rectangle-20-Copy-46" fill="#F16464" points="5 13 6 13 6 15 5 15"></polygon>
        <polygon id="Rectangle-20-Copy-47" fill="#F16464" points="8 13 9 13 9 15 8 15"></polygon>
        <polygon id="Rectangle-20-Copy-48" fill="#F16464" points="11 13 12 13 12 15 11 15"></polygon>
        <polygon id="Rectangle-20-Copy-49" fill="#F16464" points="14 13 15 13 15 15 14 15"></polygon>
        <line x1="15.5" y1="0.5" x2="5.5" y2="10.5" id="Line" stroke="#F16464" stroke-linecap="square"></line>
        <line x1="15.5" y1="0.5" x2="5.5" y2="10.5" id="Line" stroke="#F16464" stroke-linecap="square"></line>
    </g>
</svg>