<?xml version="1.0" encoding="UTF-8"?>
<svg width="32px" height="32px" viewBox="0 0 32 32" version="1.1" xmlns="http://www.w3.org/2000/svg" xmlns:xlink="http://www.w3.org/1999/xlink">
    <title>pore_pressure_32x32</title>
    <defs>
        <linearGradient x1="25.5187587%" y1="92.5846933%" x2="110.176666%" y2="-9.17466185%" id="linearGradient-1">
            <stop stop-color="#F16464" offset="0%"></stop>
            <stop stop-color="#F79494" offset="54.49984%"></stop>
            <stop stop-color="#FFD3D3" offset="100%"></stop>
        </linearGradient>
    </defs>
    <g id="pore_pressure_32x32" stroke="none" stroke-width="1" fill="none" fill-rule="evenodd">
        <g id="rock" transform="translate(6.000000, 8.500000)">
            <polygon id="Path" fill="#6EC9FF" points="15.976869 4.63118973 8.02830806 9.26262247 1.29847222 5.36681556 0.027991184 4.63143275 7.97360747 0 13.2994845 1.95878735"></polygon>
            <polygon id="Path" fill="#0077BE" points="15.976869 4.63118973 15.976869 13.1438481 8.02830806 17.7752809 8.02830806 9.26262247 10.3868078 7.88837107 13.4039664 4.74419469"></polygon>
            <g id="Group" transform="translate(0.000000, 4.339668)">
                <polygon id="Path" fill="#329BD9" points="8.02830806 4.9229543 8.02830806 13.4356127 0.027991184 8.80442295 0.027991184 0.291764571 3.1520221 0.0207262552"></polygon>
                <path d="M14.6610062,2.91861779 C15.1961644,2.60897379 15.6309284,2.60845303 15.6318651,2.91861779 C15.6327298,3.22812293 15.1993515,3.72989272 14.6641933,4.03953673 C14.1290351,4.34918073 13.694271,4.34970149 13.6933344,4.04023107 C13.6924696,3.73006631 14.125848,3.22829652 14.6610062,2.91861779" id="Path" fill="#005181"></path>
            </g>
            <path d="M12.2558429,10.130695 C12.6209408,9.91943993 12.9181739,9.92648755 12.9187984,10.1469774 C12.919421,10.3674673 12.6231926,10.7178694 12.2580947,10.9290898 C11.8923732,11.140692 11.5957637,11.1332972 11.5951391,10.9128073 C11.5945165,10.6923175 11.8901215,10.3422625 12.2558429,10.130695" id="Path" fill="#004F7E"></path>
            <path d="M4.9882507,10.5201542 C5.35334858,10.7314092 5.64898814,11.0814642 5.64833103,11.3019541 C5.64770636,11.5224439 5.35106217,11.5291444 4.98596429,11.3178893 C4.62027748,11.1062871 4.32463792,10.7569265 4.32526051,10.5364713 C4.3259197,10.3159467 4.62256389,10.3085519 4.9882507,10.5201542" id="Path" fill="#006EAF"></path>
            <path d="M1.09927754,11.6259363 C1.413728,11.8371914 1.66838542,12.1872464 1.66783204,12.4077362 C1.66727686,12.6282261 1.41178802,12.6349265 1.09733755,12.4236715 C0.782332806,12.2120693 0.527710031,11.8627086 0.528263409,11.6422535 C0.528853236,11.4217289 0.784342075,11.4143341 1.09927754,11.6259363" id="Path" fill="#006EAF"></path>
            <g id="Group" transform="translate(1.108562, 7.290643)">
                <path d="M5.22659147,7.36247272 C5.264144,7.38420578 5.30245866,7.40944529 5.34125833,7.43822597 C5.67645968,7.68773953 5.91888828,8.10712507 5.88237503,8.37545543 C5.85008817,8.6133734 5.61070811,8.65357608 5.32390241,8.48766189 C5.28638452,8.46596355 5.24803521,8.44068932 5.20927019,8.41190864 C4.87406884,8.16239508 4.63164024,7.74300955 4.66815349,7.47398484 C4.70040571,7.23669178 4.93982041,7.19652381 5.22659147,7.36247272" id="Path" fill="#015C92"></path>
                <path d="M0.262451992,0.0458268959 C0.279357559,0.05558247 0.296609551,0.0669697593 0.314069398,0.0799193291 C0.464972365,0.192229942 0.574131054,0.381057583 0.557675841,0.501839228 C0.543160611,0.608942239 0.435352981,0.627064693 0.306240181,0.552352965 C0.289369257,0.542597391 0.272082622,0.531210102 0.254622775,0.518260532 C0.103719808,0.40594992 -0.00543888104,0.217122278 0.0110163323,0.0959934601 C0.0255662052,-0.0107970944 0.133304549,-0.028850114 0.262451992,0.0458268959" id="Path" fill="#0066A3"></path>
            </g>
            <path d="M2.31041588,10.328688 C2.47929833,10.4263826 2.61613642,10.6846102 2.6155494,10.9051001 C2.61492394,11.1248956 2.47704657,11.2241525 2.30819876,11.1264232 C2.13931631,11.0287286 2.00306714,10.7708828 2.00368857,10.5510873 C2.00427963,10.3305627 2.14156807,10.2309934 2.31041588,10.328688" id="Path" fill-opacity="0.511690444" fill="#005F98"></path>
            <path d="M9.94255169,14.251262 C10.2672217,14.0634064 10.5311287,14.0883335 10.5317534,14.306775 C10.5323758,14.5258762 10.2694735,14.8556563 9.94480346,15.0435118 C9.62013344,15.2314021 9.35678074,15.2060584 9.35619058,14.9869573 C9.3555336,14.7685157 9.61788167,14.4391175 9.94255169,14.251262" id="Path" fill="#004975"></path>
            <path d="M14.2657693,11.2950453 C14.5904393,11.1071898 14.8537573,11.1290617 14.8543474,11.3440662 C14.8549698,11.5590707 14.5926218,11.8857609 14.2679517,12.0736165 C13.9432817,12.2614721 13.6793747,12.239253 13.6787502,12.0242484 C13.6781623,11.8092439 13.9410992,11.4829009 14.2657693,11.2950453" id="Path" fill="#004067"></path>
            <path d="M9.38397514,10.4200293 C9.5570147,10.3199045 9.69714383,10.3766674 9.69763009,10.5471643 C9.69811383,10.7169668 9.55878147,10.9354778 9.38574191,11.0356026 C9.21329128,11.1353802 9.07316214,11.0785827 9.07271034,10.9087801 C9.07219215,10.7382832 9.21155915,10.5197723 9.38397514,10.4200293" id="Path" fill="#004066"></path>
        </g>
        <g id="Group-2-Copy-3" transform="translate(2.500000, 18.000000) rotate(-90.000000) translate(-2.500000, -18.000000) translate(0.000000, 16.000000)" fill="#F16464">
            <polygon id="Fill-22" transform="translate(2.148438, 2.792969) rotate(-180.000000) translate(-2.148438, -2.792969) " points="2.1484375 1.71875 1.42108547e-14 3.8671875 4.296875 3.8671875"></polygon>
            <polygon id="Fill-21" transform="translate(2.148438, 1.503906) rotate(-180.000000) translate(-2.148438, -1.503906) " points="1.64860234 2.79296875 2.64827266 2.79296875 2.64827266 0.21484375 1.64860234 0.21484375"></polygon>
        </g>
        <g id="Group-2-Copy-3" transform="translate(6.045049, 25.851398) rotate(-135.000000) translate(-6.045049, -25.851398) translate(3.545049, 23.851398)" fill="#F16464">
            <polygon id="Fill-22" transform="translate(2.148438, 2.792969) rotate(-180.000000) translate(-2.148438, -2.792969) " points="2.1484375 1.71875 1.42108547e-14 3.8671875 4.296875 3.8671875"></polygon>
            <polygon id="Fill-21" transform="translate(2.148438, 1.503906) rotate(-180.000000) translate(-2.148438, -1.503906) " points="1.64860234 2.79296875 2.64827266 2.79296875 2.64827266 0.21484375 1.64860234 0.21484375"></polygon>
        </g>
        <g id="Group-2-Copy-3" transform="translate(22.954951, 9.148602) rotate(-315.000000) translate(-22.954951, -9.148602) translate(20.454951, 7.148602)" fill="#F16464">
            <polygon id="Fill-22" transform="translate(2.148438, 2.792969) rotate(-180.000000) translate(-2.148438, -2.792969) " points="2.1484375 1.71875 1.42108547e-14 3.8671875 4.296875 3.8671875"></polygon>
            <polygon id="Fill-21" transform="translate(2.148438, 1.503906) rotate(-180.000000) translate(-2.148438, -1.503906) " points="1.64860234 2.79296875 2.64827266 2.79296875 2.64827266 0.21484375 1.64860234 0.21484375"></polygon>
        </g>
        <g id="Group-2-Copy-3" transform="translate(13.926777, 29.383883) rotate(-180.000000) translate(-13.926777, -29.383883) translate(11.426777, 27.383883)" fill="#F16464">
            <polygon id="Fill-22" transform="translate(2.148438, 2.792969) rotate(-180.000000) translate(-2.148438, -2.792969) " points="2.1484375 1.71875 1.42108547e-14 3.8671875 4.296875 3.8671875"></polygon>
            <polygon id="Fill-21" transform="translate(2.148438, 1.503906) rotate(-180.000000) translate(-2.148438, -1.503906) " points="1.64860234 2.79296875 2.64827266 2.79296875 2.64827266 0.21484375 1.64860234 0.21484375"></polygon>
        </g>
        <g id="Group-2-Copy-3" transform="translate(22.299143, 26.019489) rotate(-225.000000) translate(-22.299143, -26.019489) translate(19.799143, 24.019489)" fill="#F16464">
            <polygon id="Fill-22" transform="translate(2.148438, 2.792969) rotate(-180.000000) translate(-2.148438, -2.792969) " points="2.1484375 1.71875 1.42108547e-14 3.8671875 4.296875 3.8671875"></polygon>
            <polygon id="Fill-21" transform="translate(2.148438, 1.503906) rotate(-180.000000) translate(-2.148438, -1.503906) " points="1.64860234 2.79296875 2.64827266 2.79296875 2.64827266 0.21484375 1.64860234 0.21484375"></polygon>
        </g>
        <g id="Group-2-Copy-3" transform="translate(5.950857, 8.610542) rotate(-45.000000) translate(-5.950857, -8.610542) translate(3.450857, 6.610542)" fill="#F16464">
            <polygon id="Fill-22" transform="translate(2.148438, 2.792969) rotate(-180.000000) translate(-2.148438, -2.792969) " points="2.1484375 1.71875 1.42108547e-14 3.8671875 4.296875 3.8671875"></polygon>
            <polygon id="Fill-21" transform="translate(2.148438, 1.503906) rotate(-180.000000) translate(-2.148438, -1.503906) " points="1.64860234 2.79296875 2.64827266 2.79296875 2.64827266 0.21484375 1.64860234 0.21484375"></polygon>
        </g>
        <g id="Group" transform="translate(13.500000, -1.500000)">
            <g id="Group-12" transform="translate(0.450329, 2.450329)" fill="#FFFFFF" stroke="#0077BE">
                <path d="M8.55625,0 C3.8332,0 0,3.8332 0,8.55625 C0,13.2793 3.8332,17.1125 8.55625,17.1125 C13.2793,17.1125 17.1125,13.2793 17.1125,8.55625 C17.1125,3.8332 13.2793,0 8.55625,0" id="Fill-6"></path>
            </g>
            <g id="Group-3" transform="translate(9.000874, 12.169773) rotate(-49.000000) translate(-9.000874, -12.169773) translate(5.500874, 9.169773)" fill="#0077BE">
                <polygon id="Triangle" transform="translate(3.456939, 3.000000) rotate(50.000000) translate(-3.456939, -3.000000) " points="3.45934244 -0.152302632 4 6.15230263 2.91387788 6.15230263"></polygon>
                <circle id="Oval" cx="1.02514125" cy="5.03137285" r="1"></circle>
            </g>
            <g id="Group-2" transform="translate(9.659272, 7.269311) rotate(24.000000) translate(-9.659272, -7.269311) translate(4.159272, 2.769311)" fill="url(#linearGradient-1)">
                <path d="M6.4329489,2.48076255 L6.4329489,4.19083486 C5.30318831,4.19083486 4.33814897,4.58555175 3.53783087,5.37498552 C2.73751277,6.16441929 2.3243507,7.12916028 2.29834465,8.26920849 L0.644502955,8.26920849 C0.607015877,6.69034095 1.15829644,5.33088307 2.29834465,4.19083486 C3.43839286,3.05078665 4.81659428,2.48076255 6.4329489,2.48076255 Z" id="Rectangle"></path>
                <path d="M9.31118081,1.2780405 L9.09776836,2.98856542 C8.11028274,2.98826369 7.21638088,3.38282971 6.41606279,4.17226348 C5.61574469,4.96169725 5.20258262,5.92643824 5.17657657,7.06648645 L3.52273487,7.06648645 C3.48524779,5.48761891 4.03652836,4.12816103 5.17657657,2.98811282 C6.31662478,1.84806461 7.69482619,1.2780405 9.31118081,1.2780405 Z" id="Rectangle" transform="translate(6.416063, 4.172263) rotate(-315.000000) translate(-6.416063, -4.172263) "></path>
            </g>
        </g>
    </g>
</svg>