<?xml version="1.0" encoding="UTF-8"?>
<svg width="16px" height="16px" viewBox="0 0 16 16" version="1.1" xmlns="http://www.w3.org/2000/svg" xmlns:xlink="http://www.w3.org/1999/xlink">
    <title>pore_pressure_16x16</title>
    <g id="pore_pressure_16x16" stroke="none" stroke-width="1" fill="none" fill-rule="evenodd">
        <g id="Group" transform="translate(0.209955, -1.506497)">
            <g id="Group-12" transform="translate(0.388790, 2.115485)" fill="#FFFFFF" stroke="#0077BE">
                <path d="M7.38701563,0 C3.309383,0 0,3.309383 0,7.38701563 C0,11.4646483 3.309383,14.7740313 7.38701563,14.7740313 C11.4646483,14.7740313 14.7740313,11.4646483 14.7740313,7.38701563 C14.7740313,3.309383 11.4646483,0 7.38701563,0" id="Fill-6"></path>
            </g>
            <g id="Group-3" transform="translate(8.066033, 10.792087) rotate(-49.000000) translate(-8.066033, -10.792087) translate(5.066033, 7.792087)" fill="#0077BE">
                <polygon id="Triangle" transform="translate(2.984539, 2.590042) rotate(50.000000) translate(-2.984539, -2.590042) " points="2.98661407 -0.131490071 3.45338934 5.31157408 2.5156887 5.31157408"></polygon>
                <circle id="Oval" cx="0.885052964" cy="4.34382234" r="1"></circle>
            </g>
            <g id="Group-2" transform="translate(8.522396, 6.483271) rotate(24.000000) translate(-8.522396, -6.483271) translate(3.522396, 2.483271)" fill="#F16464">
                <path d="M5.55386928,2.14175973 L5.55386928,3.61814611 C4.57849349,3.61814611 3.74532934,3.95892388 3.05437685,4.64047942 C2.36342435,5.32203496 2.00672198,6.15494152 1.98426973,7.1391991 L0.556429908,7.1391991 C0.524065539,5.77608802 1.00001215,4.60240369 1.98426973,3.61814611 C2.96852731,2.63388852 4.15839383,2.14175973 5.55386928,2.14175973 Z" id="Rectangle"></path>
                <path d="M8.03878313,1.10339286 L7.85453406,2.58016999 C7.00199098,2.57990949 6.2302432,2.92055701 5.5392907,3.60211255 C4.84833821,4.28366809 4.49163583,5.11657465 4.46918358,6.10083223 L3.04134376,6.10083223 C3.00897939,4.73772115 3.484926,3.56403682 4.46918358,2.57977924 C5.45344116,1.59552165 6.64330768,1.10339286 8.03878313,1.10339286 Z" id="Rectangle" transform="translate(5.539291, 3.602113) rotate(-315.000000) translate(-5.539291, -3.602113) "></path>
            </g>
        </g>
    </g>
</svg>