<?xml version="1.0" encoding="UTF-8"?>
<svg width="16px" height="16px" viewBox="0 0 16 16" version="1.1" xmlns="http://www.w3.org/2000/svg" xmlns:xlink="http://www.w3.org/1999/xlink">
    <title>pow_16x16</title>
    <defs>
        <linearGradient x1="104.375299%" y1="0%" x2="50%" y2="100%" id="linearGradient-1">
            <stop stop-color="#F99D9D" offset="0%"></stop>
            <stop stop-color="#F16464" offset="100%"></stop>
        </linearGradient>
    </defs>
    <g id="pow_16x16" stroke="none" stroke-width="1" fill="none" fill-rule="evenodd">
        <rect id="Rectangle" stroke="#0077BE" x="0.5" y="3.5" width="12" height="12" rx="2"></rect>
        <circle id="Oval" stroke="#FFFFFF" fill="url(#linearGradient-1)" cx="11.5" cy="4.5" r="5"></circle>
        <path d="M9.57470703,2.36145703 L10.3261719,2.36145703 L10.3261719,3.02942578 C10.5488292,2.75403378 10.7846667,2.55628185 11.0336914,2.43616406 C11.2827161,2.31604627 11.5595688,2.25598828 11.8642578,2.25598828 C12.5322299,2.25598828 12.9833973,2.48889611 13.2177734,2.95471875 C13.3466803,3.20960284 13.4111328,3.57434528 13.4111328,4.04895703 L13.4111328,7.068 L12.6069336,7.068 L12.6069336,4.10169141 C12.6069336,3.8145806 12.5644535,3.5831376 12.4794922,3.40735547 C12.3388665,3.11438525 12.0839862,2.96790234 11.7148438,2.96790234 C11.5273428,2.96790234 11.3735358,2.98694512 11.253418,3.02503125 C11.03662,3.0894847 10.8461922,3.21838966 10.6821289,3.41175 C10.5502923,3.56702421 10.4645998,3.727423 10.4250488,3.89295117 C10.3854978,4.05847934 10.3657227,4.29504924 10.3657227,4.60266797 L10.3657227,7.068 L9.57470703,7.068 L9.57470703,2.36145703 Z" id="n" fill="#FFFFFF" fill-rule="nonzero"></path>
        <polygon id="x" fill="#F16464" fill-rule="nonzero" points="2.17578125 7.36153245 3.54101562 7.36153245 4.98242188 9.57051683 6.44140625 7.36153245 7.72460938 7.39082933 5.609375 10.4201262 7.81835938 13.6369231 6.47070312 13.6369231 4.91210938 11.2814543 3.40039062 13.6369231 2.06445312 13.6369231 4.2734375 10.4201262"></polygon>
    </g>
</svg>