<?xml version="1.0" encoding="UTF-8"?>
<svg width="16px" height="16px" viewBox="0 0 16 16" version="1.1" xmlns="http://www.w3.org/2000/svg" xmlns:xlink="http://www.w3.org/1999/xlink">
    <title>project_16x16_edit</title>
    <defs>
        <linearGradient x1="50%" y1="3.49530347%" x2="50%" y2="70.3087224%" id="linearGradient-1">
            <stop stop-color="#1AAAFF" offset="0%"></stop>
            <stop stop-color="#0077BE" offset="100%"></stop>
        </linearGradient>
    </defs>
    <g id="project_16x16_edit" stroke="none" stroke-width="1" fill="none" fill-rule="evenodd">
        <rect id="Rectangle-7-Copy" fill="url(#linearGradient-1)" x="0" y="0" width="13" height="3" rx="1"></rect>
        <path d="M14,2.5 C14.4142136,2.5 14.7892136,2.66789322 15.0606602,2.93933983 C15.3321068,3.21078644 15.5,3.58578644 15.5,4 L15.5,4 L15.5,14 C15.5,14.4142136 15.3321068,14.7892136 15.0606602,15.0606602 C14.7892136,15.3321068 14.4142136,15.5 14,15.5 L14,15.5 L2,15.5 C1.58578644,15.5 1.21078644,15.3321068 0.939339828,15.0606602 C0.667893219,14.7892136 0.5,14.4142136 0.5,14 L0.5,14 L0.5,2.5 Z" id="Rectangle-7-Copy-10" stroke="#0077BE"></path>
        <rect id="Rectangle-7-Copy-6" fill="#0077BE" x="3" y="6" width="10" height="1" rx="0.5"></rect>
        <rect id="Rectangle-7-Copy-7" fill="#0077BE" x="3" y="9" width="8" height="1" rx="0.5"></rect>
        <rect id="Rectangle-7-Copy-8" fill="#0077BE" x="3" y="12" width="5" height="1" rx="0.5"></rect>
    </g>
</svg>