<?xml version="1.0" encoding="UTF-8"?>
<svg width="32px" height="32px" viewBox="0 0 32 32" version="1.1" xmlns="http://www.w3.org/2000/svg" xmlns:xlink="http://www.w3.org/1999/xlink">
    <title>project_share_32x32 </title>
    <defs>
        <linearGradient x1="50%" y1="3.49530347%" x2="50%" y2="100%" id="linearGradient-1">
            <stop stop-color="#1AAAFF" offset="0%"></stop>
            <stop stop-color="#0077BE" offset="100%"></stop>
        </linearGradient>
        <linearGradient x1="50%" y1="0%" x2="50%" y2="100%" id="linearGradient-2">
            <stop stop-color="#F99D9D" offset="0%"></stop>
            <stop stop-color="#F16464" offset="100%"></stop>
        </linearGradient>
        <linearGradient x1="50%" y1="0%" x2="50%" y2="100%" id="linearGradient-3">
            <stop stop-color="#F99D9D" offset="0%"></stop>
            <stop stop-color="#F16464" offset="100%"></stop>
        </linearGradient>
    </defs>
    <g id="project_share_32x32-" stroke="none" stroke-width="1" fill="none" fill-rule="evenodd">
        <g id="Group" transform="translate(1.500000, 4.000000)">
            <path d="M2,0 L16.5,0 C17.6045695,-2.02906125e-16 18.5,0.8954305 18.5,2 L18.5,4 L18.5,4 L0,4 L0,2 C-1.3527075e-16,0.8954305 0.8954305,2.02906125e-16 2,0 Z" id="Rectangle-7-Copy" fill="url(#linearGradient-1)"></path>
            <path d="M24,4.5 C24.4142136,4.5 24.7892136,4.66789322 25.0606602,4.93933983 C25.3321068,5.21078644 25.5,5.58578644 25.5,6 L25.5,6 L25.5,22 C25.5,22.4142136 25.3321068,22.7892136 25.0606602,23.0606602 C24.7892136,23.3321068 24.4142136,23.5 24,23.5 L24,23.5 L2,23.5 C1.58578644,23.5 1.21078644,23.3321068 0.939339828,23.0606602 C0.667893219,22.7892136 0.5,22.4142136 0.5,22 L0.5,22 L0.5,4.5 Z" id="Rectangle-7-Copy-10" stroke="#0077BE"></path>
        </g>
        <ellipse id="Oval-Copy" fill-opacity="0.698879076" fill="#F16464" cx="17.5" cy="16.25" rx="1.75000008" ry="1.75"></ellipse>
        <path d="M13.6358927,19.2605533 L18.9943839,19.2605533 C20.303146,19.2605533 21.3641073,20.3215146 21.3641073,21.6302766 L21.3641073,23 C21.3641073,23.5522847 20.916392,24 20.3641073,24 L13.6358927,24 L13.6358927,24 L13.6358927,19.2605533 Z" id="Rectangle-Copy" fill-opacity="0.698879076" fill="#F16464"></path>
        <circle id="Oval" stroke="#FFFFFF" fill="url(#linearGradient-2)" cx="12" cy="14.5" r="3"></circle>
        <path d="M14,17.5 C14.9664983,17.5 15.8414983,17.8917508 16.4748737,18.5251263 C17.1082492,19.1585017 17.5,20.0335017 17.5,21 L17.5,21 L17.5,23 C17.5,23.4142136 17.3321068,23.7892136 17.0606602,24.0606602 C16.7892136,24.3321068 16.4142136,24.5 16,24.5 L16,24.5 L8,24.5 C7.58578644,24.5 7.21078644,24.3321068 6.93933983,24.0606602 C6.66789322,23.7892136 6.5,23.4142136 6.5,23 L6.5,23 L6.5,21 C6.5,20.0335017 6.89175084,19.1585017 7.52512627,18.5251263 C8.15850169,17.8917508 9.03350169,17.5 10,17.5 L10,17.5 Z" id="Rectangle" stroke="#FFFFFF" fill="url(#linearGradient-3)"></path>
    </g>
</svg>