<?xml version="1.0" encoding="UTF-8"?>
<svg width="16px" height="16px" viewBox="0 0 16 16" version="1.1" xmlns="http://www.w3.org/2000/svg" xmlns:xlink="http://www.w3.org/1999/xlink">
    <title>project_close_16x16</title>
    <defs>
        <linearGradient x1="50%" y1="3.49530347%" x2="50%" y2="70.3087224%" id="linearGradient-1">
            <stop stop-color="#1AAAFF" offset="0%"></stop>
            <stop stop-color="#0077BE" offset="100%"></stop>
        </linearGradient>
    </defs>
    <g id="project_close_16x16" stroke="none" stroke-width="1" fill="none" fill-rule="evenodd">
        <rect id="Rectangle-7-Copy-6" fill="#0077BE" x="3" y="5" width="10" height="1" rx="0.5"></rect>
        <rect id="Rectangle-7-Copy-7" fill="#0077BE" x="3" y="8.5" width="8" height="1" rx="0.5"></rect>
        <rect id="Rectangle-7-Copy-8" fill="#0077BE" x="3" y="12" width="5" height="1" rx="0.5"></rect>
        <g id="Group-2">
            <rect id="Rectangle-7-Copy" fill="url(#linearGradient-1)" x="0" y="0" width="13" height="3" rx="1"></rect>
            <path d="M14,2.5 C14.4142136,2.5 14.7892136,2.66789322 15.0606602,2.93933983 C15.3321068,3.21078644 15.5,3.58578644 15.5,4 L15.5,4 L15.5,13 C15.5,13.6903559 15.220178,14.3153559 14.767767,14.767767 C14.3153559,15.220178 13.6903559,15.5 13,15.5 L13,15.5 L2,15.5 C1.58578644,15.5 1.21078644,15.3321068 0.939339828,15.0606602 C0.667893219,14.7892136 0.5,14.4142136 0.5,14 L0.5,14 L0.5,2.5 Z" id="Rectangle-7-Copy-10" stroke="#0077BE"></path>
        </g>
        <path d="M10.6866444,10.7835777 C10.7902653,10.6799568 10.9582679,10.6799568 11.0618888,10.7835777 L13.3133556,13.0350445 C13.4169765,13.1386654 13.4169765,13.306668 13.3133556,13.4102889 C13.2097347,13.5139098 13.0417321,13.5139098 12.9381112,13.4102889 L10.6866444,11.1588221 C10.5830235,11.0552012 10.5830235,10.8871986 10.6866444,10.7835777 Z" id="Rectangle" fill="#FFFFFF"></path>
        <path d="M10.6866444,13.0350445 L12.9381112,10.7835777 C13.0417321,10.6799568 13.2097347,10.6799568 13.3133556,10.7835777 C13.4169765,10.8871986 13.4169765,11.0552012 13.3133556,11.1588221 L11.0618888,13.4102889 C10.9582679,13.5139098 10.7902653,13.5139098 10.6866444,13.4102889 C10.5830235,13.306668 10.5830235,13.1386654 10.6866444,13.0350445 Z" id="Rectangle" fill="#FFFFFF"></path>
        <g id="Group-2" transform="translate(11.221825, 12.500000) rotate(-315.000000) translate(-11.221825, -12.500000) translate(5.721825, 7.000000)">
            <ellipse id="Oval-2" stroke="#FFFFFF" fill="#F16464" transform="translate(5.985303, 5.014697) rotate(-45.000000) translate(-5.985303, -5.014697) " cx="5.985303" cy="5.014697" rx="4.09185251" ry="4"></ellipse>
            <rect id="Rectangle" fill="#FFFFFF" x="5.5" y="3" width="1" height="4" rx="0.5"></rect>
            <rect id="Rectangle" fill="#FFFFFF" transform="translate(6.000000, 5.000000) rotate(-270.000000) translate(-6.000000, -5.000000) " x="5.5" y="3" width="1" height="4" rx="0.5"></rect>
        </g>
    </g>
</svg>