<?xml version="1.0" encoding="UTF-8"?>
<svg width="32px" height="32px" viewBox="0 0 32 32" version="1.1" xmlns="http://www.w3.org/2000/svg" xmlns:xlink="http://www.w3.org/1999/xlink">
    <title>project_open_32x32</title>
    <defs>
        <linearGradient x1="50%" y1="3.49530347%" x2="50%" y2="100%" id="linearGradient-1">
            <stop stop-color="#1AAAFF" offset="0%"></stop>
            <stop stop-color="#0077BE" offset="100%"></stop>
        </linearGradient>
        <linearGradient x1="50%" y1="67.8595342%" x2="50%" y2="4.63017311%" id="linearGradient-2">
            <stop stop-color="#F99D9D" offset="0%"></stop>
            <stop stop-color="#F16464" offset="100%"></stop>
        </linearGradient>
    </defs>
    <g id="project_open_32x32" stroke="none" stroke-width="1" fill="none" fill-rule="evenodd">
        <g id="Group-2" transform="translate(0.000000, 1.000000)">
            <path d="M2,0 L17,0 C18.1045695,-2.02906125e-16 19,0.8954305 19,2 L19,4 L19,4 L0,4 L0,2 C-1.3527075e-16,0.8954305 0.8954305,2.02906125e-16 2,0 Z" id="Rectangle-7" fill="url(#linearGradient-1)"></path>
            <rect id="Rectangle-7-Copy-3" fill="#0077BE" x="5" y="9" width="13" height="1" rx="0.5"></rect>
            <rect id="Rectangle-7-Copy-4" fill="#0077BE" x="5" y="14" width="8" height="1" rx="0.5"></rect>
            <rect id="Rectangle-7-Copy-5" fill="#0077BE" x="5" y="19" width="8" height="1" rx="0.5"></rect>
            <path d="M24,4.5 C24.4142136,4.5 24.7892136,4.66789322 25.0606602,4.93933983 C25.3321068,5.21078644 25.5,5.58578644 25.5,6 L25.5,6 L25.5,22 C25.5,22.4142136 25.3321068,22.7892136 25.0606602,23.0606602 C24.7892136,23.3321068 24.4142136,23.5 24,23.5 L24,23.5 L2,23.5 C1.58578644,23.5 1.21078644,23.3321068 0.939339828,23.0606602 C0.667893219,22.7892136 0.5,22.4142136 0.5,22 L0.5,22 L0.5,4.5 Z" id="Rectangle-7-Copy-7" stroke="#0077BE"></path>
        </g>
        <path d="M20.9768482,12.2697414 L30.183955,21.4768482 L24.1985582,21.4768482 C24.2245272,24.4050801 24.4814772,26.7361677 24.9776894,28.4686521 C25.4858179,30.2427411 26.2221817,31.6489366 27.2005464,32.6787734 L27.2005464,32.6787734 L29.2735117,34.8607982 L26.6063743,33.466239 C23.8501456,32.0250969 21.6321784,30.2541622 19.948277,28.1583854 C18.3385914,26.1549772 17.4847042,23.9273854 17.3830269,21.4768482 L17.3830269,21.4768482 L11.7697414,21.4768482 L20.9768482,12.2697414 Z" id="Fill-22" stroke="#FFFFFF" fill="url(#linearGradient-2)" transform="translate(20.976848, 23.000000) rotate(-270.000000) translate(-20.976848, -23.000000) "></path>
    </g>
</svg>