<?xml version="1.0" encoding="UTF-8"?>
<svg width="32px" height="32px" viewBox="0 0 32 32" version="1.1" xmlns="http://www.w3.org/2000/svg" xmlns:xlink="http://www.w3.org/1999/xlink">
    <title>property_grid_32x32</title>
    <defs>
        <linearGradient x1="50%" y1="3.49530347%" x2="50%" y2="100%" id="linearGradient-1">
            <stop stop-color="#1AAAFF" offset="0%"></stop>
            <stop stop-color="#0077BE" offset="100%"></stop>
        </linearGradient>
    </defs>
    <g id="property_grid_32x32" stroke="none" stroke-width="1" fill="none" fill-rule="evenodd">
        <path d="M5,4 L20,4 C21.1045695,4 22,4.8954305 22,6 L22,8 L22,8 L3,8 L3,6 C3,4.8954305 3.8954305,4 5,4 Z" id="Rectangle-7-Copy-2" fill="url(#linearGradient-1)"></path>
        <path d="M27,8.5 C27.4142136,8.5 27.7892136,8.66789322 28.0606602,8.93933983 C28.3321068,9.21078644 28.5,9.58578644 28.5,10 L28.5,10 L28.5,26 C28.5,26.4142136 28.3321068,26.7892136 28.0606602,27.0606602 C27.7892136,27.3321068 27.4142136,27.5 27,27.5 L27,27.5 L5,27.5 C4.58578644,27.5 4.21078644,27.3321068 3.93933983,27.0606602 C3.66789322,26.7892136 3.5,26.4142136 3.5,26 L3.5,26 L3.5,8.5 Z" id="Rectangle-7-Copy-11" stroke="#0077BE"></path>
        <rect id="Rectangle-Copy-7" fill="#0077BE" x="13" y="13" width="11" height="1" rx="0.5"></rect>
        <rect id="Rectangle-Copy-8" fill="#0077BE" opacity="0.443219866" x="13" y="18" width="11" height="1" rx="0.5"></rect>
        <rect id="Rectangle-Copy-9" fill="#0077BE" opacity="0.443219866" x="12.9924243" y="23" width="11.0075757" height="1" rx="0.5"></rect>
        <path d="M7.43941193,12.4395388 C6.85352936,13.0254031 6.85352936,13.9745969 7.43941193,14.5604612 C8.02548199,15.1465129 8.97451801,15.1465129 9.56058807,14.5604612 C10.1464706,13.9745969 10.1464706,13.0254031 9.56058807,12.4395388 C8.97451801,11.8534871 8.02548199,11.8534871 7.43941193,12.4395388" id="Path-Copy-5" fill="#DB4D4D"></path>
        <path d="M7.43941193,17.4395388 C6.85352936,18.0254031 6.85352936,18.9745969 7.43941193,19.5604612 C8.02548199,20.1465129 8.97451801,20.1465129 9.56058807,19.5604612 C10.1464706,18.9745969 10.1464706,18.0254031 9.56058807,17.4395388 C8.97451801,16.8534871 8.02548199,16.8534871 7.43941193,17.4395388" id="Path-Copy-6" fill="#DB4D4D" opacity="0.443219866"></path>
        <path d="M7.43941193,22.4395388 C6.85352936,23.0254031 6.85352936,23.9745969 7.43941193,24.5604612 C8.02548199,25.1465129 8.97451801,25.1465129 9.56058807,24.5604612 C10.1464706,23.9745969 10.1464706,23.0254031 9.56058807,22.4395388 C8.97451801,21.8534871 8.02548199,21.8534871 7.43941193,22.4395388" id="Path-Copy-7" fill="#DB4D4D" opacity="0.443219866"></path>
    </g>
</svg>