<?xml version="1.0" encoding="UTF-8"?>
<svg width="16px" height="16px" viewBox="0 0 16 16" version="1.1" xmlns="http://www.w3.org/2000/svg" xmlns:xlink="http://www.w3.org/1999/xlink">
    <title>raw_data_16x16</title>
    <g id="raw_data_16x16" stroke="none" stroke-width="1" fill="none" fill-rule="evenodd">
        <g id="Group-2" fill="#FFFFFF" stroke="#0077BE">
            <rect id="Rectangle-7-Copy-7" x="0.5" y="5.5" width="10" height="10"></rect>
            <rect id="Rectangle-7-Copy-7" x="2.5" y="2.5" width="11" height="11"></rect>
            <rect id="Rectangle-7-Copy-7" x="4.5" y="0.5" width="11" height="11"></rect>
        </g>
        <path d="M9.01075521,7.52 C9.33075521,7.84 9.57075521,8.24 9.57075521,8.72 L9.57075521,8.8 L8.77075521,8.8 C8.77075521,8.8 8.77075521,8.72 8.77075521,8.72 C8.77075521,8.32 8.37075521,7.92 7.97075521,7.92 C7.57075521,7.92 7.17075521,7.76 6.93075521,7.52 C6.61075521,7.2 6.37075521,6.8 6.37075521,6.32 C6.37075521,5.84 6.61075521,5.44 6.93075521,5.12 C7.17075521,4.88 7.57075521,4.72 7.97075521,4.72 C8.37075521,4.72 8.77075521,4.32 8.77075521,4 L9.57075521,4 C9.57075521,4.48 9.33075521,4.88 9.01075521,5.12 C8.77075521,5.36 8.37075521,5.52 7.97075521,5.52 C7.57075521,5.52 7.17075521,5.92 7.17075521,6.32 C7.17075521,6.72 7.57075521,7.12 7.97075521,7.12 C8.37075521,7.12 8.77075521,7.28 9.01075521,7.52 Z" id="Path" fill="#F16464"></path>
        <path d="M6.37075521,11.12 C6.37075521,10.64 6.61075521,10.24 6.93075521,9.92 C7.17075521,9.68 7.57075521,9.52 7.97075521,9.52 C8.37075521,9.52 8.77075521,9.12 8.77075521,8.8 L9.57075521,8.8 C9.57075521,9.28 9.33075521,9.68 9.01075521,9.92 C8.77075521,10.16 8.37075521,10.32 7.97075521,10.32 C7.57075521,10.32 7.17075521,10.72 7.17075521,11.12 C7.17075521,11.52 6.37075521,11.6 6.37075521,11.12 Z" id="Path" fill="#F16464"></path>
        <path d="M9.01075521,2.72 C9.33075521,3.04 9.57075521,3.44 9.57075521,3.92 L9.57075521,4 L8.77075521,4 C8.77075521,4 8.77075521,3.92 8.77075521,3.92 C8.77075521,3.52 8.37075521,3.12 7.97075521,3.12 C7.57075521,3.12 7.17075521,2.96 6.93075521,2.72 C6.61075521,2.4 6.37075521,2 6.37075521,1.52 C6.37075521,1.04 6.61075521,0.64 6.93075521,0.32 C7.17075521,0.08 7.57075521,-0.08 7.97075521,-0.08 C8.37075521,-0.08 8.77075521,-0.48 8.77075521,-0.8 L9.57075521,-0.8 C9.57075521,-0.32 9.33075521,0.08 9.01075521,0.32 C8.77075521,0.56 8.37075521,0.72 7.97075521,0.72 C7.57075521,0.72 7.17075521,1.12 7.17075521,1.52 C7.17075521,1.92 7.57075521,2.32 7.97075521,2.32 C8.37075521,2.32 8.77075521,2.48 9.01075521,2.72 Z" id="Path" fill="#F16464"></path>
        <g id="Group" transform="translate(10.000000, -6.000000)" fill="#0377BE">
            <g id="Untitled-1-Copy-2" transform="translate(0.370755, 10.000000)">
                <path d="M2.64,3.52 C2.96,3.84 3.2,4.24 3.2,4.72 L3.2,4.8 L2.4,4.8 C2.4,4.8 2.4,4.72 2.4,4.72 C2.4,4.32 2,3.92 1.6,3.92 C1.2,3.92 0.8,3.76 0.56,3.52 C0.24,3.2 0,2.8 0,2.32 C0,1.84 0.24,1.44 0.56,1.12 C0.8,0.88 1.2,0.72 1.6,0.72 C2,0.72 2.4,0.32 2.4,0 L3.2,0 C3.2,0.48 2.96,0.88 2.64,1.12 C2.4,1.36 2,1.52 1.6,1.52 C1.2,1.52 0.8,1.92 0.8,2.32 C0.8,2.72 1.2,3.12 1.6,3.12 C2,3.12 2.4,3.28 2.64,3.52 Z" id="Path"></path>
            </g>
            <path d="M0.370755209,17.12 C0.370755209,16.64 0.610755209,16.24 0.930755209,15.92 C1.17075521,15.68 1.57075521,15.52 1.97075521,15.52 C2.37075521,15.52 2.77075521,15.12 2.77075521,14.8 L3.57075521,14.8 C3.57075521,15.28 3.33075521,15.68 3.01075521,15.92 C2.77075521,16.16 2.37075521,16.32 1.97075521,16.32 C1.57075521,16.32 1.17075521,16.72 1.17075521,17.12 C1.17075521,17.52 0.370755209,17.6 0.370755209,17.12 Z" id="Path"></path>
            <g id="Untitled-1-Copy" transform="translate(0.370755, 5.200000)">
                <path d="M2.64,3.52 C2.96,3.84 3.2,4.24 3.2,4.72 L3.2,4.8 L2.4,4.8 C2.4,4.8 2.4,4.72 2.4,4.72 C2.4,4.32 2,3.92 1.6,3.92 C1.2,3.92 0.8,3.76 0.56,3.52 C0.24,3.2 0,2.8 0,2.32 C0,1.84 0.24,1.44 0.56,1.12 C0.8,0.88 1.2,0.72 1.6,0.72 C2,0.72 2.4,0.32 2.4,0 L3.2,0 C3.2,0.48 2.96,0.88 2.64,1.12 C2.4,1.36 2,1.52 1.6,1.52 C1.2,1.52 0.8,1.92 0.8,2.32 C0.8,2.72 1.2,3.12 1.6,3.12 C2,3.12 2.4,3.28 2.64,3.52 Z" id="Path"></path>
            </g>
        </g>
    </g>
</svg>