<?xml version="1.0" encoding="UTF-8"?>
<svg width="16px" height="16px" viewBox="0 0 16 16" version="1.1" xmlns="http://www.w3.org/2000/svg" xmlns:xlink="http://www.w3.org/1999/xlink">
    <title>reference_dataset_16x16</title>
    <g id="reference_dataset_16x16" stroke="none" stroke-width="1" fill="none" fill-rule="evenodd">
        <path d="M6.40805127,6.49433615 C6.83175092,6.86838664 7.02472799,7.32002278 7.02472799,7.9028604 L7.02472799,8 L6.02472799,8 C6.02472799,8 6.02472799,7.9028604 6.02472799,7.9028604 C6.02472799,7.41716238 5.52472799,6.93146436 5.02472799,6.93146436 C4.52472799,6.93146436 4.06007269,6.71446285 3.72472799,6.44576634 C3.32061344,6.12196767 3.0872801,5.63626965 3.02472799,4.98867229 L4.02472799,4.98867229 C4.12021427,5.58606542 4.45354761,5.9098641 5.02472799,5.96006833 C5.88149858,6.03537466 6.10805127,6.22949017 6.40805127,6.49433615 Z" id="Path" fill="#F16464"></path>
        <path d="M6.40805127,9.50566385 C6.83175092,9.87971435 7.02472799,10.3313505 7.02472799,10.9141881 L7.02472799,11.0113277 L6.02472799,11.0113277 C6.02472799,11.0113277 6.02472799,10.9141881 6.02472799,10.9141881 C6.02472799,10.4284901 5.52472799,9.94279207 5.02472799,9.94279207 C4.52472799,9.94279207 4.06007269,9.72579056 3.72472799,9.45709405 C3.32061344,9.13329537 3.0872801,8.64759736 3.02472799,8 L4.02472799,8 C4.12021427,8.59739313 4.45354761,8.92119181 5.02472799,8.97139604 C5.88149858,9.04670237 6.10805127,9.24081788 6.40805127,9.50566385 Z" id="Path" fill="#F16464" transform="translate(5.024728, 9.505664) scale(-1, 1) translate(-5.024728, -9.505664) "></path>
        <path d="M6.40805127,15.5056639 C6.83175092,15.8797143 7.02472799,16.3313505 7.02472799,16.9141881 L7.02472799,17.0113277 L6.02472799,17.0113277 C6.02472799,17.0113277 6.02472799,16.9141881 6.02472799,16.9141881 C6.02472799,16.4284901 5.52472799,15.9427921 5.02472799,15.9427921 C4.52472799,15.9427921 4.06007269,15.7257906 3.72472799,15.4570941 C3.32061344,15.1332954 3.0872801,14.6475974 3.02472799,14 L4.02472799,14 C4.12021427,14.5973931 4.45354761,14.9211918 5.02472799,14.971396 C5.88149858,15.0467024 6.10805127,15.2408179 6.40805127,15.5056639 Z" id="Path" fill="#F16464" transform="translate(5.024728, 15.505664) scale(-1, 1) translate(-5.024728, -15.505664) "></path>
        <path d="M6.40805127,12.5157861 C6.83175092,12.8898366 7.02472799,13.3414727 7.02472799,13.9243104 L7.02472799,14.02145 L6.02472799,14.02145 C6.02472799,14.02145 6.02472799,13.9243104 6.02472799,13.9243104 C6.02472799,13.4386124 5.52472799,12.9529143 5.02472799,12.9529143 C4.52472799,12.9529143 4.06007269,12.7359128 3.72472799,12.4672163 C3.32061344,12.1434176 3.0872801,11.6577196 3.02472799,11.0101223 L4.02472799,11.0101223 C4.12021427,11.6075154 4.45354761,11.9313141 5.02472799,11.9815183 C5.88149858,12.0568246 6.10805127,12.2509401 6.40805127,12.5157861 Z" id="Path" fill="#F16464"></path>
        <path d="M11.9080513,6.49433615 C12.3317509,6.86838664 12.524728,7.32002278 12.524728,7.9028604 L12.524728,8 L11.524728,8 C11.524728,8 11.524728,7.9028604 11.524728,7.9028604 C11.524728,7.41716238 11.024728,6.93146436 10.524728,6.93146436 C10.024728,6.93146436 9.56007269,6.71446285 9.22472799,6.44576634 C8.82061344,6.12196767 8.5872801,5.63626965 8.52472799,4.98867229 L9.52472799,4.98867229 C9.62021427,5.58606542 9.95354761,5.9098641 10.524728,5.96006833 C11.3814986,6.03537466 11.6080513,6.22949017 11.9080513,6.49433615 Z" id="Path" fill="#F16464"></path>
        <path d="M11.9080513,9.50566385 C12.3317509,9.87971435 12.524728,10.3313505 12.524728,10.9141881 L12.524728,11.0113277 L11.524728,11.0113277 C11.524728,11.0113277 11.524728,10.9141881 11.524728,10.9141881 C11.524728,10.4284901 11.024728,9.94279207 10.524728,9.94279207 C10.024728,9.94279207 9.56007269,9.72579056 9.22472799,9.45709405 C8.82061344,9.13329537 8.5872801,8.64759736 8.52472799,8 L9.52472799,8 C9.62021427,8.59739313 9.95354761,8.92119181 10.524728,8.97139604 C11.3814986,9.04670237 11.6080513,9.24081788 11.9080513,9.50566385 Z" id="Path" fill="#F16464" transform="translate(10.524728, 9.505664) scale(-1, 1) translate(-10.524728, -9.505664) "></path>
        <path d="M11.9080513,15.5056639 C12.3317509,15.8797143 12.524728,16.3313505 12.524728,16.9141881 L12.524728,17.0113277 L11.524728,17.0113277 C11.524728,17.0113277 11.524728,16.9141881 11.524728,16.9141881 C11.524728,16.4284901 11.024728,15.9427921 10.524728,15.9427921 C10.024728,15.9427921 9.56007269,15.7257906 9.22472799,15.4570941 C8.82061344,15.1332954 8.5872801,14.6475974 8.52472799,14 L9.52472799,14 C9.62021427,14.5973931 9.95354761,14.9211918 10.524728,14.971396 C11.3814986,15.0467024 11.6080513,15.2408179 11.9080513,15.5056639 Z" id="Path" fill="#F16464" transform="translate(10.524728, 15.505664) scale(-1, 1) translate(-10.524728, -15.505664) "></path>
        <path d="M11.9080513,12.5157861 C12.3317509,12.8898366 12.524728,13.3414727 12.524728,13.9243104 L12.524728,14.02145 L11.524728,14.02145 C11.524728,14.02145 11.524728,13.9243104 11.524728,13.9243104 C11.524728,13.4386124 11.024728,12.9529143 10.524728,12.9529143 C10.024728,12.9529143 9.56007269,12.7359128 9.22472799,12.4672163 C8.82061344,12.1434176 8.5872801,11.6577196 8.52472799,11.0101223 L9.52472799,11.0101223 C9.62021427,11.6075154 9.95354761,11.9313141 10.524728,11.9815183 C11.3814986,12.0568246 11.6080513,12.2509401 11.9080513,12.5157861 Z" id="Path" fill="#F16464"></path>
        <g id="Group-2" stroke="#0077BE">
            <rect id="Rectangle-7-Copy" x="0.5" y="0.5" width="12" height="4" rx="1"></rect>
            <rect id="Rectangle-7-Copy" x="0.5" y="2.5" width="12" height="2" rx="1"></rect>
            <path d="M14,4.5 C14.4142136,4.5 14.7892136,4.66789322 15.0606602,4.93933983 C15.3321068,5.21078644 15.5,5.58578644 15.5,6 L15.5,6 L15.5,14 C15.5,14.4142136 15.3321068,14.7892136 15.0606602,15.0606602 C14.7892136,15.3321068 14.4142136,15.5 14,15.5 L14,15.5 L2,15.5 C1.58578644,15.5 1.21078644,15.3321068 0.939339828,15.0606602 C0.667893219,14.7892136 0.5,14.4142136 0.5,14 L0.5,14 L0.5,4.5 Z" id="Rectangle-7-Copy-10"></path>
        </g>
    </g>
</svg>