<?xml version="1.0" encoding="UTF-8"?>
<svg width="16px" height="16px" viewBox="0 0 16 16" version="1.1" xmlns="http://www.w3.org/2000/svg" xmlns:xlink="http://www.w3.org/1999/xlink">
    <title>rename_16x16</title>
    <g id="rename_16x16" stroke="none" stroke-width="1" fill="none" fill-rule="evenodd">
        <rect id="Rectangle-20-Copy-32" fill="#F16464" x="2" y="6" width="5" height="4" rx="1"></rect>
        <polygon id="Fill-11" fill="#0077BE" points="10.5 14 11.5 14 11.5 2 10.5 2"></polygon>
        <path d="M9,2 L13,2 C13.2761424,2 13.5,1.77614237 13.5,1.5 C13.5,1.22385763 13.2761424,1 13,1 L9,1 C8.72385763,1 8.5,1.22385763 8.5,1.5 C8.5,1.77614237 8.72385763,2 9,2 Z" id="Fill-11" fill="#0077BE"></path>
        <path d="M9,15 L13,15 C13.2761424,15 13.5,14.7761424 13.5,14.5 C13.5,14.2238576 13.2761424,14 13,14 L9,14 C8.72385763,14 8.5,14.2238576 8.5,14.5 C8.5,14.7761424 8.72385763,15 9,15 Z" id="Fill-11-Copy-2" fill="#0077BE"></path>
        <path d="M8.5,4.5 C5.00471271,4.5 2.88978425,4.5 2.15521463,4.5 C1.0533602,4.5 0.5,5.24563531 0.5,6.13347254 C0.5,7.02130978 0.5,8.77398067 0.5,9.88295445 C0.5,10.9919282 1.2750063,11.5 2.15521463,11.5 C2.74202019,11.5 4.85694864,11.5 8.5,11.5" id="Line-21" stroke="#0077BE" stroke-linecap="square"></path>
        <path d="M15.5,4.49518046 C14.2930907,4.49518046 13.5,4.93246558 13.5,6.14900925 C13.5,7.36555291 13.5,8.90429889 13.5,9.87984954 C13.5,10.8554002 14,11.5111332 15.5,11.5111332" id="Line-21" stroke="#0077BE" stroke-linecap="square" transform="translate(14.500000, 8.003157) scale(-1, 1) translate(-14.500000, -8.003157) "></path>
    </g>
</svg>