<?xml version="1.0" encoding="UTF-8"?>
<svg width="16px" height="16px" viewBox="0 0 16 16" version="1.1" xmlns="http://www.w3.org/2000/svg" xmlns:xlink="http://www.w3.org/1999/xlink">
    <title>residual_water_saturation_16x16</title>
    <defs>
        <linearGradient x1="50%" y1="3.49530347%" x2="50%" y2="100%" id="linearGradient-1">
            <stop stop-color="#00ACFF" stop-opacity="0" offset="0%"></stop>
            <stop stop-color="#6EC5F9" stop-opacity="0.673601676" offset="49.9796785%"></stop>
            <stop stop-color="#0077BE" offset="100%"></stop>
        </linearGradient>
        <linearGradient x1="50%" y1="2.66212066%" x2="50%" y2="100%" id="linearGradient-2">
            <stop stop-color="#FFD9DC" offset="0%"></stop>
            <stop stop-color="#E14848" offset="100%"></stop>
        </linearGradient>
    </defs>
    <g id="residual_water_saturation_16x16" stroke="none" stroke-width="1" fill="none" fill-rule="evenodd">
        <g id="Group">
            <path d="M5.98562075,1.30573315 C6.31393606,2.03172972 6.79480142,3.00158212 7.37242124,3.88891988 C7.67012931,4.3462581 7.97904821,4.79282947 8.28411268,5.23371526 C9.49978921,6.99063735 10.6864034,8.64518758 10.6864034,10.5866927 C10.6864034,12.0037703 10.1901863,13.2374114 9.34634551,14.1145386 C8.50809156,14.9858585 7.32996945,15.5 5.97852731,15.5 C4.63659789,15.5 3.48538646,14.9924416 2.66993804,14.1300911 C1.83885473,13.2512064 1.35964257,12.0111696 1.35964257,10.5866927 C1.35964257,8.39296004 2.41861676,6.96978418 3.51958639,5.44498593 C3.88206927,4.94296186 4.25124724,4.43115873 4.59781787,3.88352365 C5.22330414,2.89515882 5.68127923,1.98072546 5.98562075,1.30573315 Z" id="Fill-1" stroke="#0077BE" fill="url(#linearGradient-1)"></path>
            <path d="M3.69355872,11.0239352 C3.69355872,11.7304077 3.94345457,12.3148351 4.44324629,12.7772176 C4.94303801,13.2396 5.52248629,13.4845167 6.18159113,13.5119676" id="Line-6" stroke="#FFFFFF" stroke-linecap="round"></path>
        </g>
        <path d="M10.2587093,-0.840938588 L10.7474961,0.465774399 C10.7474961,0.465774399 11.1101074,1.43517219 11.6454124,2.25750608 C11.7970052,2.49038246 11.9543883,2.7177209 12.1097264,2.94221896 C12.8432002,4.00225117 13.5,5.01184277 13.5,6.17191737 C13.5,7.12767944 13.154349,7.95327318 12.5872648,8.54272674 C12.012795,9.13985724 11.2076845,9.5 10.2792412,9.5 C9.35110209,9.5 8.55997127,9.14078716 7.99763807,8.54611026 C7.44078506,7.95722877 7.10497418,7.13051038 7.10497418,6.17191737 C7.10497418,4.84591504 7.70686035,3.96886671 8.37745843,3.04011559 C8.5579384,2.79015816 8.74212249,2.53557728 8.91468473,2.26290232 C9.52571128,1.29738606 9.80589213,0.480033764 9.80589213,0.480033764 L9.80589213,0.480033764 L10.2587093,-0.840938588 Z" id="Fill-1" stroke="#FFFFFF" fill="url(#linearGradient-2)"></path>
    </g>
</svg>