<?xml version="1.0" encoding="UTF-8"?>
<svg width="16px" height="16px" viewBox="0 0 16 16" version="1.1" xmlns="http://www.w3.org/2000/svg" xmlns:xlink="http://www.w3.org/1999/xlink">
    <title>resistivity_sonic_16x16</title>
    <defs>
        <linearGradient x1="50%" y1="3.49530347%" x2="50%" y2="100%" id="linearGradient-1">
            <stop stop-color="#1AAAFF" offset="0%"></stop>
            <stop stop-color="#0077BE" offset="100%"></stop>
        </linearGradient>
        <linearGradient x1="25.5187587%" y1="92.6110365%" x2="105.751016%" y2="-25.1764339%" id="linearGradient-2">
            <stop stop-color="#F16464" offset="0%"></stop>
            <stop stop-color="#F79494" offset="54.49984%"></stop>
            <stop stop-color="#FFD3D3" offset="100%"></stop>
        </linearGradient>
    </defs>
    <g id="resistivity_sonic_16x16" stroke="none" stroke-width="1" fill="none" fill-rule="evenodd">
        <g id="Group-2" transform="translate(0.000000, 1.173500)">
            <path d="M7.5,2.5 L7.5,13 C7.5,13.4142136 7.33210678,13.7892136 7.06066017,14.0606602 C6.78921356,14.3321068 6.41421356,14.5 6,14.5 L6,14.5 L2,14.5 C1.58578644,14.5 1.21078644,14.3321068 0.939339828,14.0606602 C0.667893219,13.7892136 0.5,13.4142136 0.5,13 L0.5,13 L0.5,2.5 L7.5,2.5 Z" id="Rectangle-7-Copy-8" stroke="#0077BE"></path>
            <g id="Group" transform="translate(2.000000, 2.000000)" fill="#0377BE">
                <g id="Untitled-1" transform="translate(0.500000, 0.000000)">
                    <path d="M1,3.5 C1,3.8 1.2,4 1.5,4 C1.9,4 2.3,4.2 2.6,4.5 C2.3,4.8 1.9,5 1.5,5 C1.1,5 0.7,4.8 0.4,4.5 C0.2,4.2 0,3.9 0,3.5 C0,3.1 0.2,2.8 0.4,2.5 C0.7,2.2 1.1,2 1.5,2 C1.8,2 2,1.8 2,1.5 C2,1.2 1.8,1 1.5,1 C1.1,1 0.7,0.8 0.4,0.5 C0.7,0.2 1.1,0 1.5,0 C1.9,0 2.3,0.2 2.6,0.5 C2.8,0.8 3,1.1 3,1.5 C3,1.9 2.8,2.2 2.6,2.5 C2.3,2.8 1.9,3 1.5,3 C1.2,3 1,3.2 1,3.5 Z" id="Path"></path>
                </g>
                <g id="Untitled-1-Copy" transform="translate(0.500000, 4.000000)">
                    <path d="M1,3.5 C1,3.8 1.2,4 1.5,4 C1.9,4 2.3,4.2 2.6,4.5 C2.3,4.8 1.9,5 1.5,5 C1.1,5 0.7,4.8 0.4,4.5 C0.2,4.2 0,3.9 0,3.5 C0,3.1 0.2,2.8 0.4,2.5 C0.7,2.2 1.1,2 1.5,2 C1.8,2 2,1.8 2,1.5 C2,1.2 1.8,1 1.5,1 C1.1,1 0.7,0.8 0.4,0.5 C0.7,0.2 1.1,0 1.5,0 C1.9,0 2.3,0.2 2.6,0.5 C2.8,0.8 3,1.1 3,1.5 C3,1.9 2.8,2.2 2.6,2.5 C2.3,2.8 1.9,3 1.5,3 C1.2,3 1,3.2 1,3.5 Z" id="Path"></path>
                </g>
                <g id="Untitled-1-Copy-2" transform="translate(0.500000, 8.000000)">
                    <path d="M1,3.5 C1,3.8 1.2,4 1.5,4 C1.9,4 2.3,4.2 2.6,4.5 C2.3,4.8 1.9,5 1.5,5 C1.1,5 0.7,4.8 0.4,4.5 C0.2,4.2 0,3.9 0,3.5 C0,3.1 0.2,2.8 0.4,2.5 C0.7,2.2 1.1,2 1.5,2 C1.8,2 2,1.8 2,1.5 C2,1.2 1.8,1 1.5,1 C1.1,1 0.7,0.8 0.4,0.5 C0.7,0.2 1.1,0 1.5,0 C1.9,0 2.3,0.2 2.6,0.5 C2.8,0.8 3,1.1 3,1.5 C3,1.9 2.8,2.2 2.6,2.5 C2.3,2.8 1.9,3 1.5,3 C1.2,3 1,3.2 1,3.5 Z" id="Path"></path>
                </g>
            </g>
            <path d="M2,0 L6,0 C7.1045695,-2.02906125e-16 8,0.8954305 8,2 L8,3 L8,3 L0,3 L0,2 C-1.3527075e-16,0.8954305 0.8954305,2.02906125e-16 2,0 Z" id="Rectangle" fill="url(#linearGradient-1)"></path>
        </g>
        <rect id="Rectangle-Copy-7" fill="url(#linearGradient-2)" x="6" y="0.1735" width="10" height="10" rx="2"></rect>
        <path d="M11.3043316,4.61328125 C11.7600631,4.61328125 12.1205738,4.52213633 12.3858746,4.33984375 C12.6511754,4.15755117 12.7838238,3.82877842 12.7838238,3.35351562 C12.7838238,2.84244536 12.5982788,2.49414155 12.2271832,2.30859375 C12.0286145,2.21093701 11.7633177,2.16210938 11.4312848,2.16210938 L9.05823789,2.16210938 L9.05823789,4.61328125 L11.3043316,4.61328125 Z M8.0865582,1.32714844 L11.4068707,1.32714844 C11.9537484,1.32714844 12.4045903,1.40690024 12.7594098,1.56640625 C13.4332413,1.87239736 13.7701519,2.43717036 13.7701519,3.26074219 C13.7701519,3.69043184 13.6814484,4.04199082 13.5040387,4.31542969 C13.3266289,4.58886855 13.0784218,4.80859292 12.7594098,4.97460938 C13.0393591,5.08854224 13.2501317,5.23828032 13.391734,5.42382812 C13.5333363,5.60937593 13.6122743,5.91047969 13.6285504,6.32714844 L13.6627301,7.2890625 C13.6724957,7.56250137 13.695282,7.76594985 13.7310894,7.89941406 C13.7896835,8.12727979 13.8938491,8.2737627 14.0435894,8.33886719 L14.0435894,8.5 L12.8521832,8.5 C12.819631,8.43815073 12.7935895,8.35839893 12.7740582,8.26074219 C12.7545269,8.16308545 12.738251,7.97428525 12.7252301,7.69433594 L12.6666363,6.49804688 C12.6438498,6.02929453 12.4696978,5.71517007 12.1441754,5.55566406 C11.9586276,5.467773 11.6672894,5.42382812 11.2701519,5.42382812 L9.05823789,5.42382812 L9.05823789,8.5 L8.0865582,8.5 L8.0865582,1.32714844 Z" id="R" fill="#FFFFFF" fill-rule="nonzero"></path>
    </g>
</svg>