<?xml version="1.0" encoding="UTF-8"?>
<svg width="32px" height="32px" viewBox="0 0 32 32" version="1.1" xmlns="http://www.w3.org/2000/svg" xmlns:xlink="http://www.w3.org/1999/xlink">
    <title>restore_project_wi_python_32x32</title>
    <defs>
        <linearGradient x1="50%" y1="3.49530347%" x2="50%" y2="582.132346%" id="linearGradient-1">
            <stop stop-color="#1AAAFF" offset="0%"></stop>
            <stop stop-color="#0077BE" offset="100%"></stop>
        </linearGradient>
        <linearGradient x1="50%" y1="-19.7877253%" x2="50%" y2="100%" id="linearGradient-2">
            <stop stop-color="#1AAAFF" offset="0%"></stop>
            <stop stop-color="#0077BE" offset="100%"></stop>
        </linearGradient>
        <linearGradient x1="29.2626191%" y1="94.4483885%" x2="62.4469254%" y2="3.40893414%" id="linearGradient-3">
            <stop stop-color="#00CC21" offset="0%"></stop>
            <stop stop-color="#00962D" offset="100%"></stop>
        </linearGradient>
        <linearGradient x1="50%" y1="3.49530347%" x2="50%" y2="100%" id="linearGradient-4">
            <stop stop-color="#1AAAFF" offset="0%"></stop>
            <stop stop-color="#0077BE" offset="100%"></stop>
        </linearGradient>
        <linearGradient x1="50%" y1="3.49530347%" x2="50%" y2="100%" id="linearGradient-5">
            <stop stop-color="#1AAAFF" offset="0%"></stop>
            <stop stop-color="#0077BE" offset="100%"></stop>
        </linearGradient>
        <linearGradient x1="50%" y1="3.49530347%" x2="50%" y2="100%" id="linearGradient-6">
            <stop stop-color="#1AAAFF" offset="0%"></stop>
            <stop stop-color="#0077BE" offset="100%"></stop>
        </linearGradient>
    </defs>
    <g id="restore_project_wi_python_32x32" stroke="none" stroke-width="1" fill="none" fill-rule="evenodd">
        <g id="Group" transform="translate(1.000000, 2.000000)">
            <g id="Group-2">
                <path d="M2,0.5 L17,0.5 C18.1045695,0.5 19,1.3954305 19,2.5 L19,4.5 L19,4.5 L0,4.5 L0,2.5 C-1.3527075e-16,1.3954305 0.8954305,0.5 2,0.5 Z" id="Rectangle-7" fill="url(#linearGradient-1)"></path>
                <path d="M22,4.5 C22.4142136,4.5 22.7892136,4.66789322 23.0606602,4.93933983 C23.3321068,5.21078644 23.5,5.58578644 23.5,6 L23.5,6 L23.5,20 C23.5,20.4142136 23.3321068,20.7892136 23.0606602,21.0606602 C22.7892136,21.3321068 22.4142136,21.5 22,21.5 L22,21.5 L2,21.5 C1.58578644,21.5 1.21078644,21.3321068 0.939339828,21.0606602 C0.667893219,20.7892136 0.5,20.4142136 0.5,20 L0.5,20 L0.5,4.5 Z" id="Rectangle-7-Copy-7" stroke="url(#linearGradient-2)"></path>
            </g>
            <path d="" id="Path-5" stroke="#979797"></path>
        </g>
        <circle id="Oval" stroke="#FFFFFF" fill="#FFFFFF" transform="translate(24.000000, 23.000000) rotate(-180.000000) translate(-24.000000, -23.000000) " cx="24" cy="23" r="8.5"></circle>
        <circle id="Oval" stroke="url(#linearGradient-3)" fill="#FFFFFF" transform="translate(24.000000, 23.000000) rotate(-180.000000) translate(-24.000000, -23.000000) " cx="24" cy="23" r="6.5"></circle>
        <rect id="Rectangle" fill="#FFFFFF" x="16" y="21" width="4" height="5"></rect>
        <polygon id="Path" fill="#0FB240" points="21 21 17 21 17 17 18.36 18.36 19.48 19.48"></polygon>
        <rect id="Rectangle-Copy-2" fill="#0FB240" x="23" y="23" width="5" height="1" rx="0.5"></rect>
        <rect id="Rectangle-Copy-2" fill="#0FB240" transform="translate(23.500000, 22.000000) rotate(-90.000000) translate(-23.500000, -22.000000) " x="21.5" y="21.5" width="4" height="1" rx="0.5"></rect>
        <rect id="Rectangle" fill="url(#linearGradient-4)" x="5" y="11" width="11" height="1" rx="0.5"></rect>
        <rect id="Rectangle-Copy" fill="url(#linearGradient-5)" x="5" y="15" width="7" height="1" rx="0.5"></rect>
        <rect id="Rectangle-Copy-2" fill="url(#linearGradient-6)" x="5" y="19" width="4" height="1" rx="0.5"></rect>
    </g>
</svg>