<?xml version="1.0" encoding="UTF-8"?>
<svg width="16px" height="16px" viewBox="0 0 16 16" version="1.1" xmlns="http://www.w3.org/2000/svg" xmlns:xlink="http://www.w3.org/1999/xlink">
    <title>reverse_dis_off_16x16</title>
    <g id="reverse_dis_off_16x16" stroke="none" stroke-width="1" fill="none" fill-rule="evenodd">
        <path d="M6.994,2.136 L6.99515945,2.13890932 L7,2.20431086 L7,14.0382773 L1.95736761,14.0382773 C1.89802547,13.992226 1.85473128,13.9426574 1.83141399,13.8874934 C1.80802403,13.8321576 1.81419929,13.7751497 1.83599824,13.7261787 L1.83599824,13.7261787 L6.994,2.136 Z" id="Fill-3" stroke="#BFBFBF"></path>
        <path d="M8.94379236,2.01832986 C8.9571332,2.02849067 8.96464105,2.04589113 8.97242618,2.06338032 L8.97242618,2.06338032 L14.1640018,13.7261787 C14.1936973,13.7928892 14.1980271,13.8694647 14.1850056,13.9388448 C14.184472,13.9416877 14.1839305,13.9445496 14.1833747,13.9474229 L14.1833747,13.9474229 L9,14.0302261 L9,2.20431086 L8.83723257,2.15823968 C8.83723257,2.15823968 8.92452963,2.00365875 8.94379236,2.01832986 Z" id="Fill-3" stroke="#A1A1A1" fill-opacity="0.42017663" fill="#B9B9B9"></path>
    </g>
</svg>