<?xml version="1.0" encoding="UTF-8"?>
<svg width="16px" height="16px" viewBox="0 0 16 16" version="1.1" xmlns="http://www.w3.org/2000/svg" xmlns:xlink="http://www.w3.org/1999/xlink">
    <title>round_16x16</title>
    <defs>
        <linearGradient x1="25.5187587%" y1="66.6449361%" x2="113.770488%" y2="21.4843663%" id="linearGradient-1">
            <stop stop-color="#F16464" offset="0%"></stop>
            <stop stop-color="#F79494" offset="54.49984%"></stop>
            <stop stop-color="#FFD3D3" offset="100%"></stop>
        </linearGradient>
        <path d="M3.26953125,3.52291521 C3.90299796,3.52291521 4.36100119,3.78381755 4.64355469,4.30563005 C4.86230578,4.70895238 4.97167969,5.26151847 4.97167969,5.96334489 C4.97167969,6.6287128 4.87255958,7.17900027 4.67431641,7.6142238 C4.3872056,8.23857588 3.91780925,8.55074724 3.26611328,8.55074724 C2.67821972,8.55074724 2.24072409,8.29554146 1.95361328,7.78512224 C1.71435427,7.35901334 1.59472656,6.78707895 1.59472656,6.06930193 C1.59472656,5.51330956 1.66650319,5.03593803 1.81005859,4.63717302 C2.07894015,3.89433076 2.56542617,3.52291521 3.26953125,3.52291521 Z M3.26269531,7.99020036 C3.58170732,7.99020036 3.83577379,7.84892573 4.02490234,7.56637224 C4.21403089,7.28381874 4.30859375,6.75745682 4.30859375,5.98727068 C4.30859375,5.43127831 4.24023506,4.97384474 4.10351562,4.61495622 C3.96679619,4.25606771 3.70133661,4.07662614 3.30712891,4.07662614 C2.94482241,4.07662614 2.67993248,4.24695322 2.51245117,4.58761247 C2.34496987,4.92827173 2.26123047,5.43013845 2.26123047,6.09322771 C2.26123047,6.59225364 2.31477811,6.9932913 2.421875,7.29635271 C2.58593832,7.75892012 2.86620896,7.99020036 3.26269531,7.99020036 Z M5.8671875,7.67232927 L6.58154297,7.67232927 L6.58154297,8.41744646 L5.8671875,8.41744646 L5.8671875,7.67232927 Z M9.10742188,3.52291521 C9.74088858,3.52291521 10.1988918,3.78381755 10.4814453,4.30563005 C10.7001964,4.70895238 10.8095703,5.26151847 10.8095703,5.96334489 C10.8095703,6.6287128 10.7104502,7.17900027 10.512207,7.6142238 C10.2250962,8.23857588 9.75569987,8.55074724 9.10400391,8.55074724 C8.51611034,8.55074724 8.07861472,8.29554146 7.79150391,7.78512224 C7.5522449,7.35901334 7.43261719,6.78707895 7.43261719,6.06930193 C7.43261719,5.51330956 7.50439381,5.03593803 7.64794922,4.63717302 C7.91683077,3.89433076 8.40331679,3.52291521 9.10742188,3.52291521 Z M9.10058594,7.99020036 C9.41959795,7.99020036 9.67366442,7.84892573 9.86279297,7.56637224 C10.0519215,7.28381874 10.1464844,6.75745682 10.1464844,5.98727068 C10.1464844,5.43127831 10.0781257,4.97384474 9.94140625,4.61495622 C9.80468682,4.25606771 9.53922723,4.07662614 9.14501953,4.07662614 C8.78271303,4.07662614 8.5178231,4.24695322 8.3503418,4.58761247 C8.18286049,4.92827173 8.09912109,5.43013845 8.09912109,6.09322771 C8.09912109,6.59225364 8.15266874,6.9932913 8.25976562,7.29635271 C8.42382895,7.75892012 8.70409958,7.99020036 9.10058594,7.99020036 Z M13.0004883,3.52291521 C13.633955,3.52291521 14.0919582,3.78381755 14.3745117,4.30563005 C14.5932628,4.70895238 14.7026367,5.26151847 14.7026367,5.96334489 C14.7026367,6.6287128 14.6035166,7.17900027 14.4052734,7.6142238 C14.1181626,8.23857588 13.6487663,8.55074724 12.9970703,8.55074724 C12.4091767,8.55074724 11.9716811,8.29554146 11.6845703,7.78512224 C11.4453113,7.35901334 11.3256836,6.78707895 11.3256836,6.06930193 C11.3256836,5.51330956 11.3974602,5.03593803 11.5410156,4.63717302 C11.8098972,3.89433076 12.2963832,3.52291521 13.0004883,3.52291521 Z M12.9936523,7.99020036 C13.3126644,7.99020036 13.5667308,7.84892573 13.7558594,7.56637224 C13.9449879,7.28381874 14.0395508,6.75745682 14.0395508,5.98727068 C14.0395508,5.43127831 13.9711921,4.97384474 13.8344727,4.61495622 C13.6977532,4.25606771 13.4322936,4.07662614 13.0380859,4.07662614 C12.6757794,4.07662614 12.4108895,4.24695322 12.2434082,4.58761247 C12.0759269,4.92827173 11.9921875,5.43013845 11.9921875,6.09322771 C11.9921875,6.59225364 12.0457351,6.9932913 12.152832,7.29635271 C12.3168954,7.75892012 12.597166,7.99020036 12.9936523,7.99020036 Z" id="path-2"></path>
    </defs>
    <g id="round_16x16" stroke="none" stroke-width="1" fill="none" fill-rule="evenodd">
        <polygon id="Fill-22" fill="#0077BE" points="1.03955935 13.5 3.04550641 11.5 3.04550641 15.5"></polygon>
        <polygon id="Fill-21" fill="#0077BE" points="6 14.5 2.56243311 14.5 2.56243311 12.5 6 12.5"></polygon>
        <polygon id="Fill-22" fill="#0077BE" points="15.0188645 13.5 13.0188645 15.5340704 13.0188645 11.4659296"></polygon>
        <polygon id="Fill-21" fill="#0077BE" points="10 12.5 13.0188645 12.5 13.0188645 14.5 10 14.5"></polygon>
        <rect id="Rectangle-Copy" fill="url(#linearGradient-1)" x="0" y="1" width="16" height="10" rx="2"></rect>
        <g id="0.00" fill-rule="nonzero" fill="#FFFFFF">
            <use xlink:href="#path-2"></use>
            <use xlink:href="#path-2"></use>
        </g>
    </g>
</svg>