<?xml version="1.0" encoding="UTF-8"?>
<svg width="16px" height="16px" viewBox="0 0 16 16" version="1.1" xmlns="http://www.w3.org/2000/svg" xmlns:xlink="http://www.w3.org/1999/xlink">
    <title>rt_rxo_16x16</title>
    <defs>
        <linearGradient x1="50%" y1="3.49530347%" x2="50%" y2="100%" id="linearGradient-1">
            <stop stop-color="#1AAAFF" offset="0%"></stop>
            <stop stop-color="#0077BE" offset="100%"></stop>
        </linearGradient>
        <linearGradient x1="25.5187587%" y1="92.6110365%" x2="76.7029485%" y2="8.20085208%" id="linearGradient-2">
            <stop stop-color="#F16464" offset="0%"></stop>
            <stop stop-color="#F79494" offset="54.49984%"></stop>
            <stop stop-color="#FFD3D3" offset="100%"></stop>
        </linearGradient>
        <linearGradient x1="25.5187587%" y1="92.6110365%" x2="126.894402%" y2="-16.5999945%" id="linearGradient-3">
            <stop stop-color="#F16464" offset="0%"></stop>
            <stop stop-color="#F79494" offset="54.49984%"></stop>
            <stop stop-color="#FFD3D3" offset="100%"></stop>
        </linearGradient>
    </defs>
    <g id="rt_rxo_16x16" stroke="none" stroke-width="1" fill="none" fill-rule="evenodd">
        <g id="Group">
            <polygon id="Fill-1" fill="#0477BD" points="0 16 1 16 1 0 0 0"></polygon>
            <circle id="Oval-Copy-21" fill="url(#linearGradient-1)" cx="3" cy="13" r="1"></circle>
            <circle id="Oval-Copy-22" fill="url(#linearGradient-1)" cx="7" cy="12" r="1"></circle>
            <circle id="Oval-Copy-23" fill="url(#linearGradient-2)" cx="4" cy="9" r="1"></circle>
            <circle id="Oval-Copy-24" fill="url(#linearGradient-2)" cx="11" cy="13" r="1"></circle>
            <circle id="Oval-Copy-25" fill="url(#linearGradient-1)" cx="3" cy="5" r="1"></circle>
            <g id="Group-Copy" transform="translate(6.000000, 0.000000)">
                <rect id="Rectangle-Copy-7" fill="url(#linearGradient-3)" x="0" y="0" width="10" height="10" rx="2"></rect>
                <path d="M5.11607143,4.82845312 C5.52622973,4.82845312 5.85068938,4.7464227 6.0894601,4.58235937 C6.32823083,4.41829605 6.4476144,4.12239844 6.4476144,3.69466406 C6.4476144,3.23470083 6.28062388,2.9212274 5.94663783,2.75423437 C5.767926,2.66634331 5.52915886,2.62239844 5.23032924,2.62239844 L3.09458705,2.62239844 L3.09458705,4.82845312 L5.11607143,4.82845312 Z M2.22007533,1.87093359 L5.20835658,1.87093359 C5.70054655,1.87093359 6.10630421,1.94271022 6.42564174,2.08626562 C7.03209009,2.36165763 7.33530971,2.86995333 7.33530971,3.61116797 C7.33530971,3.99788865 7.25547652,4.31429174 7.09580776,4.56038672 C6.93613899,4.8064817 6.71275255,5.00423363 6.42564174,5.15364844 C6.67759613,5.25618801 6.86729149,5.39095229 6.99473354,5.55794531 C7.12217558,5.72493833 7.19321979,5.99593172 7.2078683,6.37093359 L7.23863002,7.23665625 C7.24741913,7.48275123 7.26792674,7.66585487 7.30015346,7.78597266 C7.3528881,7.99105181 7.44663716,8.12288643 7.58140346,8.18148047 L7.58140346,8.3265 L6.50913783,8.3265 C6.47984081,8.27083566 6.45640355,8.19905903 6.43882533,8.11116797 C6.42124712,8.0232769 6.40659883,7.85335673 6.39488002,7.60140234 L6.34214565,6.52474219 C6.32163773,6.10286508 6.16490102,5.82015306 5.8719308,5.67659766 C5.70493778,5.5974957 5.44273337,5.55794531 5.08530971,5.55794531 L3.09458705,5.55794531 L3.09458705,8.3265 L2.22007533,8.3265 L2.22007533,1.87093359 Z" id="R" fill="#FFFFFF" fill-rule="nonzero"></path>
            </g>
            <polygon id="Fill-2" fill="#0477BD" points="1 16 16 16 16 15 1 15"></polygon>
        </g>
    </g>
</svg>