<?xml version="1.0" encoding="UTF-8"?>
<svg width="16px" height="16px" viewBox="0 0 16 16" version="1.1" xmlns="http://www.w3.org/2000/svg" xmlns:xlink="http://www.w3.org/1999/xlink">
    <title>saturation_height_function_16x16</title>
    <defs>
        <linearGradient x1="50%" y1="3.49530347%" x2="50%" y2="100%" id="linearGradient-1">
            <stop stop-color="#7DCEFF" stop-opacity="0.560886549" offset="0%"></stop>
            <stop stop-color="#0077BE" stop-opacity="0.653532609" offset="100%"></stop>
        </linearGradient>
        <linearGradient x1="50%" y1="3.49530347%" x2="50%" y2="100%" id="linearGradient-2">
            <stop stop-color="#7CCEFF" offset="0%"></stop>
            <stop stop-color="#006DAF" offset="100%"></stop>
        </linearGradient>
        <linearGradient x1="25.5187587%" y1="72.5380689%" x2="112.066854%" y2="-3.96671377%" id="linearGradient-3">
            <stop stop-color="#F16464" offset="0%"></stop>
            <stop stop-color="#F79494" offset="54.49984%"></stop>
            <stop stop-color="#FFD3D3" offset="100%"></stop>
        </linearGradient>
    </defs>
    <g id="saturation_height_function_16x16" stroke="none" stroke-width="1" fill="none" fill-rule="evenodd">
        <rect id="Rectangle" stroke="#0077BE" fill="url(#linearGradient-1)" opacity="0.659179688" x="0.5" y="0.5" width="12" height="12" rx="2"></rect>
        <path d="M2,0 L7.87822758,0 L7.87822758,0 C8.0647931,3.30621786 7.50155689,5.75921821 6.18851896,7.35900104 C4.87548103,8.95878388 2.81264138,9.7053492 0,9.59869701 L0,2 C-1.3527075e-16,0.8954305 0.8954305,2.02906125e-16 2,0 Z" id="Rectangle" fill="url(#linearGradient-2)"></path>
        <rect id="Rectangle" stroke="#0077BE" x="0.5" y="0.5" width="12" height="12" rx="2"></rect>
        <g id="Group-3" transform="translate(3.500000, 7.000000)">
            <g id="Group" transform="translate(0.259359, 0.000000)" fill="url(#linearGradient-3)" stroke="#FFFFFF">
                <rect id="Rectangle-Copy-7" x="-0.259358562" y="-0.5" width="12" height="9" rx="2"></rect>
            </g>
            <path d="M1.99804688,1.78222656 C2.0071615,1.52701695 2.05159465,1.34016986 2.13134766,1.22167969 C2.27490306,1.01204322 2.55175576,0.907226562 2.96191406,0.907226562 C3.00065124,0.907226562 3.04052714,0.908365874 3.08154297,0.910644531 C3.1225588,0.912923188 3.16927057,0.916341123 3.22167969,0.920898438 L3.22167969,1.48144531 C3.15787729,1.476888 3.11173517,1.47403972 3.08325195,1.47290039 C3.05476874,1.47176106 3.02799492,1.47119141 3.00292969,1.47119141 C2.81607979,1.47119141 2.70442727,1.51961215 2.66796875,1.61645508 C2.63151023,1.71329801 2.61328125,1.95995896 2.61328125,2.35644531 L3.22167969,2.35644531 L3.22167969,2.84179688 L2.60644531,2.84179688 L2.60644531,6 L1.99804688,6 L1.99804688,2.84179688 L1.48876953,2.84179688 L1.48876953,2.35644531 L1.99804688,2.35644531 L1.99804688,1.78222656 Z M5.40917969,0.896972656 C5.0514305,1.59196311 4.81901095,2.10351398 4.71191406,2.43164062 C4.5501294,2.93066656 4.46923828,3.50715819 4.46923828,4.16113281 C4.46923828,4.82194341 4.56152251,5.42577852 4.74609375,5.97265625 C4.86002661,6.30989752 5.08447098,6.79524423 5.41943359,7.42871094 L5.00585938,7.42871094 C4.67317542,6.90917709 4.46696003,6.57763744 4.38720703,6.43408203 C4.30745403,6.29052663 4.22086635,6.09570436 4.12744141,5.84960938 C3.9998366,5.51236811 3.9109703,5.15234566 3.86083984,4.76953125 C3.83577461,4.57128807 3.82324219,4.38216236 3.82324219,4.20214844 C3.82324219,3.5276659 3.92919816,2.92724873 4.14111328,2.40087891 C4.27555406,2.06591629 4.55582469,1.56461922 4.98193359,0.896972656 L5.40917969,0.896972656 Z M5.77148438,2.33935547 L6.56787109,2.33935547 L7.40869141,3.62792969 L8.25976562,2.33935547 L9.00830078,2.35644531 L7.77441406,4.12353516 L9.06298828,6 L8.27685547,6 L7.36767578,4.62597656 L6.48583984,6 L5.70654297,6 L6.99511719,4.12353516 L5.77148438,2.33935547 Z M9.41162109,7.42871094 C9.77392759,6.7223272 10.0074865,6.20735839 10.1123047,5.88378906 C10.2718107,5.39387776 10.3515625,4.81966475 10.3515625,4.16113281 C10.3515625,3.50260087 10.2592783,2.89990508 10.074707,2.35302734 C9.96077417,2.01578607 9.7363298,1.53043937 9.40136719,0.896972656 L9.81494141,0.896972656 C10.1658546,1.45752233 10.3783362,1.80330338 10.4523926,1.93432617 C10.5264489,2.06534896 10.6067704,2.24592984 10.6933594,2.47607422 C10.8027349,2.76090637 10.8807778,3.04231632 10.9274902,3.3203125 C10.9742027,3.59830868 10.9975586,3.86604689 10.9975586,4.12353516 C10.9975586,4.7980177 10.8904633,5.39957418 10.6762695,5.92822266 C10.5418288,6.26774258 10.2626974,6.76790034 9.83886719,7.42871094 L9.41162109,7.42871094 Z" id="f(x)" fill="#FFFFFF" fill-rule="nonzero"></path>
        </g>
    </g>
</svg>