<?xml version="1.0" encoding="UTF-8"?>
<svg width="32px" height="32px" viewBox="0 0 32 32" version="1.1" xmlns="http://www.w3.org/2000/svg" xmlns:xlink="http://www.w3.org/1999/xlink">
    <title>saturation_height_function_32x32</title>
    <defs>
        <linearGradient x1="50%" y1="3.49530347%" x2="50%" y2="100%" id="linearGradient-1">
            <stop stop-color="#7DCEFF" stop-opacity="0.560886549" offset="0%"></stop>
            <stop stop-color="#0077BE" stop-opacity="0.653532609" offset="100%"></stop>
        </linearGradient>
        <linearGradient x1="50%" y1="3.49530347%" x2="50%" y2="100%" id="linearGradient-2">
            <stop stop-color="#7CCEFF" offset="0%"></stop>
            <stop stop-color="#006DAF" offset="100%"></stop>
        </linearGradient>
        <linearGradient x1="25.5187587%" y1="69.948103%" x2="112.066854%" y2="2.23488011%" id="linearGradient-3">
            <stop stop-color="#F16464" offset="0%"></stop>
            <stop stop-color="#F79494" offset="54.49984%"></stop>
            <stop stop-color="#FFD3D3" offset="100%"></stop>
        </linearGradient>
    </defs>
    <g id="saturation_height_function_32x32" stroke="none" stroke-width="1" fill="none" fill-rule="evenodd">
        <rect id="Rectangle" stroke="#0077BE" fill="url(#linearGradient-1)" opacity="0.659179688" x="2.5" y="2.5" width="22" height="22" rx="2"></rect>
        <path d="M4,2 L15.9384026,2 L15.9384026,2 C16.2684801,7.84946237 15.2719853,12.1893861 12.9489182,15.0197711 C10.6258511,17.8501561 6.97621167,19.1710024 2,18.9823101 L2,4 C2,2.8954305 2.8954305,2 4,2 Z" id="Rectangle" fill="url(#linearGradient-2)"></path>
        <rect id="Rectangle" stroke="#0077BE" x="2.5" y="2.5" width="22" height="22" rx="2"></rect>
        <g id="Group-3" transform="translate(11.000000, 17.000000)">
            <g id="Group" transform="translate(0.690230, 0.249430)" fill="url(#linearGradient-3)" stroke="#FFFFFF">
                <rect id="Rectangle-Copy-7" x="-0.190229571" y="0.250569989" width="20" height="14" rx="2"></rect>
            </g>
            <path d="M3.2109375,3.76953125 C3.22656258,3.33202906 3.30273369,3.01171977 3.43945312,2.80859375 C3.68554811,2.44921695 4.16015273,2.26953125 4.86328125,2.26953125 C4.92968783,2.26953125 4.99804652,2.27148436 5.06835938,2.27539062 C5.13867223,2.27929689 5.21874955,2.28515621 5.30859375,2.29296875 L5.30859375,3.25390625 C5.1992182,3.24609371 5.12011743,3.24121095 5.07128906,3.23925781 C5.02246069,3.23730468 4.97656271,3.23632812 4.93359375,3.23632812 C4.61327965,3.23632812 4.42187531,3.31933511 4.359375,3.48535156 C4.29687469,3.65136802 4.265625,4.07421535 4.265625,4.75390625 L5.30859375,4.75390625 L5.30859375,5.5859375 L4.25390625,5.5859375 L4.25390625,11 L3.2109375,11 L3.2109375,5.5859375 L2.33789062,5.5859375 L2.33789062,4.75390625 L3.2109375,4.75390625 L3.2109375,3.76953125 Z M9.05859375,2.25195312 C8.44530943,3.44336533 8.04687592,4.32030969 7.86328125,4.8828125 C7.58593611,5.73828553 7.44726562,6.72655689 7.44726562,7.84765625 C7.44726562,8.98047441 7.60546717,10.0156203 7.921875,10.953125 C8.11718848,11.5312529 8.50195025,12.3632758 9.07617188,13.4492188 L8.3671875,13.4492188 C7.79687215,12.5585893 7.44336006,11.9902356 7.30664062,11.7441406 C7.16992119,11.4980456 7.02148518,11.1640646 6.86132812,10.7421875 C6.64257703,10.1640596 6.4902348,9.54687828 6.40429688,8.890625 C6.36132791,8.55077955 6.33984375,8.22656404 6.33984375,7.91796875 C6.33984375,6.76171297 6.52148256,5.73242639 6.88476562,4.83007812 C7.11523553,4.2558565 7.59569947,3.3964901 8.32617188,2.25195312 L9.05859375,2.25195312 Z M9.6796875,4.72460938 L11.0449219,4.72460938 L12.4863281,6.93359375 L13.9453125,4.72460938 L15.2285156,4.75390625 L13.1132812,7.78320312 L15.3222656,11 L13.9746094,11 L12.4160156,8.64453125 L10.9042969,11 L9.56835938,11 L11.7773438,7.78320312 L9.6796875,4.72460938 Z M15.9199219,13.4492188 C16.5410187,12.2382752 16.9414054,11.3554715 17.1210938,10.8007812 C17.3945326,9.9609333 17.53125,8.97656814 17.53125,7.84765625 C17.53125,6.71874436 17.3730485,5.68555156 17.0566406,4.74804688 C16.8613271,4.16991898 16.4765654,3.33789605 15.9023438,2.25195312 L16.6113281,2.25195312 C17.2128936,3.21289543 17.5771478,3.80566294 17.7041016,4.03027344 C17.8310553,4.25488394 17.9687493,4.56445115 18.1171875,4.95898438 C18.3046884,5.44726807 18.4384762,5.92968512 18.5185547,6.40625 C18.5986332,6.88281488 18.6386719,7.34179467 18.6386719,7.78320312 C18.6386719,8.93945891 18.45508,9.97069859 18.0878906,10.8769531 C17.8574207,11.4589873 17.3789099,12.3164006 16.6523438,13.4492188 L15.9199219,13.4492188 Z" id="f(x)" fill="#FFFFFF" fill-rule="nonzero"></path>
        </g>
    </g>
</svg>