<?xml version="1.0" encoding="UTF-8"?>
<svg width="16px" height="16px" viewBox="0 0 16 16" version="1.1" xmlns="http://www.w3.org/2000/svg" xmlns:xlink="http://www.w3.org/1999/xlink">
    <title>savisky_golay_filter_16x16</title>
    <defs>
        <linearGradient x1="100%" y1="24.3370259%" x2="50%" y2="72.2222222%" id="linearGradient-1">
            <stop stop-color="#F99D9D" offset="0%"></stop>
            <stop stop-color="#F16464" offset="100%"></stop>
        </linearGradient>
    </defs>
    <g id="savisky_golay_filter_16x16" stroke="none" stroke-width="1" fill="none" fill-rule="evenodd">
        <rect id="Rectangle" fill="#0077BE" x="0.5" y="7.5" width="8" height="1"></rect>
        <polygon id="Rectangle" fill="#0077BE" points="0.5 9.5 8.5 9.5 5.64285714 12.86 5.64285714 15.5 3.35714286 15.5 3.35714286 12.86"></polygon>
        <g id="Group-Copy" transform="translate(4.000000, 0.500000)">
            <rect id="Rectangle-Copy-7" stroke="#FFFFFF" fill="url(#linearGradient-1)" x="-0.5" y="-0.5" width="13" height="9" rx="2"></rect>
            <path d="M1.79234096,5.20638281 C1.80829156,5.49121497 1.87551094,5.72249521 1.99400112,5.90023047 C2.21958818,6.23291442 2.6172079,6.39925391 3.18687221,6.39925391 C3.44208182,6.39925391 3.67450137,6.36279594 3.88413783,6.28987891 C4.28973882,6.14860216 4.49253627,5.895675 4.49253627,5.53108984 C4.49253627,5.25765098 4.40708791,5.06282871 4.23618862,4.94661719 C4.06301067,4.83268433 3.79185452,4.73356422 3.42271205,4.64925391 L2.74253627,4.49544531 C2.29819811,4.39518439 1.98374813,4.28467118 1.7991769,4.16390234 C1.48016489,3.95426588 1.32066127,3.64095521 1.32066127,3.22396094 C1.32066127,2.77278681 1.47674695,2.40251056 1.78892299,2.11312109 C2.10109903,1.82373163 2.5431519,1.67903906 3.11509487,1.67903906 C3.64146469,1.67903906 4.08864446,1.8060723 4.4566476,2.06014258 C4.82465074,2.31421286 5.00864955,2.72037742 5.00864955,3.27864844 L4.3694894,3.27864844 C4.33530954,3.00976688 4.2623936,2.8035515 4.1507394,2.65999609 C3.94338159,2.39795051 3.59133433,2.26692969 3.09458705,2.26692969 C2.69354338,2.26692969 2.40529757,2.35123874 2.22984096,2.51985938 C2.05438435,2.68848001 1.96665737,2.88444159 1.96665737,3.10775 C1.96665737,3.35384498 2.0691954,3.5338562 2.27427455,3.64778906 C2.40871533,3.72070609 2.71291151,3.81185102 3.18687221,3.92122656 L3.89097377,4.08187109 C4.2304937,4.15934544 4.49253535,4.26530141 4.67710658,4.39974219 C4.9961186,4.63444388 5.15562221,4.97509803 5.15562221,5.42171484 C5.15562221,5.97770721 4.95339441,6.37532693 4.54893276,6.61458594 C4.1444711,6.85384495 3.6745051,6.97347266 3.13902065,6.97347266 C2.51466857,6.97347266 2.02590392,6.81396904 1.67271205,6.49495703 C1.31952018,6.17822368 1.14634483,5.74870323 1.1531808,5.20638281 L1.79234096,5.20638281 Z M8.18736049,1.67562109 C8.65904254,1.67562109 9.06691606,1.76676602 9.4109933,1.94905859 C9.91001924,2.21110417 10.2153547,2.67024672 10.3270089,3.3265 L9.65366908,3.3265 C9.57163742,2.95963619 9.40188001,2.69246763 9.14439174,2.52498633 C8.88690347,2.35750502 8.56219969,2.27376563 8.17027065,2.27376563 C7.70542457,2.27376563 7.31407106,2.44808029 6.99619838,2.79671484 C6.6783257,3.1453494 6.51939174,3.66487545 6.51939174,4.35530859 C6.51939174,4.95231679 6.65041257,5.43823315 6.91245815,5.81307227 C7.17450373,6.18791138 7.60174555,6.37532813 8.19419643,6.37532813 C8.64764922,6.37532813 9.02305236,6.24373764 9.32041713,5.98055273 C9.6177819,5.71736782 9.76987999,5.29183497 9.77671596,4.70394141 L8.20445033,4.70394141 L8.20445033,4.13997656 L10.4090402,4.13997656 L10.4090402,6.8265 L9.97154018,6.8265 L9.80747768,6.18050391 C9.5773333,6.43343486 9.37339654,6.60888883 9.19566127,6.70687109 C8.89715718,6.87549173 8.51776644,6.95980078 8.05747768,6.95980078 C7.46274814,6.95980078 6.95119727,6.76725713 6.52280971,6.38216406 C6.05568498,5.89908873 5.82212612,5.23600942 5.82212612,4.39290625 C5.82212612,3.55208173 6.04998842,2.88330587 6.50571987,2.38655859 C6.93866474,1.91259789 7.49920601,1.67562109 8.18736049,1.67562109 Z" id="SG" fill="#FFFFFF" fill-rule="nonzero"></path>
        </g>
    </g>
</svg>