<?xml version="1.0" encoding="UTF-8"?>
<svg width="16px" height="16px" viewBox="0 0 16 16" version="1.1" xmlns="http://www.w3.org/2000/svg" xmlns:xlink="http://www.w3.org/1999/xlink">
    <title>scale_16x16</title>
    <defs>
        <linearGradient x1="7.14365927%" y1="47.8667285%" x2="100%" y2="47.8667285%" id="linearGradient-1">
            <stop stop-color="#F16464" offset="0%"></stop>
            <stop stop-color="#F79494" offset="54.49984%"></stop>
            <stop stop-color="#FFD3D3" offset="100%"></stop>
        </linearGradient>
    </defs>
    <g id="scale_16x16" stroke="none" stroke-width="1" fill="none" fill-rule="evenodd">
        <rect id="Rectangle-Copy-2" stroke="#0077BE" x="1.5" y="0.5" width="13" height="15" rx="2"></rect>
        <path d="M6.35130441,4.30473564 L9.14421185,7.13328931 C9.33823191,7.32978568 9.65480804,7.33179312 9.85130441,7.13777305 C9.94644732,7.04382917 10,6.91569214 10,6.7819849 L10,1.19622726 C10,0.920084885 9.77614237,0.696227259 9.5,0.696227259 C9.36850416,0.696227259 9.24230142,0.748027979 9.14872457,0.840410493 L6.35581677,3.59767205 C6.15927598,3.79164714 6.15724276,4.1082231 6.35124682,4.30473527 C6.35125636,4.30474493 6.3512659,4.30475459 6.35130441,4.30473564 Z" id="Fill-12-Copy" fill="url(#linearGradient-1)" transform="translate(8.000000, 4.000000) rotate(-270.000000) translate(-8.000000, -4.000000) "></path>
        <path d="M6.35130441,12.3047356 L9.14421185,15.1332893 C9.33823191,15.3297857 9.65480804,15.3317931 9.85130441,15.1377731 C9.94644732,15.0438292 10,14.9156921 10,14.7819849 L10,9.19622726 C10,8.92008488 9.77614237,8.69622726 9.5,8.69622726 C9.36850416,8.69622726 9.24230142,8.74802798 9.14872457,8.84041049 L6.35581677,11.5976721 C6.15927598,11.7916471 6.15724276,12.1082231 6.35124682,12.3047353 C6.35125636,12.3047449 6.3512659,12.3047546 6.35130441,12.3047356 Z" id="Fill-12-Copy" fill="url(#linearGradient-1)" transform="translate(8.000000, 12.000000) rotate(-90.000000) translate(-8.000000, -12.000000) "></path>
    </g>
</svg>