<?xml version="1.0" encoding="UTF-8"?>
<svg width="32px" height="32px" viewBox="0 0 32 32" version="1.1" xmlns="http://www.w3.org/2000/svg" xmlns:xlink="http://www.w3.org/1999/xlink">
    <title>scalar_operation_32x32</title>
    <defs>
        <linearGradient x1="61.5497821%" y1="15.6593998%" x2="38.8771191%" y2="90.579711%" id="linearGradient-1">
            <stop stop-color="#1AAAFF" offset="0%"></stop>
            <stop stop-color="#0077BE" offset="100%"></stop>
        </linearGradient>
        <linearGradient x1="25.5187587%" y1="69.948103%" x2="114.718621%" y2="26.5927978%" id="linearGradient-2">
            <stop stop-color="#F16464" offset="0%"></stop>
            <stop stop-color="#F79494" offset="54.49984%"></stop>
            <stop stop-color="#FFD3D3" offset="100%"></stop>
        </linearGradient>
    </defs>
    <g id="scalar_operation_32x32" stroke="none" stroke-width="1" fill="none" fill-rule="evenodd">
        <g id="Group" transform="translate(3.000000, 1.000000)">
            <path d="M5.45454545,1 C11.8181818,2.02667104 15,4.57212559 15,8.63636364 C15,17.1745538 1.50990331e-14,14.9867291 1.50990331e-14,22.6098095 C1.50990331e-14,25.5972092 1.81818182,27.7272727 5.45454545,29 L5.45454545,1 Z" id="Rectangle" fill="url(#linearGradient-1)"></path>
            <rect id="Rectangle-7-Copy-8" fill="#0077BE" x="5" y="0" width="1" height="30" rx="0.5"></rect>
        </g>
        <g id="Group-2" transform="translate(12.000000, 17.500000)">
            <g id="Group" fill="url(#linearGradient-2)" stroke="#FFFFFF">
                <rect id="Rectangle-Copy-7" x="-0.5" y="0" width="20" height="14" rx="2"></rect>
            </g>
            <path d="M1.87304688,3.51757812 C1.88867195,3.08007594 1.96484307,2.75976664 2.1015625,2.55664062 C2.34765748,2.19726383 2.82226211,2.01757812 3.52539062,2.01757812 C3.59179721,2.01757812 3.6601559,2.01953123 3.73046875,2.0234375 C3.8007816,2.02734377 3.88085893,2.03320309 3.97070312,2.04101562 L3.97070312,3.00195312 C3.86132758,2.99414059 3.78222681,2.98925782 3.73339844,2.98730469 C3.68457007,2.98535155 3.63867209,2.984375 3.59570312,2.984375 C3.27538902,2.984375 3.08398469,3.06738198 3.02148438,3.23339844 C2.95898406,3.39941489 2.92773438,3.82226223 2.92773438,4.50195312 L3.97070312,4.50195312 L3.97070312,5.33398438 L2.91601562,5.33398438 L2.91601562,10.7480469 L1.87304688,10.7480469 L1.87304688,5.33398438 L1,5.33398438 L1,4.50195312 L1.87304688,4.50195312 L1.87304688,3.51757812 Z M7.72070312,2 C7.10741881,3.19141221 6.70898529,4.06835656 6.52539062,4.63085938 C6.24804549,5.4863324 6.109375,6.47460377 6.109375,7.59570312 C6.109375,8.72852129 6.26757654,9.76366719 6.58398438,10.7011719 C6.77929785,11.2792998 7.16405963,12.1113227 7.73828125,13.1972656 L7.02929688,13.1972656 C6.45898152,12.3066362 6.10546943,11.7382825 5.96875,11.4921875 C5.83203057,11.2460925 5.68359455,10.9121115 5.5234375,10.4902344 C5.30468641,9.91210648 5.15234418,9.29492516 5.06640625,8.63867188 C5.02343729,8.29882643 5.00195312,7.97461092 5.00195312,7.66601562 C5.00195312,6.50975984 5.18359193,5.48047326 5.546875,4.578125 C5.7773449,4.00390338 6.25780885,3.14453697 6.98828125,2 L7.72070312,2 Z M8.34179688,4.47265625 L9.70703125,4.47265625 L11.1484375,6.68164062 L12.6074219,4.47265625 L13.890625,4.50195312 L11.7753906,7.53125 L13.984375,10.7480469 L12.6367188,10.7480469 L11.078125,8.39257812 L9.56640625,10.7480469 L8.23046875,10.7480469 L10.4394531,7.53125 L8.34179688,4.47265625 Z M14.5820312,13.1972656 C15.2031281,11.9863221 15.6035147,11.1035184 15.7832031,10.5488281 C16.056642,9.70898018 16.1933594,8.72461502 16.1933594,7.59570312 C16.1933594,6.46679123 16.0351578,5.43359844 15.71875,4.49609375 C15.5234365,3.91796586 15.1386747,3.08594293 14.5644531,2 L15.2734375,2 C15.875003,2.9609423 16.2392572,3.55370981 16.3662109,3.77832031 C16.4931647,4.00293081 16.6308586,4.31249803 16.7792969,4.70703125 C16.9667978,5.19531494 17.1005855,5.67773199 17.1806641,6.15429688 C17.2607426,6.63086176 17.3007812,7.08984154 17.3007812,7.53125 C17.3007812,8.68750578 17.1171893,9.71874547 16.75,10.625 C16.5195301,11.2070342 16.0410193,12.0644475 15.3144531,13.1972656 L14.5820312,13.1972656 Z" id="f(x)" fill="#FFFFFF" fill-rule="nonzero"></path>
        </g>
    </g>
</svg>