<?xml version="1.0" encoding="UTF-8"?>
<svg width="16px" height="16px" viewBox="0 0 16 16" version="1.1" xmlns="http://www.w3.org/2000/svg" xmlns:xlink="http://www.w3.org/1999/xlink">
    <title>secondary_porosity_16x16</title>
    <defs>
        <linearGradient x1="50%" y1="3.49530347%" x2="50%" y2="100%" id="linearGradient-1">
            <stop stop-color="#1AAAFF" offset="0%"></stop>
            <stop stop-color="#0077BE" offset="100%"></stop>
        </linearGradient>
        <linearGradient x1="25.5187587%" y1="92.6110365%" x2="100%" y2="-12.4525505%" id="linearGradient-2">
            <stop stop-color="#F16464" offset="0%"></stop>
            <stop stop-color="#F79494" offset="54.49984%"></stop>
            <stop stop-color="#FFD3D3" offset="100%"></stop>
        </linearGradient>
    </defs>
    <g id="secondary_porosity_16x16" stroke="none" stroke-width="1" fill="none" fill-rule="evenodd">
        <g id="Group">
            <g id="Group-2" transform="translate(0.697590, 2.669787)" fill="url(#linearGradient-1)">
                <path d="M0.30304271,1.1479578 C-0.101014237,1.55200212 -0.101014237,2.20661857 0.30304271,2.61066289 C0.707228956,3.01483651 1.36173656,3.01483651 1.76592281,2.61066289 C2.16997975,2.20661857 2.16997975,1.55200212 1.76592281,1.1479578 C1.36173656,0.743784182 0.707228956,0.743784182 0.30304271,1.1479578" id="Path-Copy-7"></path>
                <path d="M0.39031401,3.69799691 C0.0344668574,4.05383294 0.0344668574,4.63034425 0.39031401,4.98618028 C0.746275033,5.34213018 1.32269048,5.34213018 1.67865151,4.98618028 C2.03449866,4.63034425 2.03449866,4.05383294 1.67865151,3.69799691 C1.32269048,3.34204701 0.746275033,3.34204701 0.39031401,3.69799691" id="Path-Copy-7"></path>
                <path d="M5.42647136,1.14005244 C5.02241441,1.54409676 5.02241441,2.19871321 5.42647136,2.60275753 C5.8306576,3.00693115 6.48516521,3.00693115 6.88935145,2.60275753 C7.2934084,2.19871321 7.2934084,1.54409676 6.88935145,1.14005244 C6.48516521,0.73587882 5.8306576,0.73587882 5.42647136,1.14005244" id="Path-Copy-7"></path>
                <path d="M8.0499,1.1597212 C7.64584305,1.56376552 7.64584305,2.21838197 8.0499,2.62242629 C8.45408625,3.02659991 9.10859385,3.02659991 9.5127801,2.62242629 C9.91683705,2.21838197 9.91683705,1.56376552 9.5127801,1.1597212 C9.10859385,0.755547581 8.45408625,0.755547581 8.0499,1.1597212" id="Path-Copy-8"></path>
                <path d="M5.51374266,3.69009155 C5.1578955,4.04592758 5.1578955,4.62243889 5.51374266,4.97827492 C5.86970368,5.33422482 6.44611913,5.33422482 6.80208015,4.97827492 C7.15792731,4.62243889 7.15792731,4.04592758 6.80208015,3.69009155 C6.44611913,3.33414165 5.86970368,3.33414165 5.51374266,3.69009155" id="Path-Copy-7"></path>
                <path d="M2.80304271,1.1479578 C2.39898576,1.55200212 2.39898576,2.20661857 2.80304271,2.61066289 C3.20722896,3.01483651 3.86173656,3.01483651 4.26592281,2.61066289 C4.66997975,2.20661857 4.66997975,1.55200212 4.26592281,1.1479578 C3.86173656,0.743784182 3.20722896,0.743784182 2.80304271,1.1479578" id="Path-Copy-7"></path>
                <path d="M2.89031401,3.69799691 C2.53446686,4.05383294 2.53446686,4.63034425 2.89031401,4.98618028 C3.24627503,5.34213018 3.82269048,5.34213018 4.17865151,4.98618028 C4.53449866,4.63034425 4.53449866,4.05383294 4.17865151,3.69799691 C3.82269048,3.34204701 3.24627503,3.34204701 2.89031401,3.69799691" id="Path-Copy-7"></path>
                <path d="M0.485902722,5.98596835 C0.182860012,6.28900159 0.182860012,6.77996393 0.485902722,7.08299717 C0.789042407,7.38612738 1.27992311,7.38612738 1.58306279,7.08299717 C1.88610551,6.77996393 1.88610551,6.28900159 1.58306279,5.98596835 C1.27992311,5.68283814 0.789042407,5.68283814 0.485902722,5.98596835" id="Path-Copy-7"></path>
                <path d="M0.577332729,8.01704259 C0.324797136,8.26957029 0.324797136,8.67870557 0.577332729,8.93123327 C0.829949132,9.18384178 1.23901639,9.18384178 1.49163279,8.93123327 C1.74416838,8.67870557 1.74416838,8.26957029 1.49163279,8.01704259 C1.23901639,7.76443408 0.829949132,7.76443408 0.577332729,8.01704259" id="Path-Copy-7" opacity="0.876441592"></path>
                <path d="M0.668762735,9.78949614 C0.466734261,9.9915183 0.466734261,10.3188265 0.668762735,10.5208487 C0.870855857,10.7229355 1.19810966,10.7229355 1.40020278,10.5208487 C1.60223126,10.3188265 1.60223126,9.9915183 1.40020278,9.78949614 C1.19810966,9.58740933 0.870855857,9.58740933 0.668762735,9.78949614" id="Path-Copy-7" opacity="0.753557478"></path>
                <path d="M0.760192741,11.303329 C0.608671385,11.4548456 0.608671385,11.7003268 0.760192741,11.8518434 C0.911762583,12.0034085 1.15720293,12.0034085 1.30877278,11.8518434 C1.46029413,11.7003268 1.46029413,11.4548456 1.30877278,11.303329 C1.15720293,11.1517639 0.911762583,11.1517639 0.760192741,11.303329" id="Path-Copy-7" opacity="0.585030692"></path>
                <path d="M0.851622747,12.5585412 C0.75060851,12.6595523 0.75060851,12.8232064 0.851622747,12.9242174 C0.952669308,13.0252609 1.11629621,13.0252609 1.21734277,12.9242174 C1.31835701,12.8232064 1.31835701,12.6595523 1.21734277,12.5585412 C1.11629621,12.4574978 0.952669308,12.4574978 0.851622747,12.5585412" id="Path-Copy-7" opacity="0.257626488"></path>
                <path d="M2.89031401,3.69799691 C2.53446686,4.05383294 2.53446686,4.63034425 2.89031401,4.98618028 C3.24627503,5.34213018 3.82269048,5.34213018 4.17865151,4.98618028 C4.53449866,4.63034425 4.53449866,4.05383294 4.17865151,3.69799691 C3.82269048,3.34204701 3.24627503,3.34204701 2.89031401,3.69799691" id="Path-Copy-7"></path>
                <path d="M3.07210962,5.98596835 C2.76906691,6.28900159 2.76906691,6.77996393 3.07210962,7.08299717 C3.3752493,7.38612738 3.86613001,7.38612738 4.16926969,7.08299717 C4.4723124,6.77996393 4.4723124,6.28900159 4.16926969,5.98596835 C3.86613001,5.68283814 3.3752493,5.68283814 3.07210962,5.98596835" id="Path-Copy-7"></path>
                <path d="M3.16353963,8.01704259 C2.91100403,8.26957029 2.91100403,8.67870557 3.16353963,8.93123327 C3.41615603,9.18384178 3.82522328,9.18384178 4.07783969,8.93123327 C4.33037528,8.67870557 4.33037528,8.26957029 4.07783969,8.01704259 C3.82522328,7.76443408 3.41615603,7.76443408 3.16353963,8.01704259" id="Path-Copy-7" opacity="0.876441592"></path>
                <path d="M3.25496963,9.78949614 C3.05294116,9.9915183 3.05294116,10.3188265 3.25496963,10.5208487 C3.45706275,10.7229355 3.78431656,10.7229355 3.98640968,10.5208487 C4.18843815,10.3188265 4.18843815,9.9915183 3.98640968,9.78949614 C3.78431656,9.58740933 3.45706275,9.58740933 3.25496963,9.78949614" id="Path-Copy-7" opacity="0.753557478"></path>
                <path d="M3.34639964,11.303329 C3.19487828,11.4548456 3.19487828,11.7003268 3.34639964,11.8518434 C3.49796948,12.0034085 3.74340983,12.0034085 3.89497967,11.8518434 C4.04650103,11.7003268 4.04650103,11.4548456 3.89497967,11.303329 C3.74340983,11.1517639 3.49796948,11.1517639 3.34639964,11.303329" id="Path-Copy-7" opacity="0.585030692"></path>
                <path d="M3.43782964,12.5585412 C3.33681541,12.6595523 3.33681541,12.8232064 3.43782964,12.9242174 C3.5388762,13.0252609 3.70250311,13.0252609 3.80354967,12.9242174 C3.9045639,12.8232064 3.9045639,12.6595523 3.80354967,12.5585412 C3.70250311,12.4574978 3.5388762,12.4574978 3.43782964,12.5585412" id="Path-Copy-7" opacity="0.257626488"></path>
                <path d="M5.74974652,8.01704259 C5.49721093,8.26957029 5.49721093,8.67870557 5.74974652,8.93123327 C6.00236293,9.18384178 6.41143018,9.18384178 6.66404658,8.93123327 C6.91658217,8.67870557 6.91658217,8.26957029 6.66404658,8.01704259 C6.41143018,7.76443408 6.00236293,7.76443408 5.74974652,8.01704259" id="Path-Copy-7" opacity="0.876441592"></path>
                <path d="M5.84117653,9.78949614 C5.63914805,9.9915183 5.63914805,10.3188265 5.84117653,10.5208487 C6.04326965,10.7229355 6.37052345,10.7229355 6.57261658,10.5208487 C6.77464505,10.3188265 6.77464505,9.9915183 6.57261658,9.78949614 C6.37052345,9.58740933 6.04326965,9.58740933 5.84117653,9.78949614" id="Path-Copy-7" opacity="0.753557478"></path>
                <path d="M5.93260653,11.303329 C5.78108518,11.4548456 5.78108518,11.7003268 5.93260653,11.8518434 C6.08417638,12.0034085 6.32961673,12.0034085 6.48118657,11.8518434 C6.63270793,11.7003268 6.63270793,11.4548456 6.48118657,11.303329 C6.32961673,11.1517639 6.08417638,11.1517639 5.93260653,11.303329" id="Path-Copy-7" opacity="0.585030692"></path>
                <path d="M6.02403654,12.5585412 C5.9230223,12.6595523 5.9230223,12.8232064 6.02403654,12.9242174 C6.1250831,13.0252609 6.28871,13.0252609 6.38975656,12.9242174 C6.4907708,12.8232064 6.4907708,12.6595523 6.38975656,12.5585412 C6.28871,12.4574978 6.1250831,12.4574978 6.02403654,12.5585412" id="Path-Copy-7" opacity="0.257626488"></path>
                <path d="M8.1489347,3.69799691 C7.79308755,4.05383294 7.79308755,4.63034425 8.1489347,4.98618028 C8.50489572,5.34213018 9.08131117,5.34213018 9.4372722,4.98618028 C9.79311935,4.63034425 9.79311935,4.05383294 9.4372722,3.69799691 C9.08131117,3.34204701 8.50489572,3.34204701 8.1489347,3.69799691" id="Path-Copy-7"></path>
                <path d="M8.24452341,5.98596835 C7.9414807,6.28900159 7.9414807,6.77996393 8.24452341,7.08299717 C8.5476631,7.38612738 9.0385438,7.38612738 9.34168348,7.08299717 C9.64472619,6.77996393 9.64472619,6.28900159 9.34168348,5.98596835 C9.0385438,5.68283814 8.5476631,5.68283814 8.24452341,5.98596835" id="Path-Copy-7"></path>
                <path d="M8.33595342,8.01704259 C8.08341783,8.26957029 8.08341783,8.67870557 8.33595342,8.93123327 C8.58856982,9.18384178 8.99763707,9.18384178 9.25025348,8.93123327 C9.50278907,8.67870557 9.50278907,8.26957029 9.25025348,8.01704259 C8.99763707,7.76443408 8.58856982,7.76443408 8.33595342,8.01704259" id="Path-Copy-7" opacity="0.876441592"></path>
                <path d="M8.42738342,9.78949614 C8.22535495,9.9915183 8.22535495,10.3188265 8.42738342,10.5208487 C8.62947655,10.7229355 8.95673035,10.7229355 9.15882347,10.5208487 C9.36085195,10.3188265 9.36085195,9.9915183 9.15882347,9.78949614 C8.95673035,9.58740933 8.62947655,9.58740933 8.42738342,9.78949614" id="Path-Copy-7" opacity="0.753557478"></path>
                <path d="M8.51881343,11.303329 C8.36729207,11.4548456 8.36729207,11.7003268 8.51881343,11.8518434 C8.67038327,12.0034085 8.91582362,12.0034085 9.06739347,11.8518434 C9.21891482,11.7003268 9.21891482,11.4548456 9.06739347,11.303329 C8.91582362,11.1517639 8.67038327,11.1517639 8.51881343,11.303329" id="Path-Copy-7" opacity="0.585030692"></path>
                <path d="M8.61024344,12.5585412 C8.5092292,12.6595523 8.5092292,12.8232064 8.61024344,12.9242174 C8.71129,13.0252609 8.8749169,13.0252609 8.97596346,12.9242174 C9.0769777,12.8232064 9.0769777,12.6595523 8.97596346,12.5585412 C8.8749169,12.4574978 8.71129,12.4574978 8.61024344,12.5585412" id="Path-Copy-7" opacity="0.257626488"></path>
                <path d="M10.6478703,1.1479578 C10.2438133,1.55200212 10.2438133,2.20661857 10.6478703,2.61066289 C11.0520565,3.01483651 11.7065641,3.01483651 12.1107504,2.61066289 C12.5148073,2.20661857 12.5148073,1.55200212 12.1107504,1.1479578 C11.7065641,0.743784182 11.0520565,0.743784182 10.6478703,1.1479578" id="Path-Copy-7"></path>
                <path d="M10.7351416,3.69799691 C10.3792944,4.05383294 10.3792944,4.63034425 10.7351416,4.98618028 C11.0911026,5.34213018 11.6675181,5.34213018 12.0234791,4.98618028 C12.3793262,4.63034425 12.3793262,4.05383294 12.0234791,3.69799691 C11.6675181,3.34204701 11.0911026,3.34204701 10.7351416,3.69799691" id="Path-Copy-7"></path>
                <path d="M10.8307303,5.98596835 C10.5276876,6.28900159 10.5276876,6.77996393 10.8307303,7.08299717 C11.13387,7.38612738 11.6247507,7.38612738 11.9278904,7.08299717 C12.2309331,6.77996393 12.2309331,6.28900159 11.9278904,5.98596835 C11.6247507,5.68283814 11.13387,5.68283814 10.8307303,5.98596835" id="Path-Copy-7"></path>
                <path d="M10.9221603,8.01704259 C10.6696247,8.26957029 10.6696247,8.67870557 10.9221603,8.93123327 C11.1747767,9.18384178 11.583844,9.18384178 11.8364604,8.93123327 C12.088996,8.67870557 12.088996,8.26957029 11.8364604,8.01704259 C11.583844,7.76443408 11.1747767,7.76443408 10.9221603,8.01704259" id="Path-Copy-7" opacity="0.876441592"></path>
                <path d="M11.0135903,9.78949614 C10.8115618,9.9915183 10.8115618,10.3188265 11.0135903,10.5208487 C11.2156834,10.7229355 11.5429372,10.7229355 11.7450304,10.5208487 C11.9470588,10.3188265 11.9470588,9.9915183 11.7450304,9.78949614 C11.5429372,9.58740933 11.2156834,9.58740933 11.0135903,9.78949614" id="Path-Copy-7" opacity="0.753557478"></path>
                <path d="M11.1050203,11.303329 C10.953499,11.4548456 10.953499,11.7003268 11.1050203,11.8518434 C11.2565902,12.0034085 11.5020305,12.0034085 11.6536004,11.8518434 C11.8051217,11.7003268 11.8051217,11.4548456 11.6536004,11.303329 C11.5020305,11.1517639 11.2565902,11.1517639 11.1050203,11.303329" id="Path-Copy-7" opacity="0.585030692"></path>
                <path d="M11.1964503,12.5585412 C11.0954361,12.6595523 11.0954361,12.8232064 11.1964503,12.9242174 C11.2974969,13.0252609 11.4611238,13.0252609 11.5621704,12.9242174 C11.6631846,12.8232064 11.6631846,12.6595523 11.5621704,12.5585412 C11.4611238,12.4574978 11.2974969,12.4574978 11.1964503,12.5585412" id="Path-Copy-7" opacity="0.257626488"></path>
            </g>
            <g id="Group-Copy" transform="translate(6.500000, 0.000000)">
                <rect id="Rectangle-Copy-7" stroke="#FFFFFF" fill="url(#linearGradient-2)" x="-0.5" y="0" width="10" height="10" rx="2"></rect>
                <path d="M2.14634124,8.02916831 C2.17563826,7.48717342 2.28769768,7.01549844 2.48252288,6.61412925 C2.67734807,6.21276006 3.05747122,5.84801761 3.62290374,5.51989097 L4.46665374,5.032098 C4.84458531,4.81237034 5.10971938,4.62487221 5.26206389,4.469598 C5.50229947,4.22643272 5.62241545,3.94811519 5.62241545,3.63463706 C5.62241545,3.26842429 5.51255327,2.97765572 5.29282561,2.76232261 C5.07309795,2.5469895 4.78013213,2.43932456 4.41391936,2.43932456 C3.87192446,2.43932456 3.49692821,2.64440064 3.28891936,3.05455894 C3.17759068,3.2742866 3.11606786,3.57897105 3.10434905,3.96862144 L2.30014983,3.96862144 C2.30893894,3.42076714 2.41001214,2.97399426 2.60337249,2.62828941 C2.94614764,2.01891136 3.55112206,1.71422691 4.41831389,1.71422691 C5.13902062,1.71422691 5.66562668,1.90904918 5.99814788,2.29869956 C6.33066907,2.68834995 6.49692717,3.12193936 6.49692717,3.59948081 C6.49692717,4.10338958 6.31968285,4.53404934 5.96518889,4.891473 C5.76010974,5.09948185 5.39243764,5.35143246 4.86216155,5.64733238 L4.26011077,5.98131675 C3.97299996,6.13952067 3.74741627,6.29039806 3.58335295,6.43395347 C3.29038274,6.68883756 3.10581427,6.97154957 3.02964202,7.282098 L6.46616545,7.282098 L6.46616545,8.02916831 L2.14634124,8.02916831 Z" id="2" fill="#FFFFFF" fill-rule="nonzero"></path>
            </g>
        </g>
    </g>
</svg>