<svg width="16" height="17" viewBox="0 0 16 17" fill="none" xmlns="http://www.w3.org/2000/svg">
<rect x="2.63571" y="1.01344" width="13.0143" height="13.3" rx="1.65" stroke="#1962A7" stroke-width="0.7"/>
<rect x="1.49285" y="2.01344" width="12.4429" height="13.3" rx="1.65" fill="white" stroke="#1962A7" stroke-width="0.7"/>
<rect x="0.35" y="3.01344" width="11.8714" height="13.3" rx="1.65" fill="#FCFCFC" stroke="#1962A7" stroke-width="0.7"/>
<path d="M2.57141 3.66344V5.51621C2.57141 5.60378 2.62838 5.68117 2.712 5.70718L4.41584 6.23727C4.61222 6.29836 4.59959 6.58045 4.39854 6.62376L2.06893 7.12552C1.87596 7.16708 1.85348 7.43342 2.03676 7.50673L2.9756 7.88226C3.14169 7.9487 3.14369 8.18309 2.97877 8.25235L1.27337 8.96862C1.08375 9.04826 1.12336 9.32784 1.32764 9.35167L2.99194 9.54584C3.20971 9.57125 3.23984 9.89862 3.03398 9.97404C2.23461 10.2669 1.51684 10.638 1.99998 10.8634C2.53207 11.1118 3.21324 11.3761 3.66975 11.5444C3.8152 11.598 3.84976 11.7896 3.73106 11.8893L2.64277 12.8035C2.59753 12.8415 2.57141 12.8976 2.57141 12.9566V15.6634" stroke="#F36565" stroke-width="0.5"/>
<path d="M5.88562 3.66344V5.51621C5.88562 5.60378 5.94259 5.68117 6.02621 5.70718L7.73005 6.23727C7.92643 6.29836 7.9138 6.58045 7.71275 6.62376L5.38314 7.12552C5.19016 7.16708 5.16769 7.43342 5.35097 7.50673L6.28981 7.88226C6.4559 7.9487 6.4579 8.18309 6.29298 8.25235L4.58758 8.96862C4.39796 9.04826 4.43757 9.32784 4.64185 9.35167L6.30615 9.54584C6.52392 9.57125 6.55405 9.89862 6.34819 9.97404C5.54882 10.2669 4.83105 10.638 5.31419 10.8634C5.84628 11.1118 6.52745 11.3761 6.98396 11.5444C7.1294 11.598 7.16397 11.7896 7.04527 11.8893L5.95698 12.8035C5.91174 12.8415 5.88562 12.8976 5.88562 12.9566V15.6634" stroke="#F36565" stroke-width="0.5"/>
<path d="M9.31418 3.66344V5.51621C9.31418 5.60378 9.37115 5.68117 9.45477 5.70718L11.1586 6.23727C11.355 6.29836 11.3424 6.58045 11.1413 6.62376L8.8117 7.12552C8.61872 7.16708 8.59625 7.43342 8.77953 7.50673L9.71837 7.88226C9.88446 7.9487 9.88646 8.18309 9.72154 8.25235L8.01614 8.96862C7.82652 9.04826 7.86613 9.32784 8.07041 9.35167L9.73471 9.54584C9.95248 9.57125 9.98261 9.89862 9.77674 9.97404C8.97737 10.2669 8.25961 10.638 8.74275 10.8634C9.27483 11.1118 9.95601 11.3761 10.4125 11.5444C10.558 11.598 10.5925 11.7896 10.4738 11.8893L9.38554 12.8035C9.3403 12.8415 9.31418 12.8976 9.31418 12.9566V15.6634" stroke="#F36565" stroke-width="0.5"/>
</svg>
