<svg width="32" height="33" viewBox="0 0 32 33" fill="none" xmlns="http://www.w3.org/2000/svg">
<rect x="4.92144" y="1.01344" width="26.7286" height="27.3" rx="1.65" stroke="#1962A7" stroke-width="0.7"/>
<rect x="2.63571" y="3.01344" width="25.5857" height="27.3" rx="1.65" fill="white" stroke="#1962A7" stroke-width="0.7"/>
<rect x="0.35" y="5.01344" width="24.4429" height="27.3" rx="1.65" fill="#FCFCFC" stroke="#1962A7" stroke-width="0.7"/>
<path d="M5.14285 6.66344V10.5162C5.14285 10.6038 5.19982 10.6812 5.28344 10.7072L9.55871 12.0373C9.75509 12.0984 9.74246 12.3805 9.54141 12.4238L3.49752 13.7255C3.30454 13.7671 3.28207 14.0334 3.46535 14.1067L6.40418 15.2823C6.57027 15.3487 6.57228 15.5831 6.40735 15.6524L1.84481 17.5686C1.65519 17.6483 1.6948 17.9278 1.89908 17.9517L6.99196 18.5458C7.20972 18.5712 7.23706 18.8888 7.0283 18.9558C5.13904 19.562 2.84057 20.5224 4 21.0634C5.20163 21.6242 6.78346 22.2259 7.66924 22.5457C7.81504 22.5983 7.84977 22.7896 7.73108 22.8893L5.21421 25.0035C5.16898 25.0415 5.14285 25.0976 5.14285 25.1566V30.6634" stroke="#F36565" stroke-width="0.7"/>
<path d="M11.7712 6.66344V10.5162C11.7712 10.6038 11.8282 10.6812 11.9118 10.7072L16.1871 12.0373C16.3834 12.0984 16.3708 12.3805 16.1698 12.4238L10.1259 13.7255C9.9329 13.7671 9.91042 14.0334 10.0937 14.1067L13.0325 15.2823C13.1986 15.3487 13.2006 15.5831 13.0357 15.6524L8.47317 17.5686C8.28355 17.6483 8.32316 17.9278 8.52744 17.9517L13.6203 18.5458C13.8381 18.5712 13.8654 18.8888 13.6567 18.9558C11.7674 19.562 9.46893 20.5224 10.6284 21.0634C11.83 21.6242 13.4118 22.2259 14.2976 22.5457C14.4434 22.5983 14.4781 22.7896 14.3594 22.8893L11.8426 25.0035C11.7973 25.0415 11.7712 25.0976 11.7712 25.1566V30.6634" stroke="#F36565" stroke-width="0.7"/>
<path d="M18.6284 6.66344V10.5162C18.6284 10.6038 18.6853 10.6812 18.7689 10.7072L23.0442 12.0373C23.2406 12.0984 23.228 12.3805 23.0269 12.4238L16.983 13.7255C16.79 13.7671 16.7676 14.0334 16.9509 14.1067L19.8897 15.2823C20.0558 15.3487 20.0578 15.5831 19.8929 15.6524L15.3303 17.5686C15.1407 17.6483 15.1803 17.9278 15.3846 17.9517L20.4775 18.5458C20.6952 18.5712 20.7226 18.8888 20.5138 18.9558C18.6245 19.562 16.3261 20.5224 17.4855 21.0634C18.6871 21.6242 20.269 22.2259 21.1547 22.5457C21.3005 22.5983 21.3353 22.7896 21.2166 22.8893L18.6997 25.0035C18.6545 25.0415 18.6284 25.0976 18.6284 25.1566V30.6634" stroke="#F36565" stroke-width="0.7"/>
</svg>
