<?xml version="1.0" encoding="UTF-8"?>
<svg width="16px" height="16px" viewBox="0 0 16 16" version="1.1" xmlns="http://www.w3.org/2000/svg" xmlns:xlink="http://www.w3.org/1999/xlink">
    <title>select_zone_template_16x16</title>
    <g id="select_zone_template_16x16" stroke="none" stroke-width="1" fill="none" fill-rule="evenodd">
        <g id="Group-2">
            <rect id="Rectangle-20-Copy-61" fill="#FFFFFF" x="13" y="9" width="1" height="1"></rect>
            <rect id="Rectangle-20-Copy-69" fill="#FFFFFF" x="13" y="11" width="1" height="1"></rect>
            <g id="Group" transform="translate(7.000000, 0.000000)" stroke="#0077BE">
                <rect id="Rectangle-7-Copy-12" x="0.5" y="0.5" width="8" height="15" rx="2"></rect>
            </g>
            <path d="M5.5,2 L5,2 C4.44771525,2 4,2.44771525 4,3 L4,13 C4,13.5522847 4.44771525,14 5,14 L5.5,14 L5.5,14" id="Line-5" stroke="#0077BE" stroke-linecap="square"></path>
            <path d="M2,4 L1.5,4 C0.94771525,4 0.5,4.44771525 0.5,5 L0.5,11 C0.5,11.5522847 0.94771525,12 1.5,12 L2,12 L2,12" id="Line-5" stroke="#0077BE" stroke-linecap="square"></path>
            <rect id="Rectangle-2-Copy-8" fill="#0077BE" x="9" y="2" width="1" height="1"></rect>
            <rect id="Rectangle-2-Copy-9" fill="#0077BE" x="13" y="2" width="1" height="1"></rect>
            <rect id="Rectangle-2-Copy-11" fill="#0077BE" x="11" y="2" width="1" height="1"></rect>
            <rect id="Rectangle-2-Copy-8" fill="#F16464" x="9" y="6" width="1" height="1"></rect>
            <rect id="Rectangle-2-Copy-9" fill="#F16464" x="13" y="6" width="1" height="1"></rect>
            <rect id="Rectangle-2-Copy-11" fill="#F16464" x="11" y="6" width="1" height="1"></rect>
            <rect id="Rectangle-2-Copy-8" fill="#F16464" x="9" y="8" width="1" height="1"></rect>
            <rect id="Rectangle-2-Copy-9" fill="#F16464" x="13" y="8" width="1" height="1"></rect>
            <rect id="Rectangle-2-Copy-11" fill="#F16464" x="11" y="8" width="1" height="1"></rect>
            <rect id="Rectangle-2-Copy-8" fill="#F16464" x="9" y="10" width="1" height="1"></rect>
            <rect id="Rectangle-2-Copy-9" fill="#F16464" x="13" y="10" width="1" height="1"></rect>
            <rect id="Rectangle-2-Copy-11" fill="#F16464" x="11" y="10" width="1" height="1"></rect>
            <rect id="Rectangle-2-Copy-8" fill="#0077BE" x="9" y="4" width="1" height="1"></rect>
            <rect id="Rectangle-2-Copy-9" fill="#0077BE" x="13" y="4" width="1" height="1"></rect>
            <rect id="Rectangle-2-Copy-11" fill="#0077BE" x="11" y="4" width="1" height="1"></rect>
        </g>
    </g>
</svg>