<?xml version="1.0" encoding="UTF-8"?>
<svg width="16px" height="16px" viewBox="0 0 16 16" version="1.1" xmlns="http://www.w3.org/2000/svg" xmlns:xlink="http://www.w3.org/1999/xlink">
    <title>select_marker_template_16x16</title>
    <g id="select_marker_template_16x16" stroke="none" stroke-width="1" fill="none" fill-rule="evenodd">
        <g id="Group" transform="translate(7.000000, 0.000000)" stroke="#0077BE">
            <rect id="Rectangle-7-Copy-12" x="0.5" y="0.5" width="8" height="15" rx="2"></rect>
        </g>
        <rect id="Rectangle" fill="#FFFFFF" x="6" y="1" width="1" height="14"></rect>
        <rect id="Rectangle" fill="#FFFFFF" x="2" y="1" width="1" height="14"></rect>
        <rect id="Rectangle-2-Copy-14" fill="#F16464" x="9" y="7" width="5" height="2" rx="1"></rect>
        <rect id="Rectangle-2-Copy-13" fill="#0077BE" x="8.99549492" y="2.41631178" width="5" height="2" rx="1"></rect>
        <path d="M5.5,2 L5,2 C4.44771525,2 4,2.44771525 4,3 L4,13 C4,13.5522847 4.44771525,14 5,14 L5.5,14 L5.5,14" id="Line-5" stroke="#0077BE" stroke-linecap="square"></path>
        <path d="M2,4 L1.5,4 C0.94771525,4 0.5,4.44771525 0.5,5 L0.5,11 C0.5,11.5522847 0.94771525,12 1.5,12 L2,12 L2,12" id="Line-5" stroke="#0077BE" stroke-linecap="square"></path>
    </g>
</svg>