<?xml version="1.0" encoding="UTF-8"?>
<svg width="16px" height="16px" viewBox="0 0 16 16" version="1.1" xmlns="http://www.w3.org/2000/svg" xmlns:xlink="http://www.w3.org/1999/xlink">
    <title>shading_add_16x16</title>
    <g id="shading_add_16x16" stroke="none" stroke-width="1" fill="none" fill-rule="evenodd">
        <g id="Group-2-Copy-2" transform="translate(2.500000, -0.072477)" fill="#0077BE">
            <path d="M3.76344401,5.42086398 C4.16344401,5.82086398 4.46344401,6.32086398 4.46344401,6.92086398 L4.46344401,7.02086398 L3.46344401,7.02086398 C3.46344401,7.02086398 3.46344401,6.92086398 3.46344401,6.92086398 C3.46344401,6.42086398 2.96344401,5.92086398 2.46344401,5.92086398 C1.96344401,5.92086398 1.46344401,5.72086398 1.16344401,5.42086398 C0.763444011,5.02086398 0.463444011,4.52086398 0.463444011,3.92086398 C0.463444011,3.32086398 0.763444011,2.82086398 1.16344401,2.42086398 C1.46344401,2.12086398 1.96344401,1.92086398 2.46344401,1.92086398 C2.96344401,1.92086398 3.43581353,1.67451534 3.46344401,1.02086398 C3.49107449,0.367212622 4.46344401,0.409389909 4.46344401,1.02086398 C4.46344401,1.63233805 4.16344401,2.12086398 3.76344401,2.42086398 C3.46344401,2.72086398 2.96344401,2.92086398 2.46344401,2.92086398 C1.96344401,2.92086398 1.46344401,3.42086398 1.46344401,3.92086398 C1.46344401,4.42086398 1.96344401,4.92086398 2.46344401,4.92086398 C2.96344401,4.92086398 3.46344401,5.12086398 3.76344401,5.42086398 Z" id="Path"></path>
            <path d="M3.76344401,17.420864 C4.16344401,17.820864 4.46344401,18.320864 4.46344401,18.920864 L4.46344401,19.020864 L3.46344401,19.020864 C3.46344401,19.020864 3.46344401,18.920864 3.46344401,18.920864 C3.46344401,18.420864 2.96344401,17.920864 2.46344401,17.920864 C1.96344401,17.920864 1.46344401,17.720864 1.16344401,17.420864 C0.763444011,17.020864 0.463444011,16.520864 0.463444011,15.920864 C0.463444011,15.320864 0.763444011,14.820864 1.16344401,14.420864 C1.46344401,14.120864 1.96344401,13.920864 2.46344401,13.920864 C2.96344401,13.920864 3.46344401,13.420864 3.46344401,13.020864 L4.46344401,13.020864 C4.46344401,13.620864 4.16344401,14.120864 3.76344401,14.420864 C3.46344401,14.720864 2.96344401,14.920864 2.46344401,14.920864 C1.96344401,14.920864 1.46344401,15.420864 1.46344401,15.920864 C1.46344401,16.420864 1.96344401,16.920864 2.46344401,16.920864 C2.96344401,16.920864 3.46344401,17.120864 3.76344401,17.420864 Z" id="Path"></path>
            <path d="M3.76344401,11.420864 C4.16344401,11.820864 4.46344401,12.320864 4.46344401,12.920864 L4.46344401,13.020864 L3.46344401,13.020864 C3.46344401,13.020864 3.46344401,12.920864 3.46344401,12.920864 C3.46344401,12.420864 2.96344401,11.920864 2.46344401,11.920864 C1.96344401,11.920864 1.46344401,11.720864 1.16344401,11.420864 C0.763444011,11.020864 0.463444011,10.520864 0.463444011,9.92086398 C0.463444011,9.32086398 0.763444011,8.82086398 1.16344401,8.42086398 C1.46344401,8.12086398 1.96344401,7.92086398 2.46344401,7.92086398 C2.96344401,7.92086398 3.46344401,7.42086398 3.46344401,7.02086398 L4.46344401,7.02086398 C4.46344401,7.62086398 4.16344401,8.12086398 3.76344401,8.42086398 C3.46344401,8.72086398 2.96344401,8.92086398 2.46344401,8.92086398 C1.96344401,8.92086398 1.46344401,9.42086398 1.46344401,9.92086398 C1.46344401,10.420864 1.96344401,10.920864 2.46344401,10.920864 C2.96344401,10.920864 3.46344401,11.120864 3.76344401,11.420864 Z" id="Path"></path>
        </g>
        <rect id="Rectangle-7-Copy-10" stroke="#0077BE" x="1" y="0.5" width="8" height="15" rx="2"></rect>
        <g id="Group-3" transform="translate(8.000000, 7.964144)">
            <circle id="Oval-2" stroke="#FFFFFF" fill="#F16464" transform="translate(4.000000, 4.000000) rotate(-90.000000) translate(-4.000000, -4.000000) " cx="4" cy="4" r="4.5"></circle>
            <g id="Group-2" transform="translate(1.000000, 1.000000)" fill="#FFFFFF">
                <rect id="Rectangle" transform="translate(3.000000, 3.000000) rotate(-360.000000) translate(-3.000000, -3.000000) " x="2.5" y="0.545454545" width="1" height="4.90909091" rx="0.5"></rect>
                <path d="M3,0.545454545 C3.27614237,0.545454545 3.5,0.769312171 3.5,1.04545455 L3.5,4.95454545 C3.5,5.23068783 3.27614237,5.45454545 3,5.45454545 C2.72385763,5.45454545 2.5,5.23068783 2.5,4.95454545 L2.5,1.04545455 C2.5,0.769312171 2.72385763,0.545454545 3,0.545454545 Z" id="Rectangle" transform="translate(3.000000, 3.000000) rotate(-630.000000) translate(-3.000000, -3.000000) "></path>
            </g>
        </g>
        <path d="M3,-0.0724771394 L6,-0.0724771394 L6,-0.0724771394 C6.36196219,-1.66559096 6.54294328,-1.20645484 6.54294328,1.3049312 C6.54294328,1.59562693 3.77632133,2.77401369 3.77147164,3.12802483 C3.76586714,3.53713486 3.52110851,3.68015908 3.61323538,4.42752286 C3.66288369,4.83028649 5.99483106,5.54809146 6.18191722,6.50618582 C6.27048997,6.95977928 6.00991256,6.56792502 6,7.7909837 C5.99851297,7.97446096 3.61407403,9.49256394 3.61323538,9.85385531 C3.61253772,10.1544065 3.70005483,10.2857613 4,11.0888033 C4.06650007,11.2668437 5.90076628,11.7457463 6.18191722,12.4275229 C6.21004044,12.4957202 6.44093688,13.5799404 5.91783898,14.0813754 C5.42009922,14.5585023 4.16837535,14.4458998 4.14513372,14.8091838 C4.14492006,14.8125235 4.14613643,14.8165592 4.14878284,14.8212909 C4.34919445,15.1796037 4.22118203,15.632537 3.86286558,15.8329421 C3.75198025,15.8949599 3.62705023,15.9275229 3.5,15.9275229 L3,15.9275229 C1.8954305,15.9275229 1,15.0320924 1,13.9275229 L1,1.92752286 C1,0.822953361 1.8954305,-0.0724771394 3,-0.0724771394 Z" id="Rectangle" fill="#0077BE" opacity="0.549200149"></path>
    </g>
</svg>