<?xml version="1.0" encoding="UTF-8"?>
<svg width="16px" height="16px" viewBox="0 0 16 16" version="1.1" xmlns="http://www.w3.org/2000/svg" xmlns:xlink="http://www.w3.org/1999/xlink">
    <title>shading_properties_16x16</title>
    <g id="shading_properties_16x16" stroke="none" stroke-width="1" fill="none" fill-rule="evenodd">
        <g id="Group">
            <rect id="Rectangle-7-Copy-12" stroke="#0077BE" x="0.5" y="0.5" width="15" height="15" rx="2"></rect>
            <rect id="Rectangle-Copy-7" fill="#F16464" x="7" y="3.5" width="6" height="1" rx="0.5"></rect>
            <rect id="Rectangle-Copy-8" fill="#F16464" x="7" y="7.5" width="6" height="1" rx="0.5"></rect>
            <rect id="Rectangle-Copy-9" fill="#F16464" x="7" y="11.5" width="6" height="1" rx="0.5"></rect>
            <path d="M3.29294129,3.29302587 C2.9023529,3.68360205 2.9023529,4.31639795 3.29294129,4.70697413 C3.68365466,5.09767529 4.31634534,5.09767529 4.70705871,4.70697413 C5.0976471,4.31639795 5.0976471,3.68360205 4.70705871,3.29302587 C4.31634534,2.90232471 3.68365466,2.90232471 3.29294129,3.29302587" id="Path-Copy-5" fill="#F16464"></path>
            <path d="M3.29294129,7.29302587 C2.9023529,7.68360205 2.9023529,8.31639795 3.29294129,8.70697413 C3.68365466,9.09767529 4.31634534,9.09767529 4.70705871,8.70697413 C5.0976471,8.31639795 5.0976471,7.68360205 4.70705871,7.29302587 C4.31634534,6.90232471 3.68365466,6.90232471 3.29294129,7.29302587" id="Path-Copy-6" fill="#F16464"></path>
            <path d="M3.29294129,11.2930259 C2.9023529,11.683602 2.9023529,12.316398 3.29294129,12.7069741 C3.68365466,13.0976753 4.31634534,13.0976753 4.70705871,12.7069741 C5.0976471,12.316398 5.0976471,11.683602 4.70705871,11.2930259 C4.31634534,10.9023247 3.68365466,10.9023247 3.29294129,11.2930259" id="Path-Copy-7" fill="#F16464"></path>
        </g>
    </g>
</svg>