<?xml version="1.0" encoding="UTF-8"?>
<svg width="16px" height="16px" viewBox="0 0 16 16" version="1.1" xmlns="http://www.w3.org/2000/svg" xmlns:xlink="http://www.w3.org/1999/xlink">
    <title>sonic_density_16x16</title>
    <defs>
        <linearGradient x1="50%" y1="3.49530347%" x2="50%" y2="100%" id="linearGradient-1">
            <stop stop-color="#1AAAFF" offset="0%"></stop>
            <stop stop-color="#0077BE" offset="100%"></stop>
        </linearGradient>
        <linearGradient x1="25.5187587%" y1="92.6110365%" x2="76.7029485%" y2="8.20085208%" id="linearGradient-2">
            <stop stop-color="#F16464" offset="0%"></stop>
            <stop stop-color="#F79494" offset="54.49984%"></stop>
            <stop stop-color="#FFD3D3" offset="100%"></stop>
        </linearGradient>
        <linearGradient x1="25.5187587%" y1="92.6110365%" x2="126.894402%" y2="-16.5999945%" id="linearGradient-3">
            <stop stop-color="#F16464" offset="0%"></stop>
            <stop stop-color="#F79494" offset="54.49984%"></stop>
            <stop stop-color="#FFD3D3" offset="100%"></stop>
        </linearGradient>
    </defs>
    <g id="sonic_density_16x16" stroke="none" stroke-width="1" fill="none" fill-rule="evenodd">
        <g id="Group">
            <polygon id="Fill-1" fill="#0477BD" points="0 16 1 16 1 0 0 0"></polygon>
            <circle id="Oval-Copy-21" fill="url(#linearGradient-1)" cx="3" cy="13" r="1"></circle>
            <circle id="Oval-Copy-22" fill="url(#linearGradient-1)" cx="7" cy="12" r="1"></circle>
            <circle id="Oval-Copy-23" fill="url(#linearGradient-2)" cx="4" cy="9" r="1"></circle>
            <circle id="Oval-Copy-24" fill="url(#linearGradient-2)" cx="11" cy="13" r="1"></circle>
            <circle id="Oval-Copy-25" fill="url(#linearGradient-1)" cx="3" cy="5" r="1"></circle>
            <g id="Group-Copy" transform="translate(6.000000, 0.000000)">
                <rect id="Rectangle-Copy-7" fill="url(#linearGradient-3)" x="0" y="0" width="10" height="10" rx="2"></rect>
                <path d="M3.15513393,6.01204687 C3.1779205,6.41894995 3.27394819,6.74935029 3.44321987,7.00325781 C3.7654871,7.47852061 4.33351528,7.71614844 5.14732143,7.71614844 C5.51190658,7.71614844 5.84393451,7.66406562 6.14341518,7.55989844 C6.72284516,7.35807451 7.0125558,6.99675 7.0125558,6.47591406 C7.0125558,6.08528711 6.89048671,5.80696958 6.64634487,5.64095312 C6.3989478,5.47819189 6.01158188,5.33659175 5.48423549,5.21614844 L4.5125558,4.99642187 C3.877787,4.85319199 3.42857275,4.69531597 3.16489955,4.52278906 C2.70916811,4.2233084 2.4813058,3.77572173 2.4813058,3.18001562 C2.4813058,2.53548115 2.70428534,2.00651509 3.15025112,1.59310156 C3.59621689,1.17968804 4.22772099,0.972984375 5.04478237,0.972984375 C5.79673925,0.972984375 6.4355675,1.15446042 6.96128627,1.51741797 C7.48700505,1.88037551 7.74986049,2.4606106 7.74986049,3.25814062 L6.83677455,3.25814062 C6.78794618,2.87402412 6.68378056,2.57943071 6.52427455,2.37435156 C6.22804911,2.00000073 5.72512446,1.81282812 5.01548549,1.81282812 C4.44256596,1.81282812 4.03078622,1.93326963 3.78013393,2.17415625 C3.52948163,2.41504287 3.40415737,2.69498799 3.40415737,3.014 C3.40415737,3.36556426 3.55064028,3.62272314 3.84361049,3.78548437 C4.03566874,3.88965156 4.47023471,4.01985859 5.14732143,4.17610937 L6.1531808,4.40560156 C6.63820927,4.5162792 7.01255449,4.66764487 7.27622768,4.85970312 C7.73195912,5.19499126 7.95982143,5.68164004 7.95982143,6.31966406 C7.95982143,7.11393887 7.67092458,7.68196704 7.09312221,8.02376562 C6.51531984,8.36556421 5.84393984,8.53646094 5.07896205,8.53646094 C4.18703051,8.53646094 3.48879531,8.30859863 2.98423549,7.85286719 C2.47967568,7.40039097 2.23228232,6.78679033 2.24204799,6.01204687 L3.15513393,6.01204687 Z" id="S" fill="#FFFFFF" fill-rule="nonzero"></path>
            </g>
            <polygon id="Fill-2" fill="#0477BD" points="1 16 16 16 16 15 1 15"></polygon>
        </g>
    </g>
</svg>