<?xml version="1.0" encoding="UTF-8"?>
<svg width="16px" height="16px" viewBox="0 0 16 16" version="1.1" xmlns="http://www.w3.org/2000/svg" xmlns:xlink="http://www.w3.org/1999/xlink">
    <title>sort_curve_16x16</title>
    <g id="sort_curve_16x16" stroke="none" stroke-width="1" fill="none" fill-rule="evenodd">
        <g id="Group-2-Copy-2" transform="translate(3.000000, -2.000000)" fill="#0077BE">
            <path d="M3.76344401,5.42086398 C4.16344401,5.82086398 4.46344401,6.32086398 4.46344401,6.92086398 L4.46344401,7.02086398 L3.46344401,7.02086398 C3.46344401,7.02086398 3.46344401,6.92086398 3.46344401,6.92086398 C3.46344401,6.42086398 2.96344401,5.92086398 2.46344401,5.92086398 C1.96344401,5.92086398 1.46344401,5.72086398 1.16344401,5.42086398 C0.763444011,5.02086398 0.463444011,4.52086398 0.463444011,3.92086398 C0.463444011,3.32086398 0.763444011,2.82086398 1.16344401,2.42086398 C1.46344401,2.12086398 1.96344401,1.92086398 2.46344401,1.92086398 C2.96344401,1.92086398 3.43581353,1.67451534 3.46344401,1.02086398 C3.49107449,0.367212622 4.46344401,0.409389909 4.46344401,1.02086398 C4.46344401,1.63233805 4.16344401,2.12086398 3.76344401,2.42086398 C3.46344401,2.72086398 2.96344401,2.92086398 2.46344401,2.92086398 C1.96344401,2.92086398 1.46344401,3.42086398 1.46344401,3.92086398 C1.46344401,4.42086398 1.96344401,4.92086398 2.46344401,4.92086398 C2.96344401,4.92086398 3.46344401,5.12086398 3.76344401,5.42086398 Z" id="Path"></path>
            <path d="M3.76344401,17.420864 C4.16344401,17.820864 4.46344401,18.320864 4.46344401,18.920864 L4.46344401,19.020864 L3.46344401,19.020864 C3.46344401,19.020864 3.46344401,18.920864 3.46344401,18.920864 C3.46344401,18.420864 2.96344401,17.920864 2.46344401,17.920864 C1.96344401,17.920864 1.46344401,17.720864 1.16344401,17.420864 C0.763444011,17.020864 0.463444011,16.520864 0.463444011,15.920864 C0.463444011,15.320864 0.763444011,14.820864 1.16344401,14.420864 C1.46344401,14.120864 1.96344401,13.920864 2.46344401,13.920864 C2.96344401,13.920864 3.46344401,13.420864 3.46344401,13.020864 L4.46344401,13.020864 C4.46344401,13.620864 4.16344401,14.120864 3.76344401,14.420864 C3.46344401,14.720864 2.96344401,14.920864 2.46344401,14.920864 C1.96344401,14.920864 1.46344401,15.420864 1.46344401,15.920864 C1.46344401,16.420864 1.96344401,16.920864 2.46344401,16.920864 C2.96344401,16.920864 3.46344401,17.120864 3.76344401,17.420864 Z" id="Path"></path>
            <path d="M3.76344401,11.420864 C4.16344401,11.820864 4.46344401,12.320864 4.46344401,12.920864 L4.46344401,13.020864 L3.46344401,13.020864 C3.46344401,13.020864 3.46344401,12.920864 3.46344401,12.920864 C3.46344401,12.420864 2.96344401,11.920864 2.46344401,11.920864 C1.96344401,11.920864 1.46344401,11.720864 1.16344401,11.420864 C0.763444011,11.020864 0.463444011,10.520864 0.463444011,9.92086398 C0.463444011,9.32086398 0.763444011,8.82086398 1.16344401,8.42086398 C1.46344401,8.12086398 1.96344401,7.92086398 2.46344401,7.92086398 C2.96344401,7.92086398 3.46344401,7.42086398 3.46344401,7.02086398 L4.46344401,7.02086398 C4.46344401,7.62086398 4.16344401,8.12086398 3.76344401,8.42086398 C3.46344401,8.72086398 2.96344401,8.92086398 2.46344401,8.92086398 C1.96344401,8.92086398 1.46344401,9.42086398 1.46344401,9.92086398 C1.46344401,10.420864 1.96344401,10.920864 2.46344401,10.920864 C2.96344401,10.920864 3.46344401,11.120864 3.76344401,11.420864 Z" id="Path"></path>
        </g>
        <rect id="Rectangle-7-Copy-10" stroke="#0077BE" x="1.5" y="0.5" width="8" height="15" rx="2"></rect>
        <g id="Group-3" transform="translate(7.685108, 7.294504)" fill-rule="nonzero">
            <path d="M6.19188698,-0.464979306 C6.49862454,-0.464979306 6.80800175,-0.327875245 7.02127225,-0.114604746 L7.02127225,-0.114604746 L8.14967358,1.01379658 C8.3604187,1.2245417 8.50004814,1.55258851 8.50004814,1.85677705 C8.50004814,2.16351461 8.36294408,2.47289183 8.14967358,2.68616233 L8.14967358,2.68616233 L6.89891548,3.93692042 L2.7005113,8.13532461 L-0.324491711,8.53622862 L-0.142133286,5.41789955 L5.35414478,-0.106207768 C5.57159657,-0.341410552 5.88004842,-0.464979306 6.19188698,-0.464979306 Z" id="Path" stroke="#FFFFFF" fill="#F16464"></path>
            <polygon id="Path" fill="#FFFFFF" points="1.09368822 7.58035486 0.441118776 6.92778542 0.563475547 5.93533606 2.07254238 7.44440289"></polygon>
            <polygon id="Path" fill="#FFFFFF" points="6.45019572 3.2842727 4.73720093 1.57127792 5.36257998 0.945898873 7.07557476 2.65889366"></polygon>
        </g>
    </g>
</svg>