<?xml version="1.0" encoding="UTF-8"?>
<svg width="16px" height="16px" viewBox="0 0 16 16" version="1.1" xmlns="http://www.w3.org/2000/svg" xmlns:xlink="http://www.w3.org/1999/xlink">
    <title>sort_16x16</title>
    <g id="sort_16x16" stroke="none" stroke-width="1" fill="none" fill-rule="evenodd">
        <path d="M6.51195699,12.4391754 L2.81234752,9.47948779 C2.59671656,9.30698301 2.28207037,9.3419437 2.1095656,9.55757467 C2.03864038,9.64623119 2,9.75638644 2,9.86992219 L2,15.7892973 C2,16.0654397 2.22385763,16.2892973 2.5,16.2892973 C2.61353575,16.2892973 2.723691,16.250657 2.81234752,16.1797317 L6.51195699,13.2200442 C6.72758796,13.0475394 6.76254865,12.7328932 6.59004388,12.5172622 C6.56697799,12.4884299 6.54078935,12.4622412 6.51195699,12.4391754 Z" id="Fill-3" fill="#0077BE" transform="translate(4.500000, 12.829610) rotate(-270.000000) translate(-4.500000, -12.829610) "></path>
        <rect id="Rectangle" fill="#0077BE" x="3" y="6" width="3" height="4.92263796" rx="0.5"></rect>
        <path d="M13.511957,2.86581038 L9.81234752,-0.0938771932 C9.59671656,-0.266381967 9.28207037,-0.23142128 9.1095656,-0.0157903123 C9.03864038,0.0728662118 9,0.183021464 9,0.296557211 L9,6.21593236 C9,6.49207474 9.22385763,6.71593236 9.5,6.71593236 C9.61353575,6.71593236 9.723691,6.67729199 9.81234752,6.60636677 L13.511957,3.64667919 C13.727588,3.47417442 13.7625486,3.15952823 13.5900439,2.94389726 C13.566978,2.91506491 13.5407893,2.88887626 13.511957,2.86581038 Z" id="Fill-3" fill="#0077BE" transform="translate(11.500000, 3.256245) rotate(-90.000000) translate(-11.500000, -3.256245) "></path>
        <rect id="Rectangle" fill="#0077BE" x="10" y="5.07736204" width="3" height="4.92263796" rx="0.5"></rect>
    </g>
</svg>