<?xml version="1.0" encoding="UTF-8"?>
<svg width="16px" height="16px" viewBox="0 0 16 16" version="1.1" xmlns="http://www.w3.org/2000/svg" xmlns:xlink="http://www.w3.org/1999/xlink">
    <title>square_filter_16x16</title>
    <defs>
        <linearGradient x1="25.5187587%" y1="88.6494662%" x2="154.100542%" y2="-32.2221849%" id="linearGradient-1">
            <stop stop-color="#F16464" offset="0%"></stop>
            <stop stop-color="#F79494" offset="54.49984%"></stop>
            <stop stop-color="#FFD3D3" offset="100%"></stop>
        </linearGradient>
    </defs>
    <g id="square_filter_16x16" stroke="none" stroke-width="1" fill="none" fill-rule="evenodd">
        <rect id="Rectangle" fill="#0077BE" x="0.5" y="7.5" width="8" height="1"></rect>
        <polygon id="Rectangle" fill="#0077BE" points="0.5 9.5 8.5 9.5 5.64285714 12.86 5.64285714 15.5 3.35714286 15.5 3.35714286 12.86"></polygon>
        <g id="Group-Copy" transform="translate(5.000000, 0.000000)">
            <rect id="Rectangle-Copy-7" stroke="#FFFFFF" fill="url(#linearGradient-1)" x="0" y="-0.5" width="11.5" height="11" rx="2"></rect>
            <path d="M3.65513393,6.51204687 C3.6779205,6.91894995 3.77394819,7.24935029 3.94321987,7.50325781 C4.2654871,7.97852061 4.83351528,8.21614844 5.64732143,8.21614844 C6.01190658,8.21614844 6.34393451,8.16406562 6.64341518,8.05989844 C7.22284516,7.85807451 7.5125558,7.49675 7.5125558,6.97591406 C7.5125558,6.58528711 7.39048671,6.30696958 7.14634487,6.14095312 C6.8989478,5.97819189 6.51158188,5.83659175 5.98423549,5.71614844 L5.0125558,5.49642187 C4.377787,5.35319199 3.92857275,5.19531597 3.66489955,5.02278906 C3.20916811,4.7233084 2.9813058,4.27572173 2.9813058,3.68001562 C2.9813058,3.03548115 3.20428534,2.50651509 3.65025112,2.09310156 C4.09621689,1.67968804 4.72772099,1.47298437 5.54478237,1.47298437 C6.29673925,1.47298437 6.9355675,1.65446042 7.46128627,2.01741797 C7.98700505,2.38037551 8.24986049,2.9606106 8.24986049,3.75814062 L7.33677455,3.75814062 C7.28794618,3.37402412 7.18378056,3.07943071 7.02427455,2.87435156 C6.72804911,2.50000073 6.22512446,2.31282812 5.51548549,2.31282812 C4.94256596,2.31282812 4.53078622,2.43326963 4.28013393,2.67415625 C4.02948163,2.91504287 3.90415737,3.19498799 3.90415737,3.514 C3.90415737,3.86556426 4.05064028,4.12272314 4.34361049,4.28548437 C4.53566874,4.38965156 4.97023471,4.51985859 5.64732143,4.67610937 L6.6531808,4.90560156 C7.13820927,5.0162792 7.51255449,5.16764487 7.77622768,5.35970312 C8.23195912,5.69499126 8.45982143,6.18164004 8.45982143,6.81966406 C8.45982143,7.61393887 8.17092458,8.18196704 7.59312221,8.52376562 C7.01531984,8.86556421 6.34393984,9.03646094 5.57896205,9.03646094 C4.68703051,9.03646094 3.98879531,8.80859863 3.48423549,8.35286719 C2.97967568,7.90039097 2.73228232,7.28679033 2.74204799,6.51204687 L3.65513393,6.51204687 Z" id="S" fill="#FFFFFF" fill-rule="nonzero"></path>
        </g>
    </g>
</svg>