<?xml version="1.0" encoding="UTF-8"?>
<svg width="16px" height="16px" viewBox="0 0 16 16" version="1.1" xmlns="http://www.w3.org/2000/svg" xmlns:xlink="http://www.w3.org/1999/xlink">
    <title>static_young_modulus_16x16</title>
    <defs>
        <linearGradient x1="25.5187587%" y1="78.1299421%" x2="115.254627%" y2="7.70563241%" id="linearGradient-1">
            <stop stop-color="#F16464" offset="0%"></stop>
            <stop stop-color="#F79494" offset="54.49984%"></stop>
            <stop stop-color="#FFD3D3" offset="100%"></stop>
        </linearGradient>
    </defs>
    <g id="static_young_modulus_16x16" stroke="none" stroke-width="1" fill="none" fill-rule="evenodd">
        <g id="Group-2" transform="translate(0.000000, 1.500000)">
            <g id="Group" fill="url(#linearGradient-1)" stroke="#FFFFFF">
                <rect id="Rectangle-Copy-7" x="-0.5" y="-0.5" width="17" height="14" rx="2"></rect>
            </g>
            <path d="M2.02148438,2.39257812 L8.296875,2.39257812 L8.296875,3.44726562 L3.15820312,3.44726562 L3.15820312,6.06054688 L7.91015625,6.06054688 L7.91015625,7.05664062 L3.15820312,7.05664062 L3.15820312,9.97460938 L8.38476562,9.97460938 L8.38476562,11 L2.02148438,11 L2.02148438,2.39257812 Z M10.4003906,9.03125 C10.4316408,9.38281426 10.5195305,9.65234281 10.6640625,9.83984375 C10.9296888,10.1796892 11.3906217,10.3496094 12.046875,10.3496094 C12.437502,10.3496094 12.7812485,10.2646493 13.078125,10.0947266 C13.3750015,9.92480384 13.5234375,9.66211115 13.5234375,9.30664062 C13.5234375,9.03710803 13.4042981,8.83203195 13.1660156,8.69140625 C13.0136711,8.60546832 12.7128929,8.50585994 12.2636719,8.39257812 L11.4257812,8.18164062 C10.8906223,8.04882746 10.496095,7.90039145 10.2421875,7.73632812 C9.78906023,7.45117045 9.5625,7.05664314 9.5625,6.55273438 C9.5625,5.95898141 9.77636505,5.47851746 10.2041016,5.11132812 C10.6318381,4.74413879 11.2070276,4.56054688 11.9296875,4.56054688 C12.8750047,4.56054688 13.5566385,4.83788785 13.9746094,5.39257812 C14.2363294,5.74414238 14.3632813,6.12304484 14.3554688,6.52929688 L13.359375,6.52929688 C13.3398437,6.29101443 13.2558601,6.07421973 13.1074219,5.87890625 C12.8652332,5.60156111 12.4453155,5.46289062 11.8476562,5.46289062 C11.4492168,5.46289062 11.147462,5.53906174 10.9423828,5.69140625 C10.7373037,5.84375076 10.6347656,6.04492062 10.6347656,6.29492188 C10.6347656,6.56836074 10.7695299,6.78710855 11.0390625,6.95117188 C11.1953133,7.04882861 11.4257797,7.13476525 11.7304688,7.20898438 L12.4277344,7.37890625 C13.1855507,7.56250092 13.6933581,7.74023352 13.9511719,7.91210938 C14.3613302,8.18164197 14.5664062,8.60546586 14.5664062,9.18359375 C14.5664062,9.74219029 14.3544943,10.2246073 13.9306641,10.6308594 C13.5068338,11.0371114 12.8613325,11.2402344 11.9941406,11.2402344 C11.0605422,11.2402344 10.399416,11.0283224 10.0107422,10.6044922 C9.62206837,10.1806619 9.41406264,9.65625312 9.38671875,9.03125 L10.4003906,9.03125 Z" id="Es" fill="#FFFFFF" fill-rule="nonzero"></path>
        </g>
    </g>
</svg>