<?xml version="1.0" encoding="UTF-8"?>
<svg width="16px" height="16px" viewBox="0 0 16 16" version="1.1" xmlns="http://www.w3.org/2000/svg" xmlns:xlink="http://www.w3.org/1999/xlink">
    <title>static_bulk_and_shear_modulus_16x16</title>
    <defs>
        <linearGradient x1="25.5187587%" y1="78.1299421%" x2="115.254627%" y2="7.70563241%" id="linearGradient-1">
            <stop stop-color="#F16464" offset="0%"></stop>
            <stop stop-color="#F79494" offset="54.49984%"></stop>
            <stop stop-color="#FFD3D3" offset="100%"></stop>
        </linearGradient>
    </defs>
    <g id="static_bulk_and_shear_modulus_16x16" stroke="none" stroke-width="1" fill="none" fill-rule="evenodd">
        <g id="Group-2-Copy" transform="translate(0.000000, 1.500000)">
            <g id="Group" fill="url(#linearGradient-1)" stroke="#FFFFFF">
                <rect id="Rectangle-Copy-7" x="-0.5" y="-0.5" width="17" height="14" rx="2"></rect>
            </g>
            <path d="M4.47265625,3.37744141 C5.07910459,3.37744141 5.60351341,3.49462773 6.04589844,3.72900391 C6.68750321,4.06591965 7.08007741,4.65624578 7.22363281,5.5 L6.35791016,5.5 C6.25244088,5.02831795 6.03418134,4.68481553 5.703125,4.46948242 C5.37206866,4.25414931 4.95459236,4.14648438 4.45068359,4.14648438 C3.85302436,4.14648438 3.34985556,4.37060323 2.94116211,4.81884766 C2.53246866,5.26709208 2.328125,5.93505416 2.328125,6.82275391 C2.328125,7.59033587 2.49658035,8.21508548 2.83349609,8.69702148 C3.17041184,9.17895749 3.71972275,9.41992188 4.48144531,9.41992188 C5.06445604,9.41992188 5.54711723,9.25073411 5.92944336,8.91235352 C6.31176949,8.57397292 6.50732417,8.02685925 6.51611328,7.27099609 L4.49462891,7.27099609 L4.49462891,6.54589844 L7.32910156,6.54589844 L7.32910156,10 L6.76660156,10 L6.55566406,9.16943359 C6.25976415,9.49463053 5.99755974,9.72021421 5.76904297,9.84619141 C5.38525199,10.0629894 4.8974639,10.1713867 4.30566406,10.1713867 C3.5410118,10.1713867 2.88330354,9.9238306 2.33251953,9.42871094 C1.73193059,8.80761408 1.43164062,7.95508354 1.43164062,6.87109375 C1.43164062,5.79003366 1.72460645,4.93017897 2.31054688,4.29150391 C2.86719028,3.68212586 3.5878862,3.37744141 4.47265625,3.37744141 Z M8.68261719,3.54443359 L9.53515625,3.54443359 L9.53515625,6.69091797 L12.6816406,3.54443359 L13.8901367,3.54443359 L11.2050781,6.14599609 L13.9648438,10 L12.8266602,10 L10.5678711,6.76123047 L9.53515625,7.75 L9.53515625,10 L8.68261719,10 L8.68261719,3.54443359 Z" id="GK" fill="#FFFFFF" fill-rule="nonzero"></path>
        </g>
    </g>
</svg>