<?xml version="1.0" encoding="UTF-8"?>
<svg width="16px" height="16px" viewBox="0 0 16 16" version="1.1" xmlns="http://www.w3.org/2000/svg" xmlns:xlink="http://www.w3.org/1999/xlink">
    <title>static_poisson_ratio_16x16</title>
    <defs>
        <linearGradient x1="25.5187587%" y1="78.1299421%" x2="115.254627%" y2="7.70563241%" id="linearGradient-1">
            <stop stop-color="#F16464" offset="0%"></stop>
            <stop stop-color="#F79494" offset="54.49984%"></stop>
            <stop stop-color="#FFD3D3" offset="100%"></stop>
        </linearGradient>
    </defs>
    <g id="static_poisson_ratio_16x16" stroke="none" stroke-width="1" fill="none" fill-rule="evenodd">
        <g id="Group" transform="translate(0.000000, 1.500000)" fill="url(#linearGradient-1)" stroke="#FFFFFF">
            <rect id="Rectangle-Copy-7" x="-0.5" y="-0.5" width="17" height="14" rx="2"></rect>
        </g>
        <polygon id="v" fill="#FFFFFF" fill-rule="nonzero" points="4.2890625 3.72460938 5.96484375 8.83398438 7.71679688 3.72460938 8.87109375 3.72460938 6.50390625 10 5.37890625 10 3.06445313 3.72460938"></polygon>
        <path d="M8.5634512,10.8113421 C8.59470136,11.1629064 8.6825911,11.4324349 8.82712308,11.6199359 C9.09274941,11.9597813 9.5536823,12.1297015 10.2099356,12.1297015 C10.6005625,12.1297015 10.9443091,12.0447414 11.2411856,11.8748187 C11.5380621,11.7048959 11.6864981,11.4422033 11.6864981,11.0867327 C11.6864981,10.8172001 11.5673586,10.6121241 11.3290762,10.4714984 C11.1767317,10.3855604 10.8759534,10.2859521 10.4267325,10.1726702 L9.58884183,9.96173274 C9.0536829,9.82891957 8.6591556,9.68048356 8.40524808,9.51642024 C7.95212081,9.23126256 7.72556058,8.83673525 7.72556058,8.33282649 C7.72556058,7.73907352 7.93942563,7.25860957 8.36716214,6.89142024 C8.79489865,6.5242309 9.37008821,6.34063899 10.0927481,6.34063899 C11.0380653,6.34063899 11.7196991,6.61797996 12.13767,7.17267024 C12.39939,7.52423449 12.5263419,7.90313695 12.5185293,8.30938899 L11.5224356,8.30938899 C11.5029042,8.07110654 11.4189207,7.85431184 11.2704825,7.65899836 C11.0282937,7.38165322 10.6083761,7.24298274 10.0107168,7.24298274 C9.61227734,7.24298274 9.31052254,7.31915385 9.10544339,7.47149836 C8.90036424,7.62384287 8.7978262,7.82501274 8.7978262,8.07501399 C8.7978262,8.34845285 8.93259048,8.56720066 9.20212308,8.73126399 C9.35837386,8.82892072 9.5888403,8.91485736 9.89352933,8.98907649 L10.590795,9.15899836 C11.3486112,9.34259303 11.8564187,9.52032563 12.1142325,9.69220149 C12.5243908,9.96173408 12.7294668,10.385558 12.7294668,10.9636859 C12.7294668,11.5222824 12.5175549,12.0046995 12.0937246,12.4109515 C11.6698944,12.8172035 11.024393,13.0203265 10.1572012,13.0203265 C9.22360278,13.0203265 8.56247658,12.8084145 8.17380276,12.3845843 C7.78512895,11.9607541 7.57712321,11.4363452 7.54977933,10.8113421 L8.5634512,10.8113421 Z" id="s" fill="#FFFFFF" fill-rule="nonzero"></path>
    </g>
</svg>