<?xml version="1.0" encoding="UTF-8"?>
<svg width="16px" height="16px" viewBox="0 0 16 16" version="1.1" xmlns="http://www.w3.org/2000/svg" xmlns:xlink="http://www.w3.org/1999/xlink">
    <title>summation_16x16</title>
    <g id="summation_16x16" stroke="none" stroke-width="1" fill="none" fill-rule="evenodd">
        <rect id="Rectangle" stroke="#0077BE" x="2" y="2" width="12" height="13.5" rx="2"></rect>
        <rect id="Rectangle" stroke="#0077BE" fill="#FFFFFF" x="4.5" y="0.5" width="7" height="3" rx="1.5"></rect>
        <rect id="Rectangle-Copy-9" fill="#0077BE" x="7" y="5.5" width="5" height="1" rx="0.5"></rect>
        <rect id="Rectangle-Copy-10" fill="#0077BE" x="7" y="9" width="5" height="1" rx="0.5"></rect>
        <rect id="Rectangle-Copy-11" fill="#0077BE" x="7" y="12.5" width="5" height="1" rx="0.5"></rect>
        <path d="M4.29294129,5.29302587 C3.9023529,5.68360205 3.9023529,6.31639795 4.29294129,6.70697413 C4.68365466,7.09767529 5.31634534,7.09767529 5.70705871,6.70697413 C6.0976471,6.31639795 6.0976471,5.68360205 5.70705871,5.29302587 C5.31634534,4.90232471 4.68365466,4.90232471 4.29294129,5.29302587" id="Path-Copy-7" fill="#DB4D4D"></path>
        <path d="M4.29294129,8.79302587 C3.9023529,9.18360205 3.9023529,9.81639795 4.29294129,10.2069741 C4.68365466,10.5976753 5.31634534,10.5976753 5.70705871,10.2069741 C6.0976471,9.81639795 6.0976471,9.18360205 5.70705871,8.79302587 C5.31634534,8.40232471 4.68365466,8.40232471 4.29294129,8.79302587" id="Path-Copy-8" fill="#DB4D4D"></path>
        <path d="M4.29294129,12.2930259 C3.9023529,12.683602 3.9023529,13.316398 4.29294129,13.7069741 C4.68365466,14.0976753 5.31634534,14.0976753 5.70705871,13.7069741 C6.0976471,13.316398 6.0976471,12.683602 5.70705871,12.2930259 C5.31634534,11.9023247 4.68365466,11.9023247 4.29294129,12.2930259" id="Path-Copy-9" fill="#DB4D4D"></path>
    </g>
</svg>