<?xml version="1.0" encoding="UTF-8"?>
<svg width="16px" height="16px" viewBox="0 0 16 16" version="1.1" xmlns="http://www.w3.org/2000/svg" xmlns:xlink="http://www.w3.org/1999/xlink">
    <title>swap_templates_of_two_makers_16x16 </title>
    <g id="swap_templates_of_two_makers_16x16-" stroke="none" stroke-width="1" fill="none" fill-rule="evenodd">
        <g id="Group" transform="translate(0.500000, 0.000000)">
            <rect id="Rectangle-7-Copy-12" stroke="#0077BE" x="1.5" y="0.5" width="12" height="15" rx="2"></rect>
            <polygon id="Fill-21" fill="#FFFFFF" transform="translate(13.500000, 6.000000) rotate(-180.000000) translate(-13.500000, -6.000000) " points="12.5 10 14.5 10 14.5 2 12.5 2"></polygon>
            <polygon id="Fill-21-Copy" fill="#FFFFFF" transform="translate(1.500000, 10.000000) rotate(-180.000000) translate(-1.500000, -10.000000) " points="0.5 14 2.5 14 2.5 6 0.5 6"></polygon>
            <g id="Group-2" transform="translate(6.000000, 3.000000)" stroke="#0077BE" stroke-linecap="round">
                <line x1="1" y1="3" x2="7" y2="3.0203298" id="Line-5"></line>
                <line x1="5" y1="0.5" x2="7" y2="3.0203298" id="Line-5"></line>
                <line x1="5" y1="5.5" x2="7" y2="3.0203298" id="Line-5"></line>
            </g>
            <g id="Group-2" transform="translate(5.000000, 10.033282) rotate(-180.000000) translate(-5.000000, -10.033282) translate(1.000000, 7.033282)" stroke="#0077BE" stroke-linecap="round">
                <line x1="1" y1="3" x2="7" y2="3.0203298" id="Line-5"></line>
                <line x1="5" y1="0.5" x2="7" y2="3.0203298" id="Line-5"></line>
                <line x1="5" y1="5.5" x2="7" y2="3.0203298" id="Line-5"></line>
            </g>
        </g>
    </g>
</svg>