<?xml version="1.0" encoding="UTF-8"?>
<svg width="16px" height="16px" viewBox="0 0 16 16" version="1.1" xmlns="http://www.w3.org/2000/svg" xmlns:xlink="http://www.w3.org/1999/xlink">
    <title>tensile_strength_from_ucs_16x16</title>
    <defs>
        <linearGradient x1="119.050177%" y1="10.5724939%" x2="50%" y2="89.4275061%" id="linearGradient-1">
            <stop stop-color="#F99D9D" offset="0%"></stop>
            <stop stop-color="#F16464" offset="100%"></stop>
        </linearGradient>
    </defs>
    <g id="tensile_strength_from_ucs_16x16" stroke="none" stroke-width="1" fill="none" fill-rule="evenodd">
        <g id="rock" transform="translate(0.175722, 7.175722)">
            <polygon id="Path" fill="#77767E" points="3.95245313 0 0.0138750049 2.25167951 0.0138750049 6.39030777 3.97956778 8.64186912 7.91960553 6.39018961 7.91960553 2.25156136"></polygon>
            <polygon id="Path" fill="#6EC9FF" points="7.91960553 2.25156136 3.97956778 4.50324087 0.643642246 2.60920309 0.0138750049 2.25167951 3.95245313 0 6.59244757 0.952310347"></polygon>
            <polygon id="Path" fill="#0077BE" points="7.91960553 2.25156136 7.91960553 6.39018961 3.97956778 8.64186912 3.97956778 4.50324087 5.14865715 3.83511636 6.64423843 2.30650137"></polygon>
            <g id="Group" transform="translate(0.000000, 2.109831)">
                <polygon id="Path" fill="#329BD9" points="3.97956778 2.39340954 3.97956778 6.53203779 0.0138750049 4.28047644 0.0138750049 0.14184818 1.56243202 0.0100765544"></polygon>
                <path d="M7.26734292,1.4189544 C7.53261653,1.26841372 7.74812558,1.26816054 7.74858987,1.4189544 C7.74901853,1.56942757 7.53419636,1.81337471 7.26892275,1.96391539 C7.00364914,2.11445608 6.78814009,2.11470926 6.78767581,1.96425297 C6.78724715,1.8134591 7.00206932,1.56951196 7.26734292,1.4189544" id="Path" fill="#005181"></path>
            </g>
            <path d="M6.07512282,4.92527465 C6.25609891,4.82256806 6.40343498,4.82599442 6.40374456,4.93319073 C6.40405317,5.04038704 6.25721509,5.21074327 6.07623901,5.31343298 C5.89495382,5.41630835 5.74792685,5.4127132 5.74761727,5.30551689 C5.74730866,5.19832058 5.89383764,5.02813314 6.07512282,4.92527465" id="Path" fill="#004F7E"></path>
            <path d="M2.47263578,5.11461935 C2.65361186,5.21732594 2.80015802,5.38751337 2.79983229,5.49470968 C2.79952265,5.60190599 2.65247851,5.60516357 2.47150242,5.50245698 C2.29023441,5.39958161 2.14368826,5.22973175 2.14399687,5.12255232 C2.14432363,5.01533913 2.29136777,5.01174397 2.47263578,5.11461935" id="Path" fill="#006EAF"></path>
            <path d="M0.54490304,5.65222125 C0.700773609,5.75492784 0.827005244,5.92511527 0.826730939,6.03231159 C0.826455739,6.1395079 0.699811975,6.14276547 0.543941406,6.04005889 C0.387796084,5.93718351 0.261581621,5.76733365 0.261855926,5.66015422 C0.262148298,5.55294103 0.388792062,5.54934588 0.54490304,5.65222125" id="Path" fill="#006EAF"></path>
            <g id="Group" transform="translate(0.549505, 3.544517)">
                <path d="M2.59077938,3.57943856 C2.60939387,3.5900046 2.62838614,3.60227538 2.64761882,3.61626778 C2.81377544,3.73757464 2.93394535,3.94146874 2.91584602,4.07192383 C2.89984168,4.18759322 2.78118292,4.2071387 2.63901563,4.12647563 C2.62041832,4.11592647 2.60140887,4.10363881 2.58219337,4.08964641 C2.41603675,3.96833955 2.29586684,3.76444545 2.31396617,3.63365279 C2.32995333,3.51828721 2.44862927,3.49875861 2.59077938,3.57943856" id="Path" fill="#015C92"></path>
                <path d="M0.130095343,0.0222798188 C0.138475297,0.0270227197 0.14702697,0.0325589171 0.155681677,0.0388546538 C0.230483064,0.0934570885 0.284592149,0.185260069 0.276435432,0.243980895 C0.269240349,0.296051532 0.215800974,0.304862188 0.151800796,0.268539332 C0.143438015,0.263796431 0.134869169,0.258260233 0.126214463,0.251964497 C0.0514130752,0.197362062 -0.00269600962,0.105559081 0.00546070738,0.046669469 C0.0126729624,-0.00524926035 0.0660779937,-0.0140261587 0.130095343,0.0222798188" id="Path" fill="#0066A3"></path>
            </g>
            <path d="M1.14525458,5.02153359 C1.22896826,5.06903011 1.2967978,5.19457352 1.29650681,5.30176983 C1.29619678,5.40862857 1.22785208,5.45688463 1.14415557,5.40937123 C1.0604419,5.3618747 0.992904282,5.23651697 0.993212322,5.12965823 C0.993505303,5.02244504 1.06155808,4.97403707 1.14525458,5.02153359" id="Path" fill-opacity="0.511690444" fill="#005F98"></path>
            <path d="M4.92844296,6.92858481 C5.08937928,6.83725443 5.22019585,6.8493733 5.22050549,6.95557377 C5.22081404,7.06209494 5.09049546,7.22242524 4.92955914,7.31375562 C4.76862282,7.40510288 4.63808101,7.39278146 4.63778847,7.2862603 C4.63746281,7.18005983 4.76750664,7.01991519 4.92844296,6.92858481" id="Path" fill="#004975"></path>
            <path d="M7.07142717,5.49135083 C7.23236349,5.40002045 7.36288813,5.410654 7.36318061,5.51518349 C7.36348915,5.61971297 7.23344533,5.77854107 7.07250901,5.86987145 C6.91157269,5.96120183 6.78075612,5.95039949 6.78044653,5.84587001 C6.7801551,5.74134053 6.91049085,5.58268121 7.07142717,5.49135083" id="Path" fill="#004067"></path>
            <path d="M4.65156106,5.06594132 C4.73733538,5.01726329 4.80679626,5.04485989 4.80703729,5.12775094 C4.80727708,5.21030442 4.73821115,5.31653865 4.65243683,5.36521668 C4.56695444,5.41372592 4.49749355,5.38611245 4.4972696,5.30355897 C4.49701273,5.22066791 4.56609583,5.11443369 4.65156106,5.06594132" id="Path" fill="#004066"></path>
        </g>
        <g id="Group-Copy" transform="translate(4.175722, 0.000000)" fill="url(#linearGradient-1)" stroke="#FFFFFF">
            <rect id="Rectangle-Copy-7" x="-0.5" y="-0.5" width="12.8242784" height="11.5" rx="2"></rect>
        </g>
        <path d="M9.71963447,2.76171875 L9.71963447,3.4453125 L7.78604072,3.4453125 L7.78604072,8.5 L6.99697822,8.5 L6.99697822,3.4453125 L5.06338447,3.4453125 L5.06338447,2.76171875 L9.71963447,2.76171875 Z M10.9383845,6.6484375 C10.9566137,6.97395996 11.0334359,7.23828023 11.1688532,7.44140625 C11.426667,7.82161648 11.8810896,8.01171875 12.5321345,8.01171875 C12.8238026,8.01171875 13.0894249,7.9700525 13.3290095,7.88671875 C13.7925535,7.72525961 14.024322,7.4362 14.024322,7.01953125 C14.024322,6.70702969 13.9266667,6.48437566 13.7313532,6.3515625 C13.5334356,6.22135352 13.2235428,6.1080734 12.8016657,6.01171875 L12.024322,5.8359375 C11.5165069,5.72135359 11.1571355,5.59505277 10.946197,5.45703125 C10.5816118,5.21744672 10.399322,4.85937738 10.399322,4.3828125 C10.399322,3.86718492 10.5777056,3.44401207 10.9344782,3.11328125 C11.2912508,2.78255043 11.7964541,2.6171875 12.4501032,2.6171875 C13.0516687,2.6171875 13.5627313,2.76236834 13.9833063,3.05273438 C14.4038814,3.34310041 14.6141657,3.80728848 14.6141657,4.4453125 L13.883697,4.4453125 C13.8446343,4.1380193 13.7613018,3.90234457 13.633697,3.73828125 C13.3967166,3.43880059 12.9943769,3.2890625 12.4266657,3.2890625 C11.9683301,3.2890625 11.6389063,3.3854157 11.4383845,3.578125 C11.2378626,3.7708343 11.1376032,3.99479039 11.1376032,4.25 C11.1376032,4.53125141 11.2547896,4.73697852 11.4891657,4.8671875 C11.6428123,4.95052125 11.9904651,5.05468687 12.5321345,5.1796875 L13.336822,5.36328125 C13.7248447,5.45182336 14.0243209,5.5729159 14.2352595,5.7265625 C14.5998446,5.99479301 14.7821345,6.38411203 14.7821345,6.89453125 C14.7821345,7.52995109 14.551017,7.98437363 14.0887751,8.2578125 C13.6265332,8.53125137 13.0894292,8.66796875 12.477447,8.66796875 C11.7639017,8.66796875 11.2053136,8.48567891 10.8016657,8.12109375 C10.3980179,7.75911277 10.2001032,7.26823227 10.2079157,6.6484375 L10.9383845,6.6484375 Z" id="TS" fill="#FFFFFF" fill-rule="nonzero"></path>
    </g>
</svg>