<?xml version="1.0" encoding="UTF-8"?>
<svg width="16px" height="16px" viewBox="0 0 16 16" version="1.1" xmlns="http://www.w3.org/2000/svg" xmlns:xlink="http://www.w3.org/1999/xlink">
    <title>toggle_well_file_name_16x16</title>
    <g id="toggle_well_file_name_16x16" stroke="none" stroke-width="1" fill="none" fill-rule="evenodd">
        <path d="M5.2252745,4.15249287 L1.52566503,1.1928053 C1.31003407,1.02030052 0.99538788,1.05526121 0.822883106,1.27089218 C0.751957887,1.3595487 0.713317511,1.46970395 0.713317511,1.5832397 L0.713317511,7.50261485 C0.713317511,7.77875723 0.937175136,8.00261485 1.21331751,8.00261485 C1.32685326,8.00261485 1.43700851,7.96397448 1.52566503,7.89304926 L5.2252745,4.93336168 C5.44090547,4.76085691 5.47586616,4.44621072 5.30336139,4.23057975 C5.2802955,4.2017474 5.25410686,4.17555875 5.2252745,4.15249287 Z" id="Fill-3" fill="#0077BE" transform="translate(3.213318, 4.542927) rotate(-180.000000) translate(-3.213318, -4.542927) "></path>
        <rect id="Rectangle" fill="#0077BE" transform="translate(7.703486, 4.542927) rotate(-270.000000) translate(-7.703486, -4.542927) " x="6.2034859" y="1.95973069" width="3" height="5.16639317" rx="0.5"></rect>
        <path d="M14.7986395,11.1524929 L11.09903,8.1928053 C10.883399,8.02030052 10.5687529,8.05526121 10.3962481,8.27089218 C10.3253229,8.3595487 10.2866825,8.46970395 10.2866825,8.5832397 L10.2866825,14.5026149 C10.2866825,14.7787572 10.5105401,15.0026149 10.7866825,15.0026149 C10.9002182,15.0026149 11.0103735,14.9639745 11.09903,14.8930493 L14.7986395,11.9333617 C15.0142705,11.7608569 15.0492311,11.4462107 14.8767264,11.2305798 C14.8536605,11.2017474 14.8274718,11.1755588 14.7986395,11.1524929 Z" id="Fill-3" fill="#0077BE"></path>
        <rect id="Rectangle" fill="#0077BE" transform="translate(8.339441, 11.542927) rotate(-270.000000) translate(-8.339441, -11.542927) " x="6.83944137" y="8.91680341" width="3" height="5.25224773" rx="0.5"></rect>
    </g>
</svg>