<?xml version="1.0" encoding="UTF-8"?>
<svg width="16px" height="16px" viewBox="0 0 16 16" version="1.1" xmlns="http://www.w3.org/2000/svg" xmlns:xlink="http://www.w3.org/1999/xlink">
    <title>tools_normal_16x16</title>
    <defs>
        <linearGradient x1="60.0611435%" y1="15.6593998%" x2="40.3107348%" y2="90.579711%" id="linearGradient-1">
            <stop stop-color="#1AAAFF" offset="0%"></stop>
            <stop stop-color="#0077BE" offset="100%"></stop>
        </linearGradient>
        <linearGradient x1="23.7819474%" y1="0%" x2="23.7819474%" y2="92.2996132%" id="linearGradient-2">
            <stop stop-color="#F16464" offset="0%"></stop>
            <stop stop-color="#F79494" offset="54.49984%"></stop>
            <stop stop-color="#FFD3D3" stop-opacity="0" offset="100%"></stop>
        </linearGradient>
        <linearGradient x1="23.7819474%" y1="0%" x2="23.7819474%" y2="92.2996132%" id="linearGradient-3">
            <stop stop-color="#F16464" offset="0%"></stop>
            <stop stop-color="#F79494" offset="54.49984%"></stop>
            <stop stop-color="#FFD3D3" stop-opacity="0" offset="100%"></stop>
        </linearGradient>
    </defs>
    <g id="tools_normal_16x16" stroke="none" stroke-width="1" fill="none" fill-rule="evenodd">
        <g id="Group" transform="translate(1.000000, 0.000000)">
            <path d="M3.22727273,0.5 C6.40909091,1.05000234 8,2.41363871 8,4.59090909 C8,9.16493955 0.5,7.99289056 0.5,12.0766836 C0.5,13.6770764 1.40909091,14.8181818 3.22727273,15.5 L3.22727273,0.5 Z" id="Rectangle" fill="url(#linearGradient-1)"></path>
            <rect id="Rectangle-7-Copy-8" fill="#0077BE" x="3" y="0" width="1" height="16" rx="0.5"></rect>
        </g>
        <g id="Group-2" transform="translate(12.799155, 8.500000) rotate(-90.000000) translate(-12.799155, -8.500000) translate(10.299155, 4.500000)">
            <polygon id="Fill-21" fill="url(#linearGradient-2)" transform="translate(2.461646, 2.279257) rotate(-180.000000) translate(-2.461646, -2.279257) " points="1.40665479 4.21996438 3.51663698 4.21996438 3.51663698 0.33854915 1.40665479 0.33854915"></polygon>
            <polygon id="Fill-22" fill="#F16464" transform="translate(2.461646, 5.626619) rotate(-180.000000) translate(-2.461646, -5.626619) " points="2.46164589 4.21996438 4.26325641e-14 7.03327396 4.92329177 7.03327396"></polygon>
        </g>
        <g id="Group-2" transform="translate(9.328501, 13.500000) rotate(-270.000000) translate(-9.328501, -13.500000) translate(6.828501, 9.500000)">
            <polygon id="Fill-21" fill="url(#linearGradient-3)" transform="translate(2.500000, 2.314769) rotate(-180.000000) translate(-2.500000, -2.314769) " points="1.42857143 4.28571429 3.57142857 4.28571429 3.57142857 0.343823975 1.42857143 0.343823975"></polygon>
            <polygon id="Fill-22" fill="#F16464" transform="translate(2.500000, 5.714286) rotate(-180.000000) translate(-2.500000, -5.714286) " points="2.5 4.28571429 4.26325641e-14 7.14285714 5 7.14285714"></polygon>
        </g>
    </g>
</svg>