<?xml version="1.0" encoding="UTF-8"?>
<svg width="32px" height="32px" viewBox="0 0 32 32" version="1.1" xmlns="http://www.w3.org/2000/svg" xmlns:xlink="http://www.w3.org/1999/xlink">
    <title>toolbox_32x32</title>
    <defs>
        <linearGradient x1="71.3157238%" y1="39.4965278%" x2="50%" y2="60.5034722%" id="linearGradient-1">
            <stop stop-color="#1AAAFF" offset="0%"></stop>
            <stop stop-color="#0077BE" offset="100%"></stop>
        </linearGradient>
        <linearGradient x1="50%" y1="3.49530347%" x2="50%" y2="100%" id="linearGradient-2">
            <stop stop-color="#1AAAFF" offset="0%"></stop>
            <stop stop-color="#0077BE" offset="100%"></stop>
        </linearGradient>
        <linearGradient x1="116.356115%" y1="0%" x2="50%" y2="100%" id="linearGradient-3">
            <stop stop-color="#F99D9D" offset="0%"></stop>
            <stop stop-color="#F16464" offset="100%"></stop>
        </linearGradient>
    </defs>
    <g id="toolbox_32x32" stroke="none" stroke-width="1" fill="none" fill-rule="evenodd">
        <path d="" id="Path-5" stroke="#979797"></path>
        <rect id="Rectangle" stroke="#0077BE" x="2" y="5.5" width="23" height="18" rx="2"></rect>
        <path d="M18,2.5 C18.4142136,2.5 18.7892136,2.66789322 19.0606602,2.93933983 C19.3321068,3.21078644 19.5,3.58578644 19.5,4 L19.5,4 L19.5,5.5 L7.5,5.5 L7.5,4 C7.5,3.58578644 7.66789322,3.21078644 7.93933983,2.93933983 C8.21078644,2.66789322 8.58578644,2.5 9,2.5 L9,2.5 Z" id="Rectangle" stroke="#0077BE" fill="#FFFFFF"></path>
        <path d="M1.5,13 L25.5,13 L25.5,21 C25.5,22.6568542 24.1568542,24 22.5,24 L3.5,24 C2.3954305,24 1.5,23.1045695 1.5,22 L1.5,13 L1.5,13 Z" id="Rectangle-Copy-10" fill="url(#linearGradient-1)"></path>
        <rect id="Rectangle" stroke="#FFFFFF" fill="url(#linearGradient-2)" x="11.5" y="10.5" width="4" height="6" rx="2"></rect>
        <g id="Group" transform="translate(18.000000, 16.500000)">
            <rect id="Rectangle-Copy" stroke="#FFFFFF" fill="url(#linearGradient-3)" x="-0.5" y="0.5" width="14" height="14" rx="2"></rect>
            <text id="+" fill="#FFFFFF" font-family="Helvetica" font-size="12" font-weight="normal">
                <tspan x="1.78953863" y="11.0535118">+ </tspan>
            </text>
            <text id="-" fill="#FFFFFF" font-family="Helvetica" font-size="12" font-weight="normal">
                <tspan x="6.54344488" y="14.5510273">- </tspan>
            </text>
        </g>
    </g>
</svg>