<?xml version="1.0" encoding="UTF-8"?>
<svg width="16px" height="16px" viewBox="0 0 16 16" version="1.1" xmlns="http://www.w3.org/2000/svg" xmlns:xlink="http://www.w3.org/1999/xlink">
    <title>track_delete_16x16</title>
    <g id="track_delete_16x16" stroke="none" stroke-width="1" fill="none" fill-rule="evenodd">
        <rect id="Rectangle-7-Copy-10" stroke="#ACACAC" x="0.5" y="0.5" width="8" height="15" rx="2"></rect>
        <g id="Group-3" transform="translate(12.000000, 12.000000) rotate(-315.000000) translate(-12.000000, -12.000000) translate(8.000000, 8.000000)">
            <circle id="Oval-2" stroke="#FFFFFF" fill="#F16464" transform="translate(4.000000, 4.000000) rotate(-90.000000) translate(-4.000000, -4.000000) " cx="4" cy="4" r="4.5"></circle>
            <g id="Group-2" transform="translate(1.000000, 1.000000)" fill="#FFFFFF">
                <rect id="Rectangle" transform="translate(3.000000, 3.000000) rotate(-360.000000) translate(-3.000000, -3.000000) " x="2.5" y="0.545454545" width="1" height="4.90909091" rx="0.5"></rect>
                <path d="M3,0.545454545 C3.27614237,0.545454545 3.5,0.769312171 3.5,1.04545455 L3.5,4.95454545 C3.5,5.23068783 3.27614237,5.45454545 3,5.45454545 C2.72385763,5.45454545 2.5,5.23068783 2.5,4.95454545 L2.5,1.04545455 C2.5,0.769312171 2.72385763,0.545454545 3,0.545454545 Z" id="Rectangle" transform="translate(3.000000, 3.000000) rotate(-630.000000) translate(-3.000000, -3.000000) "></path>
            </g>
        </g>
        <path d="M5.76344401,5.42086398 C6.16344401,5.82086398 6.46344401,6.32086398 6.46344401,6.92086398 L6.46344401,7.02086398 L5.46344401,7.02086398 C5.46344401,7.02086398 5.46344401,6.92086398 5.46344401,6.92086398 C5.46344401,6.42086398 4.96344401,5.92086398 4.46344401,5.92086398 C3.96344401,5.92086398 3.46344401,5.72086398 3.16344401,5.42086398 C2.76344401,5.02086398 2.46344401,4.52086398 2.46344401,3.92086398 C2.46344401,3.32086398 2.76344401,2.82086398 3.16344401,2.42086398 C3.46344401,2.12086398 3.96344401,1.92086398 4.46344401,1.92086398 C4.96344401,1.92086398 5.43581353,1.67451534 5.46344401,1.02086398 C5.49107449,0.367212622 6.46344401,0.409389909 6.46344401,1.02086398 C6.46344401,1.63233805 6.16344401,2.12086398 5.76344401,2.42086398 C5.46344401,2.72086398 4.96344401,2.92086398 4.46344401,2.92086398 C3.96344401,2.92086398 3.46344401,3.42086398 3.46344401,3.92086398 C3.46344401,4.42086398 3.96344401,4.92086398 4.46344401,4.92086398 C4.96344401,4.92086398 5.46344401,5.12086398 5.76344401,5.42086398 Z" id="Path" fill="#BBBBBB"></path>
        <path d="M5.76344401,17.420864 C6.16344401,17.820864 6.46344401,18.320864 6.46344401,18.920864 L6.46344401,19.020864 L5.46344401,19.020864 C5.46344401,19.020864 5.46344401,18.920864 5.46344401,18.920864 C5.46344401,18.420864 4.96344401,17.920864 4.46344401,17.920864 C3.96344401,17.920864 3.46344401,17.720864 3.16344401,17.420864 C2.76344401,17.020864 2.46344401,16.520864 2.46344401,15.920864 C2.46344401,15.320864 2.76344401,14.820864 3.16344401,14.420864 C3.46344401,14.120864 3.96344401,13.920864 4.46344401,13.920864 C4.96344401,13.920864 5.46344401,13.420864 5.46344401,13.020864 L6.46344401,13.020864 C6.46344401,13.620864 6.16344401,14.120864 5.76344401,14.420864 C5.46344401,14.720864 4.96344401,14.920864 4.46344401,14.920864 C3.96344401,14.920864 3.46344401,15.420864 3.46344401,15.920864 C3.46344401,16.420864 3.96344401,16.920864 4.46344401,16.920864 C4.96344401,16.920864 5.46344401,17.120864 5.76344401,17.420864 Z" id="Path" fill="#BBBBBB"></path>
        <path d="M5.76344401,11.420864 C6.16344401,11.820864 6.46344401,12.320864 6.46344401,12.920864 L6.46344401,13.020864 L5.46344401,13.020864 C5.46344401,13.020864 5.46344401,12.920864 5.46344401,12.920864 C5.46344401,12.420864 4.96344401,11.920864 4.46344401,11.920864 C3.96344401,11.920864 3.46344401,11.720864 3.16344401,11.420864 C2.76344401,11.020864 2.46344401,10.520864 2.46344401,9.92086398 C2.46344401,9.32086398 2.76344401,8.82086398 3.16344401,8.42086398 C3.46344401,8.12086398 3.96344401,7.92086398 4.46344401,7.92086398 C4.96344401,7.92086398 5.46344401,7.42086398 5.46344401,7.02086398 L6.46344401,7.02086398 C6.46344401,7.62086398 6.16344401,8.12086398 5.76344401,8.42086398 C5.46344401,8.72086398 4.96344401,8.92086398 4.46344401,8.92086398 C3.96344401,8.92086398 3.46344401,9.42086398 3.46344401,9.92086398 C3.46344401,10.420864 3.96344401,10.920864 4.46344401,10.920864 C4.96344401,10.920864 5.46344401,11.120864 5.76344401,11.420864 Z" id="Path" fill="#BBBBBB"></path>
    </g>
</svg>