<?xml version="1.0" encoding="UTF-8"?>
<svg width="16px" height="16px" viewBox="0 0 16 16" version="1.1" xmlns="http://www.w3.org/2000/svg" xmlns:xlink="http://www.w3.org/1999/xlink">
    <title>tri_tracks_blank_16x16</title>
    <g id="tri_tracks_blank_16x16" stroke="none" stroke-width="1" fill="none" fill-rule="evenodd">
        <rect id="Rectangle-7-Copy-12" stroke="#0077BE" x="0.5" y="0.5" width="5" height="15" rx="2"></rect>
        <g id="Group-3" transform="translate(7.000000, 7.137414)" fill-rule="nonzero">
            <path d="M6.19188698,-0.464979306 C6.49862454,-0.464979306 6.80800175,-0.327875245 7.02127225,-0.114604746 L7.02127225,-0.114604746 L8.14967358,1.01379658 C8.3604187,1.2245417 8.50004814,1.55258851 8.50004814,1.85677705 C8.50004814,2.16351461 8.36294408,2.47289183 8.14967358,2.68616233 L8.14967358,2.68616233 L6.89891548,3.93692042 L2.7005113,8.13532461 L-0.324491711,8.53622862 L-0.142133286,5.41789955 L5.35414478,-0.106207768 C5.57159657,-0.341410552 5.88004842,-0.464979306 6.19188698,-0.464979306 Z" id="Path" stroke="#FFFFFF" fill="#F16464"></path>
            <polygon id="Path" fill="#FFFFFF" points="1.09368822 7.58035486 0.441118776 6.92778542 0.563475547 5.93533606 2.07254238 7.44440289"></polygon>
            <polygon id="Path" fill="#FFFFFF" points="6.45019572 3.2842727 4.73720093 1.57127792 5.36257998 0.945898873 7.07557476 2.65889366"></polygon>
        </g>
        <path d="M5.5,5.5 L5.5,2.5 C5.5,1.3954305 6.3954305,0.5 7.5,0.5 L8.5,0.5 C9.6045695,0.5 10.5,1.3954305 10.5,2.5 L10.5,5.5 L10.5,5.5" id="Line-6" stroke="#0077BE" stroke-linecap="round"></path>
        <path d="M10.5,7.5 L10.5,2.5 C10.5,1.3954305 11.3954305,0.5 12.5,0.5 L13.5,0.5 C14.6045695,0.5 15.5,1.3954305 15.5,2.5 L15.5,5.5 L15.5,5.5" id="Line-6" stroke="#0077BE" stroke-linecap="round"></path>
    </g>
</svg>