<?xml version="1.0" encoding="UTF-8"?>
<svg width="16px" height="16px" viewBox="0 0 16 16" version="1.1" xmlns="http://www.w3.org/2000/svg" xmlns:xlink="http://www.w3.org/1999/xlink">
    <title>triple_combo_16x16</title>
    <defs>
        <linearGradient x1="50%" y1="3.49530347%" x2="50%" y2="100%" id="linearGradient-1">
            <stop stop-color="#1AAAFF" offset="0%"></stop>
            <stop stop-color="#0077BE" offset="100%"></stop>
        </linearGradient>
        <linearGradient x1="25.5187587%" y1="75.2136311%" x2="105.751016%" y2="5.51690302%" id="linearGradient-2">
            <stop stop-color="#F16464" offset="0%"></stop>
            <stop stop-color="#F79494" offset="54.49984%"></stop>
            <stop stop-color="#FFD3D3" offset="100%"></stop>
        </linearGradient>
    </defs>
    <g id="triple_combo_16x16" stroke="none" stroke-width="1" fill="none" fill-rule="evenodd">
        <g id="Group-2" transform="translate(0.000000, 1.000000)">
            <path d="M7.5,2.5 L7.5,13 C7.5,13.4142136 7.33210678,13.7892136 7.06066017,14.0606602 C6.78921356,14.3321068 6.41421356,14.5 6,14.5 L6,14.5 L2,14.5 C1.58578644,14.5 1.21078644,14.3321068 0.939339828,14.0606602 C0.667893219,13.7892136 0.5,13.4142136 0.5,13 L0.5,13 L0.5,2.5 L7.5,2.5 Z" id="Rectangle-7-Copy-8" stroke="#0077BE"></path>
            <g id="Group" transform="translate(2.000000, 2.000000)" fill="#0377BE">
                <g id="Untitled-1" transform="translate(0.500000, 0.000000)">
                    <path d="M1,3.5 C1,3.8 1.2,4 1.5,4 C1.9,4 2.3,4.2 2.6,4.5 C2.3,4.8 1.9,5 1.5,5 C1.1,5 0.7,4.8 0.4,4.5 C0.2,4.2 0,3.9 0,3.5 C0,3.1 0.2,2.8 0.4,2.5 C0.7,2.2 1.1,2 1.5,2 C1.8,2 2,1.8 2,1.5 C2,1.2 1.8,1 1.5,1 C1.1,1 0.7,0.8 0.4,0.5 C0.7,0.2 1.1,0 1.5,0 C1.9,0 2.3,0.2 2.6,0.5 C2.8,0.8 3,1.1 3,1.5 C3,1.9 2.8,2.2 2.6,2.5 C2.3,2.8 1.9,3 1.5,3 C1.2,3 1,3.2 1,3.5 Z" id="Path"></path>
                </g>
                <g id="Untitled-1-Copy" transform="translate(0.500000, 4.000000)">
                    <path d="M1,3.5 C1,3.8 1.2,4 1.5,4 C1.9,4 2.3,4.2 2.6,4.5 C2.3,4.8 1.9,5 1.5,5 C1.1,5 0.7,4.8 0.4,4.5 C0.2,4.2 0,3.9 0,3.5 C0,3.1 0.2,2.8 0.4,2.5 C0.7,2.2 1.1,2 1.5,2 C1.8,2 2,1.8 2,1.5 C2,1.2 1.8,1 1.5,1 C1.1,1 0.7,0.8 0.4,0.5 C0.7,0.2 1.1,0 1.5,0 C1.9,0 2.3,0.2 2.6,0.5 C2.8,0.8 3,1.1 3,1.5 C3,1.9 2.8,2.2 2.6,2.5 C2.3,2.8 1.9,3 1.5,3 C1.2,3 1,3.2 1,3.5 Z" id="Path"></path>
                </g>
                <g id="Untitled-1-Copy-2" transform="translate(0.500000, 8.000000)">
                    <path d="M1,3.5 C1,3.8 1.2,4 1.5,4 C1.9,4 2.3,4.2 2.6,4.5 C2.3,4.8 1.9,5 1.5,5 C1.1,5 0.7,4.8 0.4,4.5 C0.2,4.2 0,3.9 0,3.5 C0,3.1 0.2,2.8 0.4,2.5 C0.7,2.2 1.1,2 1.5,2 C1.8,2 2,1.8 2,1.5 C2,1.2 1.8,1 1.5,1 C1.1,1 0.7,0.8 0.4,0.5 C0.7,0.2 1.1,0 1.5,0 C1.9,0 2.3,0.2 2.6,0.5 C2.8,0.8 3,1.1 3,1.5 C3,1.9 2.8,2.2 2.6,2.5 C2.3,2.8 1.9,3 1.5,3 C1.2,3 1,3.2 1,3.5 Z" id="Path"></path>
                </g>
            </g>
            <path d="M2,0 L6,0 C7.1045695,-2.02906125e-16 8,0.8954305 8,2 L8,3 L8,3 L0,3 L0,2 C-1.3527075e-16,0.8954305 0.8954305,2.02906125e-16 2,0 Z" id="Rectangle" fill="url(#linearGradient-1)"></path>
        </g>
        <g id="Group-Copy" transform="translate(3.000000, 0.000000)">
            <rect id="Rectangle-Copy-7" fill="url(#linearGradient-2)" x="0" y="0" width="13" height="10" rx="2"></rect>
            <path d="M1.51353237,3.27050781 L2.65122768,3.27050781 L3.85239955,5.11132812 L5.06821987,3.27050781 L6.1375558,3.29492188 L4.37486049,5.81933594 L6.2156808,8.5 L5.09263393,8.5 L3.7938058,6.53710938 L2.53404018,8.5 L1.42075893,8.5 L3.26157924,5.81933594 L1.51353237,3.27050781 Z M8.96470424,8.69042969 C8.13787719,8.69042969 7.53811105,8.46338118 7.16538783,8.00927734 C6.79266462,7.55517351 6.6063058,7.00260742 6.6063058,6.3515625 L7.52427455,6.3515625 C7.56333725,6.80403872 7.64797182,7.13281147 7.7781808,7.33789062 C8.00604653,7.70573101 8.41782626,7.88964844 9.01353237,7.88964844 C9.47577426,7.88964844 9.8468643,7.76595176 10.1268136,7.51855469 C10.4067629,7.27115762 10.5467355,6.95215039 10.5467355,6.56152344 C10.5467355,6.0797502 10.3994388,5.7428395 10.104841,5.55078125 C9.81024313,5.358723 9.40090478,5.26269531 8.87681362,5.26269531 C8.81821957,5.26269531 8.75881262,5.26350911 8.69859096,5.26513672 C8.6383693,5.26676433 8.57733476,5.26920571 8.51548549,5.27246094 L8.51548549,4.49609375 C8.60663178,4.50585942 8.68312841,4.51236978 8.74497768,4.515625 C8.80682695,4.51888022 8.87355805,4.52050781 8.94517299,4.52050781 C9.27395068,4.52050781 9.54413027,4.468425 9.75571987,4.36425781 C10.1268155,4.18196523 10.3123605,3.85644766 10.3123605,3.38769531 C10.3123605,3.03938628 10.1886638,2.77083428 9.94126674,2.58203125 C9.69386967,2.39322822 9.40578661,2.29882812 9.07700893,2.29882812 C8.4910685,2.29882812 8.08579911,2.49413867 7.86118862,2.88476562 C7.73749008,3.09961045 7.6675038,3.40559697 7.65122768,3.80273438 L6.78208705,3.80273438 C6.78208705,3.28189844 6.88625268,2.83919453 7.09458705,2.47460938 C7.45266176,1.82356445 8.08253827,1.49804688 8.98423549,1.49804688 C9.69712968,1.49804688 10.248882,1.65673669 10.6395089,1.97412109 C11.0301359,2.29150549 11.2254464,2.75129907 11.2254464,3.35351562 C11.2254464,3.78320527 11.1098877,4.13150908 10.8787667,4.3984375 C10.7355369,4.56445396 10.5499918,4.69466099 10.3221261,4.7890625 C10.6899665,4.88997446 10.9772358,5.08447122 11.1839425,5.37255859 C11.3906493,5.66064597 11.4940011,6.01301875 11.4940011,6.4296875 C11.4940011,7.09700854 11.2742768,7.6406229 10.8348214,8.06054688 C10.3953661,8.48047085 9.77199994,8.69042969 8.96470424,8.69042969 Z" id="x3" fill="#FFFFFF" fill-rule="nonzero"></path>
        </g>
    </g>
</svg>