<?xml version="1.0" encoding="UTF-8"?>
<svg width="16px" height="16px" viewBox="0 0 16 16" version="1.1" xmlns="http://www.w3.org/2000/svg" xmlns:xlink="http://www.w3.org/1999/xlink">
    <title>unconfined_ompressive_trength_16x16</title>
    <g id="unconfined_ompressive_trength_16x16" stroke="none" stroke-width="1" fill="none" fill-rule="evenodd">
        <g id="rock" transform="translate(2.000000, 1.500000)">
            <polygon id="Path" fill="#77767E" points="5.94890193 0 0.0208834971 3.3890397 0.0208834971 9.61815685 5.98971263 13.0070187 11.919928 9.61797902 11.919928 3.38886187"></polygon>
            <polygon id="Path" fill="#6EC9FF" points="11.919928 3.38886187 5.98971263 6.77790156 0.968756483 3.92715429 0.0208834971 3.3890397 5.94890193 0 9.92240079 1.4333379"></polygon>
            <polygon id="Path" fill="#0077BE" points="11.919928 3.38886187 11.919928 9.61797902 5.98971263 13.0070187 5.98971263 6.77790156 7.74932818 5.77229643 10.0003521 3.47155297"></polygon>
            <g id="Group" transform="translate(0.000000, 3.175542)">
                <polygon id="Path" fill="#329BD9" points="5.98971263 3.60235989 5.98971263 9.83147704 0.0208834971 6.44261517 0.0208834971 0.213498018 2.35164202 0.0151663871"></polygon>
                <path d="M10.9381968,2.1356915 C11.3374645,1.90911025 11.6618307,1.90872919 11.6625295,2.1356915 C11.6631747,2.36217114 11.3398423,2.72933997 10.9405747,2.95592122 C10.541307,3.18250247 10.2169408,3.18288353 10.216242,2.9564293 C10.2155968,2.72946699 10.5389292,2.36229816 10.9381968,2.1356915" id="Path" fill="#005181"></path>
            </g>
            <path d="M9.14376684,7.41311152 C9.4161569,7.25852615 9.63791483,7.26368323 9.63838079,7.42502615 C9.63884528,7.58636907 9.41783689,7.84277501 9.14544682,7.99733497 C8.87259152,8.15217439 8.65129882,8.14676326 8.65083286,7.98542034 C8.65036837,7.82407742 8.87091154,7.56792553 9.14376684,7.41311152" id="Path" fill="#004F7E"></path>
            <path d="M3.7216046,7.69809733 C3.99399467,7.8526827 4.21456368,8.10883459 4.21407343,8.27017752 C4.21360738,8.43152044 3.99228884,8.43642347 3.71989877,8.2818381 C3.44706932,8.12699869 3.2265003,7.87135488 3.22696479,7.71003737 C3.2274566,7.54866904 3.44877515,7.54325792 3.7216046,7.69809733" id="Path" fill="#006EAF"></path>
            <path d="M0.820142487,8.50725075 C1.05474583,8.66183612 1.24473913,8.91798802 1.24432627,9.07933094 C1.24391206,9.24067386 1.05329846,9.2455769 0.818695116,9.09099153 C0.583678236,8.93615212 0.393710781,8.68050831 0.394123642,8.51919079 C0.394563696,8.35782247 0.585177299,8.35241134 0.820142487,8.50725075" id="Path" fill="#006EAF"></path>
            <g id="Group" transform="translate(0.827069, 5.334910)">
                <path d="M3.89942447,5.38747159 C3.92744144,5.4033747 3.95602702,5.42184365 3.98497444,5.44290384 C4.23505949,5.62548479 4.41592918,5.93236914 4.38868759,6.12871923 C4.3645992,6.30281513 4.18600395,6.33223334 3.97202564,6.21082603 C3.94403452,6.19494833 3.91542309,6.17645397 3.88650152,6.15539378 C3.63641647,5.97281283 3.45554678,5.66592849 3.48278837,5.46907031 C3.50685091,5.29543169 3.68547201,5.26603887 3.89942447,5.38747159" id="Path" fill="#015C92"></path>
                <path d="M0.195808631,0.0335337201 C0.208421436,0.0406723378 0.221292701,0.0490049592 0.23431904,0.0584807756 C0.346903834,0.140663794 0.428344304,0.278837964 0.416067495,0.36721964 C0.405238058,0.445592008 0.324805579,0.45885307 0.228477864,0.404182945 C0.215890905,0.397044327 0.202993795,0.388711706 0.189967455,0.37923589 C0.0773826613,0.297052871 -0.00405780822,0.158878701 0.0082190001,0.0702429819 C0.0190742832,-0.0079007477 0.0994550703,-0.0211110011 0.195808631,0.0335337201" id="Path" fill="#0066A3"></path>
            </g>
            <path d="M1.72374143,7.55799243 C1.84974025,7.62948023 1.9518316,7.81843766 1.95139363,7.97978058 C1.95092699,8.14061541 1.84806026,8.2132464 1.72208729,8.14173321 C1.59608847,8.07024541 1.49443649,7.88156743 1.49490013,7.72073259 C1.4953411,7.55936427 1.59776845,7.48650464 1.72374143,7.55799243" id="Path" fill-opacity="0.511690444" fill="#005F98"></path>
            <path d="M7.4178802,10.4283264 C7.66010809,10.2908636 7.85700225,10.3091039 7.8574683,10.468948 C7.8579327,10.6292747 7.66178807,10.8705905 7.41956018,11.0080533 C7.17733229,11.1455416 6.98085167,11.1269964 6.98041137,10.9666697 C6.97992122,10.8068256 7.17565231,10.5657893 7.4178802,10.4283264" id="Path" fill="#004975"></path>
            <path d="M10.6433208,8.26512205 C10.8855487,8.1276592 11.0820035,8.14366393 11.0824437,8.30099297 C11.0829081,8.45832201 10.887177,8.69737679 10.6449491,8.83483963 C10.4027212,8.97230248 10.2058271,8.95604371 10.2053611,8.79871467 C10.2049225,8.64138564 10.4010929,8.4025849 10.6433208,8.26512205" id="Path" fill="#004067"></path>
            <path d="M7.00114071,7.62483123 C7.13024104,7.55156514 7.23478776,7.59310122 7.23515054,7.7178619 C7.23551144,7.8421145 7.13155918,8.00200937 7.00245885,8.07527547 C6.8737979,8.14828752 6.76925119,8.10672603 6.76891411,7.98247344 C6.7685275,7.85771276 6.8725056,7.69781788 7.00114071,7.62483123" id="Path" fill="#004066"></path>
        </g>
    </g>
</svg>