<?xml version="1.0" encoding="UTF-8"?>
<svg width="32px" height="32px" viewBox="0 0 32 32" version="1.1" xmlns="http://www.w3.org/2000/svg" xmlns:xlink="http://www.w3.org/1999/xlink">
    <title>unit_breakdown_32x32</title>
    <g id="unit_breakdown_32x32" stroke="none" stroke-width="1" fill="none" fill-rule="evenodd">
        <path d="M15.5,1 C25.1666667,1.99436063 30,3.82487427 30,6.49154094 C30,11.8518776 16.8455243,9.5025907 16.8455243,13.5025907 C16.8455243,17.5051814 26.7799803,16 26.7799803,19.7821743 C26.7799803,23.784765 14,22 14,26.5 C14,28.6557473 17.5,30.1557473 24.5,31" id="Line-4" stroke="#0077BE" stroke-linecap="round"></path>
        <rect id="Rectangle" fill="#0077BE" x="3" y="6" width="4" height="1" rx="0.5"></rect>
        <rect id="Rectangle" fill="#0077BE" x="3" y="9" width="3" height="1" rx="0.5"></rect>
        <rect id="Rectangle-Copy" fill="#0077BE" x="3" y="16" width="3" height="1" rx="0.5"></rect>
        <rect id="Rectangle-Copy-7" fill="#0077BE" x="3" y="23" width="3" height="1" rx="0.5"></rect>
        <rect id="Rectangle-Copy-4" fill="#0077BE" x="2.5" y="13" width="3.5" height="1" rx="0.5"></rect>
        <rect id="Rectangle-Copy-8" fill="#0077BE" x="2.5" y="19" width="3.5" height="1" rx="0.5"></rect>
        <rect id="Rectangle-Copy-5" fill="#0077BE" x="3" y="13" width="3" height="1" rx="0.5"></rect>
        <g id="Group" transform="translate(8.000000, 6.000000)" fill="#F16464">
            <rect id="Rectangle-Copy-2" transform="translate(1.000000, 0.500000) scale(-1, 1) translate(-1.000000, -0.500000) " x="0" y="0" width="2" height="1" rx="0.5"></rect>
            <rect id="Rectangle-Copy-11" transform="translate(13.000000, 0.500000) scale(-1, 1) translate(-13.000000, -0.500000) " x="12" y="0" width="2" height="1" rx="0.5"></rect>
            <rect id="Rectangle-Copy-6" transform="translate(7.000000, 0.500000) scale(-1, 1) translate(-7.000000, -0.500000) " x="6" y="0" width="2" height="1" rx="0.5"></rect>
            <rect id="Rectangle-Copy-12" transform="translate(19.000000, 0.500000) scale(-1, 1) translate(-19.000000, -0.500000) " x="18" y="0" width="2" height="1" rx="0.5"></rect>
            <rect id="Rectangle-Copy-3" transform="translate(4.000000, 0.500000) scale(-1, 1) translate(-4.000000, -0.500000) " x="3" y="0" width="2" height="1" rx="0.5"></rect>
            <rect id="Rectangle-Copy-13" transform="translate(16.000000, 0.500000) scale(-1, 1) translate(-16.000000, -0.500000) " x="15" y="0" width="2" height="1" rx="0.5"></rect>
            <rect id="Rectangle-Copy-10" transform="translate(10.000000, 0.500000) scale(-1, 1) translate(-10.000000, -0.500000) " x="9" y="0" width="2" height="1" rx="0.5"></rect>
            <rect id="Rectangle-Copy-14" transform="translate(22.000000, 0.500000) scale(-1, 1) translate(-22.000000, -0.500000) " x="21" y="0" width="2" height="1" rx="0.5"></rect>
        </g>
        <g id="Group-Copy" transform="translate(7.000000, 13.000000)" fill="#F16464">
            <rect id="Rectangle-Copy-2" transform="translate(1.000000, 0.500000) scale(-1, 1) translate(-1.000000, -0.500000) " x="0" y="0" width="2" height="1" rx="0.5"></rect>
            <rect id="Rectangle-Copy-11" transform="translate(13.000000, 0.500000) scale(-1, 1) translate(-13.000000, -0.500000) " x="12" y="0" width="2" height="1" rx="0.5"></rect>
            <rect id="Rectangle-Copy-6" transform="translate(7.000000, 0.500000) scale(-1, 1) translate(-7.000000, -0.500000) " x="6" y="0" width="2" height="1" rx="0.5"></rect>
            <rect id="Rectangle-Copy-12" transform="translate(19.000000, 0.500000) scale(-1, 1) translate(-19.000000, -0.500000) " x="18" y="0" width="2" height="1" rx="0.5"></rect>
            <rect id="Rectangle-Copy-3" transform="translate(4.000000, 0.500000) scale(-1, 1) translate(-4.000000, -0.500000) " x="3" y="0" width="2" height="1" rx="0.5"></rect>
            <rect id="Rectangle-Copy-13" transform="translate(16.000000, 0.500000) scale(-1, 1) translate(-16.000000, -0.500000) " x="15" y="0" width="2" height="1" rx="0.5"></rect>
            <rect id="Rectangle-Copy-10" transform="translate(10.000000, 0.500000) scale(-1, 1) translate(-10.000000, -0.500000) " x="9" y="0" width="2" height="1" rx="0.5"></rect>
            <rect id="Rectangle-Copy-14" transform="translate(22.000000, 0.500000) scale(-1, 1) translate(-22.000000, -0.500000) " x="21" y="0" width="2" height="1" rx="0.5"></rect>
        </g>
        <g id="Group-Copy-2" transform="translate(7.000000, 19.000000)" fill="#F16464">
            <rect id="Rectangle-Copy-2" transform="translate(1.000000, 0.500000) scale(-1, 1) translate(-1.000000, -0.500000) " x="0" y="0" width="2" height="1" rx="0.5"></rect>
            <rect id="Rectangle-Copy-11" transform="translate(13.000000, 0.500000) scale(-1, 1) translate(-13.000000, -0.500000) " x="12" y="0" width="2" height="1" rx="0.5"></rect>
            <rect id="Rectangle-Copy-6" transform="translate(7.000000, 0.500000) scale(-1, 1) translate(-7.000000, -0.500000) " x="6" y="0" width="2" height="1" rx="0.5"></rect>
            <rect id="Rectangle-Copy-12" transform="translate(19.000000, 0.500000) scale(-1, 1) translate(-19.000000, -0.500000) " x="18" y="0" width="2" height="1" rx="0.5"></rect>
            <rect id="Rectangle-Copy-3" transform="translate(4.000000, 0.500000) scale(-1, 1) translate(-4.000000, -0.500000) " x="3" y="0" width="2" height="1" rx="0.5"></rect>
            <rect id="Rectangle-Copy-13" transform="translate(16.000000, 0.500000) scale(-1, 1) translate(-16.000000, -0.500000) " x="15" y="0" width="2" height="1" rx="0.5"></rect>
            <rect id="Rectangle-Copy-10" transform="translate(10.000000, 0.500000) scale(-1, 1) translate(-10.000000, -0.500000) " x="9" y="0" width="2" height="1" rx="0.5"></rect>
            <rect id="Rectangle-Copy-14" transform="translate(22.000000, 0.500000) scale(-1, 1) translate(-22.000000, -0.500000) " x="21" y="0" width="2" height="1" rx="0.5"></rect>
        </g>
        <g id="Group-Copy-3" transform="translate(7.000000, 26.000000)" fill="#F16464">
            <rect id="Rectangle-Copy-2" transform="translate(1.000000, 0.500000) scale(-1, 1) translate(-1.000000, -0.500000) " x="0" y="0" width="2" height="1" rx="0.5"></rect>
            <rect id="Rectangle-Copy-11" transform="translate(13.000000, 0.500000) scale(-1, 1) translate(-13.000000, -0.500000) " x="12" y="0" width="2" height="1" rx="0.5"></rect>
            <rect id="Rectangle-Copy-6" transform="translate(7.000000, 0.500000) scale(-1, 1) translate(-7.000000, -0.500000) " x="6" y="0" width="2" height="1" rx="0.5"></rect>
            <rect id="Rectangle-Copy-12" transform="translate(19.000000, 0.500000) scale(-1, 1) translate(-19.000000, -0.500000) " x="18" y="0" width="2" height="1" rx="0.5"></rect>
            <rect id="Rectangle-Copy-3" transform="translate(4.000000, 0.500000) scale(-1, 1) translate(-4.000000, -0.500000) " x="3" y="0" width="2" height="1" rx="0.5"></rect>
            <rect id="Rectangle-Copy-13" transform="translate(16.000000, 0.500000) scale(-1, 1) translate(-16.000000, -0.500000) " x="15" y="0" width="2" height="1" rx="0.5"></rect>
            <rect id="Rectangle-Copy-10" transform="translate(10.000000, 0.500000) scale(-1, 1) translate(-10.000000, -0.500000) " x="9" y="0" width="2" height="1" rx="0.5"></rect>
            <rect id="Rectangle-Copy-14" transform="translate(22.000000, 0.500000) scale(-1, 1) translate(-22.000000, -0.500000) " x="21" y="0" width="2" height="1" rx="0.5"></rect>
        </g>
        <rect id="Rectangle-Copy-15" fill="#0077BE" x="3" y="26" width="3" height="1" rx="0.5"></rect>
        <rect id="Rectangle" fill="#0077BE" x="2" y="0.5" width="2" height="31" rx="1"></rect>
    </g>
</svg>