<?xml version="1.0" encoding="UTF-8"?>
<svg width="32px" height="32px" viewBox="0 0 32 32" version="1.1" xmlns="http://www.w3.org/2000/svg" xmlns:xlink="http://www.w3.org/1999/xlink">
    <title>water_saturation_32x32</title>
    <defs>
        <linearGradient x1="50%" y1="3.49530347%" x2="50%" y2="100%" id="linearGradient-1">
            <stop stop-color="#00ACFF" stop-opacity="0" offset="0%"></stop>
            <stop stop-color="#6EC5F9" stop-opacity="0.673601676" offset="49.9796785%"></stop>
            <stop stop-color="#0077BE" offset="100%"></stop>
        </linearGradient>
        <linearGradient x1="50%" y1="2.66212066%" x2="50%" y2="100%" id="linearGradient-2">
            <stop stop-color="#FFD9DC" offset="0%"></stop>
            <stop stop-color="#E14848" offset="100%"></stop>
        </linearGradient>
    </defs>
    <g id="water_saturation_32x32" stroke="none" stroke-width="1" fill="none" fill-rule="evenodd">
        <g id="Group" transform="translate(3.000000, 1.000000)">
            <path d="M9.60852816,1.35468811 C10.1838653,2.70593464 11.2409516,4.99889389 12.5781185,7.05304544 C13.134057,7.90707655 13.7109776,8.74096982 14.2806532,9.5642773 C16.6165814,12.9402114 18.8626765,16.1259465 18.8626765,19.8500487 C18.8626765,22.6308886 17.8826055,25.0480513 16.2278518,26.7680789 C14.5776511,28.4833738 12.2596889,29.5 9.59790889,29.5 C6.95128377,29.5 4.6837335,28.4942748 3.07642097,26.7945146 C1.44763725,25.0720482 0.5,22.6441677 0.5,19.8500487 C0.5,15.633389 2.51353455,12.8881858 4.6326923,9.95323832 C5.30723681,9.01902155 5.99445326,8.06674804 6.63938953,7.04764921 C8.11485196,4.71619086 9.08713261,2.60729513 9.60852816,1.35468811 Z" id="Fill-1" stroke="#0077BE" fill="url(#linearGradient-1)"></path>
            <path d="M5,20 C5,21.4197414 5.50219575,22.5942186 6.50658724,23.5234316 C7.51097874,24.4526447 8.67544966,24.9448341 10,25" id="Line-6" stroke="#FFFFFF" stroke-linecap="round"></path>
        </g>
        <path d="M21.9052141,-0.770770946 C22.1745701,0.173709539 22.4181973,0.824679441 22.4181973,0.824679441 C22.4181973,0.824679441 23.2221842,2.97292545 24.4085293,4.79538505 C24.7379524,5.30144385 25.0798948,5.79551137 25.4174573,6.28336399 C26.922392,8.45832826 28.308803,10.5223697 28.308803,12.9100292 C28.308803,14.8049457 27.6299461,16.4455711 26.504427,17.6154877 C25.3708104,18.7938213 23.7807495,19.5 21.9499424,19.5 C20.1233251,19.5 18.5634279,18.7977248 17.4557778,17.626366 C16.3495887,16.4565523 15.691197,14.8118257 15.691197,12.9100292 C15.691197,10.1909389 16.9504409,8.4034769 18.3222138,6.50362702 C18.7175949,5.95604024 19.1207961,5.39812959 19.4988277,4.80078129 C20.8563702,2.65565462 21.4765934,0.838938806 21.4765934,0.838938806 C21.502591,0.761404659 21.6979687,0.168362201 21.9052141,-0.770770946 Z" id="Fill-1" stroke="#FFFFFF" fill="url(#linearGradient-2)"></path>
    </g>
</svg>