<?xml version="1.0" encoding="UTF-8"?>
<svg width="16px" height="16px" viewBox="0 0 16 16" version="1.1" xmlns="http://www.w3.org/2000/svg" xmlns:xlink="http://www.w3.org/1999/xlink">
    <title>water_bearing_shaly_sands_16x16</title>
    <defs>
        <linearGradient x1="50%" y1="3.49530347%" x2="50%" y2="100%" id="linearGradient-1">
            <stop stop-color="#1AAAFF" offset="0%"></stop>
            <stop stop-color="#0077BE" offset="100%"></stop>
        </linearGradient>
    </defs>
    <g id="water_bearing_shaly_sands_16x16" stroke="none" stroke-width="1" fill="none" fill-rule="evenodd">
        <rect id="Rectangle-7-Copy-7" stroke="#0077BE" x="0.5" y="0.5" width="15" height="15" rx="2"></rect>
        <path d="M2.29294129,2.29302587 C1.9023529,2.68360205 1.9023529,3.31639795 2.29294129,3.70697413 C2.68365466,4.09767529 3.31634534,4.09767529 3.70705871,3.70697413 C4.0976471,3.31639795 4.0976471,2.68360205 3.70705871,2.29302587 C3.31634534,1.90232471 2.68365466,1.90232471 2.29294129,2.29302587" id="Path-Copy-8" fill="#DB4D4D" opacity="0.208379836"></path>
        <path d="M3.84391142,4.77451426 C3.45332304,5.16509043 3.45332304,5.79788633 3.84391142,6.18846251 C4.23462479,6.57916367 4.86731548,6.57916367 5.25802885,6.18846251 C5.64861723,5.79788633 5.64861723,5.16509043 5.25802885,4.77451426 C4.86731548,4.38381309 4.23462479,4.38381309 3.84391142,4.77451426" id="Path-Copy-12" fill="#DB4D4D" opacity="0.640973772"></path>
        <path d="M5.69309813,7.25600264 C5.30250975,7.64657882 5.30250975,8.27937472 5.69309813,8.6699509 C6.0838115,9.06065206 6.71650218,9.06065206 7.10721556,8.6699509 C7.49780394,8.27937472 7.49780394,7.64657882 7.10721556,7.25600264 C6.71650218,6.86530148 6.0838115,6.86530148 5.69309813,7.25600264" id="Path-Copy-16" fill="#DB4D4D"></path>
        <path d="M9.09325497,7.25600264 C8.70266659,7.64657882 8.70266659,8.27937472 9.09325497,8.6699509 C9.48396834,9.06065206 10.116659,9.06065206 10.5073724,8.6699509 C10.8979608,8.27937472 10.8979608,7.64657882 10.5073724,7.25600264 C10.116659,6.86530148 9.48396834,6.86530148 9.09325497,7.25600264" id="Path-Copy-17" fill="#DB4D4D"></path>
        <path d="M12.4934118,7.29302587 C12.1028234,7.68360205 12.1028234,8.31639795 12.4934118,8.70697413 C12.8841252,9.09767529 13.5168159,9.09767529 13.9075292,8.70697413 C14.2981176,8.31639795 14.2981176,7.68360205 13.9075292,7.29302587 C13.5168159,6.90232471 12.8841252,6.90232471 12.4934118,7.29302587" id="Path-Copy-18" fill="#DB4D4D"></path>
        <path d="M10.6442251,10.0334729 C10.2536367,10.4240491 10.2536367,11.056845 10.6442251,11.4474211 C11.0349385,11.8381223 11.6676292,11.8381223 12.0583425,11.4474211 C12.4489309,11.056845 12.4489309,10.4240491 12.0583425,10.0334729 C11.6676292,9.64277173 11.0349385,9.64277173 10.6442251,10.0334729" id="Path-Copy-19" fill="#DB4D4D"></path>
        <path d="M5.69309813,2.29302587 C5.30250975,2.68360205 5.30250975,3.31639795 5.69309813,3.70697413 C6.0838115,4.09767529 6.71650218,4.09767529 7.10721556,3.70697413 C7.49780394,3.31639795 7.49780394,2.68360205 7.10721556,2.29302587 C6.71650218,1.90232471 6.0838115,1.90232471 5.69309813,2.29302587" id="Path-Copy-9" fill="#DB4D4D" opacity="0.208379836"></path>
        <path d="M7.24406826,4.77451426 C6.85347988,5.16509043 6.85347988,5.79788633 7.24406826,6.18846251 C7.63478163,6.57916367 8.26747232,6.57916367 8.65818569,6.18846251 C9.04877407,5.79788633 9.04877407,5.16509043 8.65818569,4.77451426 C8.26747232,4.38381309 7.63478163,4.38381309 7.24406826,4.77451426" id="Path-Copy-13" fill="#DB4D4D" opacity="0.640973772"></path>
        <path d="M9.09325497,2.29302587 C8.70266659,2.68360205 8.70266659,3.31639795 9.09325497,3.70697413 C9.48396834,4.09767529 10.116659,4.09767529 10.5073724,3.70697413 C10.8979608,3.31639795 10.8979608,2.68360205 10.5073724,2.29302587 C10.116659,1.90232471 9.48396834,1.90232471 9.09325497,2.29302587" id="Path-Copy-10" fill="#DB4D4D" opacity="0.208379836"></path>
        <path d="M3.55271368e-15,10.5037192 C1.36498986,9.83405419 2.69832319,9.60504249 4,9.81668413 C7.245,10.3442937 8,12.5648245 11,12.5648245 C13,12.5648245 14.6666667,11.8777894 16,10.5037192 L16,14 C16,15.1045695 15.1045695,16 14,16 L2,16 C0.8954305,16 3.68798443e-15,15.1045695 3.55271368e-15,14 L3.55271368e-15,10.5037192 L3.55271368e-15,10.5037192 Z" id="Rectangle-7-Copy-7" fill="url(#linearGradient-1)"></path>
        <path d="M10.6442251,4.77451426 C10.2536367,5.16509043 10.2536367,5.79788633 10.6442251,6.18846251 C11.0349385,6.57916367 11.6676292,6.57916367 12.0583425,6.18846251 C12.4489309,5.79788633 12.4489309,5.16509043 12.0583425,4.77451426 C11.6676292,4.38381309 11.0349385,4.38381309 10.6442251,4.77451426" id="Path-Copy-14" fill="#DB4D4D" opacity="0.640973772"></path>
        <path d="M12.4934118,2.25600264 C12.1028234,2.64657882 12.1028234,3.27937472 12.4934118,3.6699509 C12.8841252,4.06065206 13.5168159,4.06065206 13.9075292,3.6699509 C14.2981176,3.27937472 14.2981176,2.64657882 13.9075292,2.25600264 C13.5168159,1.86530148 12.8841252,1.86530148 12.4934118,2.25600264" id="Path-Copy-11" fill="#DB4D4D" opacity="0.208379836"></path>
        <path d="M2.29294129,7.25600264 C1.9023529,7.64657882 1.9023529,8.27937472 2.29294129,8.6699509 C2.68365466,9.06065206 3.31634534,9.06065206 3.70705871,8.6699509 C4.0976471,8.27937472 4.0976471,7.64657882 3.70705871,7.25600264 C3.31634534,6.86530148 2.68365466,6.86530148 2.29294129,7.25600264" id="Path-Copy-15" fill="#DB4D4D"></path>
    </g>
</svg>