<?xml version="1.0" encoding="UTF-8"?>
<svg width="32px" height="32px" viewBox="0 0 32 32" version="1.1" xmlns="http://www.w3.org/2000/svg" xmlns:xlink="http://www.w3.org/1999/xlink">
    <title>wi_python_32x32</title>
    <defs>
        <linearGradient x1="50%" y1="3.49530347%" x2="50%" y2="100%" id="linearGradient-1">
            <stop stop-color="#1AAAFF" offset="0%"></stop>
            <stop stop-color="#0077BE" offset="100%"></stop>
        </linearGradient>
        <linearGradient x1="25.5187587%" y1="67.840607%" x2="112.066854%" y2="7.28121452%" id="linearGradient-2">
            <stop stop-color="#F16464" offset="0%"></stop>
            <stop stop-color="#F79494" offset="54.49984%"></stop>
            <stop stop-color="#FFD3D3" offset="100%"></stop>
        </linearGradient>
    </defs>
    <g id="wi_python_32x32" stroke="none" stroke-width="1" fill="none" fill-rule="evenodd">
        <g id="Group" transform="translate(2.000000, 3.000000)">
            <path d="M2,0 L24,0 C25.1045695,-2.02906125e-16 26,0.8954305 26,2 L26,4 L26,4 L0,4 L0,2 C-1.3527075e-16,0.8954305 0.8954305,2.02906125e-16 2,0 Z" id="Rectangle-7-Copy" fill="url(#linearGradient-1)"></path>
            <path d="M25.5,4.5 L25.5,22 C25.5,22.4142136 25.3321068,22.7892136 25.0606602,23.0606602 C24.7892136,23.3321068 24.4142136,23.5 24,23.5 L24,23.5 L2,23.5 C1.58578644,23.5 1.21078644,23.3321068 0.939339828,23.0606602 C0.667893219,22.7892136 0.5,22.4142136 0.5,22 L0.5,22 L0.5,4.5 L25.5,4.5 Z" id="Rectangle-7-Copy-10" stroke="#0077BE"></path>
        </g>
        <circle id="Oval" fill="#FFFFFF" cx="5" cy="6" r="1"></circle>
        <circle id="Oval-Copy" fill="#FFFFFF" cx="8" cy="6" r="1"></circle>
        <circle id="Oval-Copy-2" fill="#FFFFFF" cx="11" cy="6" r="1"></circle>
        <line x1="13.783528" y1="10.3891764" x2="10.2809404" y2="18.5618808" id="Line-3" stroke="#0077BE" stroke-linecap="round"></line>
        <polyline id="Line-3" stroke="#0077BE" stroke-linecap="round" points="8.9162354 12.1675292 6.5 14.5837646 8.9162354 17"></polyline>
        <polyline id="Line-3" stroke="#0077BE" stroke-linecap="round" transform="translate(16.518705, 14.583765) scale(-1, 1) translate(-16.518705, -14.583765) " points="17.7268224 12.1675292 15.310587 14.5837646 17.7268224 17"></polyline>
        <g id="Group-3" transform="translate(12.000000, 18.000000)">
            <g id="Group" transform="translate(0.690230, 0.249430)" fill="url(#linearGradient-2)" stroke="#FFFFFF">
                <rect id="Rectangle-Copy-7" x="-0.190229571" y="0.250569989" width="18" height="12" rx="2"></rect>
            </g>
            <path d="M3.12988281,7.54915625 L4.35449219,7.54915625 L4.35449219,8.8265 L3.12988281,8.8265 L3.12988281,7.54915625 Z M8.29003906,8.23567969 C8.70019736,8.23567969 9.04117703,8.06396917 9.31298828,7.72054297 C9.58479954,7.37711677 9.72070312,6.86361279 9.72070312,6.18001562 C9.72070312,5.76334687 9.66048237,5.40527754 9.54003906,5.10579687 C9.31217334,4.52962212 8.89551084,4.24153906 8.29003906,4.24153906 C7.68131206,4.24153906 7.26464956,4.545898 7.04003906,5.154625 C6.91959575,5.48014746 6.859375,5.89355479 6.859375,6.39485937 C6.859375,6.79850723 6.91959575,7.14192827 7.04003906,7.42513281 C7.26790479,7.9655001 7.68456729,8.23567969 8.29003906,8.23567969 Z M6.01464844,3.62142187 L6.86914062,3.62142187 L6.86914062,4.31478125 C7.04492275,4.07714985 7.23697813,3.89323242 7.4453125,3.76302344 C7.74153794,3.56770996 8.08984175,3.47005469 8.49023438,3.47005469 C9.08268525,3.47005469 9.58560991,3.6971032 9.99902344,4.15120703 C10.412437,4.60531086 10.6191406,5.25390464 10.6191406,6.09700781 C10.6191406,7.23633643 10.321292,8.05013037 9.72558594,8.53841406 C9.34797988,8.8476604 8.90853115,9.00228125 8.40722656,9.00228125 C8.01334438,9.00228125 7.68294404,8.91601909 7.41601562,8.74349219 C7.25976484,8.64583545 7.08561294,8.4781939 6.89355469,8.2405625 L6.89355469,10.9114609 L6.01464844,10.9114609 L6.01464844,3.62142187 Z M14.9111328,3.59700781 L15.8828125,3.59700781 C15.759114,3.93229595 15.4840516,4.69726226 15.0576172,5.89192969 C14.7386052,6.79037168 14.4716808,7.52278623 14.2568359,8.08919531 C13.7490209,9.4238374 13.3909516,10.2376313 13.1826172,10.5306016 C12.9742828,10.8235718 12.6162135,10.9700547 12.1083984,10.9700547 C11.9846999,10.9700547 11.889486,10.9651719 11.8227539,10.9554062 C11.7560218,10.9456406 11.6738286,10.9277371 11.5761719,10.9016953 L11.5761719,10.1009141 C11.7291674,10.143232 11.8398434,10.1692734 11.9082031,10.1790391 C11.9765628,10.1888047 12.0367836,10.1936875 12.0888672,10.1936875 C12.2516284,10.1936875 12.3712561,10.1668323 12.4477539,10.1131211 C12.5242517,10.0594099 12.5885414,9.99349258 12.640625,9.91536719 C12.6569011,9.88932539 12.7154943,9.75586318 12.8164062,9.51497656 C12.9173182,9.27408994 12.9905597,9.09505527 13.0361328,8.97786719 L11.1025391,3.59700781 L12.0986328,3.59700781 L13.5,7.85482031 L14.9111328,3.59700781 Z" id=".py" fill="#FFFFFF" fill-rule="nonzero"></path>
        </g>
    </g>
</svg>