<?xml version="1.0" encoding="UTF-8"?>
<svg width="16px" height="16px" viewBox="0 0 16 16" version="1.1" xmlns="http://www.w3.org/2000/svg" xmlns:xlink="http://www.w3.org/1999/xlink">
    <title>zone_edit_16x16</title>
    <defs>
        <linearGradient x1="72.7509329%" y1="4.84199919%" x2="50%" y2="100%" id="linearGradient-1">
            <stop stop-color="#1AAAFF" offset="0%"></stop>
            <stop stop-color="#0077BE" offset="100%"></stop>
        </linearGradient>
    </defs>
    <g id="zone_edit_16x16" stroke="none" stroke-width="1" fill="none" fill-rule="evenodd">
        <rect id="Rectangle-2-Copy-8" fill="#0077BE" x="2" y="8" width="1" height="1"></rect>
        <rect id="Rectangle-2-Copy-13" fill="#0077BE" opacity="0.216448103" x="1" y="7" width="9" height="6"></rect>
        <rect id="Rectangle-2-Copy-9" fill="#0077BE" x="6" y="8" width="1" height="1"></rect>
        <rect id="Rectangle-2-Copy-11" fill="#0077BE" x="4" y="8" width="1" height="1"></rect>
        <rect id="Rectangle-2-Copy-12" fill="#0077BE" x="8" y="8" width="1" height="1"></rect>
        <rect id="Rectangle-2-Copy-8" fill="#0077BE" x="2" y="10" width="1" height="1"></rect>
        <rect id="Rectangle-2-Copy-9" fill="#0077BE" x="6" y="10" width="1" height="1"></rect>
        <rect id="Rectangle-2-Copy-10" fill="#F16464" opacity="0.23" x="1" y="1" width="9" height="6"></rect>
        <rect id="Rectangle-2-Copy-11" fill="#0077BE" x="4" y="10" width="1" height="1"></rect>
        <rect id="Rectangle-2-Copy-12" fill="#0077BE" x="8" y="10" width="1" height="1"></rect>
        <rect id="Rectangle-2-Copy-8" fill="#0077BE" x="2" y="12" width="1" height="1"></rect>
        <rect id="Rectangle-2-Copy-9" fill="#0077BE" x="6" y="12" width="1" height="1"></rect>
        <rect id="Rectangle-2-Copy-11" fill="#0077BE" x="4" y="12" width="1" height="1"></rect>
        <rect id="Rectangle-2-Copy-12" fill="#0077BE" x="8" y="12" width="1" height="1"></rect>
        <rect id="Rectangle-7-Copy-12" stroke="#0077BE" x="0.5" y="0.5" width="10" height="15" rx="2"></rect>
        <rect id="Rectangle-2-Copy-8" fill="#F16464" x="2" y="2" width="1" height="1"></rect>
        <rect id="Rectangle-2-Copy-9" fill="#F16464" x="6" y="2" width="1" height="1"></rect>
        <rect id="Rectangle-2-Copy-11" fill="#F16464" x="4" y="2" width="1" height="1"></rect>
        <rect id="Rectangle-2-Copy-12" fill="#F16464" x="8" y="2" width="1" height="1"></rect>
        <rect id="Rectangle-2-Copy-8" fill="#F16464" x="2" y="6" width="1" height="1"></rect>
        <rect id="Rectangle-2-Copy-9" fill="#F16464" x="6" y="6" width="1" height="1"></rect>
        <rect id="Rectangle-2-Copy-11" fill="#F16464" x="4" y="6" width="1" height="1"></rect>
        <rect id="Rectangle-2-Copy-12" fill="#F16464" x="8" y="6" width="1" height="1"></rect>
        <g id="Group" transform="translate(6.000000, 6.000000)" stroke="#FFFFFF">
            <circle id="Oval-2" fill="url(#linearGradient-1)" cx="5" cy="5" r="5.5"></circle>
            <polyline id="Line-2" stroke-width="1.5" stroke-linecap="round" transform="translate(5.162365, 4.289431) rotate(-315.000000) translate(-5.162365, -4.289431) " points="4.2695077 6.43228844 6.05522198 6.43228844 6.05522198 2.14657416"></polyline>
        </g>
        <rect id="Rectangle-2-Copy-8" fill="#F16464" x="2" y="4" width="1" height="1"></rect>
        <rect id="Rectangle-2-Copy-9" fill="#F16464" x="6" y="4" width="1" height="1"></rect>
        <rect id="Rectangle-2-Copy-11" fill="#F16464" x="4" y="4" width="1" height="1"></rect>
        <rect id="Rectangle-2-Copy-12" fill="#F16464" x="8" y="4" width="1" height="1"></rect>
    </g>
</svg>