<?xml version="1.0" encoding="UTF-8"?>
<svg width="16px" height="16px" viewBox="0 0 16 16" version="1.1" xmlns="http://www.w3.org/2000/svg" xmlns:xlink="http://www.w3.org/1999/xlink">
    <title>zone_color_his_16x16</title>
    <defs>
        <polygon id="path-1" points="0 0 7.813 0 7.813 13.9996 0 13.9996"></polygon>
        <polygon id="path-3" points="0 0 7.813 0 7.813 13.9996 0 13.9996"></polygon>
        <polygon id="path-5" points="0 0 7.813 0 7.813 13.9996 0 13.9996"></polygon>
        <polygon id="path-7" points="0 0 7.813 0 7.813 13.9996 0 13.9996"></polygon>
        <polygon id="path-9" points="0 0 7.813 0 7.813 13.9996 0 13.9996"></polygon>
    </defs>
    <g id="zone_color_his_16x16" stroke="none" stroke-width="1" fill="none" fill-rule="evenodd">
        <rect id="Rectangle-20-Copy-34" fill="#0077BE" x="3" y="0" width="1" height="16"></rect>
        <g id="Group-3" transform="translate(0.000000, 1.000000)">
            <mask id="mask-2" fill="white">
                <use xlink:href="#path-1"></use>
            </mask>
            <g id="Clip-2"></g>
            <path d="M1.0823,11.3076 C1.0823,12.4066 1.9063,13.3106 2.9673,13.4456 C3.0533,13.4556 3.1453,13.4616 3.2363,13.4616 C3.3283,13.4616 3.4193,13.4556 3.5053,13.4456 C3.9953,13.3856 4.4323,13.1606 4.7603,12.8306 L5.1373,13.2136 C4.7113,13.6396 4.1413,13.9246 3.5053,13.9836 C3.4193,13.9946 3.3283,13.9996 3.2363,13.9996 C3.1453,13.9996 3.0533,13.9946 2.9673,13.9836 C1.6043,13.8496 0.5433,12.7026 0.5433,11.3076 C0.5433,10.3006 1.0983,9.4226 1.9163,8.9596 C2.2293,8.7826 2.5843,8.6636 2.9673,8.6316 C3.0533,8.6206 3.1453,8.6156 3.2363,8.6156 C3.3283,8.6156 3.4193,8.6206 3.5053,8.6316 L3.5053,8.5996 C5.6113,8.4696 7.2743,6.7146 7.2743,4.5776 C7.2743,2.4396 5.6113,0.6836 3.5053,0.5546 C3.4143,0.5436 3.3283,0.5376 3.2363,0.5376 C3.1453,0.5376 3.0583,0.5436 2.9673,0.5546 C1.9603,0.6146 1.0553,1.0496 0.3823,1.7226 L0.3763,1.7226 L-0.0007,1.3406 C0.7703,0.5706 1.8093,0.0756 2.9673,0.0056 C3.0583,-0.0004 3.1453,-0.0004 3.2363,-0.0004 C3.3283,-0.0004 3.4143,-0.0004 3.5053,0.0056 C5.9073,0.1456 7.8133,2.1426 7.8133,4.5776 C7.8133,6.6446 6.4403,8.3946 4.5553,8.9596 C4.2213,9.0626 3.8663,9.1266 3.5053,9.1486 C3.4143,9.1546 3.3283,9.1546 3.2363,9.1546 C3.1453,9.1546 3.0583,9.1546 2.9673,9.1486 L2.9673,9.1696 C1.9063,9.3046 1.0823,10.2086 1.0823,11.3076" id="Fill-1" fill="#0077BE" mask="url(#mask-2)"></path>
        </g>
        <g id="Group-3" transform="translate(0.000000, 1.000000)">
            <mask id="mask-4" fill="white">
                <use xlink:href="#path-3"></use>
            </mask>
            <g id="Clip-2"></g>
            <path d="M1.0823,11.3076 C1.0823,12.4066 1.9063,13.3106 2.9673,13.4456 C3.0533,13.4556 3.1453,13.4616 3.2363,13.4616 C3.3283,13.4616 3.4193,13.4556 3.5053,13.4456 C3.9953,13.3856 4.4323,13.1606 4.7603,12.8306 L5.1373,13.2136 C4.7113,13.6396 4.1413,13.9246 3.5053,13.9836 C3.4193,13.9946 3.3283,13.9996 3.2363,13.9996 C3.1453,13.9996 3.0533,13.9946 2.9673,13.9836 C1.6043,13.8496 0.5433,12.7026 0.5433,11.3076 C0.5433,10.3006 1.0983,9.4226 1.9163,8.9596 C2.2293,8.7826 2.5843,8.6636 2.9673,8.6316 C3.0533,8.6206 3.1453,8.6156 3.2363,8.6156 C3.3283,8.6156 3.4193,8.6206 3.5053,8.6316 L3.5053,8.5996 C5.6113,8.4696 7.2743,6.7146 7.2743,4.5776 C7.2743,2.4396 5.6113,0.6836 3.5053,0.5546 C3.4143,0.5436 3.3283,0.5376 3.2363,0.5376 C3.1453,0.5376 3.0583,0.5436 2.9673,0.5546 C1.9603,0.6146 1.0553,1.0496 0.3823,1.7226 L0.3763,1.7226 L-0.0007,1.3406 C0.7703,0.5706 1.8093,0.0756 2.9673,0.0056 C3.0583,-0.0004 3.1453,-0.0004 3.2363,-0.0004 C3.3283,-0.0004 3.4143,-0.0004 3.5053,0.0056 C5.9073,0.1456 7.8133,2.1426 7.8133,4.5776 C7.8133,6.6446 6.4403,8.3946 4.5553,8.9596 C4.2213,9.0626 3.8663,9.1266 3.5053,9.1486 C3.4143,9.1546 3.3283,9.1546 3.2363,9.1546 C3.1453,9.1546 3.0583,9.1546 2.9673,9.1486 L2.9673,9.1696 C1.9063,9.3046 1.0823,10.2086 1.0823,11.3076" id="Fill-1" fill="#0077BE" mask="url(#mask-4)"></path>
        </g>
        <g id="Group-3" transform="translate(0.000000, 1.000000)">
            <mask id="mask-6" fill="white">
                <use xlink:href="#path-5"></use>
            </mask>
            <g id="Clip-2"></g>
            <path d="M1.0823,11.3076 C1.0823,12.4066 1.9063,13.3106 2.9673,13.4456 C3.0533,13.4556 3.1453,13.4616 3.2363,13.4616 C3.3283,13.4616 3.4193,13.4556 3.5053,13.4456 C3.9953,13.3856 4.4323,13.1606 4.7603,12.8306 L5.1373,13.2136 C4.7113,13.6396 4.1413,13.9246 3.5053,13.9836 C3.4193,13.9946 3.3283,13.9996 3.2363,13.9996 C3.1453,13.9996 3.0533,13.9946 2.9673,13.9836 C1.6043,13.8496 0.5433,12.7026 0.5433,11.3076 C0.5433,10.3006 1.0983,9.4226 1.9163,8.9596 C2.2293,8.7826 2.5843,8.6636 2.9673,8.6316 C3.0533,8.6206 3.1453,8.6156 3.2363,8.6156 C3.3283,8.6156 3.4193,8.6206 3.5053,8.6316 L3.5053,8.5996 C5.6113,8.4696 7.2743,6.7146 7.2743,4.5776 C7.2743,2.4396 5.6113,0.6836 3.5053,0.5546 C3.4143,0.5436 3.3283,0.5376 3.2363,0.5376 C3.1453,0.5376 3.0583,0.5436 2.9673,0.5546 C1.9603,0.6146 1.0553,1.0496 0.3823,1.7226 L0.3763,1.7226 L-0.0007,1.3406 C0.7703,0.5706 1.8093,0.0756 2.9673,0.0056 C3.0583,-0.0004 3.1453,-0.0004 3.2363,-0.0004 C3.3283,-0.0004 3.4143,-0.0004 3.5053,0.0056 C5.9073,0.1456 7.8133,2.1426 7.8133,4.5776 C7.8133,6.6446 6.4403,8.3946 4.5553,8.9596 C4.2213,9.0626 3.8663,9.1266 3.5053,9.1486 C3.4143,9.1546 3.3283,9.1546 3.2363,9.1546 C3.1453,9.1546 3.0583,9.1546 2.9673,9.1486 L2.9673,9.1696 C1.9063,9.3046 1.0823,10.2086 1.0823,11.3076" id="Fill-1" fill="#0077BE" mask="url(#mask-6)"></path>
        </g>
        <g id="Group-3" transform="translate(0.000000, 1.000000)">
            <mask id="mask-8" fill="white">
                <use xlink:href="#path-7"></use>
            </mask>
            <g id="Clip-2"></g>
            <path d="M1.0823,11.3076 C1.0823,12.4066 1.9063,13.3106 2.9673,13.4456 C3.0533,13.4556 3.1453,13.4616 3.2363,13.4616 C3.3283,13.4616 3.4193,13.4556 3.5053,13.4456 C3.9953,13.3856 4.4323,13.1606 4.7603,12.8306 L5.1373,13.2136 C4.7113,13.6396 4.1413,13.9246 3.5053,13.9836 C3.4193,13.9946 3.3283,13.9996 3.2363,13.9996 C3.1453,13.9996 3.0533,13.9946 2.9673,13.9836 C1.6043,13.8496 0.5433,12.7026 0.5433,11.3076 C0.5433,10.3006 1.0983,9.4226 1.9163,8.9596 C2.2293,8.7826 2.5843,8.6636 2.9673,8.6316 C3.0533,8.6206 3.1453,8.6156 3.2363,8.6156 C3.3283,8.6156 3.4193,8.6206 3.5053,8.6316 L3.5053,8.5996 C5.6113,8.4696 7.2743,6.7146 7.2743,4.5776 C7.2743,2.4396 5.6113,0.6836 3.5053,0.5546 C3.4143,0.5436 3.3283,0.5376 3.2363,0.5376 C3.1453,0.5376 3.0583,0.5436 2.9673,0.5546 C1.9603,0.6146 1.0553,1.0496 0.3823,1.7226 L0.3763,1.7226 L-0.0007,1.3406 C0.7703,0.5706 1.8093,0.0756 2.9673,0.0056 C3.0583,-0.0004 3.1453,-0.0004 3.2363,-0.0004 C3.3283,-0.0004 3.4143,-0.0004 3.5053,0.0056 C5.9073,0.1456 7.8133,2.1426 7.8133,4.5776 C7.8133,6.6446 6.4403,8.3946 4.5553,8.9596 C4.2213,9.0626 3.8663,9.1266 3.5053,9.1486 C3.4143,9.1546 3.3283,9.1546 3.2363,9.1546 C3.1453,9.1546 3.0583,9.1546 2.9673,9.1486 L2.9673,9.1696 C1.9063,9.3046 1.0823,10.2086 1.0823,11.3076" id="Fill-1" fill="#0077BE" mask="url(#mask-8)"></path>
        </g>
        <g id="Group-3" transform="translate(0.000000, 1.000000)">
            <mask id="mask-10" fill="white">
                <use xlink:href="#path-9"></use>
            </mask>
            <g id="Clip-2"></g>
            <path d="M1.0823,11.3076 C1.0823,12.4066 1.9063,13.3106 2.9673,13.4456 C3.0533,13.4556 3.1453,13.4616 3.2363,13.4616 C3.3283,13.4616 3.4193,13.4556 3.5053,13.4456 C3.9953,13.3856 4.4323,13.1606 4.7603,12.8306 L5.1373,13.2136 C4.7113,13.6396 4.1413,13.9246 3.5053,13.9836 C3.4193,13.9946 3.3283,13.9996 3.2363,13.9996 C3.1453,13.9996 3.0533,13.9946 2.9673,13.9836 C1.6043,13.8496 0.5433,12.7026 0.5433,11.3076 C0.5433,10.3006 1.0983,9.4226 1.9163,8.9596 C2.2293,8.7826 2.5843,8.6636 2.9673,8.6316 C3.0533,8.6206 3.1453,8.6156 3.2363,8.6156 C3.3283,8.6156 3.4193,8.6206 3.5053,8.6316 L3.5053,8.5996 C5.6113,8.4696 7.2743,6.7146 7.2743,4.5776 C7.2743,2.4396 5.6113,0.6836 3.5053,0.5546 C3.4143,0.5436 3.3283,0.5376 3.2363,0.5376 C3.1453,0.5376 3.0583,0.5436 2.9673,0.5546 C1.9603,0.6146 1.0553,1.0496 0.3823,1.7226 L0.3763,1.7226 L-0.0007,1.3406 C0.7703,0.5706 1.8093,0.0756 2.9673,0.0056 C3.0583,-0.0004 3.1453,-0.0004 3.2363,-0.0004 C3.3283,-0.0004 3.4143,-0.0004 3.5053,0.0056 C5.9073,0.1456 7.8133,2.1426 7.8133,4.5776 C7.8133,6.6446 6.4403,8.3946 4.5553,8.9596 C4.2213,9.0626 3.8663,9.1266 3.5053,9.1486 C3.4143,9.1546 3.3283,9.1546 3.2363,9.1546 C3.1453,9.1546 3.0583,9.1546 2.9673,9.1486 L2.9673,9.1696 C1.9063,9.3046 1.0823,10.2086 1.0823,11.3076" id="Fill-1" fill="#0077BE" mask="url(#mask-10)"></path>
        </g>
        <rect id="Rectangle-20-Copy-51" fill="#0077BE" x="4" y="2" width="2" height="7"></rect>
        <rect id="Rectangle-20-Copy-52" fill="#0077BE" x="5" y="3" width="2" height="5"></rect>
        <rect id="Rectangle-20-Copy-53" fill="#0077BE" x="1" y="10" width="2" height="4"></rect>
        <rect id="Rectangle-20-Copy-54" fill="#0077BE" x="0" y="11" width="2" height="3"></rect>
        <rect id="Rectangle-20-Copy-59" fill="#0077BE" opacity="0.206082589" x="0" y="10" width="1" height="1"></rect>
        <rect id="Rectangle-20-Copy-60" fill="#0077BE" opacity="0.206082589" x="1" y="9" width="1" height="1"></rect>
        <rect id="Rectangle-20-Copy-61" fill="#0077BE" opacity="0.206082589" x="2" y="8" width="1" height="1"></rect>
        <rect id="Rectangle-20-Copy-62" fill="#0077BE" opacity="0.206082589" x="7" y="8" width="1" height="1"></rect>
        <rect id="Rectangle-20-Copy-65" fill="#0077BE" opacity="0.548604911" x="6" y="1" width="1" height="1"></rect>
        <rect id="Rectangle-20-Copy-63" fill="#0077BE" opacity="0.206082589" x="7" y="2" width="1" height="1"></rect>
        <rect id="Rectangle-20-Copy-55" fill="#0077BE" x="2" y="9" width="2" height="3"></rect>
        <rect id="Rectangle-20-Copy-56" fill="#0077BE" x="1" y="12" width="2" height="3"></rect>
        <rect id="Rectangle-20-Copy-57" fill="#0077BE" x="6" y="2" width="2" height="6"></rect>
        <rect id="Rectangle-20-Copy-64" fill="#0077BE" x="7" y="3" width="2" height="4"></rect>
        <rect id="Rectangle-20-Copy-58" fill="#0077BE" x="4" y="1" width="2" height="5"></rect>
        <rect id="Rectangle-20-Copy-73" fill="#F8E71C" x="10" y="1" width="6" height="3"></rect>
        <rect id="Rectangle-20-Copy-74" fill="#B8E986" x="10" y="4" width="6" height="3"></rect>
        <rect id="Rectangle-20-Copy-75" fill="#4A90E2" x="10" y="7" width="6" height="3"></rect>
        <rect id="Rectangle-20-Copy-76" fill="#F16464" x="10" y="10" width="6" height="3"></rect>
        <rect id="Rectangle-20-Copy-77" fill="#9013FE" x="10" y="13" width="6" height="3"></rect>
    </g>
</svg>