<?xml version="1.0" encoding="UTF-8"?>
<svg width="16px" height="16px" viewBox="0 0 16 16" version="1.1" xmlns="http://www.w3.org/2000/svg" xmlns:xlink="http://www.w3.org/1999/xlink">
    <title>zone_split_16x16</title>
    <g id="zone_split_16x16" stroke="none" stroke-width="1" fill="none" fill-rule="evenodd">
        <rect id="Rectangle-20-Copy-48" fill="#F16464" x="2" y="3" width="1" height="1"></rect>
        <rect id="Rectangle-20-Copy-55" fill="#FFFFFF" x="2" y="3" width="1" height="1"></rect>
        <rect id="Rectangle-20-Copy-56" fill="#FFFFFF" x="2" y="5" width="1" height="1"></rect>
        <rect id="Rectangle-20-Copy-67" fill="#FFFFFF" x="4" y="5" width="1" height="1"></rect>
        <g id="cut-with-scissors" transform="translate(0.000000, 2.000000)">
            <path d="M14.3716923,2.60307692 C14.3716923,2.60307692 13.4861538,1.84061538 12.7396923,2.26584615 C12.1649231,2.59630769 8.51384615,4.42830769 6.88492308,5.24430769 L4.57846154,3.92553846 C4.82892308,3.48184615 4.87076923,2.96861538 4.736,2.47384615 C4.56553846,1.84861538 4.11446154,1.256 3.44861538,0.875076923 C2.25169231,0.188923077 0.812923077,0.449846154 0.238769231,1.45784615 C-0.0172307692,1.90276923 -0.0590769231,2.41969231 0.0750769231,2.91815385 C0.245538462,3.54338462 0.696615385,4.13661538 1.36246154,4.51938462 C1.65661538,4.68553846 1.96307692,4.79569231 2.26769231,4.85230769 L2.26769231,4.85292308 C2.27015385,4.85353846 2.27261538,4.85353846 2.27507692,4.85476923 C2.29907692,4.85846154 2.32676923,4.864 2.35323077,4.86707692 C4.25230769,5.14953846 5.22338462,5.68553846 5.69476923,6.06338462 C5.22338462,6.44246154 4.25230769,6.97723077 2.35323077,7.26030769 C2.32676923,7.26338462 2.29907692,7.26830769 2.27507692,7.272 C2.27261538,7.27323077 2.27015385,7.27323077 2.26769231,7.27446154 L2.26769231,7.27446154 C1.96369231,7.33107692 1.65723077,7.44123077 1.36246154,7.608 C0.696615385,7.99076923 0.246153846,8.58338462 0.0750769231,9.20923077 C-0.0596923077,9.70646154 -0.0172307692,10.2233846 0.238769231,10.6707692 C0.813538462,11.6769231 2.25169231,11.9390769 3.44923077,11.2529231 C4.11507692,10.8707692 4.56553846,10.2781538 4.73661538,9.65169231 C4.87138462,9.15753846 4.82892308,8.64553846 4.57907692,8.20123077 L6.88553846,6.88307692 C8.51384615,7.69846154 12.1655385,9.53230769 12.7403077,9.86092308 C13.4867692,10.2861538 14.3723077,9.52430769 14.3723077,9.52430769 L8.31815385,6.06338462 L14.3716923,2.60307692 Z M3.59569231,3.37661538 C3.33353846,3.83323077 2.568,3.90769231 1.92369231,3.53907692 C1.54523077,3.32369231 1.26030769,2.98030769 1.16307692,2.62338462 C1.12061538,2.464 1.09292308,2.23076923 1.21723077,2.01723077 C1.47815385,1.56123077 2.24369231,1.48676923 2.888,1.85476923 C3.27261538,2.07323077 3.54892308,2.40738462 3.64738462,2.77046154 C3.69169231,2.928 3.71692308,3.16246154 3.59569231,3.37661538 Z M3.64738462,9.35569231 C3.54892308,9.71938462 3.27261538,10.0529231 2.888,10.272 C2.24369231,10.6412308 1.47815385,10.5661538 1.21723077,10.1089231 C1.09353846,9.89476923 1.12123077,9.66215385 1.16307692,9.50461538 C1.26030769,9.14646154 1.54523077,8.80307692 1.92369231,8.58646154 C2.568,8.21846154 3.33353846,8.29292308 3.59569231,8.75015385 C3.71692308,8.96553846 3.69169231,9.19815385 3.64738462,9.35569231 Z" id="Shape" fill="#0077BE" fill-rule="nonzero"></path>
            <rect id="Rectangle" fill="#F16464" x="9.76246154" y="5.76430769" width="1.48307692" height="1" rx="0.304923"></rect>
            <rect id="Rectangle" fill="#F16464" x="11.9864615" y="5.76430769" width="1.48184615" height="1" rx="0.304923"></rect>
            <rect id="Rectangle" fill="#F16464" x="14.3396923" y="5.75815385" width="1.48061538" height="1" rx="0.304923"></rect>
        </g>
    </g>
</svg>