<?xml version="1.0" encoding="UTF-8"?>
<svg width="16px" height="16px" viewBox="0 0 16 16" version="1.1" xmlns="http://www.w3.org/2000/svg" xmlns:xlink="http://www.w3.org/1999/xlink">
    <title>zoom_default_16x16</title>
    <g id="zoom_default_16x16" stroke="none" stroke-width="1" fill="none" fill-rule="evenodd">
        <path d="M3.27260143,9.73709693 C3.82488618,9.73709693 4.27260143,10.1848122 4.27260143,10.7370969 L4.27260143,15.2461172 C4.27260143,15.7984019 3.82488618,16.2461172 3.27260143,16.2461172 C2.72031668,16.2461172 2.27260143,15.7984019 2.27260143,15.2461172 L2.27260143,10.7370969 C2.27260143,10.1848122 2.72031668,9.73709693 3.27260143,9.73709693 Z" id="Rectangle-21" fill="#0077BE" transform="translate(3.272601, 12.991607) rotate(-315.000000) translate(-3.272601, -12.991607) "></path>
        <path d="M8.99166012,1.50001605 C10.6726357,1.56022538 12.0032998,2.18985462 12.9618361,3.18503896 C13.9143159,4.17393521 14.5,5.51857438 14.5,7 C14.5,8.51878306 13.8843915,9.89378306 12.8890873,10.8890873 C11.8956663,11.8825083 10.5239849,12.4976691 9.00833988,12.499984 C7.32736433,12.4397746 5.99670018,11.8101454 5.03816386,10.814961 C4.08568408,9.82606479 3.5,8.48142562 3.5,7 C3.5,5.48121694 4.11560847,4.10621694 5.1109127,3.1109127 C6.10433373,2.11749167 7.47601505,1.50233093 8.99166012,1.50001605 Z" id="Oval-6" stroke="#0077BE"></path>
    </g>
</svg>